<?xml version="1.0" encoding="UTF-8"?>
<svg id="_layer_1" data-name="layer_1" xmlns="http://www.w3.org/2000/svg" viewBox="0 0 863.69 319.54">
  <path d="M371.07,2.72c-5.82,2.99-67.97,34.96-72.57,37.32.06.03.1.05.1.05l73.28,37.69s67.66-35.06,72.46-37.55l-.1-.05L371.5,2.5l-.44.22Z" style="fill: none; stroke: #000; stroke-miterlimit: 10;"/>
  <text transform="translate(344.41 33.63)" style="font-family: NotoSerifSC-Regular, &apos;Noto Serif SC&apos;; font-size: 18px;"><tspan x="0" y="0">还有下</tspan><tspan x="-13.5" y="21.6">一个作业</tspan><tspan x="58.5" y="21.6" style="letter-spacing: -.5em;">？</tspan></text>
  <text transform="translate(535 26.25)" style="font-family: NotoSerifSC-Regular, &apos;Noto Serif SC&apos;; font-size: 18px;"><tspan x="0" y="0">把下一个作业</tspan><tspan x="0" y="21.6">的源程序转换</tspan><tspan x="9" y="43.2">为目标程序</tspan></text>
  <rect x="529.5" y="3.5" width="119" height="74" style="fill: none; stroke: #000; stroke-miterlimit: 10;"/>
  <g id="arrow">
    <g>
      <line x1="444.33" y1="40.24" x2="523.53" y2="40.24" style="fill: none; stroke: #000; stroke-miterlimit: 10;"/>
      <polygon points="520.72 43.94 522.3 40.24 520.72 36.53 529.5 40.24 520.72 43.94"/>
    </g>
  </g>
  <text transform="translate(477.91 30.28)" style="font-family: NotoSerifSC-Regular, &apos;Noto Serif SC&apos;; font-size: 18px;"><tspan x="0" y="0">是</tspan></text>
  <path d="M589.12,131.43c-5.82,2.99-67.97,34.96-72.57,37.32.06.03.1.05.1.05l73.28,37.69s67.66-35.06,72.46-37.55l-.1-.05-72.72-37.69-.44.22Z" style="fill: none; stroke: #000; stroke-miterlimit: 10;"/>
  <text transform="translate(562.47 165.34)" style="font-family: NotoSerifSC-Regular, &apos;Noto Serif SC&apos;; font-size: 18px;"><tspan x="0" y="0">源程序</tspan><tspan x="-4.5" y="21.6">有错吗</tspan><tspan x="49.5" y="21.6" style="letter-spacing: -.5em;">？</tspan></text>
  <g id="arrow-2" data-name="arrow">
    <g>
      <line x1="589.47" y1="77.5" x2="589.47" y2="125.46" style="fill: none; stroke: #000; stroke-miterlimit: 10;"/>
      <polygon points="585.76 122.65 589.47 124.22 593.17 122.65 589.47 131.43 585.76 122.65"/>
    </g>
  </g>
  <g id="arrow-3" data-name="arrow">
    <g>
      <line x1="201.31" y1="40.14" x2="292.53" y2="40.14" style="fill: none; stroke: #000; stroke-miterlimit: 10;"/>
      <polygon points="289.72 43.85 291.29 40.14 289.72 36.44 298.5 40.14 289.72 43.85"/>
    </g>
  </g>
  <g id="dot">
    <circle cx="227.5" cy="40.5" r="3"/>
  </g>
  <text transform="translate(209.98 28.64)" style="font-family: NotoSerifSC-Regular, &apos;Noto Serif SC&apos;; font-size: 18px;"><tspan x="0" y="0">开始</tspan></text>
  <g id="arrow-4" data-name="arrow">
    <g>
      <line x1="589.32" y1="206.48" x2="589.32" y2="254.44" style="fill: none; stroke: #000; stroke-miterlimit: 10;"/>
      <polygon points="585.62 251.63 589.32 253.2 593.03 251.63 589.32 260.4 585.62 251.63"/>
    </g>
  </g>
  <text transform="translate(562.06 236.92)" style="font-family: NotoSerifSC-Regular, &apos;Noto Serif SC&apos;; font-size: 18px;"><tspan x="0" y="0">否</tspan></text>
  <text transform="translate(572 283.55)" style="font-family: NotoSerifSC-Regular, &apos;Noto Serif SC&apos;; font-size: 18px;"><tspan x="0" y="0">装配</tspan><tspan x="-18" y="21.6">目标程序</tspan></text>
  <rect x="530.5" y="260.5" width="119" height="53" style="fill: none; stroke: #000; stroke-miterlimit: 10;"/>
  <text transform="translate(358 283.55)" style="font-family: NotoSerifSC-Regular, &apos;Noto Serif SC&apos;; font-size: 18px;"><tspan x="0" y="0">运行</tspan><tspan x="-18" y="21.6">目标程序</tspan></text>
  <rect x="316.5" y="260.5" width="119" height="53" style="fill: none; stroke: #000; stroke-miterlimit: 10;"/>
  <g id="arrow-5" data-name="arrow">
    <g>
      <line x1="530.5" y1="287" x2="441.47" y2="287" style="fill: none; stroke: #000; stroke-miterlimit: 10;"/>
      <polygon points="444.28 283.3 442.71 287 444.28 290.7 435.5 287 444.28 283.3"/>
    </g>
  </g>
  <g id="arrow-6" data-name="arrow">
    <g>
      <line x1="227.5" y1="287" x2="227.5" y2="47.79" style="fill: none; stroke: #000; stroke-miterlimit: 10;"/>
      <polygon points="231.21 50.6 227.5 49.03 223.8 50.6 227.5 41.82 231.21 50.6"/>
    </g>
  </g>
  <g id="arrow-7" data-name="arrow">
    <g>
      <line x1="316.5" y1="287" x2="233.47" y2="287" style="fill: none; stroke: #000; stroke-miterlimit: 10;"/>
      <polygon points="236.28 283.3 234.71 287 236.28 290.7 227.5 287 236.28 283.3"/>
    </g>
  </g>
  <g id="dot-2" data-name="dot">
    <circle cx="227.5" cy="169" r="3"/>
  </g>
  <g id="arrow-8" data-name="arrow">
    <g>
      <line x1="516.65" y1="168.8" x2="233.47" y2="168.8" style="fill: none; stroke: #000; stroke-miterlimit: 10;"/>
      <polygon points="236.28 165.1 234.71 168.8 236.28 172.5 227.5 168.8 236.28 165.1"/>
    </g>
  </g>
  <text transform="translate(492.24 159.8)" style="font-family: NotoSerifSC-Regular, &apos;Noto Serif SC&apos;; font-size: 18px;"><tspan x="0" y="0">是</tspan></text>
  <g id="arrow-9" data-name="arrow">
    <g>
      <line x1="371.87" y1="77.79" x2="371.87" y2="103.03" style="fill: none; stroke: #000; stroke-miterlimit: 10;"/>
      <polygon points="368.17 100.22 371.87 101.79 375.57 100.22 371.87 109 368.17 100.22"/>
    </g>
  </g>
  <text transform="translate(341.71 97.05)" style="font-family: NotoSerifSC-Regular, &apos;Noto Serif SC&apos;; font-size: 18px;"><tspan x="0" y="0">否</tspan></text>
  <text transform="translate(353.09 130.05)" style="font-family: NotoSerifSC-Regular, &apos;Noto Serif SC&apos;; font-size: 18px;"><tspan x="0" y="0">停止</tspan></text>
</svg>