<?xml version="1.0" encoding="UTF-8"?>
<svg id="_图层_1" xmlns="http://www.w3.org/2000/svg" viewBox="0 0 863.7 394.8186">
  <g>
    <polyline points="719.9878 327.4139 719.9878 333.4139 713.9878 333.4139" style="fill: none; stroke: #000; stroke-miterlimit: 10;"/>
    <line x1="707.9307" y1="333.4139" x2="202.1592" y2="333.4139" style="fill: none; stroke: #000; stroke-dasharray: 12.1143 6.0571; stroke-miterlimit: 10;"/>
    <polyline points="199.1307 333.4139 193.1307 333.4139 193.1307 327.4139" style="fill: none; stroke: #000; stroke-miterlimit: 10;"/>
    <line x1="193.1307" y1="321.6832" x2="193.1307" y2="152.6284" style="fill: none; stroke: #000; stroke-dasharray: 11.4613 5.7307; stroke-miterlimit: 10;"/>
    <polyline points="193.1307 149.7631 193.1307 143.7631 199.1307 143.7631" style="fill: none; stroke: #000; stroke-miterlimit: 10;"/>
    <line x1="205.1878" y1="143.7631" x2="710.9592" y2="143.7631" style="fill: none; stroke: #000; stroke-dasharray: 12.1143 6.0571; stroke-miterlimit: 10;"/>
    <polyline points="713.9878 143.7631 719.9878 143.7631 719.9878 149.7631" style="fill: none; stroke: #000; stroke-miterlimit: 10;"/>
    <line x1="719.9878" y1="155.4937" x2="719.9878" y2="324.5485" style="fill: none; stroke: #000; stroke-dasharray: 11.4613 5.7307; stroke-miterlimit: 10;"/>
  </g>
  <circle cx="255.0535" cy="143.7631" r="15.7704" style="fill: none; stroke: #000; stroke-miterlimit: 10;"/>
  <circle cx="297.3192" cy="143.7631" r="15.7704" style="fill: none; stroke: #000; stroke-miterlimit: 10;"/>
  <circle cx="392.3973" cy="143.7631" r="15.7704" style="fill: none; stroke: #000; stroke-miterlimit: 10;"/>
  <circle cx="500.4663" cy="143.7631" r="15.7704" style="fill: none; stroke: #000; stroke-miterlimit: 10;"/>
  <circle cx="540.9432" cy="143.7631" r="15.7704" style="fill: none; stroke: #000; stroke-miterlimit: 10;"/>
  <circle cx="581.4202" cy="143.7631" r="15.7704" style="fill: none; stroke: #000; stroke-miterlimit: 10;"/>
  <circle cx="621.8971" cy="143.7631" r="15.7704" style="fill: none; stroke: #000; stroke-miterlimit: 10;"/>
  <polyline points="248.4821 38.0488 263.9107 53.4774 248.1011 69.2869 264.0059 85.1916" style="fill: none; stroke: #000; stroke-miterlimit: 10;"/>
  <polyline points="289.7478 38.0488 305.1764 53.4774 289.3669 69.2869 305.2716 85.1916" style="fill: none; stroke: #000; stroke-miterlimit: 10;"/>
  <polyline points="384.8259 38.0488 400.2545 53.4774 384.4449 69.2869 400.3497 85.1916" style="fill: none; stroke: #000; stroke-miterlimit: 10;"/>
  <polyline points="492.8949 38.0488 508.3235 53.4774 492.5139 69.2869 508.4187 85.1916" style="fill: none; stroke: #000; stroke-miterlimit: 10;"/>
  <polyline points="533.3718 38.0488 548.8004 53.4774 532.9909 69.2869 548.8956 85.1916" style="fill: none; stroke: #000; stroke-miterlimit: 10;"/>
  <polyline points="573.8487 38.0488 589.2773 53.4774 573.4678 69.2869 589.3725 85.1916" style="fill: none; stroke: #000; stroke-miterlimit: 10;"/>
  <polyline points="614.3256 38.0488 629.7542 53.4774 613.9447 69.2869 629.8495 85.1916" style="fill: none; stroke: #000; stroke-miterlimit: 10;"/>
  <polyline points="247.5094 187.8895 262.938 203.3181 247.1285 219.1276 263.0332 235.0324" style="fill: none; stroke: #000; stroke-miterlimit: 10;"/>
  <polyline points="289.7752 187.8895 305.2037 203.3181 289.3942 219.1276 305.299 235.0324" style="fill: none; stroke: #000; stroke-miterlimit: 10;"/>
  <polyline points="384.8532 187.8895 400.2818 203.3181 384.4723 219.1276 400.377 235.0324" style="fill: none; stroke: #000; stroke-miterlimit: 10;"/>
  <polyline points="492.9222 187.8895 508.3508 203.3181 492.5413 219.1276 508.446 235.0324" style="fill: none; stroke: #000; stroke-miterlimit: 10;"/>
  <polyline points="533.3992 187.8895 548.8277 203.3181 533.0182 219.1276 548.923 235.0324" style="fill: none; stroke: #000; stroke-miterlimit: 10;"/>
  <polyline points="573.8761 187.8895 589.3046 203.3181 573.4951 219.1276 589.3999 235.0324" style="fill: none; stroke: #000; stroke-miterlimit: 10;"/>
  <polyline points="614.353 187.8895 629.7816 203.3181 613.972 219.1276 629.8768 235.0324" style="fill: none; stroke: #000; stroke-miterlimit: 10;"/>
  <line x1="255.0809" y1="87.3821" x2="255.0809" y2="127.9927" style="fill: none; stroke: #000; stroke-miterlimit: 10;"/>
  <line x1="297.3192" y1="87.3821" x2="297.3192" y2="127.9927" style="fill: none; stroke: #000; stroke-miterlimit: 10;"/>
  <line x1="392.3973" y1="87.3821" x2="392.3973" y2="127.9927" style="fill: none; stroke: #000; stroke-miterlimit: 10;"/>
  <line x1="500.4937" y1="87.3821" x2="500.4937" y2="127.9927" style="fill: none; stroke: #000; stroke-miterlimit: 10;"/>
  <line x1="540.9706" y1="87.3821" x2="540.9706" y2="127.9927" style="fill: none; stroke: #000; stroke-miterlimit: 10;"/>
  <line x1="581.4475" y1="87.3821" x2="581.4475" y2="127.9927" style="fill: none; stroke: #000; stroke-miterlimit: 10;"/>
  <line x1="621.9244" y1="87.3821" x2="621.9244" y2="127.9927" style="fill: none; stroke: #000; stroke-miterlimit: 10;"/>
  <line x1="255.0809" y1="159.5335" x2="255.0809" y2="187.8895" style="fill: none; stroke: #000; stroke-miterlimit: 10;"/>
  <line x1="297.3192" y1="159.5335" x2="297.3192" y2="187.8895" style="fill: none; stroke: #000; stroke-miterlimit: 10;"/>
  <line x1="392.3973" y1="159.5335" x2="392.3973" y2="187.8895" style="fill: none; stroke: #000; stroke-miterlimit: 10;"/>
  <line x1="500.4663" y1="159.5335" x2="500.4663" y2="187.8895" style="fill: none; stroke: #000; stroke-miterlimit: 10;"/>
  <line x1="540.9432" y1="159.5335" x2="540.9432" y2="187.8895" style="fill: none; stroke: #000; stroke-miterlimit: 10;"/>
  <line x1="581.4475" y1="159.5335" x2="581.4475" y2="187.8895" style="fill: none; stroke: #000; stroke-miterlimit: 10;"/>
  <line x1="621.9244" y1="159.5335" x2="621.9244" y2="187.8895" style="fill: none; stroke: #000; stroke-miterlimit: 10;"/>
  <rect x="275.7973" y="367.3186" width="24" height="24" style="fill: none; stroke: #000; stroke-miterlimit: 10;"/>
  <rect x="342.8132" y="367.3186" width="24" height="24" style="fill: none; stroke: #000; stroke-miterlimit: 10;"/>
  <rect x="409.8291" y="367.3186" width="24" height="24" style="fill: none; stroke: #000; stroke-miterlimit: 10;"/>
  <rect x="548.923" y="367.3186" width="24" height="24" style="fill: none; stroke: #000; stroke-miterlimit: 10;"/>
  <rect x="232.8608" y="23.5726" width="86.8571" height="150.1389" style="fill: none; stroke: #000; stroke-miterlimit: 10;"/>
  <rect x="366.0831" y="23.5726" width="52.8254" height="150.1389" style="fill: none; stroke: #000; stroke-miterlimit: 10;"/>
  <rect x="476.9879" y="23.5726" width="168.7142" height="150.1389" style="fill: none; stroke: #000; stroke-miterlimit: 10;"/>
  <polyline points="332.4243 187.8895 347.8529 203.3181 332.0434 219.1276 347.9481 235.0324" style="fill: none; stroke: #000; stroke-miterlimit: 10;"/>
  <polyline points="255.0809 235.0324 339.9958 277.7393 339.9958 235.0324" style="fill: none; stroke: #000; stroke-miterlimit: 10;"/>
  <polyline points="392.4958 235.0324 339.9958 277.7393 297.5383 235.0324" style="fill: none; stroke: #000; stroke-miterlimit: 10;"/>
  <polyline points="540.9432 235.0324 339.9958 277.7393 500.4663 235.0324" style="fill: none; stroke: #000; stroke-miterlimit: 10;"/>
  <polyline points="581.4202 235.0324 339.9958 277.7393 287.7973 367.3186" style="fill: none; stroke: #000; stroke-miterlimit: 10;"/>
  <polyline points="354.8132 367.3186 339.9958 277.7393 421.8291 367.3186" style="fill: none; stroke: #000; stroke-miterlimit: 10;"/>
  <line x1="621.9244" y1="235.0324" x2="561.345" y2="367.3186" style="fill: none; stroke: #000; stroke-miterlimit: 10;"/>
  <line x1="572.923" y1="379.3186" x2="594.4481" y2="379.3186" style="fill: none; stroke: #000; stroke-miterlimit: 10;"/>
  <text transform="translate(597.1906 385.1078)" style="font-family: NotoSerifSC-ExtraLight, &apos;Noto Serif SC&apos;; font-size: 18px; font-weight: 200;"><tspan x="0" y="0">C</tspan><tspan x="12.3477" y="0" style="letter-spacing: -.02em;">P</tspan><tspan x="23.292" y="0">U</tspan></text>
  <text transform="translate(469.1735 311.7009)" style="font-family: NotoSerifSC-ExtraLight, &apos;Noto Serif SC&apos;; font-size: 18px; font-weight: 200;"><tspan x="0" y="0">内核</tspan></text>
  <text transform="translate(102.5359 210.4197)" style="font-family: NotoSerifSC-ExtraLight, &apos;Noto Serif SC&apos;; font-size: 18px; font-weight: 200;"><tspan x="0" y="0">内核线程</tspan></text>
  <line x1="247.1285" y1="204.025" x2="181.1465" y2="204.025" style="fill: none; stroke: #000; stroke-miterlimit: 10;"/>
  <line x1="637.6675" y1="53.3583" x2="665.2735" y2="53.3583" style="fill: none; stroke: #000; stroke-miterlimit: 10;"/>
  <text transform="translate(671.1639 58.6331)" style="font-family: NotoSerifSC-ExtraLight, &apos;Noto Serif SC&apos;; font-size: 18px; font-weight: 200;"><tspan x="0" y="0">用户级线程</tspan></text>
  <text transform="translate(689.1641 106.5264)" style="font-family: NotoSerifSC-ExtraLight, &apos;Noto Serif SC&apos;; font-size: 18px; font-weight: 200;"><tspan x="0" y="0">轻型线程</tspan></text>
  <line x1="635.5045" y1="135.7945" x2="687.4958" y2="99.6866" style="fill: none; stroke: #000; stroke-miterlimit: 10;"/>
  <text transform="translate(253.4832 15.8399)" style="font-family: NotoSerifSC-ExtraLight, &apos;Noto Serif SC&apos;; font-size: 18px; font-weight: 200;"><tspan x="0" y="0">任务1</tspan></text>
  <text transform="translate(369.6894 15.8398)" style="font-family: NotoSerifSC-ExtraLight, &apos;Noto Serif SC&apos;; font-size: 18px; font-weight: 200;"><tspan x="0" y="0">任务2</tspan></text>
  <text transform="translate(538.5387 15.8401)" style="font-family: NotoSerifSC-ExtraLight, &apos;Noto Serif SC&apos;; font-size: 18px; font-weight: 200;"><tspan x="0" y="0">任务3</tspan></text>
</svg>