<?xml version="1.0" encoding="UTF-8"?>
<svg id="_图层_1" xmlns="http://www.w3.org/2000/svg" viewBox="0 0 863.7 283.9143">
  <g>
    <text transform="translate(203.2068 28.0545)" style="font-family: NotoSerifSC-ExtraLight, &apos;Noto Serif SC&apos;; font-size: 18px; font-weight: 200;"><tspan x="0" y="0">执行指针</tspan></text>
    <rect x="164.2226" y="3.9143" width="149.9683" height="35.0476" style="fill: none; stroke: #000; stroke-miterlimit: 10;"/>
  </g>
  <g>
    <text transform="translate(194.2068 123.1032)" style="font-family: NotoSerifSC-ExtraLight, &apos;Noto Serif SC&apos;; font-size: 18px; font-weight: 200;"><tspan x="0" y="0">就绪表指针</tspan></text>
    <rect x="164.2226" y="98.0345" width="149.9683" height="35.0476" style="fill: none; stroke: #000; stroke-miterlimit: 10;"/>
  </g>
  <g>
    <text transform="translate(194.2068 210.7734)" style="font-family: NotoSerifSC-ExtraLight, &apos;Noto Serif SC&apos;; font-size: 18px; font-weight: 200;"><tspan x="0" y="0">阻塞表指针</tspan></text>
    <rect x="164.2226" y="186.5607" width="149.9683" height="35.0476" style="fill: none; stroke: #000; stroke-miterlimit: 10;"/>
  </g>
  <g>
    <line x1="301.0317" y1="20.7797" x2="662.4906" y2="20.7797" style="fill: none; stroke: #000; stroke-miterlimit: 10;"/>
    <polygon points="659.682 24.4829 661.2552 20.7797 659.682 17.0766 668.4603 20.7797 659.682 24.4829"/>
  </g>
  <text transform="translate(683.8879 28.0879)" style="font-family: NotoSerifSC-ExtraLight, &apos;Noto Serif SC&apos;; font-size: 18px; font-weight: 200;"><tspan x="0" y="0">PCB1</tspan></text>
  <g>
    <polyline points="668.4603 283.9143 668.4603 3.9143 743.4603 3.9143 743.4603 283.9143" style="fill: none; stroke: #000; stroke-miterlimit: 10;"/>
    <line x1="668.4603" y1="248.9143" x2="743.4603" y2="248.9143" style="fill: none; stroke: #000; stroke-miterlimit: 10;"/>
    <line x1="668.4603" y1="213.9143" x2="743.4603" y2="213.9143" style="fill: none; stroke: #000; stroke-miterlimit: 10;"/>
    <line x1="668.4603" y1="178.9143" x2="743.4603" y2="178.9143" style="fill: none; stroke: #000; stroke-miterlimit: 10;"/>
    <line x1="668.4603" y1="143.9143" x2="743.4603" y2="143.9143" style="fill: none; stroke: #000; stroke-miterlimit: 10;"/>
    <line x1="668.4603" y1="108.9143" x2="743.4603" y2="108.9143" style="fill: none; stroke: #000; stroke-miterlimit: 10;"/>
    <line x1="668.4603" y1="73.9143" x2="743.4603" y2="73.9143" style="fill: none; stroke: #000; stroke-miterlimit: 10;"/>
    <line x1="668.4603" y1="38.9143" x2="743.4603" y2="38.9143" style="fill: none; stroke: #000; stroke-miterlimit: 10;"/>
  </g>
  <text transform="translate(683.8877 63.1555)" style="font-family: NotoSerifSC-ExtraLight, &apos;Noto Serif SC&apos;; font-size: 18px; font-weight: 200;"><tspan x="0" y="0">PCB2</tspan></text>
  <text transform="translate(683.8877 98.2228)" style="font-family: NotoSerifSC-ExtraLight, &apos;Noto Serif SC&apos;; font-size: 18px; font-weight: 200;"><tspan x="0" y="0">PCB3</tspan></text>
  <text transform="translate(683.8878 168.3579)" style="font-family: NotoSerifSC-ExtraLight, &apos;Noto Serif SC&apos;; font-size: 18px; font-weight: 200;"><tspan x="0" y="0">PCB5</tspan></text>
  <text transform="translate(683.8874 203.425)" style="font-family: NotoSerifSC-ExtraLight, &apos;Noto Serif SC&apos;; font-size: 18px; font-weight: 200;"><tspan x="0" y="0">PCB6</tspan></text>
  <text transform="translate(683.8875 238.4925)" style="font-family: NotoSerifSC-ExtraLight, &apos;Noto Serif SC&apos;; font-size: 18px; font-weight: 200;"><tspan x="0" y="0">PCB7</tspan></text>
  <text transform="translate(683.8875 133.2902)" style="font-family: NotoSerifSC-ExtraLight, &apos;Noto Serif SC&apos;; font-size: 18px; font-weight: 200;"><tspan x="0" y="0">PCB4</tspan></text>
  <text transform="translate(697.6938 273.6605)" style="font-family: NotoSerifSC-ExtraLight, &apos;Noto Serif SC&apos;; font-size: 18px; font-weight: 200;"><tspan x="0" y="0">···</tspan></text>
  <circle cx="301.0317" cy="20.7797" r="3.1905"/>
  <circle cx="301.0317" cy="115.5583" r="3.1905"/>
  <circle cx="301.0317" cy="205.2698" r="3.1905"/>
  <g>
    <g>
      <rect x="424.3361" y="68.9875" width="125.5818" height="62.7909" style="fill: none; stroke: #000; stroke-miterlimit: 10;"/>
      <line x1="424.3361" y1="116.0807" x2="549.9179" y2="116.0807" style="fill: none; stroke: #000; stroke-miterlimit: 10;"/>
      <line x1="424.3361" y1="100.383" x2="549.9179" y2="100.383" style="fill: none; stroke: #000; stroke-miterlimit: 10;"/>
      <line x1="424.3361" y1="84.6852" x2="549.9179" y2="84.6852" style="fill: none; stroke: #000; stroke-miterlimit: 10;"/>
    </g>
    <circle cx="542.6349" cy="76.4762" r="3.1905"/>
    <circle cx="542.6349" cy="92.8889" r="3.1905"/>
    <circle cx="542.6349" cy="109.3016" r="3.1905"/>
  </g>
  <g>
    <g>
      <rect x="424.3361" y="177.0649" width="125.5818" height="62.7909" style="fill: none; stroke: #000; stroke-miterlimit: 10;"/>
      <line x1="424.3361" y1="224.158" x2="549.9179" y2="224.158" style="fill: none; stroke: #000; stroke-miterlimit: 10;"/>
      <line x1="424.3361" y1="208.4603" x2="549.9179" y2="208.4603" style="fill: none; stroke: #000; stroke-miterlimit: 10;"/>
      <line x1="424.3361" y1="192.7626" x2="549.9179" y2="192.7626" style="fill: none; stroke: #000; stroke-miterlimit: 10;"/>
    </g>
    <circle cx="542.6349" cy="184.5535" r="3.1905"/>
    <circle cx="542.6349" cy="200.9662" r="3.1905"/>
    <circle cx="542.6349" cy="217.3789" r="3.1905"/>
  </g>
  <text transform="translate(442.1271 63.6645)" style="font-family: NotoSerifSC-ExtraLight, &apos;Noto Serif SC&apos;; font-size: 18px; font-weight: 200;"><tspan x="0" y="0">就绪索引表</tspan></text>
  <text transform="translate(442.1272 171.7801)" style="font-family: NotoSerifSC-ExtraLight, &apos;Noto Serif SC&apos;; font-size: 18px; font-weight: 200;"><tspan x="0" y="0">阻塞索引表</tspan></text>
  <g>
    <line x1="301.0317" y1="115.5583" x2="418.6454" y2="78.2799" style="fill: none; stroke: #000; stroke-miterlimit: 10;"/>
    <polygon points="417.0869 82.6586 417.4677 78.6532 414.8492 75.5984 424.3361 76.4762 417.0869 82.6586"/>
  </g>
  <g>
    <line x1="542.6349" y1="76.4762" x2="662.5407" y2="92.1167" style="fill: none; stroke: #000; stroke-miterlimit: 10;"/>
    <polygon points="659.2767 95.4255 661.3157 91.9569 660.2347 88.0814 668.4603 92.8889 659.2767 95.4255"/>
  </g>
  <g>
    <line x1="542.6349" y1="92.8889" x2="662.6923" y2="124.9118" style="fill: none; stroke: #000; stroke-miterlimit: 10;"/>
    <polygon points="659.0242 127.766 661.4987 124.5934 660.9329 120.61 668.4603 126.4503 659.0242 127.766"/>
  </g>
  <g>
    <line x1="542.6349" y1="109.3016" x2="662.9506" y2="59.1226" style="fill: none; stroke: #000; stroke-miterlimit: 10;"/>
    <polygon points="661.7838 63.6215 661.8104 59.5981 658.933 56.7859 668.4603 56.8247 661.7838 63.6215"/>
  </g>
  <g>
    <line x1="301.0317" y1="205.2698" x2="418.4489" y2="185.5427" style="fill: none; stroke: #000; stroke-miterlimit: 10;"/>
    <polygon points="416.2927 189.6599 417.2306 185.7473 415.0655 182.3561 424.3361 184.5535 416.2927 189.6599"/>
  </g>
  <g>
    <line x1="542.6349" y1="184.5535" x2="662.8694" y2="229.5599" style="fill: none; stroke: #000; stroke-miterlimit: 10;"/>
    <polygon points="658.9409 232.0434 661.7125 229.1268 661.5373 225.1072 668.4603 231.6527 658.9409 232.0434"/>
  </g>
  <g>
    <line x1="542.6349" y1="200.9662" x2="662.764" y2="163.3039" style="fill: none; stroke: #000; stroke-miterlimit: 10;"/>
    <polygon points="661.1918 167.6777 661.5852 163.6735 658.9762 160.6106 668.4603 161.518 661.1918 167.6777"/>
  </g>
  <g>
    <line x1="542.6349" y1="217.3789" x2="662.5705" y2="197.5585" style="fill: none; stroke: #000; stroke-miterlimit: 10;"/>
    <polygon points="660.4033 201.67 661.3517 197.7599 659.1957 194.3628 668.4603 196.5851 660.4033 201.67"/>
  </g>
</svg>