<?xml version="1.0" encoding="UTF-8"?>
<svg id="_图层_1" data-name=" 图层 1" xmlns="http://www.w3.org/2000/svg" viewBox="0 0 863.7 337.8303">
  <g style="isolation: isolate;">
    <text transform="translate(355.8539 192.3882)" style="font-family: NotoSerifSC-ExtraLight, &apos;Noto Serif SC&apos;; font-size: 18px; font-weight: 200; isolation: isolate;"><tspan x="0" y="0">活动</tspan><tspan x="0" y="21.6006">就绪</tspan></text>
  </g>
  <circle cx="373.8539" cy="195.5739" r="28.9524" style="fill: none; stroke: #000; stroke-miterlimit: 10;"/>
  <text transform="translate(543.0918 191.9919)" style="font-family: NotoSerifSC-ExtraLight, &apos;Noto Serif SC&apos;; font-size: 18px; font-weight: 200; isolation: isolate;"><tspan x="0" y="0">静止</tspan><tspan x="0" y="21.6006">就绪</tspan></text>
  <circle cx="561.0917" cy="195.5739" r="28.9524" style="fill: none; stroke: #000; stroke-miterlimit: 10;"/>
  <g style="isolation: isolate;">
    <g style="isolation: isolate;">
      <text transform="translate(449.4729 41.1427)" style="font-family: NotoSerifSC-ExtraLight, &apos;Noto Serif SC&apos;; font-size: 18px; font-weight: 200; isolation: isolate;"><tspan x="0" y="0">执行</tspan></text>
    </g>
  </g>
  <circle cx="467.4728" cy="33.4213" r="28.9524" style="fill: none; stroke: #000; stroke-miterlimit: 10;"/>
  <text transform="translate(387.2594 130.7354) rotate(-60)" style="font-family: NotoSerifSC-ExtraLight, &apos;Noto Serif SC&apos;; font-size: 18px; font-weight: 200; isolation: isolate;"><tspan x="0" y="0">时间片完</tspan></text>
  <text transform="translate(521.2124 85.3704) rotate(60.2468)" style="font-family: NotoSerifSC-ExtraLight, &apos;Noto Serif SC&apos;; font-size: 18px; font-weight: 200; isolation: isolate;"><tspan x="0" y="0">挂起</tspan></text>
  <text transform="translate(449.4296 226.7969)" style="font-family: NotoSerifSC-ExtraLight, &apos;Noto Serif SC&apos;; font-size: 18px; font-weight: 200; isolation: isolate;"><tspan x="0" y="0">挂起</tspan></text>
  <g>
    <line x1="395.8813" y1="176.7328" x2="459.8119" y2="66.6038" style="fill: none; stroke: #000; stroke-miterlimit: 10;"/>
    <polygon points="461.6045 70.892 459.1917 67.6722 455.1992 67.1737 462.809 61.441 461.6045 70.892"/>
  </g>
  <g>
    <line x1="381.3639" y1="161.4587" x2="445.2945" y2="51.3297" style="fill: none; stroke: #000; stroke-miterlimit: 10;"/>
    <polygon points="385.9766 160.8888 381.9841 160.3903 379.5714 157.1705 378.3669 166.6215 385.9766 160.8888"/>
  </g>
  <g>
    <line x1="554.0447" y1="161.4587" x2="490.1141" y2="51.3297" style="fill: none; stroke: #000; stroke-miterlimit: 10;"/>
    <polygon points="555.8372 157.1705 553.4244 160.3903 549.432 160.8888 557.0417 166.6215 555.8372 157.1705"/>
  </g>
  <text transform="translate(442.5202 142.2803) rotate(-60)" style="font-family: NotoSerifSC-ExtraLight, &apos;Noto Serif SC&apos;; font-size: 18px; font-weight: 200; isolation: isolate;"><tspan x="0" y="0">调度</tspan></text>
  <g>
    <line x1="400.7762" y1="205.2409" x2="528.1135" y2="206.0905" style="fill: none; stroke: #000; stroke-miterlimit: 10;"/>
    <polygon points="525.2802 209.7748 526.8781 206.0823 525.3297 202.3687 534.0831 206.1303 525.2802 209.7748"/>
  </g>
  <g>
    <line x1="406.8322" y1="185.0573" x2="534.1696" y2="185.9069" style="fill: none; stroke: #000; stroke-miterlimit: 10;"/>
    <polygon points="409.6161 188.7791 408.0676 185.0656 409.6655 181.373 400.8626 185.0175 409.6161 188.7791"/>
  </g>
  <text transform="translate(449.5164 177.4123)" style="font-family: NotoSerifSC-ExtraLight, &apos;Noto Serif SC&apos;; font-size: 18px; font-weight: 200; isolation: isolate;"><tspan x="0" y="0">激活</tspan></text>
  <g>
    <text transform="translate(294.23 301.5124)" style="font-family: NotoSerifSC-ExtraLight, &apos;Noto Serif SC&apos;; font-size: 18px; font-weight: 200; isolation: isolate;"><tspan x="0" y="0">活动</tspan><tspan x="0" y="21.6006">阻塞</tspan></text>
    <circle cx="312.23" cy="304.6981" r="28.9524" style="fill: none; stroke: #000; stroke-miterlimit: 10;"/>
  </g>
  <g>
    <line x1="315.1582" y1="275.7632" x2="348.6232" y2="218.1152" style="fill: none; stroke: #000; stroke-miterlimit: 10;"/>
    <polygon points="350.4158 222.4034 348.003 219.1836 344.0105 218.6851 351.6203 212.9524 350.4158 222.4034"/>
  </g>
  <text transform="translate(315.1583 258.2159) rotate(-60)" style="font-family: NotoSerifSC-ExtraLight, &apos;Noto Serif SC&apos;; font-size: 18px; font-weight: 200; isolation: isolate;"><tspan x="0" y="0">释放</tspan></text>
  <g>
    <text transform="translate(485.7015 301.5124)" style="font-family: NotoSerifSC-ExtraLight, &apos;Noto Serif SC&apos;; font-size: 18px; font-weight: 200; isolation: isolate;"><tspan x="0" y="0">活动</tspan><tspan x="0" y="21.6006">阻塞</tspan></text>
    <circle cx="503.7015" cy="304.6981" r="28.9524" style="fill: none; stroke: #000; stroke-miterlimit: 10;"/>
  </g>
  <g>
    <line x1="525.6346" y1="286.5368" x2="559.0997" y2="228.8889" style="fill: none; stroke: #000; stroke-miterlimit: 10;"/>
    <polygon points="560.8922 233.177 558.4794 229.9572 554.487 229.4587 562.0967 223.726 560.8922 233.177"/>
  </g>
  <text transform="translate(555.0307 282.1505) rotate(-60)" style="font-family: NotoSerifSC-ExtraLight, &apos;Noto Serif SC&apos;; font-size: 18px; font-weight: 200; isolation: isolate;"><tspan x="0" y="0">释放</tspan></text>
  <text transform="translate(389.9086 335.6701)" style="font-family: NotoSerifSC-ExtraLight, &apos;Noto Serif SC&apos;; font-size: 18px; font-weight: 200; isolation: isolate;"><tspan x="0" y="0">挂起</tspan></text>
  <text transform="translate(380.9992 251.1534) rotate(-60)" style="font-family: NotoSerifSC-ExtraLight, &apos;Noto Serif SC&apos;; font-size: 18px; font-weight: 200; isolation: isolate;"><tspan x="0" y="0">调度</tspan></text>
  <g>
    <line x1="339.2552" y1="314.1142" x2="470.6275" y2="314.9907" style="fill: none; stroke: #000; stroke-miterlimit: 10;"/>
    <polygon points="467.7943 318.675 469.3922 314.9824 467.8437 311.2689 476.5971 315.0305 467.7943 318.675"/>
  </g>
  <g>
    <line x1="345.3112" y1="293.9306" x2="476.0686" y2="294.8029" style="fill: none; stroke: #000; stroke-miterlimit: 10;"/>
    <polygon points="348.0951 297.6523 346.5466 293.9388 348.1445 290.2462 339.3416 293.8907 348.0951 297.6523"/>
  </g>
  <text transform="translate(389.9954 286.2856)" style="font-family: NotoSerifSC-ExtraLight, &apos;Noto Serif SC&apos;; font-size: 18px; font-weight: 200; isolation: isolate;"><tspan x="0" y="0">激活</tspan></text>
  <g>
    <path d="M449.9515,10.1899c-6.4847-.6872-98.3427-8.8757-154.2857,60.9524-45.3271,56.5773-47.9796,140.5342-4.8678,206.4816" style="fill: none; stroke: #000; stroke-miterlimit: 10;"/>
    <polygon points="286.1798 277.3386 290.132 276.5847 292.333 273.2167 294.142 282.5708 286.1798 277.3386"/>
  </g>
  <text transform="translate(265.8783 104.752) rotate(-60)" style="font-family: NotoSerifSC-ExtraLight, &apos;Noto Serif SC&apos;; font-size: 18px; font-weight: 200; isolation: isolate;"><tspan x="0" y="0">请求I/O</tspan></text>
  <g>
    <line x1="496.4252" y1="33.4213" x2="605.5694" y2="33.4213" style="fill: none; stroke: #000; stroke-miterlimit: 10;"/>
    <polygon points="602.7608 37.1245 604.334 33.4213 602.7608 29.7182 611.5391 33.4213 602.7608 37.1245"/>
  </g>
  <text transform="translate(528.0703 25.3025)" style="font-family: NotoSerifSC-ExtraLight, &apos;Noto Serif SC&apos;; font-size: 18px; font-weight: 200; isolation: isolate;"><tspan x="0" y="0">终止</tspan></text>
</svg>