<?xml version="1.0" encoding="UTF-8"?>
<svg id="_layer_1" xmlns="http://www.w3.org/2000/svg" viewBox="0 0 863.7 337.8">
  <g style="isolation: isolate;">
    <g style="isolation: isolate;">
      <g style="isolation: isolate;">
        <text transform="translate(355.9 192.4)" style="font-family: NotoSerifSC-ExtraLight, &apos;Noto Serif SC&apos;; font-size: 18px; font-weight: 200; isolation: isolate;"><tspan x="0" y="0">活动</tspan></text>
      </g>
      <g style="isolation: isolate;">
        <text transform="translate(355.9 214)" style="font-family: NotoSerifSC-ExtraLight, &apos;Noto Serif SC&apos;; font-size: 18px; font-weight: 200; isolation: isolate;"><tspan x="0" y="0">就绪</tspan></text>
      </g>
    </g>
  </g>
  <circle cx="373.9" cy="195.6" r="29" style="fill: none; stroke: #000; stroke-miterlimit: 10;"/>
  <g style="isolation: isolate;">
    <g style="isolation: isolate;">
      <text transform="translate(543.1 192)" style="font-family: NotoSerifSC-ExtraLight, &apos;Noto Serif SC&apos;; font-size: 18px; font-weight: 200; isolation: isolate;"><tspan x="0" y="0">静止</tspan></text>
    </g>
    <g style="isolation: isolate;">
      <text transform="translate(543.1 213.6)" style="font-family: NotoSerifSC-ExtraLight, &apos;Noto Serif SC&apos;; font-size: 18px; font-weight: 200; isolation: isolate;"><tspan x="0" y="0">就绪</tspan></text>
    </g>
  </g>
  <circle cx="561.1" cy="195.6" r="29" style="fill: none; stroke: #000; stroke-miterlimit: 10;"/>
  <g>
    <g style="isolation: isolate;">
      <g style="isolation: isolate;">
        <g style="isolation: isolate;">
          <g style="isolation: isolate;">
            <text transform="translate(449.5 40.8)" style="font-family: NotoSerifSC-ExtraLight, &apos;Noto Serif SC&apos;; font-size: 18px; font-weight: 200; isolation: isolate;"><tspan x="0" y="0">执行</tspan></text>
          </g>
        </g>
      </g>
    </g>
    <circle cx="467.5" cy="33.1" r="29" style="fill: none; stroke: #000; stroke-miterlimit: 10;"/>
  </g>
  <g style="isolation: isolate;">
    <g style="isolation: isolate;">
      <text transform="translate(387.2999 130.7003) rotate(-60)" style="font-family: NotoSerifSC-ExtraLight, &apos;Noto Serif SC&apos;; font-size: 18px; font-weight: 200; isolation: isolate;"><tspan x="0" y="0">时间片完</tspan></text>
    </g>
  </g>
  <g style="isolation: isolate;">
    <g style="isolation: isolate;">
      <text transform="translate(521.1996 85.3999) rotate(60.2)" style="font-family: NotoSerifSC-ExtraLight, &apos;Noto Serif SC&apos;; font-size: 18px; font-weight: 200; isolation: isolate;"><tspan x="0" y="0">挂起</tspan></text>
    </g>
  </g>
  <g style="isolation: isolate;">
    <g style="isolation: isolate;">
      <text transform="translate(449.4 226.8)" style="font-family: NotoSerifSC-ExtraLight, &apos;Noto Serif SC&apos;; font-size: 18px; font-weight: 200; isolation: isolate;"><tspan x="0" y="0">挂起</tspan></text>
    </g>
  </g>
  <g>
    <line x1="395.9" y1="176.7" x2="459.8" y2="66.6" style="fill: none; stroke: #000; stroke-miterlimit: 10;"/>
    <polygon points="461.6 70.9 459.2 67.7 455.2 67.2 462.8 61.4 461.6 70.9"/>
  </g>
  <g>
    <line x1="381.4" y1="161.5" x2="445.3" y2="51.3" style="fill: none; stroke: #000; stroke-miterlimit: 10;"/>
    <polygon points="386 160.9 382 160.4 379.6 157.2 378.4 166.6 386 160.9"/>
  </g>
  <g>
    <line x1="554" y1="161.5" x2="490.1" y2="51.3" style="fill: none; stroke: #000; stroke-miterlimit: 10;"/>
    <polygon points="555.8 157.2 553.4 160.4 549.4 160.9 557 166.6 555.8 157.2"/>
  </g>
  <g style="isolation: isolate;">
    <g style="isolation: isolate;">
      <text transform="translate(442.4999 142.2999) rotate(-60)" style="font-family: NotoSerifSC-ExtraLight, &apos;Noto Serif SC&apos;; font-size: 18px; font-weight: 200; isolation: isolate;"><tspan x="0" y="0">调度</tspan></text>
    </g>
  </g>
  <g>
    <line x1="400.8" y1="205.2" x2="528.1" y2="206.1" style="fill: none; stroke: #000; stroke-miterlimit: 10;"/>
    <polygon points="525.3 209.8 526.9 206.1 525.3 202.4 534.1 206.1 525.3 209.8"/>
  </g>
  <g>
    <line x1="406.8" y1="185.1" x2="534.2" y2="185.9" style="fill: none; stroke: #000; stroke-miterlimit: 10;"/>
    <polygon points="409.6 188.8 408.1 185.1 409.7 181.4 400.9 185 409.6 188.8"/>
  </g>
  <g style="isolation: isolate;">
    <g style="isolation: isolate;">
      <text transform="translate(449.5 177.4)" style="font-family: NotoSerifSC-ExtraLight, &apos;Noto Serif SC&apos;; font-size: 18px; font-weight: 200; isolation: isolate;"><tspan x="0" y="0">激活</tspan></text>
    </g>
  </g>
  <g>
    <g style="isolation: isolate;">
      <g style="isolation: isolate;">
        <text transform="translate(294.2 301.5)" style="font-family: NotoSerifSC-ExtraLight, &apos;Noto Serif SC&apos;; font-size: 18px; font-weight: 200; isolation: isolate;"><tspan x="0" y="0">活动</tspan></text>
      </g>
      <g style="isolation: isolate;">
        <text transform="translate(294.2 323.1)" style="font-family: NotoSerifSC-ExtraLight, &apos;Noto Serif SC&apos;; font-size: 18px; font-weight: 200; isolation: isolate;"><tspan x="0" y="0">阻塞</tspan></text>
      </g>
    </g>
    <circle cx="312.2" cy="304.7" r="29" style="fill: none; stroke: #000; stroke-miterlimit: 10;"/>
  </g>
  <g>
    <line x1="315.2" y1="275.8" x2="348.6" y2="218.1" style="fill: none; stroke: #000; stroke-miterlimit: 10;"/>
    <polygon points="350.4 222.4 348 219.2 344 218.7 351.6 213 350.4 222.4"/>
  </g>
  <g style="isolation: isolate;">
    <g style="isolation: isolate;">
      <text transform="translate(315.2001 258.2003) rotate(-60)" style="font-family: NotoSerifSC-ExtraLight, &apos;Noto Serif SC&apos;; font-size: 18px; font-weight: 200; isolation: isolate;"><tspan x="0" y="0">释放</tspan></text>
    </g>
  </g>
  <g>
    <g style="isolation: isolate;">
      <g style="isolation: isolate;">
        <text transform="translate(485.7 301.5)" style="font-family: NotoSerifSC-ExtraLight, &apos;Noto Serif SC&apos;; font-size: 18px; font-weight: 200; isolation: isolate;"><tspan x="0" y="0">静止</tspan></text>
      </g>
      <g style="isolation: isolate;">
        <text transform="translate(485.7 323.1)" style="font-family: NotoSerifSC-ExtraLight, &apos;Noto Serif SC&apos;; font-size: 18px; font-weight: 200; isolation: isolate;"><tspan x="0" y="0">阻塞</tspan></text>
      </g>
    </g>
    <circle cx="503.7" cy="304.7" r="29" style="fill: none; stroke: #000; stroke-miterlimit: 10;"/>
  </g>
  <g>
    <line x1="525.6" y1="286.5" x2="559.1" y2="228.9" style="fill: none; stroke: #000; stroke-miterlimit: 10;"/>
    <polygon points="560.9 233.2 558.5 230 554.5 229.5 562.1 223.7 560.9 233.2"/>
  </g>
  <g style="isolation: isolate;">
    <g style="isolation: isolate;">
      <text transform="translate(554.9999 282.2003) rotate(-60)" style="font-family: NotoSerifSC-ExtraLight, &apos;Noto Serif SC&apos;; font-size: 18px; font-weight: 200; isolation: isolate;"><tspan x="0" y="0">释放</tspan></text>
    </g>
  </g>
  <g style="isolation: isolate;">
    <g style="isolation: isolate;">
      <text transform="translate(389.9 335.7)" style="font-family: NotoSerifSC-ExtraLight, &apos;Noto Serif SC&apos;; font-size: 18px; font-weight: 200; isolation: isolate;"><tspan x="0" y="0">挂起</tspan></text>
    </g>
  </g>
  <g>
    <line x1="339.3" y1="314.1" x2="470.6" y2="315" style="fill: none; stroke: #000; stroke-miterlimit: 10;"/>
    <polygon points="467.8 318.7 469.4 315 467.8 311.3 476.6 315 467.8 318.7"/>
  </g>
  <g>
    <line x1="345.3" y1="293.9" x2="476.1" y2="294.8" style="fill: none; stroke: #000; stroke-miterlimit: 10;"/>
    <polygon points="348.1 297.7 346.5 293.9 348.1 290.2 339.3 293.9 348.1 297.7"/>
  </g>
  <g style="isolation: isolate;">
    <g style="isolation: isolate;">
      <text transform="translate(390 286.3)" style="font-family: NotoSerifSC-ExtraLight, &apos;Noto Serif SC&apos;; font-size: 18px; font-weight: 200; isolation: isolate;"><tspan x="0" y="0">激活</tspan></text>
    </g>
  </g>
  <g>
    <path d="M450,10.2c-6.5-.7-98.3-8.9-154.3,61-45.3,56.6-48,140.5-4.9,206.5" style="fill: none; stroke: #000; stroke-miterlimit: 10;"/>
    <polygon points="286.2 277.3 290.1 276.6 292.3 273.2 294.1 282.6 286.2 277.3"/>
  </g>
  <g style="isolation: isolate;">
    <g style="isolation: isolate;">
      <text transform="translate(249.0001 158.8998) rotate(-75.8) skewX(-1)" style="font-family: NotoSerifSC-ExtraLight, &apos;Noto Serif SC&apos;; font-size: 18.7057px; font-weight: 200; isolation: isolate;"><tspan x="0" y="0">请求I/O</tspan></text>
    </g>
  </g>
  <g>
    <line x1="496.4" y1="33.4" x2="605.6" y2="33.4" style="fill: none; stroke: #000; stroke-miterlimit: 10;"/>
    <polygon points="602.8 37.1 604.3 33.4 602.8 29.7 611.5 33.4 602.8 37.1"/>
  </g>
  <g style="isolation: isolate;">
    <g style="isolation: isolate;">
      <text transform="translate(528.1 25.3)" style="font-family: NotoSerifSC-ExtraLight, &apos;Noto Serif SC&apos;; font-size: 18px; font-weight: 200; isolation: isolate;"><tspan x="0" y="0">释放</tspan></text>
    </g>
  </g>
  <g>
    <g style="isolation: isolate;">
      <g style="isolation: isolate;">
        <g style="isolation: isolate;">
          <g style="isolation: isolate;">
            <text transform="translate(622.5 40.8)" style="font-family: NotoSerifSC-ExtraLight, &apos;Noto Serif SC&apos;; font-size: 18px; font-weight: 200; isolation: isolate;"><tspan x="0" y="0">终止</tspan></text>
          </g>
        </g>
      </g>
    </g>
    <circle cx="640.5" cy="33.1" r="29" style="fill: none; stroke: #000; stroke-miterlimit: 10;"/>
  </g>
  <g>
    <g style="isolation: isolate;">
      <g style="isolation: isolate;">
        <g style="isolation: isolate;">
          <g style="isolation: isolate;">
            <text transform="translate(231 40.8)" style="font-family: NotoSerifSC-ExtraLight, &apos;Noto Serif SC&apos;; font-size: 18px; font-weight: 200; isolation: isolate;"><tspan x="0" y="0">创建</tspan></text>
          </g>
        </g>
      </g>
    </g>
    <circle cx="249" cy="33.1" r="29" style="fill: none; stroke: #000; stroke-miterlimit: 10;"/>
  </g>
  <g>
    <line x1="277.2" y1="39.3" x2="282.6" y2="42" style="fill: none; stroke: #000; stroke-miterlimit: 10;"/>
    <line x1="286.2" y1="43.8" x2="530.6" y2="166.6" style="fill: none; stroke: #000; stroke-dasharray: 12.2 4.1; stroke-miterlimit: 10;"/>
    <line x1="532.4" y1="167.5" x2="537.8" y2="170.2" style="fill: none; stroke: #000; stroke-miterlimit: 10;"/>
    <polygon points="533.6 172.3 536.7 169.7 536.9 165.7 543.1 172.9 533.6 172.3"/>
  </g>
  <g>
    <line x1="267.9" y1="55" x2="349.5" y2="170.6" style="fill: none; stroke: #000; stroke-dasharray: 12 4; stroke-miterlimit: 10;"/>
    <polygon points="344.9 170.5 348.8 169.6 350.9 166.2 353 175.5 344.9 170.5"/>
  </g>
  <g style="isolation: isolate;">
    <text transform="translate(339.2997 62.1001) rotate(27.2873)" style="font-family: NotoSerifSC-ExtraLight, &apos;Noto Serif SC&apos;; font-size: 18px; font-weight: 200; isolation: isolate;"><tspan x="0" y="0">许可</tspan></text>
  </g>
  <g style="isolation: isolate;">
    <text transform="translate(305.9701 96.5431) rotate(54.0219)" style="font-family: NotoSerifSC-ExtraLight, &apos;Noto Serif SC&apos;; font-size: 18px; font-weight: 200; isolation: isolate;"><tspan x="0" y="0">许可</tspan></text>
  </g>
</svg>