<?xml version="1.0" encoding="UTF-8"?>
<svg id="_layer_1" data-name=" layer 1" xmlns="http://www.w3.org/2000/svg" viewBox="0 0 863.7 222.6533">
  <g>
    <g style="isolation: isolate;">
      <text transform="translate(273.7752 201.4224)" style="font-family: NotoSerifSC-ExtraLight, &apos;Noto Serif SC&apos;; font-size: 18px; font-weight: 200; isolation: isolate;"><tspan x="0" y="0">阻塞</tspan></text>
    </g>
    <circle cx="291.7751" cy="193.7009" r="28.9524" style="fill: none; stroke: #000; stroke-miterlimit: 10;"/>
  </g>
  <g>
    <g style="isolation: isolate;">
      <text transform="translate(461.0129 201.4224)" style="font-family: NotoSerifSC-ExtraLight, &apos;Noto Serif SC&apos;; font-size: 18px; font-weight: 200; isolation: isolate;"><tspan x="0" y="0">执行</tspan></text>
    </g>
    <circle cx="479.0129" cy="193.7009" r="28.9524" style="fill: none; stroke: #000; stroke-miterlimit: 10;"/>
  </g>
  <g>
    <g style="isolation: isolate;">
      <text transform="translate(367.394 39.2697)" style="font-family: NotoSerifSC-ExtraLight, &apos;Noto Serif SC&apos;; font-size: 18px; font-weight: 200; isolation: isolate;"><tspan x="0" y="0">就绪</tspan></text>
    </g>
    <circle cx="385.394" cy="31.5483" r="28.9524" style="fill: none; stroke: #000; stroke-miterlimit: 10;"/>
  </g>
  <g style="isolation: isolate;">
    <text transform="translate(315.0692 139.2872) rotate(-60)" style="font-family: NotoSerifSC-ExtraLight, &apos;Noto Serif SC&apos;; font-size: 18px; font-weight: 200; isolation: isolate;"><tspan x="0" y="0">I/O完成</tspan></text>
  </g>
  <g>
    <line x1="306.2496" y1="168.6305" x2="367.9348" y2="61.7886" style="fill: none; stroke: #000; stroke-miterlimit: 10;"/>
    <polygon points="369.7374 66.0725 367.3171 62.8585 363.3234 62.3694 370.9196 56.6187 369.7374 66.0725"/>
  </g>
  <g>
    <line x1="391.2351" y1="60.5006" x2="452.6458" y2="171.5309" style="fill: none; stroke: #000; stroke-miterlimit: 10;"/>
    <polygon points="448.0458 170.8655 452.0479 170.4499 454.5268 167.2809 455.535 176.7548 448.0458 170.8655"/>
  </g>
  <g>
    <line x1="473.3183" y1="164.7485" x2="411.9078" y2="53.7183" style="fill: none; stroke: #000; stroke-miterlimit: 10;"/>
    <polygon points="416.5076 54.3837 412.5057 54.7993 410.0266 57.9683 409.0185 48.4944 416.5076 54.3837"/>
  </g>
  <g>
    <line x1="449.6436" y1="193.73" x2="325.8903" y2="193.6732" style="fill: none; stroke: #000; stroke-miterlimit: 10;"/>
    <polygon points="328.7007 189.9714 327.1257 193.6738 328.6972 197.3776 319.9206 193.6705 328.7007 189.9714"/>
  </g>
  <g>
    <line x1="507.8542" y1="193.7314" x2="602.5511" y2="193.7314" style="fill: none; stroke: #000; stroke-miterlimit: 10;"/>
    <polygon points="599.7426 197.4345 601.3159 193.7314 599.7426 190.0283 608.5208 193.7314 599.7426 197.4345"/>
  </g>
  <g style="isolation: isolate;">
    <text transform="translate(431.9301 75.1603) rotate(61.3622)" style="font-family: NotoSerifSC-ExtraLight, &apos;Noto Serif SC&apos;; font-size: 18px; font-weight: 200; isolation: isolate;"><tspan x="0" y="0">时间片完</tspan></text>
  </g>
  <g style="isolation: isolate;">
    <text transform="translate(388.9038 97.9176) rotate(61.3622)" style="font-family: NotoSerifSC-ExtraLight, &apos;Noto Serif SC&apos;; font-size: 18px; font-weight: 200; isolation: isolate;"><tspan x="0" y="0">进程调度</tspan></text>
  </g>
  <g style="isolation: isolate;">
    <text transform="translate(353.3903 213.7894)" style="font-family: NotoSerifSC-ExtraLight, &apos;Noto Serif SC&apos;; font-size: 18px; font-weight: 200; isolation: isolate;"><tspan x="0" y="0">I/O请求</tspan></text>
  </g>
  <g style="isolation: isolate;">
    <text transform="translate(535.0532 213.7898)" style="font-family: NotoSerifSC-ExtraLight, &apos;Noto Serif SC&apos;; font-size: 18px; font-weight: 200; isolation: isolate;"><tspan x="0" y="0">终止</tspan></text>
  </g>
  <g>
    <g style="isolation: isolate;">
      <text transform="translate(208.2591 39.2697)" style="font-family: NotoSerifSC-ExtraLight, &apos;Noto Serif SC&apos;; font-size: 18px; font-weight: 200; isolation: isolate;"><tspan x="0" y="0">创建</tspan></text>
    </g>
    <circle cx="226.2591" cy="31.5483" r="28.9524" style="fill: none; stroke: #000; stroke-miterlimit: 10;"/>
  </g>
  <g>
    <g style="isolation: isolate;">
      <text transform="translate(619.4409 201.4222)" style="font-family: NotoSerifSC-ExtraLight, &apos;Noto Serif SC&apos;; font-size: 18px; font-weight: 200; isolation: isolate;"><tspan x="0" y="0">终止</tspan></text>
    </g>
    <circle cx="637.4409" cy="193.7009" r="28.9524" style="fill: none; stroke: #000; stroke-miterlimit: 10;"/>
  </g>
  <g>
    <line x1="255.9163" y1="32.4298" x2="350.6132" y2="32.4298" style="fill: none; stroke: #000; stroke-miterlimit: 10;"/>
    <polygon points="347.8047 36.1329 349.378 32.4298 347.8047 28.7267 356.5829 32.4298 347.8047 36.1329"/>
  </g>
</svg>