<?xml version="1.0" encoding="UTF-8"?>
<svg id="_layer_1" data-name=" layer 1" xmlns="http://www.w3.org/2000/svg" viewBox="0 0 863.7 222.6533">
  <g>
    <text transform="translate(269.9534 201.4224)" style="font-family: NotoSerifSC-ExtraLight, &apos;Noto Serif SC&apos;; font-size: 18px; font-weight: 200;"><tspan x="0" y="0">阻塞</tspan></text>
    <circle cx="287.9533" cy="193.7009" r="28.9524" style="fill: none; stroke: #000; stroke-miterlimit: 10;"/>
  </g>
  <g>
    <text transform="translate(457.1911 201.4224)" style="font-family: NotoSerifSC-ExtraLight, &apos;Noto Serif SC&apos;; font-size: 18px; font-weight: 200;"><tspan x="0" y="0">执行</tspan></text>
    <circle cx="475.1911" cy="193.7009" r="28.9524" style="fill: none; stroke: #000; stroke-miterlimit: 10;"/>
  </g>
  <g>
    <text transform="translate(363.5722 39.2697)" style="font-family: NotoSerifSC-ExtraLight, &apos;Noto Serif SC&apos;; font-size: 18px; font-weight: 200;"><tspan x="0" y="0">就绪</tspan></text>
    <circle cx="381.5722" cy="31.5483" r="28.9524" style="fill: none; stroke: #000; stroke-miterlimit: 10;"/>
  </g>
  <text transform="translate(311.2474 139.2873) rotate(-60)" style="font-family: NotoSerifSC-ExtraLight, &apos;Noto Serif SC&apos;; font-size: 18px; font-weight: 200;"><tspan x="0" y="0">I/O完成</tspan></text>
  <g>
    <line x1="302.4278" y1="168.6305" x2="364.1129" y2="61.7886" style="fill: none; stroke: #000; stroke-miterlimit: 10;"/>
    <polygon points="365.9156 66.0725 363.4953 62.8585 359.5016 62.3694 367.0978 56.6187 365.9156 66.0725"/>
  </g>
  <g>
    <line x1="387.4133" y1="60.5006" x2="448.8239" y2="171.5309" style="fill: none; stroke: #000; stroke-miterlimit: 10;"/>
    <polygon points="444.224 170.8655 448.226 170.4499 450.705 167.2809 451.7132 176.7548 444.224 170.8655"/>
  </g>
  <g>
    <line x1="469.4965" y1="164.7485" x2="408.086" y2="53.7183" style="fill: none; stroke: #000; stroke-miterlimit: 10;"/>
    <polygon points="412.6858 54.3837 408.6839 54.7993 406.2048 57.9683 405.1967 48.4944 412.6858 54.3837"/>
  </g>
  <g>
    <line x1="445.8218" y1="193.73" x2="322.0685" y2="193.6732" style="fill: none; stroke: #000; stroke-miterlimit: 10;"/>
    <polygon points="324.8788 189.9714 323.3039 193.6738 324.8754 197.3776 316.0988 193.6705 324.8788 189.9714"/>
  </g>
  <g>
    <line x1="504.0324" y1="193.7314" x2="598.7293" y2="193.7314" style="fill: none; stroke: #000; stroke-miterlimit: 10;"/>
    <polygon points="595.9207 197.4345 597.494 193.7314 595.9207 190.0283 604.699 193.7314 595.9207 197.4345"/>
  </g>
  <text transform="translate(428.1081 75.1604) rotate(61.3622)" style="font-family: NotoSerifSC-ExtraLight, &apos;Noto Serif SC&apos;; font-size: 18px; font-weight: 200;"><tspan x="0" y="0">时间片完</tspan></text>
  <text transform="translate(385.0817 97.9177) rotate(61.3622)" style="font-family: NotoSerifSC-ExtraLight, &apos;Noto Serif SC&apos;; font-size: 18px; font-weight: 200;"><tspan x="0" y="0">进程调度</tspan></text>
  <text transform="translate(349.5685 213.7894)" style="font-family: NotoSerifSC-ExtraLight, &apos;Noto Serif SC&apos;; font-size: 18px; font-weight: 200;"><tspan x="0" y="0">I/O请求</tspan></text>
  <text transform="translate(531.2314 213.7898)" style="font-family: NotoSerifSC-ExtraLight, &apos;Noto Serif SC&apos;; font-size: 18px; font-weight: 200;"><tspan x="0" y="0">终止</tspan></text>
</svg>