<?xml version="1.0" encoding="UTF-8"?>
<svg id="_图层_1" data-name=" 图层 1" xmlns="http://www.w3.org/2000/svg" viewBox="0 0 863.7 343.619">
  <text transform="translate(128.1422 55.4633)" style="font-family: NotoSerifSC-ExtraLight, &apos;Noto Serif SC&apos;; font-size: 18px; font-weight: 200;"><tspan x="0" y="0">内存</tspan></text>
  <g>
    <rect x="96.1419" y="35.3997" width="100" height="100" style="fill: none; stroke: #000; stroke-miterlimit: 10;"/>
    <line x1="96.1419" y1="110.3997" x2="196.1419" y2="110.3997" style="fill: none; stroke: #000; stroke-miterlimit: 10;"/>
    <line x1="96.1419" y1="85.3997" x2="196.1419" y2="85.3997" style="fill: none; stroke: #000; stroke-miterlimit: 10;"/>
    <line x1="96.1419" y1="60.3997" x2="196.1419" y2="60.3997" style="fill: none; stroke: #000; stroke-miterlimit: 10;"/>
  </g>
  <text transform="translate(128.1418 80.2347)" style="font-family: NotoSerifSC-ExtraLight, &apos;Noto Serif SC&apos;; font-size: 18px; font-weight: 200;"><tspan x="0" y="0">设备</tspan></text>
  <text transform="translate(128.1421 104.8695)" style="font-family: NotoSerifSC-ExtraLight, &apos;Noto Serif SC&apos;; font-size: 18px; font-weight: 200;"><tspan x="0" y="0">文件</tspan></text>
  <text transform="translate(128.1418 129.7584)" style="font-family: NotoSerifSC-ExtraLight, &apos;Noto Serif SC&apos;; font-size: 18px; font-weight: 200;"><tspan x="0" y="0">进程</tspan></text>
  <rect x="337.424" y="7.7913" width="100" height="25" style="fill: none; stroke: #000; stroke-miterlimit: 10;"/>
  <text transform="translate(360.4238 27.4993)" style="font-family: NotoSerifSC-ExtraLight, &apos;Noto Serif SC&apos;; font-size: 18px; font-weight: 200;"><tspan x="0" y="0">内存表</tspan></text>
  <g>
    <polyline points="195.9515 48.6696 255.761 48.6696 255.761 20.3838 331.1246 20.3838" style="fill: none; stroke: #000; stroke-miterlimit: 10;"/>
    <polygon points="328.316 24.087 329.8893 20.3838 328.316 16.6807 337.0943 20.3838 328.316 24.087"/>
  </g>
  <rect x="338.1737" y="60.8948" width="100" height="25" style="fill: none; stroke: #000; stroke-miterlimit: 10;"/>
  <text transform="translate(361.1734 80.6028)" style="font-family: NotoSerifSC-ExtraLight, &apos;Noto Serif SC&apos;; font-size: 18px; font-weight: 200;"><tspan x="0" y="0">设备表</tspan></text>
  <g>
    <line x1="196.1419" y1="73.3948" x2="332.2039" y2="73.3948" style="fill: none; stroke: #000; stroke-miterlimit: 10;"/>
    <polygon points="329.3954 77.098 330.9686 73.3948 329.3954 69.6917 338.1737 73.3948 329.3954 77.098"/>
  </g>
  <g>
    <polyline points="196.5864 96.9058 256.3959 96.9058 256.3959 123.5505 331.7595 123.5505" style="fill: none; stroke: #000; stroke-miterlimit: 10;"/>
    <polygon points="328.9509 127.2537 330.5242 123.5505 328.9509 119.8474 337.7292 123.5505 328.9509 127.2537"/>
  </g>
  <rect x="337.424" y="111.0505" width="100" height="25" style="fill: none; stroke: #000; stroke-miterlimit: 10;"/>
  <text transform="translate(360.4238 130.7585)" style="font-family: NotoSerifSC-ExtraLight, &apos;Noto Serif SC&apos;; font-size: 18px; font-weight: 200;"><tspan x="0" y="0">文件表</tspan></text>
  <g>
    <rect x="336.9673" y="183.1299" width="100" height="75" style="fill: none; stroke: #000; stroke-miterlimit: 10;"/>
    <line x1="336.9673" y1="233.1299" x2="436.9673" y2="233.1299" style="fill: none; stroke: #000; stroke-miterlimit: 10;"/>
    <line x1="336.9673" y1="208.1299" x2="436.9673" y2="208.1299" style="fill: none; stroke: #000; stroke-miterlimit: 10;"/>
  </g>
  <text transform="translate(364.7104 202.5178)" style="font-family: NotoSerifSC-ExtraLight, &apos;Noto Serif SC&apos;; font-size: 18px; font-weight: 200;"><tspan x="0" y="0">进程1</tspan></text>
  <text transform="translate(364.0712 228.4021)" style="font-family: NotoSerifSC-ExtraLight, &apos;Noto Serif SC&apos;; font-size: 18px; font-weight: 200;"><tspan x="0" y="0">进程2</tspan></text>
  <text transform="translate(364.0893 252.8815)" style="font-family: NotoSerifSC-ExtraLight, &apos;Noto Serif SC&apos;; font-size: 18px; font-weight: 200;"><tspan x="0" y="0">进程3</tspan></text>
  <rect x="336.9673" y="313.0188" width="100" height="25" style="fill: none; stroke: #000; stroke-miterlimit: 10;"/>
  <text transform="translate(363.1082 331.5212)" style="font-family: NotoSerifSC-ExtraLight, &apos;Noto Serif SC&apos;; font-size: 18px; font-weight: 200;"><tspan x="0" y="0">进程n</tspan></text>
  <g>
    <circle cx="387.2021" cy="277.9044" r="1.4142"/>
    <circle cx="387.2021" cy="285.5743" r="1.4142"/>
    <circle cx="387.2021" cy="293.2442" r="1.4142"/>
  </g>
  <rect x="569.5576" y="105.5238" width="100" height="61.1587" style="fill: none; stroke: #000; stroke-miterlimit: 10;"/>
  <text transform="translate(597.3008 143.717)" style="font-family: NotoSerifSC-ExtraLight, &apos;Noto Serif SC&apos;; font-size: 18px; font-weight: 200;"><tspan x="0" y="0">进程1</tspan></text>
  <rect x="569.5576" y="240.9921" width="100" height="61.1587" style="fill: none; stroke: #000; stroke-miterlimit: 10;"/>
  <text transform="translate(595.5249 279.1853)" style="font-family: NotoSerifSC-ExtraLight, &apos;Noto Serif SC&apos;; font-size: 18px; font-weight: 200;"><tspan x="0" y="0">进程n</tspan></text>
  <text transform="translate(569.5576 98.6028)" style="font-family: NotoSerifSC-ExtraLight, &apos;Noto Serif SC&apos;; font-size: 18px; font-weight: 200;"><tspan x="0" y="0">进程实体及作用资源列表</tspan></text>
  <text transform="translate(567.2479 233.1296)" style="font-family: NotoSerifSC-ExtraLight, &apos;Noto Serif SC&apos;; font-size: 18px; font-weight: 200;"><tspan x="0" y="0">进程实体及作用资源列表</tspan></text>
  <g>
    <circle cx="619.5576" cy="184.9907" r="1.4142"/>
    <circle cx="619.5576" cy="192.6606" r="1.4142"/>
    <circle cx="619.5576" cy="200.3305" r="1.4142"/>
  </g>
  <g>
    <polyline points="436.9673 195.6779 497.6846 195.6779 497.6846 136.8772 564.1641 136.8772" style="fill: none; stroke: #000; stroke-miterlimit: 10;"/>
    <polygon points="561.3555 140.5803 562.9287 136.8772 561.3555 133.1741 570.1338 136.8772 561.3555 140.5803"/>
  </g>
  <g>
    <polyline points="436.9673 325.5188 503.5506 325.5188 503.5506 272.3454 564.1641 272.3454" style="fill: none; stroke: #000; stroke-miterlimit: 10;"/>
    <polygon points="561.3555 276.0486 562.9287 272.3454 561.3555 268.6423 570.1338 272.3454 561.3555 276.0486"/>
  </g>
  <g>
    <polyline points="195.9515 122.9186 226.7005 122.9186 226.7005 195.6779 330.9976 195.6779" style="fill: none; stroke: #000; stroke-miterlimit: 10;"/>
    <polygon points="328.189 199.381 329.7623 195.6779 328.189 191.9748 336.9673 195.6779 328.189 199.381"/>
  </g>
</svg>