<?xml version="1.0" encoding="UTF-8"?>
<svg xmlns="http://www.w3.org/2000/svg" version="1.1" viewBox="0 0 863.7 166">
  <defs>
    <style>
      .cls-1 {
        font-family: 'KaTeX_Main-Italic', KaTeX_Main;
      }

      .cls-1, .cls-2, .cls-3, .cls-4 {
        isolation: isolate;
      }

      .cls-1, .cls-2, .cls-4 {
        font-size: 18px;
        font-style: italic;
      }

      .cls-5 {
        stroke: #000;
        stroke-miterlimit: 10;
      }

      .cls-5, .cls-6 {
        fill: none;
      }

      .cls-2 {
        font-family: 'KaTeX_Math-Italic', KaTeX_Math;
      }

      .cls-7 {
        fill: #fff;
      }

      .cls-4 {
        font-family: 'KaTeX_Math-BoldItalic', KaTeX_Math;
        font-weight: 700;
      }
    </style>
  </defs>
  <!-- Generator: Adobe Illustrator 28.7.1, SVG Export Plug-In . SVG Version: 1.2.0 Build 142)  -->
  <g>
    <g id="_图层_1" data-name="图层_1">
      <g id="_图层_1-2" data-name="_图层_1">
        <path class="cls-5" d="M56.9,106.1c2.1,4.3,23.2,46.3,70.1,54.1,27.1,4.5,55-3.7,73.9-19.8,22.3-19,26.6-34,50.4-56.2,23.6-22,33.7-30.7,53.2-37.5,16.6-5.8,80-21.9,130.3,16,22,16.6,33.9,38.1,40.4,54.1"/>
        <circle cx="293.3" cy="51.1" r="2.6"/>
        <g>
          <path class="cls-7" d="M293.3,50.9c28.2-13.3,69.1-32.7,69.1-32.7"/>
          <g>
            <path class="cls-5" d="M293.3,50.9c20.5-9.7,47.8-22.6,61.1-28.9"/>
            <polygon points="353.8 25.5 362.4 18.2 351.4 20.2 353.8 25.5"/>
          </g>
        </g>
        <g>
          <line class="cls-6" x1="408.1" y1="47.6" x2="487.3" y2="77.8"/>
          <g>
            <line class="cls-5" x1="408.1" y1="47.6" x2="479" y2="74.7"/>
            <polygon points="476.1 76.7 487.3 77.8 478.2 71.2 476.1 76.7"/>
          </g>
        </g>
        <g class="cls-3">
          <g class="cls-3">
            <text class="cls-4" transform="translate(362.4 13.5)"><tspan x="0" y="0">α</tspan></text>
          </g>
          <g class="cls-3">
            <text class="cls-1" transform="translate(376.1 13.5)"><tspan x="0" y="0">(s)</tspan></text>
          </g>
        </g>
        <g class="cls-3">
          <g class="cls-3">
            <text class="cls-4" transform="translate(473.4 95.1)"><tspan x="0" y="0">α</tspan></text>
          </g>
          <g class="cls-3">
            <text class="cls-1" transform="translate(487.1 95.1)"><tspan x="0" y="0">(s+Δs)</tspan></text>
          </g>
        </g>
        <g class="cls-3">
          <g class="cls-3">
            <text class="cls-1" transform="translate(293.3 64.5)"><tspan x="0" y="0">s</tspan></text>
          </g>
        </g>
        <g class="cls-3">
          <g class="cls-3">
            <text class="cls-1" transform="translate(370.4 66.5)"><tspan x="0" y="0">s+Δs</tspan></text>
          </g>
        </g>
        <circle cx="406" cy="46.7" r="2.6"/>
        <g class="cls-3">
          <g class="cls-3">
            <text class="cls-4" transform="translate(667.8 141)"><tspan x="0" y="0">α</tspan></text>
          </g>
          <g class="cls-3">
            <text class="cls-1" transform="translate(681.5 141)"><tspan x="0" y="0">(s+Δs)</tspan></text>
          </g>
        </g>
        <g class="cls-3">
          <g class="cls-3">
            <text class="cls-4" transform="translate(696.2 88.1)"><tspan x="0" y="0">α</tspan></text>
          </g>
          <g class="cls-3">
            <text class="cls-1" transform="translate(709.9 88.1)"><tspan x="0" y="0">(s+Δs)-</tspan></text>
          </g>
          <g class="cls-3">
            <text class="cls-4" transform="translate(774.3 88.1)"><tspan x="0" y="0">α</tspan></text>
          </g>
          <g class="cls-3">
            <text class="cls-1" transform="translate(788 88.1)"><tspan x="0" y="0">(s)</tspan></text>
          </g>
        </g>
        <g class="cls-3">
          <g class="cls-3">
            <text class="cls-4" transform="translate(648.4 47.8)"><tspan x="0" y="0">α</tspan></text>
          </g>
          <g class="cls-3">
            <text class="cls-1" transform="translate(662.1 47.8)"><tspan x="0" y="0">(s)</tspan></text>
          </g>
        </g>
        <path class="cls-5" d="M634.6,81.6c3,.9,5.4,3.7,6,7.2.7,3.7-.6,7.5-3.3,9.7"/>
        <g class="cls-3">
          <g class="cls-3">
            <text class="cls-2" transform="translate(643.6 96.4)"><tspan x="0" y="0">Δθ</tspan></text>
          </g>
        </g>
        <g>
          <path class="cls-5" d="M676.5,112.5c-18.5-6.6-61.1-21.7-61.3-21.8"/>
          <polygon points="675.6 109.1 684.8 115.4 673.7 114.5 675.6 109.1"/>
        </g>
        <g>
          <line class="cls-5" x1="681.8" y1="59.9" x2="684.4" y2="106.6"/>
          <polygon points="681.3 104.8 684.8 115.4 687.1 104.4 681.3 104.8"/>
        </g>
        <g>
          <path class="cls-5" d="M674.5,63.5c-17.9,8.1-59.1,26.7-59.2,26.8"/>
          <polygon points="671.5 61.7 682.5 59.9 673.9 67 671.5 61.7"/>
        </g>
        <g class="cls-3">
          <g class="cls-3">
            <text class="cls-2" transform="translate(600.2 95.2)"><tspan x="0" y="0">O</tspan></text>
          </g>
        </g>
      </g>
    </g>
  </g>
</svg>