<?xml version="1.0" encoding="UTF-8"?>
<svg xmlns="http://www.w3.org/2000/svg" version="1.1" viewBox="0 0 863.7 336">
  <defs>
    <style>
      .cls-1, .cls-2 {
        fill: none;
        stroke: #000;
        stroke-miterlimit: 10;
      }

      .cls-3, .cls-4 {
        font-style: italic;
      }

      .cls-3, .cls-4, .cls-5 {
        font-size: 18px;
      }

      .cls-4 {
        font-family: 'KaTeX_Math-Italic', KaTeX_Math;
      }

      .cls-6 {
        font-family: 'KaTeX_Math-BoldItalic', KaTeX_Math;
        font-weight: 700;
      }

      .cls-5 {
        font-family: AdobeSongStd-Light-GBpc-EUC-H, 'Adobe Song Std';
        font-weight: 300;
      }

      .cls-2 {
        stroke-width: 2px;
      }

      .cls-7 {
        font-family: 'KaTeX_Main-Italic', KaTeX_Main;
      }
    </style>
  </defs>
  <!-- Generator: Adobe Illustrator 28.7.1, SVG Export Plug-In . SVG Version: 1.2.0 Build 142)  -->
  <g>
    <g id="_图层_1" data-name="图层_1">
      <g>
        <g>
          <line class="cls-1" x1="320.3" y1="256.9" x2="260.2" y2="317"/>
          <polygon points="259.5 312.4 261 316.2 264.8 317.7 255.9 321.3 259.5 312.4"/>
        </g>
        <g>
          <line class="cls-1" x1="320.3" y1="18" x2="320.3" y2="256.9"/>
          <polygon points="316.6 20.8 320.3 19.2 324 20.8 320.3 12 316.6 20.8"/>
        </g>
        <g>
          <line class="cls-1" x1="320.3" y1="256.9" x2="369.6" y2="122.3"/>
          <polygon points="372.1 126.2 369.1 123.5 365.1 123.7 371.6 116.7 372.1 126.2"/>
        </g>
        <g>
          <line class="cls-1" x1="605.7" y1="256.9" x2="320.3" y2="256.9"/>
          <polygon points="602.9 253.2 604.5 256.9 602.9 260.6 611.7 256.9 602.9 253.2"/>
        </g>
        <text class="cls-4" transform="translate(269.8 328.2)"><tspan x="0" y="0">x</tspan></text>
        <text class="cls-4" transform="translate(600.3 275.7)"><tspan x="0" y="0">y</tspan></text>
        <text class="cls-4" transform="translate(316.6 272.4)"><tspan x="0" y="0">O</tspan></text>
        <text class="cls-4" transform="translate(329.9 12)"><tspan x="0" y="0">z</tspan></text>
        <path class="cls-2" d="M252,246.2c16.7-37.2,52-98.1,119.6-129.5,45.1-21,114.9-33.6,128.8-10.3,7,11.8-1.7,30.2-11,45"/>
        <path class="cls-1" d="M420.6,90.6c23.5-12.1,39.8-20.4,39.8-20.4"/>
        <g>
          <path class="cls-1" d="M266.1,170.1c1.6-1.1,96.4-49.7,153-78.7"/>
          <polygon points="418.2 96 417.9 92 414.9 89.4 424.4 88.7 418.2 96"/>
        </g>
        <path class="cls-1" d="M292.9,123.1c2.2.1,267-21.6,267-21.6"/>
        <text class="cls-3" transform="translate(416.9 68.3)"><tspan class="cls-6" x="0" y="0">r</tspan><tspan class="cls-7" x="9.5" y="0">(t)</tspan></text>
        <text class="cls-5" transform="translate(423.1 70.3)"><tspan x="0" y="0">′</tspan></text>
        <text class="cls-4" transform="translate(563.6 105.5)"><tspan x="0" y="0">l</tspan></text>
        <g>
          <line class="cls-1" x1="320.3" y1="256.9" x2="495.8" y2="110.3"/>
          <polygon points="496 114.9 494.9 111 491.3 109.2 500.4 106.4 496 114.9"/>
        </g>
        <text class="cls-3" transform="translate(352.7 184.5)"><tspan class="cls-6" x="0" y="0">r</tspan><tspan class="cls-7" x="9.5" y="0">(t)</tspan></text>
        <text class="cls-3" transform="translate(426.4 181.7)"><tspan class="cls-6" x="0" y="0">r</tspan><tspan class="cls-7" x="9.5" y="0">(t+Δt)</tspan></text>
      </g>
    </g>
  </g>
</svg>