<?xml version="1.0" encoding="UTF-8"?>
<svg xmlns="http://www.w3.org/2000/svg" version="1.1" viewBox="0 0 863.7 336">
  <defs>
    <style>
      .cls-1, .cls-2 {
        fill: none;
        stroke: #000;
        stroke-miterlimit: 10;
      }

      .cls-3, .cls-4 {
        font-style: italic;
      }

      .cls-3, .cls-4, .cls-5 {
        font-size: 18px;
      }

      .cls-4 {
        font-family: 'KaTeX_Math-Italic', KaTeX_Math;
      }

      .cls-6 {
        font-family: 'KaTeX_Math-BoldItalic', KaTeX_Math;
        font-weight: 700;
      }

      .cls-5 {
        font-family: AdobeSongStd-Light-GBpc-EUC-H, 'Adobe Song Std';
        font-weight: 300;
      }

      .cls-2 {
        stroke-width: 2px;
      }

      .cls-7 {
        font-family: 'KaTeX_Main-Italic', KaTeX_Main;
      }
    </style>
  </defs>
  <!-- Generator: Adobe Illustrator 28.7.1, SVG Export Plug-In . SVG Version: 1.2.0 Build 142)  -->
  <g>
    <g id="_图层_1" data-name="图层_1">
      <g>
        <g>
          <line class="cls-1" x1="297.8" y1="256.9" x2="237.7" y2="317"/>
          <polygon points="237 312.4 238.5 316.2 242.3 317.7 233.4 321.3 237 312.4"/>
        </g>
        <g>
          <line class="cls-1" x1="297.8" y1="18" x2="297.8" y2="256.9"/>
          <polygon points="294.1 20.8 297.8 19.2 301.5 20.8 297.8 12 294.1 20.8"/>
        </g>
        <g>
          <line class="cls-1" x1="297.8" y1="256.9" x2="347.1" y2="122.3"/>
          <polygon points="349.6 126.2 346.6 123.5 342.6 123.7 349.1 116.7 349.6 126.2"/>
        </g>
        <g>
          <line class="cls-1" x1="628.2" y1="256.9" x2="297.8" y2="256.9"/>
          <polygon points="625.4 253.2 627 256.9 625.4 260.6 634.2 256.9 625.4 253.2"/>
        </g>
        <text class="cls-4" transform="translate(247.3 328.2)"><tspan x="0" y="0">x</tspan></text>
        <text class="cls-4" transform="translate(622.8 275.7)"><tspan x="0" y="0">y</tspan></text>
        <text class="cls-4" transform="translate(294 272.4)"><tspan x="0" y="0">O</tspan></text>
        <text class="cls-4" transform="translate(307.4 12)"><tspan x="0" y="0">z</tspan></text>
        <path class="cls-2" d="M229.5,246.2c16.7-37.2,52-98.1,119.6-129.5,45.1-21,114.9-33.6,128.8-10.3,7,11.8-1.7,30.2-11,45"/>
        <path class="cls-1" d="M398.1,90.6c23.5-12.1,39.8-20.4,39.8-20.4"/>
        <g>
          <path class="cls-1" d="M243.5,170.1c1.6-1.1,96.4-49.7,153-78.7"/>
          <polygon points="395.7 96 395.4 92 392.3 89.4 401.8 88.7 395.7 96"/>
        </g>
        <path class="cls-1" d="M270.4,123.1c2.2.1,267-21.6,267-21.6"/>
        <text class="cls-3" transform="translate(394.4 68.3)"><tspan class="cls-6" x="0" y="0">r</tspan><tspan class="cls-7" x="9.5" y="0">(t)</tspan></text>
        <text class="cls-5" transform="translate(400.6 70.3)"><tspan x="0" y="0">′</tspan></text>
        <text class="cls-4" transform="translate(541.1 105.5)"><tspan x="0" y="0">l</tspan></text>
        <g>
          <line class="cls-1" x1="297.8" y1="256.9" x2="473.3" y2="110.3"/>
          <polygon points="473.5 114.9 472.4 111 468.8 109.2 477.9 106.4 473.5 114.9"/>
        </g>
        <text class="cls-3" transform="translate(330.2 184.5)"><tspan class="cls-6" x="0" y="0">r</tspan><tspan class="cls-7" x="9.5" y="0">(t)</tspan></text>
        <text class="cls-3" transform="translate(403.9 181.7)"><tspan class="cls-6" x="0" y="0">r</tspan><tspan class="cls-7" x="9.5" y="0">(t+Δt)</tspan></text>
      </g>
    </g>
  </g>
</svg>