<?xml version="1.0" encoding="UTF-8"?>
<svg id="_图层_1" data-name="图层_1" xmlns="http://www.w3.org/2000/svg" xmlns:xlink="http://www.w3.org/1999/xlink" viewBox="0 0 847.8998 196.8803">
  <defs>
    <radialGradient id="_未命名的渐变" data-name="未命名的渐变" cx="588.065" cy="-2738.3768" fx="588.065" fy="-2738.3768" r="13.8878" gradientTransform="translate(1112.4843 -496.463) rotate(90) scale(1 -.3)" gradientUnits="userSpaceOnUse">
      <stop offset="0" stop-color="#fff"/>
      <stop offset="0" stop-color="#000"/>
      <stop offset=".6" stop-color="#0a0a0a"/>
      <stop offset="1" stop-color="#efefef" stop-opacity="0"/>
    </radialGradient>
    <radialGradient id="_未命名的渐变_2" data-name="未命名的渐变 2" cx="604.765" cy="-2690.6768" fx="604.765" fy="-2690.6768" r="13.2" gradientTransform="translate(1117.3614 -518.5342) rotate(90) scale(1 -.3)" gradientUnits="userSpaceOnUse">
      <stop offset="0" stop-color="#fff"/>
      <stop offset="0" stop-color="#000"/>
      <stop offset=".6" stop-color="#0a0a0a"/>
      <stop offset="1" stop-color="#efefef" stop-opacity="0"/>
    </radialGradient>
    <radialGradient id="_未命名的渐变_3" data-name="未命名的渐变 3" cx="-48.204" cy="-593.5438" fx="-48.204" fy="-593.5438" r="13.4965" gradientTransform="translate(383.4849 -326.5604) scale(1 -.7)" gradientUnits="userSpaceOnUse">
      <stop offset="0" stop-color="#fff"/>
      <stop offset="0" stop-color="#000"/>
      <stop offset=".6" stop-color="#0a0a0a"/>
      <stop offset="1" stop-color="#efefef" stop-opacity="0"/>
    </radialGradient>
    <radialGradient id="_未命名的渐变_4" data-name="未命名的渐变 4" cx="319.8698" cy="-618.1435" fx="319.8698" fy="-618.1435" r="14.0127" gradientTransform="translate(0 -446.2692) scale(1 -.9)" gradientUnits="userSpaceOnUse">
      <stop offset="0" stop-color="#fff"/>
      <stop offset="0" stop-color="#000"/>
      <stop offset=".6" stop-color="#0a0a0a"/>
      <stop offset="1" stop-color="#efefef" stop-opacity="0"/>
    </radialGradient>
    <radialGradient id="_未命名的渐变_5" data-name="未命名的渐变 5" cx="314.2998" cy="-1870.9502" fx="314.2998" fy="-1870.9502" r="14.5" gradientTransform="translate(0 -648.9441) scale(1 -.4)" gradientUnits="userSpaceOnUse">
      <stop offset="0" stop-color="#fff"/>
      <stop offset="0" stop-color="#000"/>
      <stop offset=".6" stop-color="#0a0a0a"/>
      <stop offset="1" stop-color="#efefef" stop-opacity="0"/>
    </radialGradient>
    <radialGradient id="_未命名的渐变_6" data-name="未命名的渐变 6" cx="875.1289" cy="-1185.8186" fx="875.1289" fy="-1185.8186" r="14" gradientTransform="translate(1010.2882 -755.0899) rotate(90) scale(1 -.6)" gradientUnits="userSpaceOnUse">
      <stop offset="0" stop-color="#fff"/>
      <stop offset="0" stop-color="#000"/>
      <stop offset=".6" stop-color="#0a0a0a"/>
      <stop offset="1" stop-color="#efefef" stop-opacity="0"/>
    </radialGradient>
    <radialGradient id="_未命名的渐变_7" data-name="未命名的渐变 7" cx="328.5043" cy="-1864.9261" fx="328.5043" fy="-1864.9261" r="14.2" gradientTransform="translate(-130.8853 -622.9503) scale(1.4 -.4)" gradientUnits="userSpaceOnUse">
      <stop offset="0" stop-color="#fff"/>
      <stop offset="0" stop-color="#000"/>
      <stop offset=".6" stop-color="#0a0a0a"/>
      <stop offset="1" stop-color="#efefef" stop-opacity="0"/>
    </radialGradient>
  </defs>
  <g style="isolation: isolate;">
    <g id="_layer_1">
      <circle cx="13.2998" cy="78.4" r="2.5"/>
      <circle cx="13.2998" cy="78.4" r="2.5"/>
      <circle cx="13.2998" cy="78.4" r="2.5"/>
      <circle cx="13.2998" cy="78.4" r="2.5"/>
      <circle cx="13.2998" cy="78.4" r="2.5"/>
      <circle cx="13.2998" cy="78.4" r="2.5"/>
      <circle cx="33.6998" cy="83.4" r="2.5"/>
      <circle cx="49.3998" cy="95.6" r="2.5"/>
      <circle cx="19.7998" cy="88.4" r="2.5"/>
      <circle cx="36.1998" cy="95.6" r="2.5"/>
      <circle cx="42.7998" cy="106.5" r="2.5"/>
      <circle cx="26.6998" cy="114.1" r="2.5"/>
      <circle cx="38.6998" cy="120.2" r="2.5"/>
      <circle cx="50.2998" cy="117.8" r="2.5"/>
      <circle cx="14.7998" cy="119.1" r="2.5"/>
      <circle cx="19.7998" cy="133.4" r="2.5"/>
      <rect x="105.6998" y="88" width="123.9" height="45.8" style="fill: none; stroke: #000; stroke-miterlimit: 10;"/>
      <line x1="63.1998" y1="109" x2="87.4998" y2="109" style="fill: none; stroke: #000; stroke-miterlimit: 10;"/>
      <polygon points="85.4998 111.9 96.3998 109 85.4998 106.1 85.4998 111.9"/>
      <line x1="242.2998" y1="109" x2="266.4998" y2="109" style="fill: none; stroke: #000; stroke-miterlimit: 10;"/>
      <polygon points="264.5998 111.9 275.3998 109 264.5998 106.1 264.5998 111.9"/>
      <ellipse cx="290.9902" cy="91.512" rx="4.2" ry="13.8" transform="translate(116.6478 341.8207) rotate(-72.6)" style="fill: url(#_未命名的渐变); isolation: isolate; mix-blend-mode: overlay;"/>
      <ellipse cx="310.1674" cy="86.2308" rx="3.8" ry="13.8" transform="translate(135.1298 356.4185) rotate(-72.6)" style="fill: url(#_未命名的渐变_2); isolation: isolate; mix-blend-mode: overlay;"/>
      <ellipse cx="335.2809" cy="88.9202" rx="13.8" ry="9.3" transform="translate(-4.0782 160.7219) rotate(-26.8)" style="fill: url(#_未命名的渐变_3); isolation: isolate; mix-blend-mode: overlay;"/>
      <ellipse cx="319.8698" cy="110.06" rx="13.8" ry="12.8" style="fill: url(#_未命名的渐变_4); isolation: isolate; mix-blend-mode: overlay;"/>
      <ellipse cx="314.2998" cy="99.5" rx="13.8" ry="6.1" style="fill: url(#_未命名的渐变_5); isolation: isolate; mix-blend-mode: overlay;"/>
      <ellipse cx="298.777" cy="120.039" rx="8.5" ry="13.8" transform="translate(29.691 296.8717) rotate(-55.2)" style="fill: url(#_未命名的渐变_6); isolation: isolate; mix-blend-mode: overlay;"/>
      <ellipse cx="329.0947" cy="122.9681" rx="19.1" ry="5.9" transform="translate(-14.3042 48.7949) rotate(-8.3)" style="fill: url(#_未命名的渐变_7); isolation: isolate; mix-blend-mode: overlay;"/>
      <rect x="401.1998" y="136.1" width="141.7" height="59.5" style="fill: none; stroke: #000; stroke-miterlimit: 10;"/>
      <rect x="401.1998" y="13.9" width="141.7" height="59.5" style="fill: none; stroke: #000; stroke-miterlimit: 10;"/>
      <rect x="590.7998" y="81.4" width="141.7" height="59.5" style="fill: none; stroke: #000; stroke-miterlimit: 10;"/>
      <rect x="105.6998" y="88.3" width="123.9" height="45.8" style="isolation: isolate; opacity: .1;"/>
      <rect x="401.1998" y="136.4" width="141.7" height="59.5" style="isolation: isolate; opacity: .1;"/>
      <rect x="401.1998" y="14.3" width="141.7" height="59.5" style="isolation: isolate; opacity: .1;"/>
      <rect x="590.7998" y="81.4" width="141.7" height="59.5" style="isolation: isolate; opacity: .1;"/>
      <rect x="768.1998" y="87.4" width="79.2" height="47.4" style="fill: none; stroke: #000; stroke-miterlimit: 10;"/>
      <path d="M347.0998,65.3c7.7-13.9,28.4-19.1,40.3-21" style="fill: none; stroke: #000; stroke-miterlimit: 10;"/>
      <polygon points="385.8998 47.5 396.1998 43.2 385.0998 41.7 385.8998 47.5"/>
      <path d="M397.5998,173c-18.8-.9-40.6-24.2-50.6-36.1" style="fill: none; stroke: #000; stroke-miterlimit: 10;"/>
      <polygon points="350.5998 136.6 341.4998 130 346.0998 140.2 350.5998 136.6"/>
      <path d="M547.7998,44.6c24-.7,38.4,14,45.1,23.5" style="fill: none; stroke: #000; stroke-miterlimit: 10;"/>
      <polygon points="589.2998 68 597.4998 75.7 594.2998 64.9 589.2998 68"/>
      <path d="M590.1998,143.4c-.3,1-.7,1.9-1.1,2.8" style="fill: none; stroke: #000; stroke-miterlimit: 10;"/>
      <path d="M586.2998,151.4c-6.7,10.6-17.3,16.3-25.9,19.3" style="fill: none; stroke: #000; stroke-dasharray: 6 6; stroke-miterlimit: 10;"/>
      <path d="M557.4998,171.7c-1,.3-2,.6-2.9.8" style="fill: none; stroke: #000; stroke-miterlimit: 10;"/>
      <polygon points="555.9998 169.2 545.8998 174.2 557.0998 174.9 555.9998 169.2"/>
      <line x1="733.7998" y1="103.6" x2="758.0998" y2="103.6" style="fill: none; stroke: #000; stroke-miterlimit: 10;"/>
      <polygon points="756.0998 106.6 766.8998 103.6 756.0998 100.7 756.0998 106.6"/>
      <line x1="766.8998" y1="116.4" x2="763.8998" y2="116.4" style="fill: none; stroke: #000; stroke-miterlimit: 10;"/>
      <line x1="757.7998" y1="116.4" x2="748.6998" y2="116.4" style="fill: none; stroke: #000; stroke-dasharray: 6.1 6.1; stroke-miterlimit: 10;"/>
      <line x1="745.5998" y1="116.4" x2="742.5998" y2="116.4" style="fill: none; stroke: #000; stroke-miterlimit: 10;"/>
      <polygon points="744.5998 113.4 733.7998 116.4 744.5998 119.3 744.5998 113.4"/>
      <path d="M588.1998,79.8c-.4-.9-.8-1.9-1.2-2.7" style="fill: none; stroke: #000; stroke-miterlimit: 10;"/>
      <path d="M584.2998,72.5c-6.1-8.7-15.5-13.5-23.4-16.1" style="fill: none; stroke: #000; stroke-dasharray: 5.2 5.2; stroke-miterlimit: 10;"/>
      <path d="M558.4998,55.6c-1-.3-2-.6-2.9-.8" style="fill: none; stroke: #000; stroke-miterlimit: 10;"/>
      <polygon points="558.0998 52.5 546.8998 53.3 556.9998 58.2 558.0998 52.5"/>
      <path d="M396.1998,51.3c-20.8,3.6-21.9,4.3-29.8,7.9-3.7,1.7-7.4,5.4-10.2,8.7" style="fill: none; stroke: #000; stroke-dasharray: 6 6; stroke-miterlimit: 10;"/>
      <polygon points="355.1998 64.7 351.0998 75.1 359.8998 68.2 355.1998 64.7"/>
      <rect x="279.0998" y="14.3" width="79.2" height="25" style="fill: none; stroke: #000; stroke-miterlimit: 10;"/>
      <line x1="362.1998" y1="26.7" x2="386.3998" y2="26.7" style="fill: none; stroke: #000; stroke-miterlimit: 10;"/>
      <polygon points="384.4998 29.6 395.2998 26.7 384.4998 23.8 384.4998 29.6"/>
      <rect x="3.1998" y=".5" width="216.9" height="49.9" style="fill: none; stroke: #000; stroke-miterlimit: 10;"/>
      <line x1="152.0998" y1="16.2" x2="199.3998" y2="16.2" style="fill: none; stroke: #000; stroke-miterlimit: 10;"/>
      <polygon points="197.4998 19.1 208.2998 16.2 197.4998 13.3 197.4998 19.1"/>
      <line x1="152.0998" y1="37.8" x2="155.0998" y2="37.8" style="fill: none; stroke: #000; stroke-miterlimit: 10;"/>
      <line x1="160.9998" y1="37.8" x2="193.4998" y2="37.8" style="fill: none; stroke: #000; stroke-dasharray: 5.9 5.9; stroke-miterlimit: 10;"/>
      <line x1="196.3998" y1="37.8" x2="199.3998" y2="37.8" style="fill: none; stroke: #000; stroke-miterlimit: 10;"/>
      <polygon points="197.4998 40.7 208.2998 37.8 197.4998 34.9 197.4998 40.7"/>
      <g style="isolation: isolate;">
        <g style="isolation: isolate;">
          <text transform="translate(-.0002 172.8)" style="font-family: NotoSerifSC-Regular, &apos;Noto Serif SC&apos;; font-size: 18px; isolation: isolate;"><tspan x="0" y="0">S</tspan></text>
          <text transform="translate(10.0998 172.8)" style="font-family: NotoSerifSC-Regular, &apos;Noto Serif SC&apos;; font-size: 18px; isolation: isolate; letter-spacing: .029em;"><tspan x="0" y="0">f</tspan></text>
          <text transform="translate(17.6898 172.8)" style="font-family: NotoSerifSC-Regular, &apos;Noto Serif SC&apos;; font-size: 18px; isolation: isolate;"><tspan x="0" y="0">M </tspan></text>
          <text transform="translate(39.8498 172.8)" style="font-family: NotoSerifSC-Regular, &apos;Noto Serif SC&apos;; font-size: 18px; isolation: isolate; letter-spacing: -.019em;"><tspan x="0" y="0">P</tspan></text>
          <text transform="translate(51.0098 172.8)" style="font-family: NotoSerifSC-Regular, &apos;Noto Serif SC&apos;; font-size: 18px; isolation: isolate;"><tspan x="0" y="0">oi</tspan></text>
          <text transform="translate(67.7098 172.8)" style="font-family: NotoSerifSC-Regular, &apos;Noto Serif SC&apos;; font-size: 18px; isolation: isolate;"><tspan x="0" y="0">n</tspan></text>
          <text transform="translate(79.5898 172.8)" style="font-family: NotoSerifSC-Regular, &apos;Noto Serif SC&apos;; font-size: 18px; isolation: isolate;"><tspan x="0" y="0">t</tspan></text>
          <text transform="translate(86.2198 172.8)" style="font-family: NotoSerifSC-Regular, &apos;Noto Serif SC&apos;; font-size: 18px; isolation: isolate;"><tspan x="0" y="0">s</tspan></text>
        </g>
      </g>
      <g style="isolation: isolate;">
        <g style="isolation: isolate;">
          <text transform="translate(110.6998 118.52)" style="font-family: NotoSerifSC-Regular, &apos;Noto Serif SC&apos;; font-size: 18px; isolation: isolate;"><tspan x="0" y="0">Initialization</tspan></text>
        </g>
      </g>
      <g style="isolation: isolate;">
        <g style="isolation: isolate;">
          <text transform="translate(247.5998 172.8)" style="font-family: NotoSerifSC-Regular, &apos;Noto Serif SC&apos;; font-size: 18px; isolation: isolate;"><tspan x="0" y="0">3D </tspan></text>
          <text transform="translate(275.9698 172.8)" style="font-family: NotoSerifSC-Regular, &apos;Noto Serif SC&apos;; font-size: 18px; isolation: isolate;"><tspan x="0" y="0">G</tspan></text>
          <text transform="translate(289.3798 172.8)" style="font-family: NotoSerifSC-Regular, &apos;Noto Serif SC&apos;; font-size: 18px; isolation: isolate;"><tspan x="0" y="0">a</tspan></text>
          <text transform="translate(299.3698 172.8)" style="font-family: NotoSerifSC-Regular, &apos;Noto Serif SC&apos;; font-size: 18px; isolation: isolate;"><tspan x="0" y="0">u</tspan></text>
          <text transform="translate(311.1398 172.8)" style="font-family: NotoSerifSC-Regular, &apos;Noto Serif SC&apos;; font-size: 18px; isolation: isolate;"><tspan x="0" y="0">s</tspan></text>
          <text transform="translate(319.6498 172.8)" style="font-family: NotoSerifSC-Regular, &apos;Noto Serif SC&apos;; font-size: 18px; isolation: isolate;"><tspan x="0" y="0">s</tspan></text>
          <text transform="translate(328.1498 172.8)" style="font-family: NotoSerifSC-Regular, &apos;Noto Serif SC&apos;; font-size: 18px; isolation: isolate;"><tspan x="0" y="0">ians</tspan></text>
        </g>
      </g>
      <g style="isolation: isolate;">
        <g style="isolation: isolate;">
          <text transform="translate(426.6998 51.5)" style="font-family: NotoSerifSC-Regular, &apos;Noto Serif SC&apos;; font-size: 18px; isolation: isolate;"><tspan x="0" y="0">P</tspan></text>
          <text transform="translate(438.1998 51.5)" style="font-family: NotoSerifSC-Regular, &apos;Noto Serif SC&apos;; font-size: 18px; isolation: isolate; letter-spacing: -.019em;"><tspan x="0" y="0">r</tspan></text>
          <text transform="translate(446.1798 51.5)" style="font-family: NotoSerifSC-Regular, &apos;Noto Serif SC&apos;; font-size: 18px; isolation: isolate;"><tspan x="0" y="0">oje</tspan></text>
          <text transform="translate(472.3498 51.5)" style="font-family: NotoSerifSC-Regular, &apos;Noto Serif SC&apos;; font-size: 18px; isolation: isolate;"><tspan x="0" y="0">c</tspan></text>
          <text transform="translate(482.0098 51.5)" style="font-family: NotoSerifSC-Regular, &apos;Noto Serif SC&apos;; font-size: 18px; isolation: isolate;"><tspan x="0" y="0">tion</tspan></text>
        </g>
      </g>
      <g style="isolation: isolate;">
        <g style="isolation: isolate;">
          <text transform="translate(433.0998 162.9)" style="font-family: NotoSerifSC-Regular, &apos;Noto Serif SC&apos;; font-size: 18px; isolation: isolate; letter-spacing: -.019em;"><tspan x="0" y="0">A</tspan></text>
          <text transform="translate(445.7398 162.9)" style="font-family: NotoSerifSC-Regular, &apos;Noto Serif SC&apos;; font-size: 18px; isolation: isolate;"><tspan x="0" y="0">d</tspan></text>
          <text transform="translate(456.9698 162.9)" style="font-family: NotoSerifSC-Regular, &apos;Noto Serif SC&apos;; font-size: 18px; isolation: isolate; letter-spacing: -.019em;"><tspan x="0" y="0">a</tspan></text>
          <text transform="translate(466.7098 162.9)" style="font-family: NotoSerifSC-Regular, &apos;Noto Serif SC&apos;; font-size: 18px; isolation: isolate;"><tspan x="0" y="0">p</tspan></text>
          <text transform="translate(478.1498 162.9)" style="font-family: NotoSerifSC-Regular, &apos;Noto Serif SC&apos;; font-size: 18px; isolation: isolate;"><tspan x="0" y="0">t</tspan></text>
          <text transform="translate(484.7598 162.9)" style="font-family: NotoSerifSC-Regular, &apos;Noto Serif SC&apos;; font-size: 18px; isolation: isolate;"><tspan x="0" y="0">i</tspan></text>
          <text transform="translate(490.5598 162.9)" style="font-family: NotoSerifSC-Regular, &apos;Noto Serif SC&apos;; font-size: 18px; isolation: isolate; letter-spacing: -.019em;"><tspan x="0" y="0">v</tspan></text>
          <text transform="translate(500.0998 162.9)" style="font-family: NotoSerifSC-Regular, &apos;Noto Serif SC&apos;; font-size: 18px; isolation: isolate;"><tspan x="0" y="0">e</tspan></text>
        </g>
      </g>
      <g style="isolation: isolate;">
        <g style="isolation: isolate;">
          <text transform="translate(403.0998 184.5)" style="font-family: NotoSerifSC-Regular, &apos;Noto Serif SC&apos;; font-size: 18px; isolation: isolate;"><tspan x="0" y="0">Den</tspan></text>
          <text transform="translate(438.6998 184.5)" style="font-family: NotoSerifSC-Regular, &apos;Noto Serif SC&apos;; font-size: 18px; isolation: isolate;"><tspan x="0" y="0">s</tspan></text>
          <text transform="translate(447.1998 184.5)" style="font-family: NotoSerifSC-Regular, &apos;Noto Serif SC&apos;; font-size: 18px; isolation: isolate;"><tspan x="0" y="0">i</tspan></text>
          <text transform="translate(453.1798 184.5)" style="font-family: NotoSerifSC-Regular, &apos;Noto Serif SC&apos;; font-size: 18px; isolation: isolate;"><tspan x="0" y="0">t</tspan></text>
          <text transform="translate(459.7998 184.5)" style="font-family: NotoSerifSC-Regular, &apos;Noto Serif SC&apos;; font-size: 18px; isolation: isolate;"><tspan x="0" y="0">y Co</tspan></text>
          <text transform="translate(497.5098 184.5)" style="font-family: NotoSerifSC-Regular, &apos;Noto Serif SC&apos;; font-size: 18px; isolation: isolate;"><tspan x="0" y="0">n</tspan></text>
          <text transform="translate(509.3898 184.5)" style="font-family: NotoSerifSC-Regular, &apos;Noto Serif SC&apos;; font-size: 18px; isolation: isolate;"><tspan x="0" y="0">t</tspan></text>
          <text transform="translate(515.9898 184.5)" style="font-family: NotoSerifSC-Regular, &apos;Noto Serif SC&apos;; font-size: 18px; isolation: isolate; letter-spacing: -.019em;"><tspan x="0" y="0">r</tspan></text>
          <text transform="translate(523.9698 184.5)" style="font-family: NotoSerifSC-Regular, &apos;Noto Serif SC&apos;; font-size: 18px; isolation: isolate;"><tspan x="0" y="0">o</tspan></text>
          <text transform="translate(534.6598 184.5)" style="font-family: NotoSerifSC-Regular, &apos;Noto Serif SC&apos;; font-size: 18px; isolation: isolate;"><tspan x="0" y="0">l</tspan></text>
        </g>
      </g>
      <g style="isolation: isolate;">
        <g style="isolation: isolate;">
          <text transform="translate(597.4998 108.2)" style="font-family: NotoSerifSC-Regular, &apos;Noto Serif SC&apos;; font-size: 18px; isolation: isolate;"><tspan x="0" y="0">Di</tspan></text>
          <text transform="translate(617.3398 108.2)" style="font-family: NotoSerifSC-Regular, &apos;Noto Serif SC&apos;; font-size: 18px; isolation: isolate; letter-spacing: -.019em;"><tspan x="0" y="0">ff</tspan></text>
          <text transform="translate(630.0398 108.2)" style="font-family: NotoSerifSC-Regular, &apos;Noto Serif SC&apos;; font-size: 18px; isolation: isolate;"><tspan x="0" y="0">e</tspan></text>
          <text transform="translate(639.8898 108.2)" style="font-family: NotoSerifSC-Regular, &apos;Noto Serif SC&apos;; font-size: 18px; isolation: isolate; letter-spacing: -.019em;"><tspan x="0" y="0">r</tspan></text>
          <text transform="translate(647.8598 108.2)" style="font-family: NotoSerifSC-Regular, &apos;Noto Serif SC&apos;; font-size: 18px; isolation: isolate;"><tspan x="0" y="0">e</tspan></text>
          <text transform="translate(657.7098 108.2)" style="font-family: NotoSerifSC-Regular, &apos;Noto Serif SC&apos;; font-size: 18px; isolation: isolate;"><tspan x="0" y="0">n</tspan></text>
          <text transform="translate(669.5898 108.2)" style="font-family: NotoSerifSC-Regular, &apos;Noto Serif SC&apos;; font-size: 18px; isolation: isolate;"><tspan x="0" y="0">tia</tspan></text>
          <text transform="translate(692.1998 108.2)" style="font-family: NotoSerifSC-Regular, &apos;Noto Serif SC&apos;; font-size: 18px; isolation: isolate;"><tspan x="0" y="0">b</tspan></text>
          <text transform="translate(703.6398 108.2)" style="font-family: NotoSerifSC-Regular, &apos;Noto Serif SC&apos;; font-size: 18px; isolation: isolate;"><tspan x="0" y="0">le</tspan></text>
        </g>
      </g>
      <g style="isolation: isolate;">
        <g style="isolation: isolate;">
          <text transform="translate(597.4998 129.8)" style="font-family: NotoSerifSC-Regular, &apos;Noto Serif SC&apos;; font-size: 18px; isolation: isolate;"><tspan x="0" y="0">T</tspan></text>
          <text transform="translate(609.3098 129.8)" style="font-family: NotoSerifSC-Regular, &apos;Noto Serif SC&apos;; font-size: 18px; isolation: isolate;"><tspan x="0" y="0">ile </tspan></text>
          <text transform="translate(635.7498 129.8)" style="font-family: NotoSerifSC-Regular, &apos;Noto Serif SC&apos;; font-size: 18px; isolation: isolate;"><tspan x="0" y="0">R</tspan></text>
          <text transform="translate(648.5998 129.8)" style="font-family: NotoSerifSC-Regular, &apos;Noto Serif SC&apos;; font-size: 18px; isolation: isolate;"><tspan x="0" y="0">as</tspan></text>
          <text transform="translate(667.1398 129.8)" style="font-family: NotoSerifSC-Regular, &apos;Noto Serif SC&apos;; font-size: 18px; isolation: isolate;"><tspan x="0" y="0">t</tspan></text>
          <text transform="translate(673.7298 129.8)" style="font-family: NotoSerifSC-Regular, &apos;Noto Serif SC&apos;; font-size: 18px; isolation: isolate;"><tspan x="0" y="0">erizer</tspan></text>
        </g>
      </g>
      <g style="isolation: isolate;">
        <g style="isolation: isolate;">
          <text transform="translate(779.7998 116.8)" style="font-family: NotoSerifSC-Regular, &apos;Noto Serif SC&apos;; font-size: 18px; isolation: isolate;"><tspan x="0" y="0">I</tspan></text>
          <text transform="translate(787.0898 116.8)" style="font-family: NotoSerifSC-Regular, &apos;Noto Serif SC&apos;; font-size: 18px; isolation: isolate;"><tspan x="0" y="0">m</tspan></text>
          <text transform="translate(804.5998 116.8)" style="font-family: NotoSerifSC-Regular, &apos;Noto Serif SC&apos;; font-size: 18px; isolation: isolate;"><tspan x="0" y="0">a</tspan></text>
          <text transform="translate(814.5598 116.8)" style="font-family: NotoSerifSC-Regular, &apos;Noto Serif SC&apos;; font-size: 18px; isolation: isolate;"><tspan x="0" y="0">g</tspan></text>
          <text transform="translate(824.6198 116.8)" style="font-family: NotoSerifSC-Regular, &apos;Noto Serif SC&apos;; font-size: 18px; isolation: isolate;"><tspan x="0" y="0">e</tspan></text>
        </g>
      </g>
      <g style="isolation: isolate;">
        <g style="isolation: isolate;">
          <text transform="translate(283.8998 32.3)" style="font-family: NotoSerifSC-Regular, &apos;Noto Serif SC&apos;; font-size: 18px; isolation: isolate;"><tspan x="0" y="0">Came</tspan></text>
          <text transform="translate(333.7398 32.3)" style="font-family: NotoSerifSC-Regular, &apos;Noto Serif SC&apos;; font-size: 18px; isolation: isolate; letter-spacing: -.009em;"><tspan x="0" y="0">r</tspan></text>
          <text transform="translate(341.8098 32.3)" style="font-family: NotoSerifSC-Regular, &apos;Noto Serif SC&apos;; font-size: 18px; isolation: isolate;"><tspan x="0" y="0">a</tspan></text>
        </g>
      </g>
      <g style="isolation: isolate;">
        <g style="isolation: isolate;">
          <text transform="translate(10.1998 19.6)" style="font-family: NotoSerifSC-Regular, &apos;Noto Serif SC&apos;; font-size: 18px; isolation: isolate;"><tspan x="0" y="0">O</tspan></text>
          <text transform="translate(24.0098 19.6)" style="font-family: NotoSerifSC-Regular, &apos;Noto Serif SC&apos;; font-size: 18px; isolation: isolate;"><tspan x="0" y="0">p</tspan></text>
          <text transform="translate(35.5098 19.6)" style="font-family: NotoSerifSC-Regular, &apos;Noto Serif SC&apos;; font-size: 18px; isolation: isolate;"><tspan x="0" y="0">e</tspan></text>
          <text transform="translate(45.3498 19.6)" style="font-family: NotoSerifSC-Regular, &apos;Noto Serif SC&apos;; font-size: 18px; isolation: isolate; letter-spacing: -.009em;"><tspan x="0" y="0">r</tspan></text>
          <text transform="translate(53.4198 19.6)" style="font-family: NotoSerifSC-Regular, &apos;Noto Serif SC&apos;; font-size: 18px; isolation: isolate;"><tspan x="0" y="0">ation </tspan></text>
          <text transform="translate(103.2598 19.6)" style="font-family: NotoSerifSC-Regular, &apos;Noto Serif SC&apos;; font-size: 18px; isolation: isolate;"><tspan x="0" y="0">F</tspan></text>
          <text transform="translate(114.4398 19.6)" style="font-family: NotoSerifSC-Regular, &apos;Noto Serif SC&apos;; font-size: 18px; isolation: isolate;"><tspan x="0" y="0">l</tspan></text>
          <text transform="translate(120.4498 19.6)" style="font-family: NotoSerifSC-Regular, &apos;Noto Serif SC&apos;; font-size: 18px; isolation: isolate;"><tspan x="0" y="0">o</tspan></text>
          <text transform="translate(131.1598 19.6)" style="font-family: NotoSerifSC-Regular, &apos;Noto Serif SC&apos;; font-size: 18px; isolation: isolate;"><tspan x="0" y="0">w</tspan></text>
        </g>
      </g>
      <g style="isolation: isolate;">
        <g style="isolation: isolate;">
          <text transform="translate(15.6998 42.5)" style="font-family: NotoSerifSC-Regular, &apos;Noto Serif SC&apos;; font-size: 18px; isolation: isolate;"><tspan x="0" y="0">G</tspan></text>
          <text transform="translate(29.0398 42.5)" style="font-family: NotoSerifSC-Regular, &apos;Noto Serif SC&apos;; font-size: 18px; isolation: isolate; letter-spacing: -.009em;"><tspan x="0" y="0">r</tspan></text>
          <text transform="translate(37.0998 42.5)" style="font-family: NotoSerifSC-Regular, &apos;Noto Serif SC&apos;; font-size: 18px; isolation: isolate;"><tspan x="0" y="0">adie</tspan></text>
          <text transform="translate(74.2698 42.5)" style="font-family: NotoSerifSC-Regular, &apos;Noto Serif SC&apos;; font-size: 18px; isolation: isolate;"><tspan x="0" y="0">n</tspan></text>
          <text transform="translate(86.1498 42.5)" style="font-family: NotoSerifSC-Regular, &apos;Noto Serif SC&apos;; font-size: 18px; isolation: isolate;"><tspan x="0" y="0">t </tspan></text>
          <text transform="translate(97.3698 42.5)" style="font-family: NotoSerifSC-Regular, &apos;Noto Serif SC&apos;; font-size: 18px; isolation: isolate;"><tspan x="0" y="0">F</tspan></text>
          <text transform="translate(108.5398 42.5)" style="font-family: NotoSerifSC-Regular, &apos;Noto Serif SC&apos;; font-size: 18px; isolation: isolate;"><tspan x="0" y="0">l</tspan></text>
          <text transform="translate(114.5598 42.5)" style="font-family: NotoSerifSC-Regular, &apos;Noto Serif SC&apos;; font-size: 18px; isolation: isolate;"><tspan x="0" y="0">o</tspan></text>
          <text transform="translate(125.2698 42.5)" style="font-family: NotoSerifSC-Regular, &apos;Noto Serif SC&apos;; font-size: 18px; isolation: isolate;"><tspan x="0" y="0">w</tspan></text>
        </g>
      </g>
    </g>
  </g>
</svg>