<?xml version="1.0" encoding="UTF-8"?>
<svg id="_layer_1" data-name="layer_1" xmlns="http://www.w3.org/2000/svg" viewBox="0 0 863.7 216.3853">
  <text transform="translate(113.9812 15.8398)" style="font-family: NotoSerifSC-ExtraLight, &apos;Noto Serif SC&apos;; font-size: 18px; font-weight: 200;"><tspan x="0" y="0">小规模专家知识</tspan><tspan x="9.4141" y="21.6001" style="letter-spacing: -.023em;">（</tspan><tspan x="27" y="21.6001">理性主</tspan><tspan x="81" y="21.6001" style="letter-spacing: -.023em;">义</tspan><tspan x="98.5859" y="21.6001" style="letter-spacing: -.477em;">）</tspan><tspan x="-55.3135" y="43.2002">20世纪50年代—20世纪90年代</tspan></text>
  <text transform="translate(326.5991 171.0249)" style="font-family: NotoSerifSC-ExtraLight, &apos;Noto Serif SC&apos;; font-size: 18px; font-weight: 200;"><tspan x="0" y="0">大规模语料库统计模型</tspan><tspan x="36.4141" y="21.6001" style="letter-spacing: -.023em;">（</tspan><tspan x="54" y="21.6001">经验主</tspan><tspan x="108" y="21.6001" style="letter-spacing: -.023em;">义</tspan><tspan x="125.5859" y="21.6001" style="letter-spacing: -.477em;">）</tspan><tspan x="-9.7017" y="43.2002">20世纪50年代—21世纪初</tspan></text>
  <text transform="translate(510.5938 15.8401)" style="font-family: NotoSerifSC-ExtraLight, &apos;Noto Serif SC&apos;; font-size: 18px; font-weight: 200;"><tspan x="0" y="0">大规模语料库深度学习</tspan><tspan x="36.4141" y="21.6001" style="letter-spacing: -.023em;">（</tspan><tspan x="54" y="21.6001">经验主</tspan><tspan x="108" y="21.6001" style="letter-spacing: -.023em;">义</tspan><tspan x="125.5859" y="21.6001" style="letter-spacing: -.477em;">）</tspan><tspan x="30.5283" y="43.2002">2010年-2017年</tspan></text>
  <text transform="translate(639.4346 171.0248)" style="font-family: NotoSerifSC-ExtraLight, &apos;Noto Serif SC&apos;; font-size: 18px; font-weight: 200;"><tspan x="0" y="0">大规模预训练语言模型</tspan><tspan x="36.4141" y="21.6001" style="letter-spacing: -.023em;">（</tspan><tspan x="54" y="21.6001">经验主</tspan><tspan x="108" y="21.6001" style="letter-spacing: -.023em;">义</tspan><tspan x="125.5859" y="21.6001" style="letter-spacing: -.477em;">）</tspan><tspan x="43.7764" y="43.2002">2018年至今</tspan></text>
  <g style="opacity: .2;">
    <polygon points="340.075 105.1447 74.9321 105.1447 44.2655 87.6844 309.4083 87.6844 340.075 105.1447"/>
    <polygon points="559.1226 105.1447 349.2178 105.1447 314.9321 87.6844 524.8369 87.6844 559.1226 105.1447"/>
    <polygon points="681.9797 105.1447 568.2655 105.1447 532.5829 87.6844 646.2972 87.6844 681.9797 105.1447"/>
    <polygon points="804.8369 105.1447 691.1226 105.1447 653.5988 87.6844 767.3131 87.6844 804.8369 105.1447"/>
    <polygon points="340.075 105.1447 74.9321 105.1447 44.2655 122.605 309.4083 122.605 340.075 105.1447"/>
    <polygon points="559.1226 105.1447 349.2178 105.1447 314.9321 122.605 524.8369 122.605 559.1226 105.1447"/>
    <polygon points="681.9797 105.1447 568.2655 105.1447 532.5829 122.605 646.2972 122.605 681.9797 105.1447"/>
    <polygon points="804.8369 105.1447 691.1226 105.1447 653.5988 122.605 767.3131 122.605 804.8369 105.1447"/>
  </g>
  <g style="opacity: .2;">
    <line x1="178.3678" y1="71.0495" x2="178.3678" y2="87.6844" style="fill: none; stroke: #000; stroke-miterlimit: 10;"/>
    <circle cx="178.3678" cy="71.0495" r="2.2857"/>
  </g>
  <g style="opacity: .2;">
    <line x1="424.5512" y1="139.2399" x2="424.5512" y2="122.605" style="fill: none; stroke: #000; stroke-miterlimit: 10;"/>
    <circle cx="424.5512" cy="139.2399" r="2.2857"/>
  </g>
  <g style="opacity: .2;">
    <line x1="595.4254" y1="71.0495" x2="595.4254" y2="87.6844" style="fill: none; stroke: #000; stroke-miterlimit: 10;"/>
    <circle cx="595.4254" cy="71.0495" r="2.2857"/>
  </g>
  <g style="opacity: .2;">
    <line x1="729.2178" y1="139.2399" x2="729.2178" y2="122.605" style="fill: none; stroke: #000; stroke-miterlimit: 10;"/>
    <circle cx="729.2178" cy="139.2399" r="2.2857"/>
  </g>
</svg>