<?xml version="1.0" encoding="UTF-8"?>
<svg id="_图层_1" data-name="图层_1" xmlns="http://www.w3.org/2000/svg" viewBox="0 0 64 64">
  <g id="SVGRepo_iconCarrier">
    <path d="M5.3333,8c0,1.4728,1.1939,2.6667,2.6667,2.6667h48c1.4728,0,2.6667-1.1939,2.6667-2.6667s-1.1939-2.6667-2.6667-2.6667H8c-1.4728,0-2.6667,1.1939-2.6667,2.6667ZM8,26.6667c-1.4728,0-2.6667-1.1939-2.6667-2.6667s1.1939-2.6667,2.6667-2.6667h32c1.4728,0,2.6667,1.1939,2.6667,2.6667s-1.1939,2.6667-2.6667,2.6667H8ZM58.6667,40c0,1.4728-1.1939,2.6667-2.6667,2.6667H8c-1.4728,0-2.6667-1.1939-2.6667-2.6667s1.1939-2.6667,2.6667-2.6667h48c1.4728,0,2.6667,1.1939,2.6667,2.6667ZM5.3333,56c0-1.4728,1.1939-2.6667,2.6667-2.6667h32c1.4728,0,2.6667,1.1939,2.6667,2.6667s-1.1939,2.6667-2.6667,2.6667H8c-1.4728,0-2.6667-1.1939-2.6667-2.6667Z"/>
  </g>
</svg>