<?xml version="1.0" encoding="UTF-8"?>
<svg id="_layer_1" xmlns="http://www.w3.org/2000/svg" viewBox="0 0 340.8095 184.1746">
  <g style="isolation: isolate;">
    <text transform="translate(62.4053 37.6907)" style="font-family: NotoSerifSC-ExtraLight, &apos;Noto Serif SC&apos;; font-size: 18px; font-weight: 200; isolation: isolate;"><tspan x="0" y="0">数据</tspan></text>
    <text transform="translate(98.4053 37.6907)" style="font-family: NotoSerifSC-ExtraLight, &apos;Noto Serif SC&apos;; font-size: 18px; font-weight: 200; isolation: isolate; letter-spacing: -.477em;"><tspan x="0" y="0">库</tspan></text>
    <text transform="translate(99.2335 37.6907)" style="font-family: NotoSerifSC-ExtraLight, &apos;Noto Serif SC&apos;; font-size: 18px; font-weight: 200; isolation: isolate; letter-spacing: -.046em;"><tspan x="0" y="0">（</tspan></text>
    <text transform="translate(125.4053 37.6907)" style="font-family: NotoSerifSC-ExtraLight, &apos;Noto Serif SC&apos;; font-size: 18px; font-weight: 200; isolation: isolate;"><tspan x="0" y="0">有的系统称为目</tspan></text>
    <text transform="translate(251.4053 37.6907)" style="font-family: NotoSerifSC-ExtraLight, &apos;Noto Serif SC&apos;; font-size: 18px; font-weight: 200; isolation: isolate; letter-spacing: -.023em;"><tspan x="0" y="0">录</tspan></text>
    <text transform="translate(268.5776 37.6907)" style="font-family: NotoSerifSC-ExtraLight, &apos;Noto Serif SC&apos;; font-size: 18px; font-weight: 200; isolation: isolate; letter-spacing: -.954em;"><tspan x="0" y="0">）</tspan></text>
  </g>
  <g style="isolation: isolate;">
    <text transform="translate(152.4046 99.108)" style="font-family: NotoSerifSC-ExtraLight, &apos;Noto Serif SC&apos;; font-size: 18px; font-weight: 200; isolation: isolate;"><tspan x="0" y="0">模式</tspan></text>
  </g>
  <g style="isolation: isolate;">
    <text transform="translate(93.905 160.526)" style="font-family: NotoSerifSC-ExtraLight, &apos;Noto Serif SC&apos;; font-size: 18px; font-weight: 200; isolation: isolate;"><tspan x="0" y="0">表以及视</tspan></text>
    <text transform="translate(165.905 160.526)" style="font-family: NotoSerifSC-ExtraLight, &apos;Noto Serif SC&apos;; font-size: 18px; font-weight: 200; isolation: isolate; letter-spacing: -.018em;"><tspan x="0" y="0">图</tspan></text>
    <text transform="translate(183.2214 160.526)" style="font-family: NotoSerifSC-ExtraLight, &apos;Noto Serif SC&apos;; font-size: 18px; font-weight: 200; isolation: isolate; letter-spacing: -.962em;"><tspan x="0" y="0">、</tspan></text>
    <text transform="translate(192.905 160.526)" style="font-family: NotoSerifSC-ExtraLight, &apos;Noto Serif SC&apos;; font-size: 18px; font-weight: 200; isolation: isolate;"><tspan x="0" y="0">索引等</tspan></text>
  </g>
  <polygon points="170.4048 80.1197 159.6429 69.3578 163.2619 69.3578 163.2619 45.7388 170.4048 45.7388 177.5477 45.7388 177.5477 69.3578 181.1667 69.3578 170.4048 80.1197" style="fill: none; stroke: #000; stroke-miterlimit: 10;"/>
  <polygon points="170.4048 141.5372 159.6429 130.7753 163.2619 130.7753 163.2619 107.1562 170.4048 107.1562 177.5477 107.1562 177.5477 130.7753 181.1667 130.7753 170.4048 141.5372" style="fill: none; stroke: #000; stroke-miterlimit: 10;"/>
  <rect x=".5" y=".5" width="339.8095" height="183.1746" style="fill: none; stroke: #000; stroke-miterlimit: 10;"/>
</svg>