<?xml version="1.0" encoding="UTF-8"?>
<svg id="_layer_1" xmlns="http://www.w3.org/2000/svg" viewBox="0 0 545.6296 318.5327">
  <g>
    <rect x="149.2813" y=".5" width="98.2857" height="35.3651" style="fill: none; stroke: #000; stroke-miterlimit: 10;"/>
    <g style="isolation: isolate;">
      <text transform="translate(181.1535 25.4049)" style="font-family: NotoSerifSC-ExtraLight, &apos;Noto Serif SC&apos;; font-size: 18px; font-weight: 200; isolation: isolate; letter-spacing: .006em;"><tspan x="0" y="0">S</tspan></text>
      <text transform="translate(191.2512 25.4049)" style="font-family: NotoSerifSC-ExtraLight, &apos;Noto Serif SC&apos;; font-size: 18px; font-weight: 200; isolation: isolate; letter-spacing: -.018em;"><tspan x="0" y="0">Q</tspan></text>
      <text transform="translate(204.571 25.4049)" style="font-family: NotoSerifSC-ExtraLight, &apos;Noto Serif SC&apos;; font-size: 18px; font-weight: 200; isolation: isolate;"><tspan x="0" y="0">L</tspan></text>
    </g>
  </g>
  <g>
    <rect x="149.2813" y="94.1919" width="98.2857" height="35.3651" style="fill: none; stroke: #000; stroke-miterlimit: 10;"/>
    <g style="isolation: isolate;">
      <text transform="translate(175.6183 119.0968)" style="font-family: NotoSerifSC-ExtraLight, &apos;Noto Serif SC&apos;; font-size: 18px; font-weight: 200; isolation: isolate;"><tspan x="0" y="0">视图1</tspan></text>
    </g>
  </g>
  <g>
    <rect x="149.2813" y="187.8842" width="98.2857" height="35.3651" style="fill: none; stroke: #000; stroke-miterlimit: 10;"/>
    <g style="isolation: isolate;">
      <text transform="translate(166.6183 212.7891)" style="font-family: NotoSerifSC-ExtraLight, &apos;Noto Serif SC&apos;; font-size: 18px; font-weight: 200; isolation: isolate;"><tspan x="0" y="0">基本表2</tspan></text>
    </g>
  </g>
  <g>
    <rect x="149.2813" y="281.576" width="98.2857" height="35.3651" style="fill: none; stroke: #000; stroke-miterlimit: 10;"/>
    <g style="isolation: isolate;">
      <text transform="translate(157.6183 306.4808)" style="font-family: NotoSerifSC-ExtraLight, &apos;Noto Serif SC&apos;; font-size: 18px; font-weight: 200; isolation: isolate;"><tspan x="0" y="0">存储文件1</tspan></text>
    </g>
  </g>
  <g>
    <rect x="375.1956" y="94.5745" width="98.2857" height="35.3651" style="fill: none; stroke: #000; stroke-miterlimit: 10;"/>
    <g style="isolation: isolate;">
      <text transform="translate(401.5326 119.4794)" style="font-family: NotoSerifSC-ExtraLight, &apos;Noto Serif SC&apos;; font-size: 18px; font-weight: 200; isolation: isolate;"><tspan x="0" y="0">视图2</tspan></text>
    </g>
  </g>
  <g>
    <rect x=".5" y="187.8842" width="98.2857" height="35.3651" style="fill: none; stroke: #000; stroke-miterlimit: 10;"/>
    <g style="isolation: isolate;">
      <text transform="translate(17.837 212.7891)" style="font-family: NotoSerifSC-ExtraLight, &apos;Noto Serif SC&apos;; font-size: 18px; font-weight: 200; isolation: isolate;"><tspan x="0" y="0">基本表1</tspan></text>
    </g>
  </g>
  <g>
    <rect x="298.0626" y="187.8842" width="98.2857" height="35.3651" style="fill: none; stroke: #000; stroke-miterlimit: 10;"/>
    <g style="isolation: isolate;">
      <text transform="translate(315.3996 212.7891)" style="font-family: NotoSerifSC-ExtraLight, &apos;Noto Serif SC&apos;; font-size: 18px; font-weight: 200; isolation: isolate;"><tspan x="0" y="0">基本表3</tspan></text>
    </g>
  </g>
  <g>
    <rect x="446.8439" y="187.8842" width="98.2857" height="35.3651" style="fill: none; stroke: #000; stroke-miterlimit: 10;"/>
    <g style="isolation: isolate;">
      <text transform="translate(464.181 212.7891)" style="font-family: NotoSerifSC-ExtraLight, &apos;Noto Serif SC&apos;; font-size: 18px; font-weight: 200; isolation: isolate;"><tspan x="0" y="0">基本表4</tspan></text>
    </g>
  </g>
  <g>
    <rect x="446.8439" y="281.5759" width="98.2857" height="35.3651" style="fill: none; stroke: #000; stroke-miterlimit: 10;"/>
    <g style="isolation: isolate;">
      <text transform="translate(455.181 306.4808)" style="font-family: NotoSerifSC-ExtraLight, &apos;Noto Serif SC&apos;; font-size: 18px; font-weight: 200; isolation: isolate;"><tspan x="0" y="0">存储文件2</tspan></text>
    </g>
  </g>
  <g>
    <line x1="198.4241" y1="41.8348" x2="198.4241" y2="88.2222" style="fill: none; stroke: #000; stroke-miterlimit: 10;"/>
    <polygon points="194.721 44.6434 198.4241 43.0701 202.1272 44.6434 198.4241 35.8651 194.721 44.6434"/>
    <polygon points="194.721 85.4136 198.4241 86.9869 202.1272 85.4136 198.4241 94.1919 194.721 85.4136"/>
  </g>
  <g>
    <line x1="253.2349" y1="37.7394" x2="419.4325" y2="92.7001" style="fill: none; stroke: #000; stroke-miterlimit: 10;"/>
    <polygon points="254.7387 42.1371 254.4077 38.1272 257.0641 35.1053 247.567 35.8651 254.7387 42.1371"/>
    <polygon points="415.6032 95.3342 418.2596 92.3123 417.9286 88.3024 425.1004 94.5745 415.6032 95.3342"/>
  </g>
  <g>
    <line x1="145.9951" y1="40.8489" x2="52.929" y2="181.9923" style="fill: none; stroke: #000; stroke-miterlimit: 10;"/>
    <polygon points="141.3574 41.1552 145.3151 41.8802 147.5406 45.2321 149.2813 35.8651 141.3574 41.1552"/>
    <polygon points="51.3835 177.6091 53.6091 180.961 57.5667 181.6861 49.6428 186.9762 51.3835 177.6091"/>
  </g>
  <g>
    <line x1="198.4241" y1="135.9093" x2="198.4241" y2="182.2967" style="fill: none; stroke: #000; stroke-miterlimit: 10;"/>
    <polygon points="194.721 138.7179 198.4241 137.1446 202.1272 138.7179 198.4241 129.9395 194.721 138.7179"/>
    <polygon points="194.721 179.4881 198.4241 181.0613 202.1272 179.4881 198.4241 188.2664 194.721 179.4881"/>
  </g>
  <g>
    <line x1="198.4241" y1="229.219" x2="198.4241" y2="275.6064" style="fill: none; stroke: #000; stroke-miterlimit: 10;"/>
    <polygon points="194.721 232.0276 198.4241 230.4544 202.1272 232.0276 198.4241 223.2493 194.721 232.0276"/>
    <polygon points="194.721 272.7978 198.4241 274.3711 202.1272 272.7978 198.4241 281.5762 194.721 272.7978"/>
  </g>
  <g>
    <line x1="495.9868" y1="229.219" x2="495.9868" y2="275.6064" style="fill: none; stroke: #000; stroke-miterlimit: 10;"/>
    <polygon points="492.2836 232.0276 495.9868 230.4544 499.6899 232.0276 495.9868 223.2493 492.2836 232.0276"/>
    <polygon points="492.2836 272.7978 495.9868 274.3711 499.6899 272.7978 495.9868 281.5762 492.2836 272.7978"/>
  </g>
  <g>
    <line x1="402.1543" y1="134.821" x2="351.4848" y2="184.1041" style="fill: none; stroke: #000; stroke-miterlimit: 10;"/>
    <polygon points="397.559 134.1247 401.2688 135.6823 402.7229 139.4338 406.4337 130.6587 397.559 134.1247"/>
    <polygon points="350.9162 179.4913 352.3704 183.2428 356.0801 184.8005 347.2055 188.2664 350.9162 179.4913"/>
  </g>
  <g>
    <line x1="441.0379" y1="134.821" x2="491.7074" y2="184.1041" style="fill: none; stroke: #000; stroke-miterlimit: 10;"/>
    <polygon points="440.4693 139.4338 441.9235 135.6823 445.6332 134.1247 436.7586 130.6587 440.4693 139.4338"/>
    <polygon points="487.1121 184.8005 490.8219 183.2428 492.276 179.4913 495.9868 188.2664 487.1121 184.8005"/>
  </g>
  <g>
    <line x1="342.0573" y1="227.0779" x2="254.3754" y2="278.5538" style="fill: none; stroke: #000; stroke-miterlimit: 10;"/>
    <polygon points="337.7605 225.3063 340.992 227.7033 341.5101 231.6933 347.2055 224.0555 337.7605 225.3063"/>
    <polygon points="254.9227 273.9384 255.4408 277.9284 258.6723 280.3254 249.2273 281.5762 254.9227 273.9384"/>
  </g>
  <g>
    <line x1="54.8129" y1="227.0402" x2="144.1112" y2="278.5913" style="fill: none; stroke: #000; stroke-miterlimit: 10;"/>
    <polygon points="55.3938 231.6515 55.8828 227.6578 59.0967 225.2373 49.6428 224.0555 55.3938 231.6515"/>
    <polygon points="139.8274 280.3942 143.0413 277.9737 143.5303 273.9801 149.2813 281.576 139.8274 280.3942"/>
  </g>
</svg>