<?xml version="1.0" encoding="UTF-8"?>
<svg id="_图层_1" data-name="图层_1" xmlns="http://www.w3.org/2000/svg" viewBox="0 0 786.54 277.54">
  <text transform="translate(21.84 32.25)" style="font-family: NotoSerifSC-Regular, &apos;Noto Serif SC&apos;; font-size: 18px;"><tspan x="0" y="0">用户程序</tspan></text>
  <text transform="translate(21.84 109.68)" style="font-family: NotoSerifSC-Regular, &apos;Noto Serif SC&apos;; font-size: 18px;"><tspan x="0" y="0">监督程序</tspan></text>
  <text transform="translate(30.41 186.56)" style="font-family: NotoSerifSC-Regular, &apos;Noto Serif SC&apos;; font-size: 18px;"><tspan x="0" y="0">I/O操作</tspan></text>
  <polyline points="104.69 25.41 150.09 25.41 150.09 102.84 191.09 102.84 191.09 179.72 338.09 179.72 338.09 102.84 374.09 102.84 374.09 25.41 465.82 25.41 465.82 102.57 497.06 102.57 497.06 179.72 644.09 179.72 644.09 102.57 673.09 102.57 673.09 25.41 752.09 25.41" style="fill: none; stroke: #000; stroke-miterlimit: 10;"/>
  <text transform="translate(108.06 16.29)" style="font-family: NotoSerifSC-Regular, &apos;Noto Serif SC&apos;; font-size: 18px;"><tspan x="0" y="0">I/O中断请求</tspan></text>
  <text transform="translate(156.34 95.29)" style="font-family: NotoSerifSC-Regular, &apos;Noto Serif SC&apos;; font-size: 18px;"><tspan x="0" y="0">启动I/O</tspan></text>
  <text transform="translate(305.06 94.86)" style="font-family: NotoSerifSC-Regular, &apos;Noto Serif SC&apos;; font-size: 18px;"><tspan x="0" y="0">I/O完成</tspan></text>
  <text transform="translate(345.06 122.86)" style="font-family: NotoSerifSC-Regular, &apos;Noto Serif SC&apos;; font-size: 18px;"><tspan x="0" y="0">结束中断</tspan></text>
  <text transform="translate(419.06 15.86)" style="font-family: NotoSerifSC-Regular, &apos;Noto Serif SC&apos;; font-size: 18px;"><tspan x="0" y="0">I/O中断请求</tspan></text>
  <text transform="translate(467.05 96.26)" style="font-family: NotoSerifSC-Regular, &apos;Noto Serif SC&apos;; font-size: 18px;"><tspan x="0" y="0">启动I/O</tspan></text>
  <text transform="translate(602.77 95.83)" style="font-family: NotoSerifSC-Regular, &apos;Noto Serif SC&apos;; font-size: 18px;"><tspan x="0" y="0">I/O完成</tspan></text>
  <text transform="translate(649.77 123.83)" style="font-family: NotoSerifSC-Regular, &apos;Noto Serif SC&apos;; font-size: 18px;"><tspan x="0" y="0">结束中断</tspan></text>
  <g id="arrow">
    <g>
      <line x1="104.69" y1="247.12" x2="758.73" y2="247.12" style="fill: none; stroke: #000; stroke-miterlimit: 10;"/>
      <polygon points="755.92 250.82 757.49 247.12 755.92 243.41 764.7 247.12 755.92 250.82"/>
    </g>
  </g>
  <text transform="translate(143.37 226.24)" style="font-family: NotoSerifSC-Regular, &apos;Noto Serif SC&apos;; font-size: 19px;"><tspan x="0" y="0">t</tspan></text>
  <text transform="translate(150.34 228.56) scale(.58)" style="font-family: NotoSerifSC-Regular, &apos;Noto Serif SC&apos;; font-size: 19px;"><tspan x="0" y="0">1</tspan></text>
  <text transform="translate(184.8 226.24)" style="font-family: NotoSerifSC-Regular, &apos;Noto Serif SC&apos;; font-size: 19px;"><tspan x="0" y="0">t</tspan></text>
  <text transform="translate(191.77 228.56) scale(.58)" style="font-family: NotoSerifSC-Regular, &apos;Noto Serif SC&apos;; font-size: 19px;"><tspan x="0" y="0">2</tspan></text>
  <text transform="translate(332.8 226.24)" style="font-family: NotoSerifSC-Regular, &apos;Noto Serif SC&apos;; font-size: 19px;"><tspan x="0" y="0">t</tspan></text>
  <text transform="translate(339.77 228.56) scale(.58)" style="font-family: NotoSerifSC-Regular, &apos;Noto Serif SC&apos;; font-size: 19px;"><tspan x="0" y="0">3</tspan></text>
  <text transform="translate(368.8 226.24)" style="font-family: NotoSerifSC-Regular, &apos;Noto Serif SC&apos;; font-size: 19px;"><tspan x="0" y="0">t</tspan></text>
  <text transform="translate(375.77 228.56) scale(.58)" style="font-family: NotoSerifSC-Regular, &apos;Noto Serif SC&apos;; font-size: 19px;"><tspan x="0" y="0">4</tspan></text>
  <text transform="translate(460.8 226.24)" style="font-family: NotoSerifSC-Regular, &apos;Noto Serif SC&apos;; font-size: 19px;"><tspan x="0" y="0">t</tspan></text>
  <text transform="translate(467.77 228.56) scale(.58)" style="font-family: NotoSerifSC-Regular, &apos;Noto Serif SC&apos;; font-size: 19px;"><tspan x="0" y="0">5</tspan></text>
  <text transform="translate(492.8 226.24)" style="font-family: NotoSerifSC-Regular, &apos;Noto Serif SC&apos;; font-size: 19px;"><tspan x="0" y="0">t</tspan></text>
  <text transform="translate(499.77 228.56) scale(.58)" style="font-family: NotoSerifSC-Regular, &apos;Noto Serif SC&apos;; font-size: 19px;"><tspan x="0" y="0">6</tspan></text>
  <text transform="translate(638.51 226.24)" style="font-family: NotoSerifSC-Regular, &apos;Noto Serif SC&apos;; font-size: 19px;"><tspan x="0" y="0">t</tspan></text>
  <text transform="translate(645.49 228.56) scale(.58)" style="font-family: NotoSerifSC-Regular, &apos;Noto Serif SC&apos;; font-size: 19px;"><tspan x="0" y="0">7</tspan></text>
  <text transform="translate(666.51 226.24)" style="font-family: NotoSerifSC-Regular, &apos;Noto Serif SC&apos;; font-size: 19px;"><tspan x="0" y="0">t</tspan></text>
  <text transform="translate(673.49 228.56) scale(.58)" style="font-family: NotoSerifSC-Regular, &apos;Noto Serif SC&apos;; font-size: 19px;"><tspan x="0" y="0">8</tspan></text>
  <text transform="translate(756.04 267.79)" style="font-family: NotoSerifSC-Regular, &apos;Noto Serif SC&apos;; font-size: 19px;"><tspan x="0" y="0">t</tspan></text>
</svg>