<?xml version="1.0" encoding="UTF-8"?>
<svg xmlns="http://www.w3.org/2000/svg" version="1.1" viewBox="0 0 863.7 437.1">
  <defs>
    <style>
      .cls-1 {
        opacity: .2;
      }

      .cls-1, .cls-2, .cls-3, .cls-4, .cls-5, .cls-6, .cls-7, .cls-8 {
        isolation: isolate;
      }

      .cls-1, .cls-4, .cls-7 {
        stroke: #000;
        stroke-miterlimit: 10;
      }

      .cls-2 {
        letter-spacing: 0em;
      }

      .cls-2, .cls-3, .cls-5, .cls-6, .cls-8 {
        font-size: 18px;
      }

      .cls-2, .cls-3, .cls-8 {
        font-family: NotoSerifSC-Regular, 'Noto Serif SC';
      }

      .cls-4 {
        opacity: .5;
      }

      .cls-4, .cls-7 {
        fill: none;
      }

      .cls-5 {
        letter-spacing: -.5em;
      }

      .cls-5, .cls-6 {
        font-family: NotoSerifSC-Bold, 'Noto Serif SC';
        font-weight: 700;
      }

      .cls-8 {
        letter-spacing: -.5em;
      }
    </style>
  </defs>
  <!-- Generator: Adobe Illustrator 28.7.1, SVG Export Plug-In . SVG Version: 1.2.0 Build 142)  -->
  <g>
    <g id="_图层_1">
      <polygon class="cls-1" points="383.6 6.6 213.8 428.7 553.5 428.7 383.6 6.6"/>
      <rect class="cls-7" x="356.2" y="42.4" width="293.7" height="68.6" rx="12" ry="12"/>
      <text class="cls-6" transform="translate(369.1 70.9)"><tspan x="0" y="0">应用系</tspan></text>
      <text class="cls-5" transform="translate(423.1 70.9)"><tspan x="0" y="0">统</tspan></text>
      <text class="cls-3" transform="translate(369.9 99.5)"><tspan x="0" y="0">教</tspan></text>
      <text class="cls-2" transform="translate(387.9 99.5)"><tspan x="0" y="0">育</tspan></text>
      <text class="cls-8" transform="translate(405.6 99.5)"><tspan x="0" y="0">、</tspan></text>
      <text class="cls-3" transform="translate(414.9 99.5)"><tspan x="0" y="0">医</tspan></text>
      <text class="cls-2" transform="translate(432.9 99.5)"><tspan x="0" y="0">疗</tspan></text>
      <text class="cls-8" transform="translate(450.6 99.5)"><tspan x="0" y="0">、</tspan></text>
      <text class="cls-3" transform="translate(459.9 99.5)"><tspan x="0" y="0">司</tspan></text>
      <text class="cls-2" transform="translate(477.9 99.5)"><tspan x="0" y="0">法</tspan></text>
      <text class="cls-8" transform="translate(495.6 99.5)"><tspan x="0" y="0">、</tspan></text>
      <text class="cls-3" transform="translate(504.9 99.5)"><tspan x="0" y="0">金</tspan></text>
      <text class="cls-2" transform="translate(522.9 99.5)"><tspan x="0" y="0">融</tspan></text>
      <text class="cls-8" transform="translate(540.6 99.5)"><tspan x="0" y="0">、</tspan></text>
      <text class="cls-3" transform="translate(549.9 99.5)"><tspan x="0" y="0">机器人等</tspan></text>
      <rect class="cls-7" x="356.2" y="122.5" width="293.7" height="92.8" rx="12" ry="12"/>
      <text class="cls-6" transform="translate(369.1 151)"><tspan x="0" y="0">应用任务</tspan></text>
      <text class="cls-3" transform="translate(369.9 179.6)"><tspan x="0" y="0">信息抽</tspan></text>
      <text class="cls-2" transform="translate(423.9 179.6)"><tspan x="0" y="0">取</tspan></text>
      <text class="cls-8" transform="translate(441.6 179.6)"><tspan x="0" y="0">、</tspan></text>
      <text class="cls-3" transform="translate(450.9 179.6)"><tspan x="0" y="0">情感分</tspan></text>
      <text class="cls-2" transform="translate(504.9 179.6)"><tspan x="0" y="0">析</tspan></text>
      <text class="cls-8" transform="translate(522.6 179.6)"><tspan x="0" y="0">、</tspan></text>
      <text class="cls-3" transform="translate(531.9 179.6)"><tspan x="0" y="0">问答系</tspan></text>
      <text class="cls-2" transform="translate(585.9 179.6)"><tspan x="0" y="0">统</tspan></text>
      <text class="cls-8" transform="translate(603.6 179.6)"><tspan x="0" y="0">、</tspan></text>
      <text class="cls-3" transform="translate(369.9 201.2)"><tspan x="0" y="0">机器翻译和对话系统等</tspan></text>
      <rect class="cls-7" x="356.2" y="231.7" width="293.7" height="87.8" rx="12" ry="12"/>
      <text class="cls-6" transform="translate(369.1 260.2)"><tspan x="0" y="0">基础任务</tspan></text>
      <text class="cls-3" transform="translate(369.9 288.8)"><tspan x="0" y="0">分</tspan></text>
      <text class="cls-2" transform="translate(387.9 288.8)"><tspan x="0" y="0">词</tspan></text>
      <text class="cls-8" transform="translate(405.6 288.8)"><tspan x="0" y="0">、</tspan></text>
      <text class="cls-3" transform="translate(414.9 288.8)"><tspan x="0" y="0">词性标</tspan></text>
      <text class="cls-2" transform="translate(468.9 288.8)"><tspan x="0" y="0">注</tspan></text>
      <text class="cls-8" transform="translate(486.6 288.8)"><tspan x="0" y="0">、</tspan></text>
      <text class="cls-3" transform="translate(495.9 288.8)"><tspan x="0" y="0">句法分析和语义</tspan></text>
      <text class="cls-3" transform="translate(369.9 310.4)"><tspan x="0" y="0">分析等</tspan></text>
      <rect class="cls-4" x="356.2" y="335.8" width="293.7" height="68.6" rx="12" ry="12"/>
      <text class="cls-6" transform="translate(369.1 364.3)"><tspan x="0" y="0">资源建设</tspan></text>
      <text class="cls-3" transform="translate(369.9 392.9)"><tspan x="0" y="0">语言学知识库建设和语料资源建设</tspan></text>
    </g>
  </g>
</svg>