<?xml version="1.0" encoding="UTF-8"?>
<svg id="_图层_1" data-name="图层_1" xmlns="http://www.w3.org/2000/svg" viewBox="0 0 863.7 378.1544">
  <g>
    <g>
      <rect x="359.85" y="3.6984" width="144" height="69.931" style="opacity: .2; stroke: #000; stroke-miterlimit: 10;"/>
      <text transform="translate(422.8499 44.2979)" style="font-family: NotoSerifSC-ExtraLight, &apos;Noto Serif SC&apos;; font-size: 18px; font-weight: 200;"><tspan x="0" y="0">知</tspan></text>
    </g>
    <g>
      <rect x="359.85" y="141.3679" width="144" height="69.931" style="opacity: .2; stroke: #000; stroke-miterlimit: 10;"/>
      <text transform="translate(422.8499 181.9674)" style="font-family: NotoSerifSC-ExtraLight, &apos;Noto Serif SC&apos;; font-size: 18px; font-weight: 200;"><tspan x="0" y="0">名</tspan></text>
    </g>
    <g>
      <rect x="139.4661" y="141.3679" width="144" height="69.931" style="opacity: .2; stroke: #000; stroke-miterlimit: 10;"/>
      <text transform="translate(202.466 181.9674)" style="font-family: NotoSerifSC-ExtraLight, &apos;Noto Serif SC&apos;; font-size: 18px; font-weight: 200;"><tspan x="0" y="0">实</tspan></text>
    </g>
    <g>
      <rect x="580.2339" y="141.3679" width="144" height="69.931" style="opacity: .2; stroke: #000; stroke-miterlimit: 10;"/>
      <text transform="translate(643.2338 181.9674)" style="font-family: NotoSerifSC-ExtraLight, &apos;Noto Serif SC&apos;; font-size: 18px; font-weight: 200;"><tspan x="0" y="0">境</tspan></text>
    </g>
    <text transform="translate(449.0502 114.0575)" style="font-family: NotoSerifSC-ExtraLight, &apos;Noto Serif SC&apos;; font-size: 18px; font-weight: 200;"><tspan x="0" y="0">推理</tspan></text>
    <g>
      <polyline points="431.85 74.1975 419.9064 85.9393 426.9524 85.9393 426.9524 107.2851" style="fill: none; stroke: #000; stroke-miterlimit: 10;"/>
      <polyline points="431.85 140.5819 419.9064 128.8401 426.9524 128.8401 426.9524 107.4944 426.9524 106.7545" style="fill: none; stroke: #000; stroke-miterlimit: 10;"/>
      <polyline points="431.277 74.1975 443.2206 85.9393 436.1746 85.9393 436.1746 107.2851" style="fill: none; stroke: #000; stroke-miterlimit: 10;"/>
      <polyline points="431.277 140.5819 443.2206 128.8401 436.1746 128.8401 436.1746 107.4944 436.1746 106.7545" style="fill: none; stroke: #000; stroke-miterlimit: 10;"/>
    </g>
    <g>
      <polyline points="359.1069 178.6654 347.3651 166.7218 347.3651 173.7678 326.0193 173.7678" style="fill: none; stroke: #000; stroke-miterlimit: 10;"/>
      <polyline points="283.7225 178.6654 295.4643 166.7218 295.4643 173.7678 316.81 173.7678 317.5499 173.7678" style="fill: none; stroke: #000; stroke-miterlimit: 10;"/>
      <polyline points="359.1069 178.0924 347.3651 190.036 347.3651 182.99 326.0193 182.99" style="fill: none; stroke: #000; stroke-miterlimit: 10;"/>
      <polyline points="283.7225 178.0924 295.4643 190.036 295.4643 182.99 316.81 182.99 317.5499 182.99" style="fill: none; stroke: #000; stroke-miterlimit: 10;"/>
      <line x1="315.9841" y1="173.7678" x2="330.1746" y2="173.7678" style="fill: none; stroke: #000; stroke-miterlimit: 10;"/>
      <line x1="314.8413" y1="182.99" x2="331.0317" y2="182.99" style="fill: none; stroke: #000; stroke-miterlimit: 10;"/>
    </g>
    <g>
      <polyline points="579.9775 176.6198 568.2357 164.6762 568.2357 171.7222 546.89 171.7222" style="fill: none; stroke: #000; stroke-miterlimit: 10;"/>
      <polyline points="504.5931 176.6198 516.3349 164.6762 516.3349 171.7222 537.6807 171.7222 538.4205 171.7222" style="fill: none; stroke: #000; stroke-miterlimit: 10;"/>
      <polyline points="579.9775 176.0468 568.2357 187.9905 568.2357 180.9444 546.89 180.9444" style="fill: none; stroke: #000; stroke-miterlimit: 10;"/>
      <polyline points="504.5931 176.0468 516.3349 187.9905 516.3349 180.9444 537.6807 180.9444 538.4205 180.9444" style="fill: none; stroke: #000; stroke-miterlimit: 10;"/>
      <line x1="536.8548" y1="171.7222" x2="551.0452" y2="171.7222" style="fill: none; stroke: #000; stroke-miterlimit: 10;"/>
      <line x1="535.7119" y1="180.9444" x2="551.9024" y2="180.9444" style="fill: none; stroke: #000; stroke-miterlimit: 10;"/>
    </g>
    <g>
      <path d="M402.4139,215.6793l16.7481-.1427-4.9823,4.9823,15.0937,15.0937s.134.134.271.2616l15.0937-15.0937-4.9823-4.9823,16.7481.1427" style="fill: none; stroke: #000; stroke-miterlimit: 10;"/>
      <path d="M402.8191,215.2741l-.1427,16.7481,4.9823-4.9823,15.0937,15.0937.5232.5232,6.2643,6.2643s6.5257-6.5259,6.5257-6.5259l15.0937-15.0937,4.9823,4.9823-.1427-16.7481" style="fill: none; stroke: #000; stroke-miterlimit: 10;"/>
    </g>
    <text transform="translate(371.8901 114.0577)" style="font-family: NotoSerifSC-ExtraLight, &apos;Noto Serif SC&apos;; font-size: 18px; font-weight: 200;"><tspan x="0" y="0" style="letter-spacing: -.023em;">（3</tspan><tspan x="26.7842" y="0" style="letter-spacing: -.477em;">）</tspan></text>
    <text transform="translate(299.0229 166.9735)" style="font-family: NotoSerifSC-ExtraLight, &apos;Noto Serif SC&apos;; font-size: 18px; font-weight: 200;"><tspan x="0" y="0" style="letter-spacing: -.023em;">（2</tspan><tspan x="26.7842" y="0" style="letter-spacing: -.477em;">）</tspan></text>
    <text transform="translate(303.4145 205.7082)" style="font-family: NotoSerifSC-ExtraLight, &apos;Noto Serif SC&apos;; font-size: 18px; font-weight: 200;"><tspan x="0" y="0">语义</tspan></text>
    <text transform="translate(519.8934 163.9678)" style="font-family: NotoSerifSC-ExtraLight, &apos;Noto Serif SC&apos;; font-size: 18px; font-weight: 200;"><tspan x="0" y="0" style="letter-spacing: -.023em;">（2</tspan><tspan x="26.7842" y="0" style="letter-spacing: -.477em;">）</tspan></text>
    <text transform="translate(524.2849 202.7024)" style="font-family: NotoSerifSC-ExtraLight, &apos;Noto Serif SC&apos;; font-size: 18px; font-weight: 200;"><tspan x="0" y="0">语用</tspan></text>
    <text transform="translate(391.4584 269.0736)" style="font-family: NotoSerifSC-ExtraLight, &apos;Noto Serif SC&apos;; font-size: 18px; font-weight: 200;"><tspan x="0" y="0" style="letter-spacing: -.023em;">（1</tspan><tspan x="26.7842" y="0" style="letter-spacing: -.477em;">）</tspan><tspan x="36.1978" y="0">形式</tspan></text>
  </g>
  <g>
    <text transform="translate(135.7314 309.3948)" style="font-family: NotoSerifSC-ExtraLight, &apos;Noto Serif SC&apos;; font-size: 18px; font-weight: 200;"><tspan x="0" y="0">名</tspan><tspan x="18" y="0" style="letter-spacing: -.5em;">：</tspan><tspan x="27" y="0">语言符号</tspan><tspan x="0" y="21.6001">实</tspan><tspan x="18" y="21.6001" style="letter-spacing: -.5em;">：</tspan><tspan x="27" y="21.6001">客观事</tspan><tspan x="81" y="21.6001" style="letter-spacing: -.019em;">实</tspan><tspan x="98.6582" y="21.6001" style="letter-spacing: -.481em;">、</tspan><tspan x="107.9995" y="21.6001">主观意见</tspan><tspan x="0" y="43.2002">知</tspan><tspan x="18" y="43.2002" style="letter-spacing: -.5em;">：</tspan><tspan x="27" y="43.2002">知识</tspan><tspan x="0" y="64.7998">境</tspan><tspan x="18" y="64.7998" style="letter-spacing: -.5em;">：</tspan><tspan x="27" y="64.7998">语言所处的环境</tspan></text>
    <text transform="translate(557.9234 309.3947)" style="font-family: NotoSerifSC-ExtraLight, &apos;Noto Serif SC&apos;; font-size: 18px; font-weight: 200;"><tspan x="0" y="0">(1)形式</tspan><tspan x="58.2114" y="0" style="letter-spacing: -.5em;">：</tspan><tspan x="67.2114" y="0">名</tspan><tspan x="0" y="21.6001">(2)语义</tspan><tspan x="58.2114" y="21.6001" style="letter-spacing: -.5em;">：</tspan><tspan x="67.2114" y="21.6001">名+实</tspan><tspan x="0" y="43.2002">(3)推理</tspan><tspan x="58.2114" y="43.2002" style="letter-spacing: -.5em;">：</tspan><tspan x="67.2114" y="43.2002">名+实+知</tspan><tspan x="0" y="64.7998">(4)语用</tspan><tspan x="58.2114" y="64.7998" style="letter-spacing: -.5em;">：</tspan><tspan x="67.2114" y="64.7998">名+实+知+境</tspan></text>
  </g>
</svg>