<?xml version="1.0" encoding="UTF-8"?>
<svg id="_图层_1" xmlns="http://www.w3.org/2000/svg" viewBox="0 0 580.1175 235.7">
  <polygon points="357.3176 73.3 281.9176 73.3 244.2175 116.6 281.9176 159.9 357.3176 159.9 395.0176 116.6 357.3176 73.3" style="fill: none; stroke: #000; stroke-miterlimit: 10;"/>
  <polygon points="357.3176 73.3 281.9176 73.3 244.2175 116.6 281.9176 159.9 357.3176 159.9 395.0176 116.6 357.3176 73.3" style="fill: none; stroke: #000; stroke-miterlimit: 10;"/>
  <g style="isolation: isolate;">
    <g style="isolation: isolate;">
      <text transform="translate(292.6175 111.4)" style="font-family: NotoSerifSC-ExtraLight, &apos;Noto Serif SC&apos;; font-size: 18px; font-weight: 200; isolation: isolate;"><tspan x="0" y="0">数据库</tspan></text>
    </g>
    <g style="isolation: isolate;">
      <text transform="translate(283.6175 133)" style="font-family: NotoSerifSC-ExtraLight, &apos;Noto Serif SC&apos;; font-size: 18px; font-weight: 200; isolation: isolate;"><tspan x="0" y="0">管理系统</tspan></text>
    </g>
  </g>
  <g style="isolation: isolate;">
    <g style="isolation: isolate;">
      <text transform="translate(292.6175 111.4)" style="font-family: NotoSerifSC-Regular, &apos;Noto Serif SC&apos;; font-size: 18px; isolation: isolate;"><tspan x="0" y="0">数据库</tspan></text>
    </g>
    <g style="isolation: isolate;">
      <text transform="translate(283.6175 133)" style="font-family: NotoSerifSC-Regular, &apos;Noto Serif SC&apos;; font-size: 18px; isolation: isolate;"><tspan x="0" y="0">管理系统</tspan></text>
    </g>
  </g>
  <g>
    <rect x="16.5176" y=".5" width="118.5" height="44.2" style="fill: none; stroke: #000; stroke-miterlimit: 10;"/>
    <g style="isolation: isolate;">
      <g style="isolation: isolate;">
        <text transform="translate(35.0176 29.8)" style="font-family: NotoSerifSC-ExtraLight, &apos;Noto Serif SC&apos;; font-size: 18px; font-weight: 200; isolation: isolate;"><tspan x="0" y="0">应用程序1</tspan></text>
      </g>
    </g>
  </g>
  <rect x="16.5176" y=".5" width="118.5" height="44.2" style="fill: none; stroke: #000; stroke-miterlimit: 10;"/>
  <g style="isolation: isolate;">
    <g style="isolation: isolate;">
      <text transform="translate(35.0176 29.8)" style="font-family: NotoSerifSC-Regular, &apos;Noto Serif SC&apos;; font-size: 18px; isolation: isolate;"><tspan x="0" y="0">应用程序1</tspan></text>
    </g>
  </g>
  <g>
    <rect x="16.5176" y="80" width="118.5" height="44.2" style="fill: none; stroke: #000; stroke-miterlimit: 10;"/>
    <g style="isolation: isolate;">
      <g style="isolation: isolate;">
        <text transform="translate(35.0176 109.3)" style="font-family: NotoSerifSC-ExtraLight, &apos;Noto Serif SC&apos;; font-size: 18px; font-weight: 200; isolation: isolate;"><tspan x="0" y="0">应用程序2</tspan></text>
      </g>
    </g>
  </g>
  <rect x="16.5176" y="80" width="118.5" height="44.2" style="fill: none; stroke: #000; stroke-miterlimit: 10;"/>
  <g style="isolation: isolate;">
    <g style="isolation: isolate;">
      <text transform="translate(35.0176 109.3)" style="font-family: NotoSerifSC-Regular, &apos;Noto Serif SC&apos;; font-size: 18px; isolation: isolate;"><tspan x="0" y="0">应用程序2</tspan></text>
    </g>
  </g>
  <g>
    <circle cx="19.2176" cy="197.8" r="7.7" style="fill: none; stroke: #000; stroke-miterlimit: 10;"/>
    <path d="M.3176,235.3l9-7.4c-2.5-19.6,10-22.3,10-22.3l16.7,6.3" style="fill: none; stroke: #000; stroke-miterlimit: 10;"/>
    <line x1="19.2176" y1="205.5" x2="32.7176" y2="216.7" style="fill: none; stroke: #000; stroke-miterlimit: 10;"/>
    <line x1="9.2176" y1="227.8" x2="19.2176" y2="235.3" style="fill: none; stroke: #000; stroke-miterlimit: 10;"/>
    <rect x="35.9176" y="192.6" width="99" height="19.2" style="fill: none; stroke: #000; stroke-miterlimit: 10;"/>
    <polyline points="135.0175 212 126.3176 223.3 27.3176 223.3 36.1176 212" style="fill: none; stroke: #000; stroke-miterlimit: 10;"/>
  </g>
  <g>
    <circle cx="19.2176" cy="197.8" r="7.7" style="fill: none; stroke: #000; stroke-miterlimit: 10;"/>
    <path d="M.3176,235.3l9-7.4c-2.5-19.6,10-22.3,10-22.3l16.7,6.3" style="fill: none; stroke: #000; stroke-miterlimit: 10;"/>
    <line x1="19.2176" y1="205.5" x2="32.7176" y2="216.7" style="fill: none; stroke: #000; stroke-miterlimit: 10;"/>
    <line x1="9.2176" y1="227.8" x2="19.2176" y2="235.3" style="fill: none; stroke: #000; stroke-miterlimit: 10;"/>
    <rect x="35.9176" y="192.6" width="99" height="19.2" style="fill: none; stroke: #000; stroke-miterlimit: 10;"/>
    <polyline points="135.0175 212 126.3176 223.3 27.3176 223.3 36.1176 212" style="fill: none; stroke: #000; stroke-miterlimit: 10;"/>
  </g>
  <g>
    <circle cx="73.3176" cy="166.3" r="1.9"/>
    <circle cx="73.3176" cy="155.3" r="1.9"/>
    <circle cx="73.3176" cy="144.3" r="1.9"/>
  </g>
  <g>
    <circle cx="73.3176" cy="166.3" r="1.9"/>
    <circle cx="73.3176" cy="155.3" r="1.9"/>
    <circle cx="73.3176" cy="144.3" r="1.9"/>
  </g>
  <line x1="135.0175" y1="22.6" x2="262.5176" y2="95.6" style="fill: none; stroke: #000; stroke-miterlimit: 10;"/>
  <line x1="135.0175" y1="22.6" x2="262.5176" y2="95.6" style="fill: none; stroke: #000; stroke-miterlimit: 10;"/>
  <line x1="134.9176" y1="102.1" x2="244.2175" y2="116.6" style="fill: none; stroke: #000; stroke-miterlimit: 10;"/>
  <line x1="134.9176" y1="102.1" x2="244.2175" y2="116.6" style="fill: none; stroke: #000; stroke-miterlimit: 10;"/>
  <line x1="134.9176" y1="197.8" x2="263.9176" y2="139.2" style="fill: none; stroke: #000; stroke-miterlimit: 10;"/>
  <line x1="134.9176" y1="197.8" x2="263.9176" y2="139.2" style="fill: none; stroke: #000; stroke-miterlimit: 10;"/>
  <g>
    <ellipse cx="520.3176" cy="49.7" rx="59.3" ry="23.5" style="fill: none; stroke: #000; stroke-miterlimit: 10;"/>
    <line x1="461.0176" y1="49.7" x2="461.0176" y2="173.2" style="fill: none; stroke: #000; stroke-miterlimit: 10;"/>
    <line x1="579.5176" y1="49.7" x2="579.5176" y2="173.2" style="fill: none; stroke: #000; stroke-miterlimit: 10;"/>
    <g style="isolation: isolate;">
      <g style="isolation: isolate;">
        <g style="isolation: isolate;">
          <g style="isolation: isolate;">
            <text transform="translate(493.3176 57)" style="font-family: NotoSerifSC-ExtraLight, &apos;Noto Serif SC&apos;; font-size: 18px; font-weight: 200; isolation: isolate;"><tspan x="0" y="0">数据库</tspan></text>
          </g>
        </g>
      </g>
    </g>
    <path d="M579.6175,173.2c0,13-26.5,23.5-59.3,23.5s-59.3-10.5-59.3-23.5" style="fill: none; stroke: #000; stroke-miterlimit: 10;"/>
    <rect x="473.7175" y="88.9" width="37.5" height="15.4" style="fill: none; stroke: #000; stroke-miterlimit: 10;"/>
    <rect x="473.7175" y="121.1" width="37.5" height="15.4" style="fill: none; stroke: #000; stroke-miterlimit: 10;"/>
    <rect x="527.0176" y="121.1" width="37.5" height="15.4" style="fill: none; stroke: #000; stroke-miterlimit: 10;"/>
    <rect x="501.6175" y="153.9" width="37.5" height="15.4" style="fill: none; stroke: #000; stroke-miterlimit: 10;"/>
    <g>
      <path d="M492.4176,104.3v10.8" style="fill: none; stroke: #000; stroke-miterlimit: 10;"/>
      <polygon points="488.7175 112.3 492.4176 113.9 496.1175 112.3 492.4176 121.1 488.7175 112.3"/>
    </g>
    <g>
      <path d="M502.4176,136.5c.4,0,3,6.7,4.9,11.7" style="fill: none; stroke: #000; stroke-miterlimit: 10;"/>
      <polygon points="502.9176 147 506.9176 147.1 509.8176 144.3 509.5176 153.9 502.9176 147"/>
    </g>
    <g>
      <line x1="532.1175" y1="136.3" x2="528.4175" y2="148.2" style="fill: none; stroke: #000; stroke-miterlimit: 10;"/>
      <polygon points="525.7176 144.4 528.8176 147 532.8176 146.6 526.6175 153.9 525.7176 144.4"/>
    </g>
  </g>
  <g>
    <ellipse cx="520.3176" cy="49.7" rx="59.3" ry="23.5" style="fill: none; stroke: #000; stroke-miterlimit: 10;"/>
    <line x1="461.0176" y1="49.7" x2="461.0176" y2="173.2" style="fill: none; stroke: #000; stroke-miterlimit: 10;"/>
    <line x1="579.5176" y1="49.7" x2="579.5176" y2="173.2" style="fill: none; stroke: #000; stroke-miterlimit: 10;"/>
    <g style="isolation: isolate;">
      <g style="isolation: isolate;">
        <g style="isolation: isolate;">
          <g style="isolation: isolate;">
            <text transform="translate(493.3176 57)" style="font-family: NotoSerifSC-Regular, &apos;Noto Serif SC&apos;; font-size: 18px; isolation: isolate;"><tspan x="0" y="0">数据库</tspan></text>
          </g>
        </g>
      </g>
    </g>
    <path d="M579.6175,173.2c0,13-26.5,23.5-59.3,23.5s-59.3-10.5-59.3-23.5" style="fill: none; stroke: #000; stroke-miterlimit: 10;"/>
    <rect x="473.7175" y="88.9" width="37.5" height="15.4" style="fill: none; stroke: #000; stroke-miterlimit: 10;"/>
    <rect x="473.7175" y="121.1" width="37.5" height="15.4" style="fill: none; stroke: #000; stroke-miterlimit: 10;"/>
    <rect x="527.0176" y="121.1" width="37.5" height="15.4" style="fill: none; stroke: #000; stroke-miterlimit: 10;"/>
    <rect x="501.6175" y="153.9" width="37.5" height="15.4" style="fill: none; stroke: #000; stroke-miterlimit: 10;"/>
    <g>
      <path d="M492.4176,104.3v10.8" style="fill: none; stroke: #000; stroke-miterlimit: 10;"/>
      <polygon points="488.7175 112.3 492.4176 113.9 496.1175 112.3 492.4176 121.1 488.7175 112.3"/>
    </g>
    <g>
      <path d="M502.4176,136.5c.4,0,3,6.7,4.9,11.7" style="fill: none; stroke: #000; stroke-miterlimit: 10;"/>
      <polygon points="502.9176 147 506.9176 147.1 509.8176 144.3 509.5176 153.9 502.9176 147"/>
    </g>
    <g>
      <line x1="532.1175" y1="136.3" x2="528.4175" y2="148.2" style="fill: none; stroke: #000; stroke-miterlimit: 10;"/>
      <polygon points="525.7176 144.4 528.8176 147 532.8176 146.6 526.6175 153.9 525.7176 144.4"/>
    </g>
  </g>
  <line x1="395.0176" y1="116.6" x2="461.0176" y2="116.6" style="fill: none; stroke: #000; stroke-miterlimit: 10;"/>
  <line x1="395.0176" y1="116.6" x2="461.0176" y2="116.6" style="fill: none; stroke: #000; stroke-miterlimit: 10;"/>
</svg>