<?xml version="1.0" encoding="UTF-8"?>
<svg id="_图层_1" xmlns="http://www.w3.org/2000/svg" viewBox="0 0 456.5 499.1">
  <g>
    <g>
      <rect x=".5" y=".5" width="83.4" height="34.9" style="fill: none; stroke: #000; stroke-miterlimit: 10;"/>
      <g style="isolation: isolate;">
        <g style="isolation: isolate;">
          <g style="isolation: isolate;">
            <text transform="translate(24.2 25.5)" style="font-family: NotoSerifSC-ExtraLight, &apos;Noto Serif SC&apos;; font-size: 18px; font-weight: 200; isolation: isolate;"><tspan x="0" y="0">用户</tspan></text>
          </g>
        </g>
      </g>
    </g>
    <g>
      <rect x="94.7" y=".5" width="83.4" height="34.9" style="fill: none; stroke: #000; stroke-miterlimit: 10;"/>
      <g style="isolation: isolate;">
        <g style="isolation: isolate;">
          <g style="isolation: isolate;">
            <text transform="translate(118.5 25.5)" style="font-family: NotoSerifSC-ExtraLight, &apos;Noto Serif SC&apos;; font-size: 18px; font-weight: 200; isolation: isolate;"><tspan x="0" y="0">用户</tspan></text>
          </g>
        </g>
      </g>
    </g>
    <g style="isolation: isolate;">
      <g style="isolation: isolate;">
        <g style="isolation: isolate;">
          <text transform="translate(198.3 25.5)" style="font-family: NotoSerifSC-ExtraLight, &apos;Noto Serif SC&apos;; font-size: 18px; font-weight: 200; isolation: isolate;"><tspan x="0" y="0">···</tspan></text>
        </g>
      </g>
    </g>
    <g>
      <rect x="238.2" y=".5" width="83.4" height="34.9" style="fill: none; stroke: #000; stroke-miterlimit: 10;"/>
      <g style="isolation: isolate;">
        <g style="isolation: isolate;">
          <g style="isolation: isolate;">
            <text transform="translate(261.9 25.5)" style="font-family: NotoSerifSC-ExtraLight, &apos;Noto Serif SC&apos;; font-size: 18px; font-weight: 200; isolation: isolate;"><tspan x="0" y="0">用户</tspan></text>
          </g>
        </g>
      </g>
    </g>
  </g>
  <rect x=".5" y=".5" width="83.4" height="34.9" style="fill: none; stroke: #000; stroke-miterlimit: 10;"/>
  <g style="isolation: isolate;">
    <g style="isolation: isolate;">
      <g style="isolation: isolate;">
        <text transform="translate(24.2 25.5)" style="font-family: NotoSerifSC-Regular, &apos;Noto Serif SC&apos;; font-size: 18px; isolation: isolate;"><tspan x="0" y="0">用户</tspan></text>
      </g>
    </g>
  </g>
  <rect x="94.7" y=".5" width="83.4" height="34.9" style="fill: none; stroke: #000; stroke-miterlimit: 10;"/>
  <g style="isolation: isolate;">
    <g style="isolation: isolate;">
      <g style="isolation: isolate;">
        <text transform="translate(118.5 25.5)" style="font-family: NotoSerifSC-Regular, &apos;Noto Serif SC&apos;; font-size: 18px; isolation: isolate;"><tspan x="0" y="0">用户</tspan></text>
      </g>
    </g>
  </g>
  <g style="isolation: isolate;">
    <g style="isolation: isolate;">
      <g style="isolation: isolate;">
        <text transform="translate(198.3 25.5)" style="font-family: NotoSerifSC-ExtraLight, &apos;Noto Serif SC&apos;; font-size: 18px; font-weight: 200; isolation: isolate;"><tspan x="0" y="0">···</tspan></text>
      </g>
    </g>
  </g>
  <rect x="238.2" y=".5" width="83.4" height="34.9" style="fill: none; stroke: #000; stroke-miterlimit: 10;"/>
  <g style="isolation: isolate;">
    <g style="isolation: isolate;">
      <g style="isolation: isolate;">
        <text transform="translate(261.9 25.5)" style="font-family: NotoSerifSC-Regular, &apos;Noto Serif SC&apos;; font-size: 18px; isolation: isolate;"><tspan x="0" y="0">用户</tspan></text>
      </g>
    </g>
  </g>
  <g>
    <polygon points="181.5 256.3 90.6 256.3 45.1 278.1 90.6 299.9 181.5 299.9 227 278.1 181.5 256.3" style="fill: none; stroke: #000; stroke-miterlimit: 10;"/>
    <g style="isolation: isolate;">
      <g style="isolation: isolate;">
        <g style="isolation: isolate;">
          <text transform="translate(72.6 285.7)" style="font-family: NotoSerifSC-ExtraLight, &apos;Noto Serif SC&apos;; font-size: 18px; font-weight: 200; isolation: isolate;"><tspan x="0" y="0">数据库管理系统</tspan></text>
        </g>
      </g>
    </g>
  </g>
  <polygon points="181.5 256.3 90.6 256.3 45.1 278.1 90.6 299.9 181.5 299.9 227 278.1 181.5 256.3" style="fill: none; stroke: #000; stroke-miterlimit: 10;"/>
  <g style="isolation: isolate;">
    <g style="isolation: isolate;">
      <g style="isolation: isolate;">
        <text transform="translate(72.6 285.7)" style="font-family: NotoSerifSC-Regular, &apos;Noto Serif SC&apos;; font-size: 18px; isolation: isolate;"><tspan x="0" y="0">数据库管理系统</tspan></text>
      </g>
    </g>
  </g>
  <g>
    <polygon points="181.5 175.9 90.6 175.9 45.1 197.7 90.6 219.5 181.5 219.5 227 197.7 181.5 175.9" style="fill: none; stroke: #000; stroke-miterlimit: 10;"/>
    <g style="isolation: isolate;">
      <g style="isolation: isolate;">
        <g style="isolation: isolate;">
          <text transform="translate(81.9 205.4)" style="font-family: NotoSerifSC-ExtraLight, &apos;Noto Serif SC&apos;; font-size: 18px; font-weight: 200; isolation: isolate;"><tspan x="0" y="0">应用开发工具</tspan></text>
        </g>
      </g>
    </g>
  </g>
  <polygon points="181.5 175.9 90.6 175.9 45.1 197.7 90.6 219.5 181.5 219.5 227 197.7 181.5 175.9" style="fill: none; stroke: #000; stroke-miterlimit: 10;"/>
  <g style="isolation: isolate;">
    <g style="isolation: isolate;">
      <g style="isolation: isolate;">
        <text transform="translate(81.9 205.4)" style="font-family: NotoSerifSC-Regular, &apos;Noto Serif SC&apos;; font-size: 18px; isolation: isolate;"><tspan x="0" y="0">应用开发工具</tspan></text>
      </g>
    </g>
  </g>
  <g>
    <polygon points="181.5 95.6 90.6 95.6 45.1 117.4 90.6 139.2 181.5 139.2 227 117.4 181.5 95.6" style="fill: none; stroke: #000; stroke-miterlimit: 10;"/>
    <g style="isolation: isolate;">
      <g style="isolation: isolate;">
        <g style="isolation: isolate;">
          <text transform="translate(99.7 125)" style="font-family: NotoSerifSC-ExtraLight, &apos;Noto Serif SC&apos;; font-size: 18px; font-weight: 200; isolation: isolate;"><tspan x="0" y="0">应用系统</tspan></text>
        </g>
      </g>
    </g>
  </g>
  <polygon points="181.5 95.6 90.6 95.6 45.1 117.4 90.6 139.2 181.5 139.2 227 117.4 181.5 95.6" style="fill: none; stroke: #000; stroke-miterlimit: 10;"/>
  <g style="isolation: isolate;">
    <g style="isolation: isolate;">
      <g style="isolation: isolate;">
        <text transform="translate(99.7 125)" style="font-family: NotoSerifSC-Regular, &apos;Noto Serif SC&apos;; font-size: 18px; isolation: isolate;"><tspan x="0" y="0">应用系统</tspan></text>
      </g>
    </g>
  </g>
  <g>
    <polygon points="181.5 336.6 90.6 336.6 45.1 358.4 90.6 380.2 181.5 380.2 227 358.4 181.5 336.6" style="fill: none; stroke: #000; stroke-miterlimit: 10;"/>
    <g style="isolation: isolate;">
      <g style="isolation: isolate;">
        <g style="isolation: isolate;">
          <text transform="translate(99.7 366.1)" style="font-family: NotoSerifSC-ExtraLight, &apos;Noto Serif SC&apos;; font-size: 18px; font-weight: 200; isolation: isolate;"><tspan x="0" y="0">操作系统</tspan></text>
        </g>
      </g>
    </g>
  </g>
  <polygon points="181.5 336.6 90.6 336.6 45.1 358.4 90.6 380.2 181.5 380.2 227 358.4 181.5 336.6" style="fill: none; stroke: #000; stroke-miterlimit: 10;"/>
  <g style="isolation: isolate;">
    <g style="isolation: isolate;">
      <g style="isolation: isolate;">
        <text transform="translate(99.7 366.1)" style="font-family: NotoSerifSC-Regular, &apos;Noto Serif SC&apos;; font-size: 18px; isolation: isolate;"><tspan x="0" y="0">操作系统</tspan></text>
      </g>
    </g>
  </g>
  <g>
    <ellipse cx="136.1" cy="432.5" rx="59.3" ry="12.3" style="fill: none; stroke: #000; stroke-miterlimit: 10;"/>
    <line x1="76.8" y1="432.5" x2="76.8" y2="486.3" style="fill: none; stroke: #000; stroke-miterlimit: 10;"/>
    <line x1="195.3" y1="432.5" x2="195.3" y2="486.3" style="fill: none; stroke: #000; stroke-miterlimit: 10;"/>
    <path d="M195.3,486.3c0,6.8-26.5,12.3-59.3,12.3s-59.3-5.5-59.3-12.3" style="fill: none; stroke: #000; stroke-miterlimit: 10;"/>
    <g style="isolation: isolate;">
      <g style="isolation: isolate;">
        <g style="isolation: isolate;">
          <text transform="translate(108.8 477.3)" style="font-family: NotoSerifSC-ExtraLight, &apos;Noto Serif SC&apos;; font-size: 18px; font-weight: 200; isolation: isolate;"><tspan x="0" y="0">数据库</tspan></text>
        </g>
      </g>
    </g>
  </g>
  <ellipse cx="136.1" cy="432.5" rx="59.3" ry="12.3" style="fill: none; stroke: #000; stroke-miterlimit: 10;"/>
  <line x1="76.8" y1="432.5" x2="76.8" y2="486.3" style="fill: none; stroke: #000; stroke-miterlimit: 10;"/>
  <line x1="195.3" y1="432.5" x2="195.3" y2="486.3" style="fill: none; stroke: #000; stroke-miterlimit: 10;"/>
  <path d="M195.3,486.3c0,6.8-26.5,12.3-59.3,12.3s-59.3-5.5-59.3-12.3" style="fill: none; stroke: #000; stroke-miterlimit: 10;"/>
  <g style="isolation: isolate;">
    <g style="isolation: isolate;">
      <g style="isolation: isolate;">
        <text transform="translate(108.8 477.3)" style="font-family: NotoSerifSC-Regular, &apos;Noto Serif SC&apos;; font-size: 18px; isolation: isolate;"><tspan x="0" y="0">数据库</tspan></text>
      </g>
    </g>
  </g>
  <g style="isolation: isolate;">
    <g style="isolation: isolate;">
      <g style="isolation: isolate;">
        <text transform="translate(326.7 285.7)" style="font-family: NotoSerifSC-ExtraLight, &apos;Noto Serif SC&apos;; font-size: 18px; font-weight: 200; isolation: isolate;"><tspan x="0" y="0">数据库管理员</tspan></text>
      </g>
    </g>
  </g>
  <g style="isolation: isolate;">
    <g style="isolation: isolate;">
      <text transform="translate(326.7 285.7)" style="font-family: NotoSerifSC-Regular, &apos;Noto Serif SC&apos;; font-size: 18px; isolation: isolate;"><tspan x="0" y="0">数据库管理员</tspan></text>
    </g>
  </g>
  <rect x="304" y="252.4" width="152" height="51.4" style="fill: none; stroke: #000; stroke-miterlimit: 10;"/>
  <rect x="304" y="252.4" width="152" height="51.4" style="fill: none; stroke: #000; stroke-miterlimit: 10;"/>
  <g>
    <line x1="42.2" y1="35.3" x2="66.2" y2="100.7" style="fill: none; stroke: #000; stroke-miterlimit: 10;"/>
    <polygon points="61.8 99.3 65.8 99.5 68.7 96.8 68.3 106.3 61.8 99.3"/>
  </g>
  <g>
    <line x1="42.2" y1="35.3" x2="66.2" y2="100.7" style="fill: none; stroke: #000; stroke-miterlimit: 10;"/>
    <polygon points="61.8 99.3 65.8 99.5 68.7 96.8 68.3 106.3 61.8 99.3"/>
  </g>
  <g>
    <line x1="136.1" y1="35.3" x2="136.1" y2="89.6" style="fill: none; stroke: #000; stroke-miterlimit: 10;"/>
    <polygon points="132.3 86.8 136.1 88.4 139.8 86.8 136.1 95.6 132.3 86.8"/>
  </g>
  <g>
    <line x1="136.1" y1="35.3" x2="136.1" y2="89.6" style="fill: none; stroke: #000; stroke-miterlimit: 10;"/>
    <polygon points="132.3 86.8 136.1 88.4 139.8 86.8 136.1 95.6 132.3 86.8"/>
  </g>
  <g>
    <line x1="279.9" y1="35.3" x2="208.6" y2="102.2" style="fill: none; stroke: #000; stroke-miterlimit: 10;"/>
    <polygon points="208.1 97.6 209.5 101.3 213.2 103 204.2 106.3 208.1 97.6"/>
  </g>
  <g>
    <line x1="279.9" y1="35.3" x2="208.6" y2="102.2" style="fill: none; stroke: #000; stroke-miterlimit: 10;"/>
    <polygon points="208.1 97.6 209.5 101.3 213.2 103 204.2 106.3 208.1 97.6"/>
  </g>
  <line x1="136.5" y1="139.2" x2="136.5" y2="175.9" style="fill: none; stroke: #000; stroke-miterlimit: 10;"/>
  <line x1="136.5" y1="139.2" x2="136.5" y2="175.9" style="fill: none; stroke: #000; stroke-miterlimit: 10;"/>
  <line x1="136.1" y1="219.5" x2="136.1" y2="256.3" style="fill: none; stroke: #000; stroke-miterlimit: 10;"/>
  <line x1="136.1" y1="219.5" x2="136.1" y2="256.3" style="fill: none; stroke: #000; stroke-miterlimit: 10;"/>
  <line x1="136.5" y1="300.6" x2="136.5" y2="336" style="fill: none; stroke: #000; stroke-miterlimit: 10;"/>
  <line x1="136.5" y1="300.6" x2="136.5" y2="336" style="fill: none; stroke: #000; stroke-miterlimit: 10;"/>
  <line x1="136.1" y1="380.2" x2="136.1" y2="420.2" style="fill: none; stroke: #000; stroke-miterlimit: 10;"/>
  <line x1="136.1" y1="380.2" x2="136.1" y2="420.2" style="fill: none; stroke: #000; stroke-miterlimit: 10;"/>
  <g>
    <line x1="304" y1="278.1" x2="233" y2="278.1" style="fill: none; stroke: #000; stroke-miterlimit: 10;"/>
    <polygon points="235.8 274.4 234.2 278.1 235.8 281.8 227 278.1 235.8 274.4"/>
  </g>
  <g>
    <line x1="304" y1="278.1" x2="233" y2="278.1" style="fill: none; stroke: #000; stroke-miterlimit: 10;"/>
    <polygon points="235.8 274.4 234.2 278.1 235.8 281.8 227 278.1 235.8 274.4"/>
  </g>
  <g>
    <polyline points="380.8001 303.8 380.8001 462.6 201.3 462.6" style="fill: none; stroke: #000; stroke-miterlimit: 10;"/>
    <polygon points="204.1 458.9 202.5 462.6 204.1 466.3 195.3 462.6 204.1 458.9"/>
  </g>
  <g>
    <polyline points="380.8001 303.8 380.8001 462.6 201.3 462.6" style="fill: none; stroke: #000; stroke-miterlimit: 10;"/>
    <polygon points="204.1 458.9 202.5 462.6 204.1 466.3 195.3 462.6 204.1 458.9"/>
  </g>
</svg>