<?xml version="1.0" encoding="UTF-8"?>
<svg xmlns="http://www.w3.org/2000/svg" version="1.1" viewBox="0 0 863.7 258.9">
  <defs>
    <style>
      .cls-1 {
        fill: none;
        stroke: #000;
        stroke-miterlimit: 10;
      }

      .cls-2 {
        font-family: NotoSerifSC-ExtraLight, 'Noto Serif SC';
        font-size: 18px;
        font-weight: 200;
      }
    </style>
  </defs>
  <!-- Generator: Adobe Illustrator 28.7.1, SVG Export Plug-In . SVG Version: 1.2.0 Build 142)  -->
  <g>
    <g id="_layer_1" data-name="layer_1">
      <g>
        <g>
          <rect class="cls-1" x="41.6" y="213.8" width="152.4" height="38.4"/>
          <text class="cls-2" transform="translate(50.3 240.1)"><tspan x="0" y="0">日期</tspan></text>
          <text class="cls-2" transform="translate(109.8 240.1)"><tspan x="0" y="0">奖惩条目</tspan></text>
          <path class="cls-1" d="M83.7,233"/>
          <line class="cls-1" x1="97.7" y1="213.8" x2="97.7" y2="252.2"/>
        </g>
        <g>
          <rect class="cls-1" x="210.1" y="213.8" width="277.3" height="38.4"/>
          <text class="cls-2" transform="translate(218.8 240.1)"><tspan x="0" y="0">姓名</tspan></text>
          <text class="cls-2" transform="translate(278.3 240.1)"><tspan x="0" y="0">与本人关系</tspan></text>
          <path class="cls-1" d="M252.2,233"/>
          <line class="cls-1" x1="266.2" y1="213.8" x2="266.2" y2="252.2"/>
          <text class="cls-2" transform="translate(398.9 240.4)"><tspan x="0" y="0">详细情况</tspan></text>
          <line class="cls-1" x1="382.8" y1="213.8" x2="382.8" y2="252.2"/>
        </g>
        <g>
          <rect class="cls-1" x="563.7" y="214.7" width="168.5" height="38.4"/>
          <text class="cls-2" transform="translate(572.4 240.1)"><tspan x="0" y="0">课程号</tspan></text>
          <text class="cls-2" transform="translate(649.9 240.1)"><tspan x="0" y="0">课程名称</tspan></text>
          <path class="cls-1" d="M605.8,233"/>
          <line class="cls-1" x1="636.8" y1="213.8" x2="636.8" y2="252.2"/>
        </g>
        <g>
          <rect class="cls-1" x="41.6" y="108.8" width="244.5" height="38.4"/>
          <text class="cls-2" transform="translate(50.3 135)"><tspan x="0" y="0">家庭出身</tspan></text>
          <text class="cls-2" transform="translate(143.8 135.1)"><tspan x="0" y="0">籍贯</tspan></text>
          <path class="cls-1" d="M83.7,128"/>
          <line class="cls-1" x1="131.7" y1="108.8" x2="131.7" y2="147.1"/>
          <text class="cls-2" transform="translate(202.4 135.4)"><tspan x="0" y="0">政治面貌</tspan></text>
          <line class="cls-1" x1="191.3" y1="108.8" x2="191.3" y2="147.1"/>
        </g>
        <g>
          <rect class="cls-1" x="314.4" y="108.8" width="188.4" height="38.4"/>
          <text class="cls-2" transform="translate(323.1 135)"><tspan x="0" y="0">日期</tspan></text>
          <text class="cls-2" transform="translate(382.6 135.1)"><tspan x="0" y="0">学校</tspan></text>
          <path class="cls-1" d="M356.5,128"/>
          <line class="cls-1" x1="371.5" y1="108.8" x2="371.5" y2="147.1"/>
          <text class="cls-2" transform="translate(439.3 135.4)"><tspan x="0" y="0">学历名</tspan></text>
          <line class="cls-1" x1="428.1" y1="108.8" x2="428.1" y2="147.1"/>
        </g>
        <g>
          <rect class="cls-1" x="563.7" y="109.2" width="258.4" height="38.4"/>
          <text class="cls-2" transform="translate(572.4 135.5)"><tspan x="0" y="0">学号</tspan></text>
          <text class="cls-2" transform="translate(631.9 135.5)"><tspan x="0" y="0">课程号</tspan></text>
          <path class="cls-1" d="M605.8,128.4"/>
          <line class="cls-1" x1="620.8" y1="109.2" x2="620.8" y2="147.6"/>
          <text class="cls-2" transform="translate(711.6 135.8)"><tspan x="0" y="0">学期</tspan></text>
          <line class="cls-1" x1="698.4" y1="109.2" x2="698.4" y2="147.6"/>
          <text class="cls-2" transform="translate(773.7 135.8)"><tspan x="0" y="0">成绩</tspan></text>
          <line class="cls-1" x1="760.7" y1="108.8" x2="760.7" y2="147.1"/>
        </g>
        <g>
          <rect class="cls-1" x="41.6" y="4.2" width="282.3" height="38.4"/>
          <text class="cls-2" transform="translate(50.3 30.5)"><tspan x="0" y="0">学号</tspan></text>
          <text class="cls-2" transform="translate(109.8 30.5)"><tspan x="0" y="0">姓名</tspan></text>
          <path class="cls-1" d="M83.7,23.4"/>
          <line class="cls-1" x1="98.7" y1="4.2" x2="98.7" y2="42.6"/>
          <text class="cls-2" transform="translate(169.4 30.8)"><tspan x="0" y="0">性别</tspan></text>
          <line class="cls-1" x1="156.3" y1="4.2" x2="156.3" y2="42.6"/>
          <text class="cls-2" transform="translate(231.5 30.8)"><tspan x="0" y="0">年龄</tspan></text>
          <line class="cls-1" x1="218.6" y1="3.7" x2="218.6" y2="42.1"/>
          <line class="cls-1" x1="280" y1="4.2" x2="280" y2="42.5"/>
          <text class="cls-2" transform="translate(293.2 30.1)"><tspan x="0" y="0">系</tspan></text>
        </g>
        <g>
          <line class="cls-1" x1="68.3" y1="42.1" x2="68.3" y2="102.8"/>
          <polygon points="64.6 100 68.3 101.6 72 100 68.3 108.8 64.6 100"/>
        </g>
        <text class="cls-2" transform="translate(74.5 97.8)"><tspan x="0" y="0">学生人事记录</tspan></text>
        <g>
          <line class="cls-1" x1="68.3" y1="147.1" x2="68.3" y2="207.8"/>
          <polygon points="64.6 205 68.3 206.6 72 205 68.3 213.8 64.6 205"/>
        </g>
        <text class="cls-2" transform="translate(73.7 202)"><tspan x="0" y="0">奖惩情况记录</tspan></text>
        <g>
          <line class="cls-1" x1="237.1" y1="147.6" x2="237.1" y2="208.3"/>
          <polygon points="233.4 205.4 237.1 207 240.9 205.4 237.1 214.2 233.4 205.4"/>
        </g>
        <text class="cls-2" transform="translate(242.6 202.4)"><tspan x="0" y="0">家庭成员记录</tspan></text>
        <g>
          <line class="cls-1" x1="590.4" y1="153.5" x2="590.4" y2="214.2"/>
          <polygon points="586.7 156.3 590.4 154.8 594.1 156.3 590.4 147.6 586.7 156.3"/>
        </g>
        <text class="cls-2" transform="translate(595.9 202.4)"><tspan x="0" y="0">课程记录</tspan></text>
        <g>
          <polyline class="cls-1" points="187.5 43.4 187.5 82 341.2 82 341.2 102.8"/>
          <polygon points="337.5 100 341.2 101.6 344.9 100 341.2 108.8 337.5 100"/>
        </g>
        <text class="cls-2" transform="translate(348.7 97.8)"><tspan x="0" y="0">学生学籍记录</tspan></text>
        <g>
          <polyline class="cls-1" points="302.3 43.4 302.3 63.5 590.4 63.5 590.4 102.8"/>
          <polygon points="586.7 100 590.4 101.6 594.1 100 590.4 108.8 586.7 100"/>
        </g>
        <text class="cls-2" transform="translate(595.8 96.1)"><tspan x="0" y="0">学生选课记录</tspan></text>
      </g>
    </g>
  </g>
</svg>