<?xml version="1.0" encoding="UTF-8"?>
<svg id="_layer_1" xmlns="http://www.w3.org/2000/svg" viewBox="0 0 325.755 325.7541">
  <g style="isolation: isolate;">
    <text transform="translate(117.8444 122.904)" style="font-family: NotoSerifSC-Regular, &apos;Noto Serif SC&apos;; font-size: 18px; isolation: isolate;"><tspan x="0" y="0">操</tspan></text>
    <text transform="translate(142.1813 110.315)" style="font-family: NotoSerifSC-Regular, &apos;Noto Serif SC&apos;; font-size: 18px; isolation: isolate;"><tspan x="0" y="0">作</tspan></text>
    <text transform="translate(169.5343 111.3571)" style="font-family: NotoSerifSC-Regular, &apos;Noto Serif SC&apos;; font-size: 18px; isolation: isolate;"><tspan x="0" y="0">系</tspan></text>
    <text transform="translate(192.8068 125.7189)" style="font-family: NotoSerifSC-Regular, &apos;Noto Serif SC&apos;; font-size: 18px; isolation: isolate;"><tspan x="0" y="0">统</tspan></text>
  </g>
  <path d="M162.8777,238.6504c-41.7816,0-75.7738-33.9917-75.7738-75.7729s33.9922-75.7738,75.7738-75.7738,75.7733,33.9922,75.7733,75.7738-33.9917,75.7729-75.7733,75.7729h0Z" style="fill: none; stroke: #000; stroke-miterlimit: 10;"/>
  <circle cx="162.8775" cy="162.8771" r="42.6667" style="fill: none; stroke: #000; stroke-miterlimit: 10;"/>
  <g style="isolation: isolate;">
    <text transform="translate(144.8775 170.4144)" style="font-family: NotoSerifSC-Regular, &apos;Noto Serif SC&apos;; font-size: 18px; isolation: isolate;"><tspan x="0" y="0">硬件</tspan></text>
  </g>
  <g style="isolation: isolate;">
    <text transform="translate(92.16 104.671)" style="font-family: NotoSerifSC-Regular, &apos;Noto Serif SC&apos;; font-size: 18px; isolation: isolate;"><tspan x="0" y="0">数</tspan></text>
    <text transform="translate(109.9823 90.2574)" style="font-family: NotoSerifSC-Regular, &apos;Noto Serif SC&apos;; font-size: 18px; isolation: isolate;"><tspan x="0" y="0">据</tspan></text>
    <text transform="translate(131.1092 81.1031)" style="font-family: NotoSerifSC-Regular, &apos;Noto Serif SC&apos;; font-size: 18px; isolation: isolate;"><tspan x="0" y="0">库</tspan></text>
    <text transform="translate(154.2201 78.0025)" style="font-family: NotoSerifSC-Regular, &apos;Noto Serif SC&apos;; font-size: 18px; isolation: isolate;"><tspan x="0" y="0">管</tspan></text>
    <text transform="translate(176.6776 81.1119)" style="font-family: NotoSerifSC-Regular, &apos;Noto Serif SC&apos;; font-size: 18px; isolation: isolate;"><tspan x="0" y="0">理</tspan></text>
    <text transform="translate(197.7996 90.274)" style="font-family: NotoSerifSC-Regular, &apos;Noto Serif SC&apos;; font-size: 18px; isolation: isolate;"><tspan x="0" y="0">系</tspan></text>
    <text transform="translate(215.617 104.6939)" style="font-family: NotoSerifSC-Regular, &apos;Noto Serif SC&apos;; font-size: 18px; isolation: isolate;"><tspan x="0" y="0">统</tspan></text>
  </g>
  <path d="M162.8778,270.5379c-59.3645,0-107.6615-48.2964-107.6615-107.6602s48.297-107.6615,107.6615-107.6615,107.6608,48.297,107.6608,107.6615-48.2964,107.6602-107.6608,107.6602Z" style="fill: none; stroke: #000; stroke-miterlimit: 10;"/>
  <g style="isolation: isolate;">
    <text transform="translate(101.8961 59.7234)" style="font-family: NotoSerifSC-Regular, &apos;Noto Serif SC&apos;; font-size: 18px; isolation: isolate;"><tspan x="0" y="0">应</tspan></text>
    <text transform="translate(121.8185 51.8792)" style="font-family: NotoSerifSC-Regular, &apos;Noto Serif SC&apos;; font-size: 18px; isolation: isolate;"><tspan x="0" y="0">用</tspan></text>
    <text transform="translate(142.8795 47.8738)" style="font-family: NotoSerifSC-Regular, &apos;Noto Serif SC&apos;; font-size: 18px; isolation: isolate;"><tspan x="0" y="0">开</tspan></text>
    <text transform="translate(164.2379 47.8147)" style="font-family: NotoSerifSC-Regular, &apos;Noto Serif SC&apos;; font-size: 18px; isolation: isolate;"><tspan x="0" y="0">发</tspan></text>
    <text transform="translate(185.2965 51.6956)" style="font-family: NotoSerifSC-Regular, &apos;Noto Serif SC&apos;; font-size: 18px; isolation: isolate;"><tspan x="0" y="0">工</tspan></text>
    <text transform="translate(205.2936 59.4386)" style="font-family: NotoSerifSC-Regular, &apos;Noto Serif SC&apos;; font-size: 18px; isolation: isolate;"><tspan x="0" y="0">具</tspan></text>
  </g>
  <path d="M162.8779,297.1517c-74.0394,0-134.2754-60.2353-134.2754-134.2738S88.8385,28.6024,162.8779,28.6024s134.2746,60.2361,134.2746,134.2754-60.2353,134.2738-134.2746,134.2738h0Z" style="fill: none; stroke: #000; stroke-miterlimit: 10;"/>
  <g style="isolation: isolate;">
    <text transform="translate(121.3002 25.6685)" style="font-family: NotoSerifSC-Regular, &apos;Noto Serif SC&apos;; font-size: 18px; isolation: isolate;"><tspan x="0" y="0">应</tspan></text>
    <text transform="translate(141.7606 22.3863)" style="font-family: NotoSerifSC-Regular, &apos;Noto Serif SC&apos;; font-size: 18px; isolation: isolate;"><tspan x="0" y="0">用</tspan></text>
    <text transform="translate(162.3856 22.1246)" style="font-family: NotoSerifSC-Regular, &apos;Noto Serif SC&apos;; font-size: 18px; isolation: isolate;"><tspan x="0" y="0">系</tspan></text>
    <text transform="translate(182.9032 24.8741)" style="font-family: NotoSerifSC-Regular, &apos;Noto Serif SC&apos;; font-size: 18px; isolation: isolate;"><tspan x="0" y="0">统</tspan></text>
  </g>
  <path d="M162.878,325.2541C73.3429,325.2541.5,252.4122.5,162.878S73.3429.5,162.878.5s162.377,72.8429,162.377,162.378-72.8419,162.3761-162.377,162.3761h0Z" style="fill: none; stroke: #000; stroke-miterlimit: 10;"/>
</svg>