<?xml version="1.0" encoding="UTF-8"?>
<svg id="_layer_1" xmlns="http://www.w3.org/2000/svg" viewBox="0 0 444.7076 348.6786">
  <g>
    <g>
      <rect x=".5" y=".5" width="66.0737" height="24.9206" style="fill: none; stroke: #000; stroke-miterlimit: 10;"/>
      <g style="isolation: isolate;">
        <text transform="translate(9.1743 19.4304)" style="font-family: NotoSerifSC-Regular, &apos;Noto Serif SC&apos;; font-size: 18px; isolation: isolate;"><tspan x="0" y="0">应用A</tspan></text>
      </g>
    </g>
    <g>
      <rect x="78.1163" y=".5" width="66.0737" height="24.9206" style="fill: none; stroke: #000; stroke-miterlimit: 10;"/>
      <g style="isolation: isolate;">
        <text transform="translate(86.7905 19.4304)" style="font-family: NotoSerifSC-Regular, &apos;Noto Serif SC&apos;; font-size: 18px; isolation: isolate;"><tspan x="0" y="0">应用B</tspan></text>
      </g>
    </g>
  </g>
  <g>
    <rect x="155.7325" y=".5" width="66.0737" height="24.9206" style="fill: none; stroke: #000; stroke-miterlimit: 10;"/>
    <g style="isolation: isolate;">
      <text transform="translate(164.4068 19.4304)" style="font-family: NotoSerifSC-Regular, &apos;Noto Serif SC&apos;; font-size: 18px; isolation: isolate;"><tspan x="0" y="0">应用C</tspan></text>
    </g>
  </g>
  <g>
    <g>
      <rect x="233.3488" y=".5" width="66.0737" height="24.9206" style="fill: none; stroke: #000; stroke-miterlimit: 10;"/>
      <g style="isolation: isolate;">
        <text transform="translate(242.0231 19.4304)" style="font-family: NotoSerifSC-Regular, &apos;Noto Serif SC&apos;; font-size: 18px; isolation: isolate;"><tspan x="0" y="0">应用D</tspan></text>
      </g>
    </g>
    <g>
      <rect x="310.9651" y=".5" width="66.0737" height="24.9206" style="fill: none; stroke: #000; stroke-miterlimit: 10;"/>
      <g style="isolation: isolate;">
        <text transform="translate(319.6394 19.4304)" style="font-family: NotoSerifSC-Regular, &apos;Noto Serif SC&apos;; font-size: 18px; isolation: isolate;"><tspan x="0" y="0">应用E</tspan></text>
      </g>
    </g>
  </g>
  <g>
    <rect x="32.9979" y="81.165" width="78.6941" height="24.9206" style="fill: none; stroke: #000; stroke-miterlimit: 10;"/>
    <g style="isolation: isolate;">
      <text transform="translate(41.8625 99.7254)" style="font-family: NotoSerifSC-Regular, &apos;Noto Serif SC&apos;; font-size: 18px; isolation: isolate;"><tspan x="0" y="0">外模式1</tspan></text>
    </g>
  </g>
  <rect x="265.8468" y="80.9802" width="78.6941" height="24.9206" style="fill: none; stroke: #000; stroke-miterlimit: 10;"/>
  <g style="isolation: isolate;">
    <text transform="translate(273.2976 99.9106)" style="font-family: NotoSerifSC-Regular, &apos;Noto Serif SC&apos;; font-size: 18px; isolation: isolate;"><tspan x="0" y="0">外模式3</tspan></text>
  </g>
  <g>
    <line x1="55.4035" y1="75.5089" x2="35.9253" y2="30.8917" style="fill: none; stroke: #000; stroke-miterlimit: 10;"/>
    <polygon points="57.6736 71.4533 54.9092 74.3768 50.8859 74.4165 57.7919 80.98 57.6736 71.4533"/>
    <polygon points="40.4428 31.9841 36.4196 32.0239 33.6552 34.9473 33.5368 25.4206 40.4428 31.9841"/>
  </g>
  <g>
    <line x1="108.9951" y1="30.7464" x2="86.2547" y2="75.6542" style="fill: none; stroke: #000; stroke-miterlimit: 10;"/>
    <polygon points="104.4226 31.5792 108.4371 31.8486 111.03 34.925 111.692 25.4206 104.4226 31.5792"/>
    <polygon points="84.2198 71.4756 86.8128 74.5521 90.8272 74.8215 83.5578 80.98 84.2198 71.4756"/>
  </g>
  <g>
    <path d="M290.3072,75.5561c-4.9133-10.6889-15.8354-34.3507-21.0642-44.8928" style="fill: none; stroke: #000; stroke-miterlimit: 10;"/>
    <polygon points="292.476 71.458 289.7741 74.4392 285.7526 74.5641 292.7959 80.98 292.476 71.458"/>
    <polygon points="273.7883 31.4184 269.7808 31.7757 267.2558 34.9082 266.3857 25.4206 273.7883 31.4184"/>
  </g>
  <g>
    <line x1="342.0993" y1="30.8682" x2="322.081" y2="75.5326" style="fill: none; stroke: #000; stroke-miterlimit: 10;"/>
    <polygon points="337.5714 31.9166 341.5941 31.9955 344.3299 34.9457 344.5409 25.4206 337.5714 31.9166"/>
    <polygon points="319.8504 71.4551 322.5862 74.4053 326.6089 74.4842 319.6394 80.9802 319.8504 71.4551"/>
  </g>
  <g>
    <rect x="148.1915" y="80.98" width="78.6941" height="24.9206" style="fill: none; stroke: #000; stroke-miterlimit: 10;"/>
    <g style="isolation: isolate;">
      <text transform="translate(156.2819 99.9105)" style="font-family: NotoSerifSC-Regular, &apos;Noto Serif SC&apos;; font-size: 18px; isolation: isolate;"><tspan x="0" y="0">外模式2</tspan></text>
    </g>
  </g>
  <g>
    <line x1="188.7694" y1="31.3903" x2="188.7694" y2="75.0103" style="fill: none; stroke: #000; stroke-miterlimit: 10;"/>
    <polygon points="185.0663 34.1989 188.7694 32.6257 192.4725 34.1989 188.7694 25.4206 185.0663 34.1989"/>
    <polygon points="185.0663 72.2017 188.7694 73.7749 192.4725 72.2017 188.7694 80.98 185.0663 72.2017"/>
  </g>
  <rect x="148.1915" y="152.4122" width="78.6941" height="24.9206" style="fill: none; stroke: #000; stroke-miterlimit: 10;"/>
  <g>
    <line x1="188.7694" y1="111.8704" x2="188.7694" y2="146.4425" style="fill: none; stroke: #000; stroke-miterlimit: 10;"/>
    <polygon points="185.0663 114.679 188.7694 113.1057 192.4725 114.679 188.7694 105.9006 185.0663 114.679"/>
    <polygon points="185.0663 143.6339 188.7694 145.2071 192.4725 143.6339 188.7694 152.4122 185.0663 143.6339"/>
  </g>
  <g>
    <polyline points="72.345 111.8704 72.345 129.1564 305.1938 129.1564 305.1938 112.0554" style="fill: none; stroke: #000; stroke-miterlimit: 10;"/>
    <polygon points="68.6418 114.679 72.345 113.1057 76.0481 114.679 72.345 105.9006 68.6418 114.679"/>
    <polygon points="308.8969 114.864 305.1938 113.2908 301.4907 114.864 305.1938 106.0857 308.8969 114.864"/>
  </g>
  <rect x="148.1915" y="214.7612" width="78.6941" height="24.9206" style="fill: none; stroke: #000; stroke-miterlimit: 10;"/>
  <g style="isolation: isolate;">
    <text transform="translate(160.5383 233.6916)" style="font-family: NotoSerifSC-Regular, &apos;Noto Serif SC&apos;; font-size: 18px; isolation: isolate;"><tspan x="0" y="0">内模式</tspan></text>
  </g>
  <g>
    <line x1="187.5386" y1="183.3026" x2="187.5386" y2="208.7915" style="fill: none; stroke: #000; stroke-miterlimit: 10;"/>
    <polygon points="183.8354 186.1112 187.5386 184.5379 191.2417 186.1112 187.5386 177.3328 183.8354 186.1112"/>
    <polygon points="183.8354 205.9829 187.5386 207.5561 191.2417 205.9829 187.5386 214.7612 183.8354 205.9829"/>
  </g>
  <g style="isolation: isolate;">
    <text transform="translate(169.4789 171.0801)" style="font-family: NotoSerifSC-Regular, &apos;Noto Serif SC&apos;; font-size: 18px; isolation: isolate;"><tspan x="0" y="0">模式</tspan></text>
  </g>
  <ellipse cx="187.5386" cy="285.8441" rx="39.3471" ry="10.8571" style="fill: none; stroke: #000; stroke-miterlimit: 10;"/>
  <path d="M148.1915,337.3215c0,5.9962,17.6163,10.8571,39.3471,10.8571s39.3471-4.8609,39.3471-10.8571" style="fill: none; stroke: #000; stroke-miterlimit: 10;"/>
  <path d="M148.1915,285.8441c.5409,1.9873,0,51.4774,0,51.4774" style="fill: none; stroke: #000; stroke-miterlimit: 10;"/>
  <line x1="226.8856" y1="285.8441" x2="226.8856" y2="337.3215" style="fill: none; stroke: #000; stroke-miterlimit: 10;"/>
  <g style="isolation: isolate;">
    <text transform="translate(160.4127 326.7717)" style="font-family: NotoSerifSC-Regular, &apos;Noto Serif SC&apos;; font-size: 18px; isolation: isolate;"><tspan x="0" y="0">数据库</tspan></text>
  </g>
  <g>
    <line x1="187.5386" y1="245.6516" x2="187.5386" y2="269.0172" style="fill: none; stroke: #000; stroke-miterlimit: 10;"/>
    <polygon points="183.8354 248.4601 187.5386 246.8869 191.2417 248.4601 187.5386 239.6818 183.8354 248.4601"/>
    <polygon points="183.8354 266.2086 187.5386 267.7818 191.2417 266.2086 187.5386 274.9869 183.8354 266.2086"/>
  </g>
  <g style="isolation: isolate;">
    <text transform="translate(312.7136 137.2463)" style="font-family: NotoSerifSC-Regular, &apos;Noto Serif SC&apos;; font-size: 18px; isolation: isolate;"><tspan x="0" y="0">外模式/模式映像</tspan></text>
  </g>
  <g style="isolation: isolate;">
    <text transform="translate(239.6829 202.9053)" style="font-family: NotoSerifSC-Regular, &apos;Noto Serif SC&apos;; font-size: 18px; isolation: isolate;"><tspan x="0" y="0">内模式/模式映像</tspan></text>
  </g>
</svg>