<?xml version="1.0" encoding="UTF-8"?>
<svg id="_图层_1" xmlns="http://www.w3.org/2000/svg" viewBox="0 0 417.8 342.7186">
  <g id="_layer_1">
    <g>
      <path d="M256.3,7.8446c1.3-.2,2.5-.5,3.7-.9,9-2.8,18-2.3,26.3.5,5.8,2,10.5,4.9,10.7,9.1.1,2.8,2.4,4.8,6.5,6.2,2.9.9,5.5,2.2,7.7,3.7,2.7,2,4.3,4.1,1.6,6.6-1.6,1.4-1.4,2.9-.7,4.4,1.1,2.1.9,4.3.7,6.4-.2,3.3-3.1,5.7-8.5,7.1-1.6.4-3.3.8-4.9,1.2-2.6.7-4.2,1.9-3.9,3.6.4,2.9-.8,5.5-2.7,8.1-1.3,2-4.2,3.7-7.8,4.4-6.8,1.4-13.6,1.7-20.3-.2-1-.3-1.9-.6-2.9-.9-4.3-1.3-5.3-1.2-9,.5-.7.3-1.4.7-2,1-7.1,3.8-15.3,3.9-23.9,2.1-2.5-.6-4.7-1.5-6.4-2.7-2.6-1.8-5.5-2.3-9.4-1.9-6.9.8-14.1,0-20-2.2-4.8-1.7-8.1-4.5-9.1-7.7-1-2.7-2.7-5.3-1.4-8.2.7-1.4-1.3-2.4-3.1-3.1-1.7-.7-3.4-1.2-5.3-1.7-7.3-2-10-7.7-7.5-11.9,1.3-2.3,3.4-4.5,7.7-5.5,2.7-.6,3.3-1.9,3.5-3.3.1-1.3,0-2.5-.2-3.8-1.2-5.8,5.5-9.5,14.9-10.8,3.5-.6,7.2-.6,10.7-.2,3.4.5,5.8-.1,8-1.8,6.9-5.3,19.8-7,30.2-3.9,4.8,1.4,9.3,3.1,13.9,4.7,1,.3,1.9.6,3.1,1l-.2001.1h0Z" style="fill: none; stroke: #000; stroke-miterlimit: 10;"/>
      <g style="isolation: isolate;">
        <g style="isolation: isolate;">
          <text transform="translate(202.9 44.0446)" style="font-family: NotoSerifSC-Regular, &apos;Noto Serif SC&apos;; font-size: 18px; isolation: isolate;"><tspan x="0" y="0">现实世界</tspan></text>
        </g>
      </g>
    </g>
    <g>
      <ellipse cx="239" cy="143.2446" rx="55.9" ry="41.2" style="fill: none; stroke: #000; stroke-miterlimit: 10;"/>
      <g>
        <circle cx="220" cy="128.4446" r="4.3" style="fill: none; stroke: #000; stroke-miterlimit: 10;"/>
        <circle cx="257.9" cy="128.4446" r="4.3" transform="translate(89.8029 362.4399) rotate(-80.7825)" style="fill: none; stroke: #000; stroke-miterlimit: 10;"/>
      </g>
      <path d="M208.5,160.6446c5.8,2.6,16,6.4,29.3,6.7,14.5.3,25.7-3.8,31.6-6.5" style="fill: none; stroke: #000; stroke-miterlimit: 10;"/>
    </g>
    <g>
      <line x1="239" y1="96.0446" x2="239" y2="72.0446" style="fill: none; stroke: #000; stroke-miterlimit: 10;"/>
      <polygon points="242.7 93.2446 239 94.8446 235.2 93.2446 239 102.0446 242.7 93.2446"/>
    </g>
    <path d="M292,130.2446l48.1.5c8.2,7.8,19.3,12.6,31.5,12.6,25.2,0,45.7-20.5,45.7-45.7s-20.5-45.7-45.7-45.7-45.7,20.5-45.7,45.7.5,7.6,1.4,11.1l-35.3,21.6" style="fill: none; stroke: #000; stroke-miterlimit: 10;"/>
    <g style="isolation: isolate;">
      <g style="isolation: isolate;">
        <text transform="translate(353.6 93.2446)" style="font-family: NotoSerifSC-Regular, &apos;Noto Serif SC&apos;; font-size: 18px; isolation: isolate;"><tspan x="0" y="0">认识</tspan></text>
      </g>
      <g style="isolation: isolate;">
        <text transform="translate(353.6 114.8446)" style="font-family: NotoSerifSC-Regular, &apos;Noto Serif SC&apos;; font-size: 18px; isolation: isolate;"><tspan x="0" y="0">抽象</tspan></text>
      </g>
    </g>
    <g>
      <rect x="110.1" y="224.1446" width="257.7" height="38.9" style="fill: none; stroke: #000; stroke-miterlimit: 10;"/>
      <g style="isolation: isolate;">
        <g style="isolation: isolate;">
          <text transform="translate(203 250.7446)" style="font-family: NotoSerifSC-Regular, &apos;Noto Serif SC&apos;; font-size: 18px; isolation: isolate;"><tspan x="0" y="0">概念模型</tspan></text>
        </g>
      </g>
    </g>
    <g>
      <line x1="239" y1="184.4446" x2="239" y2="217.2446" style="fill: none; stroke: #000; stroke-miterlimit: 10;"/>
      <polygon points="235.2 214.4446 239 216.0446 242.7 214.4446 239 223.2446 235.2 214.4446"/>
    </g>
    <g>
      <rect x="110.1" y="303.3446" width="257.7" height="38.9" style="fill: none; stroke: #000; stroke-miterlimit: 10;"/>
      <g style="isolation: isolate;">
        <g style="isolation: isolate;">
          <text transform="translate(112.6 331.6446)" style="font-family: NotoSerifSC-Regular, &apos;Noto Serif SC&apos;; font-size: 18px; isolation: isolate;"><tspan x="0" y="0">数据库管理系统支持的数据模型</tspan></text>
        </g>
      </g>
    </g>
    <g>
      <line x1="239" y1="263.0446" x2="239" y2="297.4446" style="fill: none; stroke: #000; stroke-miterlimit: 10;"/>
      <polygon points="235.2 294.6446 239 296.1446 242.7 294.6446 239 303.3446 235.2 294.6446"/>
    </g>
    <g style="isolation: isolate;">
      <g style="isolation: isolate;">
        <text transform="translate(0 250.7446)" style="font-family: NotoSerifSC-Regular, &apos;Noto Serif SC&apos;; font-size: 18px; isolation: isolate;"><tspan x="0" y="0">信息世界</tspan></text>
      </g>
    </g>
    <g style="isolation: isolate;">
      <g style="isolation: isolate;">
        <text transform="translate(0 329.9446)" style="font-family: NotoSerifSC-Regular, &apos;Noto Serif SC&apos;; font-size: 18px; isolation: isolate;"><tspan x="0" y="0">机器世界</tspan></text>
      </g>
    </g>
  </g>
</svg>