<?xml version="1.0" encoding="UTF-8"?>
<svg id="_图层_1" data-name="图层_1" xmlns="http://www.w3.org/2000/svg" viewBox="0 0 651.3 354.8">
  <g id="_layer_1">
    <g>
      <rect x=".5" y=".5" width="180.2" height="52" style="fill: none; stroke: #000; stroke-miterlimit: 10;"/>
      <g style="isolation: isolate;">
        <g style="isolation: isolate;">
          <text transform="translate(49.8 33.7)" style="font-family: NotoSerifSC-Regular, &apos;Noto Serif SC&apos;; font-size: 18px; isolation: isolate;"><tspan x="0" y="0">应用程序1</tspan></text>
        </g>
      </g>
      <rect x="470.6" y=".5" width="180.2" height="52" style="fill: none; stroke: #000; stroke-miterlimit: 10;"/>
      <rect x=".5" y="80.1" width="180.2" height="52" style="fill: none; stroke: #000; stroke-miterlimit: 10;"/>
      <g style="isolation: isolate;">
        <g style="isolation: isolate;">
          <text transform="translate(49.8 113.4)" style="font-family: NotoSerifSC-Regular, &apos;Noto Serif SC&apos;; font-size: 18px; isolation: isolate;"><tspan x="0" y="0">应用程序2</tspan></text>
        </g>
      </g>
      <rect x="470.6" y="80.1" width="180.2" height="52" style="fill: none; stroke: #000; stroke-miterlimit: 10;"/>
      <rect x=".5" y="302.3" width="180.2" height="52" style="fill: none; stroke: #000; stroke-miterlimit: 10;"/>
      <g style="isolation: isolate;">
        <g style="isolation: isolate;">
          <text transform="translate(48.5 335.6)" style="font-family: NotoSerifSC-Regular, &apos;Noto Serif SC&apos;; font-size: 18px; isolation: isolate;"><tspan x="0" y="0">应用程序n</tspan></text>
        </g>
      </g>
      <rect x="470.6" y="302.3" width="180.2" height="52" style="fill: none; stroke: #000; stroke-miterlimit: 10;"/>
      <g>
        <circle cx="90.6" cy="229.7" r="1.9"/>
        <circle cx="90.6" cy="218.7" r="1.9"/>
        <circle cx="90.6" cy="207.7" r="1.9"/>
      </g>
      <g>
        <circle cx="560.7" cy="229.7" r="1.9"/>
        <circle cx="560.7" cy="218.7" r="1.9"/>
        <circle cx="560.7" cy="207.7" r="1.9"/>
      </g>
      <g style="isolation: isolate;">
        <text transform="translate(528.9 33.8)" style="font-family: NotoSerifSC-Regular, &apos;Noto Serif SC&apos;; font-size: 18px; isolation: isolate;"><tspan x="0" y="0">文件组1</tspan></text>
      </g>
      <g style="isolation: isolate;">
        <text transform="translate(528.9 113.4)" style="font-family: NotoSerifSC-Regular, &apos;Noto Serif SC&apos;; font-size: 18px; isolation: isolate;"><tspan x="0" y="0">文件组2</tspan></text>
      </g>
      <g style="isolation: isolate;">
        <text transform="translate(527.6 335.6)" style="font-family: NotoSerifSC-Regular, &apos;Noto Serif SC&apos;; font-size: 18px; isolation: isolate;"><tspan x="0" y="0">文件组n</tspan></text>
      </g>
      <ellipse cx="325.7" cy="218.7" rx="70.9" ry="52.4" style="fill: none; stroke: #000; stroke-miterlimit: 10;"/>
      <g style="isolation: isolate;">
        <text transform="translate(307.6 215.7)" style="font-family: NotoSerifSC-Regular, &apos;Noto Serif SC&apos;; font-size: 18px; isolation: isolate;"><tspan x="0" y="0">存取</tspan></text>
        <text transform="translate(307.6 237.3)" style="font-family: NotoSerifSC-Regular, &apos;Noto Serif SC&apos;; font-size: 18px; isolation: isolate;"><tspan x="0" y="0">方法</tspan></text>
      </g>
      <line x1="180.7" y1="52.5" x2="301.3" y2="169.4" style="fill: none; stroke: #000; stroke-miterlimit: 10;"/>
      <line x1="471.1" y1="52.5" x2="350.5" y2="169.4" style="fill: none; stroke: #000; stroke-miterlimit: 10;"/>
      <line x1="180.7" y1="132.1" x2="274.9" y2="182.1" style="fill: none; stroke: #000; stroke-miterlimit: 10;"/>
      <line x1="471.1" y1="132.1" x2="376.9" y2="182.1" style="fill: none; stroke: #000; stroke-miterlimit: 10;"/>
      <line x1="180.7" y1="302.3" x2="272.3" y2="253.2" style="fill: none; stroke: #000; stroke-miterlimit: 10;"/>
      <line x1="469.8" y1="302.3" x2="378.2" y2="253.2" style="fill: none; stroke: #000; stroke-miterlimit: 10;"/>
      <g>
        <line x1="180.7" y1="26.5" x2="186.7" y2="26.5" style="fill: none; stroke: #000; stroke-miterlimit: 10;"/>
        <line x1="196.8" y1="26.5" x2="459.5" y2="26.9" style="fill: none; stroke: #000; stroke-dasharray: 12.2 10.1; stroke-miterlimit: 10;"/>
        <line x1="464.6" y1="27" x2="470.6" y2="27" style="fill: none; stroke: #000; stroke-miterlimit: 10;"/>
      </g>
      <g>
        <line x1="180.7" y1="106.6" x2="186.7" y2="106.6" style="fill: none; stroke: #000; stroke-miterlimit: 10;"/>
        <line x1="196.8" y1="106.6" x2="459.5" y2="107.1" style="fill: none; stroke: #000; stroke-dasharray: 12.2 10.1; stroke-miterlimit: 10;"/>
        <line x1="464.6" y1="107.1" x2="470.6" y2="107.1" style="fill: none; stroke: #000; stroke-miterlimit: 10;"/>
      </g>
      <g>
        <line x1="179.9" y1="328" x2="185.9" y2="328" style="fill: none; stroke: #000; stroke-miterlimit: 10;"/>
        <line x1="196.1" y1="328" x2="458.7" y2="328.5" style="fill: none; stroke: #000; stroke-dasharray: 12.2 10.1; stroke-miterlimit: 10;"/>
        <line x1="463.8" y1="328.5" x2="469.8" y2="328.5" style="fill: none; stroke: #000; stroke-miterlimit: 10;"/>
      </g>
    </g>
  </g>
</svg>