<?xml version="1.0" encoding="UTF-8"?>
<svg id="_图层_1" data-name="图层_1" xmlns="http://www.w3.org/2000/svg" viewBox="0 0 64 64">
  <path id="path11857" d="M52.5468,41.8367c0,11.3477-9.1991,20.5468-20.5468,20.5468s-20.5468-9.1991-20.5468-20.5468,9.1991-20.5468,20.5468-20.5468,20.5468,9.1991,20.5468,20.5468Z" style="fill: none; stroke: #000; stroke-miterlimit: 6.2132; stroke-width: 2px;"/>
  <path id="path11859" d="M42.0679,23.8378c0,11.3477-9.1991,20.5468-20.5468,20.5468S.9743,35.1855.9743,23.8378,10.1734,3.291,21.5211,3.291s20.5468,9.1991,20.5468,20.5468Z" style="fill: none; stroke: #000; stroke-miterlimit: 6.2132; stroke-width: 2px;"/>
  <path id="path11861" d="M63.0257,23.8378c0,11.3477-9.1991,20.5468-20.5468,20.5468s-20.5468-9.1991-20.5468-20.5468S31.1312,3.291,42.4789,3.291s20.5468,9.1991,20.5468,20.5468Z" style="fill: none; stroke: #000; stroke-miterlimit: 6.2132; stroke-width: 2px;"/>
</svg>