<?xml version="1.0" encoding="UTF-8"?>
<svg id="_layer_1" xmlns="http://www.w3.org/2000/svg" viewBox="0 0 480.5714 246.5706">
  <g>
    <line y1="49.5379" x2="480.5714" y2="49.5379" style="fill: none; stroke: #000; stroke-miterlimit: 10;"/>
    <line y1="93.7919" x2="480.5714" y2="93.7919" style="fill: none; stroke: #000; stroke-miterlimit: 10;"/>
    <line y1="194.0459" x2="480.5714" y2="194.0459" style="fill: none; stroke: #000; stroke-miterlimit: 10;"/>
    <line x1="111.4198" y1="49.5379" x2="111.4198" y2="194.0459" style="fill: none; stroke: #000; stroke-miterlimit: 10;"/>
    <line x1="240.2857" y1="49.5379" x2="240.2857" y2="194.0459" style="fill: none; stroke: #000; stroke-miterlimit: 10;"/>
    <line x1="370.0865" y1="49.5379" x2="370.0865" y2="194.0459" style="fill: none; stroke: #000; stroke-miterlimit: 10;"/>
  </g>
  <g>
    <line x1="55.2294" y1="27.7919" x2="55.2294" y2="65.2507" style="fill: none; stroke: #000; stroke-miterlimit: 10;"/>
    <polygon points="51.5262 62.4422 55.2294 64.0154 58.9325 62.4422 55.2294 71.2205 51.5262 62.4422"/>
  </g>
  <g style="isolation: isolate;">
    <text transform="translate(28.2295 15.8397)" style="font-family: NotoSerifSC-Regular, &apos;Noto Serif SC&apos;; font-size: 18px; isolation: isolate;"><tspan x="0" y="0">关系名</tspan></text>
  </g>
  <g style="isolation: isolate;">
    <text transform="translate(280.1022 15.8397)" style="font-family: NotoSerifSC-Regular, &apos;Noto Serif SC&apos;; font-size: 18px; isolation: isolate;"><tspan x="0" y="0">属性名</tspan></text>
  </g>
  <g>
    <line x1="307.1024" y1="27.7919" x2="307.1024" y2="65.2507" style="fill: none; stroke: #000; stroke-miterlimit: 10;"/>
    <polygon points="303.3992 62.4422 307.1024 64.0154 310.8055 62.4422 307.1024 71.2205 303.3992 62.4422"/>
  </g>
  <g>
    <line x1="280.8167" y1="27.7919" x2="183.4591" y2="68.8984" style="fill: none; stroke: #000; stroke-miterlimit: 10;"/>
    <polygon points="184.6061 64.3945 184.5972 68.4179 187.4869 71.2175 177.9595 71.2205 184.6061 64.3945"/>
  </g>
  <g>
    <line x1="331.0865" y1="27.7919" x2="428.444" y2="68.8984" style="fill: none; stroke: #000; stroke-miterlimit: 10;"/>
    <polygon points="424.4162 71.2175 427.3059 68.4179 427.297 64.3945 433.9436 71.2205 424.4162 71.2175"/>
  </g>
  <g style="isolation: isolate;">
    <text transform="translate(19.2294 243.0583)" style="font-family: NotoSerifSC-Regular, &apos;Noto Serif SC&apos;; font-size: 18px; isolation: isolate;"><tspan x="0" y="0">操作命令</tspan></text>
  </g>
  <g>
    <line x1="55.2294" y1="217.3633" x2="55.2294" y2="179.9045" style="fill: none; stroke: #000; stroke-miterlimit: 10;"/>
    <polygon points="58.9325 182.7131 55.2294 181.1398 51.5262 182.7131 55.2294 173.9348 58.9325 182.7131"/>
  </g>
  <g style="isolation: isolate;">
    <text transform="translate(215.9515 243.0589)" style="font-family: NotoSerifSC-Regular, &apos;Noto Serif SC&apos;; font-size: 18px; isolation: isolate;"><tspan x="0" y="0">元组属性值或查询条件</tspan></text>
  </g>
  <g>
    <line x1="305.9516" y1="215.7602" x2="305.9516" y2="178.3013" style="fill: none; stroke: #000; stroke-miterlimit: 10;"/>
    <polygon points="309.6547 181.1099 305.9516 179.5367 302.2485 181.1099 305.9516 172.3316 309.6547 181.1099"/>
  </g>
  <g>
    <line x1="332.2373" y1="215.7602" x2="429.5948" y2="174.6536" style="fill: none; stroke: #000; stroke-miterlimit: 10;"/>
    <polygon points="428.4478 179.1576 428.4568 175.1342 425.567 172.3346 435.0944 172.3316 428.4478 179.1576"/>
  </g>
  <g>
    <line x1="281.9674" y1="215.7602" x2="184.6099" y2="174.6536" style="fill: none; stroke: #000; stroke-miterlimit: 10;"/>
    <polygon points="188.6377 172.3346 185.748 175.1342 185.7569 179.1576 179.1103 172.3316 188.6377 172.3346"/>
  </g>
</svg>