<?xml version="1.0" encoding="UTF-8"?>
<svg id="_layer_1" xmlns="http://www.w3.org/2000/svg" viewBox="0 0 597.8379 194.4097">
  <g>
    <g>
      <g>
        <g style="isolation: isolate;">
          <text transform="translate(.0002 27.2512)" style="font-family: NotoSerifSC-Regular, &apos;Noto Serif SC&apos;; font-size: 18px; isolation: isolate;"><tspan x="0" y="0">学生关系</tspan></text>
        </g>
        <g style="isolation: isolate;">
          <text transform="translate(141.4806 27.251)" style="font-family: NotoSerifSC-Regular, &apos;Noto Serif SC&apos;; font-size: 18px; isolation: isolate;"><tspan x="0" y="0">专业关系</tspan></text>
        </g>
        <g>
          <line x1="73.134" y1="20.4114" x2="135.1642" y2="20.4114" style="fill: none; stroke: #000; stroke-miterlimit: 10;"/>
          <polygon points="132.3556 24.1145 133.9289 20.4114 132.3556 16.7082 141.134 20.4114 132.3556 24.1145"/>
        </g>
        <g style="isolation: isolate;">
          <text transform="translate(74.8063 15.84)" style="font-family: NotoSerifSC-Regular, &apos;Noto Serif SC&apos;; font-size: 18px; isolation: isolate;"><tspan x="0" y="0">专业号</tspan></text>
        </g>
      </g>
      <g style="isolation: isolate;">
        <text transform="translate(95.4908 65.5339)" style="font-family: NotoSerifSC-Regular, &apos;Noto Serif SC&apos;; font-size: 18px; isolation: isolate; letter-spacing: .004em;"><tspan x="0" y="0">(</tspan></text>
        <text transform="translate(101.8624 65.5339)" style="font-family: NotoSerifSC-Regular, &apos;Noto Serif SC&apos;; font-size: 18px; isolation: isolate;"><tspan x="0" y="0" style="letter-spacing: -.005em;">a</tspan><tspan x="9.936" y="0">)</tspan></text>
      </g>
    </g>
    <g>
      <g>
        <g style="isolation: isolate;">
          <text transform="translate(242.279 27.2512)" style="font-family: NotoSerifSC-Regular, &apos;Noto Serif SC&apos;; font-size: 18px; isolation: isolate;"><tspan x="0" y="0">学生关系</tspan></text>
        </g>
        <g style="isolation: isolate;">
          <text transform="translate(383.7593 27.2512)" style="font-family: NotoSerifSC-Regular, &apos;Noto Serif SC&apos;; font-size: 18px; isolation: isolate;"><tspan x="0" y="0">选修关系</tspan></text>
        </g>
        <g>
          <line x1="321.3824" y1="20.4115" x2="377.443" y2="20.4115" style="fill: none; stroke: #000; stroke-miterlimit: 10;"/>
          <polygon points="324.191 24.1145 322.6178 20.4115 324.191 16.7084 315.4128 20.4115 324.191 24.1145"/>
          <polygon points="374.6344 24.1145 376.2076 20.4115 374.6344 16.7084 383.4127 20.4115 374.6344 24.1145"/>
        </g>
        <g style="isolation: isolate;">
          <text transform="translate(331.085 15.8401)" style="font-family: NotoSerifSC-Regular, &apos;Noto Serif SC&apos;; font-size: 18px; isolation: isolate;"><tspan x="0" y="0">学号</tspan></text>
        </g>
        <g style="isolation: isolate;">
          <text transform="translate(525.838 27.2512)" style="font-family: NotoSerifSC-Regular, &apos;Noto Serif SC&apos;; font-size: 18px; isolation: isolate;"><tspan x="0" y="0">课程关系</tspan></text>
        </g>
        <g>
          <line x1="463.1089" y1="20.4113" x2="519.1696" y2="20.4113" style="fill: none; stroke: #000; stroke-miterlimit: 10;"/>
          <polygon points="465.9175 24.1144 464.3444 20.4113 465.9175 16.708 457.1392 20.4113 465.9175 24.1144"/>
          <polygon points="516.361 24.1144 517.9341 20.4113 516.361 16.708 525.1392 20.4113 516.361 24.1144"/>
        </g>
        <g style="isolation: isolate;">
          <text transform="translate(464.8735 15.84)" style="font-family: NotoSerifSC-Regular, &apos;Noto Serif SC&apos;; font-size: 18px; isolation: isolate;"><tspan x="0" y="0">课程号</tspan></text>
        </g>
      </g>
      <g style="isolation: isolate;">
        <text transform="translate(408.296 65.5342)" style="font-family: NotoSerifSC-Regular, &apos;Noto Serif SC&apos;; font-size: 18px; isolation: isolate;"><tspan x="0" y="0">(</tspan></text>
        <text transform="translate(414.5958 65.5342)" style="font-family: NotoSerifSC-Regular, &apos;Noto Serif SC&apos;; font-size: 18px; isolation: isolate; letter-spacing: -.018em;"><tspan x="0" y="0">b</tspan></text>
        <text transform="translate(425.5221 65.5342)" style="font-family: NotoSerifSC-Regular, &apos;Noto Serif SC&apos;; font-size: 18px; isolation: isolate;"><tspan x="0" y="0">)</tspan></text>
      </g>
    </g>
  </g>
  <g>
    <g style="isolation: isolate;">
      <text transform="translate(219.0645 127.9603)" style="font-family: NotoSerifSC-Regular, &apos;Noto Serif SC&apos;; font-size: 18px; isolation: isolate;"><tspan x="0" y="0">学生关系</tspan></text>
    </g>
    <g style="isolation: isolate;">
      <text transform="translate(342.7738 130.1201)" style="font-family: NotoSerifSC-Regular, &apos;Noto Serif SC&apos;; font-size: 18px; isolation: isolate;"><tspan x="0" y="0">学号</tspan></text>
    </g>
    <g>
      <path d="M258.0178,105.0593c6.4251-13.008,19.8254-21.9548,35.3155-21.9548,21.7407,0,39.3651,17.6244,39.3651,39.3651s-17.6244,39.3651-39.3651,39.3651c-13.4388,0-25.3047-6.7342-32.4074-17.0121" style="fill: none; stroke: #000; stroke-miterlimit: 10;"/>
      <polygon points="265.6248 145.2635 261.6419 145.8333 259.2871 149.0957 257.9138 139.6678 265.6248 145.2635"/>
    </g>
    <g style="isolation: isolate;">
      <text transform="translate(286.1371 190.5397)" style="font-family: NotoSerifSC-Regular, &apos;Noto Serif SC&apos;; font-size: 18px; isolation: isolate; letter-spacing: -.025em;"><tspan x="0" y="0">(</tspan></text>
      <text transform="translate(291.9872 190.5397)" style="font-family: NotoSerifSC-Regular, &apos;Noto Serif SC&apos;; font-size: 18px; isolation: isolate;"><tspan x="0" y="0" style="letter-spacing: -.006em;">c</tspan><tspan x="9.5762" y="0">)</tspan></text>
    </g>
  </g>
</svg>