<?xml version="1.0" encoding="UTF-8"?>
<svg id="_layer_1" xmlns="http://www.w3.org/2000/svg" viewBox="0 0 775.1691 216.3849">
  <g style="isolation: isolate;">
    <text transform="translate(69.7157 15.8396)" style="font-family: NotoSerifSC-Regular, &apos;Noto Serif SC&apos;; font-size: 18px; isolation: isolate;"><tspan x="0" y="0">小规模专家知识</tspan></text>
    <text transform="translate(70.5258 37.4397)" style="font-family: NotoSerifSC-Regular, &apos;Noto Serif SC&apos;; font-size: 18px; isolation: isolate; letter-spacing: -.045em;"><tspan x="0" y="0">（</tspan></text>
    <text transform="translate(96.7157 37.4397)" style="font-family: NotoSerifSC-Regular, &apos;Noto Serif SC&apos;; font-size: 18px; isolation: isolate;"><tspan x="0" y="0">理性主</tspan></text>
    <text transform="translate(150.7157 37.4397)" style="font-family: NotoSerifSC-Regular, &apos;Noto Serif SC&apos;; font-size: 18px; isolation: isolate; letter-spacing: -.023em;"><tspan x="0" y="0">义</tspan></text>
    <text transform="translate(167.9056 37.4397)" style="font-family: NotoSerifSC-Regular, &apos;Noto Serif SC&apos;; font-size: 18px; isolation: isolate; letter-spacing: -.955em;"><tspan x="0" y="0">）</tspan></text>
    <text transform="translate(14.4022 59.0398)" style="font-family: NotoSerifSC-Regular, &apos;Noto Serif SC&apos;; font-size: 18px; isolation: isolate;"><tspan x="0" y="0">20世纪50年代—20世纪90年代</tspan></text>
  </g>
  <g style="isolation: isolate;">
    <text transform="translate(282.3336 171.0247)" style="font-family: NotoSerifSC-Regular, &apos;Noto Serif SC&apos;; font-size: 18px; isolation: isolate;"><tspan x="0" y="0">大规模语料库统计模型</tspan></text>
    <text transform="translate(310.1437 192.6248)" style="font-family: NotoSerifSC-Regular, &apos;Noto Serif SC&apos;; font-size: 18px; isolation: isolate; letter-spacing: -.045em;"><tspan x="0" y="0">（</tspan></text>
    <text transform="translate(336.3336 192.6248)" style="font-family: NotoSerifSC-Regular, &apos;Noto Serif SC&apos;; font-size: 18px; isolation: isolate;"><tspan x="0" y="0">经验主</tspan></text>
    <text transform="translate(390.3336 192.6248)" style="font-family: NotoSerifSC-Regular, &apos;Noto Serif SC&apos;; font-size: 18px; isolation: isolate; letter-spacing: -.023em;"><tspan x="0" y="0">义</tspan></text>
    <text transform="translate(407.5235 192.6248)" style="font-family: NotoSerifSC-Regular, &apos;Noto Serif SC&apos;; font-size: 18px; isolation: isolate; letter-spacing: -.955em;"><tspan x="0" y="0">）</tspan></text>
    <text transform="translate(272.6319 214.2249)" style="font-family: NotoSerifSC-Regular, &apos;Noto Serif SC&apos;; font-size: 18px; isolation: isolate;"><tspan x="0" y="0">20世纪50年代—21世纪初</tspan></text>
  </g>
  <g style="isolation: isolate;">
    <text transform="translate(466.3283 15.8399)" style="font-family: NotoSerifSC-Regular, &apos;Noto Serif SC&apos;; font-size: 18px; isolation: isolate;"><tspan x="0" y="0">大规模语料库深度学习</tspan></text>
    <text transform="translate(494.1384 37.44)" style="font-family: NotoSerifSC-Regular, &apos;Noto Serif SC&apos;; font-size: 18px; isolation: isolate; letter-spacing: -.045em;"><tspan x="0" y="0">（</tspan></text>
    <text transform="translate(520.3283 37.44)" style="font-family: NotoSerifSC-Regular, &apos;Noto Serif SC&apos;; font-size: 18px; isolation: isolate;"><tspan x="0" y="0">经验主</tspan></text>
    <text transform="translate(574.3283 37.44)" style="font-family: NotoSerifSC-Regular, &apos;Noto Serif SC&apos;; font-size: 18px; isolation: isolate; letter-spacing: -.023em;"><tspan x="0" y="0">义</tspan></text>
    <text transform="translate(591.5182 37.44)" style="font-family: NotoSerifSC-Regular, &apos;Noto Serif SC&apos;; font-size: 18px; isolation: isolate; letter-spacing: -.955em;"><tspan x="0" y="0">）</tspan></text>
    <text transform="translate(496.8566 59.0401)" style="font-family: NotoSerifSC-Regular, &apos;Noto Serif SC&apos;; font-size: 18px; isolation: isolate;"><tspan x="0" y="0">2010年-2017年</tspan></text>
  </g>
  <g style="isolation: isolate;">
    <text transform="translate(595.1691 171.0246)" style="font-family: NotoSerifSC-Regular, &apos;Noto Serif SC&apos;; font-size: 18px; isolation: isolate;"><tspan x="0" y="0">大规模预训练语言模型</tspan></text>
    <text transform="translate(622.9792 192.6247)" style="font-family: NotoSerifSC-Regular, &apos;Noto Serif SC&apos;; font-size: 18px; isolation: isolate; letter-spacing: -.045em;"><tspan x="0" y="0">（</tspan></text>
    <text transform="translate(649.1691 192.6247)" style="font-family: NotoSerifSC-Regular, &apos;Noto Serif SC&apos;; font-size: 18px; isolation: isolate;"><tspan x="0" y="0">经验主</tspan></text>
    <text transform="translate(703.1691 192.6247)" style="font-family: NotoSerifSC-Regular, &apos;Noto Serif SC&apos;; font-size: 18px; isolation: isolate; letter-spacing: -.023em;"><tspan x="0" y="0">义</tspan></text>
    <text transform="translate(720.359 192.6247)" style="font-family: NotoSerifSC-Regular, &apos;Noto Serif SC&apos;; font-size: 18px; isolation: isolate; letter-spacing: -.955em;"><tspan x="0" y="0">）</tspan></text>
    <text transform="translate(638.9455 214.2248)" style="font-family: NotoSerifSC-Regular, &apos;Noto Serif SC&apos;; font-size: 18px; isolation: isolate;"><tspan x="0" y="0">2018年至今</tspan></text>
  </g>
  <g style="opacity: .2;">
    <polygon points="295.8095 105.1445 30.6666 105.1445 0 87.6842 265.1428 87.6842 295.8095 105.1445"/>
    <polygon points="514.8571 105.1445 304.9523 105.1445 270.6666 87.6842 480.5714 87.6842 514.8571 105.1445"/>
    <polygon points="637.7142 105.1445 524 105.1445 488.3174 87.6842 602.0317 87.6842 637.7142 105.1445"/>
    <polygon points="760.5714 105.1445 646.8571 105.1445 609.3333 87.6842 723.0476 87.6842 760.5714 105.1445"/>
    <polygon points="295.8095 105.1445 30.6666 105.1445 0 122.6048 265.1428 122.6048 295.8095 105.1445"/>
    <polygon points="514.8571 105.1445 304.9523 105.1445 270.6666 122.6048 480.5714 122.6048 514.8571 105.1445"/>
    <polygon points="637.7142 105.1445 524 105.1445 488.3174 122.6048 602.0317 122.6048 637.7142 105.1445"/>
    <polygon points="760.5714 105.1445 646.8571 105.1445 609.3333 122.6048 723.0476 122.6048 760.5714 105.1445"/>
  </g>
  <g style="opacity: .2;">
    <line x1="134.1023" y1="71.0493" x2="134.1023" y2="87.6842" style="fill: none; stroke: #000; stroke-miterlimit: 10;"/>
    <circle cx="134.1023" cy="71.0493" r="2.2857"/>
  </g>
  <g style="opacity: .2;">
    <line x1="380.2857" y1="139.2397" x2="380.2857" y2="122.6048" style="fill: none; stroke: #000; stroke-miterlimit: 10;"/>
    <circle cx="380.2857" cy="139.2397" r="2.2857"/>
  </g>
  <g style="opacity: .2;">
    <line x1="551.1599" y1="71.0493" x2="551.1599" y2="87.6842" style="fill: none; stroke: #000; stroke-miterlimit: 10;"/>
    <circle cx="551.1599" cy="71.0493" r="2.2857"/>
  </g>
  <g style="opacity: .2;">
    <line x1="684.9523" y1="139.2397" x2="684.9523" y2="122.6048" style="fill: none; stroke: #000; stroke-miterlimit: 10;"/>
    <circle cx="684.9523" cy="139.2397" r="2.2857"/>
  </g>
</svg>