<?xml version="1.0" encoding="UTF-8"?>
<svg id="_layer_1" xmlns="http://www.w3.org/2000/svg" viewBox="0 0 863.7 273.7143">
  <g>
    <text transform="translate(216.5534 19.0488)" style="font-family: NotoSerifSC-ExtraLight, &apos;Noto Serif SC&apos;; font-size: 18px; font-weight: 200;"><tspan x="0" y="0">S</tspan></text>
    <text transform="translate(271.2055 114.2951)" style="font-family: NotoSerifSC-ExtraLight, &apos;Noto Serif SC&apos;; font-size: 18px; font-weight: 200;"><tspan x="0" y="0" style="letter-spacing: -.006em;">V</tspan><tspan x="12.6001" y="0">P</tspan></text>
    <text transform="translate(109.3092 164.7575)" style="font-family: NotoSerifSC-ExtraLight, &apos;Noto Serif SC&apos;; font-size: 18px; font-weight: 200;"><tspan x="0" y="0">PN</tspan></text>
    <text transform="translate(173.1732 164.7577)" style="font-family: NotoSerifSC-ExtraLight, &apos;Noto Serif SC&apos;; font-size: 18px; font-weight: 200;"><tspan x="0" y="0">VV</tspan></text>
    <text transform="translate(237.0013 164.7575)" style="font-family: NotoSerifSC-ExtraLight, &apos;Noto Serif SC&apos;; font-size: 18px; font-weight: 200;"><tspan x="0" y="0">VV</tspan></text>
    <text transform="translate(297.7599 164.7575)" style="font-family: NotoSerifSC-ExtraLight, &apos;Noto Serif SC&apos;; font-size: 18px; font-weight: 200;"><tspan x="0" y="0">MN</tspan></text>
    <polyline points="255.0939 141.3175 282.2685 120.4921 311.2209 141.3175" style="fill: none; stroke: #000; stroke-miterlimit: 10;"/>
    <polyline points="186.4796 141.3175 255.1841 72.3251 284.1365 93.1505" style="fill: none; stroke: #000; stroke-miterlimit: 10;"/>
    <text transform="translate(243.6582 67.0254)" style="font-family: NotoSerifSC-ExtraLight, &apos;Noto Serif SC&apos;; font-size: 18px; font-weight: 200;"><tspan x="0" y="0" style="letter-spacing: -.006em;">V</tspan><tspan x="12.6001" y="0">P</tspan></text>
    <polyline points="123.2415 90.5238 222.1415 27.2671 251.0939 48.0925" style="fill: none; stroke: #000; stroke-miterlimit: 10;"/>
    <text transform="translate(109.3455 114.2953)" style="font-family: NotoSerifSC-ExtraLight, &apos;Noto Serif SC&apos;; font-size: 18px; font-weight: 200;"><tspan x="0" y="0" style="letter-spacing: -.004em;">N</tspan><tspan x="14.1118" y="0">P</tspan></text>
    <line x1="123.2415" y1="120.4921" x2="123.2415" y2="141.3175" style="fill: none; stroke: #000; stroke-miterlimit: 10;"/>
    <line x1="123.2415" y1="175.1587" x2="123.2415" y2="195.9841" style="fill: none; stroke: #000; stroke-miterlimit: 10;"/>
    <line x1="187.1677" y1="175.1587" x2="187.1677" y2="195.9841" style="fill: none; stroke: #000; stroke-miterlimit: 10;"/>
    <line x1="251.0939" y1="175.1587" x2="251.0939" y2="195.9841" style="fill: none; stroke: #000; stroke-miterlimit: 10;"/>
    <line x1="315.0201" y1="175.1587" x2="315.0201" y2="195.9841" style="fill: none; stroke: #000; stroke-miterlimit: 10;"/>
    <text transform="translate(113.7607 221.603)" style="font-family: NotoSerifSC-ExtraLight, &apos;Noto Serif SC&apos;; font-size: 18px; font-weight: 200;"><tspan x="0" y="0">他</tspan></text>
    <text transform="translate(169.1677 221.6028)" style="font-family: NotoSerifSC-ExtraLight, &apos;Noto Serif SC&apos;; font-size: 18px; font-weight: 200;"><tspan x="0" y="0">喜欢</tspan></text>
    <text transform="translate(242.0938 221.603)" style="font-family: NotoSerifSC-ExtraLight, &apos;Noto Serif SC&apos;; font-size: 18px; font-weight: 200;"><tspan x="0" y="0">下</tspan></text>
    <text transform="translate(297.02 221.6029)" style="font-family: NotoSerifSC-ExtraLight, &apos;Noto Serif SC&apos;; font-size: 18px; font-weight: 200;"><tspan x="0" y="0">象棋</tspan></text>
  </g>
  <g>
    <text transform="translate(494.7141 221.6028)" style="font-family: NotoSerifSC-ExtraLight, &apos;Noto Serif SC&apos;; font-size: 18px; font-weight: 200;"><tspan x="0" y="0">他</tspan></text>
    <text transform="translate(563.2725 221.6026)" style="font-family: NotoSerifSC-ExtraLight, &apos;Noto Serif SC&apos;; font-size: 18px; font-weight: 200;"><tspan x="0" y="0">喜欢</tspan></text>
    <text transform="translate(649.8314 221.6028)" style="font-family: NotoSerifSC-ExtraLight, &apos;Noto Serif SC&apos;; font-size: 18px; font-weight: 200;"><tspan x="0" y="0">下</tspan></text>
    <text transform="translate(718.3904 221.6027)" style="font-family: NotoSerifSC-ExtraLight, &apos;Noto Serif SC&apos;; font-size: 18px; font-weight: 200;"><tspan x="0" y="0">象棋</tspan></text>
    <text transform="translate(406.2288 221.6032)" style="font-family: NotoSerifSC-ExtraLight, &apos;Noto Serif SC&apos;; font-size: 18px; font-weight: 200;"><tspan x="0" y="0" style="letter-spacing: -.011em;">R</tspan><tspan x="12.4199" y="0">o</tspan><tspan x="22.9497" y="0" style="letter-spacing: -.003em;">o</tspan><tspan x="33.4258" y="0" style="letter-spacing: 0em;">t</tspan></text>
    <text transform="translate(526.9641 178.4379)" style="font-family: NotoSerifSC-ExtraLight, &apos;Noto Serif SC&apos;; font-size: 18px; font-weight: 200;"><tspan x="0" y="0">sub</tspan></text>
    <path d="M570.3516,198.6398c-.9127-3.2053-2.6878-7.9266-6.2857-12.7619-2.4765-3.3282-5.0993-5.7465-7.2381-7.4286" style="fill: none; stroke: #000; stroke-miterlimit: 10;"/>
    <g>
      <path d="M525.7802,178.6398c-2.7161.7602-7.7213,2.5484-12.5714,6.8571-2.6307,2.337-4.5396,4.8148-5.9148,7.0355" style="fill: none; stroke: #000; stroke-miterlimit: 10;"/>
      <polygon points="505.3853 188.3799 507.9504 191.4797 511.9622 191.7854 504.6373 197.8779 505.3853 188.3799"/>
    </g>
    <text transform="translate(494.0483 140.5596)" style="font-family: NotoSerifSC-ExtraLight, &apos;Noto Serif SC&apos;; font-size: 18px; font-weight: 200;"><tspan x="0" y="0" style="letter-spacing: -.018em;">r</tspan><tspan x="7.7041" y="0">o</tspan><tspan x="18.2339" y="0" style="letter-spacing: -.003em;">o</tspan><tspan x="28.71" y="0">t</tspan></text>
    <path d="M428.1294,199.5287c3.5008-9.8294,11.606-29.4973,26.8714-44.381,13.2557-12.9243,25.816-16.2991,32.6718-17.3333" style="fill: none; stroke: #000; stroke-miterlimit: 10;"/>
    <g>
      <path d="M530.9865,136.4811c10.6312,4.7037,26.3833,14.3103,41.6476,35.0476,4.6827,6.3617,8.6503,12.8617,11.9931,19.079" style="fill: none; stroke: #000; stroke-miterlimit: 10;"/>
      <polygon points="580.0285 189.8342 584.0396 189.5192 586.5974 186.4134 587.3674 195.9097 580.0285 189.8342"/>
    </g>
    <text transform="translate(608.7924 178.4376)" style="font-family: NotoSerifSC-ExtraLight, &apos;Noto Serif SC&apos;; font-size: 18px; font-weight: 200;"><tspan x="0" y="0" style="letter-spacing: -.003em;">o</tspan><tspan x="10.4761" y="0">bj</tspan></text>
    <path d="M593.2087,203.4652c.14-3.0892,1.0062-13.8125,9.3333-20.7619,1.8442-1.5391,3.7475-2.637,5.5238-3.4286" style="fill: none; stroke: #000; stroke-miterlimit: 10;"/>
    <g>
      <path d="M638.3516,178.1319c4.4799,3.6451,9.629,8.6742,14.2858,15.4286.3975.5766.7807,1.1501,1.1501,1.7199" style="fill: none; stroke: #000; stroke-miterlimit: 10;"/>
      <polygon points="649.1153 194.8238 653.0981 194.253 655.4521 190.99 656.8278 200.4176 649.1153 194.8238"/>
    </g>
    <text transform="translate(687.6228 176.0066)" style="font-family: NotoSerifSC-ExtraLight, &apos;Noto Serif SC&apos;; font-size: 18px; font-weight: 200;"><tspan x="0" y="0" style="letter-spacing: -.003em;">o</tspan><tspan x="10.4761" y="0">bj</tspan></text>
    <path d="M662.0003,200.197c.212-3.815,1.5245-17.058,14.1409-25.6405,2.7941-1.9007,5.6778-3.2567,8.3691-4.2342" style="fill: none; stroke: #000; stroke-miterlimit: 10;"/>
    <g>
      <path d="M715.9389,170.3224c6.8271,5.2652,14.6741,12.5294,21.7707,22.2857,1.1776,1.619,2.2728,3.2216,3.2916,4.7993" style="fill: none; stroke: #000; stroke-miterlimit: 10;"/>
      <polygon points="736.3318 196.9904 740.3091 196.3829 742.6329 193.0983 744.0955 202.5128 736.3318 196.9904"/>
    </g>
  </g>
  <text transform="translate(146.0052 267.1945)" style="font-family: NotoSerifSC-ExtraLight, &apos;Noto Serif SC&apos;; font-size: 18px; font-weight: 200;"><tspan x="0" y="0" style="letter-spacing: .004em;">(</tspan><tspan x="6.3716" y="0" style="letter-spacing: 0em;">a)短语结构句法树</tspan></text>
  <text transform="translate(504.6371 267.1948)" style="font-family: NotoSerifSC-ExtraLight, &apos;Noto Serif SC&apos;; font-size: 18px; font-weight: 200;"><tspan x="0" y="0">(</tspan><tspan x="6.2998" y="0" style="letter-spacing: -.018em;">b</tspan><tspan x="17.2261" y="0">)依存结构句法树</tspan></text>
</svg>