<?xml version="1.0" encoding="UTF-8"?>
<svg id="_layer_1" xmlns="http://www.w3.org/2000/svg" viewBox="0 0 657.3811 340.919">
  <rect x=".5" y="247.4629" width="45.9048" height="45.9048" style="fill: none; stroke: #000; stroke-miterlimit: 10;"/>
  <g style="isolation: isolate;">
    <g style="isolation: isolate;">
      <text transform="translate(19.8886 275.885)" style="font-family: NotoSerifSC-Regular, &apos;Noto Serif SC&apos;; font-size: 18px; isolation: isolate;"><tspan x="0" y="0">I</tspan></text>
    </g>
  </g>
  <g>
    <rect x=".5" y="124.8117" width="45.9048" height="45.9048" style="fill: none; stroke: #000; stroke-miterlimit: 10;"/>
    <line x1=".5" y1="124.8117" x2="46.4047" y2="170.7164" style="fill: none; stroke: #000; stroke-miterlimit: 10;"/>
  </g>
  <g>
    <rect x="122.5952" y="124.8117" width="45.9048" height="45.9048" style="fill: none; stroke: #000; stroke-miterlimit: 10;"/>
    <line x1="122.5952" y1="124.8117" x2="168.5" y2="170.7164" style="fill: none; stroke: #000; stroke-miterlimit: 10;"/>
  </g>
  <g>
    <rect x="244.6905" y="124.8117" width="45.9048" height="45.9048" style="fill: none; stroke: #000; stroke-miterlimit: 10;"/>
    <line x1="244.6905" y1="124.8117" x2="290.5953" y2="170.7164" style="fill: none; stroke: #000; stroke-miterlimit: 10;"/>
  </g>
  <g>
    <line x1="23.4524" y1="247.4629" x2="23.4524" y2="176.9719" style="fill: none; stroke: #000; stroke-miterlimit: 10;"/>
    <polygon points="27.1555 179.7805 23.4524 178.2072 19.7492 179.7805 23.4524 171.0022 27.1555 179.7805"/>
  </g>
  <rect x="122.5952" y="246.6751" width="45.9048" height="45.9048" style="fill: none; stroke: #000; stroke-miterlimit: 10;"/>
  <g style="isolation: isolate;">
    <g style="isolation: isolate;">
      <text transform="translate(125.208 275.0971)" style="font-family: NotoSerifSC-Regular, &apos;Noto Serif SC&apos;; font-size: 18px; isolation: isolate;"><tspan x="0" y="0">Lo</tspan></text>
    </g>
    <g style="isolation: isolate;">
      <text transform="translate(146.8618 275.0971)" style="font-family: NotoSerifSC-Regular, &apos;Noto Serif SC&apos;; font-size: 18px; isolation: isolate; letter-spacing: -.014em;"><tspan x="0" y="0">v</tspan></text>
    </g>
    <g style="isolation: isolate;">
      <text transform="translate(156.2397 275.0971)" style="font-family: NotoSerifSC-Regular, &apos;Noto Serif SC&apos;; font-size: 18px; isolation: isolate;"><tspan x="0" y="0">e</tspan></text>
    </g>
  </g>
  <g>
    <line x1="145.5476" y1="246.6751" x2="145.5476" y2="176.184" style="fill: none; stroke: #000; stroke-miterlimit: 10;"/>
    <polygon points="149.2507 178.9926 145.5476 177.4194 141.8445 178.9926 145.5476 170.2143 149.2507 178.9926"/>
  </g>
  <rect x="244.6905" y="247.1772" width="45.9048" height="45.9048" style="fill: none; stroke: #000; stroke-miterlimit: 10;"/>
  <g style="isolation: isolate;">
    <g style="isolation: isolate;">
      <text transform="translate(252.001 275.5993)" style="font-family: NotoSerifSC-Regular, &apos;Noto Serif SC&apos;; font-size: 18px; isolation: isolate; letter-spacing: -.014em;"><tspan x="0" y="0">y</tspan></text>
    </g>
    <g style="isolation: isolate;">
      <text transform="translate(261.4507 275.5993)" style="font-family: NotoSerifSC-Regular, &apos;Noto Serif SC&apos;; font-size: 18px; isolation: isolate; letter-spacing: -.003em;"><tspan x="0" y="0">o</tspan></text>
    </g>
    <g style="isolation: isolate;">
      <text transform="translate(271.9268 275.5993)" style="font-family: NotoSerifSC-Regular, &apos;Noto Serif SC&apos;; font-size: 18px; isolation: isolate;"><tspan x="0" y="0">u</tspan></text>
    </g>
  </g>
  <g>
    <line x1="267.6429" y1="247.1772" x2="267.6429" y2="176.6862" style="fill: none; stroke: #000; stroke-miterlimit: 10;"/>
    <polygon points="271.346 179.4948 267.6429 177.9215 263.9397 179.4948 267.6429 170.7164 271.346 179.4948"/>
  </g>
  <g>
    <line x1="46.4047" y1="147.7641" x2="116.6255" y2="147.7641" style="fill: none; stroke: #000; stroke-miterlimit: 10;"/>
    <polygon points="113.8169 151.4672 115.3902 147.7641 113.8169 144.0609 122.5952 147.7641 113.8169 151.4672"/>
  </g>
  <g>
    <line x1="168.5" y1="147.7641" x2="238.7208" y2="147.7641" style="fill: none; stroke: #000; stroke-miterlimit: 10;"/>
    <polygon points="235.9122 151.4672 237.4854 147.7641 235.9122 144.0609 244.6905 147.7641 235.9122 151.4672"/>
  </g>
  <g>
    <rect x="366.7857" y="123.6534" width="45.9048" height="45.9048" style="fill: none; stroke: #000; stroke-miterlimit: 10;"/>
    <line x1="412.6905" y1="123.6534" x2="366.7858" y2="169.5582" style="fill: none; stroke: #000; stroke-miterlimit: 10;"/>
  </g>
  <g>
    <rect x="488.881" y="123.6534" width="45.9048" height="45.9048" style="fill: none; stroke: #000; stroke-miterlimit: 10;"/>
    <line x1="534.7858" y1="123.6534" x2="488.881" y2="169.5582" style="fill: none; stroke: #000; stroke-miterlimit: 10;"/>
  </g>
  <g>
    <rect x="610.9762" y="123.6534" width="45.9048" height="45.9048" style="fill: none; stroke: #000; stroke-miterlimit: 10;"/>
    <line x1="656.881" y1="123.6534" x2="610.9763" y2="169.5582" style="fill: none; stroke: #000; stroke-miterlimit: 10;"/>
  </g>
  <g>
    <line x1="412.6905" y1="146.6058" x2="482.9113" y2="146.6058" style="fill: none; stroke: #000; stroke-miterlimit: 10;"/>
    <polygon points="480.1027 150.3089 481.6759 146.6058 480.1027 142.9027 488.881 146.6058 480.1027 150.3089"/>
  </g>
  <g>
    <line x1="534.7858" y1="146.6058" x2="605.0065" y2="146.6058" style="fill: none; stroke: #000; stroke-miterlimit: 10;"/>
    <polygon points="602.1979 150.3089 603.7712 146.6058 602.1979 142.9027 610.9762 146.6058 602.1979 150.3089"/>
  </g>
  <g>
    <line x1="290.5953" y1="147.7641" x2="360.816" y2="147.7641" style="fill: none; stroke: #000; stroke-miterlimit: 10;"/>
    <polygon points="358.0074 151.4672 359.5807 147.7641 358.0074 144.0609 366.7858 147.7641 358.0074 151.4672"/>
  </g>
  <rect x="366.7858" y=".5" width="45.9048" height="45.9048" style="fill: none; stroke: #000; stroke-miterlimit: 10;"/>
  <g style="isolation: isolate;">
    <g style="isolation: isolate;">
      <text transform="translate(380.738 31.71)" style="font-family: NotoSerifSC-Regular, &apos;Noto Serif SC&apos;; font-size: 18px; isolation: isolate;"><tspan x="0" y="0">我</tspan></text>
    </g>
  </g>
  <g>
    <line x1="389.7381" y1="46.4048" x2="389.7381" y2="116.8958" style="fill: none; stroke: #000; stroke-miterlimit: 10;"/>
    <polygon points="386.035 114.0872 389.7381 115.6605 393.4413 114.0872 389.7381 122.8655 386.035 114.0872"/>
  </g>
  <rect x="488.881" y="1.2879" width="45.9048" height="45.9048" style="fill: none; stroke: #000; stroke-miterlimit: 10;"/>
  <g style="isolation: isolate;">
    <g style="isolation: isolate;">
      <text transform="translate(502.8332 30.9229)" style="font-family: NotoSerifSC-Regular, &apos;Noto Serif SC&apos;; font-size: 18px; isolation: isolate;"><tspan x="0" y="0">爱</tspan></text>
    </g>
  </g>
  <g>
    <line x1="511.8334" y1="47.1926" x2="511.8334" y2="117.6837" style="fill: none; stroke: #000; stroke-miterlimit: 10;"/>
    <polygon points="508.1302 114.8751 511.8334 116.4483 515.5365 114.8751 511.8334 123.6534 508.1302 114.8751"/>
  </g>
  <rect x="610.9763" y=".7857" width="45.9048" height="45.9048" style="fill: none; stroke: #000; stroke-miterlimit: 10;"/>
  <g style="isolation: isolate;">
    <g style="isolation: isolate;">
      <text transform="translate(624.9287 31.4248)" style="font-family: NotoSerifSC-Regular, &apos;Noto Serif SC&apos;; font-size: 18px; isolation: isolate;"><tspan x="0" y="0">你</tspan></text>
    </g>
  </g>
  <g>
    <line x1="633.9286" y1="46.6905" x2="633.9286" y2="117.1815" style="fill: none; stroke: #000; stroke-miterlimit: 10;"/>
    <polygon points="630.2255 114.3729 633.9286 115.9462 637.6318 114.3729 633.9286 123.1513 630.2255 114.3729"/>
  </g>
  <g style="isolation: isolate;">
    <text transform="translate(109.4762 338.7589)" style="font-family: NotoSerifSC-Regular, &apos;Noto Serif SC&apos;; font-size: 18px; isolation: isolate;"><tspan x="0" y="0">En</tspan><tspan x="23.6338" y="0" style="letter-spacing: -.001em;">c</tspan><tspan x="33.2998" y="0" style="letter-spacing: .001em;">o</tspan><tspan x="44.0454" y="0" style="letter-spacing: 0em;">der</tspan></text>
  </g>
  <g style="isolation: isolate;">
    <text transform="translate(475.7525 338.759)" style="font-family: NotoSerifSC-Regular, &apos;Noto Serif SC&apos;; font-size: 18px; isolation: isolate;"><tspan x="0" y="0">De</tspan><tspan x="23.7056" y="0" style="letter-spacing: -.001em;">c</tspan><tspan x="33.3716" y="0" style="letter-spacing: .001em;">o</tspan><tspan x="44.1177" y="0">der</tspan></text>
  </g>
</svg>