<?xml version="1.0" encoding="UTF-8"?>
<svg id="_layer_1" xmlns="http://www.w3.org/2000/svg" viewBox="0 0 592.2373 372.2921">
  <g>
    <g>
      <rect x="224.1186" y=".5" width="144" height="69.931" style="isolation: isolate; opacity: .2; stroke: #000; stroke-miterlimit: 10;"/>
      <g style="isolation: isolate;">
        <text transform="translate(287.1185 41.0995)" style="font-family: NotoSerifSC-Regular, &apos;Noto Serif SC&apos;; font-size: 18px; isolation: isolate;"><tspan x="0" y="0">知</tspan></text>
      </g>
    </g>
    <g>
      <rect x="224.1186" y="138.1695" width="144" height="69.931" style="isolation: isolate; opacity: .2; stroke: #000; stroke-miterlimit: 10;"/>
      <g style="isolation: isolate;">
        <text transform="translate(287.1185 178.769)" style="font-family: NotoSerifSC-Regular, &apos;Noto Serif SC&apos;; font-size: 18px; isolation: isolate;"><tspan x="0" y="0">名</tspan></text>
      </g>
    </g>
    <g>
      <rect x="3.7346" y="138.1695" width="144" height="69.931" style="isolation: isolate; opacity: .2; stroke: #000; stroke-miterlimit: 10;"/>
      <g style="isolation: isolate;">
        <text transform="translate(66.7346 178.769)" style="font-family: NotoSerifSC-Regular, &apos;Noto Serif SC&apos;; font-size: 18px; isolation: isolate;"><tspan x="0" y="0">实</tspan></text>
      </g>
    </g>
    <g>
      <rect x="444.5024" y="138.1695" width="144" height="69.931" style="isolation: isolate; opacity: .2; stroke: #000; stroke-miterlimit: 10;"/>
      <g style="isolation: isolate;">
        <text transform="translate(507.5024 178.769)" style="font-family: NotoSerifSC-Regular, &apos;Noto Serif SC&apos;; font-size: 18px; isolation: isolate;"><tspan x="0" y="0">境</tspan></text>
      </g>
    </g>
    <g style="isolation: isolate;">
      <text transform="translate(313.3188 110.8591)" style="font-family: NotoSerifSC-Regular, &apos;Noto Serif SC&apos;; font-size: 18px; isolation: isolate;"><tspan x="0" y="0">推理</tspan></text>
    </g>
    <g>
      <polyline points="296.1186 70.9991 284.175 82.7409 291.2209 82.7409 291.2209 104.0867" style="fill: none; stroke: #000; stroke-miterlimit: 10;"/>
      <polyline points="296.1186 137.3835 284.175 125.6417 291.2209 125.6417 291.2209 104.296 291.2209 103.5561" style="fill: none; stroke: #000; stroke-miterlimit: 10;"/>
      <polyline points="295.5456 70.9991 307.4892 82.7409 300.4431 82.7409 300.4431 104.0867" style="fill: none; stroke: #000; stroke-miterlimit: 10;"/>
      <polyline points="295.5456 137.3835 307.4892 125.6417 300.4431 125.6417 300.4431 104.296 300.4431 103.5561" style="fill: none; stroke: #000; stroke-miterlimit: 10;"/>
    </g>
    <g>
      <polyline points="223.3755 175.467 211.6337 163.5234 211.6337 170.5694 190.2878 170.5694" style="fill: none; stroke: #000; stroke-miterlimit: 10;"/>
      <polyline points="147.9911 175.467 159.7328 163.5234 159.7328 170.5694 181.0786 170.5694 181.8185 170.5694" style="fill: none; stroke: #000; stroke-miterlimit: 10;"/>
      <polyline points="223.3755 174.894 211.6337 186.8376 211.6337 179.7916 190.2878 179.7916" style="fill: none; stroke: #000; stroke-miterlimit: 10;"/>
      <polyline points="147.9911 174.894 159.7328 186.8376 159.7328 179.7916 181.0786 179.7916 181.8185 179.7916" style="fill: none; stroke: #000; stroke-miterlimit: 10;"/>
      <line x1="180.2527" y1="170.5694" x2="194.4431" y2="170.5694" style="fill: none; stroke: #000; stroke-miterlimit: 10;"/>
      <line x1="179.1099" y1="179.7916" x2="195.3003" y2="179.7916" style="fill: none; stroke: #000; stroke-miterlimit: 10;"/>
    </g>
    <g>
      <polyline points="444.246 173.4214 432.5043 161.4778 432.5043 168.5238 411.1586 168.5238" style="fill: none; stroke: #000; stroke-miterlimit: 10;"/>
      <polyline points="368.8617 173.4214 380.6035 161.4778 380.6035 168.5238 401.9493 168.5238 402.689 168.5238" style="fill: none; stroke: #000; stroke-miterlimit: 10;"/>
      <polyline points="444.246 172.8484 432.5043 184.7921 432.5043 177.746 411.1586 177.746" style="fill: none; stroke: #000; stroke-miterlimit: 10;"/>
      <polyline points="368.8617 172.8484 380.6035 184.7921 380.6035 177.746 401.9493 177.746 402.689 177.746" style="fill: none; stroke: #000; stroke-miterlimit: 10;"/>
      <line x1="401.1234" y1="168.5238" x2="415.3138" y2="168.5238" style="fill: none; stroke: #000; stroke-miterlimit: 10;"/>
      <line x1="399.9805" y1="177.746" x2="416.171" y2="177.746" style="fill: none; stroke: #000; stroke-miterlimit: 10;"/>
    </g>
    <g>
      <path d="M266.6825,212.4809l16.7481-.1427-4.9823,4.9823,15.0937,15.0937s.134.134.271.2616l15.0937-15.0937-4.9823-4.9823,16.7481.1427" style="fill: none; stroke: #000; stroke-miterlimit: 10;"/>
      <path d="M267.0876,212.0757l-.1427,16.7481,4.9823-4.9823,15.0937,15.0937.5232.5232,6.2643,6.2643,6.5257-6.5259,15.0937-15.0937,4.9823,4.9823-.1427-16.7481" style="fill: none; stroke: #000; stroke-miterlimit: 10;"/>
    </g>
    <g style="isolation: isolate;">
      <text transform="translate(227.5547 110.8593)" style="font-family: NotoSerifSC-Regular, &apos;Noto Serif SC&apos;; font-size: 18px; isolation: isolate;"><tspan x="0" y="0" style="letter-spacing: -.045em;">（</tspan><tspan x="17.1899" y="0" style="letter-spacing: -.023em;">3</tspan></text>
      <text transform="translate(262.5469 110.8593)" style="font-family: NotoSerifSC-Regular, &apos;Noto Serif SC&apos;; font-size: 18px; isolation: isolate; letter-spacing: -.955em;"><tspan x="0" y="0">）</tspan></text>
    </g>
    <g style="isolation: isolate;">
      <text transform="translate(154.6874 163.7751)" style="font-family: NotoSerifSC-Regular, &apos;Noto Serif SC&apos;; font-size: 18px; isolation: isolate;"><tspan x="0" y="0" style="letter-spacing: -.045em;">（</tspan><tspan x="17.1899" y="0" style="letter-spacing: -.023em;">2</tspan></text>
      <text transform="translate(189.6797 163.7751)" style="font-family: NotoSerifSC-Regular, &apos;Noto Serif SC&apos;; font-size: 18px; isolation: isolate; letter-spacing: -.955em;"><tspan x="0" y="0">）</tspan></text>
    </g>
    <g style="isolation: isolate;">
      <text transform="translate(167.683 202.5098)" style="font-family: NotoSerifSC-Regular, &apos;Noto Serif SC&apos;; font-size: 18px; isolation: isolate;"><tspan x="0" y="0">语义</tspan></text>
    </g>
    <g style="isolation: isolate;">
      <text transform="translate(375.5579 160.7694)" style="font-family: NotoSerifSC-Regular, &apos;Noto Serif SC&apos;; font-size: 18px; isolation: isolate;"><tspan x="0" y="0" style="letter-spacing: -.045em;">（</tspan><tspan x="17.1899" y="0" style="letter-spacing: -.023em;">2</tspan></text>
      <text transform="translate(410.5501 160.7694)" style="font-family: NotoSerifSC-Regular, &apos;Noto Serif SC&apos;; font-size: 18px; isolation: isolate; letter-spacing: -.955em;"><tspan x="0" y="0">）</tspan></text>
    </g>
    <g style="isolation: isolate;">
      <text transform="translate(388.5535 199.504)" style="font-family: NotoSerifSC-Regular, &apos;Noto Serif SC&apos;; font-size: 18px; isolation: isolate;"><tspan x="0" y="0">语用</tspan></text>
    </g>
    <g style="isolation: isolate;">
      <text transform="translate(247.123 265.8752)" style="font-family: NotoSerifSC-Regular, &apos;Noto Serif SC&apos;; font-size: 18px; isolation: isolate;"><tspan x="0" y="0" style="letter-spacing: -.045em;">（</tspan><tspan x="17.1899" y="0" style="letter-spacing: -.023em;">1</tspan></text>
      <text transform="translate(282.1152 265.8752)" style="font-family: NotoSerifSC-Regular, &apos;Noto Serif SC&apos;; font-size: 18px; isolation: isolate; letter-spacing: -.955em;"><tspan x="0" y="0">）</tspan></text>
      <text transform="translate(291.9247 265.8752)" style="font-family: NotoSerifSC-Regular, &apos;Noto Serif SC&apos;; font-size: 18px; isolation: isolate;"><tspan x="0" y="0">形式</tspan></text>
    </g>
  </g>
  <g>
    <g style="isolation: isolate;">
      <text transform="translate(0 306.1964)" style="font-family: NotoSerifSC-Regular, &apos;Noto Serif SC&apos;; font-size: 18px; isolation: isolate;"><tspan x="0" y="0">名</tspan></text>
      <text transform="translate(18 306.1964)" style="font-family: NotoSerifSC-Regular, &apos;Noto Serif SC&apos;; font-size: 18px; isolation: isolate; letter-spacing: -1em;"><tspan x="0" y="0">：</tspan></text>
      <text transform="translate(27 306.1964)" style="font-family: NotoSerifSC-Regular, &apos;Noto Serif SC&apos;; font-size: 18px; isolation: isolate;"><tspan x="0" y="0">语言符号</tspan></text>
      <text transform="translate(0 327.7965)" style="font-family: NotoSerifSC-Regular, &apos;Noto Serif SC&apos;; font-size: 18px; isolation: isolate;"><tspan x="0" y="0">实</tspan></text>
      <text transform="translate(18 327.7965)" style="font-family: NotoSerifSC-Regular, &apos;Noto Serif SC&apos;; font-size: 18px; isolation: isolate; letter-spacing: -1em;"><tspan x="0" y="0">：</tspan></text>
      <text transform="translate(27 327.7965)" style="font-family: NotoSerifSC-Regular, &apos;Noto Serif SC&apos;; font-size: 18px; isolation: isolate;"><tspan x="0" y="0">客观事</tspan></text>
      <text transform="translate(81 327.7965)" style="font-family: NotoSerifSC-Regular, &apos;Noto Serif SC&apos;; font-size: 18px; isolation: isolate; letter-spacing: -.018em;"><tspan x="0" y="0">实</tspan></text>
      <text transform="translate(98.3164 327.7965)" style="font-family: NotoSerifSC-Regular, &apos;Noto Serif SC&apos;; font-size: 18px; isolation: isolate; letter-spacing: -.962em;"><tspan x="0" y="0">、</tspan></text>
      <text transform="translate(107.9995 327.7965)" style="font-family: NotoSerifSC-Regular, &apos;Noto Serif SC&apos;; font-size: 18px; isolation: isolate;"><tspan x="0" y="0">主观意见</tspan></text>
      <text transform="translate(0 349.3966)" style="font-family: NotoSerifSC-Regular, &apos;Noto Serif SC&apos;; font-size: 18px; isolation: isolate;"><tspan x="0" y="0">知</tspan></text>
      <text transform="translate(18 349.3966)" style="font-family: NotoSerifSC-Regular, &apos;Noto Serif SC&apos;; font-size: 18px; isolation: isolate; letter-spacing: -1em;"><tspan x="0" y="0">：</tspan></text>
      <text transform="translate(27 349.3966)" style="font-family: NotoSerifSC-Regular, &apos;Noto Serif SC&apos;; font-size: 18px; isolation: isolate;"><tspan x="0" y="0">知识</tspan></text>
      <text transform="translate(0 370.9962)" style="font-family: NotoSerifSC-Regular, &apos;Noto Serif SC&apos;; font-size: 18px; isolation: isolate;"><tspan x="0" y="0">境</tspan></text>
      <text transform="translate(18 370.9962)" style="font-family: NotoSerifSC-Regular, &apos;Noto Serif SC&apos;; font-size: 18px; isolation: isolate; letter-spacing: -1em;"><tspan x="0" y="0">：</tspan></text>
      <text transform="translate(27 370.9962)" style="font-family: NotoSerifSC-Regular, &apos;Noto Serif SC&apos;; font-size: 18px; isolation: isolate;"><tspan x="0" y="0">语言所处的环境</tspan></text>
    </g>
    <g style="isolation: isolate;">
      <text transform="translate(422.192 306.1963)" style="font-family: NotoSerifSC-Regular, &apos;Noto Serif SC&apos;; font-size: 18px; isolation: isolate;"><tspan x="0" y="0">(1)形式</tspan></text>
      <text transform="translate(480.4034 306.1963)" style="font-family: NotoSerifSC-Regular, &apos;Noto Serif SC&apos;; font-size: 18px; isolation: isolate; letter-spacing: -1em;"><tspan x="0" y="0">：</tspan></text>
      <text transform="translate(489.4034 306.1963)" style="font-family: NotoSerifSC-Regular, &apos;Noto Serif SC&apos;; font-size: 18px; isolation: isolate;"><tspan x="0" y="0">名</tspan></text>
      <text transform="translate(422.192 327.7964)" style="font-family: NotoSerifSC-Regular, &apos;Noto Serif SC&apos;; font-size: 18px; isolation: isolate;"><tspan x="0" y="0">(2)语义</tspan></text>
      <text transform="translate(480.4034 327.7964)" style="font-family: NotoSerifSC-Regular, &apos;Noto Serif SC&apos;; font-size: 18px; isolation: isolate; letter-spacing: -1em;"><tspan x="0" y="0">：</tspan></text>
      <text transform="translate(489.4034 327.7964)" style="font-family: NotoSerifSC-Regular, &apos;Noto Serif SC&apos;; font-size: 18px; isolation: isolate;"><tspan x="0" y="0">名+实</tspan></text>
      <text transform="translate(422.192 349.3965)" style="font-family: NotoSerifSC-Regular, &apos;Noto Serif SC&apos;; font-size: 18px; isolation: isolate;"><tspan x="0" y="0">(3)推理</tspan></text>
      <text transform="translate(480.4034 349.3965)" style="font-family: NotoSerifSC-Regular, &apos;Noto Serif SC&apos;; font-size: 18px; isolation: isolate; letter-spacing: -1em;"><tspan x="0" y="0">：</tspan></text>
      <text transform="translate(489.4034 349.3965)" style="font-family: NotoSerifSC-Regular, &apos;Noto Serif SC&apos;; font-size: 18px; isolation: isolate;"><tspan x="0" y="0">名+实+知</tspan></text>
      <text transform="translate(422.192 370.9961)" style="font-family: NotoSerifSC-Regular, &apos;Noto Serif SC&apos;; font-size: 18px; isolation: isolate;"><tspan x="0" y="0">(4)语用</tspan></text>
      <text transform="translate(480.4034 370.9961)" style="font-family: NotoSerifSC-Regular, &apos;Noto Serif SC&apos;; font-size: 18px; isolation: isolate; letter-spacing: -1em;"><tspan x="0" y="0">：</tspan></text>
      <text transform="translate(489.4034 370.9961)" style="font-family: NotoSerifSC-Regular, &apos;Noto Serif SC&apos;; font-size: 18px; isolation: isolate;"><tspan x="0" y="0">名+实+知+境</tspan></text>
    </g>
  </g>
</svg>