<?xml version="1.0" encoding="UTF-8"?>
<svg xmlns="http://www.w3.org/2000/svg" xmlns:xlink="http://www.w3.org/1999/xlink" viewBox="0 0 863.7 212.2">
  <defs>
    <radialGradient id="_未命名的渐变" data-name="未命名的渐变" cx="489.86" cy="2044.53" fx="489.86" fy="2044.53" r="13.9" gradientTransform="translate(912.53 -394.06) rotate(90) scale(1 .3)" gradientUnits="userSpaceOnUse">
      <stop offset="0" stop-color="#fff"/>
      <stop offset="0" stop-color="#000"/>
      <stop offset=".6" stop-color="#0a0a0a"/>
      <stop offset="1" stop-color="#efefef" stop-opacity="0"/>
    </radialGradient>
    <radialGradient id="_未命名的渐变_2" data-name="未命名的渐变 2" cx="506.56" cy="1996.83" fx="506.56" fy="1996.83" r="13.2" gradientTransform="translate(917.41 -416.13) rotate(90) scale(1 .3)" gradientUnits="userSpaceOnUse">
      <stop offset="0" stop-color="#fff"/>
      <stop offset="0" stop-color="#000"/>
      <stop offset=".6" stop-color="#0a0a0a"/>
      <stop offset="1" stop-color="#efefef" stop-opacity="0"/>
    </radialGradient>
    <radialGradient id="_未命名的渐变_3" data-name="未命名的渐变 3" cx="98.73" cy="743.75" fx="98.73" fy="743.75" r="13.5" gradientTransform="translate(244.75 -427.5) scale(1 .7)" gradientUnits="userSpaceOnUse">
      <stop offset="0" stop-color="#fff"/>
      <stop offset="0" stop-color="#000"/>
      <stop offset=".6" stop-color="#0a0a0a"/>
      <stop offset="1" stop-color="#efefef" stop-opacity="0"/>
    </radialGradient>
    <radialGradient id="_未命名的渐变_4" data-name="未命名的渐变 4" cx="328.07" cy="744.39" fx="328.07" fy="744.39" r="14.01" gradientTransform="translate(0 -555.69) scale(1 .9)" gradientUnits="userSpaceOnUse">
      <stop offset="0" stop-color="#fff"/>
      <stop offset="0" stop-color="#000"/>
      <stop offset=".6" stop-color="#0a0a0a"/>
      <stop offset="1" stop-color="#efefef" stop-opacity="0"/>
    </radialGradient>
    <radialGradient id="_未命名的渐变_5" data-name="未命名的渐变 5" cx="322.5" cy="1529.14" fx="322.5" fy="1529.14" r="14.5" gradientTransform="translate(0 -508.02) scale(1 .4)" gradientUnits="userSpaceOnUse">
      <stop offset="0" stop-color="#fff"/>
      <stop offset="0" stop-color="#000"/>
      <stop offset=".6" stop-color="#0a0a0a"/>
      <stop offset="1" stop-color="#efefef" stop-opacity="0"/>
    </radialGradient>
    <radialGradient id="_未命名的渐变_6" data-name="未命名的渐变 6" cx="669" cy="1108.3" fx="669" fy="1108.3" r="14" gradientTransform="translate(971.98 -544.76) rotate(90) scale(1 .6)" gradientUnits="userSpaceOnUse">
      <stop offset="0" stop-color="#fff"/>
      <stop offset="0" stop-color="#000"/>
      <stop offset=".6" stop-color="#0a0a0a"/>
      <stop offset="1" stop-color="#efefef" stop-opacity="0"/>
    </radialGradient>
    <radialGradient id="_未命名的渐变_7" data-name="未命名的渐变 7" cx="335.39" cy="1576.33" fx="335.39" fy="1576.33" r="14.2" gradientTransform="translate(-132.33 -503.31) scale(1.4 .4)" gradientUnits="userSpaceOnUse">
      <stop offset="0" stop-color="#fff"/>
      <stop offset="0" stop-color="#000"/>
      <stop offset=".6" stop-color="#0a0a0a"/>
      <stop offset="1" stop-color="#efefef" stop-opacity="0"/>
    </radialGradient>
    <radialGradient id="_未命名的渐变_8" data-name="未命名的渐变 8" cx="571.03" cy="2941.72" fx="571.03" fy="2941.72" r="12.9" gradientTransform="translate(900.52 -188.99) rotate(90) scale(.5 .2)" gradientUnits="userSpaceOnUse">
      <stop offset="0" stop-color="#fff"/>
      <stop offset="0" stop-color="#000"/>
      <stop offset=".6" stop-color="#0a0a0a"/>
      <stop offset="1" stop-color="#efefef" stop-opacity="0"/>
    </radialGradient>
  </defs>
  <g style="isolation: isolate;">
    <g id="_layer_1" data-name="layer_1">
      <circle cx="21.5" cy="82.6" r="2.5"/>
      <circle cx="21.5" cy="82.6" r="2.5"/>
      <circle cx="21.5" cy="82.6" r="2.5"/>
      <circle cx="21.5" cy="82.6" r="2.5"/>
      <circle cx="21.5" cy="82.6" r="2.5"/>
      <circle cx="21.5" cy="82.6" r="2.5"/>
      <circle cx="41.9" cy="87.6" r="2.5"/>
      <circle cx="57.6" cy="99.8" r="2.5"/>
      <circle cx="28" cy="92.6" r="2.5"/>
      <circle cx="44.4" cy="99.8" r="2.5"/>
      <circle cx="51" cy="110.7" r="2.5"/>
      <circle cx="34.9" cy="118.3" r="2.5"/>
      <circle cx="46.9" cy="124.4" r="2.5"/>
      <circle cx="58.5" cy="122" r="2.5"/>
      <circle cx="23" cy="123.3" r="2.5"/>
      <circle cx="28" cy="137.6" r="2.5"/>
      <rect x="113.9" y="92.2" width="123.9" height="45.8" style="fill: none; stroke: #000; stroke-miterlimit: 10;"/>
      <line x1="71.4" y1="113.2" x2="95.7" y2="113.2" style="fill: none; stroke: #000; stroke-miterlimit: 10;"/>
      <polygon points="93.7 116.1 104.6 113.2 93.7 110.3 93.7 116.1"/>
      <line x1="250.5" y1="113.2" x2="274.7" y2="113.2" style="fill: none; stroke: #000; stroke-miterlimit: 10;"/>
      <polygon points="272.8 116.1 283.6 113.2 272.8 110.3 272.8 116.1"/>
      <ellipse cx="299.19" cy="95.71" rx="4.2" ry="13.8" transform="translate(118.39 352.59) rotate(-72.6)" style="fill: url(#_未命名的渐变); isolation: isolate; mix-blend-mode: overlay;"/>
      <ellipse cx="318.37" cy="90.43" rx="3.8" ry="13.8" transform="translate(136.87 367.19) rotate(-72.6)" style="fill: url(#_未命名的渐变_2); isolation: isolate; mix-blend-mode: overlay;"/>
      <ellipse cx="343.48" cy="93.12" rx="13.8" ry="9.3" transform="translate(-5.09 164.87) rotate(-26.8)" style="fill: url(#_未命名的渐变_3); isolation: isolate; mix-blend-mode: overlay;"/>
      <ellipse cx="328.07" cy="114.26" rx="13.8" ry="12.8" style="fill: url(#_未命名的渐变_4); isolation: isolate; mix-blend-mode: overlay;"/>
      <ellipse cx="322.5" cy="103.7" rx="13.8" ry="6.1" style="fill: url(#_未命名的渐变_5); isolation: isolate; mix-blend-mode: overlay;"/>
      <ellipse cx="306.98" cy="124.24" rx="8.5" ry="13.8" transform="translate(29.76 305.41) rotate(-55.2)" style="fill: url(#_未命名的渐变_6); isolation: isolate; mix-blend-mode: overlay;"/>
      <ellipse cx="337.29" cy="127.17" rx="19.1" ry="5.9" transform="translate(-14.82 50.02) rotate(-8.3)" style="fill: url(#_未命名的渐变_7); isolation: isolate; mix-blend-mode: overlay;"/>
      <rect x="409.4" y="140.3" width="141.7" height="59.5" style="fill: none; stroke: #000; stroke-miterlimit: 10;"/>
      <rect x="409.4" y="18.1" width="141.7" height="59.5" style="fill: none; stroke: #000; stroke-miterlimit: 10;"/>
      <rect x="599" y="85.6" width="141.7" height="59.5" style="fill: none; stroke: #000; stroke-miterlimit: 10;"/>
      <rect x="113.9" y="92.5" width="123.9" height="45.8" style="isolation: isolate; opacity: .1;"/>
      <rect x="409.4" y="140.6" width="141.7" height="59.5" style="isolation: isolate; opacity: .1;"/>
      <rect x="409.4" y="18.5" width="141.7" height="59.5" style="isolation: isolate; opacity: .1;"/>
      <rect x="599" y="85.6" width="141.7" height="59.5" style="isolation: isolate; opacity: .1;"/>
      <rect x="776.4" y="91.6" width="79.2" height="47.4" style="fill: none; stroke: #000; stroke-miterlimit: 10;"/>
      <path d="M355.3,69.5c7.7-13.9,28.4-19.1,40.3-21" style="fill: none; stroke: #000; stroke-miterlimit: 10;"/>
      <polygon points="394.1 51.7 404.4 47.4 393.3 45.9 394.1 51.7"/>
      <path d="M405.8,177.2c-18.8-.9-40.6-24.2-50.6-36.1" style="fill: none; stroke: #000; stroke-miterlimit: 10;"/>
      <polygon points="358.8 140.8 349.7 134.2 354.3 144.4 358.8 140.8"/>
      <path d="M556,48.8c24-.7,38.4,14,45.1,23.5" style="fill: none; stroke: #000; stroke-miterlimit: 10;"/>
      <polygon points="597.5 72.2 605.7 79.9 602.5 69.1 597.5 72.2"/>
      <path d="M598.4,147.6c-.3,1-.7,1.9-1.1,2.8" style="fill: none; stroke: #000; stroke-miterlimit: 10;"/>
      <path d="M594.5,155.6c-6.7,10.6-17.3,16.3-25.9,19.3" style="fill: none; stroke: #000; stroke-dasharray: 6 6; stroke-miterlimit: 10;"/>
      <path d="M565.7,175.9c-1,.3-2,.6-2.9.8" style="fill: none; stroke: #000; stroke-miterlimit: 10;"/>
      <polygon points="564.2 173.4 554.1 178.4 565.3 179.1 564.2 173.4"/>
      <line x1="742" y1="107.8" x2="766.3" y2="107.8" style="fill: none; stroke: #000; stroke-miterlimit: 10;"/>
      <polygon points="764.3 110.8 775.1 107.8 764.3 104.9 764.3 110.8"/>
      <line x1="775.1" y1="120.6" x2="772.1" y2="120.6" style="fill: none; stroke: #000; stroke-miterlimit: 10;"/>
      <line x1="766" y1="120.6" x2="756.9" y2="120.6" style="fill: none; stroke: #000; stroke-dasharray: 6.1 6.1; stroke-miterlimit: 10;"/>
      <line x1="753.8" y1="120.6" x2="750.8" y2="120.6" style="fill: none; stroke: #000; stroke-miterlimit: 10;"/>
      <polygon points="752.8 117.6 742 120.6 752.8 123.5 752.8 117.6"/>
      <path d="M596.4,84c-.4-.9-.8-1.9-1.2-2.7" style="fill: none; stroke: #000; stroke-miterlimit: 10;"/>
      <path d="M592.5,76.7c-6.1-8.7-15.5-13.5-23.4-16.1" style="fill: none; stroke: #000; stroke-dasharray: 5.2 5.2; stroke-miterlimit: 10;"/>
      <path d="M566.7,59.8c-1-.3-2-.6-2.9-.8" style="fill: none; stroke: #000; stroke-miterlimit: 10;"/>
      <polygon points="566.3 56.7 555.1 57.5 565.2 62.4 566.3 56.7"/>
      <path d="M404.4,55.5c-20.8,3.6-21.9,4.3-29.8,7.9-3.7,1.7-7.4,5.4-10.2,8.7" style="fill: none; stroke: #000; stroke-dasharray: 6 6; stroke-miterlimit: 10;"/>
      <polygon points="363.4 68.9 359.3 79.3 368.1 72.4 363.4 68.9"/>
      <rect x="287.3" y="18.5" width="79.2" height="25" style="fill: none; stroke: #000; stroke-miterlimit: 10;"/>
      <line x1="370.4" y1="30.9" x2="394.6" y2="30.9" style="fill: none; stroke: #000; stroke-miterlimit: 10;"/>
      <polygon points="392.7 33.8 403.5 30.9 392.7 28 392.7 33.8"/>
      <rect x="11.4" y="4.7" width="216.9" height="49.9" style="fill: none; stroke: #000; stroke-miterlimit: 10;"/>
      <line x1="160.3" y1="20.4" x2="207.6" y2="20.4" style="fill: none; stroke: #000; stroke-miterlimit: 10;"/>
      <polygon points="205.7 23.3 216.5 20.4 205.7 17.5 205.7 23.3"/>
      <line x1="160.3" y1="42" x2="163.3" y2="42" style="fill: none; stroke: #000; stroke-miterlimit: 10;"/>
      <line x1="169.2" y1="42" x2="201.7" y2="42" style="fill: none; stroke: #000; stroke-dasharray: 5.9 5.9; stroke-miterlimit: 10;"/>
      <line x1="204.6" y1="42" x2="207.6" y2="42" style="fill: none; stroke: #000; stroke-miterlimit: 10;"/>
      <polygon points="205.7 44.9 216.5 42 205.7 39.1 205.7 44.9"/>
      <g style="isolation: isolate;">
        <text transform="translate(8.2 177)" style="font-family: NotoSerifSC-Regular, &apos;Noto Serif SC&apos;; font-size: 18px; isolation: isolate;"><tspan x="0" y="0" style="letter-spacing: 0em;">S</tspan><tspan x="10.1" y="0" style="letter-spacing: .03em;">f</tspan><tspan x="17.69" y="0">M </tspan><tspan x="39.85" y="0" style="letter-spacing: -.02em;">P</tspan><tspan x="51.01" y="0">oi</tspan><tspan x="67.71" y="0" style="letter-spacing: 0em;">n</tspan><tspan x="79.59" y="0" style="letter-spacing: 0em;">t</tspan><tspan x="86.22" y="0">s</tspan></text>
      </g>
      <g style="isolation: isolate;">
        <text transform="translate(118.9 122.72)" style="font-family: NotoSerifSC-Regular, &apos;Noto Serif SC&apos;; font-size: 18px; isolation: isolate;"><tspan x="0" y="0">Initialization</tspan></text>
      </g>
      <g style="isolation: isolate;">
        <text transform="translate(255.8 177)" style="font-family: NotoSerifSC-Regular, &apos;Noto Serif SC&apos;; font-size: 18px; isolation: isolate;"><tspan x="0" y="0">3D </tspan><tspan x="28.37" y="0" style="letter-spacing: 0em;">G</tspan><tspan x="41.78" y="0" style="letter-spacing: 0em;">a</tspan><tspan x="51.77" y="0" style="letter-spacing: 0em;">u</tspan><tspan x="63.54" y="0">s</tspan><tspan x="72.05" y="0" style="letter-spacing: 0em;">s</tspan><tspan x="80.55" y="0">ians</tspan></text>
      </g>
      <g style="isolation: isolate;">
        <text transform="translate(434.9 55.7)" style="font-family: NotoSerifSC-Regular, &apos;Noto Serif SC&apos;; font-size: 18px; isolation: isolate;"><tspan x="0" y="0" style="letter-spacing: 0em;">P</tspan><tspan x="11.5" y="0" style="letter-spacing: -.02em;">r</tspan><tspan x="19.48" y="0">oje</tspan><tspan x="45.65" y="0" style="letter-spacing: 0em;">c</tspan><tspan x="55.31" y="0">tion</tspan></text>
      </g>
      <g style="isolation: isolate;">
        <text transform="translate(441.3 167.1)" style="font-family: NotoSerifSC-Regular, &apos;Noto Serif SC&apos;; font-size: 18px; isolation: isolate;"><tspan x="0" y="0" style="letter-spacing: -.02em;">A</tspan><tspan x="12.64" y="0" style="letter-spacing: 0em;">d</tspan><tspan x="23.87" y="0" style="letter-spacing: -.02em;">a</tspan><tspan x="33.61" y="0" style="letter-spacing: 0em;">p</tspan><tspan x="45.05" y="0">t</tspan><tspan x="51.66" y="0" style="letter-spacing: 0em;">i</tspan><tspan x="57.46" y="0" style="letter-spacing: -.02em;">v</tspan><tspan x="67" y="0">e</tspan></text>
      </g>
      <g style="isolation: isolate;">
        <text transform="translate(411.3 188.7)" style="font-family: NotoSerifSC-Regular, &apos;Noto Serif SC&apos;; font-size: 18px; isolation: isolate;"><tspan x="0" y="0">Den</tspan><tspan x="35.6" y="0" style="letter-spacing: 0em;">s</tspan><tspan x="44.1" y="0">i</tspan><tspan x="50.08" y="0" style="letter-spacing: 0em;">t</tspan><tspan x="56.7" y="0">y Co</tspan><tspan x="94.41" y="0" style="letter-spacing: 0em;">n</tspan><tspan x="106.29" y="0">t</tspan><tspan x="112.89" y="0" style="letter-spacing: -.02em;">r</tspan><tspan x="120.87" y="0" style="letter-spacing: 0em;">o</tspan><tspan x="131.56" y="0">l</tspan></text>
      </g>
      <g style="isolation: isolate;">
        <text transform="translate(605.7 112.4)" style="font-family: NotoSerifSC-Regular, &apos;Noto Serif SC&apos;; font-size: 18px; isolation: isolate;"><tspan x="0" y="0">Di</tspan><tspan x="19.84" y="0" style="letter-spacing: -.02em;">ff</tspan><tspan x="32.54" y="0">e</tspan><tspan x="42.39" y="0" style="letter-spacing: -.02em;">r</tspan><tspan x="50.36" y="0" style="letter-spacing: 0em;">e</tspan><tspan x="60.21" y="0" style="letter-spacing: 0em;">n</tspan><tspan x="72.09" y="0">tia</tspan><tspan x="94.7" y="0" style="letter-spacing: 0em;">b</tspan><tspan x="106.14" y="0">le</tspan></text>
      </g>
      <g style="isolation: isolate;">
        <text transform="translate(605.7 134)" style="font-family: NotoSerifSC-Regular, &apos;Noto Serif SC&apos;; font-size: 18px; isolation: isolate;"><tspan x="0" y="0" style="letter-spacing: 0em;">T</tspan><tspan x="11.81" y="0">ile </tspan><tspan x="38.25" y="0" style="letter-spacing: 0em;">R</tspan><tspan x="51.1" y="0">as</tspan><tspan x="69.64" y="0" style="letter-spacing: 0em;">t</tspan><tspan x="76.23" y="0">erizer</tspan></text>
      </g>
      <g style="isolation: isolate;">
        <text transform="translate(788 121)" style="font-family: NotoSerifSC-Regular, &apos;Noto Serif SC&apos;; font-size: 18px; isolation: isolate;"><tspan x="0" y="0">I</tspan><tspan x="7.29" y="0" style="letter-spacing: 0em;">m</tspan><tspan x="24.8" y="0" style="letter-spacing: 0em;">a</tspan><tspan x="34.76" y="0" style="letter-spacing: 0em;">g</tspan><tspan x="44.82" y="0">e</tspan></text>
      </g>
      <g style="isolation: isolate;">
        <text transform="translate(292.1 36.5)" style="font-family: NotoSerifSC-Regular, &apos;Noto Serif SC&apos;; font-size: 18px; isolation: isolate;"><tspan x="0" y="0">Came</tspan><tspan x="49.84" y="0" style="letter-spacing: -.01em;">r</tspan><tspan x="57.91" y="0">a</tspan></text>
      </g>
      <g style="isolation: isolate;">
        <text transform="translate(18.4 23.8)" style="font-family: NotoSerifSC-Regular, &apos;Noto Serif SC&apos;; font-size: 18px; isolation: isolate;"><tspan x="0" y="0">O</tspan><tspan x="13.81" y="0" style="letter-spacing: 0em;">p</tspan><tspan x="25.31" y="0">e</tspan><tspan x="35.15" y="0" style="letter-spacing: -.01em;">r</tspan><tspan x="43.22" y="0">ation </tspan><tspan x="93.06" y="0" style="letter-spacing: 0em;">F</tspan><tspan x="104.24" y="0">l</tspan><tspan x="110.25" y="0" style="letter-spacing: 0em;">o</tspan><tspan x="120.96" y="0">w</tspan></text>
      </g>
      <g style="isolation: isolate;">
        <text transform="translate(23.9 46.7)" style="font-family: NotoSerifSC-Regular, &apos;Noto Serif SC&apos;; font-size: 18px; isolation: isolate;"><tspan x="0" y="0">G</tspan><tspan x="13.34" y="0" style="letter-spacing: -.01em;">r</tspan><tspan x="21.4" y="0">adie</tspan><tspan x="58.57" y="0" style="letter-spacing: 0em;">n</tspan><tspan x="70.45" y="0">t </tspan><tspan x="81.67" y="0" style="letter-spacing: 0em;">F</tspan><tspan x="92.84" y="0">l</tspan><tspan x="98.86" y="0" style="letter-spacing: 0em;">o</tspan><tspan x="109.57" y="0">w</tspan></text>
      </g>
    </g>
  </g>
</svg>