<?xml version="1.0" encoding="UTF-8"?>
<svg id="_图层_1" xmlns="http://www.w3.org/2000/svg" viewBox="0 0 298.1429 130.3702">
  <text transform="translate(29.0365 45.0588)" style="font-family: NotoSerifSC-Regular, &apos;Noto Serif SC&apos;; font-size: 18px;"><tspan x="0" y="0">Sno</tspan></text>
  <text transform="translate(112.6347 45.0588)" style="font-family: NotoSerifSC-Regular, &apos;Noto Serif SC&apos;; font-size: 18px;"><tspan x="0" y="0">Cno</tspan></text>
  <text transform="translate(233.6992 45.0588)" style="font-family: NotoSerifSC-Regular, &apos;Noto Serif SC&apos;; font-size: 18px;"><tspan x="0" y="0">G</tspan><tspan x="13.3379" y="0" style="letter-spacing: -.014em;">r</tspan><tspan x="21.4019" y="0">ade</tspan></text>
  <rect x="17.2619" y="23.759" width="56.381" height="28.8154" style="fill: none; stroke: #000; stroke-miterlimit: 10;"/>
  <rect x="101.9762" y="23.759" width="56.381" height="28.8154" style="fill: none; stroke: #000; stroke-miterlimit: 10;"/>
  <rect x=".5" y=".5" width="174.2857" height="73.3333" style="fill: none; stroke: #000; stroke-miterlimit: 10;"/>
  <rect x="222.352" y="23.811" width="75.2908" height="28.8154" style="fill: none; stroke: #000; stroke-miterlimit: 10;"/>
  <g>
    <line x1="174.7857" y1="37.1667" x2="216.3823" y2="37.1667" style="fill: none; stroke: #000; stroke-miterlimit: 10;"/>
    <polygon points="213.5737 40.8698 215.147 37.1667 213.5737 33.4635 222.352 37.1667 213.5737 40.8698"/>
  </g>
  <g>
    <line x1="45.4524" y1="52.5744" x2="45.4524" y2="94.3052" style="fill: none; stroke: #000; stroke-miterlimit: 10;"/>
    <polygon points="41.7492 91.4966 45.4524 93.0699 49.1555 91.4966 45.4524 100.275 41.7492 91.4966"/>
  </g>
  <text transform="translate(19.1542 121.5228)" style="font-family: NotoSerifSC-Regular, &apos;Noto Serif SC&apos;; font-size: 18px;"><tspan x="0" y="0">Sd</tspan><tspan x="21.5278" y="0" style="letter-spacing: -.005em;">e</tspan><tspan x="31.2837" y="0" style="letter-spacing: -.002em;">p</tspan><tspan x="42.7314" y="0">t</tspan></text>
  <rect x="7.807" y="100.275" width="75.2908" height="28.8154" style="fill: none; stroke: #000; stroke-miterlimit: 10;"/>
  <text transform="translate(139.1541 121.5228)" style="font-family: NotoSerifSC-Regular, &apos;Noto Serif SC&apos;; font-size: 18px;"><tspan x="0" y="0">M</tspan><tspan x="17.5498" y="0" style="letter-spacing: -.001em;">n</tspan><tspan x="29.4297" y="0">ame</tspan></text>
  <rect x="127.807" y="100.275" width="90.0264" height="28.8154" style="fill: none; stroke: #000; stroke-miterlimit: 10;"/>
  <g>
    <line x1="83.0978" y1="114.6826" x2="121.8372" y2="114.6826" style="fill: none; stroke: #000; stroke-miterlimit: 10;"/>
    <polygon points="119.0287 118.3858 120.6019 114.6826 119.0287 110.9795 127.807 114.6826 119.0287 118.3858"/>
  </g>
</svg>