<?xml version="1.0" encoding="UTF-8"?>
<svg id="_图层_1" xmlns="http://www.w3.org/2000/svg" viewBox="0 0 334.8549 140.4286">
  <g>
    <text transform="translate(145.9232 35.8679)" style="font-family: NotoSerifSC-Regular, &apos;Noto Serif SC&apos;; font-size: 18px;"><tspan x="0" y="0">Sno</tspan></text>
    <rect x="133.4501" y="16.5" width="57.7778" height="25.7778" style="fill: none; stroke: #000; stroke-miterlimit: 10;"/>
  </g>
  <g>
    <text transform="translate(144.8073 118.4479)" style="font-family: NotoSerifSC-Regular, &apos;Noto Serif SC&apos;; font-size: 18px;"><tspan x="0" y="0">Cno</tspan></text>
    <rect x="133.4501" y="98.8492" width="57.7778" height="25.7778" style="fill: none; stroke: #000; stroke-miterlimit: 10;"/>
  </g>
  <g>
    <text transform="translate(274.0243 35.8679)" style="font-family: NotoSerifSC-Regular, &apos;Noto Serif SC&apos;; font-size: 18px;"><tspan x="0" y="0">Sd</tspan><tspan x="21.5278" y="0" style="letter-spacing: -.005em;">e</tspan><tspan x="31.2837" y="0" style="letter-spacing: -.002em;">p</tspan><tspan x="42.7314" y="0">t</tspan></text>
    <rect x="261.5512" y="16.5" width="72.8036" height="25.7778" style="fill: none; stroke: #000; stroke-miterlimit: 10;"/>
  </g>
  <g>
    <text transform="translate(280.6909 118.3326)" style="font-family: NotoSerifSC-Regular, &apos;Noto Serif SC&apos;; font-size: 18px;"><tspan x="0" y="0" style="letter-spacing: -.002em;">S</tspan><tspan x="10.1699" y="0" style="letter-spacing: 0em;">l</tspan><tspan x="16.1816" y="0" style="letter-spacing: .001em;">o</tspan><tspan x="26.9272" y="0">c</tspan></text>
    <rect x="268.2179" y="98.9647" width="59.4703" height="25.7778" style="fill: none; stroke: #000; stroke-miterlimit: 10;"/>
  </g>
  <g>
    <text transform="translate(9.973 76.4572)" style="font-family: NotoSerifSC-Regular, &apos;Noto Serif SC&apos;; font-size: 18px;"><tspan x="0" y="0">G</tspan><tspan x="13.3379" y="0" style="letter-spacing: -.014em;">r</tspan><tspan x="21.4019" y="0">ade</tspan></text>
    <rect x=".5" y="57.0893" width="72.8036" height="25.7778" style="fill: none; stroke: #000; stroke-miterlimit: 10;"/>
  </g>
  <rect x="119.7993" y=".5" width="85.0794" height="139.4286" style="fill: none; stroke: #000; stroke-miterlimit: 10;"/>
  <g>
    <line x1="191.2279" y1="29.3889" x2="263.7888" y2="94.9621" style="fill: none; stroke: #000; stroke-miterlimit: 10;"/>
    <polygon points="259.2222 95.8265 262.8723 94.1338 264.1879 90.3316 268.2179 98.9647 259.2222 95.8265"/>
  </g>
  <g>
    <line x1="255.5815" y1="29.3889" x2="191.2279" y2="29.3889" style="fill: none; stroke: #000; stroke-miterlimit: 10;"/>
    <polygon points="252.7729 25.6858 254.3462 29.3889 252.7729 33.092 261.5513 29.3889 252.7729 25.6858"/>
  </g>
  <g>
    <line x1="191.2279" y1="111.8536" x2="197.2279" y2="111.8536" style="fill: none; stroke: #000; stroke-miterlimit: 10;"/>
    <line x1="203.1299" y1="111.8536" x2="253.2972" y2="111.8536" style="fill: none; stroke: #000; stroke-dasharray: 11.8041 5.902; stroke-miterlimit: 10;"/>
    <line x1="256.2482" y1="111.8536" x2="262.2482" y2="111.8536" style="fill: none; stroke: #000; stroke-miterlimit: 10;"/>
    <polygon points="259.4396 115.5567 261.0128 111.8536 259.4396 108.1505 268.2179 111.8536 259.4396 115.5567"/>
  </g>
  <g>
    <line x1="257.3075" y1="46.4764" x2="253.0423" y2="50.6963" style="fill: none; stroke: #000; stroke-miterlimit: 10;"/>
    <line x1="248.6154" y1="55.0761" x2="197.7066" y2="105.4438" style="fill: none; stroke: #000; stroke-dasharray: 12.4547 6.2273; stroke-miterlimit: 10;"/>
    <line x1="195.4932" y1="107.6337" x2="191.2279" y2="111.8536" style="fill: none; stroke: #000; stroke-miterlimit: 10;"/>
    <polygon points="252.7065 45.8193 256.4293 47.3452 257.9155 51.0842 261.5513 42.2778 252.7065 45.8193"/>
  </g>
  <g>
    <line x1="297.9531" y1="42.2778" x2="297.9531" y2="92.995" style="fill: none; stroke: #000; stroke-miterlimit: 10;"/>
    <polygon points="294.25 90.1864 297.9531 91.7596 301.6562 90.1864 297.9531 98.9647 294.25 90.1864"/>
  </g>
  <g>
    <line x1="119.7993" y1="70.2143" x2="79.2734" y2="70.2143" style="fill: none; stroke: #000; stroke-miterlimit: 10;"/>
    <polygon points="82.082 66.5112 80.5087 70.2143 82.082 73.9174 73.3037 70.2143 82.082 66.5112"/>
  </g>
</svg>