<?xml version="1.0" encoding="UTF-8"?>
<svg id="_图层_1" xmlns="http://www.w3.org/2000/svg" viewBox="0 0 284.4683 109.9524">
  <text transform="translate(18.1468 32.4028)" style="font-family: NotoSerifSC-Regular, &apos;Noto Serif SC&apos;; font-size: 18px;"><tspan x="0" y="0">S</tspan></text>
  <rect x="13.0079" y="15.8333" width="20.4444" height="20.4444" style="fill: none; stroke: #000; stroke-miterlimit: 10;"/>
  <text transform="translate(20.1468 90.0144)" style="font-family: NotoSerifSC-Regular, &apos;Noto Serif SC&apos;; font-size: 18px;"><tspan x="0" y="0">J</tspan></text>
  <rect x="13.0079" y="74.4449" width="20.4444" height="20.4444" style="fill: none; stroke: #000; stroke-miterlimit: 10;"/>
  <text transform="translate(109.1941 31.9098)" style="font-family: NotoSerifSC-Regular, &apos;Noto Serif SC&apos;; font-size: 18px;"><tspan x="0" y="0">T</tspan></text>
  <rect x="105.0552" y="15.3403" width="20.4444" height="20.4444" style="fill: none; stroke: #000; stroke-miterlimit: 10;"/>
  <rect x=".5" y=".5" width="45.8413" height="108.9524" style="fill: none; stroke: #000; stroke-miterlimit: 10;"/>
  <g>
    <line x1="46.3413" y1="25.5625" x2="99.0854" y2="25.5625" style="fill: none; stroke: #000; stroke-miterlimit: 10;"/>
    <polygon points="96.2768 29.2656 97.8501 25.5625 96.2768 21.8594 105.0552 25.5625 96.2768 29.2656"/>
  </g>
  <g>
    <line x1="115.2774" y1="35.7847" x2="38.5772" y2="81.6055" style="fill: none; stroke: #000; stroke-miterlimit: 10;"/>
    <polygon points="39.0892 76.9861 39.6378 80.972 42.8875 83.3442 33.4524 84.6671 39.0892 76.9861"/>
  </g>
  <text transform="translate(172.638 32.4028)" style="font-family: NotoSerifSC-Regular, &apos;Noto Serif SC&apos;; font-size: 18px;"><tspan x="0" y="0">S</tspan></text>
  <rect x="167.4991" y="15.8333" width="20.4444" height="20.4444" style="fill: none; stroke: #000; stroke-miterlimit: 10;"/>
  <text transform="translate(266.6852 31.132)" style="font-family: NotoSerifSC-Regular, &apos;Noto Serif SC&apos;; font-size: 18px;"><tspan x="0" y="0">J</tspan></text>
  <rect x="259.5463" y="15.5625" width="20.4444" height="20.4444" style="fill: none; stroke: #000; stroke-miterlimit: 10;"/>
  <text transform="translate(171.6379 91.0144)" style="font-family: NotoSerifSC-Regular, &apos;Noto Serif SC&apos;; font-size: 18px;"><tspan x="0" y="0">T</tspan></text>
  <rect x="167.4991" y="74.4449" width="20.4444" height="20.4444" style="fill: none; stroke: #000; stroke-miterlimit: 10;"/>
  <rect x="154.9911" y=".5" width="45.8413" height="108.9524" style="fill: none; stroke: #000; stroke-miterlimit: 10;"/>
  <g>
    <line x1="200.8324" y1="25.5625" x2="253.5766" y2="25.5625" style="fill: none; stroke: #000; stroke-miterlimit: 10;"/>
    <polygon points="250.768 29.2656 252.3412 25.5625 250.768 21.8594 259.5463 25.5625 250.768 29.2656"/>
  </g>
  <g>
    <line x1="265.0292" y1="39.0473" x2="187.9435" y2="84.6671" style="fill: none; stroke: #000; stroke-miterlimit: 10;"/>
    <polygon points="260.7261 37.2909 263.9661 39.6765 264.4981 43.6646 270.1667 36.007 260.7261 37.2909"/>
  </g>
</svg>