<?xml version="1.0" encoding="UTF-8"?>
<svg id="_图层_1" xmlns="http://www.w3.org/2000/svg" viewBox="0 0 172.9048 109.6154">
  <g>
    <text transform="translate(12.973 62.8642)" style="font-family: NotoSerifSC-Regular, &apos;Noto Serif SC&apos;; font-size: 18px;"><tspan x="0" y="0">Sno</tspan></text>
    <rect x=".5" y="43.4963" width="57.7778" height="25.7778" style="fill: none; stroke: #000; stroke-miterlimit: 10;"/>
  </g>
  <g>
    <text transform="translate(112.0741 19.8679)" style="font-family: NotoSerifSC-Regular, &apos;Noto Serif SC&apos;; font-size: 18px;"><tspan x="0" y="0">Sd</tspan><tspan x="21.5278" y="0" style="letter-spacing: -.005em;">e</tspan><tspan x="31.2837" y="0" style="letter-spacing: -.002em;">p</tspan><tspan x="42.7314" y="0">t</tspan></text>
    <rect x="99.6011" y=".5" width="72.8036" height="25.7778" style="fill: none; stroke: #000; stroke-miterlimit: 10;"/>
  </g>
  <g>
    <text transform="translate(118.7408 102.3326)" style="font-family: NotoSerifSC-Regular, &apos;Noto Serif SC&apos;; font-size: 18px;"><tspan x="0" y="0" style="letter-spacing: -.002em;">S</tspan><tspan x="10.1699" y="0" style="letter-spacing: 0em;">l</tspan><tspan x="16.1816" y="0" style="letter-spacing: .001em;">o</tspan><tspan x="26.9272" y="0">c</tspan></text>
    <rect x="106.2678" y="82.9647" width="59.4703" height="25.7778" style="fill: none; stroke: #000; stroke-miterlimit: 10;"/>
  </g>
  <g>
    <line x1="136.0029" y1="26.2778" x2="136.0029" y2="76.995" style="fill: none; stroke: #000; stroke-miterlimit: 10;"/>
    <polygon points="132.2998 74.1864 136.0029 75.7596 139.7061 74.1864 136.0029 82.9647 132.2998 74.1864"/>
  </g>
  <g>
    <line x1="29.3889" y1="43.4963" x2="94.1145" y2="15.7416" style="fill: none; stroke: #000; stroke-miterlimit: 10;"/>
    <polygon points="92.9927 20.2519 92.9792 16.2284 90.0738 13.445 99.6011 13.3889 92.9927 20.2519"/>
  </g>
  <g>
    <line x1="29.3889" y1="69.2741" x2="100.6695" y2="95.6693" style="fill: none; stroke: #000; stroke-miterlimit: 10;"/>
    <polygon points="96.7498 98.1667 99.5111 95.2404 99.3217 91.2214 106.2678 97.7424 96.7498 98.1667"/>
  </g>
</svg>