<?xml version="1.0" encoding="UTF-8"?>
<svg id="_图层_1" xmlns="http://www.w3.org/2000/svg" viewBox="0 0 347.958 347.959">
  <text transform="translate(156.2484 180.4584)" style="font-family: NotoSerifSC-Regular, &apos;Noto Serif SC&apos;; font-size: 18px;"><tspan x="0" y="0">5</tspan><tspan x="9.8994" y="0" style="letter-spacing: -.005em;">N</tspan><tspan x="24.1377" y="0">F</tspan></text>
  <path d="M173.9785,347.459C78.3223,347.459.5,269.6367.5,173.9795S78.3223.5,173.9785.5s173.4795,77.8223,173.4795,173.4795-77.8223,173.4795-173.4795,173.4795Z" style="fill: none; stroke: #000; stroke-miterlimit: 10;"/>
  <path d="M173.9785,319.1123c-80.0264,0-145.1323-65.1064-145.1323-145.1328S93.9521,28.8467,173.9785,28.8467s145.1328,65.1064,145.1328,145.1328-65.1064,145.1328-145.1328,145.1328Z" style="fill: none; stroke: #000; stroke-miterlimit: 10;"/>
  <path d="M173.9785,290.7656c-64.3955,0-116.7861-52.3906-116.7861-116.7861s52.3906-116.7861,116.7861-116.7861,116.7861,52.3906,116.7861,116.7861-52.3906,116.7861-116.7861,116.7861Z" style="fill: none; stroke: #000; stroke-miterlimit: 10;"/>
  <path d="M173.9785,262.4189c-48.7656,0-88.4395-39.6738-88.4395-88.4395s39.6738-88.4395,88.4395-88.4395,88.4395,39.6738,88.4395,88.4395-39.6738,88.4395-88.4395,88.4395Z" style="fill: none; stroke: #000; stroke-miterlimit: 10;"/>
  <path d="M173.9782,234.0723c-33.1348,0-60.0928-26.958-60.0928-60.0928s26.958-60.0928,60.0928-60.0928,60.0928,26.958,60.0928,60.0928-26.958,60.0928-60.0928,60.0928Z" style="fill: none; stroke: #000; stroke-miterlimit: 10;"/>
  <circle cx="173.9782" cy="173.9791" r="31.746" style="fill: none; stroke: #000; stroke-miterlimit: 10;"/>
  <text transform="translate(156.2487 136.6084)" style="font-family: NotoSerifSC-Regular, &apos;Noto Serif SC&apos;; font-size: 18px;"><tspan x="0" y="0">4</tspan><tspan x="9.8994" y="0" style="letter-spacing: -.005em;">N</tspan><tspan x="24.1377" y="0">F</tspan></text>
  <text transform="translate(148.9683 107.7438)" style="font-family: NotoSerifSC-Regular, &apos;Noto Serif SC&apos;; font-size: 18px;"><tspan x="0" y="0" style="letter-spacing: -.002em;">B</tspan><tspan x="12.0244" y="0">C</tspan><tspan x="24.4619" y="0" style="letter-spacing: -.005em;">N</tspan><tspan x="38.7002" y="0" style="letter-spacing: 0em;">F</tspan></text>
  <text transform="translate(156.2486 76.5848)" style="font-family: NotoSerifSC-Regular, &apos;Noto Serif SC&apos;; font-size: 18px;"><tspan x="0" y="0">3</tspan><tspan x="9.8994" y="0" style="letter-spacing: -.005em;">N</tspan><tspan x="24.1377" y="0">F</tspan></text>
  <text transform="translate(156.2487 51.0294)" style="font-family: NotoSerifSC-Regular, &apos;Noto Serif SC&apos;; font-size: 18px;"><tspan x="0" y="0">2</tspan><tspan x="9.8994" y="0" style="letter-spacing: -.005em;">N</tspan><tspan x="24.1377" y="0">F</tspan></text>
  <text transform="translate(156.2495 19.8607)" style="font-family: NotoSerifSC-Regular, &apos;Noto Serif SC&apos;; font-size: 18px;"><tspan x="0" y="0">1</tspan><tspan x="9.8994" y="0" style="letter-spacing: -.005em;">N</tspan><tspan x="24.1377" y="0">F</tspan></text>
</svg>