<?xml version="1.0" encoding="UTF-8"?>
<svg xmlns="http://www.w3.org/2000/svg" version="1.1" xmlns:xlink="http://www.w3.org/1999/xlink" viewBox="0 0 863.7 211.6">
  <defs>
    <style>
      .cls-1 {
        stroke-dasharray: 5.9 5.9;
      }

      .cls-1, .cls-2, .cls-3, .cls-4, .cls-5, .cls-6 {
        fill: none;
        stroke: #000;
        stroke-miterlimit: 10;
      }

      .cls-7 {
        fill: url(#_未命名的渐变_25-4);
      }

      .cls-7, .cls-8, .cls-9, .cls-10, .cls-11, .cls-12, .cls-13 {
        mix-blend-mode: overlay;
      }

      .cls-8 {
        fill: url(#_未命名的渐变_25-2);
      }

      .cls-9 {
        fill: url(#_未命名的渐变_25-3);
      }

      .cls-14 {
        isolation: isolate;
      }

      .cls-3 {
        stroke-dasharray: 6 6;
      }

      .cls-15 {
        opacity: .1;
      }

      .cls-10 {
        fill: url(#_未命名的渐变_25-6);
      }

      .cls-11 {
        fill: url(#_未命名的渐变_25);
      }

      .cls-12 {
        fill: url(#_未命名的渐变_25-5);
      }

      .cls-4 {
        stroke-dasharray: 5.2 5.2;
      }

      .cls-5 {
        stroke-dasharray: 6 6;
      }

      .cls-13 {
        fill: url(#_未命名的渐变_25-7);
      }

      .cls-16 {
        font-family: NotoSerifSC-Regular, 'Noto Serif SC';
        font-size: 18px;
      }

      .cls-6 {
        stroke-dasharray: 6.1 6.1;
      }
    </style>
    <radialGradient id="_未命名的渐变_25" data-name="未命名的渐变 25" cx="317.1" cy="170.5" fx="317.1" fy="170.5" r="13.8" gradientTransform="translate(378.1 -215.9) rotate(90) scale(1 .5)" gradientUnits="userSpaceOnUse">
      <stop offset="0" stop-color="#000"/>
      <stop offset=".6" stop-color="#080808" stop-opacity="1"/>
      <stop offset="1" stop-color="#fff" stop-opacity="0"/>
    </radialGradient>
    <radialGradient id="_未命名的渐变_25-2" data-name="未命名的渐变 25" cx="333.8" cy="136.2" fx="333.8" fy="136.2" r="13.8" gradientTransform="translate(396.3 -239.7) rotate(90) scale(1 .6)" xlink:href="#_未命名的渐变_25"/>
    <radialGradient id="_未命名的渐变_25-3" data-name="未命名的渐变 25" cx="344.7" cy="75.2" fx="344.7" fy="75.2" r="13.8" gradientTransform="translate(-1.6 50) scale(1 .7)" xlink:href="#_未命名的渐变_25"/>
    <radialGradient id="_未命名的渐变_25-4" data-name="未命名的渐变 25" cx="326.7" cy="119.1" fx="326.7" fy="119.1" r="13.8" gradientTransform="translate(0 16.3) scale(1 .9)" xlink:href="#_未命名的渐变_25"/>
    <radialGradient id="_未命名的渐变_25-5" data-name="未命名的渐变 25" cx="322.1" cy="106.7" fx="322.1" fy="106.7" gradientTransform="translate(0 40.7) scale(1 .7)" xlink:href="#_未命名的渐变_25"/>
    <radialGradient id="_未命名的渐变_25-6" data-name="未命名的渐变 25" cx="340.1" cy="254.2" fx="340.1" fy="254.2" gradientTransform="translate(470.4 -205) rotate(90) scale(1 .6)" xlink:href="#_未命名的渐变_25"/>
    <radialGradient id="_未命名的渐变_25-7" data-name="未命名的渐变 25" cx="373.8" cy="203.1" fx="373.8" fy="203.1" r="13.8" gradientTransform="translate(-182 51.6) scale(1.4 .4)" xlink:href="#_未命名的渐变_25"/>
  </defs>
  <!-- Generator: Adobe Illustrator 28.6.0, SVG Export Plug-In . SVG Version: 1.2.0 Build 709)  -->
  <g class="cls-14">
    <g id="_图层_1">
      <circle cx="21.1" cy="90" r="2.5"/>
      <circle cx="21.1" cy="90" r="2.5"/>
      <circle cx="21.1" cy="90" r="2.5"/>
      <circle cx="21.1" cy="90" r="2.5"/>
      <circle cx="21.1" cy="90" r="2.5"/>
      <circle cx="21.1" cy="90" r="2.5"/>
      <circle cx="41.5" cy="95" r="2.5"/>
      <circle cx="57.2" cy="107.2" r="2.5"/>
      <circle cx="27.6" cy="100" r="2.5"/>
      <circle cx="44" cy="107.2" r="2.5"/>
      <circle cx="50.6" cy="118.1" r="2.5"/>
      <circle cx="34.5" cy="125.7" r="2.5"/>
      <circle cx="46.5" cy="131.8" r="2.5"/>
      <circle cx="58.1" cy="129.4" r="2.5"/>
      <circle cx="22.6" cy="130.7" r="2.5"/>
      <circle cx="27.6" cy="145" r="2.5"/>
      <text class="cls-16" transform="translate(7.8 184.4)"><tspan x="0" y="0">SfM Points</tspan></text>
      <text class="cls-16" transform="translate(118.5 130.2)"><tspan x="0" y="0">Initialization</tspan></text>
      <rect class="cls-2" x="113.5" y="99.6" width="123.9" height="45.8"/>
      <g>
        <line class="cls-2" x1="71" y1="120.6" x2="95.3" y2="120.6"/>
        <polygon points="93.3 123.5 104.2 120.6 93.3 117.7 93.3 123.5"/>
      </g>
      <g>
        <line class="cls-2" x1="250.1" y1="120.6" x2="274.3" y2="120.6"/>
        <polygon points="272.4 123.5 283.2 120.6 272.4 117.7 272.4 123.5"/>
      </g>
      <ellipse class="cls-11" cx="299.5" cy="101.2" rx="6.3" ry="13.8" transform="translate(113.3 356.7) rotate(-72.6)"/>
      <ellipse class="cls-8" cx="319.2" cy="94.2" rx="7.8" ry="13.8" transform="translate(133.8 370.6) rotate(-72.6)"/>
      <ellipse class="cls-9" cx="343.2" cy="100.8" rx="13.8" ry="9.3" transform="translate(-8.6 165.3) rotate(-26.8)"/>
      <ellipse class="cls-7" cx="326.7" cy="127.4" rx="13.8" ry="12.8"/>
      <ellipse class="cls-12" cx="322.1" cy="114.6" rx="13.8" ry="9.5"/>
      <ellipse class="cls-10" cx="312.9" cy="135.2" rx="8.5" ry="13.8" transform="translate(23.4 315.1) rotate(-55.2)"/>
      <ellipse class="cls-13" cx="337.1" cy="138.2" rx="19.1" ry="5.9" transform="translate(-16.5 50.4) rotate(-8.3)"/>
      <text class="cls-16" transform="translate(255.4 184.4)"><tspan x="0" y="0">3D Gaussians</tspan></text>
      <text class="cls-16" transform="translate(434.5 63.1)"><tspan x="0" y="0">Projection</tspan></text>
      <text class="cls-16" transform="translate(440.9 174.5)"><tspan x="0" y="0">Adaptive</tspan><tspan x="-30" y="21.6">Density Control</tspan></text>
      <rect class="cls-2" x="409" y="147.7" width="141.7" height="59.5"/>
      <rect class="cls-2" x="409" y="25.5" width="141.7" height="59.5"/>
      <text class="cls-16" transform="translate(605.3 119.8)"><tspan x="0" y="0">Differentiable</tspan><tspan x="0" y="21.6">Tile Rasterizer</tspan></text>
      <rect class="cls-2" x="598.6" y="93" width="141.7" height="59.5"/>
      <rect class="cls-15" x="113.5" y="99.9" width="123.9" height="45.8"/>
      <rect class="cls-15" x="409" y="148" width="141.7" height="59.5"/>
      <rect class="cls-15" x="409" y="25.9" width="141.7" height="59.5"/>
      <rect class="cls-15" x="598.6" y="93" width="141.7" height="59.5"/>
      <text class="cls-16" transform="translate(787.6 128.4)"><tspan x="0" y="0">Image</tspan></text>
      <rect class="cls-2" x="776" y="99" width="79.2" height="47.4"/>
      <g>
        <path class="cls-2" d="M354.9,76.9c7.7-13.9,28.4-19.1,40.3-21"/>
        <polygon points="393.7 59.1 404 54.8 392.9 53.3 393.7 59.1"/>
      </g>
      <g>
        <path class="cls-2" d="M405.4,184.6c-18.8-.9-40.6-24.2-50.6-36.1"/>
        <polygon points="358.4 148.2 349.3 141.6 353.9 151.8 358.4 148.2"/>
      </g>
      <g>
        <path class="cls-2" d="M555.6,56.2c24-.7,38.4,14,45.1,23.5"/>
        <polygon points="597.1 79.6 605.3 87.3 602.1 76.5 597.1 79.6"/>
      </g>
      <g>
        <path class="cls-2" d="M598,155c-.3,1-.7,1.9-1.1,2.8"/>
        <path class="cls-5" d="M594.1,163c-6.7,10.6-17.3,16.3-25.9,19.3"/>
        <path class="cls-2" d="M565.3,183.3c-1,.3-2,.6-2.9.8"/>
        <polygon points="563.8 180.8 553.7 185.8 564.9 186.5 563.8 180.8"/>
      </g>
      <g>
        <line class="cls-2" x1="741.6" y1="115.2" x2="765.9" y2="115.2"/>
        <polygon points="763.9 118.2 774.7 115.2 763.9 112.3 763.9 118.2"/>
      </g>
      <g>
        <line class="cls-2" x1="774.7" y1="128" x2="771.7" y2="128"/>
        <line class="cls-6" x1="765.6" y1="128" x2="756.5" y2="128"/>
        <line class="cls-2" x1="753.4" y1="128" x2="750.4" y2="128"/>
        <polygon points="752.4 125 741.6 128 752.4 130.9 752.4 125"/>
      </g>
      <g>
        <path class="cls-2" d="M596,91.4c-.4-.9-.8-1.9-1.2-2.7"/>
        <path class="cls-4" d="M592.1,84.1c-6.1-8.7-15.5-13.5-23.4-16.1"/>
        <path class="cls-2" d="M566.3,67.2c-1-.3-2-.6-2.9-.8"/>
        <polygon points="565.9 64.1 554.7 64.9 564.8 69.8 565.9 64.1"/>
      </g>
      <g>
        <path class="cls-3" d="M404,62.9c-20.8,3.6-21.9,4.3-29.8,7.9-3.7,1.7-7.4,5.4-10.2,8.7"/>
        <polygon points="363 76.3 358.9 86.7 367.7 79.8 363 76.3"/>
      </g>
      <text class="cls-16" transform="translate(291.7 43.9)"><tspan x="0" y="0">Camera</tspan></text>
      <rect class="cls-2" x="286.9" y="25.9" width="79.2" height="25"/>
      <g>
        <line class="cls-2" x1="370" y1="38.3" x2="394.2" y2="38.3"/>
        <polygon points="392.3 41.2 403.1 38.3 392.3 35.4 392.3 41.2"/>
      </g>
      <rect class="cls-2" x="11" y="12.1" width="216.9" height="49.9"/>
      <text class="cls-16" transform="translate(18 34.2)"><tspan x="0" y="0">Operation Flow</tspan></text>
      <g>
        <line class="cls-2" x1="159.9" y1="30.8" x2="207.2" y2="30.8"/>
        <polygon points="205.3 33.7 216.1 30.8 205.3 27.9 205.3 33.7"/>
      </g>
      <text class="cls-16" transform="translate(23.5 57)"><tspan x="0" y="0">Gradient Flow</tspan></text>
      <g>
        <line class="cls-2" x1="159.9" y1="52.3" x2="162.9" y2="52.3"/>
        <line class="cls-1" x1="168.8" y1="52.3" x2="201.3" y2="52.3"/>
        <line class="cls-2" x1="204.2" y1="52.3" x2="207.2" y2="52.3"/>
        <polygon points="205.3 55.3 216.1 52.3 205.3 49.4 205.3 55.3"/>
      </g>
    </g>
  </g>
</svg>