<?xml version="1.0" encoding="UTF-8"?>
<svg id="_图层_1" xmlns="http://www.w3.org/2000/svg" viewBox="0 0 863.7 329.7143">
  <g>
    <rect x="308.3165" y="7.3651" width="98.2857" height="35.3651" style="fill: none; stroke: #000; stroke-miterlimit: 10;"/>
    <text transform="translate(340.1887 32.27)" style="font-family: NotoSerifSC-ExtraLight, &apos;Noto Serif SC&apos;; font-size: 18px; font-weight: 200;"><tspan x="0" y="0" style="letter-spacing: .006em;">S</tspan><tspan x="10.0977" y="0" style="letter-spacing: -.019em;">Q</tspan><tspan x="23.4175" y="0">L</tspan></text>
  </g>
  <g>
    <rect x="308.3165" y="101.057" width="98.2857" height="35.3651" style="fill: none; stroke: #000; stroke-miterlimit: 10;"/>
    <text transform="translate(334.6535 125.9619)" style="font-family: NotoSerifSC-ExtraLight, &apos;Noto Serif SC&apos;; font-size: 18px; font-weight: 200;"><tspan x="0" y="0">视图1</tspan></text>
  </g>
  <g>
    <rect x="308.3165" y="194.7493" width="98.2857" height="35.3651" style="fill: none; stroke: #000; stroke-miterlimit: 10;"/>
    <text transform="translate(325.6535 219.6542)" style="font-family: NotoSerifSC-ExtraLight, &apos;Noto Serif SC&apos;; font-size: 18px; font-weight: 200;"><tspan x="0" y="0">基本表2</tspan></text>
  </g>
  <g>
    <rect x="308.3165" y="288.4411" width="98.2857" height="35.3651" style="fill: none; stroke: #000; stroke-miterlimit: 10;"/>
    <text transform="translate(316.6535 313.3459)" style="font-family: NotoSerifSC-ExtraLight, &apos;Noto Serif SC&apos;; font-size: 18px; font-weight: 200;"><tspan x="0" y="0">存储文件1</tspan></text>
  </g>
  <g>
    <rect x="534.2308" y="101.4396" width="98.2857" height="35.3651" style="fill: none; stroke: #000; stroke-miterlimit: 10;"/>
    <text transform="translate(560.5678 126.3445)" style="font-family: NotoSerifSC-ExtraLight, &apos;Noto Serif SC&apos;; font-size: 18px; font-weight: 200;"><tspan x="0" y="0">视图2</tspan></text>
  </g>
  <g>
    <rect x="159.5352" y="194.7493" width="98.2857" height="35.3651" style="fill: none; stroke: #000; stroke-miterlimit: 10;"/>
    <text transform="translate(176.8722 219.6542)" style="font-family: NotoSerifSC-ExtraLight, &apos;Noto Serif SC&apos;; font-size: 18px; font-weight: 200;"><tspan x="0" y="0">基本表1</tspan></text>
  </g>
  <g>
    <rect x="457.0978" y="194.7493" width="98.2857" height="35.3651" style="fill: none; stroke: #000; stroke-miterlimit: 10;"/>
    <text transform="translate(474.4348 219.6542)" style="font-family: NotoSerifSC-ExtraLight, &apos;Noto Serif SC&apos;; font-size: 18px; font-weight: 200;"><tspan x="0" y="0">基本表3</tspan></text>
  </g>
  <g>
    <rect x="605.8791" y="194.7493" width="98.2857" height="35.3651" style="fill: none; stroke: #000; stroke-miterlimit: 10;"/>
    <text transform="translate(623.2162 219.6542)" style="font-family: NotoSerifSC-ExtraLight, &apos;Noto Serif SC&apos;; font-size: 18px; font-weight: 200;"><tspan x="0" y="0">基本表4</tspan></text>
  </g>
  <g>
    <rect x="605.8791" y="288.441" width="98.2857" height="35.3651" style="fill: none; stroke: #000; stroke-miterlimit: 10;"/>
    <text transform="translate(614.2162 313.3459)" style="font-family: NotoSerifSC-ExtraLight, &apos;Noto Serif SC&apos;; font-size: 18px; font-weight: 200;"><tspan x="0" y="0">存储文件2</tspan></text>
  </g>
  <g>
    <line x1="357.4593" y1="48.6999" x2="357.4593" y2="95.0873" style="fill: none; stroke: #000; stroke-miterlimit: 10;"/>
    <polygon points="353.7562 51.5085 357.4593 49.9352 361.1624 51.5085 357.4593 42.7302 353.7562 51.5085"/>
    <polygon points="353.7562 92.2787 357.4593 93.852 361.1624 92.2787 357.4593 101.057 353.7562 92.2787"/>
  </g>
  <g>
    <line x1="412.2701" y1="44.6045" x2="578.4677" y2="99.5652" style="fill: none; stroke: #000; stroke-miterlimit: 10;"/>
    <polygon points="413.7739 49.0022 413.4429 44.9923 416.0993 41.9704 406.6022 42.7302 413.7739 49.0022"/>
    <polygon points="574.6384 102.1993 577.2948 99.1774 576.9638 95.1675 584.1356 101.4396 574.6384 102.1993"/>
  </g>
  <g>
    <line x1="305.0303" y1="47.714" x2="211.9642" y2="188.8574" style="fill: none; stroke: #000; stroke-miterlimit: 10;"/>
    <polygon points="300.3926 48.0203 304.3503 48.7453 306.5758 52.0972 308.3165 42.7302 300.3926 48.0203"/>
    <polygon points="210.4187 184.4742 212.6443 187.8261 216.6019 188.5512 208.678 193.8413 210.4187 184.4742"/>
  </g>
  <g>
    <line x1="357.4593" y1="142.7744" x2="357.4593" y2="189.1618" style="fill: none; stroke: #000; stroke-miterlimit: 10;"/>
    <polygon points="353.7562 145.583 357.4593 144.0097 361.1624 145.583 357.4593 136.8046 353.7562 145.583"/>
    <polygon points="353.7562 186.3532 357.4593 187.9264 361.1624 186.3532 357.4593 195.1315 353.7562 186.3532"/>
  </g>
  <g>
    <line x1="357.4593" y1="236.0841" x2="357.4593" y2="282.4715" style="fill: none; stroke: #000; stroke-miterlimit: 10;"/>
    <polygon points="353.7562 238.8927 357.4593 237.3195 361.1624 238.8927 357.4593 230.1144 353.7562 238.8927"/>
    <polygon points="353.7562 279.6629 357.4593 281.2362 361.1624 279.6629 357.4593 288.4413 353.7562 279.6629"/>
  </g>
  <g>
    <line x1="655.022" y1="236.0841" x2="655.022" y2="282.4715" style="fill: none; stroke: #000; stroke-miterlimit: 10;"/>
    <polygon points="651.3188 238.8927 655.022 237.3195 658.7251 238.8927 655.022 230.1144 651.3188 238.8927"/>
    <polygon points="651.3188 279.6629 655.022 281.2362 658.7251 279.6629 655.022 288.4413 651.3188 279.6629"/>
  </g>
  <g>
    <line x1="561.1895" y1="141.6861" x2="510.52" y2="190.9692" style="fill: none; stroke: #000; stroke-miterlimit: 10;"/>
    <polygon points="556.5942 140.9898 560.304 142.5474 561.7581 146.2989 565.4689 137.5238 556.5942 140.9898"/>
    <polygon points="509.9514 186.3564 511.4056 190.1079 515.1153 191.6656 506.2407 195.1315 509.9514 186.3564"/>
  </g>
  <g>
    <line x1="600.0731" y1="141.6861" x2="650.7426" y2="190.9692" style="fill: none; stroke: #000; stroke-miterlimit: 10;"/>
    <polygon points="599.5045 146.2989 600.9587 142.5474 604.6684 140.9898 595.7938 137.5238 599.5045 146.2989"/>
    <polygon points="646.1473 191.6656 649.8571 190.1079 651.3112 186.3564 655.022 195.1315 646.1473 191.6656"/>
  </g>
  <g>
    <line x1="501.0925" y1="233.943" x2="413.4106" y2="285.4189" style="fill: none; stroke: #000; stroke-miterlimit: 10;"/>
    <polygon points="496.7957 232.1714 500.0272 234.5684 500.5453 238.5584 506.2407 230.9206 496.7957 232.1714"/>
    <polygon points="413.9579 280.8035 414.476 284.7935 417.7075 287.1905 408.2625 288.4413 413.9579 280.8035"/>
  </g>
  <g>
    <line x1="213.8481" y1="233.9053" x2="303.1464" y2="285.4564" style="fill: none; stroke: #000; stroke-miterlimit: 10;"/>
    <polygon points="214.429 238.5166 214.918 234.5229 218.1319 232.1024 208.678 230.9206 214.429 238.5166"/>
    <polygon points="298.8626 287.2593 302.0765 284.8388 302.5655 280.8452 308.3165 288.4411 298.8626 287.2593"/>
  </g>
</svg>