<?xml version="1.0" encoding="UTF-8"?>
<svg xmlns="http://www.w3.org/2000/svg" version="1.1" viewBox="0 0 863.7 507.4">
  <defs>
    <style>
      .cls-1 {
        fill: none;
        stroke: #000;
        stroke-miterlimit: 10;
      }

      .cls-2, .cls-3 {
        isolation: isolate;
      }

      .cls-3 {
        font-family: NotoSerifSC-ExtraLight, 'Noto Serif SC';
        font-size: 18px;
        font-weight: 200;
      }
    </style>
  </defs>
  <!-- Generator: Adobe Illustrator 28.7.1, SVG Export Plug-In . SVG Version: 1.2.0 Build 142)  -->
  <g>
    <g id="_layer_1" data-name="layer_1">
      <g id="_layer_1-2" data-name="_layer_1">
        <g>
          <g>
            <rect class="cls-1" x="204.1" y="6.2" width="83.4" height="34.9"/>
            <g class="cls-2">
              <text class="cls-3" transform="translate(227.8 31.2)"><tspan x="0" y="0">用户</tspan></text>
            </g>
          </g>
          <g>
            <rect class="cls-1" x="298.3" y="6.2" width="83.4" height="34.9"/>
            <g class="cls-2">
              <text class="cls-3" transform="translate(322.1 31.2)"><tspan x="0" y="0">用户</tspan></text>
            </g>
          </g>
          <g class="cls-2">
            <text class="cls-3" transform="translate(401.9 31.2)"><tspan x="0" y="0">···</tspan></text>
          </g>
          <g>
            <rect class="cls-1" x="441.8" y="6.2" width="83.4" height="34.9"/>
            <g class="cls-2">
              <text class="cls-3" transform="translate(465.5 31.2)"><tspan x="0" y="0">用户</tspan></text>
            </g>
          </g>
        </g>
        <g>
          <polygon class="cls-1" points="385.1 262 294.2 262 248.7 283.8 294.2 305.6 385.1 305.6 430.6 283.8 385.1 262"/>
          <g class="cls-2">
            <text class="cls-3" transform="translate(276.2 291.4)"><tspan x="0" y="0">数据库管理系统</tspan></text>
          </g>
        </g>
        <g>
          <polygon class="cls-1" points="385.1 181.6 294.2 181.6 248.7 203.4 294.2 225.2 385.1 225.2 430.6 203.4 385.1 181.6"/>
          <g class="cls-2">
            <text class="cls-3" transform="translate(285.5 211.1)"><tspan x="0" y="0">应用开发工具</tspan></text>
          </g>
        </g>
        <g>
          <polygon class="cls-1" points="385.1 101.3 294.2 101.3 248.7 123.1 294.2 144.9 385.1 144.9 430.6 123.1 385.1 101.3"/>
          <g class="cls-2">
            <text class="cls-3" transform="translate(303.3 130.7)"><tspan x="0" y="0">应用系统</tspan></text>
          </g>
        </g>
        <g>
          <polygon class="cls-1" points="385.1 342.3 294.2 342.3 248.7 364.1 294.2 385.9 385.1 385.9 430.6 364.1 385.1 342.3"/>
          <g class="cls-2">
            <text class="cls-3" transform="translate(303.3 371.8)"><tspan x="0" y="0">操作系统</tspan></text>
          </g>
        </g>
        <g>
          <ellipse class="cls-1" cx="339.7" cy="438.2" rx="59.3" ry="12.3"/>
          <line class="cls-1" x1="280.4" y1="438.2" x2="280.4" y2="492"/>
          <line class="cls-1" x1="398.9" y1="438.2" x2="398.9" y2="492"/>
          <path class="cls-1" d="M398.9,492c0,6.8-26.5,12.3-59.3,12.3s-59.3-5.5-59.3-12.3"/>
          <g class="cls-2">
            <text class="cls-3" transform="translate(312.4 483)"><tspan x="0" y="0">数据库</tspan></text>
          </g>
        </g>
        <g class="cls-2">
          <text class="cls-3" transform="translate(530.3 291.4)"><tspan x="0" y="0">数据库管理员</tspan></text>
        </g>
        <rect class="cls-1" x="507.6" y="258.1" width="152" height="51.4"/>
        <g>
          <line class="cls-1" x1="245.8" y1="41" x2="269.8" y2="106.4"/>
          <polygon points="265.4 105 269.4 105.2 272.3 102.5 271.9 112 265.4 105"/>
        </g>
        <g>
          <line class="cls-1" x1="339.7" y1="41" x2="339.7" y2="95.3"/>
          <polygon points="335.9 92.5 339.7 94.1 343.4 92.5 339.7 101.3 335.9 92.5"/>
        </g>
        <g>
          <line class="cls-1" x1="483.5" y1="41" x2="412.2" y2="107.9"/>
          <polygon points="411.7 103.3 413.1 107 416.8 108.7 407.8 112 411.7 103.3"/>
        </g>
        <line class="cls-1" x1="340.1" y1="144.9" x2="340.1" y2="181.6"/>
        <line class="cls-1" x1="339.7" y1="225.2" x2="339.7" y2="262"/>
        <line class="cls-1" x1="340.1" y1="306.3" x2="340.1" y2="341.7"/>
        <line class="cls-1" x1="339.7" y1="385.9" x2="339.7" y2="425.9"/>
        <g>
          <line class="cls-1" x1="507.6" y1="283.8" x2="436.6" y2="283.8"/>
          <polygon points="439.4 280.1 437.8 283.8 439.4 287.5 430.6 283.8 439.4 280.1"/>
        </g>
        <g>
          <polyline class="cls-1" points="584.4 309.5 584.4 468.3 404.9 468.3"/>
          <polygon points="407.7 464.6 406.1 468.3 407.7 472 398.9 468.3 407.7 464.6"/>
        </g>
      </g>
    </g>
  </g>
</svg>