<svg fill="#000000" height="64px" width="64px" version="1.1" id="Layer_1" xmlns="http://www.w3.org/2000/svg" xmlns:xlink="http://www.w3.org/1999/xlink" viewBox="0 0 512 512" xml:space="preserve"><g id="SVGRepo_bgCarrier" stroke-width="0"></g><g id="SVGRepo_tracerCarrier" stroke-linecap="round" stroke-linejoin="round"></g><g id="SVGRepo_iconCarrier"> <g> <g> <path d="M469.779,34.205h-26.188V8.017c0-4.427-3.588-8.017-8.017-8.017c-4.428,0-8.017,3.589-8.017,8.017v26.188h-43.825V8.017 c0-4.427-3.588-8.017-8.017-8.017c-4.428,0-8.017,3.589-8.017,8.017v26.188h-43.825V8.017c0-4.427-3.588-8.017-8.017-8.017 c-4.428,0-8.017,3.589-8.017,8.017v26.188h-43.825V8.017C264.017,3.589,260.428,0,256,0c-4.428,0-8.017,3.589-8.017,8.017v26.188 h-43.825V8.017c0-4.427-3.588-8.017-8.017-8.017s-8.017,3.589-8.017,8.017v26.188h-43.825V8.017c0-4.427-3.588-8.017-8.017-8.017 c-4.428,0-8.017,3.589-8.017,8.017v26.188H84.443V8.017C84.443,3.589,80.854,0,76.426,0c-4.428,0-8.017,3.589-8.017,8.017v26.188 H42.221c-22.103,0-40.083,17.981-40.083,40.083v301.428c0,4.427,3.588,8.017,8.017,8.017s8.017-3.589,8.017-8.017V119.003h366.096 c4.428,0,8.017-3.589,8.017-8.017c0-4.427-3.588-8.017-8.017-8.017H18.171V74.288c0-13.262,10.789-24.05,24.05-24.05h26.188V72.15 c0,4.427,3.588,8.017,8.017,8.017c4.428,0,8.017-3.589,8.017-8.017V50.238h43.825V72.15c0,4.427,3.588,8.017,8.017,8.017 s8.017-3.589,8.017-8.017V50.238h43.825V72.15c0,4.427,3.588,8.017,8.017,8.017s8.017-3.589,8.017-8.017V50.238h43.825V72.15 c0,4.427,3.588,8.017,8.017,8.017c4.428,0,8.017-3.589,8.017-8.017V50.238h43.825V72.15c0,4.427,3.588,8.017,8.017,8.017 c4.428,0,8.017-3.589,8.017-8.017V50.238h43.825V72.15c0,4.427,3.588,8.017,8.017,8.017c4.428,0,8.017-3.589,8.017-8.017V50.238 h43.825V72.15c0,4.427,3.588,8.017,8.017,8.017c4.428,0,8.017-3.589,8.017-8.017V50.238h26.188c13.261,0,24.05,10.788,24.05,24.05 v28.682h-66.806c-4.428,0-8.017,3.589-8.017,8.017c0,4.427,3.588,8.017,8.017,8.017h66.806v376.964H18.171v-77.495 c0-4.427-3.588-8.017-8.017-8.017s-8.017,3.589-8.017,8.017v85.512c0,4.427,3.588,8.017,8.017,8.017h491.691 c4.428,0,8.017-3.589,8.017-8.017V74.288C509.862,52.186,491.881,34.205,469.779,34.205z"></path> </g> </g> <g> <g> <path d="M439.85,226.605H72.15c-4.428,0-8.017,3.589-8.017,8.017s3.588,8.017,8.017,8.017H439.85c4.428,0,8.017-3.589,8.017-8.017 S444.278,226.605,439.85,226.605z"></path> </g> </g> <g> <g> <path d="M236.76,145.37h-74.823c-4.428,0-8.017,3.589-8.017,8.017v42.756c0,4.427,3.588,8.017,8.017,8.017h21.115l10.49,17.486 c3.058,5.095,10.691,5.096,13.749,0l10.491-17.486h18.977c4.428,0,8.017-3.589,8.017-8.017v-42.756 C244.777,148.959,241.188,145.37,236.76,145.37z M228.743,188.125h-15.499c-2.817,0-5.426,1.477-6.875,3.892l-5.952,9.922 l-5.952-9.922c-1.448-2.415-4.059-3.892-6.875-3.892h-17.637v-26.722h58.789V188.125z"></path> </g> </g> <g> <g> <path d="M439.85,339.552H72.15c-4.428,0-8.017,3.589-8.017,8.017s3.588,8.017,8.017,8.017H439.85c4.428,0,8.017-3.589,8.017-8.017 S444.278,339.552,439.85,339.552z"></path> </g> </g> <g> <g> <path d="M356.476,258.672h-74.823c-4.428,0-8.017,3.589-8.017,8.017v42.756c0,4.427,3.588,8.017,8.017,8.017h21.115l10.49,17.486 c3.058,5.095,10.691,5.096,13.749,0l10.491-17.486h18.977c4.428,0,8.017-3.589,8.017-8.017v-42.756 C364.493,262.262,360.904,258.672,356.476,258.672z M348.459,301.428H332.96c-2.817,0-5.426,1.477-6.875,3.892l-5.952,9.921 l-5.952-9.921c-1.448-2.415-4.059-3.892-6.875-3.892H289.67v-26.722h58.789V301.428z"></path> </g> </g> <g> <g> <path d="M439.85,453.211H72.15c-4.428,0-8.017,3.589-8.017,8.017c0,4.427,3.588,8.017,8.017,8.017H439.85 c4.428,0,8.017-3.589,8.017-8.017C447.866,456.8,444.278,453.211,439.85,453.211z"></path> </g> </g> <g> <g> <path d="M172.626,371.975H97.804c-4.428,0-8.017,3.589-8.017,8.017v42.756c0,4.427,3.588,8.017,8.017,8.017h21.115l10.49,17.486 c3.058,5.095,10.691,5.096,13.749,0l10.491-17.486h18.977c4.428,0,8.017-3.589,8.017-8.017v-42.756 C180.643,375.564,177.055,371.975,172.626,371.975z M164.61,414.731h-15.499c-2.817,0-5.426,1.477-6.875,3.892l-5.952,9.921 l-5.952-9.921c-1.448-2.415-4.059-3.892-6.875-3.892H105.82v-26.722h58.789V414.731z"></path> </g> </g> </g></svg>