<?xml version="1.0" encoding="UTF-8"?>
<svg xmlns="http://www.w3.org/2000/svg" version="1.1" viewBox="0 0 863.7 145.5">
  <defs>
    <style>
      .cls-1 {
        fill: none;
        stroke: #000;
        stroke-miterlimit: 10;
      }

      .cls-2 {
        font-family: NotoSerifSC-Light, 'Noto Serif SC';
        font-size: 18px;
        font-weight: 300;
      }
    </style>
  </defs>
  <!-- Generator: Adobe Illustrator 28.7.1, SVG Export Plug-In . SVG Version: 1.2.0 Build 142)  -->
  <g>
    <g id="_图层_1" data-name="图层_1">
      <g>
        <rect class="cls-1" x="205.2" y="6.3" width="453.2" height="131.9"/>
        <text class="cls-2" transform="translate(219.8 29.1)"><tspan x="0" y="0">客户</tspan><tspan x="0" y="21.6">进程</tspan></text>
        <text class="cls-2" transform="translate(283.6 29.1)"><tspan x="0" y="0">客户</tspan><tspan x="0" y="21.6">进程</tspan></text>
        <text class="cls-2" transform="translate(347.4 29.1)"><tspan x="0" y="0">进程</tspan><tspan x="-9" y="21.6">服务器</tspan></text>
        <text class="cls-2" transform="translate(411.2 29.1)"><tspan x="0" y="0">终端</tspan><tspan x="-9" y="21.6">服务器</tspan></text>
        <text class="cls-2" transform="translate(484.2 40.3)"><tspan x="0" y="0">···</tspan></text>
        <text class="cls-2" transform="translate(538.7 29.1)"><tspan x="0" y="0">文件</tspan><tspan x="-9" y="21.6">服务器</tspan></text>
        <text class="cls-2" transform="translate(593.5 29.1)"><tspan x="0" y="0">存储器</tspan><tspan x="0" y="21.6">服务器</tspan></text>
        <line class="cls-1" x1="267.6" y1="6.6" x2="267.6" y2="62.8"/>
        <line class="cls-1" x1="331.7" y1="6.6" x2="331.7" y2="62.8"/>
        <line class="cls-1" x1="395.9" y1="6.6" x2="395.9" y2="62.8"/>
        <line class="cls-1" x1="460" y1="6.6" x2="460" y2="62.8"/>
        <line class="cls-1" x1="524.1" y1="6.6" x2="524.1" y2="62.8"/>
        <line class="cls-1" x1="588.3" y1="6.6" x2="588.3" y2="62.8"/>
        <line class="cls-1" x1="205.2" y1="62.9" x2="658.5" y2="62.9"/>
        <g>
          <polyline class="cls-1" points="301.6 68.8 301.6 102.8 556.7 102.8 556.7 68.9"/>
          <polygon points="297.9 71.6 301.6 70 305.3 71.6 301.6 62.8 297.9 71.6"/>
          <polygon points="560.4 71.7 556.7 70.1 553 71.7 556.7 62.9 560.4 71.7"/>
        </g>
        <text class="cls-2" transform="translate(413.8 123.4)"><tspan x="0" y="0">核心</tspan></text>
        <g>
          <line class="cls-1" x1="283.6" y1="62.9" x2="283.6" y2="96.9"/>
          <polygon points="279.9 94.1 283.6 95.6 287.3 94.1 283.6 102.8 279.9 94.1"/>
        </g>
        <g>
          <line class="cls-1" x1="572.2" y1="63.4" x2="572.2" y2="97.4"/>
          <polygon points="568.5 94.6 572.2 96.1 575.9 94.6 572.2 103.3 568.5 94.6"/>
        </g>
        <text class="cls-2" transform="translate(267.6 123.4)"><tspan x="0" y="0">请求</tspan></text>
        <text class="cls-2" transform="translate(552.3 123.4)"><tspan x="0" y="0">回答</tspan></text>
      </g>
      <text class="cls-2" transform="translate(668.9 41.6)"><tspan x="0" y="0">用户方式</tspan></text>
      <text class="cls-2" transform="translate(671 109.7)"><tspan x="0" y="0">核心方式</tspan></text>
    </g>
  </g>
</svg>