<?xml version="1.0" encoding="UTF-8"?>
<svg xmlns="http://www.w3.org/2000/svg" version="1.1" viewBox="0 0 863.7 445">
  <defs>
    <style>
      .cls-1, .cls-2, .cls-3 {
        fill: none;
        stroke: #000;
        stroke-miterlimit: 10;
      }

      .cls-2 {
        stroke-dasharray: 11 5;
      }

      .cls-4 {
        font-family: NotoSerifSC-Light, 'Noto Serif SC';
        font-size: 18px;
        font-weight: 300;
        isolation: isolate;
      }

      .cls-3 {
        stroke-dasharray: 11.2 5.1;
      }
    </style>
  </defs>
  <!-- Generator: Adobe Illustrator 28.7.1, SVG Export Plug-In . SVG Version: 1.2.0 Build 142)  -->
  <g>
    <g id="_图层_1" data-name="图层_1">
      <g>
        <text class="cls-4" transform="translate(261.1 52.2)"><tspan x="0" y="0">客户机应用</tspan></text>
        <rect class="cls-1" x="223.1" y="13" width="166.3" height="64"/>
        <text class="cls-4" transform="translate(557.6 52.2)"><tspan x="0" y="0">OS内核</tspan></text>
        <rect class="cls-1" x="474.3" y="13" width="166.3" height="64"/>
        <g>
          <line class="cls-1" x1="373.7" y1="26.8" x2="379.2" y2="26.8"/>
          <line class="cls-3" x1="384.2" y1="26.8" x2="479" y2="26.8"/>
          <line class="cls-1" x1="481.6" y1="26.8" x2="487.1" y2="26.8"/>
          <polygon points="484.3 30.5 485.8 26.8 484.3 23.1 493 26.8 484.3 30.5"/>
        </g>
        <g>
          <line class="cls-1" x1="493" y1="61.2" x2="487.5" y2="61.2"/>
          <line class="cls-3" x1="482.5" y1="61.2" x2="387.7" y2="61.2"/>
          <line class="cls-1" x1="385.1" y1="61.2" x2="379.6" y2="61.2"/>
          <polygon points="382.5 57.5 380.9 61.2 382.5 64.9 373.7 61.2 382.5 57.5"/>
        </g>
        <g>
          <path class="cls-1" d="M493,26.8c9.5,0,17.2,7.7,17.2,17.2s-4.7,13.8-11.3,16.2"/>
          <polygon points="500.9 55.8 500.1 59.8 502.4 63.1 493 61.2 500.9 55.8"/>
        </g>
      </g>
      <text class="cls-4" transform="translate(266.3 124.1)"><tspan x="0" y="0">(a)在整体式内核文件操作中的上下文切换</tspan></text>
      <g>
        <text class="cls-4" transform="translate(141.3 217.6)"><tspan x="0" y="0">客户机应用</tspan></text>
        <rect class="cls-1" x="103.2" y="178.4" width="166.3" height="64"/>
        <text class="cls-4" transform="translate(401.3 218)"><tspan x="0" y="0">文件服务器</tspan></text>
        <rect class="cls-1" x="363.3" y="178.8" width="166.3" height="64"/>
        <text class="cls-4" transform="translate(613.2 218.4)"><tspan x="0" y="0">磁盘设备驱动器</tspan></text>
        <rect class="cls-1" x="594.2" y="179.2" width="166.3" height="64"/>
      </g>
      <g>
        <text class="cls-4" transform="translate(404.1 370.3)"><tspan x="0" y="0">微内核</tspan></text>
        <rect class="cls-1" x="137.3" y="294.1" width="589" height="87.8"/>
      </g>
      <g>
        <polyline class="cls-1" points="378.6 230.9 378.6 190.8 516.3 190.8 516.3 224.9"/>
        <polygon points="512.6 222.1 516.3 223.6 520 222.1 516.3 230.9 512.6 222.1"/>
      </g>
      <g>
        <line class="cls-2" x1="378.6" y1="314" x2="378.6" y2="236.8"/>
        <polygon points="382.3 239.6 378.6 238.1 374.9 239.6 378.6 230.9 382.3 239.6"/>
      </g>
      <g>
        <line class="cls-1" x1="251.7" y1="314" x2="372.6" y2="314"/>
        <polygon points="369.8 317.7 371.4 314 369.8 310.3 378.6 314 369.8 317.7"/>
      </g>
      <g>
        <line class="cls-2" x1="251.7" y1="230.9" x2="251.7" y2="308.1"/>
        <polygon points="248 305.2 251.7 306.8 255.4 305.2 251.7 314 248 305.2"/>
      </g>
      <g>
        <line class="cls-2" x1="643.1" y1="314" x2="643.1" y2="236.8"/>
        <polygon points="646.8 239.6 643.1 238.1 639.4 239.6 643.1 230.9 646.8 239.6"/>
      </g>
      <g>
        <line class="cls-1" x1="516.3" y1="314" x2="637.1" y2="314"/>
        <polygon points="634.3 317.7 635.9 314 634.3 310.3 643.1 314 634.3 317.7"/>
      </g>
      <g>
        <line class="cls-2" x1="516.3" y1="230.9" x2="516.3" y2="308.1"/>
        <polygon points="512.6 305.2 516.3 306.8 520 305.2 516.3 314 512.6 305.2"/>
      </g>
      <g>
        <line class="cls-1" x1="689" y1="338" x2="496.8" y2="338"/>
        <polygon points="499.7 334.3 498.1 338 499.7 341.7 490.9 338 499.7 334.3"/>
      </g>
      <g>
        <line class="cls-2" x1="689" y1="231.1" x2="689" y2="332"/>
        <polygon points="685.3 329.2 689 330.8 692.7 329.2 689 338 685.3 329.2"/>
      </g>
      <g>
        <line class="cls-1" x1="643.1" y1="231.1" x2="683" y2="231.1"/>
        <polygon points="680.2 234.8 681.8 231.1 680.2 227.4 689 231.1 680.2 234.8"/>
      </g>
      <g>
        <line class="cls-2" x1="490.9" y1="338" x2="490.9" y2="236.8"/>
        <polygon points="494.6 239.6 490.9 238.1 487.2 239.6 490.9 230.9 494.6 239.6"/>
      </g>
      <g>
        <line class="cls-1" x1="490.9" y1="230.9" x2="407.3" y2="230.9"/>
        <polygon points="410.1 227.2 408.5 230.9 410.1 234.6 401.3 230.9 410.1 227.2"/>
      </g>
      <g>
        <line class="cls-2" x1="401.3" y1="230.1" x2="401.3" y2="332"/>
        <polygon points="397.6 329.2 401.3 330.8 405 329.2 401.3 338 397.6 329.2"/>
      </g>
      <g>
        <line class="cls-1" x1="401.3" y1="338" x2="222.4" y2="338"/>
        <polygon points="225.2 334.3 223.6 338 225.2 341.7 216.4 338 225.2 334.3"/>
      </g>
      <g>
        <line class="cls-2" x1="216.4" y1="338" x2="216.4" y2="236.8"/>
        <polygon points="220.1 239.6 216.4 238.1 212.7 239.6 216.4 230.9 220.1 239.6"/>
      </g>
      <text class="cls-4" transform="translate(274.2 435.1)"><tspan x="0" y="0">(b)在微内核中等价操作中的上下文切换</tspan></text>
    </g>
  </g>
</svg>