<?xml version="1.0" encoding="UTF-8"?>
<svg id="uuid-97c283c6-4675-4ccd-88a2-6b1344555918" xmlns="http://www.w3.org/2000/svg" viewBox="0 0 863.69 345.5">
  <circle cx="269.24" cy="91.41" r="37" transform="translate(135.88 342.53) rotate(-80.78)" style="fill: none; stroke: #000; stroke-miterlimit: 10;"/>
  <text transform="translate(251.1 98.1)" style="font-family: NotoSerifSC-Regular, &apos;Noto Serif SC&apos;; font-size: 18px; isolation: isolate;"><tspan x="0" y="0">用户</tspan></text>
  <g id="arrow">
    <line x1="269.1" y1="127.9" x2="269.1" y2="163.6" style="fill: none; stroke: #000; stroke-miterlimit: 10;"/>
    <polygon points="266.2 161.6 269.1 172.4 271.99 161.6 266.2 161.6"/>
  </g>
  <rect x="197.1" y="172.3" width="145" height="38" style="fill: none; stroke: #000; stroke-miterlimit: 10;"/>
  <rect x="197.1" y="210.3" width="145" height="81" style="fill: none; stroke: #000; stroke-miterlimit: 10;"/>
  <text transform="translate(232.99 198.1)" style="font-family: NotoSerifSC-Regular, &apos;Noto Serif SC&apos;; font-size: 18px; isolation: isolate;"><tspan x="0" y="0">物理接口</tspan></text>
  <text transform="translate(250.99 259.1)" style="font-family: NotoSerifSC-Regular, &apos;Noto Serif SC&apos;; font-size: 18px; isolation: isolate;"><tspan x="0" y="0">硬件</tspan></text>
  <circle cx="512.1" cy="38.8" r="37" style="fill: none; stroke: #000; stroke-miterlimit: 10;"/>
  <text transform="translate(494.1 45.6)" style="font-family: NotoSerifSC-Regular, &apos;Noto Serif SC&apos;; font-size: 18px; isolation: isolate;"><tspan x="0" y="0">用户</tspan></text>
  <g id="arrow-2" data-name="arrow">
    <line x1="512.3" y1="76.3" x2="512.3" y2="113.4" style="fill: none; stroke: #000; stroke-miterlimit: 10;"/>
    <polygon points="509.39 111.4 512.3 122.3 515.2 111.4 509.39 111.4"/>
  </g>
  <circle cx="512.1" cy="220.8" r="123" style="fill: none; stroke: #000; stroke-dasharray: 12.1 12.1; stroke-miterlimit: 10;"/>
  <rect x="439.6" y="197.8" width="145" height="38" style="fill: none; stroke: #000; stroke-miterlimit: 10;"/>
  <rect x="439.6" y="235.8" width="145" height="57.3" style="fill: none; stroke: #000; stroke-miterlimit: 10;"/>
  <text transform="translate(475.3 223.6)" style="font-family: NotoSerifSC-Regular, &apos;Noto Serif SC&apos;; font-size: 18px; isolation: isolate;"><tspan x="0" y="0">物理接口</tspan></text>
  <text transform="translate(494.1 271.6)" style="font-family: NotoSerifSC-Regular, &apos;Noto Serif SC&apos;; font-size: 18px; isolation: isolate;"><tspan x="0" y="0">硬件</tspan></text>
  <rect x="440.1" y="122.8" width="145" height="38" style="fill: none; stroke: #000; stroke-miterlimit: 10;"/>
  <text transform="translate(479.7 148.6)" style="font-family: NotoSerifSC-Regular, &apos;Noto Serif SC&apos;; font-size: 18px; isolation: isolate;"><tspan x="0" y="0">I/O软件</tspan></text>
  <polyline points="527.99 161.2 527.99 184.2 541.39 184.2 511.99 197.2 512.3 196.8 482.8 183.8 496.3 183.8 496.3 160.8" style="fill: none; stroke: #000; stroke-miterlimit: 10;"/>
  <text transform="translate(549.2 66.8)" style="font-family: NotoSerifSC-Regular, &apos;Noto Serif SC&apos;; font-size: 18px; isolation: isolate;"><tspan x="0" y="0">I/O操作命令</tspan></text>
  <text transform="translate(549.2 88.4)" style="font-family: NotoSerifSC-Regular, &apos;Noto Serif SC&apos;; font-size: 18px; isolation: isolate;"><tspan x="0" y="0">(</tspan></text>
  <text transform="translate(555.6 88.4)" style="font-family: NotoSerifSC-Regular, &apos;Noto Serif SC&apos;; font-size: 18px; isolation: isolate;"><tspan x="0" y="0">r</tspan></text>
  <text transform="translate(563.5 88.4)" style="font-family: NotoSerifSC-Regular, &apos;Noto Serif SC&apos;; font-size: 18px; isolation: isolate;"><tspan x="0" y="0">e</tspan></text>
  <text transform="translate(573.39 88.4)" style="font-family: NotoSerifSC-Regular, &apos;Noto Serif SC&apos;; font-size: 18px; isolation: isolate;"><tspan x="0" y="0">a</tspan></text>
  <text transform="translate(583.39 88.4)" style="font-family: NotoSerifSC-Regular, &apos;Noto Serif SC&apos;; font-size: 18px; isolation: isolate;"><tspan x="0" y="0">d</tspan></text>
  <text transform="translate(594.69 88.4)" style="font-family: NotoSerifSC-Regular, &apos;Noto Serif SC&apos;; font-size: 18px; isolation: isolate;"><tspan x="0" y="0">,</tspan></text>
  <text transform="translate(598.89 88.4)" style="font-family: NotoSerifSC-Regular, &apos;Noto Serif SC&apos;; font-size: 18px; isolation: isolate;"><tspan x="0" y="0">wri</tspan></text>
  <text transform="translate(628.19 88.4)" style="font-family: NotoSerifSC-Regular, &apos;Noto Serif SC&apos;; font-size: 18px; isolation: isolate;"><tspan x="0" y="0">t</tspan></text>
  <text transform="translate(634.8 88.4)" style="font-family: NotoSerifSC-Regular, &apos;Noto Serif SC&apos;; font-size: 18px; isolation: isolate;"><tspan x="0" y="0">e</tspan></text>
  <text transform="translate(644.39 88.4)" style="font-family: NotoSerifSC-Regular, &apos;Noto Serif SC&apos;; font-size: 18px; isolation: isolate;"><tspan x="0" y="0">)</tspan></text>
  <text transform="translate(484.49 320.3)" style="font-family: NotoSerifSC-Regular, &apos;Noto Serif SC&apos;; font-size: 18px; isolation: isolate;"><tspan x="0" y="0">虚机器</tspan></text>
</svg>