<?xml version="1.0" encoding="UTF-8"?>
<svg id="uuid-97c283c6-4675-4ccd-88a2-6b1344555918" xmlns="http://www.w3.org/2000/svg" viewBox="0 0 786.5 345.5">
  <circle cx="230.64" cy="91.41" r="37" transform="translate(103.47 304.43) rotate(-80.78)" style="fill: none; stroke: #000; stroke-miterlimit: 10;"/>
  <text transform="translate(212.5 98.1)" style="font-family: NotoSerifSC-Regular, &apos;Noto Serif SC&apos;; font-size: 18px; isolation: isolate;"><tspan x="0" y="0">用户</tspan></text>
  <g id="arrow">
    <line x1="230.5" y1="127.9" x2="230.5" y2="163.6" style="fill: none; stroke: #000; stroke-miterlimit: 10;"/>
    <polygon points="227.6 161.6 230.5 172.4 233.4 161.6 227.6 161.6"/>
  </g>
  <rect x="158.5" y="172.3" width="145" height="38" style="fill: none; stroke: #000; stroke-miterlimit: 10;"/>
  <rect x="158.5" y="210.3" width="145" height="81" style="fill: none; stroke: #000; stroke-miterlimit: 10;"/>
  <text transform="translate(194.4 198.1)" style="font-family: NotoSerifSC-Regular, &apos;Noto Serif SC&apos;; font-size: 18px; isolation: isolate;"><tspan x="0" y="0">物理接口</tspan></text>
  <text transform="translate(212.4 259.1)" style="font-family: NotoSerifSC-Regular, &apos;Noto Serif SC&apos;; font-size: 18px; isolation: isolate;"><tspan x="0" y="0">硬件</tspan></text>
  <circle cx="473.5" cy="38.8" r="37" style="fill: none; stroke: #000; stroke-miterlimit: 10;"/>
  <text transform="translate(455.5 45.6)" style="font-family: NotoSerifSC-Regular, &apos;Noto Serif SC&apos;; font-size: 18px; isolation: isolate;"><tspan x="0" y="0">用户</tspan></text>
  <g id="arrow-2" data-name="arrow">
    <line x1="473.7" y1="76.3" x2="473.7" y2="113.4" style="fill: none; stroke: #000; stroke-miterlimit: 10;"/>
    <polygon points="470.8 111.4 473.7 122.3 476.6 111.4 470.8 111.4"/>
  </g>
  <circle cx="473.5" cy="220.8" r="123" style="fill: none; stroke: #000; stroke-dasharray: 12.1 12.1; stroke-miterlimit: 10;"/>
  <rect x="401" y="197.8" width="145" height="38" style="fill: none; stroke: #000; stroke-miterlimit: 10;"/>
  <rect x="401" y="235.8" width="145" height="57.3" style="fill: none; stroke: #000; stroke-miterlimit: 10;"/>
  <text transform="translate(436.7 223.6)" style="font-family: NotoSerifSC-Regular, &apos;Noto Serif SC&apos;; font-size: 18px; isolation: isolate;"><tspan x="0" y="0">物理接口</tspan></text>
  <text transform="translate(455.5 271.6)" style="font-family: NotoSerifSC-Regular, &apos;Noto Serif SC&apos;; font-size: 18px; isolation: isolate;"><tspan x="0" y="0">硬件</tspan></text>
  <rect x="401.5" y="122.8" width="145" height="38" style="fill: none; stroke: #000; stroke-miterlimit: 10;"/>
  <text transform="translate(441.1 148.6)" style="font-family: NotoSerifSC-Regular, &apos;Noto Serif SC&apos;; font-size: 18px; isolation: isolate;"><tspan x="0" y="0">I/O软件</tspan></text>
  <polyline points="489.4 161.2 489.4 184.2 502.8 184.2 473.4 197.2 473.7 196.8 444.2 183.8 457.7 183.8 457.7 160.8" style="fill: none; stroke: #000; stroke-miterlimit: 10;"/>
  <text transform="translate(510.6 66.8)" style="font-family: NotoSerifSC-Regular, &apos;Noto Serif SC&apos;; font-size: 18px; isolation: isolate;"><tspan x="0" y="0">I/O操作命令</tspan></text>
  <text transform="translate(510.6 88.4)" style="font-family: NotoSerifSC-Regular, &apos;Noto Serif SC&apos;; font-size: 18px; isolation: isolate;"><tspan x="0" y="0">(</tspan></text>
  <text transform="translate(517 88.4)" style="font-family: NotoSerifSC-Regular, &apos;Noto Serif SC&apos;; font-size: 18px; isolation: isolate;"><tspan x="0" y="0">r</tspan></text>
  <text transform="translate(524.9 88.4)" style="font-family: NotoSerifSC-Regular, &apos;Noto Serif SC&apos;; font-size: 18px; isolation: isolate;"><tspan x="0" y="0">e</tspan></text>
  <text transform="translate(534.8 88.4)" style="font-family: NotoSerifSC-Regular, &apos;Noto Serif SC&apos;; font-size: 18px; isolation: isolate;"><tspan x="0" y="0">a</tspan></text>
  <text transform="translate(544.8 88.4)" style="font-family: NotoSerifSC-Regular, &apos;Noto Serif SC&apos;; font-size: 18px; isolation: isolate;"><tspan x="0" y="0">d</tspan></text>
  <text transform="translate(556.1 88.4)" style="font-family: NotoSerifSC-Regular, &apos;Noto Serif SC&apos;; font-size: 18px; isolation: isolate;"><tspan x="0" y="0">,</tspan></text>
  <text transform="translate(560.3 88.4)" style="font-family: NotoSerifSC-Regular, &apos;Noto Serif SC&apos;; font-size: 18px; isolation: isolate;"><tspan x="0" y="0">wri</tspan></text>
  <text transform="translate(589.6 88.4)" style="font-family: NotoSerifSC-Regular, &apos;Noto Serif SC&apos;; font-size: 18px; isolation: isolate;"><tspan x="0" y="0">t</tspan></text>
  <text transform="translate(596.2 88.4)" style="font-family: NotoSerifSC-Regular, &apos;Noto Serif SC&apos;; font-size: 18px; isolation: isolate;"><tspan x="0" y="0">e</tspan></text>
  <text transform="translate(605.8 88.4)" style="font-family: NotoSerifSC-Regular, &apos;Noto Serif SC&apos;; font-size: 18px; isolation: isolate;"><tspan x="0" y="0">)</tspan></text>
  <text transform="translate(445.9 320.3)" style="font-family: NotoSerifSC-Regular, &apos;Noto Serif SC&apos;; font-size: 18px; isolation: isolate;"><tspan x="0" y="0">虚机器</tspan></text>
</svg>