<?xml version="1.0" encoding="UTF-8"?>
<svg xmlns="http://www.w3.org/2000/svg" version="1.1" viewBox="0 0 786.5 345.5">
  <defs>
    <style>
      .cls-1 {
        stroke-dasharray: 12.1 12.1;
      }

      .cls-1, .cls-2 {
        fill: none;
        stroke: #000;
        stroke-miterlimit: 10;
      }

      .cls-3, .cls-4, .cls-5, .cls-6, .cls-7 {
        isolation: isolate;
      }

      .cls-3, .cls-4, .cls-6, .cls-7 {
        font-family: NotoSerifSC-Regular, 'Noto Serif SC';
        font-size: 18px;
      }

      .cls-4 {
        letter-spacing: 0em;
      }

      .cls-6 {
        letter-spacing: 0em;
      }

      .cls-7 {
        letter-spacing: 0em;
      }
    </style>
  </defs>
  <!-- Generator: Adobe Illustrator 28.6.0, SVG Export Plug-In . SVG Version: 1.2.0 Build 709)  -->
  <g>
    <g id="_图层_1">
      <circle class="cls-2" cx="230.5" cy="91.3" r="37" transform="translate(114.6 310.5) rotate(-83.7)"/>
      <g class="cls-5">
        <text class="cls-3" transform="translate(212.5 98.1)"><tspan x="0" y="0">用户</tspan></text>
      </g>
      <g>
        <line class="cls-2" x1="230.5" y1="127.9" x2="230.5" y2="163.6"/>
        <polygon points="227.6 161.6 230.5 172.4 233.4 161.6 227.6 161.6"/>
      </g>
      <rect class="cls-2" x="158.5" y="172.3" width="145" height="38"/>
      <rect class="cls-2" x="158.5" y="210.3" width="145" height="81"/>
      <g class="cls-5">
        <text class="cls-3" transform="translate(194.4 198.1)"><tspan x="0" y="0">物理接口</tspan></text>
      </g>
      <g class="cls-5">
        <text class="cls-3" transform="translate(212.4 259.1)"><tspan x="0" y="0">硬件</tspan></text>
      </g>
      <circle class="cls-2" cx="473.5" cy="38.8" r="37"/>
      <g class="cls-5">
        <text class="cls-3" transform="translate(455.5 45.6)"><tspan x="0" y="0">用户</tspan></text>
      </g>
      <g>
        <line class="cls-2" x1="473.7" y1="76.3" x2="473.7" y2="113.4"/>
        <polygon points="470.8 111.4 473.7 122.3 476.6 111.4 470.8 111.4"/>
      </g>
      <circle class="cls-1" cx="473.5" cy="220.8" r="123"/>
      <rect class="cls-2" x="401" y="197.8" width="145" height="38"/>
      <rect class="cls-2" x="401" y="235.8" width="145" height="57.3"/>
      <g class="cls-5">
        <text class="cls-3" transform="translate(436.7 223.6)"><tspan x="0" y="0">物理接口</tspan></text>
      </g>
      <g class="cls-5">
        <text class="cls-3" transform="translate(455.5 271.6)"><tspan x="0" y="0">硬件</tspan></text>
      </g>
      <rect class="cls-2" x="401.5" y="122.8" width="145" height="38"/>
      <g class="cls-5">
        <text class="cls-3" transform="translate(441.1 148.6)"><tspan x="0" y="0">I/O软件</tspan></text>
      </g>
      <polyline class="cls-2" points="489.4 161.2 489.4 184.2 502.8 184.2 473.4 197.2 473.7 196.8 444.2 183.8 457.7 183.8 457.7 160.8"/>
      <g class="cls-5">
        <text class="cls-3" transform="translate(510.6 66.8)"><tspan x="0" y="0">I/O操作命令</tspan></text>
        <text class="cls-3" transform="translate(510.6 88.4)"><tspan x="0" y="0">(</tspan></text>
        <text class="cls-7" transform="translate(517 88.4)"><tspan x="0" y="0">r</tspan></text>
        <text class="cls-3" transform="translate(524.9 88.4)"><tspan x="0" y="0">e</tspan></text>
        <text class="cls-3" transform="translate(534.8 88.4)"><tspan x="0" y="0">a</tspan></text>
        <text class="cls-3" transform="translate(544.8 88.4)"><tspan x="0" y="0">d</tspan></text>
        <text class="cls-4" transform="translate(556.1 88.4)"><tspan x="0" y="0">,</tspan></text>
        <text class="cls-3" transform="translate(560.3 88.4)"><tspan x="0" y="0">wri</tspan></text>
        <text class="cls-3" transform="translate(589.6 88.4)"><tspan x="0" y="0">t</tspan></text>
        <text class="cls-6" transform="translate(596.2 88.4)"><tspan x="0" y="0">e</tspan></text>
        <text class="cls-3" transform="translate(605.8 88.4)"><tspan x="0" y="0">)</tspan></text>
      </g>
      <g class="cls-5">
        <text class="cls-3" transform="translate(445.9 320.3)"><tspan x="0" y="0">虚机器</tspan></text>
      </g>
    </g>
  </g>
</svg>