<?xml version="1.0" encoding="UTF-8"?>
<svg id="_图层_1" data-name="图层_1" xmlns="http://www.w3.org/2000/svg" viewBox="0 0 786.54 345.54">
  <circle cx="230.52" cy="91.27" r="37" style="fill: none; stroke: #000; stroke-miterlimit: 10;"/>
  <text transform="translate(212.52 98.11)" style="font-family: NotoSerifSC-Regular, &apos;Noto Serif SC&apos;; font-size: 18px;"><tspan x="0" y="0">用户</tspan></text>
  <g>
    <line x1="230.52" y1="127.85" x2="230.52" y2="163.57" style="fill: none; stroke: #000; stroke-miterlimit: 10;"/>
    <polygon points="227.61 161.58 230.52 172.43 233.43 161.58 227.61 161.58"/>
  </g>
  <rect x="158.52" y="172.27" width="145" height="38" style="fill: none; stroke: #000; stroke-miterlimit: 10;"/>
  <rect x="158.52" y="210.27" width="145" height="81" style="fill: none; stroke: #000; stroke-miterlimit: 10;"/>
  <text transform="translate(194.45 198.05)" style="font-family: NotoSerifSC-Regular, &apos;Noto Serif SC&apos;; font-size: 18px;"><tspan x="0" y="0">物理接口</tspan></text>
  <text transform="translate(212.45 259.05)" style="font-family: NotoSerifSC-Regular, &apos;Noto Serif SC&apos;; font-size: 18px;"><tspan x="0" y="0">硬件</tspan></text>
  <circle cx="473.52" cy="38.77" r="37" style="fill: none; stroke: #000; stroke-miterlimit: 10;"/>
  <text transform="translate(455.52 45.61)" style="font-family: NotoSerifSC-Regular, &apos;Noto Serif SC&apos;; font-size: 18px;"><tspan x="0" y="0">用户</tspan></text>
  <g>
    <line x1="473.72" y1="76.27" x2="473.72" y2="113.41" style="fill: none; stroke: #000; stroke-miterlimit: 10;"/>
    <polygon points="470.81 111.43 473.72 122.27 476.62 111.43 470.81 111.43"/>
  </g>
  <circle cx="473.52" cy="220.77" r="123" style="fill: none; stroke: #000; stroke-dasharray: 12.08 12.08; stroke-miterlimit: 10;"/>
  <rect x="401.02" y="197.77" width="145" height="38" style="fill: none; stroke: #000; stroke-miterlimit: 10;"/>
  <rect x="401.02" y="235.77" width="145" height="81" style="fill: none; stroke: #000; stroke-miterlimit: 10;"/>
  <text transform="translate(436.74 223.55)" style="font-family: NotoSerifSC-Regular, &apos;Noto Serif SC&apos;; font-size: 18px;"><tspan x="0" y="0">物理接口</tspan></text>
  <text transform="translate(455.52 284.55)" style="font-family: NotoSerifSC-Regular, &apos;Noto Serif SC&apos;; font-size: 18px;"><tspan x="0" y="0">硬件</tspan></text>
  <rect x="401.52" y="122.77" width="145" height="38" style="fill: none; stroke: #000; stroke-miterlimit: 10;"/>
  <text transform="translate(441.13 148.55)" style="font-family: NotoSerifSC-Regular, &apos;Noto Serif SC&apos;; font-size: 18px;"><tspan x="0" y="0">I/O软件</tspan></text>
  <polyline points="489.36 161.19 489.36 184.19 502.8 184.19 473.36 197.19 473.68 196.77 444.24 183.77 457.68 183.77 457.68 160.77" style="fill: none; stroke: #000; stroke-miterlimit: 10;"/>
  <text transform="translate(510.56 66.83)" style="font-family: NotoSerifSC-Regular, &apos;Noto Serif SC&apos;; font-size: 18px;"><tspan x="0" y="0">I/O操作命令</tspan><tspan x="0" y="21.6" style="letter-spacing: 0em;">(</tspan><tspan x="6.41" y="21.6" style="letter-spacing: -.02em;">r</tspan><tspan x="14.38" y="21.6" style="letter-spacing: 0em;">e</tspan><tspan x="24.19" y="21.6">a</tspan><tspan x="34.22" y="21.6" style="letter-spacing: 0em;">d</tspan><tspan x="45.52" y="21.6" style="letter-spacing: -.09em;">,</tspan><tspan x="49.7" y="21.6">wri</tspan><tspan x="79.07" y="21.6" style="letter-spacing: 0em;">t</tspan><tspan x="85.66" y="21.6" style="letter-spacing: -.01em;">e</tspan><tspan x="95.29" y="21.6">)</tspan></text>
</svg>