<?xml version="1.0" encoding="UTF-8"?>
<svg xmlns="http://www.w3.org/2000/svg" version="1.1" viewBox="0 0 863.7 283.5">
  <defs>
    <style>
      .cls-1 {
        fill: none;
        stroke: #000;
        stroke-miterlimit: 10;
      }

      .cls-2 {
        font-family: NotoSerifSC-Light, 'Noto Serif SC';
        font-weight: 300;
      }

      .cls-2, .cls-3 {
        font-size: 18px;
      }

      .cls-3 {
        font-family: NotoSerifSC-Regular, 'Noto Serif SC';
      }
    </style>
  </defs>
  <!-- Generator: Adobe Illustrator 28.7.1, SVG Export Plug-In . SVG Version: 1.2.0 Build 142)  -->
  <g>
    <g id="_图层_1">
      <g>
        <rect class="cls-1" x="366.1" y="5.8" width="131.4" height="36"/>
        <text class="cls-2" transform="translate(395.8 31)"><tspan x="0" y="0">操作系统</tspan></text>
      </g>
      <polyline class="cls-1" points="180.1 120.5 431.8 41.8 431.8 120.5"/>
      <line class="cls-1" x1="431.8" y1="41.8" x2="683.6" y2="120.5"/>
      <text class="cls-3" transform="translate(96.4 115.4)"><tspan x="0" y="0">模块</tspan></text>
      <g>
        <g>
          <rect class="cls-1" x="61.9" y="242.1" width="86" height="36"/>
          <text class="cls-2" transform="translate(68.9 267.3)"><tspan x="0" y="0">进程控制</tspan></text>
        </g>
        <g>
          <rect class="cls-1" x="212.4" y="242.1" width="86" height="36"/>
          <text class="cls-2" transform="translate(219.3 267.3)"><tspan x="0" y="0">进程调度</tspan></text>
        </g>
        <text class="cls-2" transform="translate(171.1 267.7)"><tspan x="0" y="0">···</tspan></text>
      </g>
      <g>
        <rect class="cls-1" x="114.4" y="120.5" width="131.4" height="36"/>
        <text class="cls-2" transform="translate(144.1 145.7)"><tspan x="0" y="0">进程管理</tspan></text>
      </g>
      <g>
        <rect class="cls-1" x="366.1" y="120.5" width="131.4" height="36"/>
        <text class="cls-2" transform="translate(386.8 145.7)"><tspan x="0" y="0">存储器管理</tspan></text>
      </g>
      <g>
        <rect class="cls-1" x="617.9" y="120.5" width="131.4" height="36"/>
        <text class="cls-2" transform="translate(647.6 145.7)"><tspan x="0" y="0">文件管理</tspan></text>
      </g>
      <text class="cls-2" transform="translate(297 145.7)"><tspan x="0" y="0">···</tspan></text>
      <text class="cls-2" transform="translate(548.7 145.7)"><tspan x="0" y="0">···</tspan></text>
      <g>
        <g>
          <rect class="cls-1" x="313.6" y="242.1" width="86" height="36"/>
          <text class="cls-2" transform="translate(320.6 267.3)"><tspan x="0" y="0">内存分配</tspan></text>
        </g>
        <g>
          <rect class="cls-1" x="464.1" y="242.1" width="86" height="36"/>
          <text class="cls-2" transform="translate(471.1 267.3)"><tspan x="0" y="0">内存保护</tspan></text>
        </g>
        <text class="cls-2" transform="translate(422.8 267.7)"><tspan x="0" y="0">···</tspan></text>
      </g>
      <g>
        <g>
          <rect class="cls-1" x="565.4" y="242.1" width="86" height="36"/>
          <text class="cls-2" transform="translate(572.4 267.3)"><tspan x="0" y="0">磁盘管理</tspan></text>
        </g>
        <g>
          <rect class="cls-1" x="715.8" y="242.1" width="86" height="36"/>
          <text class="cls-2" transform="translate(722.8 267.3)"><tspan x="0" y="0">目录管理</tspan></text>
        </g>
        <text class="cls-2" transform="translate(674.6 267.7)"><tspan x="0" y="0">···</tspan></text>
      </g>
      <polyline class="cls-1" points="104.9 242.1 180.1 156.5 255.3 242.1"/>
      <polyline class="cls-1" points="356.6 242.1 431.8 156.5 507.1 242.1"/>
      <polyline class="cls-1" points="608.4 242.1 683.6 156.5 758.8 242.1"/>
      <text class="cls-3" transform="translate(34.9 236.2)"><tspan x="0" y="0">子模块</tspan></text>
    </g>
  </g>
</svg>