<?xml version="1.0" encoding="UTF-8"?>
<svg id="_图层_1" xmlns="http://www.w3.org/2000/svg" viewBox="0 0 863.69 238.54">
  <text transform="translate(275.7 45.3)" style="font-family: NotoSerifSC-Regular, &apos;Noto Serif SC&apos;; font-size: 18px; isolation: isolate;"><tspan x="0" y="0">输入设备</tspan></text>
  <polygon points="269.03 53.5 355.03 53.5 355.03 22.5 291.03 22.5 269.03 30.92 269.03 53.5" style="fill: none; stroke: #000; stroke-miterlimit: 10;"/>
  <text transform="translate(406.43 44.8)" style="font-family: NotoSerifSC-Regular, &apos;Noto Serif SC&apos;; font-size: 18px; isolation: isolate;"><tspan x="0" y="0">外围机</tspan></text>
  <rect x="401.03" y="22" width="65" height="31" style="fill: none; stroke: #000; stroke-miterlimit: 10;"/>
  <line x1="355.61" y1="37.5" x2="401.03" y2="37.5" style="fill: none; stroke: #000; stroke-miterlimit: 10;"/>
  <line x1="466.47" y1="37.74" x2="511.89" y2="37.74" style="fill: none; stroke: #000; stroke-miterlimit: 10;"/>
  <text transform="translate(529.1 45.39)" style="font-family: NotoSerifSC-Regular, &apos;Noto Serif SC&apos;; font-size: 18px; isolation: isolate;"><tspan x="0" y="0">磁盘</tspan></text>
  <path d="M582.23,11.23c-5.13,3.13-17.55,9.77-34.71,9.84-17.65.08-30.38-6.83-35.42-9.92,5.05-3.1,17.54-9.85,34.84-9.92,17.26-.07,29.81,6.53,35.07,9.71v40.56c-5.13,3.13-17.55,9.77-34.71,9.84-17.5.07-30.16-6.71-35.29-9.84V12" style="fill: none; stroke: #000; stroke-miterlimit: 10;"/>
  <polyline points="512.03 12.03 512.03 10.93 512.03 11.5" style="fill: none; stroke: #000; stroke-miterlimit: 10;"/>
  <text transform="translate(302.1 135.3)" style="font-family: NotoSerifSC-Regular, &apos;Noto Serif SC&apos;; font-size: 18px; isolation: isolate;"><tspan x="0" y="0">磁盘</tspan></text>
  <path d="M355.24,100.94c-5.13,3.13-17.55,9.77-34.71,9.84-17.65.08-30.38-6.83-35.42-9.92,5.05-3.1,17.54-9.85,34.84-9.92,17.26-.07,29.81,6.53,35.07,9.71v40.56c-5.13,3.13-17.55,9.77-34.71,9.84-17.5.07-30.16-6.71-35.29-9.84v-39.5" style="fill: none; stroke: #000; stroke-miterlimit: 10;"/>
  <text transform="translate(415.48 135.3)" style="font-family: NotoSerifSC-Regular, &apos;Noto Serif SC&apos;; font-size: 18px; isolation: isolate;"><tspan x="0" y="0">主机</tspan></text>
  <rect x="401.03" y="112.5" width="65" height="31" style="fill: none; stroke: #000; stroke-miterlimit: 10;"/>
  <text transform="translate(529.1 135.3)" style="font-family: NotoSerifSC-Regular, &apos;Noto Serif SC&apos;; font-size: 18px; isolation: isolate;"><tspan x="0" y="0">磁盘</tspan></text>
  <path d="M582.23,100.94c-5.13,3.13-17.55,9.77-34.71,9.84-17.65.08-30.38-6.83-35.42-9.92,5.05-3.1,17.54-9.85,34.84-9.92,17.26-.07,29.81,6.53,35.07,9.71v40.56c-5.13,3.13-17.55,9.77-34.71,9.84-17.5.07-30.16-6.71-35.29-9.84v-39.5" style="fill: none; stroke: #000; stroke-miterlimit: 10;"/>
  <line x1="466.45" y1="128" x2="511.87" y2="128" style="fill: none; stroke: #000; stroke-miterlimit: 10;"/>
  <line x1="355.45" y1="128" x2="400.87" y2="128" style="fill: none; stroke: #000; stroke-miterlimit: 10;"/>
  <text transform="translate(302.18 221.27)" style="font-family: NotoSerifSC-Regular, &apos;Noto Serif SC&apos;; font-size: 18px; isolation: isolate;"><tspan x="0" y="0">磁盘</tspan></text>
  <path d="M355.32,186.91c-5.13,3.13-17.55,9.77-34.71,9.84-17.65.08-30.38-6.83-35.42-9.92,5.05-3.1,17.54-9.85,34.84-9.92,17.26-.07,29.81,6.53,35.07,9.71v40.56c-5.13,3.13-17.55,9.77-34.71,9.84-17.5.07-30.16-6.71-35.29-9.84v-39.5" style="fill: none; stroke: #000; stroke-miterlimit: 10;"/>
  <text transform="translate(406.5 221.27)" style="font-family: NotoSerifSC-Regular, &apos;Noto Serif SC&apos;; font-size: 18px; isolation: isolate;"><tspan x="0" y="0">外围机</tspan></text>
  <rect x="401.1" y="198.46" width="65" height="31" style="fill: none; stroke: #000; stroke-miterlimit: 10;"/>
  <line x1="466.53" y1="213.96" x2="511.95" y2="213.96" style="fill: none; stroke: #000; stroke-miterlimit: 10;"/>
  <line x1="355.53" y1="213.96" x2="400.95" y2="213.96" style="fill: none; stroke: #000; stroke-miterlimit: 10;"/>
  <text transform="translate(518.62 218.42)" style="font-family: NotoSerifSC-Regular, &apos;Noto Serif SC&apos;; font-size: 18px; isolation: isolate;"><tspan x="0" y="0">输出设备</tspan></text>
  <path d="M512.03,229.27v-30.81h82.64v30.77c-9.47,4.02-23.22,7.82-36.64,2.27-2.02-.84-2.85-1.48-4.68-2.23-15.79-6.51-31.69-3.17-41.32,0" style="fill: none; stroke: #000; stroke-miterlimit: 10;"/>
</svg>