<?xml version="1.0" encoding="UTF-8"?>
<svg id="_图层_1" xmlns="http://www.w3.org/2000/svg" viewBox="0 0 786.54 238.54">
  <text transform="translate(237.12 45.3)" style="font-family: NotoSerifSC-Regular, &apos;Noto Serif SC&apos;; font-size: 18px; isolation: isolate;"><tspan x="0" y="0">输入设备</tspan></text>
  <polygon points="230.45 53.5 316.45 53.5 316.45 22.5 252.45 22.5 230.45 30.92 230.45 53.5" style="fill: none; stroke: #000; stroke-miterlimit: 10;"/>
  <text transform="translate(367.85 44.8)" style="font-family: NotoSerifSC-Regular, &apos;Noto Serif SC&apos;; font-size: 18px; isolation: isolate;"><tspan x="0" y="0">外围机</tspan></text>
  <rect x="362.45" y="22" width="65" height="31" style="fill: none; stroke: #000; stroke-miterlimit: 10;"/>
  <line x1="317.03" y1="37.5" x2="362.45" y2="37.5" style="fill: none; stroke: #000; stroke-miterlimit: 10;"/>
  <line x1="427.89" y1="37.74" x2="473.31" y2="37.74" style="fill: none; stroke: #000; stroke-miterlimit: 10;"/>
  <text transform="translate(490.52 45.39)" style="font-family: NotoSerifSC-Regular, &apos;Noto Serif SC&apos;; font-size: 18px; isolation: isolate;"><tspan x="0" y="0">磁盘</tspan></text>
  <path d="M543.66,11.23c-5.13,3.13-17.55,9.77-34.71,9.84-17.65.08-30.38-6.83-35.42-9.92,5.05-3.1,17.54-9.85,34.84-9.92,17.26-.07,29.81,6.53,35.07,9.71v40.56c-5.13,3.13-17.55,9.77-34.71,9.84-17.5.07-30.16-6.71-35.29-9.84V12" style="fill: none; stroke: #000; stroke-miterlimit: 10;"/>
  <polyline points="473.45 12.03 473.45 10.93 473.45 11.5" style="fill: none; stroke: #000; stroke-miterlimit: 10;"/>
  <text transform="translate(263.52 135.3)" style="font-family: NotoSerifSC-Regular, &apos;Noto Serif SC&apos;; font-size: 18px; isolation: isolate;"><tspan x="0" y="0">磁盘</tspan></text>
  <path d="M316.66,100.94c-5.13,3.13-17.55,9.77-34.71,9.84-17.65.08-30.38-6.83-35.42-9.92,5.05-3.1,17.54-9.85,34.84-9.92,17.26-.07,29.81,6.53,35.07,9.71v40.56c-5.13,3.13-17.55,9.77-34.71,9.84-17.5.07-30.16-6.71-35.29-9.84v-39.5" style="fill: none; stroke: #000; stroke-miterlimit: 10;"/>
  <text transform="translate(376.9 135.3)" style="font-family: NotoSerifSC-Regular, &apos;Noto Serif SC&apos;; font-size: 18px; isolation: isolate;"><tspan x="0" y="0">主机</tspan></text>
  <rect x="362.45" y="112.5" width="65" height="31" style="fill: none; stroke: #000; stroke-miterlimit: 10;"/>
  <text transform="translate(490.52 135.3)" style="font-family: NotoSerifSC-Regular, &apos;Noto Serif SC&apos;; font-size: 18px; isolation: isolate;"><tspan x="0" y="0">磁盘</tspan></text>
  <path d="M543.66,100.94c-5.13,3.13-17.55,9.77-34.71,9.84-17.65.08-30.38-6.83-35.42-9.92,5.05-3.1,17.54-9.85,34.84-9.92,17.26-.07,29.81,6.53,35.07,9.71v40.56c-5.13,3.13-17.55,9.77-34.71,9.84-17.5.07-30.16-6.71-35.29-9.84v-39.5" style="fill: none; stroke: #000; stroke-miterlimit: 10;"/>
  <line x1="427.87" y1="128" x2="473.29" y2="128" style="fill: none; stroke: #000; stroke-miterlimit: 10;"/>
  <line x1="316.87" y1="128" x2="362.29" y2="128" style="fill: none; stroke: #000; stroke-miterlimit: 10;"/>
  <text transform="translate(263.6 221.27)" style="font-family: NotoSerifSC-Regular, &apos;Noto Serif SC&apos;; font-size: 18px; isolation: isolate;"><tspan x="0" y="0">磁盘</tspan></text>
  <path d="M316.74,186.91c-5.13,3.13-17.55,9.77-34.71,9.84-17.65.08-30.38-6.83-35.42-9.92,5.05-3.1,17.54-9.85,34.84-9.92,17.26-.07,29.81,6.53,35.07,9.71v40.56c-5.13,3.13-17.55,9.77-34.71,9.84-17.5.07-30.16-6.71-35.29-9.84v-39.5" style="fill: none; stroke: #000; stroke-miterlimit: 10;"/>
  <text transform="translate(367.92 221.27)" style="font-family: NotoSerifSC-Regular, &apos;Noto Serif SC&apos;; font-size: 18px; isolation: isolate;"><tspan x="0" y="0">外围机</tspan></text>
  <rect x="362.52" y="198.46" width="65" height="31" style="fill: none; stroke: #000; stroke-miterlimit: 10;"/>
  <line x1="427.95" y1="213.96" x2="473.37" y2="213.96" style="fill: none; stroke: #000; stroke-miterlimit: 10;"/>
  <line x1="316.95" y1="213.96" x2="362.37" y2="213.96" style="fill: none; stroke: #000; stroke-miterlimit: 10;"/>
  <text transform="translate(480.05 218.42)" style="font-family: NotoSerifSC-Regular, &apos;Noto Serif SC&apos;; font-size: 18px; isolation: isolate;"><tspan x="0" y="0">输出设备</tspan></text>
  <path d="M473.45,229.27v-30.81h82.64v30.77c-9.47,4.02-23.22,7.82-36.64,2.27-2.02-.84-2.85-1.48-4.68-2.23-15.79-6.51-31.69-3.17-41.32,0" style="fill: none; stroke: #000; stroke-miterlimit: 10;"/>
</svg>