<?xml version="1.0" encoding="UTF-8"?>
<svg id="_layer_1" data-name="layer_1" xmlns="http://www.w3.org/2000/svg" viewBox="0 0 863.69 200.5">
  <text transform="translate(413.89 34)" style="font-family: NotoSerifSC-Regular, &apos;Noto Serif SC&apos;; font-size: 18px; isolation: isolate;"><tspan x="0" y="0">用户</tspan></text>
  <text transform="translate(276.1 77)" style="font-family: NotoSerifSC-Regular, &apos;Noto Serif SC&apos;; font-size: 18px; isolation: isolate;"><tspan x="0" y="0">应用程序</tspan></text>
  <g id="arrow">
    <line x1="431.89" y1="57.1" x2="431.89" y2="83.3" style="fill: none; stroke: #000; stroke-miterlimit: 10;"/>
    <polygon points="428.99 59 431.89 48.2 434.8 59 428.99 59"/>
    <polygon points="428.99 81.4 431.89 92.2 434.8 81.4 428.99 81.4"/>
  </g>
  <text transform="translate(403.89 118)" style="font-family: NotoSerifSC-Regular, &apos;Noto Serif SC&apos;; font-size: 18px; isolation: isolate;"><tspan x="0" y="0">命令</tspan></text>
  <text transform="translate(249.29 117)" style="font-family: NotoSerifSC-Regular, &apos;Noto Serif SC&apos;; font-size: 18px; isolation: isolate;"><tspan x="0" y="0">系统调用</tspan></text>
  <text transform="translate(503.89 117)" style="font-family: NotoSerifSC-Regular, &apos;Noto Serif SC&apos;; font-size: 18px; isolation: isolate;"><tspan x="0" y="0">图标—窗口</tspan></text>
  <g id="arrow-2" data-name="arrow">
    <line x1="537.1" y1="57.1" x2="537.1" y2="83.3" style="fill: none; stroke: #000; stroke-miterlimit: 10;"/>
    <polygon points="534.2 59 537.1 48.2 539.99 59 534.2 59"/>
    <polygon points="534.2 81.4 537.1 92.2 539.99 81.4 534.2 81.4"/>
  </g>
  <text transform="translate(395.89 143.8)" style="font-family: NotoSerifSC-Regular, &apos;Noto Serif SC&apos;; font-size: 18px; isolation: isolate;"><tspan x="0" y="0">操作系统</tspan></text>
  <text transform="translate(386.89 180.2)" style="font-family: NotoSerifSC-Regular, &apos;Noto Serif SC&apos;; font-size: 18px; isolation: isolate;"><tspan x="0" y="0">计算机硬件</tspan></text>
  <rect x="284.69" y="6.25" width="294.3" height="42" style="fill: none; stroke: #000; stroke-miterlimit: 10;"/>
  <rect x="229.8" y="48.3" width="164.5" height="43.4" style="fill: none; stroke: #000; stroke-miterlimit: 10;"/>
  <rect x="159.4" y="91.7" width="545" height="60.8" style="fill: none; stroke: #000; stroke-miterlimit: 10;"/>
  <rect x="115.39" y="152.5" width="633" height="44" style="fill: none; stroke: #000; stroke-miterlimit: 10;"/>
</svg>