<?xml version="1.0" encoding="UTF-8"?>
<svg id="base" xmlns="http://www.w3.org/2000/svg" viewBox="0 0 786.54 200.54">
  <path d="M540.41,6.2v42H246.14V6.2h294.27M541.41,5.2H245.14v44h296.27V5.2h0Z"/>
  <path d="M354.71,49.2v42h-162.49v-42h162.49M355.71,48.2h-164.49v44h164.49v-44h0Z"/>
  <text transform="translate(375.27 34.04)" style="font-family: NotoSerifSC-Regular, &apos;Noto Serif SC&apos;; font-size: 18px;"><tspan x="0" y="0">用户</tspan></text>
  <text transform="translate(237.46 77.04)" style="font-family: NotoSerifSC-Regular, &apos;Noto Serif SC&apos;; font-size: 18px;"><tspan x="0" y="0">应用程序</tspan></text>
  <path d="M664.77,92.73v58.85H121.77v-58.85h543M665.77,91.73H120.77v60.85h545v-60.85h0Z"/>
  <g>
    <line x1="393.27" y1="57.06" x2="393.27" y2="83.34" style="fill: none; stroke: #000; stroke-miterlimit: 10;"/>
    <polygon points="390.36 59.04 393.27 48.2 396.18 59.04 390.36 59.04"/>
    <polygon points="390.36 81.35 393.27 92.2 396.18 81.35 390.36 81.35"/>
  </g>
  <text transform="translate(365.27 117.95)" style="font-family: NotoSerifSC-Regular, &apos;Noto Serif SC&apos;; font-size: 18px;"><tspan x="0" y="0">命令</tspan></text>
  <text transform="translate(210.67 116.99)" style="font-family: NotoSerifSC-Regular, &apos;Noto Serif SC&apos;; font-size: 18px;"><tspan x="0" y="0">系统调用</tspan></text>
  <text transform="translate(465.33 116.99)" style="font-family: NotoSerifSC-Regular, &apos;Noto Serif SC&apos;; font-size: 18px;"><tspan x="0" y="0">图标—窗口</tspan></text>
  <g>
    <line x1="498.5" y1="57.06" x2="498.5" y2="83.34" style="fill: none; stroke: #000; stroke-miterlimit: 10;"/>
    <polygon points="495.59 59.04 498.5 48.2 501.41 59.04 495.59 59.04"/>
    <polygon points="495.59 81.35 498.5 92.2 501.41 81.35 495.59 81.35"/>
  </g>
  <text transform="translate(357.27 143.82)" style="font-family: NotoSerifSC-Regular, &apos;Noto Serif SC&apos;; font-size: 18px;"><tspan x="0" y="0">操作系统</tspan></text>
  <path d="M708.77,152.34v42H77.77v-42h631M709.77,151.34H76.77v44h633v-44h0Z"/>
  <text transform="translate(348.27 180.18)" style="font-family: NotoSerifSC-Regular, &apos;Noto Serif SC&apos;; font-size: 18px;"><tspan x="0" y="0">计算机硬件</tspan></text>
</svg>