<?xml version="1.0" encoding="UTF-8"?>
<svg id="base" xmlns="http://www.w3.org/2000/svg" viewBox="0 0 786.54 200.54">
  <path d="M540.41,7v42H246.14V7h294.27M541.41,6H245.14v44h296.27V6h0Z"/>
  <path d="M354.71,50v42h-162.49v-42h162.49M355.71,49h-164.49v44h164.49v-44h0Z"/>
  <text transform="translate(375.27 34.84)" style="font-family: NotoSerifSC-Regular, &apos;Noto Serif SC&apos;; font-size: 18px;"><tspan x="0" y="0">用户</tspan></text>
  <text transform="translate(237.46 77.84)" style="font-family: NotoSerifSC-Regular, &apos;Noto Serif SC&apos;; font-size: 18px;"><tspan x="0" y="0">应用程序</tspan></text>
  <path d="M664.77,93.53v58.85H121.77v-58.85h543M665.77,92.53H120.77v60.85h545v-60.85h0Z"/>
  <g>
    <line x1="393.27" y1="57.86" x2="393.27" y2="84.14" style="fill: none; stroke: #000; stroke-miterlimit: 10;"/>
    <polygon points="390.36 59.84 393.27 49 396.18 59.84 390.36 59.84"/>
    <polygon points="390.36 82.16 393.27 93 396.18 82.16 390.36 82.16"/>
  </g>
  <text transform="translate(365.27 118.75)" style="font-family: NotoSerifSC-Regular, &apos;Noto Serif SC&apos;; font-size: 18px;"><tspan x="0" y="0">命令</tspan></text>
  <text transform="translate(210.67 117.8)" style="font-family: NotoSerifSC-Regular, &apos;Noto Serif SC&apos;; font-size: 18px;"><tspan x="0" y="0">系统调用</tspan></text>
  <text transform="translate(465.33 117.8)" style="font-family: NotoSerifSC-Regular, &apos;Noto Serif SC&apos;; font-size: 18px;"><tspan x="0" y="0">图标—窗口</tspan></text>
  <g>
    <line x1="498.5" y1="57.86" x2="498.5" y2="84.14" style="fill: none; stroke: #000; stroke-miterlimit: 10;"/>
    <polygon points="495.59 59.84 498.5 49 501.41 59.84 495.59 59.84"/>
    <polygon points="495.59 82.16 498.5 93 501.41 82.16 495.59 82.16"/>
  </g>
  <text transform="translate(357.27 144.63)" style="font-family: NotoSerifSC-Regular, &apos;Noto Serif SC&apos;; font-size: 18px;"><tspan x="0" y="0">操作系统</tspan></text>
  <path d="M708.77,153.15v42H77.77v-42h631M709.77,152.15H76.77v44h633v-44h0Z"/>
  <text transform="translate(348.27 180.99)" style="font-family: NotoSerifSC-Regular, &apos;Noto Serif SC&apos;; font-size: 18px;"><tspan x="0" y="0">计算机硬件</tspan></text>
</svg>