<?xml version="1.0" encoding="UTF-8"?>
<svg id="_图层_1" data-name="图层_1" xmlns="http://www.w3.org/2000/svg" viewBox="0 0 786.5 200.5">
  <text transform="translate(375.3 34)" style="font-family: NotoSerifSC-Regular, &apos;Noto Serif SC&apos;; font-size: 18px; isolation: isolate;"><tspan x="0" y="0">用户</tspan></text>
  <text transform="translate(237.5 77)" style="font-family: NotoSerifSC-Regular, &apos;Noto Serif SC&apos;; font-size: 18px; isolation: isolate;"><tspan x="0" y="0">应用程序</tspan></text>
  <g id="arrow">
    <line x1="393.3" y1="57.1" x2="393.3" y2="83.3" style="fill: none; stroke: #000; stroke-miterlimit: 10;"/>
    <polygon points="390.4 59 393.3 48.2 396.2 59 390.4 59"/>
    <polygon points="390.4 81.4 393.3 92.2 396.2 81.4 390.4 81.4"/>
  </g>
  <text transform="translate(365.3 118)" style="font-family: NotoSerifSC-Regular, &apos;Noto Serif SC&apos;; font-size: 18px; isolation: isolate;"><tspan x="0" y="0">命令</tspan></text>
  <text transform="translate(210.7 117)" style="font-family: NotoSerifSC-Regular, &apos;Noto Serif SC&apos;; font-size: 18px; isolation: isolate;"><tspan x="0" y="0">系统调用</tspan></text>
  <text transform="translate(465.3 117)" style="font-family: NotoSerifSC-Regular, &apos;Noto Serif SC&apos;; font-size: 18px; isolation: isolate;"><tspan x="0" y="0">图标—窗口</tspan></text>
  <g id="arrow-2" data-name="arrow">
    <line x1="498.5" y1="57.1" x2="498.5" y2="83.3" style="fill: none; stroke: #000; stroke-miterlimit: 10;"/>
    <polygon points="495.6 59 498.5 48.2 501.4 59 495.6 59"/>
    <polygon points="495.6 81.4 498.5 92.2 501.4 81.4 495.6 81.4"/>
  </g>
  <text transform="translate(357.3 143.8)" style="font-family: NotoSerifSC-Regular, &apos;Noto Serif SC&apos;; font-size: 18px; isolation: isolate;"><tspan x="0" y="0">操作系统</tspan></text>
  <text transform="translate(348.3 180.2)" style="font-family: NotoSerifSC-Regular, &apos;Noto Serif SC&apos;; font-size: 18px; isolation: isolate;"><tspan x="0" y="0">计算机硬件</tspan></text>
  <rect x="246.1" y="6.25" width="294.3" height="42" style="fill: none; stroke: #000; stroke-miterlimit: 10;"/>
  <rect x="191.2" y="48.3" width="164.5" height="43.4" style="fill: none; stroke: #000; stroke-miterlimit: 10;"/>
  <rect x="120.8" y="91.7" width="545" height="60.8" style="fill: none; stroke: #000; stroke-miterlimit: 10;"/>
  <rect x="76.8" y="152.5" width="633" height="44" style="fill: none; stroke: #000; stroke-miterlimit: 10;"/>
</svg>