<?xml version="1.0" encoding="UTF-8"?>
<svg id="_图层_1" data-name="图层_1" xmlns="http://www.w3.org/2000/svg" viewBox="0 0 863.69 277.54">
  <text transform="translate(60.42 32.25)" style="font-family: NotoSerifSC-Regular, &apos;Noto Serif SC&apos;; font-size: 18px;"><tspan x="0" y="0">用户程序</tspan></text>
  <text transform="translate(60.42 109.68)" style="font-family: NotoSerifSC-Regular, &apos;Noto Serif SC&apos;; font-size: 18px;"><tspan x="0" y="0">监督程序</tspan></text>
  <text transform="translate(68.99 186.56)" style="font-family: NotoSerifSC-Regular, &apos;Noto Serif SC&apos;; font-size: 18px;"><tspan x="0" y="0">I/O操作</tspan></text>
  <polyline points="143.27 25.41 188.67 25.41 188.67 102.84 229.67 102.84 229.67 179.72 376.67 179.72 376.67 102.84 412.67 102.84 412.67 25.41 504.39 25.41 504.39 102.57 535.63 102.57 535.63 179.72 682.67 179.72 682.67 102.57 711.67 102.57 711.67 25.41 790.67 25.41" style="fill: none; stroke: #000; stroke-miterlimit: 10;"/>
  <text transform="translate(146.64 16.29)" style="font-family: NotoSerifSC-Regular, &apos;Noto Serif SC&apos;; font-size: 18px;"><tspan x="0" y="0">I/O中断请求</tspan></text>
  <text transform="translate(194.92 95.29)" style="font-family: NotoSerifSC-Regular, &apos;Noto Serif SC&apos;; font-size: 18px;"><tspan x="0" y="0">启动I/O</tspan></text>
  <text transform="translate(343.63 94.86)" style="font-family: NotoSerifSC-Regular, &apos;Noto Serif SC&apos;; font-size: 18px;"><tspan x="0" y="0">I/O完成</tspan></text>
  <text transform="translate(383.63 122.86)" style="font-family: NotoSerifSC-Regular, &apos;Noto Serif SC&apos;; font-size: 18px;"><tspan x="0" y="0">结束中断</tspan></text>
  <text transform="translate(457.63 15.86)" style="font-family: NotoSerifSC-Regular, &apos;Noto Serif SC&apos;; font-size: 18px;"><tspan x="0" y="0">I/O中断请求</tspan></text>
  <text transform="translate(505.63 96.26)" style="font-family: NotoSerifSC-Regular, &apos;Noto Serif SC&apos;; font-size: 18px;"><tspan x="0" y="0">启动I/O</tspan></text>
  <text transform="translate(641.34 95.83)" style="font-family: NotoSerifSC-Regular, &apos;Noto Serif SC&apos;; font-size: 18px;"><tspan x="0" y="0">I/O完成</tspan></text>
  <text transform="translate(688.34 123.83)" style="font-family: NotoSerifSC-Regular, &apos;Noto Serif SC&apos;; font-size: 18px;"><tspan x="0" y="0">结束中断</tspan></text>
  <g id="arrow">
    <g>
      <line x1="143.27" y1="247.12" x2="797.3" y2="247.12" style="fill: none; stroke: #000; stroke-miterlimit: 10;"/>
      <polygon points="794.49 250.82 796.07 247.12 794.49 243.41 803.27 247.12 794.49 250.82"/>
    </g>
  </g>
  <text transform="translate(181.95 226.24)" style="font-family: NotoSerifSC-Regular, &apos;Noto Serif SC&apos;; font-size: 19px;"><tspan x="0" y="0">t</tspan></text>
  <text transform="translate(188.92 228.56) scale(.58)" style="font-family: NotoSerifSC-Regular, &apos;Noto Serif SC&apos;; font-size: 19px;"><tspan x="0" y="0">1</tspan></text>
  <text transform="translate(223.37 226.24)" style="font-family: NotoSerifSC-Regular, &apos;Noto Serif SC&apos;; font-size: 19px;"><tspan x="0" y="0">t</tspan></text>
  <text transform="translate(230.35 228.56) scale(.58)" style="font-family: NotoSerifSC-Regular, &apos;Noto Serif SC&apos;; font-size: 19px;"><tspan x="0" y="0">2</tspan></text>
  <text transform="translate(371.37 226.24)" style="font-family: NotoSerifSC-Regular, &apos;Noto Serif SC&apos;; font-size: 19px;"><tspan x="0" y="0">t</tspan></text>
  <text transform="translate(378.35 228.56) scale(.58)" style="font-family: NotoSerifSC-Regular, &apos;Noto Serif SC&apos;; font-size: 19px;"><tspan x="0" y="0">3</tspan></text>
  <text transform="translate(407.37 226.24)" style="font-family: NotoSerifSC-Regular, &apos;Noto Serif SC&apos;; font-size: 19px;"><tspan x="0" y="0">t</tspan></text>
  <text transform="translate(414.35 228.56) scale(.58)" style="font-family: NotoSerifSC-Regular, &apos;Noto Serif SC&apos;; font-size: 19px;"><tspan x="0" y="0">4</tspan></text>
  <text transform="translate(499.37 226.24)" style="font-family: NotoSerifSC-Regular, &apos;Noto Serif SC&apos;; font-size: 19px;"><tspan x="0" y="0">t</tspan></text>
  <text transform="translate(506.35 228.56) scale(.58)" style="font-family: NotoSerifSC-Regular, &apos;Noto Serif SC&apos;; font-size: 19px;"><tspan x="0" y="0">5</tspan></text>
  <text transform="translate(531.37 226.24)" style="font-family: NotoSerifSC-Regular, &apos;Noto Serif SC&apos;; font-size: 19px;"><tspan x="0" y="0">t</tspan></text>
  <text transform="translate(538.35 228.56) scale(.58)" style="font-family: NotoSerifSC-Regular, &apos;Noto Serif SC&apos;; font-size: 19px;"><tspan x="0" y="0">6</tspan></text>
  <text transform="translate(677.09 226.24)" style="font-family: NotoSerifSC-Regular, &apos;Noto Serif SC&apos;; font-size: 19px;"><tspan x="0" y="0">t</tspan></text>
  <text transform="translate(684.06 228.56) scale(.58)" style="font-family: NotoSerifSC-Regular, &apos;Noto Serif SC&apos;; font-size: 19px;"><tspan x="0" y="0">7</tspan></text>
  <text transform="translate(705.09 226.24)" style="font-family: NotoSerifSC-Regular, &apos;Noto Serif SC&apos;; font-size: 19px;"><tspan x="0" y="0">t</tspan></text>
  <text transform="translate(712.06 228.56) scale(.58)" style="font-family: NotoSerifSC-Regular, &apos;Noto Serif SC&apos;; font-size: 19px;"><tspan x="0" y="0">8</tspan></text>
  <text transform="translate(794.61 267.79)" style="font-family: NotoSerifSC-Regular, &apos;Noto Serif SC&apos;; font-size: 19px;"><tspan x="0" y="0">t</tspan></text>
</svg>