<?xml version="1.0" encoding="UTF-8"?>
<svg id="_图层_1" data-name="图层_1" xmlns="http://www.w3.org/2000/svg" viewBox="0 0 863.69 506.54">
  <text transform="translate(34.79 111.79)" style="font-family: NotoSerifSC-Regular, &apos;Noto Serif SC&apos;; font-size: 18px;"><tspan x="0" y="0">程序A</tspan></text>
  <text transform="translate(34.79 189.9)" style="font-family: NotoSerifSC-Regular, &apos;Noto Serif SC&apos;; font-size: 18px;"><tspan x="0" y="0">程序B</tspan></text>
  <text transform="translate(34.79 268.01)" style="font-family: NotoSerifSC-Regular, &apos;Noto Serif SC&apos;; font-size: 18px;"><tspan x="0" y="0">程序C</tspan></text>
  <text transform="translate(33.58 346.12)" style="font-family: NotoSerifSC-Regular, &apos;Noto Serif SC&apos;; font-size: 18px;"><tspan x="0" y="0">程序D</tspan></text>
  <text transform="translate(12.06 424.23)" style="font-family: NotoSerifSC-Regular, &apos;Noto Serif SC&apos;; font-size: 18px;"><tspan x="0" y="0">调度程序</tspan></text>
  <g>
    <line x1="138.92" y1="59.89" x2="138.92" y2="65.89" style="fill: none; stroke: #000; stroke-miterlimit: 10;"/>
    <line x1="138.92" y1="78.09" x2="138.92" y2="487.03" style="fill: none; stroke: #000; stroke-dasharray: 12.21 12.21; stroke-miterlimit: 10;"/>
    <line x1="138.92" y1="493.13" x2="138.92" y2="499.13" style="fill: none; stroke: #000; stroke-miterlimit: 10;"/>
  </g>
  <g id="arrow">
    <g>
      <line x1="41.36" y1="486.5" x2="835.89" y2="486.5" style="fill: none; stroke: #000; stroke-miterlimit: 10;"/>
      <polygon points="833.08 490.2 834.66 486.5 833.08 482.8 841.86 486.5 833.08 490.2"/>
    </g>
  </g>
  <g>
    <line x1="176.63" y1="59.89" x2="176.63" y2="65.89" style="fill: none; stroke: #000; stroke-miterlimit: 10;"/>
    <line x1="176.63" y1="78.09" x2="176.63" y2="487.03" style="fill: none; stroke: #000; stroke-dasharray: 12.21 12.21; stroke-miterlimit: 10;"/>
    <line x1="176.63" y1="493.13" x2="176.63" y2="499.13" style="fill: none; stroke: #000; stroke-miterlimit: 10;"/>
  </g>
  <line x1="176.63" y1="104.75" x2="479.86" y2="104.75" style="fill: none; stroke: #000; stroke-dasharray: 12 6 1 6; stroke-miterlimit: 10;"/>
  <line x1="740.75" y1="417.19" x2="789.36" y2="417.19" style="fill: none; stroke: #000; stroke-miterlimit: 10;"/>
  <g>
    <line x1="261.15" y1="59.89" x2="261.15" y2="65.89" style="fill: none; stroke: #000; stroke-miterlimit: 10;"/>
    <line x1="261.15" y1="78.09" x2="261.15" y2="487.03" style="fill: none; stroke: #000; stroke-dasharray: 12.21 12.21; stroke-miterlimit: 10;"/>
    <line x1="261.15" y1="493.13" x2="261.15" y2="499.13" style="fill: none; stroke: #000; stroke-miterlimit: 10;"/>
  </g>
  <g>
    <line x1="298.87" y1="59.74" x2="298.87" y2="65.74" style="fill: none; stroke: #000; stroke-miterlimit: 10;"/>
    <line x1="298.87" y1="77.95" x2="298.87" y2="486.88" style="fill: none; stroke: #000; stroke-dasharray: 12.21 12.21; stroke-miterlimit: 10;"/>
    <line x1="298.87" y1="492.99" x2="298.87" y2="498.99" style="fill: none; stroke: #000; stroke-miterlimit: 10;"/>
  </g>
  <text transform="translate(178.48 177.97)" style="font-family: NotoSerifSC-Regular, &apos;Noto Serif SC&apos;; font-size: 18px;"><tspan x="0" y="0">程序B</tspan></text>
  <polyline points="298.87 182.86 322.03 182.86 399.87 182.86 841.86 182.86" style="fill: none; stroke: #000; stroke-dasharray: 12 6 1 6; stroke-miterlimit: 10;"/>
  <g>
    <line x1="417.19" y1="261.17" x2="423.19" y2="261.17" style="fill: none; stroke: #000; stroke-miterlimit: 10;"/>
    <line x1="429.01" y1="261.17" x2="432.9" y2="261.17" style="fill: none; stroke: #000; stroke-dasharray: .97 5.82; stroke-miterlimit: 10;"/>
    <line x1="435.81" y1="261.17" x2="675.58" y2="261.17" style="fill: none; stroke: #000; stroke-dasharray: 11.65 5.82 .97 5.82; stroke-miterlimit: 10;"/>
    <line x1="678.49" y1="261.17" x2="684.49" y2="261.17" style="fill: none; stroke: #000; stroke-miterlimit: 10;"/>
  </g>
  <text transform="translate(92.95 28.82)" style="font-family: NotoSerifSC-Regular, &apos;Noto Serif SC&apos;; font-size: 18px;"><tspan x="0" y="0">程序A</tspan><tspan x="-7.25" y="21.6">I/O请求</tspan></text>
  <text transform="translate(214.73 28.82)" style="font-family: NotoSerifSC-Regular, &apos;Noto Serif SC&apos;; font-size: 18px;"><tspan x="0" y="0">程序B</tspan><tspan x="-7.69" y="21.6">I/O请求</tspan></text>
  <text transform="translate(84.45 99.25)" style="font-family: NotoSerifSC-Regular, &apos;Noto Serif SC&apos;; font-size: 18px;"><tspan x="0" y="0">程序A</tspan></text>
  <text transform="translate(183.58 78.33)" style="font-family: NotoSerifSC-Regular, &apos;Noto Serif SC&apos;; font-size: 18px;"><tspan x="0" y="0">程序A </tspan><tspan x="-3.92" y="21.6" style="letter-spacing: -.02em;">I</tspan><tspan x="3.04" y="21.6">O处理</tspan></text>
  <text transform="translate(309.18 157.05)" style="font-family: NotoSerifSC-Regular, &apos;Noto Serif SC&apos;; font-size: 18px;"><tspan x="0" y="0">程序B </tspan><tspan x="-7.69" y="21.6">I/O处理</tspan></text>
  <text transform="translate(301.23 256.24)" style="font-family: NotoSerifSC-Regular, &apos;Noto Serif SC&apos;; font-size: 18px;"><tspan x="0" y="0">程序C</tspan></text>
  <g>
    <line x1="382.38" y1="59.74" x2="382.38" y2="65.74" style="fill: none; stroke: #000; stroke-miterlimit: 10;"/>
    <line x1="382.38" y1="77.95" x2="382.38" y2="486.88" style="fill: none; stroke: #000; stroke-dasharray: 12.21 12.21; stroke-miterlimit: 10;"/>
    <line x1="382.38" y1="492.99" x2="382.38" y2="498.99" style="fill: none; stroke: #000; stroke-miterlimit: 10;"/>
  </g>
  <g>
    <line x1="417.1" y1="59.74" x2="417.1" y2="65.74" style="fill: none; stroke: #000; stroke-miterlimit: 10;"/>
    <line x1="417.1" y1="77.95" x2="417.1" y2="486.88" style="fill: none; stroke: #000; stroke-dasharray: 12.21 12.21; stroke-miterlimit: 10;"/>
    <line x1="417.1" y1="492.99" x2="417.1" y2="498.99" style="fill: none; stroke: #000; stroke-miterlimit: 10;"/>
  </g>
  <g>
    <line x1="600.62" y1="339.08" x2="606.62" y2="339.08" style="fill: none; stroke: #000; stroke-miterlimit: 10;"/>
    <line x1="612.4" y1="339.08" x2="616.25" y2="339.08" style="fill: none; stroke: #000; stroke-dasharray: .96 5.78; stroke-miterlimit: 10;"/>
    <line x1="619.14" y1="339.08" x2="832.97" y2="339.08" style="fill: none; stroke: #000; stroke-dasharray: 11.56 5.78 .96 5.78; stroke-miterlimit: 10;"/>
    <line x1="835.86" y1="339.08" x2="841.86" y2="339.08" style="fill: none; stroke: #000; stroke-miterlimit: 10;"/>
  </g>
  <text transform="translate(424.9 235.32)" style="font-family: NotoSerifSC-Regular, &apos;Noto Serif SC&apos;; font-size: 18px;"><tspan x="0" y="0">程序C </tspan><tspan x="-7.5" y="21.6">I/O处理</tspan></text>
  <text transform="translate(421.5 333.21)" style="font-family: NotoSerifSC-Regular, &apos;Noto Serif SC&apos;; font-size: 18px;"><tspan x="0" y="0">程序D</tspan></text>
  <text transform="translate(335.7 28.82)" style="font-family: NotoSerifSC-Regular, &apos;Noto Serif SC&apos;; font-size: 18px;"><tspan x="0" y="0">程序C</tspan><tspan x="-7.5" y="21.6">I/O请求</tspan></text>
  <g>
    <line x1="544.91" y1="59.78" x2="544.91" y2="65.78" style="fill: none; stroke: #000; stroke-miterlimit: 10;"/>
    <line x1="544.91" y1="77.99" x2="544.91" y2="486.92" style="fill: none; stroke: #000; stroke-dasharray: 12.21 12.21; stroke-miterlimit: 10;"/>
    <line x1="544.91" y1="493.02" x2="544.91" y2="499.02" style="fill: none; stroke: #000; stroke-miterlimit: 10;"/>
  </g>
  <g>
    <line x1="600.62" y1="59.78" x2="600.62" y2="65.78" style="fill: none; stroke: #000; stroke-miterlimit: 10;"/>
    <line x1="600.62" y1="77.99" x2="600.62" y2="486.92" style="fill: none; stroke: #000; stroke-dasharray: 12.21 12.21; stroke-miterlimit: 10;"/>
    <line x1="600.62" y1="493.02" x2="600.62" y2="499.02" style="fill: none; stroke: #000; stroke-miterlimit: 10;"/>
  </g>
  <text transform="translate(519.76 28.82)" style="font-family: NotoSerifSC-Regular, &apos;Noto Serif SC&apos;; font-size: 18px;"><tspan x="0" y="0">程序D</tspan><tspan x="-6.79" y="21.6">I/O请求</tspan></text>
  <text transform="translate(455.15 28.82)" style="font-family: NotoSerifSC-Regular, &apos;Noto Serif SC&apos;; font-size: 18px;"><tspan x="0" y="0">程序A </tspan><tspan x="-7.25" y="21.6">I/O完成</tspan></text>
  <g>
    <line x1="479.44" y1="59.78" x2="479.44" y2="65.78" style="fill: none; stroke: #000; stroke-miterlimit: 10;"/>
    <line x1="479.44" y1="77.99" x2="479.44" y2="486.92" style="fill: none; stroke: #000; stroke-dasharray: 12.21 12.21; stroke-miterlimit: 10;"/>
    <line x1="479.44" y1="493.02" x2="479.44" y2="499.02" style="fill: none; stroke: #000; stroke-miterlimit: 10;"/>
  </g>
  <text transform="translate(589.99 28.82)" style="font-family: NotoSerifSC-Regular, &apos;Noto Serif SC&apos;; font-size: 18px;"><tspan x="0" y="0">程序A</tspan><tspan x="-11.54" y="21.6">再被调度</tspan></text>
  <text transform="translate(660.44 28.82)" style="font-family: NotoSerifSC-Regular, &apos;Noto Serif SC&apos;; font-size: 18px;"><tspan x="0" y="0">程序C </tspan><tspan x="-7.5" y="21.6">I/O完成</tspan></text>
  <g>
    <line x1="684.49" y1="59.6" x2="684.49" y2="65.6" style="fill: none; stroke: #000; stroke-miterlimit: 10;"/>
    <line x1="684.49" y1="77.8" x2="684.49" y2="486.74" style="fill: none; stroke: #000; stroke-dasharray: 12.21 12.21; stroke-miterlimit: 10;"/>
    <line x1="684.49" y1="492.84" x2="684.49" y2="498.84" style="fill: none; stroke: #000; stroke-miterlimit: 10;"/>
  </g>
  <text transform="translate(716.46 28.82)" style="font-family: NotoSerifSC-Regular, &apos;Noto Serif SC&apos;; font-size: 18px;"><tspan x="0" y="0">程序A </tspan><tspan x="6.46" y="21.6">完成</tspan></text>
  <g>
    <line x1="740.75" y1="59.27" x2="740.75" y2="65.27" style="fill: none; stroke: #000; stroke-miterlimit: 10;"/>
    <line x1="740.75" y1="77.48" x2="740.75" y2="486.41" style="fill: none; stroke: #000; stroke-dasharray: 12.21 12.21; stroke-miterlimit: 10;"/>
    <line x1="740.75" y1="492.52" x2="740.75" y2="498.52" style="fill: none; stroke: #000; stroke-miterlimit: 10;"/>
  </g>
  <text transform="translate(776.85 28.82)" style="font-family: NotoSerifSC-Regular, &apos;Noto Serif SC&apos;; font-size: 18px;"><tspan x="0" y="0">程序C </tspan><tspan x="-11.78" y="21.6">再被调度</tspan></text>
  <g>
    <line x1="802.86" y1="59.13" x2="802.86" y2="65.13" style="fill: none; stroke: #000; stroke-miterlimit: 10;"/>
    <line x1="802.86" y1="77.34" x2="802.86" y2="486.27" style="fill: none; stroke: #000; stroke-dasharray: 12.21 12.21; stroke-miterlimit: 10;"/>
    <line x1="802.86" y1="492.37" x2="802.86" y2="498.37" style="fill: none; stroke: #000; stroke-miterlimit: 10;"/>
  </g>
  <polyline points="841.36 260.97 802.86 260.97 802.86 417.19 740.75 417.19 740.75 104.75 604.86 104.75 600.62 104.75 600.62 417.19 544.91 417.19 544.91 339.08 417.1 339.08 417.1 417.19 382.38 417.19 382.38 261.17 298.87 261.17 298.87 261.23 298.87 417.19 261.15 417.19 261.15 261.23 261.15 182.86 176.63 182.86 176.63 417.19 138.92 417.19 138.92 418.17 138.92 105.57 138.92 104.75 87.49 104.75" style="fill: none; stroke: #000; stroke-miterlimit: 10; stroke-width: 2px;"/>
  <text transform="translate(607.75 312.29)" style="font-family: NotoSerifSC-Regular, &apos;Noto Serif SC&apos;; font-size: 18px;"><tspan x="0" y="0">程序D </tspan><tspan x="-6.79" y="21.6">I/O处理</tspan></text>
  <text transform="translate(154.38 28.82)" style="font-family: NotoSerifSC-Regular, &apos;Noto Serif SC&apos;; font-size: 18px;"><tspan x="0" y="0">程序B</tspan><tspan x="-2.97" y="21.6">被调度</tspan></text>
  <text transform="translate(804.36 256.24)" style="font-family: NotoSerifSC-Regular, &apos;Noto Serif SC&apos;; font-size: 18px;"><tspan x="0" y="0">程序C</tspan></text>
  <text transform="translate(274.55 28.82)" style="font-family: NotoSerifSC-Regular, &apos;Noto Serif SC&apos;; font-size: 18px;"><tspan x="0" y="0">程序C</tspan><tspan x="-2.78" y="21.6">被调度</tspan></text>
  <text transform="translate(393.84 28.82)" style="font-family: NotoSerifSC-Regular, &apos;Noto Serif SC&apos;; font-size: 18px;"><tspan x="0" y="0">程序D</tspan><tspan x="-2.07" y="21.6">被调度</tspan></text>
  <line x1="20.69" y1="55.5" x2="70.1" y2="55.5" style="fill: #fff; stroke: #000; stroke-miterlimit: 10; stroke-width: 2px;"/>
  <text transform="translate(26.84 28.82)" style="font-family: NotoSerifSC-Regular, &apos;Noto Serif SC&apos;; font-size: 18px;"><tspan x="0" y="0">C</tspan><tspan x="12.44" y="0" style="letter-spacing: -.02em;">P</tspan><tspan x="23.63" y="0">U</tspan><tspan x="-8.01" y="21.6">执行线</tspan></text>
  <text transform="translate(603.42 99.25)" style="font-family: NotoSerifSC-Regular, &apos;Noto Serif SC&apos;; font-size: 18px;"><tspan x="0" y="0">程序A</tspan></text>
  <text transform="translate(139.56 414.62)" style="font-family: NotoSerifSC-Regular, &apos;Noto Serif SC&apos;; font-size: 18px;"><tspan x="0" y="0">调度</tspan></text>
  <text transform="translate(261.26 414.62)" style="font-family: NotoSerifSC-Regular, &apos;Noto Serif SC&apos;; font-size: 18px;"><tspan x="0" y="0">调度</tspan></text>
  <text transform="translate(381.69 414.62)" style="font-family: NotoSerifSC-Regular, &apos;Noto Serif SC&apos;; font-size: 18px;"><tspan x="0" y="0">调度</tspan></text>
  <text transform="translate(545.83 414.62)" style="font-family: NotoSerifSC-Regular, &apos;Noto Serif SC&apos;; font-size: 18px;"><tspan x="0" y="0">调度</tspan></text>
  <text transform="translate(740.69 414.62)" style="font-family: NotoSerifSC-Regular, &apos;Noto Serif SC&apos;; font-size: 18px;"><tspan x="0" y="0">调度</tspan></text>
</svg>