<?xml version="1.0" encoding="UTF-8"?>
<svg id="_图层_1" data-name="图层_1" xmlns="http://www.w3.org/2000/svg" viewBox="0 0 786.54 506.54">
  <text transform="translate(26.6 111.79)" style="font-family: NotoSerifSC-Regular, &apos;Noto Serif SC&apos;; font-size: 18px;"><tspan x="0" y="0">程序A</tspan></text>
  <text transform="translate(26.6 189.9)" style="font-family: NotoSerifSC-Regular, &apos;Noto Serif SC&apos;; font-size: 18px;"><tspan x="0" y="0">程序B</tspan></text>
  <text transform="translate(26.6 268.01)" style="font-family: NotoSerifSC-Regular, &apos;Noto Serif SC&apos;; font-size: 18px;"><tspan x="0" y="0">程序C</tspan></text>
  <text transform="translate(25.39 346.12)" style="font-family: NotoSerifSC-Regular, &apos;Noto Serif SC&apos;; font-size: 18px;"><tspan x="0" y="0">程序D</tspan></text>
  <text transform="translate(3.87 424.23)" style="font-family: NotoSerifSC-Regular, &apos;Noto Serif SC&apos;; font-size: 18px;"><tspan x="0" y="0">调度程序</tspan></text>
  <g>
    <line x1="130.73" y1="59.89" x2="130.73" y2="65.89" style="fill: none; stroke: #000; stroke-miterlimit: 10;"/>
    <line x1="130.73" y1="78.09" x2="130.73" y2="487.03" style="fill: none; stroke: #000; stroke-dasharray: 12.21 12.21; stroke-miterlimit: 10;"/>
    <line x1="130.73" y1="493.13" x2="130.73" y2="499.13" style="fill: none; stroke: #000; stroke-miterlimit: 10;"/>
  </g>
  <g id="arrow">
    <g>
      <line x1="33.17" y1="486.5" x2="771.7" y2="486.5" style="fill: none; stroke: #000; stroke-miterlimit: 10;"/>
      <polygon points="768.89 490.2 770.47 486.5 768.89 482.8 777.67 486.5 768.89 490.2"/>
    </g>
  </g>
  <g>
    <line x1="158.44" y1="59.89" x2="158.44" y2="65.89" style="fill: none; stroke: #000; stroke-miterlimit: 10;"/>
    <line x1="158.44" y1="78.09" x2="158.44" y2="487.03" style="fill: none; stroke: #000; stroke-dasharray: 12.21 12.21; stroke-miterlimit: 10;"/>
    <line x1="158.44" y1="493.13" x2="158.44" y2="499.13" style="fill: none; stroke: #000; stroke-miterlimit: 10;"/>
  </g>
  <line x1="158.44" y1="104.75" x2="427.67" y2="104.75" style="fill: none; stroke: #000; stroke-dasharray: 12 6 1 6; stroke-miterlimit: 10;"/>
  <line x1="688.56" y1="417.19" x2="725.17" y2="417.19" style="fill: none; stroke: #000; stroke-miterlimit: 10;"/>
  <g>
    <line x1="233.96" y1="59.89" x2="233.96" y2="65.89" style="fill: none; stroke: #000; stroke-miterlimit: 10;"/>
    <line x1="233.96" y1="78.09" x2="233.96" y2="487.03" style="fill: none; stroke: #000; stroke-dasharray: 12.21 12.21; stroke-miterlimit: 10;"/>
    <line x1="233.96" y1="493.13" x2="233.96" y2="499.13" style="fill: none; stroke: #000; stroke-miterlimit: 10;"/>
  </g>
  <g>
    <line x1="261.68" y1="59.74" x2="261.68" y2="65.74" style="fill: none; stroke: #000; stroke-miterlimit: 10;"/>
    <line x1="261.68" y1="77.95" x2="261.68" y2="486.88" style="fill: none; stroke: #000; stroke-dasharray: 12.21 12.21; stroke-miterlimit: 10;"/>
    <line x1="261.68" y1="492.99" x2="261.68" y2="498.99" style="fill: none; stroke: #000; stroke-miterlimit: 10;"/>
  </g>
  <text transform="translate(160.29 177.2)" style="font-family: NotoSerifSC-Regular, &apos;Noto Serif SC&apos;; font-size: 18px;"><tspan x="0" y="0">程序B</tspan></text>
  <polyline points="261.68 182.86 284.84 182.86 354.68 182.86 777.67 182.86" style="fill: none; stroke: #000; stroke-dasharray: 12 6 1 6; stroke-miterlimit: 10;"/>
  <g>
    <line x1="365" y1="261.17" x2="371" y2="261.17" style="fill: none; stroke: #000; stroke-miterlimit: 10;"/>
    <line x1="376.82" y1="261.17" x2="380.71" y2="261.17" style="fill: none; stroke: #000; stroke-dasharray: .97 5.82; stroke-miterlimit: 10;"/>
    <line x1="383.62" y1="261.17" x2="623.38" y2="261.17" style="fill: none; stroke: #000; stroke-dasharray: 11.65 5.82 .97 5.82; stroke-miterlimit: 10;"/>
    <line x1="626.3" y1="261.17" x2="632.3" y2="261.17" style="fill: none; stroke: #000; stroke-miterlimit: 10;"/>
  </g>
  <text transform="translate(84.76 30.24)" style="font-family: NotoSerifSC-Regular, &apos;Noto Serif SC&apos;; font-size: 18px;"><tspan x="0" y="0">程序A</tspan><tspan x="-7.25" y="21.6">I/O请求</tspan></text>
  <text transform="translate(187.54 30.24)" style="font-family: NotoSerifSC-Regular, &apos;Noto Serif SC&apos;; font-size: 18px;"><tspan x="0" y="0">程序B</tspan><tspan x="-7.69" y="21.6">I/O请求</tspan></text>
  <text transform="translate(76.26 98.07)" style="font-family: NotoSerifSC-Regular, &apos;Noto Serif SC&apos;; font-size: 18px;"><tspan x="0" y="0">程序A</tspan></text>
  <text transform="translate(166.39 78.33)" style="font-family: NotoSerifSC-Regular, &apos;Noto Serif SC&apos;; font-size: 18px;"><tspan x="0" y="0">程序A </tspan><tspan x="-3.92" y="21.6" style="letter-spacing: -.02em;">I</tspan><tspan x="3.04" y="21.6">O处理</tspan></text>
  <text transform="translate(269.99 157.05)" style="font-family: NotoSerifSC-Regular, &apos;Noto Serif SC&apos;; font-size: 18px;"><tspan x="0" y="0">程序B </tspan><tspan x="-7.69" y="21.6">I/O处理</tspan></text>
  <text transform="translate(264.58 254.91)" style="font-family: NotoSerifSC-Regular, &apos;Noto Serif SC&apos;; font-size: 18px;"><tspan x="0" y="0">程序C</tspan></text>
  <g>
    <line x1="337.19" y1="59.74" x2="337.19" y2="65.74" style="fill: none; stroke: #000; stroke-miterlimit: 10;"/>
    <line x1="337.19" y1="77.95" x2="337.19" y2="486.88" style="fill: none; stroke: #000; stroke-dasharray: 12.21 12.21; stroke-miterlimit: 10;"/>
    <line x1="337.19" y1="492.99" x2="337.19" y2="498.99" style="fill: none; stroke: #000; stroke-miterlimit: 10;"/>
  </g>
  <g>
    <line x1="364.91" y1="59.74" x2="364.91" y2="65.74" style="fill: none; stroke: #000; stroke-miterlimit: 10;"/>
    <line x1="364.91" y1="77.95" x2="364.91" y2="486.88" style="fill: none; stroke: #000; stroke-dasharray: 12.21 12.21; stroke-miterlimit: 10;"/>
    <line x1="364.91" y1="492.99" x2="364.91" y2="498.99" style="fill: none; stroke: #000; stroke-miterlimit: 10;"/>
  </g>
  <g>
    <line x1="548.43" y1="339.08" x2="554.43" y2="339.08" style="fill: none; stroke: #000; stroke-miterlimit: 10;"/>
    <line x1="560.55" y1="339.08" x2="564.63" y2="339.08" style="fill: none; stroke: #000; stroke-dasharray: 1.02 6.12; stroke-miterlimit: 10;"/>
    <line x1="567.69" y1="339.08" x2="768.61" y2="339.08" style="fill: none; stroke: #000; stroke-dasharray: 12.24 6.12 1.02 6.12; stroke-miterlimit: 10;"/>
    <line x1="771.67" y1="339.08" x2="777.67" y2="339.08" style="fill: none; stroke: #000; stroke-miterlimit: 10;"/>
  </g>
  <text transform="translate(371.71 234.32)" style="font-family: NotoSerifSC-Regular, &apos;Noto Serif SC&apos;; font-size: 18px;"><tspan x="0" y="0">程序C </tspan><tspan x="-7.5" y="21.6">I/O处理</tspan></text>
  <text transform="translate(369.31 333.21)" style="font-family: NotoSerifSC-Regular, &apos;Noto Serif SC&apos;; font-size: 18px;"><tspan x="0" y="0">程序D</tspan></text>
  <text transform="translate(290.51 30.24)" style="font-family: NotoSerifSC-Regular, &apos;Noto Serif SC&apos;; font-size: 18px;"><tspan x="0" y="0">程序C</tspan><tspan x="-7.5" y="21.6">I/O请求</tspan></text>
  <g>
    <line x1="492.72" y1="59.78" x2="492.72" y2="65.78" style="fill: none; stroke: #000; stroke-miterlimit: 10;"/>
    <line x1="492.72" y1="77.99" x2="492.72" y2="486.92" style="fill: none; stroke: #000; stroke-dasharray: 12.21 12.21; stroke-miterlimit: 10;"/>
    <line x1="492.72" y1="493.02" x2="492.72" y2="499.02" style="fill: none; stroke: #000; stroke-miterlimit: 10;"/>
  </g>
  <g>
    <line x1="548.43" y1="59.78" x2="548.43" y2="65.78" style="fill: none; stroke: #000; stroke-miterlimit: 10;"/>
    <line x1="548.43" y1="77.99" x2="548.43" y2="486.92" style="fill: none; stroke: #000; stroke-dasharray: 12.21 12.21; stroke-miterlimit: 10;"/>
    <line x1="548.43" y1="493.02" x2="548.43" y2="499.02" style="fill: none; stroke: #000; stroke-miterlimit: 10;"/>
  </g>
  <text transform="translate(467.56 30.28)" style="font-family: NotoSerifSC-Regular, &apos;Noto Serif SC&apos;; font-size: 18px;"><tspan x="0" y="0">程序D</tspan><tspan x="-6.79" y="21.6">I/O请求</tspan></text>
  <text transform="translate(402.96 29.86)" style="font-family: NotoSerifSC-Regular, &apos;Noto Serif SC&apos;; font-size: 18px;"><tspan x="0" y="0">程序A </tspan><tspan x="-7.25" y="21.6">I/O完成</tspan></text>
  <g>
    <line x1="427.25" y1="59.78" x2="427.25" y2="65.78" style="fill: none; stroke: #000; stroke-miterlimit: 10;"/>
    <line x1="427.25" y1="77.99" x2="427.25" y2="486.92" style="fill: none; stroke: #000; stroke-dasharray: 12.21 12.21; stroke-miterlimit: 10;"/>
    <line x1="427.25" y1="493.02" x2="427.25" y2="499.02" style="fill: none; stroke: #000; stroke-miterlimit: 10;"/>
  </g>
  <text transform="translate(537.8 29.92)" style="font-family: NotoSerifSC-Regular, &apos;Noto Serif SC&apos;; font-size: 18px;"><tspan x="0" y="0">程序A</tspan><tspan x="-11.54" y="21.6">再被调度</tspan></text>
  <text transform="translate(608.25 29.66)" style="font-family: NotoSerifSC-Regular, &apos;Noto Serif SC&apos;; font-size: 18px;"><tspan x="0" y="0">程序C </tspan><tspan x="-7.5" y="21.6">I/O完成</tspan></text>
  <g>
    <line x1="632.3" y1="59.6" x2="632.3" y2="65.6" style="fill: none; stroke: #000; stroke-miterlimit: 10;"/>
    <line x1="632.3" y1="77.8" x2="632.3" y2="486.74" style="fill: none; stroke: #000; stroke-dasharray: 12.21 12.21; stroke-miterlimit: 10;"/>
    <line x1="632.3" y1="492.84" x2="632.3" y2="498.84" style="fill: none; stroke: #000; stroke-miterlimit: 10;"/>
  </g>
  <text transform="translate(664.27 29.3)" style="font-family: NotoSerifSC-Regular, &apos;Noto Serif SC&apos;; font-size: 18px;"><tspan x="0" y="0">程序A </tspan><tspan x="6.46" y="21.6">完成</tspan></text>
  <g>
    <line x1="688.56" y1="59.27" x2="688.56" y2="65.27" style="fill: none; stroke: #000; stroke-miterlimit: 10;"/>
    <line x1="688.56" y1="77.48" x2="688.56" y2="486.41" style="fill: none; stroke: #000; stroke-dasharray: 12.21 12.21; stroke-miterlimit: 10;"/>
    <line x1="688.56" y1="492.52" x2="688.56" y2="498.52" style="fill: none; stroke: #000; stroke-miterlimit: 10;"/>
  </g>
  <text transform="translate(712.66 30.14)" style="font-family: NotoSerifSC-Regular, &apos;Noto Serif SC&apos;; font-size: 18px;"><tspan x="0" y="0">程序C </tspan><tspan x="-2.78" y="21.6">再调度</tspan></text>
  <g>
    <line x1="738.67" y1="59.13" x2="738.67" y2="65.13" style="fill: none; stroke: #000; stroke-miterlimit: 10;"/>
    <line x1="738.67" y1="77.34" x2="738.67" y2="486.27" style="fill: none; stroke: #000; stroke-dasharray: 12.21 12.21; stroke-miterlimit: 10;"/>
    <line x1="738.67" y1="492.37" x2="738.67" y2="498.37" style="fill: none; stroke: #000; stroke-miterlimit: 10;"/>
  </g>
  <polyline points="777.17 260.97 738.67 260.97 738.67 417.19 688.56 417.19 688.56 104.75 552.67 104.75 548.43 104.75 548.43 417.19 492.72 417.19 492.72 339.08 364.91 339.08 364.91 417.19 337.19 417.19 337.19 261.17 261.68 261.17 261.68 261.23 261.68 417.19 233.96 417.19 233.96 261.23 233.96 182.86 158.44 182.86 158.44 417.19 130.73 417.19 130.73 418.17 130.73 105.57 130.73 104.75 79.3 104.75" style="fill: none; stroke: #000; stroke-miterlimit: 10; stroke-width: 2px;"/>
  <text transform="translate(555.56 312.14)" style="font-family: NotoSerifSC-Regular, &apos;Noto Serif SC&apos;; font-size: 18px;"><tspan x="0" y="0">程序D </tspan><tspan x="-6.79" y="21.6">I/O处理</tspan></text>
  <text transform="translate(136.19 30.08)" style="font-family: NotoSerifSC-Regular, &apos;Noto Serif SC&apos;; font-size: 18px;"><tspan x="0" y="0">程序B</tspan><tspan x="6.03" y="21.6">调度</tspan></text>
  <text transform="translate(738.17 254.18)" style="font-family: NotoSerifSC-Regular, &apos;Noto Serif SC&apos;; font-size: 18px;"><tspan x="0" y="0">程序C</tspan></text>
  <text transform="translate(237.36 30.02)" style="font-family: NotoSerifSC-Regular, &apos;Noto Serif SC&apos;; font-size: 18px;"><tspan x="0" y="0">程序C</tspan><tspan x="6.22" y="21.6">调度</tspan></text>
  <text transform="translate(341.65 30.02)" style="font-family: NotoSerifSC-Regular, &apos;Noto Serif SC&apos;; font-size: 18px;"><tspan x="0" y="0">程序D</tspan><tspan x="6.93" y="21.6">调度</tspan></text>
  <line x1="12.5" y1="52.5" x2="61.9" y2="52.5" style="fill: #fff; stroke: #000; stroke-miterlimit: 10; stroke-width: 2px;"/>
  <text transform="translate(18.65 25.82)" style="font-family: NotoSerifSC-Regular, &apos;Noto Serif SC&apos;; font-size: 18px;"><tspan x="0" y="0">C</tspan><tspan x="12.44" y="0" style="letter-spacing: -.02em;">P</tspan><tspan x="23.63" y="0">U</tspan><tspan x="-8.01" y="21.6">执行线</tspan></text>
</svg>