<?xml version="1.0" encoding="UTF-8"?>
<svg id="_图层_1" data-name="图层_1" xmlns="http://www.w3.org/2000/svg" viewBox="0 0 786.54 319.54">
  <path d="M332.49,2.72c-5.82,2.99-67.97,34.96-72.57,37.32.06.03.1.05.1.05l73.28,37.69s67.66-35.06,72.46-37.55l-.1-.05L332.93,2.5l-.44.22Z" style="fill: none; stroke: #000; stroke-miterlimit: 10;"/>
  <text transform="translate(305.84 33.63)" style="font-family: NotoSerifSC-Regular, &apos;Noto Serif SC&apos;; font-size: 18px;"><tspan x="0" y="0">还有下</tspan><tspan x="-13.5" y="21.6">一个作业</tspan><tspan x="58.5" y="21.6" style="letter-spacing: -.5em;">？</tspan></text>
  <text transform="translate(496.43 26.25)" style="font-family: NotoSerifSC-Regular, &apos;Noto Serif SC&apos;; font-size: 18px;"><tspan x="0" y="0">把下一个作业</tspan><tspan x="0" y="21.6">的源程序转换</tspan><tspan x="9" y="43.2">为目标程序</tspan></text>
  <rect x="490.93" y="3.5" width="119" height="74" style="fill: none; stroke: #000; stroke-miterlimit: 10;"/>
  <g id="arrow">
    <g>
      <line x1="405.75" y1="40.24" x2="484.96" y2="40.24" style="fill: none; stroke: #000; stroke-miterlimit: 10;"/>
      <polygon points="482.15 43.94 483.72 40.24 482.15 36.53 490.93 40.24 482.15 43.94"/>
    </g>
  </g>
  <text transform="translate(439.33 30.28)" style="font-family: NotoSerifSC-Regular, &apos;Noto Serif SC&apos;; font-size: 18px;"><tspan x="0" y="0">是</tspan></text>
  <path d="M550.55,131.43c-5.82,2.99-67.97,34.96-72.57,37.32.06.03.1.05.1.05l73.28,37.69s67.66-35.06,72.46-37.55l-.1-.05-72.72-37.69-.44.22Z" style="fill: none; stroke: #000; stroke-miterlimit: 10;"/>
  <text transform="translate(523.89 165.34)" style="font-family: NotoSerifSC-Regular, &apos;Noto Serif SC&apos;; font-size: 18px;"><tspan x="0" y="0">源程序</tspan><tspan x="-4.5" y="21.6">有错吗</tspan><tspan x="49.5" y="21.6" style="letter-spacing: -.5em;">？</tspan></text>
  <g id="arrow-2" data-name="arrow">
    <g>
      <line x1="550.89" y1="77.5" x2="550.89" y2="125.46" style="fill: none; stroke: #000; stroke-miterlimit: 10;"/>
      <polygon points="547.19 122.65 550.89 124.22 554.6 122.65 550.89 131.43 547.19 122.65"/>
    </g>
  </g>
  <g id="arrow-3" data-name="arrow">
    <g>
      <line x1="162.73" y1="40.14" x2="253.95" y2="40.14" style="fill: none; stroke: #000; stroke-miterlimit: 10;"/>
      <polygon points="251.14 43.85 252.72 40.14 251.14 36.44 259.92 40.14 251.14 43.85"/>
    </g>
  </g>
  <g id="dot">
    <circle cx="188.93" cy="40.5" r="3"/>
  </g>
  <text transform="translate(171.41 28.64)" style="font-family: NotoSerifSC-Regular, &apos;Noto Serif SC&apos;; font-size: 18px;"><tspan x="0" y="0">开始</tspan></text>
  <g id="arrow-4" data-name="arrow">
    <g>
      <line x1="550.75" y1="206.48" x2="550.75" y2="254.44" style="fill: none; stroke: #000; stroke-miterlimit: 10;"/>
      <polygon points="547.04 251.63 550.75 253.2 554.45 251.63 550.75 260.4 547.04 251.63"/>
    </g>
  </g>
  <text transform="translate(523.48 236.92)" style="font-family: NotoSerifSC-Regular, &apos;Noto Serif SC&apos;; font-size: 18px;"><tspan x="0" y="0">否</tspan></text>
  <text transform="translate(533.43 283.55)" style="font-family: NotoSerifSC-Regular, &apos;Noto Serif SC&apos;; font-size: 18px;"><tspan x="0" y="0">装配</tspan><tspan x="-18" y="21.6">目标程序</tspan></text>
  <rect x="491.93" y="260.5" width="119" height="53" style="fill: none; stroke: #000; stroke-miterlimit: 10;"/>
  <text transform="translate(319.43 283.55)" style="font-family: NotoSerifSC-Regular, &apos;Noto Serif SC&apos;; font-size: 18px;"><tspan x="0" y="0">运行</tspan><tspan x="-18" y="21.6">目标程序</tspan></text>
  <rect x="277.93" y="260.5" width="119" height="53" style="fill: none; stroke: #000; stroke-miterlimit: 10;"/>
  <g id="arrow-5" data-name="arrow">
    <g>
      <line x1="491.93" y1="287" x2="402.9" y2="287" style="fill: none; stroke: #000; stroke-miterlimit: 10;"/>
      <polygon points="405.71 283.3 404.13 287 405.71 290.7 396.93 287 405.71 283.3"/>
    </g>
  </g>
  <g id="arrow-6" data-name="arrow">
    <g>
      <line x1="188.93" y1="287" x2="188.93" y2="47.79" style="fill: none; stroke: #000; stroke-miterlimit: 10;"/>
      <polygon points="192.63 50.6 188.93 49.03 185.22 50.6 188.93 41.82 192.63 50.6"/>
    </g>
  </g>
  <g id="arrow-7" data-name="arrow">
    <g>
      <line x1="277.93" y1="287" x2="194.9" y2="287" style="fill: none; stroke: #000; stroke-miterlimit: 10;"/>
      <polygon points="197.71 283.3 196.13 287 197.71 290.7 188.93 287 197.71 283.3"/>
    </g>
  </g>
  <g id="dot-2" data-name="dot">
    <circle cx="188.93" cy="169" r="3"/>
  </g>
  <g id="arrow-8" data-name="arrow">
    <g>
      <line x1="478.08" y1="168.8" x2="194.9" y2="168.8" style="fill: none; stroke: #000; stroke-miterlimit: 10;"/>
      <polygon points="197.71 165.1 196.13 168.8 197.71 172.5 188.93 168.8 197.71 165.1"/>
    </g>
  </g>
  <text transform="translate(453.67 159.8)" style="font-family: NotoSerifSC-Regular, &apos;Noto Serif SC&apos;; font-size: 18px;"><tspan x="0" y="0">是</tspan></text>
</svg>