<?xml version="1.0" encoding="UTF-8"?>
<svg xmlns="http://www.w3.org/2000/svg" version="1.1" viewBox="0 0 863.7 246.1">
  <defs>
    <style>
      .cls-1 {
        stroke-miterlimit: 10;
      }

      .cls-1, .cls-2 {
        fill: none;
        stroke: #000;
      }

      .cls-3 {
        font-family: NotoSerifSC-Light, 'Noto Serif SC';
        font-size: 18px;
        font-weight: 300;
      }

      .cls-2 {
        stroke-linejoin: round;
      }
    </style>
  </defs>
  <!-- Generator: Adobe Illustrator 28.7.1, SVG Export Plug-In . SVG Version: 1.2.0 Build 142)  -->
  <g>
    <g id="_图层_1" data-name="图层_1">
      <g>
        <rect class="cls-1" x="147.8" y="124.9" width="105.9" height="114"/>
        <text class="cls-3" transform="translate(182.8 150.2)"><tspan x="0" y="0">类名</tspan></text>
        <line class="cls-1" x1="173.9" y1="162.5" x2="227.7" y2="162.5"/>
        <text class="cls-3" transform="translate(182.8 188.4)"><tspan x="0" y="0">属性</tspan></text>
        <text class="cls-3" transform="translate(182.8 226.6)"><tspan x="0" y="0">操作</tspan></text>
        <line class="cls-1" x1="173.9" y1="200.7" x2="227.7" y2="200.7"/>
        <text class="cls-3" transform="translate(191.8 114.1)"><tspan x="0" y="0">类</tspan></text>
        <rect class="cls-2" x="277.7" y="124.9" width="139" height="114" rx="20" ry="20"/>
        <text class="cls-3" transform="translate(294.3 150.2)"><tspan x="0" y="0">(类名)对象名</tspan></text>
        <line class="cls-1" x1="320.3" y1="162.5" x2="374.1" y2="162.5"/>
        <text class="cls-3" transform="translate(320.1 188.4)"><tspan x="0" y="0">属性值</tspan></text>
        <text class="cls-3" transform="translate(329.2 226.6)"><tspan x="0" y="0">操作</tspan></text>
        <line class="cls-1" x1="320.3" y1="200.7" x2="374.1" y2="200.7"/>
        <text class="cls-3" transform="translate(301.9 114.1)"><tspan x="0" y="0">类的实例</tspan></text>
        <rect class="cls-2" x="462" y="5.7" width="93" height="233.2"/>
        <text class="cls-3" transform="translate(490.1 31)"><tspan x="0" y="0">文件</tspan></text>
        <line class="cls-1" x1="481.5" y1="40.6" x2="535.4" y2="40.6"/>
        <text class="cls-3" transform="translate(490.1 62.8)"><tspan x="0" y="0">类型</tspan></text>
        <text class="cls-3" transform="translate(483.6 149.5)"><tspan x="0" y="0">打开()</tspan></text>
        <line class="cls-1" x1="481.5" y1="126.2" x2="535.4" y2="126.2"/>
        <text class="cls-3" transform="translate(490.4 89.8)"><tspan x="0" y="0">大小</tspan></text>
        <text class="cls-3" transform="translate(481.4 116.7)"><tspan x="0" y="0">创建者</tspan></text>
        <text class="cls-3" transform="translate(492.7 174.9)"><tspan x="0" y="0">读()</tspan></text>
        <text class="cls-3" transform="translate(492.7 200.3)"><tspan x="0" y="0">写()</tspan></text>
        <text class="cls-3" transform="translate(483.6 225.7)"><tspan x="0" y="0">关闭()</tspan></text>
        <rect class="cls-2" x="585" y="5.7" width="130.9" height="233.2" rx="20" ry="20"/>
        <text class="cls-3" transform="translate(594.4 31)"><tspan x="0" y="0">（文件）文件</tspan></text>
        <text class="cls-3" transform="translate(632.1 62.8)"><tspan x="0" y="0">图表</tspan></text>
        <text class="cls-3" transform="translate(625.6 149.5)"><tspan x="0" y="0">打开()</tspan></text>
        <line class="cls-1" x1="607.7" y1="126.2" x2="693.2" y2="126.2"/>
        <text class="cls-3" transform="translate(634.2 89.8)"><tspan x="0" y="0">20K</tspan></text>
        <text class="cls-3" transform="translate(626.1 116.7)"><tspan x="0" y="0">X用户</tspan></text>
        <text class="cls-3" transform="translate(634.6 174.9)"><tspan x="0" y="0">读()</tspan></text>
        <text class="cls-3" transform="translate(634.6 200.3)"><tspan x="0" y="0">写()</tspan></text>
        <text class="cls-3" transform="translate(625.6 225.7)"><tspan x="0" y="0">关闭()</tspan></text>
        <line class="cls-1" x1="607.7" y1="40.6" x2="693.2" y2="40.6"/>
      </g>
    </g>
  </g>
</svg>