<?xml version="1.0" encoding="UTF-8"?>
<svg xmlns="http://www.w3.org/2000/svg" version="1.1" viewBox="0 0 64 64">
  <!-- Generator: Adobe Illustrator 28.7.1, SVG Export Plug-In . SVG Version: 1.2.0 Build 142)  -->
  <g>
    <g id="icon">
      <polygon points="48 42 48 18 44 18 44 46 60 46 60 42 48 42"/>
      <path d="M36,18h-8c-2.2,0-4,1.8-4,4v20c0,2.2,1.8,4,4,4h2v4c0,2.2,1.8,4,4,4h4v-4h-4v-4h2c2.2,0,4-1.8,4-4v-20c0-2.2-1.8-4-4-4ZM28,42v-20h8v20h-8Z"/>
      <path d="M16,46H4v-4h12v-8h-8c-2.2,0-4-1.8-4-4v-8c0-2.2,1.8-4,4-4h12v4h-12v8h8c2.2,0,4,1.8,4,4v8c0,2.2-1.8,4-4,4Z"/>
    </g>
  </g>
</svg>