<?xml version="1.0" encoding="UTF-8"?>
<svg id="_图层_1" data-name="图层_1" xmlns="http://www.w3.org/2000/svg" viewBox="0 0 538.3 136.5">
  <g id="_layer_1">
    <g>
      <rect x=".5" y=".5" width="453.2" height="131.9" style="fill: none; stroke: #000; stroke-miterlimit: 10;"/>
      <g style="isolation: isolate;">
        <text transform="translate(15.1 23.3)" style="font-family: NotoSerifSC-Regular, &apos;Noto Serif SC&apos;; font-size: 18px; isolation: isolate;"><tspan x="0" y="0">客户</tspan></text>
        <text transform="translate(15.1 44.9)" style="font-family: NotoSerifSC-Regular, &apos;Noto Serif SC&apos;; font-size: 18px; isolation: isolate;"><tspan x="0" y="0">进程</tspan></text>
      </g>
      <g style="isolation: isolate;">
        <text transform="translate(78.9 23.3)" style="font-family: NotoSerifSC-Regular, &apos;Noto Serif SC&apos;; font-size: 18px; isolation: isolate;"><tspan x="0" y="0">客户</tspan></text>
        <text transform="translate(78.9 44.9)" style="font-family: NotoSerifSC-Regular, &apos;Noto Serif SC&apos;; font-size: 18px; isolation: isolate;"><tspan x="0" y="0">进程</tspan></text>
      </g>
      <g style="isolation: isolate;">
        <text transform="translate(142.7 23.3)" style="font-family: NotoSerifSC-Regular, &apos;Noto Serif SC&apos;; font-size: 18px; isolation: isolate;"><tspan x="0" y="0">进程</tspan></text>
        <text transform="translate(133.7 44.9)" style="font-family: NotoSerifSC-Regular, &apos;Noto Serif SC&apos;; font-size: 18px; isolation: isolate;"><tspan x="0" y="0">服务器</tspan></text>
      </g>
      <g style="isolation: isolate;">
        <text transform="translate(206.5 23.3)" style="font-family: NotoSerifSC-Regular, &apos;Noto Serif SC&apos;; font-size: 18px; isolation: isolate;"><tspan x="0" y="0">终端</tspan></text>
        <text transform="translate(197.5 44.9)" style="font-family: NotoSerifSC-Regular, &apos;Noto Serif SC&apos;; font-size: 18px; isolation: isolate;"><tspan x="0" y="0">服务器</tspan></text>
      </g>
      <g style="isolation: isolate;">
        <text transform="translate(279.5 34.5)" style="font-family: NotoSerifSC-Regular, &apos;Noto Serif SC&apos;; font-size: 18px; isolation: isolate;"><tspan x="0" y="0">···</tspan></text>
      </g>
      <g style="isolation: isolate;">
        <text transform="translate(334 23.3)" style="font-family: NotoSerifSC-Regular, &apos;Noto Serif SC&apos;; font-size: 18px; isolation: isolate;"><tspan x="0" y="0">文件</tspan></text>
        <text transform="translate(325 44.9)" style="font-family: NotoSerifSC-Regular, &apos;Noto Serif SC&apos;; font-size: 18px; isolation: isolate;"><tspan x="0" y="0">服务器</tspan></text>
      </g>
      <g style="isolation: isolate;">
        <text transform="translate(388.8 23.3)" style="font-family: NotoSerifSC-Regular, &apos;Noto Serif SC&apos;; font-size: 18px; isolation: isolate;"><tspan x="0" y="0">存储器</tspan></text>
        <text transform="translate(388.8 44.9)" style="font-family: NotoSerifSC-Regular, &apos;Noto Serif SC&apos;; font-size: 18px; isolation: isolate;"><tspan x="0" y="0">服务器</tspan></text>
      </g>
      <line x1="62.9" y1=".8" x2="62.9" y2="57" style="fill: none; stroke: #000; stroke-miterlimit: 10;"/>
      <line x1="127" y1=".8" x2="127" y2="57" style="fill: none; stroke: #000; stroke-miterlimit: 10;"/>
      <line x1="191.2" y1=".8" x2="191.2" y2="57" style="fill: none; stroke: #000; stroke-miterlimit: 10;"/>
      <line x1="255.3" y1=".8" x2="255.3" y2="57" style="fill: none; stroke: #000; stroke-miterlimit: 10;"/>
      <line x1="319.4" y1=".8" x2="319.4" y2="57" style="fill: none; stroke: #000; stroke-miterlimit: 10;"/>
      <line x1="383.6" y1=".8" x2="383.6" y2="57" style="fill: none; stroke: #000; stroke-miterlimit: 10;"/>
      <line x1=".5" y1="57.1" x2="453.8" y2="57.1" style="fill: none; stroke: #000; stroke-miterlimit: 10;"/>
      <g>
        <polyline points="96.9 63 96.9 97 352 97 352 63.1" style="fill: none; stroke: #000; stroke-miterlimit: 10;"/>
        <polygon points="93.2 65.8 96.9 64.2 100.6 65.8 96.9 57 93.2 65.8"/>
        <polygon points="355.7 65.9 352 64.3 348.3 65.9 352 57.1 355.7 65.9"/>
      </g>
      <g style="isolation: isolate;">
        <text transform="translate(209.1 117.6)" style="font-family: NotoSerifSC-Regular, &apos;Noto Serif SC&apos;; font-size: 18px; isolation: isolate;"><tspan x="0" y="0">核心</tspan></text>
      </g>
      <g>
        <line x1="78.9" y1="57.1" x2="78.9" y2="91.1" style="fill: none; stroke: #000; stroke-miterlimit: 10;"/>
        <polygon points="75.2 88.3 78.9 89.8 82.6 88.3 78.9 97 75.2 88.3"/>
      </g>
      <g>
        <line x1="367.5" y1="57.6" x2="367.5" y2="91.6" style="fill: none; stroke: #000; stroke-miterlimit: 10;"/>
        <polygon points="363.8 88.8 367.5 90.3 371.2 88.8 367.5 97.5 363.8 88.8"/>
      </g>
      <g style="isolation: isolate;">
        <text transform="translate(62.9 117.6)" style="font-family: NotoSerifSC-Regular, &apos;Noto Serif SC&apos;; font-size: 18px; isolation: isolate;"><tspan x="0" y="0">请求</tspan></text>
      </g>
      <g style="isolation: isolate;">
        <text transform="translate(347.6 117.6)" style="font-family: NotoSerifSC-Regular, &apos;Noto Serif SC&apos;; font-size: 18px; isolation: isolate;"><tspan x="0" y="0">回答</tspan></text>
      </g>
    </g>
    <g style="isolation: isolate;">
      <text transform="translate(464.2 35.8)" style="font-family: NotoSerifSC-Regular, &apos;Noto Serif SC&apos;; font-size: 18px; isolation: isolate;"><tspan x="0" y="0">用户方式</tspan></text>
    </g>
    <g style="isolation: isolate;">
      <text transform="translate(466.3 103.9)" style="font-family: NotoSerifSC-Regular, &apos;Noto Serif SC&apos;; font-size: 18px; isolation: isolate;"><tspan x="0" y="0">核心方式</tspan></text>
    </g>
  </g>
</svg>