<?xml version="1.0" encoding="UTF-8"?>
<svg id="_图层_1" data-name="图层_1" xmlns="http://www.w3.org/2000/svg" viewBox="0 0 658.3 424.7602">
  <g id="_layer_1">
    <g>
      <g style="isolation: isolate;">
        <text transform="translate(158.4 39.7)" style="font-family: NotoSerifSC-Regular, &apos;Noto Serif SC&apos;; font-size: 18px; isolation: isolate;"><tspan x="0" y="0">客户机应用</tspan></text>
      </g>
      <rect x="120.4" y=".5" width="166.3" height="64" style="fill: none; stroke: #000; stroke-miterlimit: 10;"/>
      <g style="isolation: isolate;">
        <text transform="translate(454.9 39.7)" style="font-family: NotoSerifSC-Regular, &apos;Noto Serif SC&apos;; font-size: 18px; isolation: isolate;"><tspan x="0" y="0" style="letter-spacing: .005em;">O</tspan><tspan x="13.896" y="0">S内核</tspan></text>
      </g>
      <rect x="371.6" y=".5" width="166.3" height="64" style="fill: none; stroke: #000; stroke-miterlimit: 10;"/>
      <g>
        <line x1="271" y1="14.3" x2="276.5" y2="14.3" style="fill: none; stroke: #000; stroke-miterlimit: 10;"/>
        <line x1="281.5" y1="14.3" x2="376.3" y2="14.3" style="fill: none; stroke: #000; stroke-dasharray: 11.2 5.1; stroke-miterlimit: 10;"/>
        <line x1="378.9" y1="14.3" x2="384.4" y2="14.3" style="fill: none; stroke: #000; stroke-miterlimit: 10;"/>
        <polygon points="381.6 18 383.1 14.3 381.6 10.6 390.3 14.3 381.6 18"/>
      </g>
      <g>
        <line x1="390.3" y1="48.7" x2="384.8" y2="48.7" style="fill: none; stroke: #000; stroke-miterlimit: 10;"/>
        <line x1="379.8" y1="48.7" x2="285" y2="48.7" style="fill: none; stroke: #000; stroke-dasharray: 11.2 5.1; stroke-miterlimit: 10;"/>
        <line x1="282.4" y1="48.7" x2="276.9" y2="48.7" style="fill: none; stroke: #000; stroke-miterlimit: 10;"/>
        <polygon points="279.8 45 278.2 48.7 279.8 52.4 271 48.7 279.8 45"/>
      </g>
      <g>
        <path d="M390.3,14.3c9.5,0,17.2,7.7,17.2,17.2s-4.7,13.8-11.3,16.2" style="fill: none; stroke: #000; stroke-miterlimit: 10;"/>
        <polygon points="398.2 43.3 397.4 47.3 399.7 50.6 390.3 48.7 398.2 43.3"/>
      </g>
    </g>
    <g style="isolation: isolate;">
      <text transform="translate(163.6 111.6)" style="font-family: NotoSerifSC-Regular, &apos;Noto Serif SC&apos;; font-size: 18px; isolation: isolate;"><tspan x="0" y="0" style="letter-spacing: -.001em;">(</tspan><tspan x="6.5342" y="0" style="letter-spacing: -.005em;">a</tspan><tspan x="16.4702" y="0">)在整体式内核文件操作中的上下文切换</tspan></text>
    </g>
    <g>
      <g style="isolation: isolate;">
        <text transform="translate(38.6 205.1)" style="font-family: NotoSerifSC-Regular, &apos;Noto Serif SC&apos;; font-size: 18px; isolation: isolate;"><tspan x="0" y="0">客户机应用</tspan></text>
      </g>
      <rect x=".5" y="165.9" width="166.3" height="64" style="fill: none; stroke: #000; stroke-miterlimit: 10;"/>
      <g style="isolation: isolate;">
        <text transform="translate(298.6 205.5)" style="font-family: NotoSerifSC-Regular, &apos;Noto Serif SC&apos;; font-size: 18px; isolation: isolate;"><tspan x="0" y="0">文件服务器</tspan></text>
      </g>
      <rect x="260.6" y="166.3" width="166.3" height="64" style="fill: none; stroke: #000; stroke-miterlimit: 10;"/>
      <g style="isolation: isolate;">
        <text transform="translate(510.5 205.9)" style="font-family: NotoSerifSC-Regular, &apos;Noto Serif SC&apos;; font-size: 18px; isolation: isolate;"><tspan x="0" y="0">磁盘设备驱动器</tspan></text>
      </g>
      <rect x="491.5" y="166.7" width="166.3" height="64" style="fill: none; stroke: #000; stroke-miterlimit: 10;"/>
    </g>
    <g>
      <g style="isolation: isolate;">
        <text transform="translate(301.4 357.8)" style="font-family: NotoSerifSC-Regular, &apos;Noto Serif SC&apos;; font-size: 18px; isolation: isolate;"><tspan x="0" y="0">微内核</tspan></text>
      </g>
      <rect x="34.6" y="281.6" width="589" height="87.8" style="fill: none; stroke: #000; stroke-miterlimit: 10;"/>
    </g>
    <g>
      <polyline points="275.9 218.4 275.9 178.3 413.6 178.3 413.6 212.4" style="fill: none; stroke: #000; stroke-miterlimit: 10;"/>
      <polygon points="409.9 209.6 413.6 211.1 417.3 209.6 413.6 218.4 409.9 209.6"/>
    </g>
    <g>
      <line x1="275.9" y1="301.5" x2="275.9" y2="224.3" style="fill: none; stroke: #000; stroke-dasharray: 11 5; stroke-miterlimit: 10;"/>
      <polygon points="279.6 227.1 275.9 225.6 272.2 227.1 275.9 218.4 279.6 227.1"/>
    </g>
    <g>
      <line x1="149" y1="301.5" x2="269.9" y2="301.5" style="fill: none; stroke: #000; stroke-miterlimit: 10;"/>
      <polygon points="267.1 305.2 268.7 301.5 267.1 297.8 275.9 301.5 267.1 305.2"/>
    </g>
    <g>
      <line x1="149" y1="218.4" x2="149" y2="295.6" style="fill: none; stroke: #000; stroke-dasharray: 11 5; stroke-miterlimit: 10;"/>
      <polygon points="145.3 292.7 149 294.3 152.7 292.7 149 301.5 145.3 292.7"/>
    </g>
    <g>
      <line x1="540.4" y1="301.5" x2="540.4" y2="224.3" style="fill: none; stroke: #000; stroke-dasharray: 11 5; stroke-miterlimit: 10;"/>
      <polygon points="544.1 227.1 540.4 225.6 536.7 227.1 540.4 218.4 544.1 227.1"/>
    </g>
    <g>
      <line x1="413.6" y1="301.5" x2="534.4" y2="301.5" style="fill: none; stroke: #000; stroke-miterlimit: 10;"/>
      <polygon points="531.6 305.2 533.2 301.5 531.6 297.8 540.4 301.5 531.6 305.2"/>
    </g>
    <g>
      <line x1="413.6" y1="218.4" x2="413.6" y2="295.6" style="fill: none; stroke: #000; stroke-dasharray: 11 5; stroke-miterlimit: 10;"/>
      <polygon points="409.9 292.7 413.6 294.3 417.3 292.7 413.6 301.5 409.9 292.7"/>
    </g>
    <g>
      <line x1="586.3" y1="325.5" x2="394.1" y2="325.5" style="fill: none; stroke: #000; stroke-miterlimit: 10;"/>
      <polygon points="397 321.8 395.4 325.5 397 329.2 388.2 325.5 397 321.8"/>
    </g>
    <g>
      <line x1="586.3" y1="218.6" x2="586.3" y2="319.5" style="fill: none; stroke: #000; stroke-dasharray: 11 5; stroke-miterlimit: 10;"/>
      <polygon points="582.6 316.7 586.3 318.3 590 316.7 586.3 325.5 582.6 316.7"/>
    </g>
    <g>
      <line x1="540.4" y1="218.6" x2="580.3" y2="218.6" style="fill: none; stroke: #000; stroke-miterlimit: 10;"/>
      <polygon points="577.5 222.3 579.1 218.6 577.5 214.9 586.3 218.6 577.5 222.3"/>
    </g>
    <g>
      <line x1="388.2" y1="325.5" x2="388.2" y2="224.3" style="fill: none; stroke: #000; stroke-dasharray: 11 5; stroke-miterlimit: 10;"/>
      <polygon points="391.9 227.1 388.2 225.6 384.5 227.1 388.2 218.4 391.9 227.1"/>
    </g>
    <g>
      <line x1="388.2" y1="218.4" x2="304.6" y2="218.4" style="fill: none; stroke: #000; stroke-miterlimit: 10;"/>
      <polygon points="307.4 214.7 305.8 218.4 307.4 222.1 298.6 218.4 307.4 214.7"/>
    </g>
    <g>
      <line x1="298.6" y1="217.6" x2="298.6" y2="319.5" style="fill: none; stroke: #000; stroke-dasharray: 11 5; stroke-miterlimit: 10;"/>
      <polygon points="294.9 316.7 298.6 318.3 302.3 316.7 298.6 325.5 294.9 316.7"/>
    </g>
    <g>
      <line x1="298.6" y1="325.5" x2="119.7" y2="325.5" style="fill: none; stroke: #000; stroke-miterlimit: 10;"/>
      <polygon points="122.5 321.8 120.9 325.5 122.5 329.2 113.7 325.5 122.5 321.8"/>
    </g>
    <g>
      <line x1="113.7" y1="325.5" x2="113.7" y2="224.3" style="fill: none; stroke: #000; stroke-dasharray: 11 5; stroke-miterlimit: 10;"/>
      <polygon points="117.4 227.1 113.7 225.6 110 227.1 113.7 218.4 117.4 227.1"/>
    </g>
    <g style="isolation: isolate;">
      <text transform="translate(171.5 422.6)" style="font-family: NotoSerifSC-Regular, &apos;Noto Serif SC&apos;; font-size: 18px; isolation: isolate;"><tspan x="0" y="0">(</tspan><tspan x="6.5518" y="0" style="letter-spacing: -.02em;">b</tspan><tspan x="17.6758" y="0" style="letter-spacing: 0em;">)在微内核中等价操作中的上下文切换</tspan></text>
    </g>
  </g>
</svg>