<?xml version="1.0" encoding="UTF-8"?>
<svg id="_layer_1" xmlns="http://www.w3.org/2000/svg" viewBox="0 0 326.64 239.4221">
  <g style="isolation: isolate;">
    <text transform="translate(7.17 44.5705)" style="font-family: NotoSerifSC-Regular, &apos;Noto Serif SC&apos;; font-size: 18px; isolation: isolate;"><tspan x="0" y="0">输入设备</tspan></text>
  </g>
  <polygon points=".5 52.7706 86.5 52.7706 86.5 21.7706 22.5 21.7706 .5 30.1906 .5 52.7706" style="fill: none; stroke: #000; stroke-miterlimit: 10;"/>
  <g style="isolation: isolate;">
    <text transform="translate(137.9 44.0705)" style="font-family: NotoSerifSC-Regular, &apos;Noto Serif SC&apos;; font-size: 18px; isolation: isolate;"><tspan x="0" y="0">外围机</tspan></text>
  </g>
  <rect x="132.5" y="21.2706" width="65" height="31" style="fill: none; stroke: #000; stroke-miterlimit: 10;"/>
  <line x1="87.08" y1="36.7706" x2="132.5" y2="36.7706" style="fill: none; stroke: #000; stroke-miterlimit: 10;"/>
  <line x1="197.94" y1="37.0106" x2="243.36" y2="37.0106" style="fill: none; stroke: #000; stroke-miterlimit: 10;"/>
  <g style="isolation: isolate;">
    <text transform="translate(260.57 44.6606)" style="font-family: NotoSerifSC-Regular, &apos;Noto Serif SC&apos;; font-size: 18px; isolation: isolate;"><tspan x="0" y="0">磁盘</tspan></text>
  </g>
  <path d="M313.7,10.5006c-5.13,3.13-17.55,9.77-34.71,9.84-17.65.08-30.38-6.83-35.42-9.92,5.05-3.1,17.54-9.85,34.84-9.92,17.26-.07,29.81,6.53,35.07,9.71v40.56c-5.13,3.13-17.55,9.77-34.71,9.84-17.5.07-30.16-6.71-35.29-9.84V11.2706" style="fill: none; stroke: #000; stroke-miterlimit: 10;"/>
  <polyline points="243.5 11.3006 243.5 10.2006 243.5 10.7706" style="fill: none; stroke: #000; stroke-miterlimit: 10;"/>
  <g style="isolation: isolate;">
    <text transform="translate(33.57 134.5705)" style="font-family: NotoSerifSC-Regular, &apos;Noto Serif SC&apos;; font-size: 18px; isolation: isolate;"><tspan x="0" y="0">磁盘</tspan></text>
  </g>
  <path d="M86.71,100.2106c-5.13,3.13-17.55,9.77-34.71,9.84-17.65.08-30.38-6.83-35.42-9.92,5.05-3.1,17.54-9.85,34.84-9.92,17.26-.07,29.81,6.53,35.07,9.71v40.56c-5.13,3.13-17.55,9.77-34.71,9.84-17.5.07-30.16-6.71-35.29-9.84v-39.5" style="fill: none; stroke: #000; stroke-miterlimit: 10;"/>
  <g style="isolation: isolate;">
    <text transform="translate(146.95 134.5705)" style="font-family: NotoSerifSC-Regular, &apos;Noto Serif SC&apos;; font-size: 18px; isolation: isolate;"><tspan x="0" y="0">主机</tspan></text>
  </g>
  <rect x="132.5" y="111.7706" width="65" height="31" style="fill: none; stroke: #000; stroke-miterlimit: 10;"/>
  <g style="isolation: isolate;">
    <text transform="translate(260.57 134.5705)" style="font-family: NotoSerifSC-Regular, &apos;Noto Serif SC&apos;; font-size: 18px; isolation: isolate;"><tspan x="0" y="0">磁盘</tspan></text>
  </g>
  <path d="M313.7,100.2106c-5.13,3.13-17.55,9.77-34.71,9.84-17.65.08-30.38-6.83-35.42-9.92,5.05-3.1,17.54-9.85,34.84-9.92,17.26-.07,29.81,6.53,35.07,9.71v40.56c-5.13,3.13-17.55,9.77-34.71,9.84-17.5.07-30.16-6.71-35.29-9.84v-39.5" style="fill: none; stroke: #000; stroke-miterlimit: 10;"/>
  <line x1="197.92" y1="127.2706" x2="243.34" y2="127.2706" style="fill: none; stroke: #000; stroke-miterlimit: 10;"/>
  <line x1="86.92" y1="127.2706" x2="132.34" y2="127.2706" style="fill: none; stroke: #000; stroke-miterlimit: 10;"/>
  <g style="isolation: isolate;">
    <text transform="translate(33.65 220.5406)" style="font-family: NotoSerifSC-Regular, &apos;Noto Serif SC&apos;; font-size: 18px; isolation: isolate;"><tspan x="0" y="0">磁盘</tspan></text>
  </g>
  <path d="M86.79,186.1806c-5.13,3.13-17.55,9.77-34.71,9.84-17.65.08-30.38-6.83-35.42-9.92,5.05-3.1,17.54-9.85,34.84-9.92,17.26-.07,29.81,6.53,35.07,9.71v40.56c-5.13,3.13-17.55,9.77-34.71,9.84-17.5.07-30.16-6.71-35.29-9.84v-39.5" style="fill: none; stroke: #000; stroke-miterlimit: 10;"/>
  <g style="isolation: isolate;">
    <text transform="translate(137.97 220.5406)" style="font-family: NotoSerifSC-Regular, &apos;Noto Serif SC&apos;; font-size: 18px; isolation: isolate;"><tspan x="0" y="0">外围机</tspan></text>
  </g>
  <rect x="132.57" y="197.7306" width="65" height="31" style="fill: none; stroke: #000; stroke-miterlimit: 10;"/>
  <line x1="198" y1="213.2306" x2="243.42" y2="213.2306" style="fill: none; stroke: #000; stroke-miterlimit: 10;"/>
  <line x1="87" y1="213.2306" x2="132.42" y2="213.2306" style="fill: none; stroke: #000; stroke-miterlimit: 10;"/>
  <g style="isolation: isolate;">
    <text transform="translate(250.09 217.6905)" style="font-family: NotoSerifSC-Regular, &apos;Noto Serif SC&apos;; font-size: 18px; isolation: isolate;"><tspan x="0" y="0">输出设备</tspan></text>
  </g>
  <path d="M243.5,228.5406v-30.81h82.64v30.77c-9.47,4.02-23.22,7.82-36.64,2.27-2.02-.84-2.85-1.48-4.68-2.23-15.79-6.51-31.69-3.17-41.32,0" style="fill: none; stroke: #000; stroke-miterlimit: 10;"/>
</svg>