<?xml version="1.0" encoding="UTF-8"?>
<svg id="_layer_1" xmlns="http://www.w3.org/2000/svg" viewBox="0 0 634 193.3322">
  <g style="isolation: isolate;">
    <text transform="translate(299 28.25)" style="font-family: NotoSerifSC-Regular, &apos;Noto Serif SC&apos;; font-size: 18px; isolation: isolate;"><tspan x="0" y="0">用户</tspan></text>
  </g>
  <g style="isolation: isolate;">
    <text transform="translate(161.21 71.25)" style="font-family: NotoSerifSC-Regular, &apos;Noto Serif SC&apos;; font-size: 18px; isolation: isolate;"><tspan x="0" y="0">应用程序</tspan></text>
  </g>
  <g id="arrow">
    <line x1="317" y1="51.35" x2="317" y2="77.55" style="fill: none; stroke: #000; stroke-miterlimit: 10;"/>
    <polygon points="314.1 53.25 317 42.45 319.91 53.25 314.1 53.25"/>
    <polygon points="314.1 75.65 317 86.45 319.91 75.65 314.1 75.65"/>
  </g>
  <g style="isolation: isolate;">
    <text transform="translate(289 112.25)" style="font-family: NotoSerifSC-Regular, &apos;Noto Serif SC&apos;; font-size: 18px; isolation: isolate;"><tspan x="0" y="0">命令</tspan></text>
  </g>
  <g style="isolation: isolate;">
    <text transform="translate(134.4 111.25)" style="font-family: NotoSerifSC-Regular, &apos;Noto Serif SC&apos;; font-size: 18px; isolation: isolate;"><tspan x="0" y="0">系统调用</tspan></text>
  </g>
  <g style="isolation: isolate;">
    <text transform="translate(389 111.25)" style="font-family: NotoSerifSC-Regular, &apos;Noto Serif SC&apos;; font-size: 18px; isolation: isolate;"><tspan x="0" y="0">图标—窗口</tspan></text>
  </g>
  <g id="arrow-2">
    <line x1="422.21" y1="51.35" x2="422.21" y2="77.55" style="fill: none; stroke: #000; stroke-miterlimit: 10;"/>
    <polygon points="419.31 53.25 422.21 42.45 425.1 53.25 419.31 53.25"/>
    <polygon points="419.31 75.65 422.21 86.45 425.1 75.65 419.31 75.65"/>
  </g>
  <g style="isolation: isolate;">
    <text transform="translate(281 138.05)" style="font-family: NotoSerifSC-Regular, &apos;Noto Serif SC&apos;; font-size: 18px; isolation: isolate;"><tspan x="0" y="0">操作系统</tspan></text>
  </g>
  <g style="isolation: isolate;">
    <text transform="translate(272 174.45)" style="font-family: NotoSerifSC-Regular, &apos;Noto Serif SC&apos;; font-size: 18px; isolation: isolate;"><tspan x="0" y="0">计算机硬件</tspan></text>
  </g>
  <rect x="169.8" y=".5" width="294.3" height="42" style="fill: none; stroke: #000; stroke-miterlimit: 10;"/>
  <rect x="114.91" y="42.55" width="164.5" height="43.4" style="fill: none; stroke: #000; stroke-miterlimit: 10;"/>
  <rect x="44.51" y="85.95" width="545" height="60.8" style="fill: none; stroke: #000; stroke-miterlimit: 10;"/>
  <rect x=".5" y="146.75" width="633" height="44" style="fill: none; stroke: #000; stroke-miterlimit: 10;"/>
</svg>