<?xml version="1.0" encoding="UTF-8"?>
<svg id="_layer_1" xmlns="http://www.w3.org/2000/svg" viewBox="0 0 462.1815 312.7604">
  <path d="M169.76.781c-5.82,2.99-67.97,34.96-72.57,37.32.06.03.1.05.1.05l73.28,37.69s67.66-35.06,72.46-37.55l-.1-.05L170.19.561l-.44.22h.01Z" style="fill: none; stroke: #000; stroke-miterlimit: 10;"/>
  <g style="isolation: isolate;">
    <text transform="translate(143.1 31.691)" style="font-family: NotoSerifSC-Regular, &apos;Noto Serif SC&apos;; font-size: 18px; isolation: isolate;"><tspan x="0" y="0">还有下</tspan></text>
    <text transform="translate(129.6 53.291)" style="font-family: NotoSerifSC-Regular, &apos;Noto Serif SC&apos;; font-size: 18px; isolation: isolate;"><tspan x="0" y="0">一个作业</tspan></text>
    <text transform="translate(201.6 53.291)" style="font-family: NotoSerifSC-Regular, &apos;Noto Serif SC&apos;; font-size: 18px; isolation: isolate; letter-spacing: -1em;"><tspan x="0" y="0">？</tspan></text>
  </g>
  <g style="isolation: isolate;">
    <text transform="translate(333.69 24.311)" style="font-family: NotoSerifSC-Regular, &apos;Noto Serif SC&apos;; font-size: 18px; isolation: isolate;"><tspan x="0" y="0">把下一个作业</tspan></text>
    <text transform="translate(333.69 45.911)" style="font-family: NotoSerifSC-Regular, &apos;Noto Serif SC&apos;; font-size: 18px; isolation: isolate;"><tspan x="0" y="0">的源程序转换</tspan></text>
    <text transform="translate(342.69 67.511)" style="font-family: NotoSerifSC-Regular, &apos;Noto Serif SC&apos;; font-size: 18px; isolation: isolate;"><tspan x="0" y="0">为目标程序</tspan></text>
  </g>
  <rect x="328.19" y="1.561" width="119" height="74" style="fill: none; stroke: #000; stroke-miterlimit: 10;"/>
  <g id="arrow">
    <g>
      <line x1="243.02" y1="38.301" x2="322.22" y2="38.301" style="fill: none; stroke: #000; stroke-miterlimit: 10;"/>
      <polygon points="319.41 42.001 320.99 38.301 319.41 34.591 328.19 38.301 319.41 42.001"/>
    </g>
  </g>
  <g style="isolation: isolate;">
    <text transform="translate(276.6 28.3411)" style="font-family: NotoSerifSC-Regular, &apos;Noto Serif SC&apos;; font-size: 18px; isolation: isolate;"><tspan x="0" y="0">是</tspan></text>
  </g>
  <path d="M387.81,129.491c-5.82,2.99-67.97,34.96-72.57,37.32.06.03.1.05.1.05l73.28,37.69s67.66-35.06,72.46-37.55l-.1-.05-72.72-37.69-.44.22-.0099.01Z" style="fill: none; stroke: #000; stroke-miterlimit: 10;"/>
  <g style="isolation: isolate;">
    <text transform="translate(361.16 163.401)" style="font-family: NotoSerifSC-Regular, &apos;Noto Serif SC&apos;; font-size: 18px; isolation: isolate;"><tspan x="0" y="0">源程序</tspan></text>
    <text transform="translate(356.66 185.001)" style="font-family: NotoSerifSC-Regular, &apos;Noto Serif SC&apos;; font-size: 18px; isolation: isolate;"><tspan x="0" y="0">有错吗</tspan></text>
    <text transform="translate(410.66 185.001)" style="font-family: NotoSerifSC-Regular, &apos;Noto Serif SC&apos;; font-size: 18px; isolation: isolate; letter-spacing: -1em;"><tspan x="0" y="0">？</tspan></text>
  </g>
  <g id="arrow-2">
    <g>
      <line x1="388.16" y1="75.561" x2="388.16" y2="123.521" style="fill: none; stroke: #000; stroke-miterlimit: 10;"/>
      <polygon points="384.45 120.711 388.16 122.281 391.86 120.711 388.16 129.491 384.45 120.711"/>
    </g>
  </g>
  <g id="arrow-3">
    <g>
      <line y1="38.201" x2="91.22" y2="38.201" style="fill: none; stroke: #000; stroke-miterlimit: 10;"/>
      <polygon points="88.41 41.911 89.98 38.201 88.41 34.501 97.19 38.201 88.41 41.911"/>
    </g>
  </g>
  <g id="dot">
    <circle cx="26.19" cy="38.561" r="3"/>
  </g>
  <g style="isolation: isolate;">
    <text transform="translate(8.67 26.701)" style="font-family: NotoSerifSC-Regular, &apos;Noto Serif SC&apos;; font-size: 18px; isolation: isolate;"><tspan x="0" y="0">开始</tspan></text>
  </g>
  <g id="arrow-4">
    <g>
      <line x1="388.01" y1="204.541" x2="388.01" y2="252.501" style="fill: none; stroke: #000; stroke-miterlimit: 10;"/>
      <polygon points="384.31 249.691 388.01 251.261 391.72 249.691 388.01 258.461 384.31 249.691"/>
    </g>
  </g>
  <g style="isolation: isolate;">
    <text transform="translate(360.75 234.981)" style="font-family: NotoSerifSC-Regular, &apos;Noto Serif SC&apos;; font-size: 18px; isolation: isolate;"><tspan x="0" y="0">否</tspan></text>
  </g>
  <g style="isolation: isolate;">
    <text transform="translate(370.69 281.611)" style="font-family: NotoSerifSC-Regular, &apos;Noto Serif SC&apos;; font-size: 18px; isolation: isolate;"><tspan x="0" y="0">装配</tspan></text>
    <text transform="translate(352.69 303.211)" style="font-family: NotoSerifSC-Regular, &apos;Noto Serif SC&apos;; font-size: 18px; isolation: isolate;"><tspan x="0" y="0">目标程序</tspan></text>
  </g>
  <rect x="329.19" y="258.561" width="119" height="53" style="fill: none; stroke: #000; stroke-miterlimit: 10;"/>
  <g style="isolation: isolate;">
    <text transform="translate(156.69 281.611)" style="font-family: NotoSerifSC-Regular, &apos;Noto Serif SC&apos;; font-size: 18px; isolation: isolate;"><tspan x="0" y="0">运行</tspan></text>
    <text transform="translate(138.69 303.211)" style="font-family: NotoSerifSC-Regular, &apos;Noto Serif SC&apos;; font-size: 18px; isolation: isolate;"><tspan x="0" y="0">目标程序</tspan></text>
  </g>
  <rect x="115.19" y="258.561" width="119" height="53" style="fill: none; stroke: #000; stroke-miterlimit: 10;"/>
  <g id="arrow-5">
    <g>
      <line x1="329.19" y1="285.061" x2="240.16" y2="285.061" style="fill: none; stroke: #000; stroke-miterlimit: 10;"/>
      <polygon points="242.97 281.361 241.4 285.061 242.97 288.761 234.19 285.061 242.97 281.361"/>
    </g>
  </g>
  <g id="arrow-6">
    <g>
      <line x1="26.19" y1="285.061" x2="26.19" y2="45.851" style="fill: none; stroke: #000; stroke-miterlimit: 10;"/>
      <polygon points="29.9 48.661 26.19 47.091 22.49 48.661 26.19 39.881 29.9 48.661"/>
    </g>
  </g>
  <g id="arrow-7">
    <g>
      <line x1="115.19" y1="285.061" x2="32.16" y2="285.061" style="fill: none; stroke: #000; stroke-miterlimit: 10;"/>
      <polygon points="34.97 281.361 33.4 285.061 34.97 288.761 26.19 285.061 34.97 281.361"/>
    </g>
  </g>
  <g id="dot-2">
    <circle cx="26.19" cy="167.061" r="3"/>
  </g>
  <g id="arrow-8">
    <g>
      <line x1="315.34" y1="166.861" x2="32.16" y2="166.861" style="fill: none; stroke: #000; stroke-miterlimit: 10;"/>
      <polygon points="34.97 163.161 33.4 166.861 34.97 170.561 26.19 166.861 34.97 163.161"/>
    </g>
  </g>
  <g style="isolation: isolate;">
    <text transform="translate(290.93 157.861)" style="font-family: NotoSerifSC-Regular, &apos;Noto Serif SC&apos;; font-size: 18px; isolation: isolate;"><tspan x="0" y="0">是</tspan></text>
  </g>
  <g id="arrow-9">
    <g>
      <line x1="170.56" y1="75.851" x2="170.56" y2="101.091" style="fill: none; stroke: #000; stroke-miterlimit: 10;"/>
      <polygon points="166.86 98.281 170.56 99.851 174.26 98.281 170.56 107.061 166.86 98.281"/>
    </g>
  </g>
  <g style="isolation: isolate;">
    <text transform="translate(140.4 95.111)" style="font-family: NotoSerifSC-Regular, &apos;Noto Serif SC&apos;; font-size: 18px; isolation: isolate;"><tspan x="0" y="0">否</tspan></text>
  </g>
  <g style="isolation: isolate;">
    <text transform="translate(151.78 128.111)" style="font-family: NotoSerifSC-Regular, &apos;Noto Serif SC&apos;; font-size: 18px; isolation: isolate;"><tspan x="0" y="0">停止</tspan></text>
  </g>
</svg>