<?xml version="1.0" encoding="UTF-8"?>
<svg id="_图层_1" data-name="图层_1" xmlns="http://www.w3.org/2000/svg" xmlns:xlink="http://www.w3.org/1999/xlink" viewBox="0 0 576 432">
  <defs>
    <clipPath id="clippath">
      <rect x="72" y="51.84" width="446.4" height="332.64" style="fill: none;"/>
    </clipPath>
    <clipPath id="clippath-1">
      <rect x="72" y="51.84" width="446.4" height="332.64" style="fill: none;"/>
    </clipPath>
    <clipPath id="clippath-2">
      <rect x="72" y="51.84" width="446.4" height="332.64" style="fill: none;"/>
    </clipPath>
    <clipPath id="clippath-3">
      <rect x="72" y="51.84" width="446.4" height="332.64" style="fill: none;"/>
    </clipPath>
    <clipPath id="clippath-4">
      <rect x="72" y="51.84" width="446.4" height="332.64" style="fill: none;"/>
    </clipPath>
    <clipPath id="clippath-5">
      <rect x="72" y="51.84" width="446.4" height="332.64" style="fill: none;"/>
    </clipPath>
    <clipPath id="clippath-6">
      <rect x="72" y="51.84" width="446.4" height="332.64" style="fill: none;"/>
    </clipPath>
    <clipPath id="clippath-8">
      <rect x="72" y="51.84" width="446.4" height="332.64" style="fill: none;"/>
    </clipPath>
    <clipPath id="clippath-9">
      <rect x="72" y="51.84" width="446.4" height="332.64" style="fill: none;"/>
    </clipPath>
    <clipPath id="clippath-10">
      <rect x="72" y="51.84" width="446.4" height="332.64" style="fill: none;"/>
    </clipPath>
    <clipPath id="clippath-11">
      <rect x="72" y="51.84" width="446.4" height="332.64" style="fill: none;"/>
    </clipPath>
    <clipPath id="clippath-12">
      <rect x="72" y="51.84" width="446.4" height="332.64" style="fill: none;"/>
    </clipPath>
    <clipPath id="clippath-13">
      <rect x="72" y="51.84" width="446.4" height="332.64" style="fill: none;"/>
    </clipPath>
    <clipPath id="clippath-14">
      <rect x="72" y="51.84" width="446.4" height="332.64" style="fill: none;"/>
    </clipPath>
  </defs>
  <g id="figure_1">
    <g id="axes_1">
      <g id="GridlinesCollection_1">
        <g style="clip-path: url(#clippath);">
          <path d="M72,384.48V51.84" style="fill: none; stroke: #b0b0b0; stroke-linejoin: round; stroke-width: .8px;"/>
        </g>
        <g style="clip-path: url(#clippath-1);">
          <path d="M145.7851,384.48V51.84" style="fill: none; stroke: #b0b0b0; stroke-linejoin: round; stroke-width: .8px;"/>
        </g>
        <g style="clip-path: url(#clippath-2);">
          <path d="M219.5703,384.48V51.84" style="fill: none; stroke: #b0b0b0; stroke-linejoin: round; stroke-width: .8px;"/>
        </g>
        <g style="clip-path: url(#clippath-3);">
          <path d="M293.3554,384.48V51.84" style="fill: none; stroke: #b0b0b0; stroke-linejoin: round; stroke-width: .8px;"/>
        </g>
        <g style="clip-path: url(#clippath-4);">
          <path d="M367.1405,384.48V51.84" style="fill: none; stroke: #b0b0b0; stroke-linejoin: round; stroke-width: .8px;"/>
        </g>
        <g style="clip-path: url(#clippath-5);">
          <path d="M440.9256,384.48V51.84" style="fill: none; stroke: #b0b0b0; stroke-linejoin: round; stroke-width: .8px;"/>
        </g>
        <g style="clip-path: url(#clippath-6);">
          <path d="M514.7108,384.48V51.84" style="fill: none; stroke: #b0b0b0; stroke-linejoin: round; stroke-width: .8px;"/>
        </g>
        <g style="clip-path: url(#clippath-8);">
          <path d="M72,384.48h446.4" style="fill: none; stroke: #b0b0b0; stroke-linejoin: round; stroke-width: .8px;"/>
        </g>
        <g style="clip-path: url(#clippath-9);">
          <path d="M72,317.952h446.4" style="fill: none; stroke: #b0b0b0; stroke-linejoin: round; stroke-width: .8px;"/>
        </g>
        <g style="clip-path: url(#clippath-10);">
          <path d="M72,251.424h446.4" style="fill: none; stroke: #b0b0b0; stroke-linejoin: round; stroke-width: .8px;"/>
        </g>
        <g style="clip-path: url(#clippath-11);">
          <path d="M72,184.896h446.4" style="fill: none; stroke: #b0b0b0; stroke-linejoin: round; stroke-width: .8px;"/>
        </g>
        <g style="clip-path: url(#clippath-12);">
          <path d="M72,118.368h446.4" style="fill: none; stroke: #b0b0b0; stroke-linejoin: round; stroke-width: .8px;"/>
        </g>
        <g style="clip-path: url(#clippath-13);">
          <path d="M72,51.84h446.4" style="fill: none; stroke: #b0b0b0; stroke-linejoin: round; stroke-width: .8px;"/>
        </g>
      </g>
      <g id="line2d_1">
        <g style="clip-path: url(#clippath-14);">
          <path d="M-1,384.366l39.7967-.2209,25.8248-.3388,18.4463-.4356,14.757-.5428,11.0678-.5742,11.0678-.7719,11.0678-1.0362,7.3785-.88,7.3785-1.0685,7.3785-1.2957,7.3785-1.5686,7.3785-1.8955,7.3785-2.2853,3.6893-1.3111,3.6893-1.4366,3.6893-1.5726,3.6893-1.72,3.6893-1.8792,3.6893-2.0508,3.6893-2.2353,3.6893-2.4331,3.6893-2.6446,3.6893-2.8698,3.6893-3.109,3.6893-3.3617,3.6893-3.6276,3.6893-3.9061,3.6893-4.196,3.6893-4.4961,3.6893-4.8046,3.6893-5.1195,3.6893-5.4383,3.6893-5.7581,3.6893-6.0756,3.6892-6.3872,3.6893-6.6891,3.6892-6.9771,3.6893-7.2471,7.3785-15.2111,7.3785-15.9723,11.0678-24.7626,11.0677-24.7626,7.3785-15.9723,7.3785-15.2111,3.6892-7.2471,3.6893-6.9771,3.6892-6.6891,3.6893-6.3872,3.6892-6.0756,3.6893-5.7581,3.6892-5.4383,3.6893-5.1195,3.6893-4.8046,3.6892-4.4961,3.6893-4.196,3.6892-3.9061,3.6893-3.6276,3.6892-3.3617,3.6893-3.109,3.6892-2.8699,3.6893-2.6446,3.6893-2.4331,3.6892-2.2353,3.6893-2.0507,3.6892-1.8791,3.6893-1.72,3.6892-1.5726,3.6893-1.4365,7.3785-2.5068,7.3785-2.082,7.3785-1.7248,7.3785-1.4259,7.3785-1.1768,7.3785-.9698,7.3785-.7983,11.0678-.9395,11.0678-.6995,14.757-.6618,18.4463-.5314,22.1355-.3706,29.5141-.2487,10.6396-.0508h0" style="fill: none; stroke: blue; stroke-linecap: square; stroke-linejoin: round; stroke-width: 1.5px;"/>
        </g>
      </g>
      <g id="mpl_toolkits.axisartist.axis_artist_1">
        <path id="m79f926d043" d="M72,384.48v3.5" style="fill: none; stroke: #000; stroke-linejoin: round; stroke-width: .8px;"/>
        <path id="m79f926d043-2" data-name="m79f926d043" d="M145.7851,384.48v3.5" style="fill: none; stroke: #000; stroke-linejoin: round; stroke-width: .8px;"/>
        <path id="m79f926d043-3" data-name="m79f926d043" d="M219.5703,384.48v3.5" style="fill: none; stroke: #000; stroke-linejoin: round; stroke-width: .8px;"/>
        <path id="m79f926d043-4" data-name="m79f926d043" d="M293.3554,384.48v3.5" style="fill: none; stroke: #000; stroke-linejoin: round; stroke-width: .8px;"/>
        <path id="m79f926d043-5" data-name="m79f926d043" d="M367.1405,384.48v3.5" style="fill: none; stroke: #000; stroke-linejoin: round; stroke-width: .8px;"/>
        <path id="m79f926d043-6" data-name="m79f926d043" d="M440.9256,384.48v3.5" style="fill: none; stroke: #000; stroke-linejoin: round; stroke-width: .8px;"/>
        <path id="m79f926d043-7" data-name="m79f926d043" d="M514.7108,384.48v3.5" style="fill: none; stroke: #000; stroke-linejoin: round; stroke-width: .8px;"/>
        <g id="text_1">
          <g>
            <path id="DejaVuSerif-2212" d="M60.6389,374.3706h11.2669v1.4231h-11.2669v-1.4231Z"/>
            <path id="DejaVuSerif-36" d="M79.7034,380.1081c.825,0,1.4597-.3028,1.9041-.9084.4463-.6075.6694-1.4794.6694-2.6156s-.2231-2.0072-.6694-2.6128c-.4444-.6075-1.0791-.9113-1.9041-.9113-.8381,0-1.4775.2934-1.9181.8803-.4388.585-.6581,1.4316-.6581,2.5397,0,1.1644.2222,2.0606.6666,2.6888.4462.6262,1.0828.9394,1.9097.9394ZM76.8375,373.4987c.3994-.4388.8503-.7659,1.3528-.9816.5044-.2175,1.0734-.3263,1.7072-.3263,1.305,0,2.3372.3928,3.0966,1.1784.7594.7838,1.1391,1.8553,1.1391,3.2147,0,1.3294-.4087,2.3944-1.2263,3.195-.8175.8006-1.9088,1.2009-3.2738,1.2009-1.4831,0-2.6231-.5522-3.42-1.6566-.7969-1.1062-1.1953-2.6841-1.1953-4.7334,0-2.2969.4716-4.0753,1.4147-5.3353.9431-1.26,2.2734-1.89,3.9909-1.89.4631,0,.9497.0441,1.4597.1322s1.0313.2194,1.5638.3938v2.1628h-.9928c-.0712-.5906-.2972-1.0416-.6778-1.3528s-.8934-.4669-1.5384-.4669c-1.1363,0-1.9828.4313-2.5397,1.2938-.5569.8606-.8438,2.1844-.8606,3.9713Z"/>
          </g>
        </g>
        <g id="text_2">
          <g>
            <path id="DejaVuSerif-2212-2" data-name="DejaVuSerif-2212" d="M134.424,374.3706h11.2669v1.4231h-11.2669v-1.4231Z"/>
            <path id="DejaVuSerif-34" d="M153.8823,376.2775v-6.9806l-4.4803,6.9806h4.4803ZM157.7495,380.7241h-5.9766v-.9309h2.1094v-2.5763h-5.7291v-.9591l5.7488-8.8931h1.7381v8.9128h2.5059v.9394h-2.5059v2.5763h2.1094v.9309Z"/>
          </g>
        </g>
        <g id="text_3">
          <g>
            <path id="DejaVuSerif-2212-3" data-name="DejaVuSerif-2212" d="M208.2092,374.3706h11.2669v1.4231h-11.2669v-1.4231Z"/>
            <path id="DejaVuSerif-32" d="M223.6877,370.7312h-.9844v-2.3372c.6263-.3356,1.2572-.5906,1.8928-.765.6356-.1762,1.2581-.2644,1.8675-.2644,1.365,0,2.4431.3309,3.2344.9928s1.1869,1.5609,1.1869,2.6972c0,1.2844-.8963,2.82-2.6888,4.6069-.1406.135-.2466.2372-.3178.3066l-3.3131,3.3131h5.4759v-1.6172h1.0294v3.06h-8.4656v-.9591l3.9825-3.9713c.8794-.8794,1.5066-1.6866,1.8816-2.4216s.5625-1.5075.5625-2.3175c0-.8831-.2306-1.5741-.6919-2.0728-.4594-.4988-1.0931-.7481-1.9013-.7481-.8381,0-1.4859.2081-1.9434.6244-.4556.4163-.7247,1.0406-.8072,1.8731Z"/>
          </g>
        </g>
        <g id="text_4">
          <path id="DejaVuSerif-30" d="M293.3497,380.1081c.8981,0,1.5694-.4922,2.0138-1.4766.4463-.9844.6694-2.4694.6694-4.455,0-1.9931-.2231-3.4819-.6694-4.4663-.4444-.9844-1.1156-1.4766-2.0138-1.4766-.8962,0-1.5675.4922-2.0138,1.4766-.4444.9844-.6666,2.4731-.6666,4.4663,0,1.9856.2222,3.4706.6666,4.455.4462.9844,1.1175,1.4766,2.0138,1.4766ZM293.3497,380.98c-1.4231,0-2.535-.5972-3.3356-1.7916-.7988-1.1962-1.1981-2.8669-1.1981-5.0119,0-2.1506.3994-3.8231,1.1981-5.0175.8006-1.1963,1.9125-1.7944,3.3356-1.7944,1.4306,0,2.5444.5981,3.3413,1.7944.7969,1.1944,1.1953,2.8669,1.1953,5.0175,0,2.145-.3984,3.8156-1.1953,5.0119-.7969,1.1944-1.9106,1.7916-3.3413,1.7916Z"/>
        </g>
        <g id="text_5">
          <path id="DejaVuSerif-32-2" data-name="DejaVuSerif-32" d="M363.7177,370.7312h-.9844v-2.3372c.6263-.3356,1.2572-.5906,1.8928-.765.6356-.1762,1.2581-.2644,1.8675-.2644,1.365,0,2.4431.3309,3.2344.9928s1.1869,1.5609,1.1869,2.6972c0,1.2844-.8963,2.82-2.6888,4.6069-.1406.135-.2466.2372-.3178.3066l-3.3131,3.3131h5.4759v-1.6172h1.0294v3.06h-8.4656v-.9591l3.9825-3.9713c.8794-.8794,1.5066-1.6866,1.8816-2.4216s.5625-1.5075.5625-2.3175c0-.8831-.2306-1.5741-.6919-2.0728-.4594-.4988-1.0931-.7481-1.9013-.7481-.8381,0-1.4859.2081-1.9434.6244-.4556.4163-.7247,1.0406-.8072,1.8731Z"/>
        </g>
        <g id="text_6">
          <path id="DejaVuSerif-34-2" data-name="DejaVuSerif-34" d="M441.4825,376.2775v-6.9806l-4.4803,6.9806h4.4803ZM445.3497,380.7241h-5.9766v-.9309h2.1094v-2.5763h-5.7291v-.9591l5.7488-8.8931h1.7381v8.9128h2.5059v.9394h-2.5059v2.5763h2.1094v.9309Z"/>
        </g>
        <g id="text_7">
          <path id="DejaVuSerif-36-2" data-name="DejaVuSerif-36" d="M514.8739,380.1081c.825,0,1.4597-.3028,1.9041-.9084.4463-.6075.6694-1.4794.6694-2.6156s-.2231-2.0072-.6694-2.6128c-.4444-.6075-1.0791-.9113-1.9041-.9113-.8381,0-1.4775.2934-1.9181.8803-.4388.585-.6581,1.4316-.6581,2.5397,0,1.1644.2222,2.0606.6666,2.6888.4462.6262,1.0828.9394,1.9097.9394ZM512.0079,373.4987c.3994-.4388.8503-.7659,1.3528-.9816.5044-.2175,1.0734-.3263,1.7072-.3263,1.305,0,2.3372.3928,3.0966,1.1784.7594.7838,1.1391,1.8553,1.1391,3.2147,0,1.3294-.4087,2.3944-1.2263,3.195-.8175.8006-1.9088,1.2009-3.2738,1.2009-1.4831,0-2.6231-.5522-3.42-1.6566-.7969-1.1062-1.1953-2.6841-1.1953-4.7334,0-2.2969.4716-4.0753,1.4147-5.3353.9431-1.26,2.2734-1.89,3.9909-1.89.4631,0,.9497.0441,1.4597.1322s1.0313.2194,1.5638.3938v2.1628h-.9928c-.0712-.5906-.2972-1.0416-.6778-1.3528s-.8934-.4669-1.5384-.4669c-1.1363,0-1.9828.4313-2.5397,1.2938-.5569.8606-.8438,2.1844-.8606,3.9713Z"/>
        </g>
        <g id="patch_3">
          <path d="M72,384.48h463.282" style="fill: none; stroke: #000; stroke-linecap: round; stroke-linejoin: round;"/>
          <path d="M528.082,380.88l7.2,3.6-7.2,3.6" style="fill: none; stroke: #000; stroke-linecap: round; stroke-linejoin: round;"/>
        </g>
      </g>
      <g id="mpl_toolkits.axisartist.axis_artist_2">
        <path id="m0a63bc6cdd" d="M293.3554,384.48h-3.5" style="fill: none; stroke: #000; stroke-linejoin: round; stroke-width: .8px;"/>
        <path id="m0a63bc6cdd-2" data-name="m0a63bc6cdd" d="M293.3554,317.952h-3.5" style="fill: none; stroke: #000; stroke-linejoin: round; stroke-width: .8px;"/>
        <path id="m0a63bc6cdd-3" data-name="m0a63bc6cdd" d="M293.3554,251.424h-3.5" style="fill: none; stroke: #000; stroke-linejoin: round; stroke-width: .8px;"/>
        <path id="m0a63bc6cdd-4" data-name="m0a63bc6cdd" d="M293.3554,184.896h-3.5" style="fill: none; stroke: #000; stroke-linejoin: round; stroke-width: .8px;"/>
        <path id="m0a63bc6cdd-5" data-name="m0a63bc6cdd" d="M293.3554,118.368h-3.5" style="fill: none; stroke: #000; stroke-linejoin: round; stroke-width: .8px;"/>
        <path id="m0a63bc6cdd-6" data-name="m0a63bc6cdd" d="M293.3554,51.84h-3.5" style="fill: none; stroke: #000; stroke-linejoin: round; stroke-width: .8px;"/>
        <g id="text_8">
          <g>
            <path id="DejaVuSerif-30-2" data-name="DejaVuSerif-30" d="M302.576,388.8309c.8981,0,1.5694-.4922,2.0138-1.4766.4463-.9844.6694-2.4694.6694-4.455,0-1.9931-.2231-3.4819-.6694-4.4663-.4444-.9844-1.1156-1.4766-2.0138-1.4766-.8962,0-1.5675.4922-2.0138,1.4766-.4444.9844-.6666,2.4731-.6666,4.4663,0,1.9856.2222,3.4706.6666,4.455.4462.9844,1.1175,1.4766,2.0138,1.4766ZM302.576,389.7028c-1.4231,0-2.535-.5972-3.3356-1.7916-.7988-1.1962-1.1981-2.8669-1.1981-5.0119,0-2.1506.3994-3.8231,1.1981-5.0175.8006-1.1963,1.9125-1.7944,3.3356-1.7944,1.4306,0,2.5444.5981,3.3413,1.7944.7969,1.1944,1.1953,2.8669,1.1953,5.0175,0,2.145-.3984,3.8156-1.1953,5.0119-.7969,1.1944-1.9106,1.7916-3.3413,1.7916Z"/>
            <path id="DejaVuSerif-2e" d="M310.0035,388.5328c0-.3281.1116-.6066.3347-.8353s.5016-.3431.8353-.3431c.3225,0,.5972.1144.8241.3431.2288.2287.3431.5072.3431.8353,0,.3225-.1144.5981-.3431.8269-.2269.2288-.5016.3431-.8241.3431-.3338,0-.6122-.1125-.8353-.3375-.2231-.2269-.3347-.5044-.3347-.8325Z"/>
            <path id="DejaVuSerif-30-3" data-name="DejaVuSerif-30" d="M319.7498,388.8309c.8981,0,1.5694-.4922,2.0138-1.4766.4463-.9844.6694-2.4694.6694-4.455,0-1.9931-.2231-3.4819-.6694-4.4663-.4444-.9844-1.1156-1.4766-2.0138-1.4766-.8962,0-1.5675.4922-2.0138,1.4766-.4444.9844-.6666,2.4731-.6666,4.4663,0,1.9856.2222,3.4706.6666,4.455.4462.9844,1.1175,1.4766,2.0138,1.4766ZM319.7498,389.7028c-1.4231,0-2.535-.5972-3.3356-1.7916-.7988-1.1962-1.1981-2.8669-1.1981-5.0119,0-2.1506.3994-3.8231,1.1981-5.0175.8006-1.1963,1.9125-1.7944,3.3356-1.7944,1.4306,0,2.5444.5981,3.3413,1.7944.7969,1.1944,1.1953,2.8669,1.1953,5.0175,0,2.145-.3984,3.8156-1.1953,5.0119-.7969,1.1944-1.9106,1.7916-3.3413,1.7916Z"/>
          </g>
        </g>
        <g id="text_9">
          <g>
            <path id="DejaVuSerif-30-4" data-name="DejaVuSerif-30" d="M302.576,322.3029c.8981,0,1.5694-.4922,2.0138-1.4766.4463-.9844.6694-2.4694.6694-4.455,0-1.9931-.2231-3.4819-.6694-4.4663-.4444-.9844-1.1156-1.4766-2.0138-1.4766-.8962,0-1.5675.4922-2.0138,1.4766-.4444.9844-.6666,2.4731-.6666,4.4663,0,1.9856.2222,3.4706.6666,4.455.4462.9844,1.1175,1.4766,2.0138,1.4766ZM302.576,323.1748c-1.4231,0-2.535-.5972-3.3356-1.7916-.7988-1.1962-1.1981-2.8669-1.1981-5.0119,0-2.1506.3994-3.8231,1.1981-5.0175.8006-1.1963,1.9125-1.7944,3.3356-1.7944,1.4306,0,2.5444.5981,3.3413,1.7944.7969,1.1944,1.1953,2.8669,1.1953,5.0175,0,2.145-.3984,3.8156-1.1953,5.0119-.7969,1.1944-1.9106,1.7916-3.3413,1.7916Z"/>
            <path id="DejaVuSerif-2e-2" data-name="DejaVuSerif-2e" d="M310.0035,322.0048c0-.3281.1116-.6066.3347-.8353s.5016-.3431.8353-.3431c.3225,0,.5972.1144.8241.3431.2288.2287.3431.5072.3431.8353,0,.3225-.1144.5981-.3431.8269-.2269.2288-.5016.3431-.8241.3431-.3338,0-.6122-.1125-.8353-.3375-.2231-.2269-.3347-.5044-.3347-.8325Z"/>
            <path id="DejaVuSerif-32-3" data-name="DejaVuSerif-32" d="M316.3326,312.9261h-.9844v-2.3372c.6263-.3356,1.2572-.5906,1.8928-.765.6356-.1762,1.2581-.2644,1.8675-.2644,1.365,0,2.4431.3309,3.2344.9928s1.1869,1.5609,1.1869,2.6972c0,1.2844-.8963,2.82-2.6888,4.6069-.1406.135-.2466.2372-.3178.3066l-3.3131,3.3131h5.4759v-1.6172h1.0294v3.06h-8.4656v-.9591l3.9825-3.9713c.8794-.8794,1.5066-1.6866,1.8816-2.4216s.5625-1.5075.5625-2.3175c0-.8831-.2306-1.5741-.6919-2.0728-.4594-.4988-1.0931-.7481-1.9013-.7481-.8381,0-1.4859.2081-1.9434.6244-.4556.4163-.7247,1.0406-.8072,1.8731Z"/>
          </g>
        </g>
        <g id="text_10">
          <g>
            <path id="DejaVuSerif-30-5" data-name="DejaVuSerif-30" d="M302.576,255.7749c.8981,0,1.5694-.4922,2.0138-1.4766.4463-.9844.6694-2.4694.6694-4.455,0-1.9931-.2231-3.4819-.6694-4.4663-.4444-.9844-1.1156-1.4766-2.0138-1.4766-.8962,0-1.5675.4922-2.0138,1.4766-.4444.9844-.6666,2.4731-.6666,4.4663,0,1.9856.2222,3.4706.6666,4.455.4462.9844,1.1175,1.4766,2.0138,1.4766ZM302.576,256.6468c-1.4231,0-2.535-.5972-3.3356-1.7916-.7988-1.1962-1.1981-2.8669-1.1981-5.0119,0-2.1506.3994-3.8231,1.1981-5.0175.8006-1.1963,1.9125-1.7944,3.3356-1.7944,1.4306,0,2.5444.5981,3.3413,1.7944.7969,1.1944,1.1953,2.8669,1.1953,5.0175,0,2.145-.3984,3.8156-1.1953,5.0119-.7969,1.1944-1.9106,1.7916-3.3413,1.7916Z"/>
            <path id="DejaVuSerif-2e-3" data-name="DejaVuSerif-2e" d="M310.0035,255.4768c0-.3281.1116-.6066.3347-.8353s.5016-.3431.8353-.3431c.3225,0,.5972.1144.8241.3431.2288.2287.3431.5072.3431.8353,0,.3225-.1144.5981-.3431.8269-.2269.2288-.5016.3431-.8241.3431-.3338,0-.6122-.1125-.8353-.3375-.2231-.2269-.3347-.5044-.3347-.8325Z"/>
            <path id="DejaVuSerif-34-3" data-name="DejaVuSerif-34" d="M320.3123,251.9443v-6.9806l-4.4803,6.9806h4.4803ZM324.1795,256.3909h-5.9766v-.9309h2.1094v-2.5763h-5.7291v-.9591l5.7488-8.8931h1.7381v8.9128h2.5059v.9394h-2.5059v2.5763h2.1094v.9309Z"/>
          </g>
        </g>
        <g id="text_11">
          <g>
            <path id="DejaVuSerif-30-6" data-name="DejaVuSerif-30" d="M302.576,189.2469c.8981,0,1.5694-.4922,2.0138-1.4766.4463-.9844.6694-2.4694.6694-4.455,0-1.9931-.2231-3.4819-.6694-4.4663-.4444-.9844-1.1156-1.4766-2.0138-1.4766-.8962,0-1.5675.4922-2.0138,1.4766-.4444.9844-.6666,2.4731-.6666,4.4663,0,1.9856.2222,3.4706.6666,4.455.4462.9844,1.1175,1.4766,2.0138,1.4766ZM302.576,190.1188c-1.4231,0-2.535-.5972-3.3356-1.7916-.7988-1.1962-1.1981-2.8669-1.1981-5.0119,0-2.1506.3994-3.8231,1.1981-5.0175.8006-1.1963,1.9125-1.7944,3.3356-1.7944,1.4306,0,2.5444.5981,3.3413,1.7944.7969,1.1944,1.1953,2.8669,1.1953,5.0175,0,2.145-.3984,3.8156-1.1953,5.0119-.7969,1.1944-1.9106,1.7916-3.3413,1.7916Z"/>
            <path id="DejaVuSerif-2e-4" data-name="DejaVuSerif-2e" d="M310.0035,188.9488c0-.3281.1116-.6066.3347-.8353s.5016-.3431.8353-.3431c.3225,0,.5972.1144.8241.3431.2288.2287.3431.5072.3431.8353,0,.3225-.1144.5981-.3431.8269-.2269.2288-.5016.3431-.8241.3431-.3338,0-.6122-.1125-.8353-.3375-.2231-.2269-.3347-.5044-.3347-.8325Z"/>
            <path id="DejaVuSerif-36-3" data-name="DejaVuSerif-36" d="M319.9186,189.2469c.825,0,1.4597-.3028,1.9041-.9084.4463-.6075.6694-1.4794.6694-2.6156s-.2231-2.0072-.6694-2.6128c-.4444-.6075-1.0791-.9113-1.9041-.9113-.8381,0-1.4775.2934-1.9181.8803-.4388.585-.6581,1.4316-.6581,2.5397,0,1.1644.2222,2.0606.6666,2.6888.4462.6262,1.0828.9394,1.9097.9394ZM317.0526,182.6375c.3994-.4388.8503-.7659,1.3528-.9816.5044-.2175,1.0734-.3263,1.7072-.3263,1.305,0,2.3372.3928,3.0966,1.1784.7594.7838,1.1391,1.8553,1.1391,3.2147,0,1.3294-.4087,2.3944-1.2263,3.195-.8175.8006-1.9088,1.2009-3.2738,1.2009-1.4831,0-2.6231-.5522-3.42-1.6566-.7969-1.1062-1.1953-2.6841-1.1953-4.7334,0-2.2969.4716-4.0753,1.4147-5.3353.9431-1.26,2.2734-1.89,3.9909-1.89.4631,0,.9497.0441,1.4597.1322s1.0313.2194,1.5638.3938v2.1628h-.9928c-.0712-.5906-.2972-1.0416-.6778-1.3528s-.8934-.4669-1.5384-.4669c-1.1363,0-1.9828.4313-2.5397,1.2938-.5569.8606-.8438,2.1844-.8606,3.9713Z"/>
          </g>
        </g>
        <g id="text_12">
          <g>
            <path id="DejaVuSerif-30-7" data-name="DejaVuSerif-30" d="M302.576,122.719c.8981,0,1.5694-.4922,2.0138-1.4766.4463-.9844.6694-2.4694.6694-4.455,0-1.9931-.2231-3.4819-.6694-4.4663-.4444-.9844-1.1156-1.4766-2.0138-1.4766-.8962,0-1.5675.4922-2.0138,1.4766-.4444.9844-.6666,2.4731-.6666,4.4663,0,1.9856.2222,3.4706.6666,4.455.4462.9844,1.1175,1.4766,2.0138,1.4766ZM302.576,123.5908c-1.4231,0-2.535-.5972-3.3356-1.7916-.7988-1.1962-1.1981-2.8669-1.1981-5.0119,0-2.1506.3994-3.8231,1.1981-5.0175.8006-1.1963,1.9125-1.7944,3.3356-1.7944,1.4306,0,2.5444.5981,3.3413,1.7944.7969,1.1944,1.1953,2.8669,1.1953,5.0175,0,2.145-.3984,3.8156-1.1953,5.0119-.7969,1.1944-1.9106,1.7916-3.3413,1.7916Z"/>
            <path id="DejaVuSerif-2e-5" data-name="DejaVuSerif-2e" d="M310.0035,122.4208c0-.3281.1116-.6066.3347-.8353s.5016-.3431.8353-.3431c.3225,0,.5972.1144.8241.3431.2288.2287.3431.5072.3431.8353,0,.3225-.1144.5981-.3431.8269-.2269.2288-.5016.3431-.8241.3431-.3338,0-.6122-.1125-.8353-.3375-.2231-.2269-.3347-.5044-.3347-.8325Z"/>
            <path id="DejaVuSerif-38" d="M322.4133,119.749c0-.9375-.2334-1.665-.7003-2.1825-.465-.5194-1.1194-.7791-1.9631-.7791s-1.4981.2597-1.9631.7791c-.465.5175-.6975,1.245-.6975,2.1825,0,.9431.2325,1.6744.6975,2.1938.465.5175,1.1194.7763,1.9631.7763s1.4981-.2588,1.9631-.7763c.4669-.5194.7003-1.2506.7003-2.1938ZM322.0533,113.3758c0-.7969-.2025-1.4175-.6075-1.8619-.4031-.4462-.9684-.6694-1.6959-.6694-.72,0-1.2834.2231-1.6903.6694-.4069.4444-.6103,1.065-.6103,1.8619,0,.8025.2034,1.4269.6103,1.8731.4069.4444.9703.6666,1.6903.6666.7275,0,1.2928-.2222,1.6959-.6666.405-.4463.6075-1.0706.6075-1.8731ZM321.1055,116.3486c.9956.1331,1.7719.5006,2.3288,1.1025.5569.6.8353,1.3659.8353,2.2978,0,1.23-.39,2.1778-1.17,2.8434-.78.6656-1.8966.9984-3.3497.9984-1.4456,0-2.5603-.3328-3.3441-.9984-.7819-.6656-1.1728-1.6134-1.1728-2.8434,0-.9319.2784-1.6978.8353-2.2978.5569-.6019,1.3359-.9694,2.3372-1.1025-.885-.1594-1.5638-.495-2.0363-1.0069-.4706-.5138-.7059-1.1691-.7059-1.9659,0-1.0538.3628-1.8834,1.0884-2.4891.7275-.6075,1.7269-.9113,2.9981-.9113,1.2731,0,2.2725.3038,2.9981.9113.7275.6056,1.0913,1.4353,1.0913,2.4891,0,.7969-.2363,1.4522-.7088,1.9659-.4725.5119-1.1475.8475-2.025,1.0069Z"/>
          </g>
        </g>
        <g id="text_13">
          <g>
            <path id="DejaVuSerif-31" d="M299.4119,56.8069v-.9309h2.2866v-10.9181l-2.6466,1.7156v-1.1531l3.2006-2.0728h1.2122v12.4284h2.2866v.9309h-6.3394Z"/>
            <path id="DejaVuSerif-2e-6" data-name="DejaVuSerif-2e" d="M310.0035,55.8928c0-.3281.1116-.6066.3347-.8353s.5016-.3431.8353-.3431c.3225,0,.5972.1144.8241.3431.2288.2287.3431.5072.3431.8353,0,.3225-.1144.5981-.3431.8269-.2269.2288-.5016.3431-.8241.3431-.3338,0-.6122-.1125-.8353-.3375-.2231-.2269-.3347-.5044-.3347-.8325Z"/>
            <path id="DejaVuSerif-30-8" data-name="DejaVuSerif-30" d="M319.7498,56.1909c.8981,0,1.5694-.4922,2.0138-1.4766.4463-.9844.6694-2.4694.6694-4.455,0-1.9931-.2231-3.4819-.6694-4.4663-.4444-.9844-1.1156-1.4766-2.0138-1.4766-.8962,0-1.5675.4922-2.0138,1.4766-.4444.9844-.6666,2.4731-.6666,4.4663,0,1.9856.2222,3.4706.6666,4.455.4462.9844,1.1175,1.4766,2.0138,1.4766ZM319.7498,57.0628c-1.4231,0-2.535-.5972-3.3356-1.7916-.7988-1.1962-1.1981-2.8669-1.1981-5.0119,0-2.1506.3994-3.8231,1.1981-5.0175.8006-1.1963,1.9125-1.7944,3.3356-1.7944,1.4306,0,2.5444.5981,3.3413,1.7944.7969,1.1944,1.1953,2.8669,1.1953,5.0175,0,2.145-.3984,3.8156-1.1953,5.0119-.7969,1.1944-1.9106,1.7916-3.3413,1.7916Z"/>
          </g>
        </g>
        <g id="patch_4">
          <path d="M293.3554,384.48V34.958" style="fill: none; stroke: #000; stroke-linecap: round; stroke-linejoin: round;"/>
          <path d="M289.7554,42.158l3.6-7.2,3.6,7.2h-7.2Z" style="stroke: #000; stroke-linecap: round; stroke-linejoin: round;"/>
        </g>
      </g>
    </g>
  </g>
</svg>