<?xml version="1.0" encoding="UTF-8"?>
<svg id="_图层_1" data-name="图层_1" xmlns="http://www.w3.org/2000/svg" xmlns:xlink="http://www.w3.org/1999/xlink" viewBox="0 0 576 432">
  <defs>
    <clipPath id="clippath">
      <rect x="72" y="51.8" width="446.4" height="332.6" style="fill: none;"/>
    </clipPath>
    <clipPath id="clippath-1">
      <rect x="72" y="51.8" width="446.4" height="332.6" style="fill: none;"/>
    </clipPath>
    <clipPath id="clippath-2">
      <rect x="72" y="51.8" width="446.4" height="332.6" style="fill: none;"/>
    </clipPath>
    <clipPath id="clippath-3">
      <rect x="72" y="51.8" width="446.4" height="332.6" style="fill: none;"/>
    </clipPath>
    <clipPath id="clippath-4">
      <rect x="72" y="51.8" width="446.4" height="332.6" style="fill: none;"/>
    </clipPath>
    <clipPath id="clippath-5">
      <rect x="72" y="51.8" width="446.4" height="332.6" style="fill: none;"/>
    </clipPath>
    <clipPath id="clippath-6">
      <rect x="72" y="51.8" width="446.4" height="332.6" style="fill: none;"/>
    </clipPath>
    <clipPath id="clippath-8">
      <rect x="72" y="51.8" width="446.4" height="332.6" style="fill: none;"/>
    </clipPath>
    <clipPath id="clippath-9">
      <rect x="72" y="51.8" width="446.4" height="332.6" style="fill: none;"/>
    </clipPath>
    <clipPath id="clippath-10">
      <rect x="72" y="51.8" width="446.4" height="332.6" style="fill: none;"/>
    </clipPath>
    <clipPath id="clippath-11">
      <rect x="72" y="51.8" width="446.4" height="332.6" style="fill: none;"/>
    </clipPath>
    <clipPath id="clippath-12">
      <rect x="72" y="51.8" width="446.4" height="332.6" style="fill: none;"/>
    </clipPath>
    <clipPath id="clippath-13">
      <rect x="72" y="51.8" width="446.4" height="332.6" style="fill: none;"/>
    </clipPath>
    <clipPath id="clippath-14">
      <rect x="72" y="51.8" width="446.4" height="332.6" style="fill: none;"/>
    </clipPath>
  </defs>
  <g id="_图层_1-2" data-name="_图层_1">
    <g id="figure_1">
      <g id="axes_1">
        <g id="GridlinesCollection_1">
          <g style="clip-path: url(#clippath);">
            <path d="M72,384.5V51.8" style="fill: none; stroke: #b0b0b0; stroke-linejoin: round; stroke-width: .8px;"/>
          </g>
          <g style="clip-path: url(#clippath-1);">
            <path d="M145.8,384.5V51.8" style="fill: none; stroke: #b0b0b0; stroke-linejoin: round; stroke-width: .8px;"/>
          </g>
          <g style="clip-path: url(#clippath-2);">
            <path d="M219.6,384.5V51.8" style="fill: none; stroke: #b0b0b0; stroke-linejoin: round; stroke-width: .8px;"/>
          </g>
          <g style="clip-path: url(#clippath-3);">
            <path d="M293.4,384.5V51.8" style="fill: none; stroke: #b0b0b0; stroke-linejoin: round; stroke-width: .8px;"/>
          </g>
          <g style="clip-path: url(#clippath-4);">
            <path d="M367.1,384.5V51.8" style="fill: none; stroke: #b0b0b0; stroke-linejoin: round; stroke-width: .8px;"/>
          </g>
          <g style="clip-path: url(#clippath-5);">
            <path d="M440.9,384.5V51.8" style="fill: none; stroke: #b0b0b0; stroke-linejoin: round; stroke-width: .8px;"/>
          </g>
          <g style="clip-path: url(#clippath-6);">
            <path d="M514.7,384.5V51.8" style="fill: none; stroke: #b0b0b0; stroke-linejoin: round; stroke-width: .8px;"/>
          </g>
          <g style="clip-path: url(#clippath-8);">
            <path d="M72,384.5h446.4" style="fill: none; stroke: #b0b0b0; stroke-linejoin: round; stroke-width: .8px;"/>
          </g>
          <g style="clip-path: url(#clippath-9);">
            <path d="M72,318h446.4" style="fill: none; stroke: #b0b0b0; stroke-linejoin: round; stroke-width: .8px;"/>
          </g>
          <g style="clip-path: url(#clippath-10);">
            <path d="M72,251.4h446.4" style="fill: none; stroke: #b0b0b0; stroke-linejoin: round; stroke-width: .8px;"/>
          </g>
          <g style="clip-path: url(#clippath-11);">
            <path d="M72,184.9h446.4" style="fill: none; stroke: #b0b0b0; stroke-linejoin: round; stroke-width: .8px;"/>
          </g>
          <g style="clip-path: url(#clippath-12);">
            <path d="M72,118.4h446.4" style="fill: none; stroke: #b0b0b0; stroke-linejoin: round; stroke-width: .8px;"/>
          </g>
          <g style="clip-path: url(#clippath-13);">
            <path d="M72,51.8h446.4" style="fill: none; stroke: #b0b0b0; stroke-linejoin: round; stroke-width: .8px;"/>
          </g>
        </g>
        <g id="line2d_1">
          <g style="clip-path: url(#clippath-14);">
            <path d="M-1,384.4l39.8-.2,25.8-.3,18.4-.4,14.8-.5,11.1-.6,11.1-.8,11.1-1,7.4-.9,7.4-1.1,7.4-1.3,7.4-1.6,7.4-1.9,7.4-2.3,3.7-1.3,3.7-1.4,3.7-1.6,3.7-1.7,3.7-1.9,3.7-2.1,3.7-2.2,3.7-2.4,3.7-2.6,3.7-2.9,3.7-3.1,3.7-3.4,3.7-3.6,3.7-3.9,3.7-4.2,3.7-4.5,3.7-4.8,3.7-5.1,3.7-5.4,3.7-5.8,3.7-6.1,3.7-6.4,3.7-6.7,3.7-7,3.7-7.2,7.4-15.2,7.4-16,11.1-24.8,11.1-24.8,7.4-16,7.4-15.2,3.7-7.2,3.7-7,3.7-6.7,3.7-6.4,3.7-6.1,3.7-5.8,3.7-5.4,3.7-5.1,3.7-4.8,3.7-4.5,3.7-4.2,3.7-3.9,3.7-3.6,3.7-3.4,3.7-3.1,3.7-2.9,3.7-2.6,3.7-2.4,3.7-2.2,3.7-2.1,3.7-1.9,3.7-1.7,3.7-1.6,3.7-1.4,7.4-2.5,7.4-2.1,7.4-1.7,7.4-1.4,7.4-1.2,7.4-1,7.4-.8,11.1-.9,11.1-.7,14.8-.7,18.4-.5,22.1-.4,29.5-.2h10.6" style="fill: none; stroke: blue; stroke-linecap: square; stroke-linejoin: round; stroke-width: 1.5px;"/>
          </g>
        </g>
        <g id="mpl_toolkits.axisartist.axis_artist_1">
          <path id="m79f926d043" d="M72,384.5v3.5" style="fill: none; stroke: #000; stroke-linejoin: round; stroke-width: .8px;"/>
          <path id="m79f926d043-2" d="M145.8,384.5v3.5" style="fill: none; stroke: #000; stroke-linejoin: round; stroke-width: .8px;"/>
          <path id="m79f926d043-3" d="M219.6,384.5v3.5" style="fill: none; stroke: #000; stroke-linejoin: round; stroke-width: .8px;"/>
          <path id="m79f926d043-4" d="M293.4,384.5v3.5" style="fill: none; stroke: #000; stroke-linejoin: round; stroke-width: .8px;"/>
          <path id="m79f926d043-5" d="M367.1,384.5v3.5" style="fill: none; stroke: #000; stroke-linejoin: round; stroke-width: .8px;"/>
          <path id="m79f926d043-6" d="M440.9,384.5v3.5" style="fill: none; stroke: #000; stroke-linejoin: round; stroke-width: .8px;"/>
          <path id="m79f926d043-7" d="M514.7,384.5v3.5" style="fill: none; stroke: #000; stroke-linejoin: round; stroke-width: .8px;"/>
          <g id="text_1">
            <g>
              <path id="DejaVuSerif-2212" d="M60.6,374.4h11.3v1.4h-11.3s0-1.4,0-1.4Z"/>
              <path id="DejaVuSerif-36" d="M79.7,380.1c.8,0,1.5-.3,1.9-.9s.7-1.5.7-2.6-.2-2-.7-2.6c-.4-.6-1.1-.9-1.9-.9s-1.5.3-1.9.9-.7,1.4-.7,2.5.2,2.1.7,2.7c.4.6,1.1.9,1.9.9ZM76.8,373.5c.4-.4.9-.8,1.4-1s1.1-.3,1.7-.3c1.3,0,2.3.4,3.1,1.2.8.8,1.1,1.9,1.1,3.2s-.4,2.4-1.2,3.2c-.8.8-1.9,1.2-3.3,1.2s-2.6-.6-3.4-1.7-1.2-2.7-1.2-4.7.5-4.1,1.4-5.3c.9-1.3,2.3-1.9,4-1.9s.9,0,1.5.1,1,.2,1.6.4v2.2h-1c0-.6-.3-1-.7-1.4s-.9-.5-1.5-.5c-1.1,0-2,.4-2.5,1.3-.6.9-.8,2.2-.9,4h-.1Z"/>
            </g>
          </g>
          <g id="text_2">
            <g>
              <path id="DejaVuSerif-2212-2" d="M134.4,374.4h11.3v1.4h-11.3v-1.4Z"/>
              <path id="DejaVuSerif-34" d="M153.9,376.3v-7l-4.5,7h4.5ZM157.7,380.7h-6v-.9h2.1v-2.6h-5.7v-1l5.7-8.9h1.7v8.9h2.5v.9h-2.5v2.6h2.1v.9l.1.1Z"/>
            </g>
          </g>
          <g id="text_3">
            <g>
              <path id="DejaVuSerif-2212-3" d="M208.2,374.4h11.3v1.4h-11.3v-1.4Z"/>
              <path id="DejaVuSerif-32" d="M223.7,370.7h-1v-2.3c.6-.3,1.3-.6,1.9-.8.6-.2,1.3-.3,1.9-.3,1.4,0,2.4.3,3.2,1s1.2,1.6,1.2,2.7-.9,2.8-2.7,4.6c-.1.1-.2.2-.3.3l-3.3,3.3h5.5v-1.6h1v3.1h-8.5v-1l4-4c.9-.9,1.5-1.7,1.9-2.4s.6-1.5.6-2.3-.2-1.6-.7-2.1-1.1-.7-1.9-.7-1.5.2-1.9.6c-.5.4-.7,1-.8,1.9h-.1Z"/>
            </g>
          </g>
          <g id="text_4">
            <path id="DejaVuSerif-30" d="M293.3,380.1c.9,0,1.6-.5,2-1.5s.7-2.5.7-4.5-.2-3.5-.7-4.5c-.4-1-1.1-1.5-2-1.5s-1.6.5-2,1.5-.7,2.5-.7,4.5.2,3.5.7,4.5c.4,1,1.1,1.5,2,1.5ZM293.3,381c-1.4,0-2.5-.6-3.3-1.8-.8-1.2-1.2-2.9-1.2-5s.4-3.8,1.2-5c.8-1.2,1.9-1.8,3.3-1.8s2.5.6,3.3,1.8c.8,1.2,1.2,2.9,1.2,5s-.4,3.8-1.2,5c-.8,1.2-1.9,1.8-3.3,1.8Z"/>
          </g>
          <g id="text_5">
            <path id="DejaVuSerif-32-2" d="M363.7,370.7h-1v-2.3c.6-.3,1.3-.6,1.9-.8.6-.2,1.3-.3,1.9-.3,1.4,0,2.4.3,3.2,1s1.2,1.6,1.2,2.7-.9,2.8-2.7,4.6l-.3.3-3.3,3.3h5.5v-1.6h1v3.1h-8.5v-1l4-4c.9-.9,1.5-1.7,1.9-2.4s.6-1.5.6-2.3-.2-1.6-.7-2.1-1.1-.7-1.9-.7-1.5.2-1.9.6c-.5.4-.7,1-.8,1.9h-.1Z"/>
          </g>
          <g id="text_6">
            <path id="DejaVuSerif-34-2" d="M441.5,376.3v-7l-4.5,7h4.5ZM445.3,380.7h-6v-.9h2.1v-2.6h-5.7v-1l5.7-8.9h1.7v8.9h2.5v.9h-2.5v2.6h2.1v.9l.1.1Z"/>
          </g>
          <g id="text_7">
            <path id="DejaVuSerif-36-2" d="M514.9,380.1c.8,0,1.5-.3,1.9-.9s.7-1.5.7-2.6-.2-2-.7-2.6c-.4-.6-1.1-.9-1.9-.9s-1.5.3-1.9.9-.7,1.4-.7,2.5.2,2.1.7,2.7c.4.6,1.1.9,1.9.9ZM512,373.5c.4-.4.9-.8,1.4-1s1.1-.3,1.7-.3c1.3,0,2.3.4,3.1,1.2.8.8,1.1,1.9,1.1,3.2s-.4,2.4-1.2,3.2c-.8.8-1.9,1.2-3.3,1.2s-2.6-.6-3.4-1.7c-.8-1.1-1.2-2.7-1.2-4.7s.5-4.1,1.4-5.3c.9-1.3,2.3-1.9,4-1.9s.9,0,1.5.1,1,.2,1.6.4v2.2h-1c0-.6-.3-1-.7-1.4s-.9-.5-1.5-.5c-1.1,0-2,.4-2.5,1.3-.6.9-.8,2.2-.9,4h-.0999Z"/>
          </g>
          <g id="patch_3">
            <path d="M72,384.5h463.3" style="fill: none; stroke: #000; stroke-linecap: round; stroke-linejoin: round;"/>
            <path d="M528.1,380.9l7.2,3.6-7.2,3.6" style="fill: none; stroke: #000; stroke-linecap: round; stroke-linejoin: round;"/>
          </g>
        </g>
        <g id="mpl_toolkits.axisartist.axis_artist_2">
          <path id="m0a63bc6cdd" d="M293.4,384.5h-3.5" style="fill: none; stroke: #000; stroke-linejoin: round; stroke-width: .8px;"/>
          <path id="m0a63bc6cdd-2" d="M293.4,318h-3.5" style="fill: none; stroke: #000; stroke-linejoin: round; stroke-width: .8px;"/>
          <path id="m0a63bc6cdd-3" d="M293.4,251.4h-3.5" style="fill: none; stroke: #000; stroke-linejoin: round; stroke-width: .8px;"/>
          <path id="m0a63bc6cdd-4" d="M293.4,184.9h-3.5" style="fill: none; stroke: #000; stroke-linejoin: round; stroke-width: .8px;"/>
          <path id="m0a63bc6cdd-5" d="M293.4,118.4h-3.5" style="fill: none; stroke: #000; stroke-linejoin: round; stroke-width: .8px;"/>
          <path id="m0a63bc6cdd-6" d="M293.4,51.8h-3.5" style="fill: none; stroke: #000; stroke-linejoin: round; stroke-width: .8px;"/>
          <g id="text_8">
            <g>
              <path id="DejaVuSerif-30-2" d="M302.6,388.8c.9,0,1.6-.5,2-1.5s.7-2.5.7-4.5-.2-3.5-.7-4.5c-.4-1-1.1-1.5-2-1.5s-1.6.5-2,1.5-.7,2.5-.7,4.5.2,3.5.7,4.5c.4,1,1.1,1.5,2,1.5ZM302.6,389.7c-1.4,0-2.5-.6-3.3-1.8-.8-1.2-1.2-2.9-1.2-5s.4-3.8,1.2-5c.8-1.2,1.9-1.8,3.3-1.8s2.5.6,3.3,1.8c.8,1.2,1.2,2.9,1.2,5s-.4,3.8-1.2,5c-.8,1.2-1.9,1.8-3.3,1.8Z"/>
              <path id="DejaVuSerif-2e" d="M310,388.5c0-.3.1-.6.3-.8s.5-.3.8-.3.6.1.8.3.3.5.3.8-.1.6-.3.8-.5.3-.8.3-.6-.1-.8-.3-.3-.5-.3-.8Z"/>
              <path id="DejaVuSerif-30-3" d="M319.7,388.8c.9,0,1.6-.5,2-1.5s.7-2.5.7-4.5-.2-3.5-.7-4.5c-.4-1-1.1-1.5-2-1.5s-1.6.5-2,1.5-.7,2.5-.7,4.5.2,3.5.7,4.5c.4,1,1.1,1.5,2,1.5ZM319.7,389.7c-1.4,0-2.5-.6-3.3-1.8-.8-1.2-1.2-2.9-1.2-5s.4-3.8,1.2-5c.8-1.2,1.9-1.8,3.3-1.8s2.5.6,3.3,1.8c.8,1.2,1.2,2.9,1.2,5s-.4,3.8-1.2,5c-.8,1.2-1.9,1.8-3.3,1.8Z"/>
            </g>
          </g>
          <g id="text_9">
            <g>
              <path id="DejaVuSerif-30-4" d="M302.6,322.3c.9,0,1.6-.5,2-1.5s.7-2.5.7-4.5-.2-3.5-.7-4.5c-.4-1-1.1-1.5-2-1.5s-1.6.5-2,1.5-.7,2.5-.7,4.5.2,3.5.7,4.5c.4,1,1.1,1.5,2,1.5ZM302.6,323.2c-1.4,0-2.5-.6-3.3-1.8-.8-1.2-1.2-2.9-1.2-5s.4-3.8,1.2-5c.8-1.2,1.9-1.8,3.3-1.8s2.5.6,3.3,1.8c.8,1.2,1.2,2.9,1.2,5s-.4,3.8-1.2,5c-.8,1.2-1.9,1.8-3.3,1.8Z"/>
              <path id="DejaVuSerif-2e-2" d="M310,322c0-.3.1-.6.3-.8s.5-.3.8-.3.6.1.8.3.3.5.3.8-.1.6-.3.8-.5.3-.8.3-.6-.1-.8-.3-.3-.5-.3-.8Z"/>
              <path id="DejaVuSerif-32-3" d="M316.3,312.9h-1v-2.3c.6-.3,1.3-.6,1.9-.8.6-.2,1.3-.3,1.9-.3,1.4,0,2.4.3,3.2,1s1.2,1.6,1.2,2.7-.9,2.8-2.7,4.6l-.3.3-3.3,3.3h5.5v-1.6h1v3.1h-8.5v-1l4-4c.9-.9,1.5-1.7,1.9-2.4s.6-1.5.6-2.3-.2-1.6-.7-2.1-1.1-.7-1.9-.7-1.5.2-1.9.6c-.5.4-.7,1-.8,1.9h-.1Z"/>
            </g>
          </g>
          <g id="text_10">
            <g>
              <path id="DejaVuSerif-30-5" d="M302.6,255.8c.9,0,1.6-.5,2-1.5s.7-2.5.7-4.5-.2-3.5-.7-4.5c-.4-1-1.1-1.5-2-1.5s-1.6.5-2,1.5-.7,2.5-.7,4.5.2,3.5.7,4.5c.4,1,1.1,1.5,2,1.5ZM302.6,256.6c-1.4,0-2.5-.6-3.3-1.8s-1.2-2.9-1.2-5,.4-3.8,1.2-5c.8-1.2,1.9-1.8,3.3-1.8s2.5.6,3.3,1.8,1.2,2.9,1.2,5-.4,3.8-1.2,5c-.8,1.2-1.9,1.8-3.3,1.8Z"/>
              <path id="DejaVuSerif-2e-3" d="M310,255.5c0-.3.1-.6.3-.8s.5-.3.8-.3.6.1.8.3c.2.2.3.5.3.8s-.1.6-.3.8-.5.3-.8.3-.6-.1-.8-.3-.3-.5-.3-.8h0Z"/>
              <path id="DejaVuSerif-34-3" d="M320.3,251.9v-7l-4.5,7h4.5ZM324.2,256.4h-6v-.9h2.1v-2.6h-5.7v-1l5.7-8.9h1.7v8.9h2.5v.9h-2.5v2.6h2.1v.9l.1.1Z"/>
            </g>
          </g>
          <g id="text_11">
            <g>
              <path id="DejaVuSerif-30-6" d="M302.6,189.2c.9,0,1.6-.5,2-1.5s.7-2.5.7-4.5-.2-3.5-.7-4.5c-.4-1-1.1-1.5-2-1.5s-1.6.5-2,1.5-.7,2.5-.7,4.5.2,3.5.7,4.5c.4,1,1.1,1.5,2,1.5ZM302.6,190.1c-1.4,0-2.5-.6-3.3-1.8s-1.2-2.9-1.2-5,.4-3.8,1.2-5c.8-1.2,1.9-1.8,3.3-1.8s2.5.6,3.3,1.8,1.2,2.9,1.2,5-.4,3.8-1.2,5c-.8,1.2-1.9,1.8-3.3,1.8Z"/>
              <path id="DejaVuSerif-2e-4" d="M310,188.9c0-.3.1-.6.3-.8s.5-.3.8-.3.6.1.8.3c.2.2.3.5.3.8s-.1.6-.3.8c-.2.2-.5.3-.8.3s-.6-.1-.8-.3c-.2-.2-.3-.5-.3-.8Z"/>
              <path id="DejaVuSerif-36-3" d="M319.9,189.2c.8,0,1.5-.3,1.9-.9.4-.6.7-1.5.7-2.6s-.2-2-.7-2.6c-.4-.6-1.1-.9-1.9-.9s-1.5.3-1.9.9c-.4.6-.7,1.4-.7,2.5s.2,2.1.7,2.7c.4.6,1.1.9,1.9.9h0ZM317.1,182.6c.4-.4.9-.8,1.4-1s1.1-.3,1.7-.3c1.3,0,2.3.4,3.1,1.2.8.8,1.1,1.9,1.1,3.2s-.4,2.4-1.2,3.2c-.8.8-1.9,1.2-3.3,1.2s-2.6-.6-3.4-1.7c-.8-1.1-1.2-2.7-1.2-4.7s.5-4.1,1.4-5.3c.9-1.3,2.3-1.9,4-1.9s.9,0,1.5.1,1,.2,1.6.4v2.2h-1c0-.6-.3-1-.7-1.4s-.9-.5-1.5-.5c-1.1,0-2,.4-2.5,1.3-.6.9-.8,2.2-.9,4h-.1Z"/>
            </g>
          </g>
          <g id="text_12">
            <g>
              <path id="DejaVuSerif-30-7" d="M302.6,122.7c.9,0,1.6-.5,2-1.5s.7-2.5.7-4.5-.2-3.5-.7-4.5c-.4-1-1.1-1.5-2-1.5s-1.6.5-2,1.5-.7,2.5-.7,4.5.2,3.5.7,4.5c.4,1,1.1,1.5,2,1.5ZM302.6,123.6c-1.4,0-2.5-.6-3.3-1.8-.8-1.2-1.2-2.9-1.2-5s.4-3.8,1.2-5c.8-1.2,1.9-1.8,3.3-1.8s2.5.6,3.3,1.8c.8,1.2,1.2,2.9,1.2,5s-.4,3.8-1.2,5c-.8,1.2-1.9,1.8-3.3,1.8Z"/>
              <path id="DejaVuSerif-2e-5" d="M310,122.4c0-.3.1-.6.3-.8s.5-.3.8-.3.6.1.8.3c.2.2.3.5.3.8s-.1.6-.3.8c-.2.2-.5.3-.8.3s-.6-.1-.8-.3c-.2-.2-.3-.5-.3-.8Z"/>
              <path id="DejaVuSerif-38" d="M322.4,119.7c0-.9-.2-1.7-.7-2.2s-1.1-.8-2-.8-1.5.3-2,.8-.7,1.2-.7,2.2.2,1.7.7,2.2,1.1.8,2,.8,1.5-.3,2-.8.7-1.3.7-2.2ZM322.1,113.4c0-.8-.2-1.4-.6-1.9-.4-.4-1-.7-1.7-.7s-1.3.2-1.7.7c-.4.4-.6,1.1-.6,1.9s.2,1.4.6,1.9c.4.4,1,.7,1.7.7s1.3-.2,1.7-.7c.4-.4.6-1.1.6-1.9ZM321.1,116.3c1,.1,1.8.5,2.3,1.1.6.6.8,1.4.8,2.3s-.4,2.2-1.2,2.8c-.8.7-1.9,1-3.3,1s-2.6-.3-3.3-1c-.8-.7-1.2-1.6-1.2-2.8s.3-1.7.8-2.3c.6-.6,1.3-1,2.3-1.1-.9-.2-1.6-.5-2-1-.5-.5-.7-1.2-.7-2s.4-1.9,1.1-2.5,1.7-.9,3-.9,2.3.3,3,.9,1.1,1.4,1.1,2.5-.2,1.5-.7,2-1.1.8-2,1h0Z"/>
            </g>
          </g>
          <g id="text_13">
            <g>
              <path id="DejaVuSerif-31" d="M299.4,56.8v-.9h2.3v-10.9l-2.6,1.7v-1.2l3.2-2.1h1.2v12.4h2.3v.9h-6.3l-.1.1Z"/>
              <path id="DejaVuSerif-2e-6" d="M310,55.9c0-.3.1-.6.3-.8s.5-.3.8-.3.6.1.8.3c.2.2.3.5.3.8s-.1.6-.3.8c-.2.2-.5.3-.8.3s-.6-.1-.8-.3c-.2-.2-.3-.5-.3-.8Z"/>
              <path id="DejaVuSerif-30-8" d="M319.7,56.2c.9,0,1.6-.5,2-1.5s.7-2.5.7-4.5-.2-3.5-.7-4.5c-.4-1-1.1-1.5-2-1.5s-1.6.5-2,1.5-.7,2.5-.7,4.5.2,3.5.7,4.5c.4,1,1.1,1.5,2,1.5ZM319.7,57.1c-1.4,0-2.5-.6-3.3-1.8s-1.2-2.9-1.2-5,.4-3.8,1.2-5c.8-1.2,1.9-1.8,3.3-1.8s2.5.6,3.3,1.8,1.2,2.9,1.2,5-.4,3.8-1.2,5c-.8,1.2-1.9,1.8-3.3,1.8Z"/>
            </g>
          </g>
          <g id="patch_4">
            <path d="M293.4,384.5V35" style="fill: none; stroke: #000; stroke-linecap: round; stroke-linejoin: round;"/>
            <path d="M289.8,42.2l3.6-7.2,3.6,7.2h-7.2Z" style="stroke: #000; stroke-linecap: round; stroke-linejoin: round;"/>
          </g>
        </g>
      </g>
    </g>
  </g>
</svg>