<?xml version="1.0" encoding="UTF-8"?>
<svg id="_layer_1" xmlns="http://www.w3.org/2000/svg" viewBox="0 0 658.6279 393.1754">
  <g>
    <polyline points="617.4517 327.4137 617.4517 333.4137 611.4517 333.4137" style="fill: none; stroke: #000; stroke-miterlimit: 10;"/>
    <line x1="605.3946" y1="333.4137" x2="99.6231" y2="333.4137" style="fill: none; stroke: #000; stroke-dasharray: 12.1143 6.0571; stroke-miterlimit: 10;"/>
    <polyline points="96.5946 333.4137 90.5946 333.4137 90.5946 327.4137" style="fill: none; stroke: #000; stroke-miterlimit: 10;"/>
    <line x1="90.5946" y1="321.683" x2="90.5946" y2="152.6282" style="fill: none; stroke: #000; stroke-dasharray: 11.4613 5.7307; stroke-miterlimit: 10;"/>
    <polyline points="90.5946 149.7629 90.5946 143.7629 96.5946 143.7629" style="fill: none; stroke: #000; stroke-miterlimit: 10;"/>
    <line x1="102.6517" y1="143.7629" x2="608.4231" y2="143.7629" style="fill: none; stroke: #000; stroke-dasharray: 12.1143 6.0571; stroke-miterlimit: 10;"/>
    <polyline points="611.4517 143.7629 617.4517 143.7629 617.4517 149.7629" style="fill: none; stroke: #000; stroke-miterlimit: 10;"/>
    <line x1="617.4517" y1="155.4935" x2="617.4517" y2="324.5483" style="fill: none; stroke: #000; stroke-dasharray: 11.4613 5.7307; stroke-miterlimit: 10;"/>
  </g>
  <circle cx="152.5174" cy="143.7629" r="15.7704" transform="translate(-13.8198 271.2826) rotate(-80.7825)" style="fill: none; stroke: #000; stroke-miterlimit: 10;"/>
  <circle cx="194.7831" cy="143.7629" r="15.7704" style="fill: none; stroke: #000; stroke-miterlimit: 10;"/>
  <circle cx="289.8612" cy="143.7629" r="15.7704" style="fill: none; stroke: #000; stroke-miterlimit: 10;"/>
  <circle cx="397.9302" cy="143.7629" r="15.7704" style="fill: none; stroke: #000; stroke-miterlimit: 10;"/>
  <circle cx="438.407" cy="143.7629" r="15.7704" style="fill: none; stroke: #000; stroke-miterlimit: 10;"/>
  <circle cx="478.8841" cy="143.7629" r="15.7704" style="fill: none; stroke: #000; stroke-miterlimit: 10;"/>
  <circle cx="519.361" cy="143.7629" r="15.7704" style="fill: none; stroke: #000; stroke-miterlimit: 10;"/>
  <polyline points="145.946 38.0486 161.3746 53.4772 145.565 69.2867 161.4698 85.1914" style="fill: none; stroke: #000; stroke-miterlimit: 10;"/>
  <polyline points="187.2117 38.0486 202.6403 53.4772 186.8308 69.2867 202.7355 85.1914" style="fill: none; stroke: #000; stroke-miterlimit: 10;"/>
  <polyline points="282.2898 38.0486 297.7184 53.4772 281.9088 69.2867 297.8136 85.1914" style="fill: none; stroke: #000; stroke-miterlimit: 10;"/>
  <polyline points="390.3588 38.0486 405.7874 53.4772 389.9778 69.2867 405.8826 85.1914" style="fill: none; stroke: #000; stroke-miterlimit: 10;"/>
  <polyline points="430.8357 38.0486 446.2643 53.4772 430.4548 69.2867 446.3595 85.1914" style="fill: none; stroke: #000; stroke-miterlimit: 10;"/>
  <polyline points="471.3126 38.0486 486.7411 53.4772 470.9316 69.2867 486.8364 85.1914" style="fill: none; stroke: #000; stroke-miterlimit: 10;"/>
  <polyline points="511.7895 38.0486 527.2181 53.4772 511.4086 69.2867 527.3134 85.1914" style="fill: none; stroke: #000; stroke-miterlimit: 10;"/>
  <polyline points="144.9733 187.8893 160.4019 203.3179 144.5924 219.1274 160.4971 235.0322" style="fill: none; stroke: #000; stroke-miterlimit: 10;"/>
  <polyline points="187.2391 187.8893 202.6676 203.3179 186.8581 219.1274 202.7629 235.0322" style="fill: none; stroke: #000; stroke-miterlimit: 10;"/>
  <polyline points="282.3171 187.8893 297.7457 203.3179 281.9362 219.1274 297.8409 235.0322" style="fill: none; stroke: #000; stroke-miterlimit: 10;"/>
  <polyline points="390.3861 187.8893 405.8147 203.3179 390.0052 219.1274 405.9099 235.0322" style="fill: none; stroke: #000; stroke-miterlimit: 10;"/>
  <polyline points="430.863 187.8893 446.2916 203.3179 430.4821 219.1274 446.3868 235.0322" style="fill: none; stroke: #000; stroke-miterlimit: 10;"/>
  <polyline points="471.34 187.8893 486.7685 203.3179 470.959 219.1274 486.8638 235.0322" style="fill: none; stroke: #000; stroke-miterlimit: 10;"/>
  <polyline points="511.8169 187.8893 527.2455 203.3179 511.4359 219.1274 527.3406 235.0322" style="fill: none; stroke: #000; stroke-miterlimit: 10;"/>
  <line x1="152.5448" y1="87.3819" x2="152.5448" y2="127.9925" style="fill: none; stroke: #000; stroke-miterlimit: 10;"/>
  <line x1="194.7831" y1="87.3819" x2="194.7831" y2="127.9925" style="fill: none; stroke: #000; stroke-miterlimit: 10;"/>
  <line x1="289.8612" y1="87.3819" x2="289.8612" y2="127.9925" style="fill: none; stroke: #000; stroke-miterlimit: 10;"/>
  <line x1="397.9576" y1="87.3819" x2="397.9576" y2="127.9925" style="fill: none; stroke: #000; stroke-miterlimit: 10;"/>
  <line x1="438.4344" y1="87.3819" x2="438.4344" y2="127.9925" style="fill: none; stroke: #000; stroke-miterlimit: 10;"/>
  <line x1="478.9114" y1="87.3819" x2="478.9114" y2="127.9925" style="fill: none; stroke: #000; stroke-miterlimit: 10;"/>
  <line x1="519.3882" y1="87.3819" x2="519.3882" y2="127.9925" style="fill: none; stroke: #000; stroke-miterlimit: 10;"/>
  <line x1="152.5448" y1="159.5333" x2="152.5448" y2="187.8893" style="fill: none; stroke: #000; stroke-miterlimit: 10;"/>
  <line x1="194.7831" y1="159.5333" x2="194.7831" y2="187.8893" style="fill: none; stroke: #000; stroke-miterlimit: 10;"/>
  <line x1="289.8612" y1="159.5333" x2="289.8612" y2="187.8893" style="fill: none; stroke: #000; stroke-miterlimit: 10;"/>
  <line x1="397.9302" y1="159.5333" x2="397.9302" y2="187.8893" style="fill: none; stroke: #000; stroke-miterlimit: 10;"/>
  <line x1="438.407" y1="159.5333" x2="438.407" y2="187.8893" style="fill: none; stroke: #000; stroke-miterlimit: 10;"/>
  <line x1="478.9114" y1="159.5333" x2="478.9114" y2="187.8893" style="fill: none; stroke: #000; stroke-miterlimit: 10;"/>
  <line x1="519.3882" y1="159.5333" x2="519.3882" y2="187.8893" style="fill: none; stroke: #000; stroke-miterlimit: 10;"/>
  <rect x="173.2612" y="367.3184" width="24" height="24" style="fill: none; stroke: #000; stroke-miterlimit: 10;"/>
  <rect x="240.2771" y="367.3184" width="24" height="24" style="fill: none; stroke: #000; stroke-miterlimit: 10;"/>
  <rect x="307.293" y="367.3184" width="24" height="24" style="fill: none; stroke: #000; stroke-miterlimit: 10;"/>
  <rect x="446.3868" y="367.3184" width="24" height="24" style="fill: none; stroke: #000; stroke-miterlimit: 10;"/>
  <rect x="130.3247" y="23.5724" width="86.8571" height="150.1389" style="fill: none; stroke: #000; stroke-miterlimit: 10;"/>
  <rect x="263.547" y="23.5724" width="52.8254" height="150.1389" style="fill: none; stroke: #000; stroke-miterlimit: 10;"/>
  <rect x="374.4518" y="23.5724" width="168.7142" height="150.1389" style="fill: none; stroke: #000; stroke-miterlimit: 10;"/>
  <polyline points="229.8882 187.8893 245.3168 203.3179 229.5073 219.1274 245.412 235.0322" style="fill: none; stroke: #000; stroke-miterlimit: 10;"/>
  <polyline points="152.5448 235.0322 237.4597 277.7391 237.4597 235.0322" style="fill: none; stroke: #000; stroke-miterlimit: 10;"/>
  <polyline points="289.9597 235.0322 237.4597 277.7391 195.0022 235.0322" style="fill: none; stroke: #000; stroke-miterlimit: 10;"/>
  <polyline points="438.407 235.0322 237.4597 277.7391 397.9302 235.0322" style="fill: none; stroke: #000; stroke-miterlimit: 10;"/>
  <polyline points="478.8841 235.0322 237.4597 277.7391 185.2612 367.3184" style="fill: none; stroke: #000; stroke-miterlimit: 10;"/>
  <polyline points="252.2771 367.3184 237.4597 277.7391 319.293 367.3184" style="fill: none; stroke: #000; stroke-miterlimit: 10;"/>
  <line x1="519.3882" y1="235.0322" x2="458.8088" y2="367.3184" style="fill: none; stroke: #000; stroke-miterlimit: 10;"/>
  <line x1="470.3868" y1="379.3184" x2="491.912" y2="379.3184" style="fill: none; stroke: #000; stroke-miterlimit: 10;"/>
  <g style="isolation: isolate;">
    <text transform="translate(494.6545 385.1076)" style="font-family: NotoSerifSC-Regular, &apos;Noto Serif SC&apos;; font-size: 18px; isolation: isolate;"><tspan x="0" y="0">C</tspan></text>
    <text transform="translate(507.0022 385.1076)" style="font-family: NotoSerifSC-Regular, &apos;Noto Serif SC&apos;; font-size: 18px; isolation: isolate; letter-spacing: -.019em;"><tspan x="0" y="0">P</tspan></text>
    <text transform="translate(517.9465 385.1076)" style="font-family: NotoSerifSC-Regular, &apos;Noto Serif SC&apos;; font-size: 18px; isolation: isolate;"><tspan x="0" y="0">U</tspan></text>
  </g>
  <g style="isolation: isolate;">
    <text transform="translate(366.6374 311.7007)" style="font-family: NotoSerifSC-Regular, &apos;Noto Serif SC&apos;; font-size: 18px; isolation: isolate;"><tspan x="0" y="0">内核</tspan></text>
  </g>
  <g style="isolation: isolate;">
    <text transform="translate(-.0002 210.4195)" style="font-family: NotoSerifSC-Regular, &apos;Noto Serif SC&apos;; font-size: 18px; isolation: isolate;"><tspan x="0" y="0">内核线程</tspan></text>
  </g>
  <line x1="144.5924" y1="204.0248" x2="78.6104" y2="204.0248" style="fill: none; stroke: #000; stroke-miterlimit: 10;"/>
  <line x1="535.1313" y1="53.3581" x2="562.7374" y2="53.3581" style="fill: none; stroke: #000; stroke-miterlimit: 10;"/>
  <g style="isolation: isolate;">
    <text transform="translate(568.6277 58.6329)" style="font-family: NotoSerifSC-Regular, &apos;Noto Serif SC&apos;; font-size: 18px; isolation: isolate;"><tspan x="0" y="0">用户级线程</tspan></text>
  </g>
  <g style="isolation: isolate;">
    <text transform="translate(586.628 106.5262)" style="font-family: NotoSerifSC-Regular, &apos;Noto Serif SC&apos;; font-size: 18px; isolation: isolate;"><tspan x="0" y="0">轻型线程</tspan></text>
  </g>
  <line x1="532.9684" y1="135.7943" x2="584.9597" y2="99.6864" style="fill: none; stroke: #000; stroke-miterlimit: 10;"/>
  <g style="isolation: isolate;">
    <text transform="translate(150.9471 15.8397)" style="font-family: NotoSerifSC-Regular, &apos;Noto Serif SC&apos;; font-size: 18px; isolation: isolate;"><tspan x="0" y="0">任务1</tspan></text>
  </g>
  <g style="isolation: isolate;">
    <text transform="translate(267.1533 15.8396)" style="font-family: NotoSerifSC-Regular, &apos;Noto Serif SC&apos;; font-size: 18px; isolation: isolate;"><tspan x="0" y="0">任务2</tspan></text>
  </g>
  <g style="isolation: isolate;">
    <text transform="translate(436.0026 15.8399)" style="font-family: NotoSerifSC-Regular, &apos;Noto Serif SC&apos;; font-size: 18px; isolation: isolate;"><tspan x="0" y="0">任务3</tspan></text>
  </g>
</svg>