<?xml version="1.0" encoding="UTF-8"?>
<svg id="_layer_1" xmlns="http://www.w3.org/2000/svg" viewBox="0 0 580.2377 280.5">
  <g>
    <g style="isolation: isolate;">
      <text transform="translate(39.4842 24.6402)" style="font-family: NotoSerifSC-Regular, &apos;Noto Serif SC&apos;; font-size: 18px; isolation: isolate;"><tspan x="0" y="0">执行指针</tspan></text>
    </g>
    <rect x=".5" y=".5" width="149.9683" height="35.0476" style="fill: none; stroke: #000; stroke-miterlimit: 10;"/>
  </g>
  <g>
    <g style="isolation: isolate;">
      <text transform="translate(30.4842 119.6889)" style="font-family: NotoSerifSC-Regular, &apos;Noto Serif SC&apos;; font-size: 18px; isolation: isolate;"><tspan x="0" y="0">就绪表指针</tspan></text>
    </g>
    <rect x=".5" y="94.6202" width="149.9683" height="35.0476" style="fill: none; stroke: #000; stroke-miterlimit: 10;"/>
  </g>
  <g>
    <g style="isolation: isolate;">
      <text transform="translate(30.4842 207.3591)" style="font-family: NotoSerifSC-Regular, &apos;Noto Serif SC&apos;; font-size: 18px; isolation: isolate;"><tspan x="0" y="0">阻塞表指针</tspan></text>
    </g>
    <rect x=".5" y="183.1464" width="149.9683" height="35.0476" style="fill: none; stroke: #000; stroke-miterlimit: 10;"/>
  </g>
  <g>
    <line x1="137.3091" y1="17.3654" x2="498.768" y2="17.3654" style="fill: none; stroke: #000; stroke-miterlimit: 10;"/>
    <polygon points="495.9594 21.0686 497.5326 17.3654 495.9594 13.6623 504.7377 17.3654 495.9594 21.0686"/>
  </g>
  <g style="isolation: isolate;">
    <text transform="translate(520.1653 24.6736)" style="font-family: NotoSerifSC-Regular, &apos;Noto Serif SC&apos;; font-size: 18px; isolation: isolate;"><tspan x="0" y="0" style="letter-spacing: .001em;">P</tspan><tspan x="11.5557" y="0">CB1</tspan></text>
  </g>
  <g>
    <polyline points="504.7377 280.5 504.7377 .5 579.7377 .5 579.7377 280.5" style="fill: none; stroke: #000; stroke-miterlimit: 10;"/>
    <line x1="504.7377" y1="245.5" x2="579.7377" y2="245.5" style="fill: none; stroke: #000; stroke-miterlimit: 10;"/>
    <line x1="504.7377" y1="210.5" x2="579.7377" y2="210.5" style="fill: none; stroke: #000; stroke-miterlimit: 10;"/>
    <line x1="504.7377" y1="175.5" x2="579.7377" y2="175.5" style="fill: none; stroke: #000; stroke-miterlimit: 10;"/>
    <line x1="504.7377" y1="140.5" x2="579.7377" y2="140.5" style="fill: none; stroke: #000; stroke-miterlimit: 10;"/>
    <line x1="504.7377" y1="105.5" x2="579.7377" y2="105.5" style="fill: none; stroke: #000; stroke-miterlimit: 10;"/>
    <line x1="504.7377" y1="70.5" x2="579.7377" y2="70.5" style="fill: none; stroke: #000; stroke-miterlimit: 10;"/>
    <line x1="504.7377" y1="35.5" x2="579.7377" y2="35.5" style="fill: none; stroke: #000; stroke-miterlimit: 10;"/>
  </g>
  <g style="isolation: isolate;">
    <text transform="translate(520.1651 59.7412)" style="font-family: NotoSerifSC-Regular, &apos;Noto Serif SC&apos;; font-size: 18px; isolation: isolate;"><tspan x="0" y="0" style="letter-spacing: .001em;">P</tspan><tspan x="11.5557" y="0">CB2</tspan></text>
  </g>
  <g style="isolation: isolate;">
    <text transform="translate(520.1651 94.8085)" style="font-family: NotoSerifSC-Regular, &apos;Noto Serif SC&apos;; font-size: 18px; isolation: isolate;"><tspan x="0" y="0" style="letter-spacing: .001em;">P</tspan><tspan x="11.5557" y="0">CB3</tspan></text>
  </g>
  <g style="isolation: isolate;">
    <text transform="translate(520.1652 164.9436)" style="font-family: NotoSerifSC-Regular, &apos;Noto Serif SC&apos;; font-size: 18px; isolation: isolate;"><tspan x="0" y="0" style="letter-spacing: .001em;">P</tspan><tspan x="11.5557" y="0">CB5</tspan></text>
  </g>
  <g style="isolation: isolate;">
    <text transform="translate(520.1648 200.0107)" style="font-family: NotoSerifSC-Regular, &apos;Noto Serif SC&apos;; font-size: 18px; isolation: isolate;"><tspan x="0" y="0" style="letter-spacing: .001em;">P</tspan><tspan x="11.5557" y="0">CB6</tspan></text>
  </g>
  <g style="isolation: isolate;">
    <text transform="translate(520.1649 235.0782)" style="font-family: NotoSerifSC-Regular, &apos;Noto Serif SC&apos;; font-size: 18px; isolation: isolate;"><tspan x="0" y="0" style="letter-spacing: .001em;">P</tspan><tspan x="11.5557" y="0">CB7</tspan></text>
  </g>
  <g style="isolation: isolate;">
    <text transform="translate(520.1649 129.8759)" style="font-family: NotoSerifSC-Regular, &apos;Noto Serif SC&apos;; font-size: 18px; isolation: isolate;"><tspan x="0" y="0" style="letter-spacing: .001em;">P</tspan><tspan x="11.5557" y="0">CB4</tspan></text>
  </g>
  <g style="isolation: isolate;">
    <text transform="translate(533.9712 270.2462)" style="font-family: NotoSerifSC-Regular, &apos;Noto Serif SC&apos;; font-size: 18px; isolation: isolate;"><tspan x="0" y="0">···</tspan></text>
  </g>
  <circle cx="137.3091" cy="17.3654" r="3.1905"/>
  <circle cx="137.3091" cy="112.144" r="3.1905"/>
  <circle cx="137.3091" cy="201.8555" r="3.1905"/>
  <g>
    <g>
      <rect x="260.6135" y="65.5732" width="125.5818" height="62.7909" style="fill: none; stroke: #000; stroke-miterlimit: 10;"/>
      <line x1="260.6135" y1="112.6664" x2="386.1953" y2="112.6664" style="fill: none; stroke: #000; stroke-miterlimit: 10;"/>
      <line x1="260.6135" y1="96.9687" x2="386.1953" y2="96.9687" style="fill: none; stroke: #000; stroke-miterlimit: 10;"/>
      <line x1="260.6135" y1="81.2709" x2="386.1953" y2="81.2709" style="fill: none; stroke: #000; stroke-miterlimit: 10;"/>
    </g>
    <circle cx="378.9123" cy="73.0619" r="3.1905"/>
    <circle cx="378.9123" cy="89.4746" r="3.1905"/>
    <circle cx="378.9123" cy="105.8873" r="3.1905"/>
  </g>
  <g>
    <g>
      <rect x="260.6135" y="173.6506" width="125.5818" height="62.7909" style="fill: none; stroke: #000; stroke-miterlimit: 10;"/>
      <line x1="260.6135" y1="220.7437" x2="386.1953" y2="220.7437" style="fill: none; stroke: #000; stroke-miterlimit: 10;"/>
      <line x1="260.6135" y1="205.046" x2="386.1953" y2="205.046" style="fill: none; stroke: #000; stroke-miterlimit: 10;"/>
      <line x1="260.6135" y1="189.3483" x2="386.1953" y2="189.3483" style="fill: none; stroke: #000; stroke-miterlimit: 10;"/>
    </g>
    <circle cx="378.9123" cy="181.1392" r="3.1905"/>
    <circle cx="378.9123" cy="197.5519" r="3.1905"/>
    <circle cx="378.9123" cy="213.9646" r="3.1905"/>
  </g>
  <g style="isolation: isolate;">
    <text transform="translate(278.4045 60.2502)" style="font-family: NotoSerifSC-Regular, &apos;Noto Serif SC&apos;; font-size: 18px; isolation: isolate;"><tspan x="0" y="0">就绪索引表</tspan></text>
  </g>
  <g style="isolation: isolate;">
    <text transform="translate(278.4046 168.3658)" style="font-family: NotoSerifSC-Regular, &apos;Noto Serif SC&apos;; font-size: 18px; isolation: isolate;"><tspan x="0" y="0">阻塞索引表</tspan></text>
  </g>
  <g>
    <line x1="137.3091" y1="112.144" x2="254.9228" y2="74.8656" style="fill: none; stroke: #000; stroke-miterlimit: 10;"/>
    <polygon points="253.3643 79.2443 253.7451 75.2389 251.1266 72.1841 260.6135 73.0619 253.3643 79.2443"/>
  </g>
  <g>
    <line x1="378.9123" y1="73.0619" x2="498.8181" y2="88.7024" style="fill: none; stroke: #000; stroke-miterlimit: 10;"/>
    <polygon points="495.5541 92.0112 497.5931 88.5426 496.5121 84.6671 504.7377 89.4746 495.5541 92.0112"/>
  </g>
  <g>
    <line x1="378.9123" y1="89.4746" x2="498.9697" y2="121.4975" style="fill: none; stroke: #000; stroke-miterlimit: 10;"/>
    <polygon points="495.3016 124.3517 497.7761 121.1791 497.2103 117.1957 504.7377 123.036 495.3016 124.3517"/>
  </g>
  <g>
    <line x1="378.9123" y1="105.8873" x2="499.228" y2="55.7083" style="fill: none; stroke: #000; stroke-miterlimit: 10;"/>
    <polygon points="498.0612 60.2072 498.0878 56.1838 495.2104 53.3716 504.7377 53.4104 498.0612 60.2072"/>
  </g>
  <g>
    <line x1="137.3091" y1="201.8555" x2="254.7263" y2="182.1284" style="fill: none; stroke: #000; stroke-miterlimit: 10;"/>
    <polygon points="252.5701 186.2456 253.508 182.333 251.3429 178.9418 260.6135 181.1392 252.5701 186.2456"/>
  </g>
  <g>
    <line x1="378.9123" y1="181.1392" x2="499.1468" y2="226.1456" style="fill: none; stroke: #000; stroke-miterlimit: 10;"/>
    <polygon points="495.2183 228.6291 497.9899 225.7125 497.8147 221.6929 504.7377 228.2384 495.2183 228.6291"/>
  </g>
  <g>
    <line x1="378.9123" y1="197.5519" x2="499.0414" y2="159.8896" style="fill: none; stroke: #000; stroke-miterlimit: 10;"/>
    <polygon points="497.4692 164.2634 497.8626 160.2592 495.2536 157.1963 504.7377 158.1037 497.4692 164.2634"/>
  </g>
  <g>
    <line x1="378.9123" y1="213.9646" x2="498.8479" y2="194.1442" style="fill: none; stroke: #000; stroke-miterlimit: 10;"/>
    <polygon points="496.6807 198.2557 497.6291 194.3456 495.4731 190.9485 504.7377 193.1708 496.6807 198.2557"/>
  </g>
</svg>