<?xml version="1.0" encoding="UTF-8"?>
<svg id="_layer_1" xmlns="http://www.w3.org/2000/svg" viewBox="0 0 450.5 334.2602">
  <g style="isolation: isolate;">
    <g style="isolation: isolate;">
      <g style="isolation: isolate;">
        <g style="isolation: isolate;">
          <text transform="translate(136.4 188.8)" style="font-family: NotoSerifSC-Regular, &apos;Noto Serif SC&apos;; font-size: 18px; isolation: isolate;"><tspan x="0" y="0">活动</tspan></text>
        </g>
      </g>
      <g style="isolation: isolate;">
        <g style="isolation: isolate;">
          <text transform="translate(136.4 210.4)" style="font-family: NotoSerifSC-Regular, &apos;Noto Serif SC&apos;; font-size: 18px; isolation: isolate;"><tspan x="0" y="0">就绪</tspan></text>
        </g>
      </g>
    </g>
  </g>
  <circle cx="154.4" cy="192" r="29" style="fill: none; stroke: #000; stroke-miterlimit: 10;"/>
  <g style="isolation: isolate;">
    <g style="isolation: isolate;">
      <g style="isolation: isolate;">
        <text transform="translate(323.6 188.4)" style="font-family: NotoSerifSC-Regular, &apos;Noto Serif SC&apos;; font-size: 18px; isolation: isolate;"><tspan x="0" y="0">静止</tspan></text>
      </g>
    </g>
    <g style="isolation: isolate;">
      <g style="isolation: isolate;">
        <text transform="translate(323.6 210)" style="font-family: NotoSerifSC-Regular, &apos;Noto Serif SC&apos;; font-size: 18px; isolation: isolate;"><tspan x="0" y="0">就绪</tspan></text>
      </g>
    </g>
  </g>
  <circle cx="341.6" cy="192" r="29" style="fill: none; stroke: #000; stroke-miterlimit: 10;"/>
  <g>
    <g style="isolation: isolate;">
      <g style="isolation: isolate;">
        <g style="isolation: isolate;">
          <g style="isolation: isolate;">
            <g style="isolation: isolate;">
              <text transform="translate(230 37.2)" style="font-family: NotoSerifSC-Regular, &apos;Noto Serif SC&apos;; font-size: 18px; isolation: isolate;"><tspan x="0" y="0">执行</tspan></text>
            </g>
          </g>
        </g>
      </g>
    </g>
    <circle cx="248" cy="29.5" r="29" style="fill: none; stroke: #000; stroke-miterlimit: 10;"/>
  </g>
  <g style="isolation: isolate;">
    <g style="isolation: isolate;">
      <g style="isolation: isolate;">
        <text transform="translate(167.8 127.1003) rotate(-60)" style="font-family: NotoSerifSC-Regular, &apos;Noto Serif SC&apos;; font-size: 18px; isolation: isolate;"><tspan x="0" y="0">时间片完</tspan></text>
      </g>
    </g>
  </g>
  <g style="isolation: isolate;">
    <g style="isolation: isolate;">
      <g style="isolation: isolate;">
        <text transform="translate(301.6993 81.7998) rotate(60.2)" style="font-family: NotoSerifSC-Regular, &apos;Noto Serif SC&apos;; font-size: 18px; isolation: isolate;"><tspan x="0" y="0">挂起</tspan></text>
      </g>
    </g>
  </g>
  <g style="isolation: isolate;">
    <g style="isolation: isolate;">
      <g style="isolation: isolate;">
        <text transform="translate(229.9 223.2)" style="font-family: NotoSerifSC-Regular, &apos;Noto Serif SC&apos;; font-size: 18px; isolation: isolate;"><tspan x="0" y="0">挂起</tspan></text>
      </g>
    </g>
  </g>
  <g>
    <line x1="176.4" y1="173.1" x2="240.3" y2="63" style="fill: none; stroke: #000; stroke-miterlimit: 10;"/>
    <polygon points="242.1 67.3 239.7 64.1 235.7 63.6 243.3 57.8 242.1 67.3"/>
  </g>
  <g>
    <line x1="161.9" y1="157.9" x2="225.8" y2="47.7" style="fill: none; stroke: #000; stroke-miterlimit: 10;"/>
    <polygon points="166.5 157.3 162.5 156.8 160.1 153.6 158.9 163 166.5 157.3"/>
  </g>
  <g>
    <line x1="334.5" y1="157.9" x2="270.6" y2="47.7" style="fill: none; stroke: #000; stroke-miterlimit: 10;"/>
    <polygon points="336.3 153.6 333.9 156.8 329.9 157.3 337.5 163 336.3 153.6"/>
  </g>
  <g style="isolation: isolate;">
    <g style="isolation: isolate;">
      <g style="isolation: isolate;">
        <text transform="translate(223 138.6999) rotate(-60)" style="font-family: NotoSerifSC-Regular, &apos;Noto Serif SC&apos;; font-size: 18px; isolation: isolate;"><tspan x="0" y="0">调度</tspan></text>
      </g>
    </g>
  </g>
  <g>
    <line x1="181.3" y1="201.6" x2="308.6" y2="202.5" style="fill: none; stroke: #000; stroke-miterlimit: 10;"/>
    <polygon points="305.8 206.2 307.4 202.5 305.8 198.8 314.6 202.5 305.8 206.2"/>
  </g>
  <g>
    <line x1="187.3" y1="181.5" x2="314.7" y2="182.3" style="fill: none; stroke: #000; stroke-miterlimit: 10;"/>
    <polygon points="190.1 185.2 188.6 181.5 190.2 177.8 181.4 181.4 190.1 185.2"/>
  </g>
  <g style="isolation: isolate;">
    <g style="isolation: isolate;">
      <g style="isolation: isolate;">
        <text transform="translate(230 173.8)" style="font-family: NotoSerifSC-Regular, &apos;Noto Serif SC&apos;; font-size: 18px; isolation: isolate;"><tspan x="0" y="0">激活</tspan></text>
      </g>
    </g>
  </g>
  <g>
    <g style="isolation: isolate;">
      <g style="isolation: isolate;">
        <g style="isolation: isolate;">
          <text transform="translate(74.7 297.9)" style="font-family: NotoSerifSC-Regular, &apos;Noto Serif SC&apos;; font-size: 18px; isolation: isolate;"><tspan x="0" y="0">活动</tspan></text>
        </g>
      </g>
      <g style="isolation: isolate;">
        <g style="isolation: isolate;">
          <text transform="translate(74.7 319.5)" style="font-family: NotoSerifSC-Regular, &apos;Noto Serif SC&apos;; font-size: 18px; isolation: isolate;"><tspan x="0" y="0">阻塞</tspan></text>
        </g>
      </g>
    </g>
    <circle cx="92.7" cy="301.1" r="29" style="fill: none; stroke: #000; stroke-miterlimit: 10;"/>
  </g>
  <g>
    <line x1="95.7" y1="272.2" x2="129.1" y2="214.5" style="fill: none; stroke: #000; stroke-miterlimit: 10;"/>
    <polygon points="130.9 218.8 128.5 215.6 124.5 215.1 132.1 209.4 130.9 218.8"/>
  </g>
  <g style="isolation: isolate;">
    <g style="isolation: isolate;">
      <g style="isolation: isolate;">
        <text transform="translate(95.7001 254.6003) rotate(-60)" style="font-family: NotoSerifSC-Regular, &apos;Noto Serif SC&apos;; font-size: 18px; isolation: isolate;"><tspan x="0" y="0">释放</tspan></text>
      </g>
    </g>
  </g>
  <g>
    <g style="isolation: isolate;">
      <g style="isolation: isolate;">
        <g style="isolation: isolate;">
          <text transform="translate(266.2 297.9)" style="font-family: NotoSerifSC-Regular, &apos;Noto Serif SC&apos;; font-size: 18px; isolation: isolate;"><tspan x="0" y="0">静止</tspan></text>
        </g>
      </g>
      <g style="isolation: isolate;">
        <g style="isolation: isolate;">
          <text transform="translate(266.2 319.5)" style="font-family: NotoSerifSC-Regular, &apos;Noto Serif SC&apos;; font-size: 18px; isolation: isolate;"><tspan x="0" y="0">阻塞</tspan></text>
        </g>
      </g>
    </g>
    <circle cx="284.2" cy="301.1" r="29" style="fill: none; stroke: #000; stroke-miterlimit: 10;"/>
  </g>
  <g>
    <line x1="306.1" y1="282.9" x2="339.6" y2="225.3" style="fill: none; stroke: #000; stroke-miterlimit: 10;"/>
    <polygon points="341.4 229.6 339 226.4 335 225.9 342.6 220.1 341.4 229.6"/>
  </g>
  <g style="isolation: isolate;">
    <g style="isolation: isolate;">
      <g style="isolation: isolate;">
        <text transform="translate(335.5 278.6003) rotate(-60)" style="font-family: NotoSerifSC-Regular, &apos;Noto Serif SC&apos;; font-size: 18px; isolation: isolate;"><tspan x="0" y="0">释放</tspan></text>
      </g>
    </g>
  </g>
  <g style="isolation: isolate;">
    <g style="isolation: isolate;">
      <g style="isolation: isolate;">
        <text transform="translate(170.4 332.1)" style="font-family: NotoSerifSC-Regular, &apos;Noto Serif SC&apos;; font-size: 18px; isolation: isolate;"><tspan x="0" y="0">挂起</tspan></text>
      </g>
    </g>
  </g>
  <g>
    <line x1="119.8" y1="310.5" x2="251.1" y2="311.4" style="fill: none; stroke: #000; stroke-miterlimit: 10;"/>
    <polygon points="248.3 315.1 249.9 311.4 248.3 307.7 257.1 311.4 248.3 315.1"/>
  </g>
  <g>
    <line x1="125.8" y1="290.3" x2="256.6" y2="291.2" style="fill: none; stroke: #000; stroke-miterlimit: 10;"/>
    <polygon points="128.6 294.1 127 290.3 128.6 286.6 119.8 290.3 128.6 294.1"/>
  </g>
  <g style="isolation: isolate;">
    <g style="isolation: isolate;">
      <g style="isolation: isolate;">
        <text transform="translate(170.5 282.7)" style="font-family: NotoSerifSC-Regular, &apos;Noto Serif SC&apos;; font-size: 18px; isolation: isolate;"><tspan x="0" y="0">激活</tspan></text>
      </g>
    </g>
  </g>
  <g>
    <path d="M230.5,6.6c-6.5-.7-98.3-8.9-154.3,61-45.3,56.6-48,140.5-4.9,206.5" style="fill: none; stroke: #000; stroke-miterlimit: 10;"/>
    <polygon points="66.7 273.7 70.6 273 72.8 269.6 74.6 279 66.7 273.7"/>
  </g>
  <g style="isolation: isolate;">
    <g style="isolation: isolate;">
      <g style="isolation: isolate;">
        <text transform="translate(29.5012 155.3005) rotate(-75.8) skewX(-1)" style="font-family: NotoSerifSC-Regular, &apos;Noto Serif SC&apos;; font-size: 18.7085px; isolation: isolate;"><tspan x="0" y="0">请求I/O</tspan></text>
      </g>
    </g>
  </g>
  <g>
    <line x1="276.9" y1="29.8" x2="386.1" y2="29.8" style="fill: none; stroke: #000; stroke-miterlimit: 10;"/>
    <polygon points="383.3 33.5 384.8 29.8 383.3 26.1 392 29.8 383.3 33.5"/>
  </g>
  <g style="isolation: isolate;">
    <g style="isolation: isolate;">
      <g style="isolation: isolate;">
        <text transform="translate(308.6 21.7)" style="font-family: NotoSerifSC-Regular, &apos;Noto Serif SC&apos;; font-size: 18px; isolation: isolate;"><tspan x="0" y="0">释放</tspan></text>
      </g>
    </g>
  </g>
  <g>
    <g style="isolation: isolate;">
      <g style="isolation: isolate;">
        <g style="isolation: isolate;">
          <g style="isolation: isolate;">
            <g style="isolation: isolate;">
              <text transform="translate(403 37.2)" style="font-family: NotoSerifSC-Regular, &apos;Noto Serif SC&apos;; font-size: 18px; isolation: isolate;"><tspan x="0" y="0">终止</tspan></text>
            </g>
          </g>
        </g>
      </g>
    </g>
    <circle cx="421" cy="29.5" r="29" style="fill: none; stroke: #000; stroke-miterlimit: 10;"/>
  </g>
  <g>
    <g style="isolation: isolate;">
      <g style="isolation: isolate;">
        <g style="isolation: isolate;">
          <g style="isolation: isolate;">
            <g style="isolation: isolate;">
              <text transform="translate(11.5 37.2)" style="font-family: NotoSerifSC-Regular, &apos;Noto Serif SC&apos;; font-size: 18px; isolation: isolate;"><tspan x="0" y="0">创建</tspan></text>
            </g>
          </g>
        </g>
      </g>
    </g>
    <circle cx="29.5" cy="29.5" r="29" style="fill: none; stroke: #000; stroke-miterlimit: 10;"/>
  </g>
  <g>
    <line x1="57.7" y1="35.7" x2="63.1" y2="38.4" style="fill: none; stroke: #000; stroke-miterlimit: 10;"/>
    <line x1="66.7" y1="40.2" x2="311.1" y2="163" style="fill: none; stroke: #000; stroke-dasharray: 12.2 4.1; stroke-miterlimit: 10;"/>
    <line x1="312.9" y1="163.9" x2="318.3" y2="166.6" style="fill: none; stroke: #000; stroke-miterlimit: 10;"/>
    <polygon points="314.1 168.7 317.2 166.1 317.4 162.1 323.6 169.3 314.1 168.7"/>
  </g>
  <g>
    <line x1="48.4" y1="51.4" x2="130" y2="167" style="fill: none; stroke: #000; stroke-dasharray: 12 4; stroke-miterlimit: 10;"/>
    <polygon points="125.4 166.9 129.3 166 131.4 162.6 133.5 171.9 125.4 166.9"/>
  </g>
  <g style="isolation: isolate;">
    <g style="isolation: isolate;">
      <text transform="translate(119.7997 58.5) rotate(27.2873)" style="font-family: NotoSerifSC-Regular, &apos;Noto Serif SC&apos;; font-size: 18px; isolation: isolate;"><tspan x="0" y="0">许可</tspan></text>
    </g>
  </g>
  <g style="isolation: isolate;">
    <g style="isolation: isolate;">
      <text transform="translate(86.4696 92.9431) rotate(54.0219)" style="font-family: NotoSerifSC-Regular, &apos;Noto Serif SC&apos;; font-size: 18px; isolation: isolate;"><tspan x="0" y="0">许可</tspan></text>
    </g>
  </g>
</svg>