<?xml version="1.0" encoding="UTF-8"?>
<svg id="_layer_1" xmlns="http://www.w3.org/2000/svg" viewBox="0 0 359.378 333.8614">
  <g style="isolation: isolate;">
    <g style="isolation: isolate;">
      <g style="isolation: isolate;">
        <g style="isolation: isolate;">
          <text transform="translate(103.6928 188.4193)" style="font-family: NotoSerifSC-Regular, &apos;Noto Serif SC&apos;; font-size: 18px; isolation: isolate;"><tspan x="0" y="0">活动</tspan></text>
        </g>
      </g>
      <g style="isolation: isolate;">
        <g style="isolation: isolate;">
          <text transform="translate(103.6928 210.0199)" style="font-family: NotoSerifSC-Regular, &apos;Noto Serif SC&apos;; font-size: 18px; isolation: isolate;"><tspan x="0" y="0">就绪</tspan></text>
        </g>
      </g>
    </g>
  </g>
  <circle cx="121.6928" cy="191.605" r="28.9524" style="fill: none; stroke: #000; stroke-miterlimit: 10;"/>
  <g style="isolation: isolate;">
    <g style="isolation: isolate;">
      <g style="isolation: isolate;">
        <text transform="translate(290.9307 188.023)" style="font-family: NotoSerifSC-Regular, &apos;Noto Serif SC&apos;; font-size: 18px; isolation: isolate;"><tspan x="0" y="0">静止</tspan></text>
      </g>
    </g>
    <g style="isolation: isolate;">
      <g style="isolation: isolate;">
        <text transform="translate(290.9307 209.6236)" style="font-family: NotoSerifSC-Regular, &apos;Noto Serif SC&apos;; font-size: 18px; isolation: isolate;"><tspan x="0" y="0">就绪</tspan></text>
      </g>
    </g>
  </g>
  <circle cx="308.9305" cy="191.605" r="28.9524" style="fill: none; stroke: #000; stroke-miterlimit: 10;"/>
  <g style="isolation: isolate;">
    <g style="isolation: isolate;">
      <g style="isolation: isolate;">
        <g style="isolation: isolate;">
          <g style="isolation: isolate;">
            <text transform="translate(197.3118 37.1738)" style="font-family: NotoSerifSC-Regular, &apos;Noto Serif SC&apos;; font-size: 18px; isolation: isolate;"><tspan x="0" y="0">执行</tspan></text>
          </g>
        </g>
      </g>
    </g>
  </g>
  <circle cx="215.3117" cy="29.4524" r="28.9524" style="fill: none; stroke: #000; stroke-miterlimit: 10;"/>
  <g style="isolation: isolate;">
    <g style="isolation: isolate;">
      <g style="isolation: isolate;">
        <text transform="translate(135.0983 126.7665) rotate(-60)" style="font-family: NotoSerifSC-Regular, &apos;Noto Serif SC&apos;; font-size: 18px; isolation: isolate;"><tspan x="0" y="0">时间片完</tspan></text>
      </g>
    </g>
  </g>
  <g style="isolation: isolate;">
    <g style="isolation: isolate;">
      <g style="isolation: isolate;">
        <text transform="translate(269.051 81.4014) rotate(60.2468)" style="font-family: NotoSerifSC-Regular, &apos;Noto Serif SC&apos;; font-size: 18px; isolation: isolate;"><tspan x="0" y="0">挂起</tspan></text>
      </g>
    </g>
  </g>
  <g style="isolation: isolate;">
    <g style="isolation: isolate;">
      <g style="isolation: isolate;">
        <text transform="translate(197.2685 222.828)" style="font-family: NotoSerifSC-Regular, &apos;Noto Serif SC&apos;; font-size: 18px; isolation: isolate;"><tspan x="0" y="0">挂起</tspan></text>
      </g>
    </g>
  </g>
  <g>
    <line x1="143.7202" y1="172.7639" x2="207.6508" y2="62.6349" style="fill: none; stroke: #000; stroke-miterlimit: 10;"/>
    <polygon points="209.4434 66.9231 207.0306 63.7033 203.0381 63.2048 210.6479 57.4721 209.4434 66.9231"/>
  </g>
  <g>
    <line x1="129.2028" y1="157.4898" x2="193.1334" y2="47.3608" style="fill: none; stroke: #000; stroke-miterlimit: 10;"/>
    <polygon points="133.8155 156.9199 129.823 156.4214 127.4103 153.2016 126.2058 162.6526 133.8155 156.9199"/>
  </g>
  <g>
    <line x1="301.8835" y1="157.4898" x2="237.953" y2="47.3608" style="fill: none; stroke: #000; stroke-miterlimit: 10;"/>
    <polygon points="303.6761 153.2016 301.2632 156.4214 297.2709 156.9199 304.8806 162.6526 303.6761 153.2016"/>
  </g>
  <g style="isolation: isolate;">
    <g style="isolation: isolate;">
      <g style="isolation: isolate;">
        <text transform="translate(190.3591 138.3114) rotate(-60)" style="font-family: NotoSerifSC-Regular, &apos;Noto Serif SC&apos;; font-size: 18px; isolation: isolate;"><tspan x="0" y="0">调度</tspan></text>
      </g>
    </g>
  </g>
  <g>
    <line x1="148.6151" y1="201.272" x2="275.9524" y2="202.1216" style="fill: none; stroke: #000; stroke-miterlimit: 10;"/>
    <polygon points="273.1191 205.8059 274.717 202.1134 273.1686 198.3998 281.922 202.1614 273.1191 205.8059"/>
  </g>
  <g>
    <line x1="154.6711" y1="181.0884" x2="282.0085" y2="181.938" style="fill: none; stroke: #000; stroke-miterlimit: 10;"/>
    <polygon points="157.455 184.8102 155.9065 181.0967 157.5044 177.4041 148.7015 181.0486 157.455 184.8102"/>
  </g>
  <g style="isolation: isolate;">
    <g style="isolation: isolate;">
      <g style="isolation: isolate;">
        <text transform="translate(197.3553 173.4434)" style="font-family: NotoSerifSC-Regular, &apos;Noto Serif SC&apos;; font-size: 18px; isolation: isolate;"><tspan x="0" y="0">激活</tspan></text>
      </g>
    </g>
  </g>
  <g>
    <g style="isolation: isolate;">
      <g style="isolation: isolate;">
        <g style="isolation: isolate;">
          <text transform="translate(42.0689 297.5435)" style="font-family: NotoSerifSC-Regular, &apos;Noto Serif SC&apos;; font-size: 18px; isolation: isolate;"><tspan x="0" y="0">活动</tspan></text>
        </g>
      </g>
      <g style="isolation: isolate;">
        <g style="isolation: isolate;">
          <text transform="translate(42.0689 319.1441)" style="font-family: NotoSerifSC-Regular, &apos;Noto Serif SC&apos;; font-size: 18px; isolation: isolate;"><tspan x="0" y="0">阻塞</tspan></text>
        </g>
      </g>
    </g>
    <circle cx="60.0689" cy="300.7292" r="28.9524" style="fill: none; stroke: #000; stroke-miterlimit: 10;"/>
  </g>
  <g>
    <line x1="62.9971" y1="271.7943" x2="96.4621" y2="214.1463" style="fill: none; stroke: #000; stroke-miterlimit: 10;"/>
    <polygon points="98.2547 218.4345 95.8419 215.2147 91.8494 214.7162 99.4592 208.9835 98.2547 218.4345"/>
  </g>
  <g style="isolation: isolate;">
    <g style="isolation: isolate;">
      <g style="isolation: isolate;">
        <text transform="translate(62.9973 254.247) rotate(-60)" style="font-family: NotoSerifSC-Regular, &apos;Noto Serif SC&apos;; font-size: 18px; isolation: isolate;"><tspan x="0" y="0">释放</tspan></text>
      </g>
    </g>
  </g>
  <g>
    <g style="isolation: isolate;">
      <g style="isolation: isolate;">
        <g style="isolation: isolate;">
          <text transform="translate(233.5404 297.5435)" style="font-family: NotoSerifSC-Regular, &apos;Noto Serif SC&apos;; font-size: 18px; isolation: isolate;"><tspan x="0" y="0">静止</tspan></text>
        </g>
      </g>
      <g style="isolation: isolate;">
        <g style="isolation: isolate;">
          <text transform="translate(233.5404 319.1441)" style="font-family: NotoSerifSC-Regular, &apos;Noto Serif SC&apos;; font-size: 18px; isolation: isolate;"><tspan x="0" y="0">阻塞</tspan></text>
        </g>
      </g>
    </g>
    <circle cx="251.5407" cy="300.7295" r="28.9524" transform="translate(-131.5811 383.9682) rotate(-62.3475)" style="fill: none; stroke: #000; stroke-miterlimit: 10; stroke-width: 1px;"/>
  </g>
  <g>
    <line x1="273.4734" y1="282.5679" x2="306.9385" y2="224.92" style="fill: none; stroke: #000; stroke-miterlimit: 10;"/>
    <polygon points="308.7311 229.2081 306.3182 225.9883 302.3259 225.4898 309.9355 219.7571 308.7311 229.2081"/>
  </g>
  <g style="isolation: isolate;">
    <g style="isolation: isolate;">
      <g style="isolation: isolate;">
        <text transform="translate(302.8696 278.1816) rotate(-60)" style="font-family: NotoSerifSC-Regular, &apos;Noto Serif SC&apos;; font-size: 18px; isolation: isolate;"><tspan x="0" y="0">释放</tspan></text>
      </g>
    </g>
  </g>
  <g style="isolation: isolate;">
    <g style="isolation: isolate;">
      <g style="isolation: isolate;">
        <text transform="translate(137.7475 331.7012)" style="font-family: NotoSerifSC-Regular, &apos;Noto Serif SC&apos;; font-size: 18px; isolation: isolate;"><tspan x="0" y="0">挂起</tspan></text>
      </g>
    </g>
  </g>
  <g>
    <line x1="87.0941" y1="310.1453" x2="218.4664" y2="311.0218" style="fill: none; stroke: #000; stroke-miterlimit: 10;"/>
    <polygon points="215.6332 314.7061 217.2311 311.0135 215.6826 307.3 224.436 311.0616 215.6332 314.7061"/>
  </g>
  <g>
    <line x1="93.1501" y1="289.9617" x2="223.9075" y2="290.834" style="fill: none; stroke: #000; stroke-miterlimit: 10;"/>
    <polygon points="95.934 293.6834 94.3855 289.9699 95.9834 286.2773 87.1805 289.9218 95.934 293.6834"/>
  </g>
  <g style="isolation: isolate;">
    <g style="isolation: isolate;">
      <g style="isolation: isolate;">
        <text transform="translate(137.8343 282.3167)" style="font-family: NotoSerifSC-Regular, &apos;Noto Serif SC&apos;; font-size: 18px; isolation: isolate;"><tspan x="0" y="0">激活</tspan></text>
      </g>
    </g>
  </g>
  <g>
    <path d="M197.7904,6.221c-6.4847-.6872-98.3427-8.8757-154.2857,60.9524C-1.8224,123.7507-4.4749,207.7076,38.6369,273.655" style="fill: none; stroke: #000; stroke-miterlimit: 10;"/>
    <polygon points="34.0187 273.3697 37.9709 272.6158 40.1719 269.2478 41.9809 278.6019 34.0187 273.3697"/>
  </g>
  <g style="isolation: isolate;">
    <g style="isolation: isolate;">
      <g style="isolation: isolate;">
        <text transform="translate(13.7172 100.7831) rotate(-60)" style="font-family: NotoSerifSC-Regular, &apos;Noto Serif SC&apos;; font-size: 18px; isolation: isolate;"><tspan x="0" y="0">请求I/O</tspan></text>
      </g>
    </g>
  </g>
  <g>
    <line x1="244.2641" y1="29.4524" x2="353.4083" y2="29.4524" style="fill: none; stroke: #000; stroke-miterlimit: 10;"/>
    <polygon points="350.5997 33.1556 352.1729 29.4524 350.5997 25.7493 359.378 29.4524 350.5997 33.1556"/>
  </g>
  <g style="isolation: isolate;">
    <g style="isolation: isolate;">
      <g style="isolation: isolate;">
        <text transform="translate(275.9092 21.3336)" style="font-family: NotoSerifSC-Regular, &apos;Noto Serif SC&apos;; font-size: 18px; isolation: isolate;"><tspan x="0" y="0">终止</tspan></text>
      </g>
    </g>
  </g>
</svg>