<?xml version="1.0" encoding="UTF-8"?>
<svg id="_layer_1" xmlns="http://www.w3.org/2000/svg" viewBox="0 0 517.5082 162.9048">
  <g>
    <g style="isolation: isolate;">
      <text transform="translate(10.6297 95.0793)" style="font-family: NotoSerifSC-Regular, &apos;Noto Serif SC&apos;; font-size: 18px; isolation: isolate;"><tspan x="0" y="0">进程A</tspan></text>
    </g>
    <circle cx="34.7857" cy="89.4455" r="34.2857" style="fill: none; stroke: #000; stroke-miterlimit: 10;"/>
  </g>
  <g>
    <g style="isolation: isolate;">
      <text transform="translate(458.5665 95.0793)" style="font-family: NotoSerifSC-Regular, &apos;Noto Serif SC&apos;; font-size: 18px; isolation: isolate;"><tspan x="0" y="0">进程B</tspan></text>
    </g>
    <circle cx="482.7225" cy="89.4455" r="34.2857" style="fill: none; stroke: #000; stroke-miterlimit: 10;"/>
  </g>
  <g>
    <rect x="174.2779" y=".5" width="168.9524" height="161.9048" style="fill: none; stroke: #000; stroke-miterlimit: 10;"/>
    <g style="isolation: isolate;">
      <text transform="translate(232.2023 32.5627)" style="font-family: NotoSerifSC-Regular, &apos;Noto Serif SC&apos;; font-size: 18px; isolation: isolate;"><tspan x="0" y="0">信箱头</tspan></text>
    </g>
    <g style="isolation: isolate;">
      <text transform="translate(186.6413 96.344)" style="font-family: NotoSerifSC-Regular, &apos;Noto Serif SC&apos;; font-size: 18px; isolation: isolate;"><tspan x="0" y="0">格</tspan></text>
      <text transform="translate(186.6413 117.9446)" style="font-family: NotoSerifSC-Regular, &apos;Noto Serif SC&apos;; font-size: 18px; isolation: isolate;"><tspan x="0" y="0">子</tspan></text>
      <text transform="translate(191.4836 139.5442)" style="font-family: NotoSerifSC-Regular, &apos;Noto Serif SC&apos;; font-size: 18px; isolation: isolate;"><tspan x="0" y="0">1</tspan></text>
    </g>
    <g style="isolation: isolate;">
      <text transform="translate(227.5869 96.344)" style="font-family: NotoSerifSC-Regular, &apos;Noto Serif SC&apos;; font-size: 18px; isolation: isolate;"><tspan x="0" y="0">格</tspan></text>
      <text transform="translate(227.5869 117.9446)" style="font-family: NotoSerifSC-Regular, &apos;Noto Serif SC&apos;; font-size: 18px; isolation: isolate;"><tspan x="0" y="0">子</tspan></text>
      <text transform="translate(232.4292 139.5442)" style="font-family: NotoSerifSC-Regular, &apos;Noto Serif SC&apos;; font-size: 18px; isolation: isolate;"><tspan x="0" y="0">2</tspan></text>
    </g>
    <g style="isolation: isolate;">
      <text transform="translate(268.532 96.344)" style="font-family: NotoSerifSC-Regular, &apos;Noto Serif SC&apos;; font-size: 18px; isolation: isolate;"><tspan x="0" y="0">格</tspan></text>
      <text transform="translate(268.532 117.9446)" style="font-family: NotoSerifSC-Regular, &apos;Noto Serif SC&apos;; font-size: 18px; isolation: isolate;"><tspan x="0" y="0">子</tspan></text>
      <text transform="translate(273.3743 139.5442)" style="font-family: NotoSerifSC-Regular, &apos;Noto Serif SC&apos;; font-size: 18px; isolation: isolate;"><tspan x="0" y="0">3</tspan></text>
    </g>
    <g style="isolation: isolate;">
      <text transform="translate(309.4771 96.344)" style="font-family: NotoSerifSC-Regular, &apos;Noto Serif SC&apos;; font-size: 18px; isolation: isolate;"><tspan x="0" y="0">格</tspan></text>
      <text transform="translate(309.4771 117.9446)" style="font-family: NotoSerifSC-Regular, &apos;Noto Serif SC&apos;; font-size: 18px; isolation: isolate;"><tspan x="0" y="0">子</tspan></text>
      <text transform="translate(309.4771 139.5442)" style="font-family: NotoSerifSC-Regular, &apos;Noto Serif SC&apos;; font-size: 18px; isolation: isolate;"><tspan x="0" y="0">…</tspan></text>
    </g>
    <line x1="343.2303" y1="51.1667" x2="174.2779" y2="51.1667" style="fill: none; stroke: #000; stroke-miterlimit: 10;"/>
    <line x1="216.1141" y1="162.4048" x2="216.1141" y2="51.1667" style="fill: none; stroke: #000; stroke-miterlimit: 10;"/>
    <path d="M256.9745,162.4048c.381-1.9048,0-111.2381,0-111.2381" style="fill: none; stroke: #000; stroke-miterlimit: 10;"/>
    <path d="M297.962,162.4048c.1905-1.3333,0-111.2381,0-111.2381" style="fill: none; stroke: #000; stroke-miterlimit: 10;"/>
  </g>
  <g>
    <line x1="64.3597" y1="106.7857" x2="168.3082" y2="106.7857" style="fill: none; stroke: #000; stroke-miterlimit: 10;"/>
    <polygon points="165.4996 110.4888 167.0728 106.7857 165.4996 103.0826 174.2779 106.7857 165.4996 110.4888"/>
  </g>
  <g>
    <line x1="70.3295" y1="73.1984" x2="174.2779" y2="73.1984" style="fill: none; stroke: #000; stroke-miterlimit: 10;"/>
    <polygon points="73.1381 76.9015 71.5648 73.1984 73.1381 69.4953 64.3597 73.1984 73.1381 76.9015"/>
  </g>
  <g style="isolation: isolate;">
    <text transform="translate(98.6543 67.7132)" style="font-family: NotoSerifSC-Regular, &apos;Noto Serif SC&apos;; font-size: 18px; isolation: isolate;"><tspan x="0" y="0">接收</tspan></text>
  </g>
  <g style="isolation: isolate;">
    <text transform="translate(98.6542 127.0491)" style="font-family: NotoSerifSC-Regular, &apos;Noto Serif SC&apos;; font-size: 18px; isolation: isolate;"><tspan x="0" y="0">发送</tspan></text>
  </g>
  <g>
    <line x1="343.2303" y1="105.7963" x2="447.1788" y2="105.7963" style="fill: none; stroke: #000; stroke-miterlimit: 10;"/>
    <polygon points="444.3702 109.4995 445.9434 105.7963 444.3702 102.0932 453.1485 105.7963 444.3702 109.4995"/>
  </g>
  <g>
    <line x1="349.2" y1="72.209" x2="453.1485" y2="72.209" style="fill: none; stroke: #000; stroke-miterlimit: 10;"/>
    <polygon points="352.0086 75.9122 350.4353 72.209 352.0086 68.5059 343.2303 72.209 352.0086 75.9122"/>
  </g>
  <g style="isolation: isolate;">
    <text transform="translate(377.5249 66.7238)" style="font-family: NotoSerifSC-Regular, &apos;Noto Serif SC&apos;; font-size: 18px; isolation: isolate;"><tspan x="0" y="0">接收</tspan></text>
  </g>
  <g style="isolation: isolate;">
    <text transform="translate(377.5248 126.0597)" style="font-family: NotoSerifSC-Regular, &apos;Noto Serif SC&apos;; font-size: 18px; isolation: isolate;"><tspan x="0" y="0">发送</tspan></text>
  </g>
</svg>