<?xml version="1.0" encoding="UTF-8"?>
<svg id="_layer_1" xmlns="http://www.w3.org/2000/svg" viewBox="0 0 491.154 251.5118">
  <g>
    <g style="isolation: isolate;">
      <text transform="translate(46.5 91.7633)" style="font-family: NotoSerifSC-Regular, &apos;Noto Serif SC&apos;; font-size: 18px; isolation: isolate;"><tspan x="0" y="0">就绪队列指针</tspan></text>
    </g>
    <rect x=".5" y="71.811" width="200" height="25" style="fill: none; stroke: #000; stroke-miterlimit: 10;"/>
  </g>
  <g>
    <g style="isolation: isolate;">
      <text transform="translate(46.5 155.8285)" style="font-family: NotoSerifSC-Regular, &apos;Noto Serif SC&apos;; font-size: 18px; isolation: isolate;"><tspan x="0" y="0">阻塞队列指针</tspan></text>
    </g>
    <rect x=".5" y="135.8762" width="200" height="25" style="fill: none; stroke: #000; stroke-miterlimit: 10;"/>
  </g>
  <g>
    <g style="isolation: isolate;">
      <text transform="translate(46.5 232.6112)" style="font-family: NotoSerifSC-Regular, &apos;Noto Serif SC&apos;; font-size: 18px; isolation: isolate;"><tspan x="0" y="0">空闲队列指针</tspan></text>
    </g>
    <rect x=".5" y="212.6589" width="200" height="25" style="fill: none; stroke: #000; stroke-miterlimit: 10;"/>
  </g>
  <g>
    <g style="isolation: isolate;">
      <text transform="translate(64.5001 20.4523)" style="font-family: NotoSerifSC-Regular, &apos;Noto Serif SC&apos;; font-size: 18px; isolation: isolate;"><tspan x="0" y="0">执行指针</tspan></text>
    </g>
    <rect x=".5" y=".5" width="200" height="25" style="fill: none; stroke: #000; stroke-miterlimit: 10;"/>
  </g>
  <g>
    <polyline points="316.5191 250.5 316.5191 .5 441.5191 .5 441.5191 250.5" style="fill: none; stroke: #000; stroke-miterlimit: 10;"/>
    <line x1="316.5191" y1="225.5" x2="441.5191" y2="225.5" style="fill: none; stroke: #000; stroke-miterlimit: 10;"/>
    <line x1="316.5191" y1="200.5" x2="441.5191" y2="200.5" style="fill: none; stroke: #000; stroke-miterlimit: 10;"/>
    <line x1="316.5191" y1="175.5" x2="441.5191" y2="175.5" style="fill: none; stroke: #000; stroke-miterlimit: 10;"/>
    <line x1="316.5191" y1="150.5" x2="441.5191" y2="150.5" style="fill: none; stroke: #000; stroke-miterlimit: 10;"/>
    <line x1="316.5191" y1="125.5" x2="441.5191" y2="125.5" style="fill: none; stroke: #000; stroke-miterlimit: 10;"/>
    <line x1="316.5191" y1="100.5" x2="441.5191" y2="100.5" style="fill: none; stroke: #000; stroke-miterlimit: 10;"/>
    <line x1="316.5191" y1="75.5" x2="441.5191" y2="75.5" style="fill: none; stroke: #000; stroke-miterlimit: 10;"/>
    <line x1="316.5191" y1="50.5" x2="441.5191" y2="50.5" style="fill: none; stroke: #000; stroke-miterlimit: 10;"/>
    <line x1="316.5191" y1="25.5" x2="441.5191" y2="25.5" style="fill: none; stroke: #000; stroke-miterlimit: 10;"/>
    <line x1="420.6858" y1=".5" x2="420.6858" y2="250.5" style="fill: none; stroke: #000; stroke-miterlimit: 10;"/>
  </g>
  <g style="isolation: isolate;">
    <text transform="translate(345.5191 20.1549)" style="font-family: NotoSerifSC-Regular, &apos;Noto Serif SC&apos;; font-size: 18px; isolation: isolate;"><tspan x="0" y="0" style="letter-spacing: .001em;">P</tspan><tspan x="11.5557" y="0">CB1</tspan></text>
  </g>
  <g style="isolation: isolate;">
    <text transform="translate(345.5191 45.0965)" style="font-family: NotoSerifSC-Regular, &apos;Noto Serif SC&apos;; font-size: 18px; isolation: isolate;"><tspan x="0" y="0" style="letter-spacing: .001em;">P</tspan><tspan x="11.5557" y="0">CB2</tspan></text>
  </g>
  <g style="isolation: isolate;">
    <text transform="translate(345.5191 20.1549)" style="font-family: NotoSerifSC-Regular, &apos;Noto Serif SC&apos;; font-size: 18px; isolation: isolate;"><tspan x="0" y="0" style="letter-spacing: .001em;">P</tspan><tspan x="11.5557" y="0">CB1</tspan></text>
  </g>
  <g style="isolation: isolate;">
    <text transform="translate(345.5191 20.1549)" style="font-family: NotoSerifSC-Regular, &apos;Noto Serif SC&apos;; font-size: 18px; isolation: isolate;"><tspan x="0" y="0" style="letter-spacing: .001em;">P</tspan><tspan x="11.5557" y="0">CB1</tspan></text>
  </g>
  <g style="isolation: isolate;">
    <text transform="translate(345.5191 20.1549)" style="font-family: NotoSerifSC-Regular, &apos;Noto Serif SC&apos;; font-size: 18px; isolation: isolate;"><tspan x="0" y="0" style="letter-spacing: .001em;">P</tspan><tspan x="11.5557" y="0">CB1</tspan></text>
  </g>
  <g style="isolation: isolate;">
    <text transform="translate(345.5191 68.9898)" style="font-family: NotoSerifSC-Regular, &apos;Noto Serif SC&apos;; font-size: 18px; isolation: isolate;"><tspan x="0" y="0" style="letter-spacing: .001em;">P</tspan><tspan x="11.5557" y="0">CB3</tspan></text>
  </g>
  <g style="isolation: isolate;">
    <text transform="translate(345.5191 93.8174)" style="font-family: NotoSerifSC-Regular, &apos;Noto Serif SC&apos;; font-size: 18px; isolation: isolate;"><tspan x="0" y="0" style="letter-spacing: .001em;">P</tspan><tspan x="11.5557" y="0">CB4</tspan></text>
  </g>
  <g style="isolation: isolate;">
    <text transform="translate(345.5191 120.31)" style="font-family: NotoSerifSC-Regular, &apos;Noto Serif SC&apos;; font-size: 18px; isolation: isolate;"><tspan x="0" y="0" style="letter-spacing: .001em;">P</tspan><tspan x="11.5557" y="0">CB5</tspan></text>
  </g>
  <g style="isolation: isolate;">
    <text transform="translate(345.5191 144.9092)" style="font-family: NotoSerifSC-Regular, &apos;Noto Serif SC&apos;; font-size: 18px; isolation: isolate;"><tspan x="0" y="0" style="letter-spacing: .001em;">P</tspan><tspan x="11.5557" y="0">CB6</tspan></text>
  </g>
  <g style="isolation: isolate;">
    <text transform="translate(345.5191 169.8753)" style="font-family: NotoSerifSC-Regular, &apos;Noto Serif SC&apos;; font-size: 18px; isolation: isolate;"><tspan x="0" y="0" style="letter-spacing: .001em;">P</tspan><tspan x="11.5557" y="0">CB7</tspan></text>
  </g>
  <g style="isolation: isolate;">
    <text transform="translate(345.5191 195.1823)" style="font-family: NotoSerifSC-Regular, &apos;Noto Serif SC&apos;; font-size: 18px; isolation: isolate;"><tspan x="0" y="0" style="letter-spacing: .001em;">P</tspan><tspan x="11.5557" y="0">CB8</tspan></text>
  </g>
  <g style="isolation: isolate;">
    <text transform="translate(345.5191 219.8138)" style="font-family: NotoSerifSC-Regular, &apos;Noto Serif SC&apos;; font-size: 18px; isolation: isolate;"><tspan x="0" y="0" style="letter-spacing: .001em;">P</tspan><tspan x="11.5557" y="0">CB9</tspan></text>
  </g>
  <circle cx="185.6858" cy="13" r="5.4524"/>
  <circle cx="185.6858" cy="84.9235" r="5.4524"/>
  <circle cx="185.6858" cy="148.9887" r="5.4524"/>
  <circle cx="185.6858" cy="225.1589" r="5.4524"/>
  <g>
    <line x1="185.6858" y1="13.6125" x2="311.7681" y2="109.5404" style="fill: none; stroke: #000; stroke-miterlimit: 10;"/>
    <polygon points="307.2907 110.7869 310.785 108.7924 311.7752 104.8927 316.5191 113.1551 307.2907 110.7869"/>
  </g>
  <g>
    <line x1="185.6858" y1="84.9235" x2="311.2824" y2="16.1812" style="fill: none; stroke: #000; stroke-miterlimit: 10;"/>
    <polygon points="310.5967 20.7781 310.1988 16.7744 307.0408 14.2813 316.5191 13.3151 310.5967 20.7781"/>
  </g>
  <g>
    <line x1="185.6858" y1="148.9887" x2="311.9678" y2="41.8046" style="fill: none; stroke: #000; stroke-miterlimit: 10;"/>
    <polygon points="312.2228 46.4453 311.026 42.604 307.4302 40.7988 316.5191 37.9415 312.2228 46.4453"/>
  </g>
  <g>
    <line x1="185.6858" y1="225.1589" x2="311.5552" y2="141.0705" style="fill: none; stroke: #000; stroke-miterlimit: 10;"/>
    <polygon points="311.2769 145.7098 310.528 141.7567 307.1627 139.5514 316.5191 137.7543 311.2769 145.7098"/>
  </g>
  <g style="isolation: isolate;">
    <text transform="translate(425.9371 18.94)" style="font-family: NotoSerifSC-Regular, &apos;Noto Serif SC&apos;; font-size: 18px; isolation: isolate;"><tspan x="0" y="0">4</tspan></text>
  </g>
  <g style="isolation: isolate;">
    <text transform="translate(425.9371 44.5885)" style="font-family: NotoSerifSC-Regular, &apos;Noto Serif SC&apos;; font-size: 18px; isolation: isolate;"><tspan x="0" y="0">3</tspan></text>
  </g>
  <g style="isolation: isolate;">
    <text transform="translate(425.9371 95.2469)" style="font-family: NotoSerifSC-Regular, &apos;Noto Serif SC&apos;; font-size: 18px; isolation: isolate;"><tspan x="0" y="0">8</tspan></text>
  </g>
  <g style="isolation: isolate;">
    <text transform="translate(425.9371 144.4526)" style="font-family: NotoSerifSC-Regular, &apos;Noto Serif SC&apos;; font-size: 18px; isolation: isolate;"><tspan x="0" y="0">7</tspan></text>
  </g>
  <g style="isolation: isolate;">
    <text transform="translate(425.9371 170.5383)" style="font-family: NotoSerifSC-Regular, &apos;Noto Serif SC&apos;; font-size: 18px; isolation: isolate;"><tspan x="0" y="0">9</tspan></text>
  </g>
  <g style="isolation: isolate;">
    <text transform="translate(425.9371 195.9448)" style="font-family: NotoSerifSC-Regular, &apos;Noto Serif SC&apos;; font-size: 18px; isolation: isolate;"><tspan x="0" y="0">0</tspan></text>
  </g>
  <g style="isolation: isolate;">
    <text transform="translate(425.9371 220.4974)" style="font-family: NotoSerifSC-Regular, &apos;Noto Serif SC&apos;; font-size: 18px; isolation: isolate;"><tspan x="0" y="0">1</tspan></text>
  </g>
  <g style="isolation: isolate;">
    <text transform="translate(425.9371 68.9898)" style="font-family: NotoSerifSC-Regular, &apos;Noto Serif SC&apos;; font-size: 18px; isolation: isolate;"><tspan x="0" y="0">0</tspan></text>
  </g>
  <g>
    <polyline points="442.2096 13.3151 490.654 13.3151 490.654 81.9587 448.1793 81.9587" style="fill: none; stroke: #000; stroke-miterlimit: 10;"/>
    <polygon points="450.9879 78.2556 449.4147 81.9587 450.9879 85.6618 442.2096 81.9587 450.9879 78.2556"/>
  </g>
  <g>
    <polyline points="441.5191 38.2566 473.7651 38.2566 473.7651 62.1499 448.1793 62.1499" style="fill: none; stroke: #000; stroke-miterlimit: 10;"/>
    <polygon points="450.9879 58.4468 449.4147 62.1499 450.9879 65.8531 442.2096 62.1499 450.9879 58.4468"/>
  </g>
  <g>
    <polyline points="441.5191 92.4349 490.654 92.4349 490.654 188.0274 447.4888 188.0274" style="fill: none; stroke: #000; stroke-miterlimit: 10;"/>
    <polygon points="450.2974 184.3243 448.7242 188.0274 450.2974 191.7305 441.5191 188.0274 450.2974 184.3243"/>
  </g>
  <g>
    <polyline points="441.5191 137.2977 473.7651 137.2977 473.7651 157.7043 447.4888 157.7043" style="fill: none; stroke: #000; stroke-miterlimit: 10;"/>
    <polygon points="450.2974 154.0012 448.7242 157.7043 450.2974 161.4075 441.5191 157.7043 450.2974 154.0012"/>
  </g>
  <g>
    <polyline points="441.5191 167.5777 473.7651 167.5777 473.7651 206.512 447.4888 206.512" style="fill: none; stroke: #000; stroke-miterlimit: 10;"/>
    <polygon points="450.2974 202.8089 448.7242 206.512 450.2974 210.2152 441.5191 206.512 450.2974 202.8089"/>
  </g>
  <g>
    <polyline points="441.5191 217.6095 473.7651 217.6095 473.7651 242.8778" style="fill: none; stroke: #000; stroke-miterlimit: 10;"/>
    <polygon points="470.062 240.0692 473.7651 241.6425 477.4683 240.0692 473.7651 248.8476 470.062 240.0692"/>
  </g>
</svg>