<?xml version="1.0" encoding="UTF-8"?>
<svg id="_layer_1" xmlns="http://www.w3.org/2000/svg" viewBox="0 0 863.7 170.2857">
  <g>
    <text transform="translate(183.7256 99.4047)" style="font-family: AdobeSongStd-Light-GBpc-EUC-H, &apos;Adobe Song Std&apos;; font-size: 18px; font-weight: 300;"><tspan x="0" y="0">进程A</tspan></text>
    <circle cx="207.8816" cy="93.7709" r="34.2857" style="fill: none; stroke: #000; stroke-miterlimit: 10;"/>
  </g>
  <g>
    <text transform="translate(631.6624 99.4047)" style="font-family: AdobeSongStd-Light-GBpc-EUC-H, &apos;Adobe Song Std&apos;; font-size: 18px; font-weight: 300;"><tspan x="0" y="0">进程B</tspan></text>
    <circle cx="655.8184" cy="93.7709" r="34.2857" style="fill: none; stroke: #000; stroke-miterlimit: 10;"/>
  </g>
  <g>
    <rect x="347.3738" y="4.8254" width="168.9524" height="161.9048" style="fill: none; stroke: #000; stroke-miterlimit: 10;"/>
    <text transform="translate(405.2982 36.8881)" style="font-family: AdobeSongStd-Light-GBpc-EUC-H, &apos;Adobe Song Std&apos;; font-size: 18px; font-weight: 300;"><tspan x="0" y="0">信箱头</tspan></text>
    <text transform="translate(359.7372 100.6694)" style="font-family: AdobeSongStd-Light-GBpc-EUC-H, &apos;Adobe Song Std&apos;; font-size: 18px; font-weight: 300;"><tspan x="0" y="0">格</tspan><tspan x="0" y="21.6006">子</tspan><tspan x="4.8423" y="43.2002">1</tspan></text>
    <text transform="translate(400.6828 100.6694)" style="font-family: AdobeSongStd-Light-GBpc-EUC-H, &apos;Adobe Song Std&apos;; font-size: 18px; font-weight: 300;"><tspan x="0" y="0">格</tspan><tspan x="0" y="21.6006">子</tspan><tspan x="4.8423" y="43.2002">2</tspan></text>
    <text transform="translate(441.6279 100.6694)" style="font-family: AdobeSongStd-Light-GBpc-EUC-H, &apos;Adobe Song Std&apos;; font-size: 18px; font-weight: 300;"><tspan x="0" y="0">格</tspan><tspan x="0" y="21.6006">子</tspan><tspan x="4.8423" y="43.2002">3</tspan></text>
    <text transform="translate(482.573 100.6694)" style="font-family: AdobeSongStd-Light-GBpc-EUC-H, &apos;Adobe Song Std&apos;; font-size: 18px; font-weight: 300;"><tspan x="0" y="0">格</tspan><tspan x="0" y="21.6006">子</tspan><tspan x="0" y="43.2002">…</tspan></text>
    <line x1="516.3262" y1="55.4921" x2="347.3738" y2="55.4921" style="fill: none; stroke: #000; stroke-miterlimit: 10;"/>
    <line x1="389.21" y1="166.7302" x2="389.21" y2="55.4921" style="fill: none; stroke: #000; stroke-miterlimit: 10;"/>
    <path d="M430.0704,166.7302c.381-1.9048,0-111.2381,0-111.2381" style="fill: none; stroke: #000; stroke-miterlimit: 10;"/>
    <path d="M471.0579,166.7302c.1905-1.3333,0-111.2381,0-111.2381" style="fill: none; stroke: #000; stroke-miterlimit: 10;"/>
  </g>
  <g>
    <line x1="237.4556" y1="111.1111" x2="341.4041" y2="111.1111" style="fill: none; stroke: #000; stroke-miterlimit: 10;"/>
    <polygon points="338.5955 114.8142 340.1687 111.1111 338.5955 107.408 347.3738 111.1111 338.5955 114.8142"/>
  </g>
  <g>
    <line x1="243.4254" y1="77.5238" x2="347.3738" y2="77.5238" style="fill: none; stroke: #000; stroke-miterlimit: 10;"/>
    <polygon points="246.234 81.2269 244.6607 77.5238 246.234 73.8207 237.4556 77.5238 246.234 81.2269"/>
  </g>
  <text transform="translate(271.7502 72.0386)" style="font-family: NotoSerifSC-ExtraLight, &apos;Noto Serif SC&apos;; font-size: 18px; font-weight: 200;"><tspan x="0" y="0">接收</tspan></text>
  <text transform="translate(271.7501 131.3745)" style="font-family: NotoSerifSC-ExtraLight, &apos;Noto Serif SC&apos;; font-size: 18px; font-weight: 200;"><tspan x="0" y="0">发送</tspan></text>
  <g>
    <line x1="516.3262" y1="110.1217" x2="620.2747" y2="110.1217" style="fill: none; stroke: #000; stroke-miterlimit: 10;"/>
    <polygon points="617.4661 113.8249 619.0393 110.1217 617.4661 106.4186 626.2444 110.1217 617.4661 113.8249"/>
  </g>
  <g>
    <line x1="522.2959" y1="76.5344" x2="626.2444" y2="76.5344" style="fill: none; stroke: #000; stroke-miterlimit: 10;"/>
    <polygon points="525.1045 80.2376 523.5312 76.5344 525.1045 72.8313 516.3262 76.5344 525.1045 80.2376"/>
  </g>
  <text transform="translate(550.6208 71.0492)" style="font-family: NotoSerifSC-ExtraLight, &apos;Noto Serif SC&apos;; font-size: 18px; font-weight: 200;"><tspan x="0" y="0">接收</tspan></text>
  <text transform="translate(550.6207 130.3851)" style="font-family: NotoSerifSC-ExtraLight, &apos;Noto Serif SC&apos;; font-size: 18px; font-weight: 200;"><tspan x="0" y="0">发送</tspan></text>
</svg>