<?xml version="1.0" encoding="UTF-8"?>
<svg id="_layer_1" data-name=" layer 1" xmlns="http://www.w3.org/2000/svg" viewBox="0 0 863.7 257.9048">
  <g>
    <text transform="translate(232.773 95.1697)" style="font-family: NotoSerifSC-ExtraLight, &apos;Noto Serif SC&apos;; font-size: 18px; font-weight: 200;"><tspan x="0" y="0">就绪队列指针</tspan></text>
    <rect x="186.773" y="75.2174" width="200" height="25" style="fill: none; stroke: #000; stroke-miterlimit: 10;"/>
  </g>
  <g>
    <text transform="translate(232.773 159.2349)" style="font-family: NotoSerifSC-ExtraLight, &apos;Noto Serif SC&apos;; font-size: 18px; font-weight: 200;"><tspan x="0" y="0">阻塞队列指针</tspan></text>
    <rect x="186.773" y="139.2826" width="200" height="25" style="fill: none; stroke: #000; stroke-miterlimit: 10;"/>
  </g>
  <g>
    <text transform="translate(232.773 236.0176)" style="font-family: NotoSerifSC-ExtraLight, &apos;Noto Serif SC&apos;; font-size: 18px; font-weight: 200;"><tspan x="0" y="0">空闲队列指针</tspan></text>
    <rect x="186.773" y="216.0653" width="200" height="25" style="fill: none; stroke: #000; stroke-miterlimit: 10;"/>
  </g>
  <g>
    <text transform="translate(250.7731 23.8587)" style="font-family: NotoSerifSC-ExtraLight, &apos;Noto Serif SC&apos;; font-size: 18px; font-weight: 200;"><tspan x="0" y="0">执行指针</tspan></text>
    <rect x="186.773" y="3.9064" width="200" height="25" style="fill: none; stroke: #000; stroke-miterlimit: 10;"/>
  </g>
  <g>
    <polyline points="502.7921 253.9064 502.7921 3.9064 627.7921 3.9064 627.7921 253.9064" style="fill: none; stroke: #000; stroke-miterlimit: 10;"/>
    <line x1="502.7921" y1="228.9064" x2="627.7921" y2="228.9064" style="fill: none; stroke: #000; stroke-miterlimit: 10;"/>
    <line x1="502.7921" y1="203.9064" x2="627.7921" y2="203.9064" style="fill: none; stroke: #000; stroke-miterlimit: 10;"/>
    <line x1="502.7921" y1="178.9064" x2="627.7921" y2="178.9064" style="fill: none; stroke: #000; stroke-miterlimit: 10;"/>
    <line x1="502.7921" y1="153.9064" x2="627.7921" y2="153.9064" style="fill: none; stroke: #000; stroke-miterlimit: 10;"/>
    <line x1="502.7921" y1="128.9064" x2="627.7921" y2="128.9064" style="fill: none; stroke: #000; stroke-miterlimit: 10;"/>
    <line x1="502.7921" y1="103.9064" x2="627.7921" y2="103.9064" style="fill: none; stroke: #000; stroke-miterlimit: 10;"/>
    <line x1="502.7921" y1="78.9064" x2="627.7921" y2="78.9064" style="fill: none; stroke: #000; stroke-miterlimit: 10;"/>
    <line x1="502.7921" y1="53.9064" x2="627.7921" y2="53.9064" style="fill: none; stroke: #000; stroke-miterlimit: 10;"/>
    <line x1="502.7921" y1="28.9064" x2="627.7921" y2="28.9064" style="fill: none; stroke: #000; stroke-miterlimit: 10;"/>
    <line x1="606.9588" y1="3.9064" x2="606.9588" y2="253.9064" style="fill: none; stroke: #000; stroke-miterlimit: 10;"/>
  </g>
  <text transform="translate(531.7921 23.5613)" style="font-family: NotoSerifSC-ExtraLight, &apos;Noto Serif SC&apos;; font-size: 18px; font-weight: 200;"><tspan x="0" y="0">PCB1</tspan></text>
  <text transform="translate(531.7921 48.5029)" style="font-family: NotoSerifSC-ExtraLight, &apos;Noto Serif SC&apos;; font-size: 18px; font-weight: 200;"><tspan x="0" y="0">PCB2</tspan></text>
  <text transform="translate(531.7921 23.5613)" style="font-family: NotoSerifSC-ExtraLight, &apos;Noto Serif SC&apos;; font-size: 18px; font-weight: 200;"><tspan x="0" y="0">PCB1</tspan></text>
  <text transform="translate(531.7921 23.5613)" style="font-family: NotoSerifSC-ExtraLight, &apos;Noto Serif SC&apos;; font-size: 18px; font-weight: 200;"><tspan x="0" y="0">PCB1</tspan></text>
  <text transform="translate(531.7921 23.5613)" style="font-family: NotoSerifSC-ExtraLight, &apos;Noto Serif SC&apos;; font-size: 18px; font-weight: 200;"><tspan x="0" y="0">PCB1</tspan></text>
  <text transform="translate(531.7921 72.3962)" style="font-family: NotoSerifSC-ExtraLight, &apos;Noto Serif SC&apos;; font-size: 18px; font-weight: 200;"><tspan x="0" y="0">PCB3</tspan></text>
  <text transform="translate(531.7921 97.2238)" style="font-family: NotoSerifSC-ExtraLight, &apos;Noto Serif SC&apos;; font-size: 18px; font-weight: 200;"><tspan x="0" y="0">PCB4</tspan></text>
  <text transform="translate(531.7921 123.7164)" style="font-family: NotoSerifSC-ExtraLight, &apos;Noto Serif SC&apos;; font-size: 18px; font-weight: 200;"><tspan x="0" y="0">PCB5</tspan></text>
  <text transform="translate(531.7921 148.3156)" style="font-family: NotoSerifSC-ExtraLight, &apos;Noto Serif SC&apos;; font-size: 18px; font-weight: 200;"><tspan x="0" y="0">PCB6</tspan></text>
  <text transform="translate(531.7921 173.2817)" style="font-family: NotoSerifSC-ExtraLight, &apos;Noto Serif SC&apos;; font-size: 18px; font-weight: 200;"><tspan x="0" y="0">PCB7</tspan></text>
  <text transform="translate(531.7921 198.5887)" style="font-family: NotoSerifSC-ExtraLight, &apos;Noto Serif SC&apos;; font-size: 18px; font-weight: 200;"><tspan x="0" y="0">PCB8</tspan></text>
  <text transform="translate(531.7921 223.2202)" style="font-family: NotoSerifSC-ExtraLight, &apos;Noto Serif SC&apos;; font-size: 18px; font-weight: 200;"><tspan x="0" y="0">PCB9</tspan></text>
  <circle cx="371.9588" cy="16.4064" r="5.4524"/>
  <circle cx="371.9588" cy="88.3299" r="5.4524"/>
  <circle cx="371.9588" cy="152.3951" r="5.4524"/>
  <circle cx="371.9588" cy="228.5653" r="5.4524"/>
  <g>
    <line x1="371.9588" y1="17.0189" x2="498.0411" y2="112.9468" style="fill: none; stroke: #000; stroke-miterlimit: 10;"/>
    <polygon points="493.5637 114.1933 497.058 112.1988 498.0482 108.2991 502.7921 116.5615 493.5637 114.1933"/>
  </g>
  <g>
    <line x1="371.9588" y1="88.3299" x2="497.5554" y2="19.5876" style="fill: none; stroke: #000; stroke-miterlimit: 10;"/>
    <polygon points="496.8697 24.1845 496.4718 20.1808 493.3138 17.6877 502.7921 16.7215 496.8697 24.1845"/>
  </g>
  <g>
    <line x1="371.9588" y1="152.3951" x2="498.2408" y2="45.211" style="fill: none; stroke: #000; stroke-miterlimit: 10;"/>
    <polygon points="498.4958 49.8517 497.299 46.0104 493.7032 44.2052 502.7921 41.3479 498.4958 49.8517"/>
  </g>
  <g>
    <line x1="371.9588" y1="228.5653" x2="497.8282" y2="144.4769" style="fill: none; stroke: #000; stroke-miterlimit: 10;"/>
    <polygon points="497.5499 149.1162 496.801 145.1631 493.4357 142.9578 502.7921 141.1607 497.5499 149.1162"/>
  </g>
  <text transform="translate(612.2101 22.3464)" style="font-family: NotoSerifSC-ExtraLight, &apos;Noto Serif SC&apos;; font-size: 18px; font-weight: 200;"><tspan x="0" y="0">4</tspan></text>
  <text transform="translate(612.2101 47.9949)" style="font-family: NotoSerifSC-ExtraLight, &apos;Noto Serif SC&apos;; font-size: 18px; font-weight: 200;"><tspan x="0" y="0">3</tspan></text>
  <text transform="translate(612.2101 98.6533)" style="font-family: NotoSerifSC-ExtraLight, &apos;Noto Serif SC&apos;; font-size: 18px; font-weight: 200;"><tspan x="0" y="0">8</tspan></text>
  <text transform="translate(612.2101 147.859)" style="font-family: NotoSerifSC-ExtraLight, &apos;Noto Serif SC&apos;; font-size: 18px; font-weight: 200;"><tspan x="0" y="0">7</tspan></text>
  <text transform="translate(612.2101 173.9447)" style="font-family: NotoSerifSC-ExtraLight, &apos;Noto Serif SC&apos;; font-size: 18px; font-weight: 200;"><tspan x="0" y="0">9</tspan></text>
  <text transform="translate(612.2101 199.3512)" style="font-family: NotoSerifSC-ExtraLight, &apos;Noto Serif SC&apos;; font-size: 18px; font-weight: 200;"><tspan x="0" y="0">0</tspan></text>
  <text transform="translate(612.2101 223.9038)" style="font-family: NotoSerifSC-ExtraLight, &apos;Noto Serif SC&apos;; font-size: 18px; font-weight: 200;"><tspan x="0" y="0">1</tspan></text>
  <text transform="translate(612.2101 72.3962)" style="font-family: NotoSerifSC-ExtraLight, &apos;Noto Serif SC&apos;; font-size: 18px; font-weight: 200;"><tspan x="0" y="0">0</tspan></text>
  <g>
    <polyline points="628.4826 16.7215 676.927 16.7215 676.927 85.3651 634.4523 85.3651" style="fill: none; stroke: #000; stroke-miterlimit: 10;"/>
    <polygon points="637.2609 81.662 635.6877 85.3651 637.2609 89.0682 628.4826 85.3651 637.2609 81.662"/>
  </g>
  <g>
    <polyline points="627.7921 41.663 660.0381 41.663 660.0381 65.5563 634.4523 65.5563" style="fill: none; stroke: #000; stroke-miterlimit: 10;"/>
    <polygon points="637.2609 61.8532 635.6877 65.5563 637.2609 69.2595 628.4826 65.5563 637.2609 61.8532"/>
  </g>
  <g>
    <polyline points="627.7921 95.8413 676.927 95.8413 676.927 191.4338 633.7618 191.4338" style="fill: none; stroke: #000; stroke-miterlimit: 10;"/>
    <polygon points="636.5704 187.7307 634.9972 191.4338 636.5704 195.1369 627.7921 191.4338 636.5704 187.7307"/>
  </g>
  <g>
    <polyline points="627.7921 140.7041 660.0381 140.7041 660.0381 161.1107 633.7618 161.1107" style="fill: none; stroke: #000; stroke-miterlimit: 10;"/>
    <polygon points="636.5704 157.4076 634.9972 161.1107 636.5704 164.8139 627.7921 161.1107 636.5704 157.4076"/>
  </g>
  <g>
    <polyline points="627.7921 170.9841 660.0381 170.9841 660.0381 209.9184 633.7618 209.9184" style="fill: none; stroke: #000; stroke-miterlimit: 10;"/>
    <polygon points="636.5704 206.2153 634.9972 209.9184 636.5704 213.6216 627.7921 209.9184 636.5704 206.2153"/>
  </g>
  <g>
    <polyline points="627.7921 221.0159 660.0381 221.0159 660.0381 246.2842" style="fill: none; stroke: #000; stroke-miterlimit: 10;"/>
    <polygon points="656.335 243.4756 660.0381 245.0489 663.7413 243.4756 660.0381 252.254 656.335 243.4756"/>
  </g>
</svg>