<?xml version="1.0" encoding="UTF-8"?>
<svg id="_layer_1" xmlns="http://www.w3.org/2000/svg" viewBox="0 0 470.0866 221.413">
  <g>
    <g style="isolation: isolate;">
      <g style="isolation: isolate;">
        <text transform="translate(76.9685 199.3265)" style="font-family: NotoSerifSC-Regular, &apos;Noto Serif SC&apos;; font-size: 18px; isolation: isolate;"><tspan x="0" y="0">阻塞</tspan></text>
      </g>
    </g>
    <circle cx="94.9684" cy="191.605" r="28.9524" style="fill: none; stroke: #000; stroke-miterlimit: 10;"/>
  </g>
  <g>
    <g style="isolation: isolate;">
      <g style="isolation: isolate;">
        <text transform="translate(264.2062 199.3265)" style="font-family: NotoSerifSC-Regular, &apos;Noto Serif SC&apos;; font-size: 18px; isolation: isolate;"><tspan x="0" y="0">执行</tspan></text>
      </g>
    </g>
    <circle cx="282.2062" cy="191.605" r="28.9524" style="fill: none; stroke: #000; stroke-miterlimit: 10;"/>
  </g>
  <g>
    <g style="isolation: isolate;">
      <g style="isolation: isolate;">
        <text transform="translate(170.5873 37.1738)" style="font-family: NotoSerifSC-Regular, &apos;Noto Serif SC&apos;; font-size: 18px; isolation: isolate;"><tspan x="0" y="0">就绪</tspan></text>
      </g>
    </g>
    <circle cx="188.5873" cy="29.4524" r="28.9524" style="fill: none; stroke: #000; stroke-miterlimit: 10;"/>
  </g>
  <g style="isolation: isolate;">
    <g style="isolation: isolate;">
      <text transform="translate(118.2626 137.1913) rotate(-60)" style="font-family: NotoSerifSC-Regular, &apos;Noto Serif SC&apos;; font-size: 18px; isolation: isolate;"><tspan x="0" y="0">I/O完成</tspan></text>
    </g>
  </g>
  <g>
    <line x1="109.4429" y1="166.5346" x2="171.1281" y2="59.6927" style="fill: none; stroke: #000; stroke-miterlimit: 10;"/>
    <polygon points="172.9307 63.9766 170.5104 60.7626 166.5167 60.2735 174.1129 54.5228 172.9307 63.9766"/>
  </g>
  <g>
    <line x1="194.4284" y1="58.4047" x2="255.8391" y2="169.435" style="fill: none; stroke: #000; stroke-miterlimit: 10;"/>
    <polygon points="251.2391 168.7696 255.2412 168.354 257.7201 165.185 258.7283 174.6589 251.2391 168.7696"/>
  </g>
  <g>
    <line x1="276.5116" y1="162.6526" x2="215.1011" y2="51.6224" style="fill: none; stroke: #000; stroke-miterlimit: 10;"/>
    <polygon points="219.7009 52.2878 215.699 52.7034 213.2199 55.8724 212.2118 46.3985 219.7009 52.2878"/>
  </g>
  <g>
    <line x1="252.8369" y1="191.6341" x2="129.0836" y2="191.5773" style="fill: none; stroke: #000; stroke-miterlimit: 10;"/>
    <polygon points="131.894 187.8755 130.319 191.5779 131.8905 195.2817 123.1139 191.5746 131.894 187.8755"/>
  </g>
  <g>
    <line x1="311.0475" y1="191.6355" x2="405.7444" y2="191.6355" style="fill: none; stroke: #000; stroke-miterlimit: 10;"/>
    <polygon points="402.9359 195.3386 404.5092 191.6355 402.9359 187.9324 411.7141 191.6355 402.9359 195.3386"/>
  </g>
  <g style="isolation: isolate;">
    <g style="isolation: isolate;">
      <text transform="translate(235.1232 73.0645) rotate(61.3622)" style="font-family: NotoSerifSC-Regular, &apos;Noto Serif SC&apos;; font-size: 18px; isolation: isolate;"><tspan x="0" y="0">时间片完</tspan></text>
    </g>
  </g>
  <g style="isolation: isolate;">
    <g style="isolation: isolate;">
      <text transform="translate(192.0968 95.8218) rotate(61.3622)" style="font-family: NotoSerifSC-Regular, &apos;Noto Serif SC&apos;; font-size: 18px; isolation: isolate;"><tspan x="0" y="0">进程调度</tspan></text>
    </g>
  </g>
  <g style="isolation: isolate;">
    <g style="isolation: isolate;">
      <text transform="translate(156.5836 211.6935)" style="font-family: NotoSerifSC-Regular, &apos;Noto Serif SC&apos;; font-size: 18px; isolation: isolate;"><tspan x="0" y="0">I/O请求</tspan></text>
    </g>
  </g>
  <g style="isolation: isolate;">
    <g style="isolation: isolate;">
      <text transform="translate(338.2465 211.6939)" style="font-family: NotoSerifSC-Regular, &apos;Noto Serif SC&apos;; font-size: 18px; isolation: isolate;"><tspan x="0" y="0">终止</tspan></text>
    </g>
  </g>
  <g>
    <g style="isolation: isolate;">
      <g style="isolation: isolate;">
        <text transform="translate(11.4524 37.1738)" style="font-family: NotoSerifSC-Regular, &apos;Noto Serif SC&apos;; font-size: 18px; isolation: isolate;"><tspan x="0" y="0">创建</tspan></text>
      </g>
    </g>
    <circle cx="29.4524" cy="29.4524" r="28.9524" style="fill: none; stroke: #000; stroke-miterlimit: 10;"/>
  </g>
  <g>
    <g style="isolation: isolate;">
      <g style="isolation: isolate;">
        <text transform="translate(422.6342 199.3263)" style="font-family: NotoSerifSC-Regular, &apos;Noto Serif SC&apos;; font-size: 18px; isolation: isolate;"><tspan x="0" y="0">终止</tspan></text>
      </g>
    </g>
    <circle cx="440.6342" cy="191.605" r="28.9524" style="fill: none; stroke: #000; stroke-miterlimit: 10;"/>
  </g>
  <g>
    <line x1="59.1096" y1="30.3339" x2="153.8065" y2="30.3339" style="fill: none; stroke: #000; stroke-miterlimit: 10;"/>
    <polygon points="150.998 34.037 152.5713 30.3339 150.998 26.6308 159.7762 30.3339 150.998 34.037"/>
  </g>
</svg>