<?xml version="1.0" encoding="UTF-8"?>
<svg id="_layer_1" xmlns="http://www.w3.org/2000/svg" viewBox="0 0 671.9157 330.7275">
  <g style="isolation: isolate;">
    <text transform="translate(32.5003 48.172)" style="font-family: NotoSerifSC-Regular, &apos;Noto Serif SC&apos;; font-size: 18px; isolation: isolate;"><tspan x="0" y="0">内存</tspan></text>
  </g>
  <g>
    <rect x=".5" y="28.1084" width="100" height="100" style="fill: none; stroke: #000; stroke-miterlimit: 10;"/>
    <line x1=".5" y1="103.1084" x2="100.5" y2="103.1084" style="fill: none; stroke: #000; stroke-miterlimit: 10;"/>
    <line x1=".5" y1="78.1084" x2="100.5" y2="78.1084" style="fill: none; stroke: #000; stroke-miterlimit: 10;"/>
    <line x1=".5" y1="53.1084" x2="100.5" y2="53.1084" style="fill: none; stroke: #000; stroke-miterlimit: 10;"/>
  </g>
  <g style="isolation: isolate;">
    <text transform="translate(32.4999 72.9434)" style="font-family: NotoSerifSC-Regular, &apos;Noto Serif SC&apos;; font-size: 18px; isolation: isolate;"><tspan x="0" y="0">设备</tspan></text>
  </g>
  <g style="isolation: isolate;">
    <text transform="translate(32.5002 97.5782)" style="font-family: NotoSerifSC-Regular, &apos;Noto Serif SC&apos;; font-size: 18px; isolation: isolate;"><tspan x="0" y="0">文件</tspan></text>
  </g>
  <g style="isolation: isolate;">
    <text transform="translate(32.4999 122.4671)" style="font-family: NotoSerifSC-Regular, &apos;Noto Serif SC&apos;; font-size: 18px; isolation: isolate;"><tspan x="0" y="0">进程</tspan></text>
  </g>
  <rect x="241.7821" y=".5" width="100" height="25" style="fill: none; stroke: #000; stroke-miterlimit: 10;"/>
  <g style="isolation: isolate;">
    <text transform="translate(264.7819 20.208)" style="font-family: NotoSerifSC-Regular, &apos;Noto Serif SC&apos;; font-size: 18px; isolation: isolate;"><tspan x="0" y="0">内存表</tspan></text>
  </g>
  <g>
    <polyline points="100.3096 41.3783 160.1191 41.3783 160.1191 13.0925 235.4827 13.0925" style="fill: none; stroke: #000; stroke-miterlimit: 10;"/>
    <polygon points="232.6741 16.7957 234.2474 13.0925 232.6741 9.3894 241.4524 13.0925 232.6741 16.7957"/>
  </g>
  <rect x="242.5318" y="53.6035" width="100" height="25" style="fill: none; stroke: #000; stroke-miterlimit: 10;"/>
  <g style="isolation: isolate;">
    <text transform="translate(265.5315 73.3115)" style="font-family: NotoSerifSC-Regular, &apos;Noto Serif SC&apos;; font-size: 18px; isolation: isolate;"><tspan x="0" y="0">设备表</tspan></text>
  </g>
  <g>
    <line x1="100.5" y1="66.1035" x2="236.562" y2="66.1035" style="fill: none; stroke: #000; stroke-miterlimit: 10;"/>
    <polygon points="233.7535 69.8067 235.3267 66.1035 233.7535 62.4004 242.5318 66.1035 233.7535 69.8067"/>
  </g>
  <g>
    <polyline points="100.9445 89.6145 160.754 89.6145 160.754 116.2592 236.1176 116.2592" style="fill: none; stroke: #000; stroke-miterlimit: 10;"/>
    <polygon points="233.309 119.9624 234.8823 116.2592 233.309 112.5561 242.0873 116.2592 233.309 119.9624"/>
  </g>
  <rect x="241.7821" y="103.7592" width="100" height="25" style="fill: none; stroke: #000; stroke-miterlimit: 10;"/>
  <g style="isolation: isolate;">
    <text transform="translate(264.7819 123.4672)" style="font-family: NotoSerifSC-Regular, &apos;Noto Serif SC&apos;; font-size: 18px; isolation: isolate;"><tspan x="0" y="0">文件表</tspan></text>
  </g>
  <g>
    <rect x="241.3254" y="175.8386" width="100" height="75" style="fill: none; stroke: #000; stroke-miterlimit: 10;"/>
    <line x1="241.3254" y1="225.8386" x2="341.3254" y2="225.8386" style="fill: none; stroke: #000; stroke-miterlimit: 10;"/>
    <line x1="241.3254" y1="200.8386" x2="341.3254" y2="200.8386" style="fill: none; stroke: #000; stroke-miterlimit: 10;"/>
  </g>
  <g style="isolation: isolate;">
    <text transform="translate(269.0685 195.2265)" style="font-family: NotoSerifSC-Regular, &apos;Noto Serif SC&apos;; font-size: 18px; isolation: isolate;"><tspan x="0" y="0">进程1</tspan></text>
  </g>
  <g style="isolation: isolate;">
    <text transform="translate(268.4293 221.1108)" style="font-family: NotoSerifSC-Regular, &apos;Noto Serif SC&apos;; font-size: 18px; isolation: isolate;"><tspan x="0" y="0">进程2</tspan></text>
  </g>
  <g style="isolation: isolate;">
    <text transform="translate(268.4474 245.5902)" style="font-family: NotoSerifSC-Regular, &apos;Noto Serif SC&apos;; font-size: 18px; isolation: isolate;"><tspan x="0" y="0">进程3</tspan></text>
  </g>
  <rect x="241.3254" y="305.7275" width="100" height="25" style="fill: none; stroke: #000; stroke-miterlimit: 10;"/>
  <g style="isolation: isolate;">
    <text transform="translate(267.4663 324.2299)" style="font-family: NotoSerifSC-Regular, &apos;Noto Serif SC&apos;; font-size: 18px; isolation: isolate;"><tspan x="0" y="0">进程n</tspan></text>
  </g>
  <g>
    <circle cx="291.5602" cy="270.6131" r="1.4142"/>
    <circle cx="291.5602" cy="278.283" r="1.4142"/>
    <circle cx="291.5602" cy="285.9529" r="1.4142"/>
  </g>
  <rect x="473.9157" y="98.2325" width="100" height="61.1587" style="fill: none; stroke: #000; stroke-miterlimit: 10;"/>
  <g style="isolation: isolate;">
    <text transform="translate(501.6589 136.4257)" style="font-family: NotoSerifSC-Regular, &apos;Noto Serif SC&apos;; font-size: 18px; isolation: isolate;"><tspan x="0" y="0">进程1</tspan></text>
  </g>
  <rect x="473.9157" y="233.7008" width="100" height="61.1587" style="fill: none; stroke: #000; stroke-miterlimit: 10;"/>
  <g style="isolation: isolate;">
    <text transform="translate(499.883 271.894)" style="font-family: NotoSerifSC-Regular, &apos;Noto Serif SC&apos;; font-size: 18px; isolation: isolate;"><tspan x="0" y="0">进程n</tspan></text>
  </g>
  <g style="isolation: isolate;">
    <text transform="translate(473.9157 91.3115)" style="font-family: NotoSerifSC-Regular, &apos;Noto Serif SC&apos;; font-size: 18px; isolation: isolate;"><tspan x="0" y="0">进程实体及作用资源列表</tspan></text>
  </g>
  <g style="isolation: isolate;">
    <text transform="translate(471.606 225.8383)" style="font-family: NotoSerifSC-Regular, &apos;Noto Serif SC&apos;; font-size: 18px; isolation: isolate;"><tspan x="0" y="0">进程实体及作用资源列表</tspan></text>
  </g>
  <g>
    <circle cx="523.9157" cy="177.6994" r="1.4142"/>
    <circle cx="523.9157" cy="185.3693" r="1.4142"/>
    <circle cx="523.9157" cy="193.0392" r="1.4142"/>
  </g>
  <g>
    <polyline points="341.3254 188.3866 402.0427 188.3866 402.0427 129.5859 468.5222 129.5859" style="fill: none; stroke: #000; stroke-miterlimit: 10;"/>
    <polygon points="465.7136 133.289 467.2868 129.5859 465.7136 125.8828 474.4919 129.5859 465.7136 133.289"/>
  </g>
  <g>
    <polyline points="341.3254 318.2275 407.9087 318.2275 407.9087 265.0541 468.5222 265.0541" style="fill: none; stroke: #000; stroke-miterlimit: 10;"/>
    <polygon points="465.7136 268.7573 467.2868 265.0541 465.7136 261.351 474.4919 265.0541 465.7136 268.7573"/>
  </g>
  <g>
    <polyline points="100.3096 115.6273 131.0586 115.6273 131.0586 188.3866 235.3557 188.3866" style="fill: none; stroke: #000; stroke-miterlimit: 10;"/>
    <polygon points="232.5471 192.0897 234.1204 188.3866 232.5471 184.6835 241.3254 188.3866 232.5471 192.0897"/>
  </g>
</svg>