<?xml version="1.0" encoding="UTF-8"?>
<svg id="_layer_1" xmlns="http://www.w3.org/2000/svg" viewBox="0 0 346.1981 221.3979">
  <g>
    <g style="isolation: isolate;">
      <text transform="translate(11.4525 199.3265)" style="font-family: NotoSerifSC-ExtraLight, &apos;Noto Serif SC&apos;; font-size: 18px; font-weight: 200; isolation: isolate;"><tspan x="0" y="0">阻塞</tspan></text>
    </g>
    <circle cx="29.4524" cy="191.605" r="28.9524" style="fill: none; stroke: #000; stroke-miterlimit: 10;"/>
  </g>
  <g>
    <g style="isolation: isolate;">
      <text transform="translate(198.6902 199.3265)" style="font-family: NotoSerifSC-ExtraLight, &apos;Noto Serif SC&apos;; font-size: 18px; font-weight: 200; isolation: isolate;"><tspan x="0" y="0">执行</tspan></text>
    </g>
    <circle cx="216.6902" cy="191.605" r="28.9524" style="fill: none; stroke: #000; stroke-miterlimit: 10;"/>
  </g>
  <g>
    <g style="isolation: isolate;">
      <text transform="translate(105.0713 37.1738)" style="font-family: NotoSerifSC-ExtraLight, &apos;Noto Serif SC&apos;; font-size: 18px; font-weight: 200; isolation: isolate;"><tspan x="0" y="0">就绪</tspan></text>
    </g>
    <circle cx="123.0713" cy="29.4524" r="28.9524" style="fill: none; stroke: #000; stroke-miterlimit: 10;"/>
  </g>
  <g style="isolation: isolate;">
    <text transform="translate(52.7466 137.1913) rotate(-60)" style="font-family: NotoSerifSC-ExtraLight, &apos;Noto Serif SC&apos;; font-size: 18px; font-weight: 200; isolation: isolate;"><tspan x="0" y="0">I/O完成</tspan></text>
  </g>
  <g>
    <line x1="43.9269" y1="166.5346" x2="105.612" y2="59.6927" style="fill: none; stroke: #000; stroke-miterlimit: 10;"/>
    <polygon points="107.4147 63.9766 104.9944 60.7626 101.0007 60.2735 108.5969 54.5228 107.4147 63.9766"/>
  </g>
  <g>
    <line x1="128.9124" y1="58.4047" x2="190.323" y2="169.435" style="fill: none; stroke: #000; stroke-miterlimit: 10;"/>
    <polygon points="185.7231 168.7696 189.7251 168.354 192.2041 165.185 193.2123 174.6589 185.7231 168.7696"/>
  </g>
  <g>
    <line x1="210.9956" y1="162.6526" x2="149.5851" y2="51.6224" style="fill: none; stroke: #000; stroke-miterlimit: 10;"/>
    <polygon points="154.1849 52.2878 150.183 52.7034 147.7039 55.8724 146.6958 46.3985 154.1849 52.2878"/>
  </g>
  <g>
    <line x1="187.3209" y1="191.6341" x2="63.5676" y2="191.5773" style="fill: none; stroke: #000; stroke-miterlimit: 10;"/>
    <polygon points="66.3779 187.8755 64.803 191.5779 66.3745 195.2817 57.5979 191.5746 66.3779 187.8755"/>
  </g>
  <g>
    <line x1="245.5315" y1="191.6355" x2="340.2284" y2="191.6355" style="fill: none; stroke: #000; stroke-miterlimit: 10;"/>
    <polygon points="337.4198 195.3386 338.9931 191.6355 337.4198 187.9324 346.1981 191.6355 337.4198 195.3386"/>
  </g>
  <g style="isolation: isolate;">
    <text transform="translate(169.6067 73.0645) rotate(61.3622)" style="font-family: NotoSerifSC-ExtraLight, &apos;Noto Serif SC&apos;; font-size: 18px; font-weight: 200; isolation: isolate;"><tspan x="0" y="0">时间片完</tspan></text>
  </g>
  <g style="isolation: isolate;">
    <text transform="translate(126.5804 95.8218) rotate(61.3622)" style="font-family: NotoSerifSC-ExtraLight, &apos;Noto Serif SC&apos;; font-size: 18px; font-weight: 200; isolation: isolate;"><tspan x="0" y="0">进程调度</tspan></text>
  </g>
  <g style="isolation: isolate;">
    <text transform="translate(91.0676 211.6935)" style="font-family: NotoSerifSC-ExtraLight, &apos;Noto Serif SC&apos;; font-size: 18px; font-weight: 200; isolation: isolate;"><tspan x="0" y="0">I/O请求</tspan></text>
  </g>
  <g style="isolation: isolate;">
    <text transform="translate(272.7305 211.6939)" style="font-family: NotoSerifSC-ExtraLight, &apos;Noto Serif SC&apos;; font-size: 18px; font-weight: 200; isolation: isolate;"><tspan x="0" y="0">终止</tspan></text>
  </g>
</svg>