<?xml version="1.0" encoding="UTF-8"?>
<svg id="_图层_1" xmlns="http://www.w3.org/2000/svg" version="1.1" viewBox="0 0 863.7 398.2">
  <!-- Generator: Adobe Illustrator 29.0.0, SVG Export Plug-In . SVG Version: 2.1.0 Build 186)  -->
  <defs>
    <style>
      .st0 {
        fill: none;
        stroke: #000;
        stroke-miterlimit: 10;
      }

      .st1, .st2 {
        isolation: isolate;
      }

      .st2 {
        font-family: NotoSerifSC-ExtraLight, 'Noto Serif SC';
        font-size: 18px;
        font-weight: 200;
      }
    </style>
  </defs>
  <rect class="st0" x="340.2" y="6.2" width="254.6" height="41.5"/>
  <g class="st1">
    <g class="st1">
      <text class="st2" transform="translate(354.2 34.3)"><tspan x="0" y="0">D02</tspan></text>
    </g>
  </g>
  <g class="st1">
    <g class="st1">
      <text class="st2" transform="translate(418.2 34.3)"><tspan x="0" y="0">计算机</tspan></text>
    </g>
  </g>
  <g class="st1">
    <g class="st1">
      <text class="st2" transform="translate(504.7 34.8)"><tspan x="0" y="0">办公地点</tspan></text>
    </g>
  </g>
  <line class="st0" x1="403.4" y1="6.2" x2="403.4" y2="47.7"/>
  <line class="st0" x1="488.5" y1="6.2" x2="488.5" y2="47.7"/>
  <g class="st1">
    <g class="st1">
      <text class="st2" transform="translate(310 34.3)"><tspan x="0" y="0">系</tspan></text>
    </g>
  </g>
  <g class="st1">
    <g class="st1">
      <g class="st1">
        <text class="st2" transform="translate(153.2 122.2)"><tspan x="0" y="0">教研室</tspan></text>
      </g>
    </g>
  </g>
  <rect class="st0" x="518.3" y="114.2" width="231.8" height="41.5"/>
  <g class="st1">
    <g class="st1">
      <text class="st2" transform="translate(531.3 142.3)"><tspan x="0" y="0">S63871</tspan></text>
    </g>
  </g>
  <g class="st1">
    <g class="st1">
      <text class="st2" transform="translate(617.8 142.9)"><tspan x="0" y="0">文晓静</tspan></text>
    </g>
  </g>
  <line class="st0" x1="604.4" y1="114.2" x2="604.4" y2="155.7"/>
  <line class="st0" x1="687.9" y1="114.2" x2="687.9" y2="155.7"/>
  <g class="st1">
    <g class="st1">
      <text class="st2" transform="translate(713.9 143.4)"><tspan x="0" y="0">A</tspan></text>
    </g>
  </g>
  <g class="st1">
    <g class="st1">
      <g class="st1">
        <text class="st2" transform="translate(464.5 142.3)"><tspan x="0" y="0">学生</tspan></text>
      </g>
    </g>
  </g>
  <rect class="st0" x="89.3" y="271" width="283.4" height="41.5"/>
  <g class="st1">
    <g class="st1">
      <text class="st2" transform="translate(102.3 299.2)"><tspan x="0" y="0">E2101</tspan></text>
    </g>
  </g>
  <g class="st1">
    <g class="st1">
      <text class="st2" transform="translate(183.3 299.2)"><tspan x="0" y="0">王大明</tspan></text>
    </g>
  </g>
  <g class="st1">
    <g class="st1">
      <text class="st2" transform="translate(284.8 299.2)"><tspan x="0" y="0">数据库</tspan></text>
    </g>
  </g>
  <line class="st0" x1="168.4" y1="271" x2="168.4" y2="312.6"/>
  <line class="st0" x1="252.6" y1="271" x2="252.6" y2="312.6"/>
  <g class="st1">
    <g class="st1">
      <text class="st2" transform="translate(391.1 299.2)"><tspan x="0" y="0">教员</tspan></text>
    </g>
  </g>
  <polyline class="st0" points="453.3 47.7 453.3 72.3 324.1 72.3 324.1 107.1"/>
  <polygon points="320.4 104.3 324.1 105.9 327.8 104.3 324.1 113.1 320.4 104.3"/>
  <polyline class="st0" points="453.3 72.3 611.2 72.3 611.2 108.2"/>
  <polygon points="607.5 105.4 611.2 107 614.9 105.4 611.2 114.2 607.5 105.4"/>
  <rect class="st0" x="234.7" y="154.6" width="167.1" height="41.5"/>
  <g class="st1">
    <g class="st1">
      <text class="st2" transform="translate(247.8 182.7)"><tspan x="0" y="0">R02</tspan></text>
    </g>
  </g>
  <g class="st1">
    <g class="st1">
      <text class="st2" transform="translate(313.2 183.3)"><tspan x="0" y="0">信息系统</tspan></text>
    </g>
  </g>
  <line class="st0" x1="294.9" y1="154.6" x2="294.9" y2="196.1"/>
  <rect class="st0" x="221.6" y="113.1" width="167.1" height="41.5"/>
  <g class="st1">
    <g class="st1">
      <text class="st2" transform="translate(234.7 141.2)"><tspan x="0" y="0">R01</tspan></text>
    </g>
  </g>
  <g class="st1">
    <g class="st1">
      <text class="st2" transform="translate(309.1 141.8)"><tspan x="0" y="0">数据库</tspan></text>
    </g>
  </g>
  <line class="st0" x1="281.8" y1="113.1" x2="281.8" y2="154.6"/>
  <rect class="st0" x="248.8" y="196.1" width="167.1" height="41.5"/>
  <g class="st1">
    <g class="st1">
      <text class="st2" transform="translate(261.9 224.2)"><tspan x="0" y="0">R03</tspan></text>
    </g>
  </g>
  <g class="st1">
    <g class="st1">
      <text class="st2" transform="translate(343.3 224.8)"><tspan x="0" y="0">网络</tspan></text>
    </g>
  </g>
  <line class="st0" x1="309" y1="196.1" x2="309" y2="237.6"/>
  <rect class="st0" x="530.2" y="155.7" width="231.8" height="41.5"/>
  <g class="st1">
    <g class="st1">
      <text class="st2" transform="translate(543.2 183.8)"><tspan x="0" y="0">S63874</tspan></text>
    </g>
  </g>
  <g class="st1">
    <g class="st1">
      <text class="st2" transform="translate(640.7 184.4)"><tspan x="0" y="0">刘华</tspan></text>
    </g>
  </g>
  <line class="st0" x1="616.3" y1="155.7" x2="616.3" y2="197.2"/>
  <line class="st0" x1="699.8" y1="155.7" x2="699.8" y2="197.2"/>
  <g class="st1">
    <g class="st1">
      <text class="st2" transform="translate(724.8 184.9)"><tspan x="0" y="0">C</tspan></text>
    </g>
  </g>
  <rect class="st0" x="544.2" y="197.2" width="231.8" height="41.5"/>
  <g class="st1">
    <g class="st1">
      <text class="st2" transform="translate(557.2 225.3)"><tspan x="0" y="0">S63876</tspan></text>
    </g>
  </g>
  <g class="st1">
    <g class="st1">
      <text class="st2" transform="translate(654.7 225.9)"><tspan x="0" y="0">张君</tspan></text>
    </g>
  </g>
  <line class="st0" x1="630.3" y1="197.2" x2="630.3" y2="238.7"/>
  <line class="st0" x1="713.8" y1="197.2" x2="713.8" y2="238.7"/>
  <g class="st1">
    <g class="st1">
      <text class="st2" transform="translate(738.8 226.4)"><tspan x="0" y="0">A</tspan></text>
    </g>
  </g>
  <rect class="st0" x="103.3" y="312.6" width="283.4" height="41.5"/>
  <g class="st1">
    <g class="st1">
      <text class="st2" transform="translate(116.3 340.8)"><tspan x="0" y="0">E1709</tspan></text>
    </g>
  </g>
  <g class="st1">
    <g class="st1">
      <text class="st2" transform="translate(206.3 340.8)"><tspan x="0" y="0">冯灵</tspan></text>
    </g>
  </g>
  <g class="st1">
    <g class="st1">
      <text class="st2" transform="translate(289.8 340.8)"><tspan x="0" y="0">数据仓库</tspan></text>
    </g>
  </g>
  <line class="st0" x1="182.4" y1="312.6" x2="182.4" y2="354.2"/>
  <line class="st0" x1="266.6" y1="312.6" x2="266.6" y2="354.2"/>
  <rect class="st0" x="117.3" y="354.1" width="283.4" height="41.5"/>
  <g class="st1">
    <g class="st1">
      <text class="st2" transform="translate(130.3 382.3)"><tspan x="0" y="0">E3501</tspan></text>
    </g>
  </g>
  <g class="st1">
    <g class="st1">
      <text class="st2" transform="translate(220.3 382.3)"><tspan x="0" y="0">孟勇</tspan></text>
    </g>
  </g>
  <g class="st1">
    <g class="st1">
      <text class="st2" transform="translate(295.8 382.3)"><tspan x="0" y="0">并行数据库</tspan></text>
    </g>
  </g>
  <line class="st0" x1="196.4" y1="354.1" x2="196.4" y2="395.7"/>
  <line class="st0" x1="280.6" y1="354.1" x2="280.6" y2="395.7"/>
  <g>
    <polyline class="st0" points="221.6 133.9 187.2 133.9 187.2 265.1"/>
    <polygon points="183.5 262.2 187.2 263.8 190.9 262.2 187.2 271 183.5 262.2"/>
  </g>
  <rect class="st0" x="441.7" y="271" width="283.4" height="41.5"/>
  <g class="st1">
    <g class="st1">
      <text class="st2" transform="translate(454.7 299.2)"><tspan x="0" y="0">E1101</tspan></text>
    </g>
  </g>
  <g class="st1">
    <g class="st1">
      <text class="st2" transform="translate(543.7 299.2)"><tspan x="0" y="0">陈芝</tspan></text>
    </g>
  </g>
  <g class="st1">
    <g class="st1">
      <text class="st2" transform="translate(630.2 299.2)"><tspan x="0" y="0">网络安全</tspan></text>
    </g>
  </g>
  <line class="st0" x1="520.8" y1="271" x2="520.8" y2="312.6"/>
  <line class="st0" x1="605" y1="271" x2="605" y2="312.6"/>
  <rect class="st0" x="455.8" y="312.6" width="283.4" height="41.5"/>
  <g class="st1">
    <g class="st1">
      <text class="st2" transform="translate(468.8 340.8)"><tspan x="0" y="0">E3102</tspan></text>
    </g>
  </g>
  <g class="st1">
    <g class="st1">
      <text class="st2" transform="translate(558.8 340.8)"><tspan x="0" y="0">张豪</tspan></text>
    </g>
  </g>
  <g class="st1">
    <g class="st1">
      <text class="st2" transform="translate(642.3 340.8)"><tspan x="0" y="0">网络管理</tspan></text>
    </g>
  </g>
  <line class="st0" x1="534.9" y1="312.6" x2="534.9" y2="354.2"/>
  <line class="st0" x1="619.1" y1="312.6" x2="619.1" y2="354.2"/>
  <g>
    <polyline class="st0" points="415.1 216.9 478.9 216.9 478.9 265.1"/>
    <polygon points="475.2 262.2 478.9 263.8 482.6 262.2 478.9 271 475.2 262.2"/>
  </g>
</svg>