<?xml version="1.0" encoding="UTF-8"?>
<svg id="_图层_1" data-name="图层_1" xmlns="http://www.w3.org/2000/svg" viewBox="0 0 863.69 200.9756">
  <g>
    <text transform="translate(513.1897 21.6234)" style="font-family: AdobeSongStd-Light-GBpc-EUC-H, &apos;Adobe Song Std&apos;; font-size: 18px; font-weight: 300;"><tspan x="0" y="0">根结点</tspan></text>
    <g>
      <rect x="440.4162" y=".5" width="62.5873" height="29.7143" style="fill: none; stroke: #000; stroke-miterlimit: 10;"/>
      <g>
        <text transform="translate(462.4368 21.6237)" style="font-family: &apos;KaTeX_Main-Italic&apos;, KaTeX_Main; font-size: 18px; font-style: italic;"><tspan x="0" y="0">R</tspan></text>
        <text transform="translate(475.7362 23.6362) scale(.5151 .583)" style="font-family: &apos;KaTeX_Math-Italic&apos;, KaTeX_Math; font-size: 20.3719px; font-style: italic;"><tspan x="0" y="0">1</tspan></text>
      </g>
    </g>
  </g>
  <g>
    <g>
      <rect x="354.4625" y="73.8625" width="62.5873" height="29.7143" style="fill: none; stroke: #000; stroke-miterlimit: 10;"/>
      <g>
        <text transform="translate(376.4831 94.9863)" style="font-family: &apos;KaTeX_Main-Italic&apos;, KaTeX_Main; font-size: 18px; font-style: italic;"><tspan x="0" y="0">R</tspan></text>
        <text transform="translate(389.7826 96.7896) scale(.4765 .583)" style="font-family: &apos;KaTeX_Math-Italic&apos;, KaTeX_Math; font-size: 22.0249px; font-style: italic;"><tspan x="0" y="0">2</tspan></text>
      </g>
    </g>
    <g>
      <rect x="526.3699" y="73.8625" width="62.5873" height="29.7143" style="fill: none; stroke: #000; stroke-miterlimit: 10;"/>
      <g>
        <text transform="translate(548.3905 94.9862)" style="font-family: &apos;KaTeX_Main-Italic&apos;, KaTeX_Main; font-size: 18px; font-style: italic;"><tspan x="0" y="0">R</tspan></text>
        <text transform="translate(561.6898 95.3009) scale(.583)" style="font-family: &apos;KaTeX_Math-Italic&apos;, KaTeX_Math; font-size: 18px; font-style: italic;"><tspan x="0" y="0">3</tspan></text>
      </g>
    </g>
    <text transform="translate(435.71 94.9861)" style="font-family: AdobeSongStd-Light-GBpc-EUC-H, &apos;Adobe Song Std&apos;; font-size: 18px; font-weight: 300;"><tspan x="0" y="0">兄弟结点</tspan></text>
  </g>
  <g>
    <g>
      <rect x="274.7328" y="147.225" width="62.5873" height="29.7143" style="fill: none; stroke: #000; stroke-miterlimit: 10;"/>
      <g>
        <text transform="translate(296.7535 168.3488)" style="font-family: &apos;KaTeX_Main-Italic&apos;, KaTeX_Main; font-size: 18px; font-style: italic;"><tspan x="0" y="0">R</tspan></text>
        <text transform="translate(310.0528 168.6634) scale(.583)" style="font-family: &apos;KaTeX_Math-Italic&apos;, KaTeX_Math; font-size: 18px; font-style: italic;"><tspan x="0" y="0">4</tspan></text>
      </g>
    </g>
    <g>
      <rect x="434.1921" y="147.225" width="62.5873" height="29.7143" style="fill: none; stroke: #000; stroke-miterlimit: 10;"/>
      <g>
        <text transform="translate(456.2127 168.3488)" style="font-family: &apos;KaTeX_Main-Italic&apos;, KaTeX_Main; font-size: 18px; font-style: italic;"><tspan x="0" y="0">R</tspan></text>
        <text transform="translate(469.5121 168.6634) scale(.583)" style="font-family: &apos;KaTeX_Math-Italic&apos;, KaTeX_Math; font-size: 18px; font-style: italic;"><tspan x="0" y="0">5</tspan></text>
      </g>
    </g>
    <text transform="translate(349.756 167.7162)" style="font-family: AdobeSongStd-Light-GBpc-EUC-H, &apos;Adobe Song Std&apos;; font-size: 18px; font-weight: 300;"><tspan x="0" y="0">兄弟结点</tspan></text>
  </g>
  <text transform="translate(531.3869 124.7849)" style="font-family: AdobeSongStd-Light-GBpc-EUC-H, &apos;Adobe Song Std&apos;; font-size: 18px; font-weight: 300;"><tspan x="0" y="0">叶节点</tspan></text>
  <text transform="translate(280.2204 196.4039)" style="font-family: AdobeSongStd-Light-GBpc-EUC-H, &apos;Adobe Song Std&apos;; font-size: 18px; font-weight: 300;"><tspan x="0" y="0">叶节点</tspan></text>
  <text transform="translate(442.1013 196.4042)" style="font-family: AdobeSongStd-Light-GBpc-EUC-H, &apos;Adobe Song Std&apos;; font-size: 18px; font-weight: 300;"><tspan x="0" y="0">叶节点</tspan></text>
  <g>
    <polyline points="471.7098 30.2143 471.7098 47.4048 385.7561 47.4048 385.7561 67.8928" style="fill: none; stroke: #000; stroke-miterlimit: 10;"/>
    <polygon points="382.053 65.0842 385.7561 66.6574 389.4593 65.0842 385.7561 73.8625 382.053 65.0842"/>
  </g>
  <g>
    <polyline points="471.7098 47.4048 557.6635 47.4048 557.6635 67.8928" style="fill: none; stroke: #000; stroke-miterlimit: 10;"/>
    <polygon points="553.9604 65.0842 557.6635 66.6574 561.3666 65.0842 557.6635 73.8625 553.9604 65.0842"/>
  </g>
  <g>
    <polyline points="385.7561 102.961 385.7561 120.1515 306.0265 120.1515 306.0265 141.2553" style="fill: none; stroke: #000; stroke-miterlimit: 10;"/>
    <polygon points="302.3234 138.4467 306.0265 140.0199 309.7296 138.4467 306.0265 147.225 302.3234 138.4467"/>
  </g>
  <g>
    <polyline points="385.7561 120.1515 465.4858 120.1515 465.4858 141.2553" style="fill: none; stroke: #000; stroke-miterlimit: 10;"/>
    <polygon points="461.7827 138.4467 465.4858 140.0199 469.1889 138.4467 465.4858 147.225 461.7827 138.4467"/>
  </g>
</svg>