<?xml version="1.0" encoding="UTF-8"?>
<svg xmlns="http://www.w3.org/2000/svg" version="1.1" viewBox="0 0 863.7 243">
  <defs>
    <style>
      .cls-1 {
        fill: none;
        stroke: #000;
        stroke-miterlimit: 10;
      }

      .cls-2, .cls-3 {
        isolation: isolate;
      }

      .cls-3, .cls-4 {
        font-family: NotoSerifSC-ExtraLight, 'Noto Serif SC';
        font-size: 18px;
        font-weight: 200;
      }
    </style>
  </defs>
  <!-- Generator: Adobe Illustrator 28.7.1, SVG Export Plug-In . SVG Version: 1.2.0 Build 142)  -->
  <g>
    <g id="_图层_1" data-name="图层_1">
      <g>
        <polygon class="cls-1" points="499.2 76 423.8 76 386.1 119.3 423.8 162.6 499.2 162.6 536.9 119.3 499.2 76"/>
        <text class="cls-4" transform="translate(434.5 114.1)"><tspan x="0" y="0">数据库</tspan><tspan x="-9" y="21.6">管理系统</tspan></text>
        <g>
          <rect class="cls-1" x="158.4" y="3.2" width="118.5" height="44.2"/>
          <text class="cls-4" transform="translate(176.9 32.5)"><tspan x="0" y="0">应用程序1</tspan></text>
        </g>
        <g>
          <rect class="cls-1" x="158.4" y="82.7" width="118.5" height="44.2"/>
          <text class="cls-4" transform="translate(176.9 112)"><tspan x="0" y="0">应用程序2</tspan></text>
        </g>
        <g>
          <circle class="cls-1" cx="161.1" cy="200.5" r="7.7"/>
          <path class="cls-1" d="M142.2,238l9-7.4c-2.5-19.6,10-22.3,10-22.3l16.7,6.3"/>
          <line class="cls-1" x1="161.1" y1="208.2" x2="174.6" y2="219.4"/>
          <line class="cls-1" x1="151.1" y1="230.5" x2="161.1" y2="238"/>
          <rect class="cls-1" x="177.8" y="195.3" width="99" height="19.2"/>
          <polyline class="cls-1" points="276.9 214.7 268.2 226 169.2 226 178 214.7"/>
        </g>
        <g>
          <circle cx="215.2" cy="169" r="1.9"/>
          <circle cx="215.2" cy="158" r="1.9"/>
          <circle cx="215.2" cy="147" r="1.9"/>
        </g>
        <line class="cls-1" x1="276.9" y1="25.3" x2="404.4" y2="98.3"/>
        <line class="cls-1" x1="276.8" y1="104.8" x2="386.1" y2="119.3"/>
        <line class="cls-1" x1="276.8" y1="200.5" x2="405.8" y2="141.9"/>
        <g>
          <ellipse class="cls-1" cx="662.2" cy="52.4" rx="59.3" ry="23.5"/>
          <line class="cls-1" x1="602.9" y1="52.4" x2="602.9" y2="175.9"/>
          <line class="cls-1" x1="721.4" y1="52.4" x2="721.4" y2="175.9"/>
          <g class="cls-2">
            <g class="cls-2">
              <text class="cls-3" transform="translate(635.2 59.7)"><tspan x="0" y="0">数据库</tspan></text>
            </g>
          </g>
          <path class="cls-1" d="M721.5,175.9c0,13-26.5,23.5-59.3,23.5s-59.3-10.5-59.3-23.5"/>
          <rect class="cls-1" x="615.6" y="91.6" width="37.5" height="15.4"/>
          <rect class="cls-1" x="615.6" y="123.8" width="37.5" height="15.4"/>
          <rect class="cls-1" x="668.9" y="123.8" width="37.5" height="15.4"/>
          <rect class="cls-1" x="643.5" y="156.6" width="37.5" height="15.4"/>
          <g>
            <path class="cls-1" d="M634.3,107c0,.6,0,6.2,0,10.8"/>
            <polygon points="630.6 115 634.3 116.6 638 115 634.3 123.8 630.6 115"/>
          </g>
          <g>
            <path class="cls-1" d="M644.3,139.2c.4,0,3,6.7,4.9,11.7"/>
            <polygon points="644.8 149.7 648.8 149.8 651.7 147 651.4 156.6 644.8 149.7"/>
          </g>
          <g>
            <line class="cls-1" x1="674" y1="139" x2="670.3" y2="150.9"/>
            <polygon points="667.6 147.1 670.7 149.7 674.7 149.3 668.5 156.6 667.6 147.1"/>
          </g>
        </g>
        <line class="cls-1" x1="536.9" y1="119.3" x2="602.9" y2="119.3"/>
      </g>
    </g>
  </g>
</svg>