<?xml version="1.0" encoding="UTF-8"?>
<svg id="_图层_1" data-name=" 图层 1" xmlns="http://www.w3.org/2000/svg" viewBox="0 0 863.69 166.2857">
  <rect x="228.3743" y="3.9683" width="165.7778" height="32.5714" style="fill: none; stroke: #000; stroke-miterlimit: 10;"/>
  <text transform="translate(236.4379 27.5929)" style="font-family: AdobeSongStd-Light-GBpc-EUC-H, &apos;Adobe Song Std&apos;; font-size: 18px; font-weight: 300;"><tspan x="0" y="0">学号</tspan></text>
  <text transform="translate(292.2351 27.5927)" style="font-family: AdobeSongStd-Light-GBpc-EUC-H, &apos;Adobe Song Std&apos;; font-size: 18px; font-weight: 300;"><tspan x="0" y="0">姓名</tspan></text>
  <line x1="282.66" y1="3.9683" x2="282.66" y2="36.5397" style="fill: none; stroke: #000; stroke-miterlimit: 10;"/>
  <line x1="339.0409" y1="3.9683" x2="339.0409" y2="36.5397" style="fill: none; stroke: #000; stroke-miterlimit: 10;"/>
  <text transform="translate(346.4948 27.5925)" style="font-family: AdobeSongStd-Light-GBpc-EUC-H, &apos;Adobe Song Std&apos;; font-size: 18px; font-weight: 300;"><tspan x="0" y="0">系别</tspan></text>
  <text transform="translate(176.5256 27.5922)" style="font-family: AdobeSongStd-Light-GBpc-EUC-H, &apos;Adobe Song Std&apos;; font-size: 18px; font-weight: 300;"><tspan x="0" y="0">学生</tspan></text>
  <rect x="481.7936" y="3.9683" width="205.3707" height="32.5714" style="fill: none; stroke: #000; stroke-miterlimit: 10;"/>
  <text transform="translate(489.8573 27.5929)" style="font-family: AdobeSongStd-Light-GBpc-EUC-H, &apos;Adobe Song Std&apos;; font-size: 18px; font-weight: 300;"><tspan x="0" y="0">课程号</tspan></text>
  <text transform="translate(564.64 28.852)" style="font-family: AdobeSongStd-Light-GBpc-EUC-H, &apos;Adobe Song Std&apos;; font-size: 18px; font-weight: 300;"><tspan x="0" y="0">课程名</tspan></text>
  <line x1="553.0691" y1="3.9683" x2="553.0691" y2="36.5397" style="fill: none; stroke: #000; stroke-miterlimit: 10;"/>
  <line x1="630.0215" y1="3.9683" x2="630.0215" y2="36.5397" style="fill: none; stroke: #000; stroke-miterlimit: 10;"/>
  <text transform="translate(640.274 28.852)" style="font-family: AdobeSongStd-Light-GBpc-EUC-H, &apos;Adobe Song Std&apos;; font-size: 18px; font-weight: 300;"><tspan x="0" y="0">学分</tspan></text>
  <text transform="translate(429.945 27.5922)" style="font-family: AdobeSongStd-Light-GBpc-EUC-H, &apos;Adobe Song Std&apos;; font-size: 18px; font-weight: 300;"><tspan x="0" y="0">课程</tspan></text>
  <rect x="337.6088" y="128.746" width="194.127" height="32.5714" style="fill: none; stroke: #000; stroke-miterlimit: 10;"/>
  <text transform="translate(345.6724 152.3707)" style="font-family: AdobeSongStd-Light-GBpc-EUC-H, &apos;Adobe Song Std&apos;; font-size: 18px; font-weight: 300;"><tspan x="0" y="0">学号</tspan></text>
  <text transform="translate(401.4696 152.3705)" style="font-family: AdobeSongStd-Light-GBpc-EUC-H, &apos;Adobe Song Std&apos;; font-size: 18px; font-weight: 300;"><tspan x="0" y="0">课程号</tspan></text>
  <line x1="391.8945" y1="128.746" x2="391.8945" y2="161.3175" style="fill: none; stroke: #000; stroke-miterlimit: 10;"/>
  <line x1="466.5929" y1="128.746" x2="466.5929" y2="161.3175" style="fill: none; stroke: #000; stroke-miterlimit: 10;"/>
  <text transform="translate(480.7937 152.3703)" style="font-family: AdobeSongStd-Light-GBpc-EUC-H, &apos;Adobe Song Std&apos;; font-size: 18px; font-weight: 300;"><tspan x="0" y="0">成绩</tspan></text>
  <text transform="translate(289.2964 153.0366)" style="font-family: AdobeSongStd-Light-GBpc-EUC-H, &apos;Adobe Song Std&apos;; font-size: 18px; font-weight: 300;"><tspan x="0" y="0">选课</tspan></text>
  <g>
    <polyline points="311.2632 36.5397 311.2632 66.0952 365.3231 66.0952 365.3231 122.7763" style="fill: none; stroke: #000; stroke-miterlimit: 10;"/>
    <polygon points="361.6199 119.9677 365.3231 121.541 369.0262 119.9677 365.3231 128.746 361.6199 119.9677"/>
  </g>
  <g>
    <polyline points="516.1096 36.5397 516.1096 66.4762 428.9421 66.4762 428.9421 122.7763" style="fill: none; stroke: #000; stroke-miterlimit: 10;"/>
    <polygon points="425.239 119.9677 428.9421 121.541 432.6453 119.9677 428.9421 128.746 425.239 119.9677"/>
  </g>
  <text transform="translate(263.9862 65.1946)" style="font-family: AdobeSongStd-Light-GBpc-EUC-H, &apos;Adobe Song Std&apos;; font-size: 18px; font-weight: 300;"><tspan x="0" y="0">S-SC</tspan></text>
  <text transform="translate(525.4542 65.1943)" style="font-family: AdobeSongStd-Light-GBpc-EUC-H, &apos;Adobe Song Std&apos;; font-size: 18px; font-weight: 300;"><tspan x="0" y="0">C-SC</tspan></text>
</svg>