<?xml version="1.0" encoding="UTF-8"?>
<svg id="_layer_1" data-name="layer_1" xmlns="http://www.w3.org/2000/svg" viewBox="0 0 863.7 330.8571">
  <text transform="translate(386.8169 124.8063)" style="font-family: NotoSerifSC-ExtraLight, &apos;Noto Serif SC&apos;; font-size: 18px; font-weight: 200;"><tspan x="0" y="0">操</tspan><tspan x="24.3369" y="-12.5889">作</tspan><tspan x="51.6899" y="-11.5469">系</tspan><tspan x="74.9624" y="2.8149">统</tspan></text>
  <path d="M431.8502,240.5527c-41.7816,0-75.7738-33.9917-75.7738-75.7729s33.9922-75.7738,75.7738-75.7738,75.7733,33.9922,75.7733,75.7738-33.9917,75.7729-75.7733,75.7729Z" style="fill: none; stroke: #000; stroke-miterlimit: 10;"/>
  <circle cx="431.85" cy="164.7794" r="42.6667" style="fill: none; stroke: #000; stroke-miterlimit: 10;"/>
  <text transform="translate(413.85 172.3167)" style="font-family: NotoSerifSC-ExtraLight, &apos;Noto Serif SC&apos;; font-size: 18px; font-weight: 200;"><tspan x="0" y="0">硬件</tspan></text>
  <text transform="translate(361.1325 106.5733)" style="font-family: NotoSerifSC-ExtraLight, &apos;Noto Serif SC&apos;; font-size: 18px; font-weight: 200;"><tspan x="0" y="0">数</tspan><tspan x="17.8223" y="-14.4136">据</tspan><tspan x="38.9492" y="-23.5679">库</tspan><tspan x="62.0601" y="-26.6685">管</tspan><tspan x="84.5176" y="-23.5591">理</tspan><tspan x="105.6396" y="-14.397">系</tspan><tspan x="123.457" y=".0229">统</tspan></text>
  <path d="M431.8503,272.4402c-59.3645,0-107.6615-48.2964-107.6615-107.6602s48.297-107.6615,107.6615-107.6615,107.6608,48.297,107.6608,107.6615-48.2964,107.6602-107.6608,107.6602Z" style="fill: none; stroke: #000; stroke-miterlimit: 10;"/>
  <text transform="translate(370.8686 61.6257)" style="font-family: NotoSerifSC-ExtraLight, &apos;Noto Serif SC&apos;; font-size: 18px; font-weight: 200;"><tspan x="0" y="0">应</tspan><tspan x="19.9224" y="-7.8442">用</tspan><tspan x="40.9834" y="-11.8496">开</tspan><tspan x="62.3418" y="-11.9087">发</tspan><tspan x="83.4004" y="-8.0278">工</tspan><tspan x="103.3975" y="-.2847">具</tspan></text>
  <path d="M431.8504,299.054c-74.0394,0-134.2754-60.2353-134.2754-134.2738S357.811,30.5047,431.8504,30.5047s134.2746,60.2361,134.2746,134.2754-60.2353,134.2738-134.2746,134.2738Z" style="fill: none; stroke: #000; stroke-miterlimit: 10;"/>
  <text transform="translate(390.2727 27.5708)" style="font-family: NotoSerifSC-ExtraLight, &apos;Noto Serif SC&apos;; font-size: 18px; font-weight: 200;"><tspan x="0" y="0">应</tspan><tspan x="20.4604" y="-3.2822">用</tspan><tspan x="41.0854" y="-3.5439">系</tspan><tspan x="61.603" y="-.7944">统</tspan></text>
  <path d="M431.8505,327.1564c-89.5351,0-162.378-72.8419-162.378-162.3761S342.3154,2.4023,431.8505,2.4023s162.377,72.8429,162.377,162.378-72.8419,162.3761-162.377,162.3761Z" style="fill: none; stroke: #000; stroke-miterlimit: 10;"/>
</svg>