<?xml version="1.0" encoding="UTF-8"?>
<svg id="_图层_1" data-name=" 图层 1" xmlns="http://www.w3.org/2000/svg" viewBox="0 0 863.69 355.8095">
  <g>
    <g>
      <rect x="243.5756" y="3.2143" width="66.0737" height="24.9206" style="fill: none; stroke: #000; stroke-miterlimit: 10;"/>
      <text transform="translate(252.2499 22.1447)" style="font-family: NotoSerifSC-ExtraLight, &apos;Noto Serif SC&apos;; font-size: 18px; font-weight: 200;"><tspan x="0" y="0">应用A</tspan></text>
    </g>
    <g>
      <rect x="321.1919" y="3.2143" width="66.0737" height="24.9206" style="fill: none; stroke: #000; stroke-miterlimit: 10;"/>
      <text transform="translate(329.8661 22.1447)" style="font-family: NotoSerifSC-ExtraLight, &apos;Noto Serif SC&apos;; font-size: 18px; font-weight: 200;"><tspan x="0" y="0">应用B</tspan></text>
    </g>
  </g>
  <g>
    <rect x="398.8081" y="3.2143" width="66.0737" height="24.9206" style="fill: none; stroke: #000; stroke-miterlimit: 10;"/>
    <text transform="translate(407.4824 22.1447)" style="font-family: NotoSerifSC-ExtraLight, &apos;Noto Serif SC&apos;; font-size: 18px; font-weight: 200;"><tspan x="0" y="0">应用C</tspan></text>
  </g>
  <g>
    <g>
      <rect x="476.4244" y="3.2143" width="66.0737" height="24.9206" style="fill: none; stroke: #000; stroke-miterlimit: 10;"/>
      <text transform="translate(485.0987 22.1447)" style="font-family: NotoSerifSC-ExtraLight, &apos;Noto Serif SC&apos;; font-size: 18px; font-weight: 200;"><tspan x="0" y="0">应用D</tspan></text>
    </g>
    <g>
      <rect x="554.0407" y="3.2143" width="66.0737" height="24.9206" style="fill: none; stroke: #000; stroke-miterlimit: 10;"/>
      <text transform="translate(562.715 22.1447)" style="font-family: NotoSerifSC-ExtraLight, &apos;Noto Serif SC&apos;; font-size: 18px; font-weight: 200;"><tspan x="0" y="0">应用E</tspan></text>
    </g>
  </g>
  <g>
    <rect x="276.0735" y="83.8793" width="78.6941" height="24.9206" style="fill: none; stroke: #000; stroke-miterlimit: 10;"/>
    <text transform="translate(284.9381 102.4397)" style="font-family: NotoSerifSC-ExtraLight, &apos;Noto Serif SC&apos;; font-size: 18px; font-weight: 200;"><tspan x="0" y="0">外模式1</tspan></text>
  </g>
  <rect x="508.9224" y="83.6945" width="78.6941" height="24.9206" style="fill: none; stroke: #000; stroke-miterlimit: 10;"/>
  <text transform="translate(516.3732 102.6249)" style="font-family: NotoSerifSC-ExtraLight, &apos;Noto Serif SC&apos;; font-size: 18px; font-weight: 200;"><tspan x="0" y="0">外模式3</tspan></text>
  <g>
    <line x1="298.4791" y1="78.2232" x2="279.0009" y2="33.606" style="fill: none; stroke: #000; stroke-miterlimit: 10;"/>
    <polygon points="300.7492 74.1676 297.9848 77.0911 293.9615 77.1308 300.8675 83.6943 300.7492 74.1676"/>
    <polygon points="283.5184 34.6984 279.4952 34.7382 276.7308 37.6616 276.6124 28.1349 283.5184 34.6984"/>
  </g>
  <g>
    <line x1="352.0707" y1="33.4607" x2="329.3303" y2="78.3685" style="fill: none; stroke: #000; stroke-miterlimit: 10;"/>
    <polygon points="347.4982 34.2935 351.5127 34.5629 354.1056 37.6393 354.7676 28.1349 347.4982 34.2935"/>
    <polygon points="327.2954 74.1899 329.8884 77.2664 333.9028 77.5358 326.6334 83.6943 327.2954 74.1899"/>
  </g>
  <g>
    <path d="M533.3828,78.2704c-4.9133-10.6889-15.8354-34.3507-21.0642-44.8928" style="fill: none; stroke: #000; stroke-miterlimit: 10;"/>
    <polygon points="535.5516 74.1723 532.8497 77.1535 528.8282 77.2784 535.8715 83.6943 535.5516 74.1723"/>
    <polygon points="516.8639 34.1327 512.8564 34.49 510.3314 37.6225 509.4613 28.1349 516.8639 34.1327"/>
  </g>
  <g>
    <line x1="585.1749" y1="33.5825" x2="565.1566" y2="78.2469" style="fill: none; stroke: #000; stroke-miterlimit: 10;"/>
    <polygon points="580.647 34.6309 584.6697 34.7098 587.4055 37.66 587.6165 28.1349 580.647 34.6309"/>
    <polygon points="562.926 74.1694 565.6618 77.1196 569.6845 77.1985 562.715 83.6945 562.926 74.1694"/>
  </g>
  <g>
    <rect x="391.2671" y="83.6943" width="78.6941" height="24.9206" style="fill: none; stroke: #000; stroke-miterlimit: 10;"/>
    <text transform="translate(399.3575 102.6248)" style="font-family: NotoSerifSC-ExtraLight, &apos;Noto Serif SC&apos;; font-size: 18px; font-weight: 200;"><tspan x="0" y="0">外模式2</tspan></text>
  </g>
  <g>
    <line x1="431.845" y1="34.1046" x2="431.845" y2="77.7246" style="fill: none; stroke: #000; stroke-miterlimit: 10;"/>
    <polygon points="428.1419 36.9132 431.845 35.34 435.5481 36.9132 431.845 28.1349 428.1419 36.9132"/>
    <polygon points="428.1419 74.916 431.845 76.4892 435.5481 74.916 431.845 83.6943 428.1419 74.916"/>
  </g>
  <rect x="391.2671" y="155.1265" width="78.6941" height="24.9206" style="fill: none; stroke: #000; stroke-miterlimit: 10;"/>
  <g>
    <line x1="431.845" y1="114.5847" x2="431.845" y2="149.1568" style="fill: none; stroke: #000; stroke-miterlimit: 10;"/>
    <polygon points="428.1419 117.3933 431.845 115.82 435.5481 117.3933 431.845 108.6149 428.1419 117.3933"/>
    <polygon points="428.1419 146.3482 431.845 147.9214 435.5481 146.3482 431.845 155.1265 428.1419 146.3482"/>
  </g>
  <g>
    <polyline points="315.4206 114.5847 315.4206 131.8707 548.2694 131.8707 548.2694 114.7697" style="fill: none; stroke: #000; stroke-miterlimit: 10;"/>
    <polygon points="311.7174 117.3933 315.4206 115.82 319.1237 117.3933 315.4206 108.6149 311.7174 117.3933"/>
    <polygon points="551.9725 117.5783 548.2694 116.0051 544.5663 117.5783 548.2694 108.8 551.9725 117.5783"/>
  </g>
  <rect x="391.2671" y="217.4755" width="78.6941" height="24.9206" style="fill: none; stroke: #000; stroke-miterlimit: 10;"/>
  <text transform="translate(403.6139 236.4059)" style="font-family: NotoSerifSC-ExtraLight, &apos;Noto Serif SC&apos;; font-size: 18px; font-weight: 200;"><tspan x="0" y="0">内模式</tspan></text>
  <g>
    <line x1="430.6142" y1="186.0169" x2="430.6142" y2="211.5058" style="fill: none; stroke: #000; stroke-miterlimit: 10;"/>
    <polygon points="426.911 188.8255 430.6142 187.2522 434.3173 188.8255 430.6142 180.0471 426.911 188.8255"/>
    <polygon points="426.911 208.6972 430.6142 210.2704 434.3173 208.6972 430.6142 217.4755 426.911 208.6972"/>
  </g>
  <text transform="translate(412.5545 173.7944)" style="font-family: NotoSerifSC-ExtraLight, &apos;Noto Serif SC&apos;; font-size: 18px; font-weight: 200;"><tspan x="0" y="0">模式</tspan></text>
  <ellipse cx="430.6142" cy="288.5584" rx="39.3471" ry="10.8571" style="fill: none; stroke: #000; stroke-miterlimit: 10;"/>
  <path d="M391.2671,340.0358c0,5.9962,17.6163,10.8571,39.3471,10.8571s39.3471-4.8609,39.3471-10.8571" style="fill: none; stroke: #000; stroke-miterlimit: 10;"/>
  <path d="M391.2671,288.5584c.5409,1.9873,0,51.4774,0,51.4774" style="fill: none; stroke: #000; stroke-miterlimit: 10;"/>
  <line x1="469.9612" y1="288.5584" x2="469.9612" y2="340.0358" style="fill: none; stroke: #000; stroke-miterlimit: 10;"/>
  <text transform="translate(403.4883 329.486)" style="font-family: NotoSerifSC-ExtraLight, &apos;Noto Serif SC&apos;; font-size: 18px; font-weight: 200;"><tspan x="0" y="0">数据库</tspan></text>
  <g>
    <line x1="430.6142" y1="248.3659" x2="430.6142" y2="271.7315" style="fill: none; stroke: #000; stroke-miterlimit: 10;"/>
    <polygon points="426.911 251.1744 430.6142 249.6012 434.3173 251.1744 430.6142 242.3961 426.911 251.1744"/>
    <polygon points="426.911 268.9229 430.6142 270.4961 434.3173 268.9229 430.6142 277.7012 426.911 268.9229"/>
  </g>
  <text transform="translate(555.7892 139.9606)" style="font-family: NotoSerifSC-ExtraLight, &apos;Noto Serif SC&apos;; font-size: 18px; font-weight: 200;"><tspan x="0" y="0">外模式/模式映像</tspan></text>
  <text transform="translate(482.7585 205.6196)" style="font-family: NotoSerifSC-ExtraLight, &apos;Noto Serif SC&apos;; font-size: 18px; font-weight: 200;"><tspan x="0" y="0">内模式/模式映像</tspan></text>
</svg>