<?xml version="1.0" encoding="UTF-8"?>
<svg xmlns="http://www.w3.org/2000/svg" version="1.1" viewBox="0 0 863.7 346.9">
  <defs>
    <style>
      .cls-1 {
        fill: none;
        stroke: #000;
        stroke-miterlimit: 10;
      }

      .cls-2 {
        font-family: AdobeSongStd-Light-GBpc-EUC-H, 'Adobe Song Std';
        font-size: 18px;
        font-weight: 300;
      }
    </style>
  </defs>
  <!-- Generator: Adobe Illustrator 28.7.1, SVG Export Plug-In . SVG Version: 1.2.0 Build 142)  -->
  <g>
    <g id="_图层_1" data-name="图层_1">
      <g>
        <path class="cls-1" d="M449.2,10c1.3-.2,2.5-.5,3.7-.9,9-2.8,18-2.3,26.3.5,5.8,2,10.5,4.9,10.7,9.1.1,2.8,2.4,4.8,6.5,6.2,2.9.9,5.5,2.2,7.7,3.7,2.7,2,4.3,4.1,1.6,6.6-1.6,1.4-1.4,2.9-.7,4.4,1.1,2.1.9,4.3.7,6.4-.2,3.3-3.1,5.7-8.5,7.1-1.6.4-3.3.8-4.9,1.2-2.6.7-4.2,1.9-3.9,3.6.4,2.9-.8,5.5-2.7,8.1-1.3,2-4.2,3.7-7.8,4.4-6.8,1.4-13.6,1.7-20.3-.2-1-.3-1.9-.6-2.9-.9-4.3-1.3-5.3-1.2-9,.5-.7.3-1.4.7-2,1-7.1,3.8-15.3,3.9-23.9,2.1-2.5-.6-4.7-1.5-6.4-2.7-2.6-1.8-5.5-2.3-9.4-1.9-6.9.8-14.1,0-20-2.2-4.8-1.7-8.1-4.5-9.1-7.7-1-2.7-2.7-5.3-1.4-8.2.7-1.4-1.3-2.4-3.1-3.1-1.7-.7-3.4-1.2-5.3-1.7-7.3-2-10-7.7-7.5-11.9,1.3-2.3,3.4-4.5,7.7-5.5,2.7-.6,3.3-1.9,3.5-3.3.1-1.3,0-2.5-.2-3.8-1.2-5.8,5.5-9.5,14.9-10.8,3.5-.6,7.2-.6,10.7-.2,3.4.5,5.8-.1,8-1.8,6.9-5.3,19.8-7,30.2-3.9,4.8,1.4,9.3,3.1,13.9,4.7,1,.3,1.9.6,3.1,1Z"/>
        <text class="cls-2" transform="translate(395.8 46.2)"><tspan x="0" y="0">现实世界</tspan></text>
      </g>
      <g>
        <ellipse class="cls-1" cx="431.9" cy="145.4" rx="55.9" ry="41.2"/>
        <g>
          <circle class="cls-1" cx="412.9" cy="130.6" r="4.3"/>
          <circle class="cls-1" cx="450.8" cy="130.6" r="4.3"/>
        </g>
        <path class="cls-1" d="M401.4,162.8c5.8,2.6,16,6.4,29.3,6.7,14.5.3,25.7-3.8,31.6-6.5"/>
      </g>
      <g>
        <line class="cls-1" x1="431.9" y1="98.2" x2="431.9" y2="74.2"/>
        <polygon points="435.6 95.4 431.9 97 428.1 95.4 431.9 104.2 435.6 95.4"/>
      </g>
      <path class="cls-1" d="M520.2,110.8"/>
      <path class="cls-1" d="M484.9,132.4l48.1.5c8.2,7.8,19.3,12.6,31.5,12.6,25.2,0,45.7-20.5,45.7-45.7s-20.5-45.7-45.7-45.7-45.7,20.5-45.7,45.7.5,7.6,1.4,11.1l-35.3,21.6"/>
      <text class="cls-2" transform="translate(546.5 95.4)"><tspan x="0" y="0">认识</tspan><tspan x="0" y="21.6">抽象</tspan></text>
      <g>
        <rect class="cls-1" x="303" y="226.3" width="257.7" height="38.9"/>
        <text class="cls-2" transform="translate(395.9 252.9)"><tspan x="0" y="0">概念模型</tspan></text>
      </g>
      <g>
        <line class="cls-1" x1="431.9" y1="186.6" x2="431.9" y2="219.4"/>
        <polygon points="428.1 216.6 431.9 218.2 435.6 216.6 431.9 225.4 428.1 216.6"/>
      </g>
      <g>
        <rect class="cls-1" x="303" y="305.5" width="257.7" height="38.9"/>
        <text class="cls-2" transform="translate(305.5 333.8)"><tspan x="0" y="0">数据库管理系统支持的数据模型</tspan></text>
      </g>
      <g>
        <line class="cls-1" x1="431.9" y1="265.2" x2="431.9" y2="299.6"/>
        <polygon points="428.1 296.8 431.9 298.3 435.6 296.8 431.9 305.5 428.1 296.8"/>
      </g>
      <text class="cls-2" transform="translate(192.9 252.9)"><tspan x="0" y="0">信息世界</tspan></text>
      <text class="cls-2" transform="translate(192.9 332.1)"><tspan x="0" y="0">机器世界</tspan></text>
    </g>
  </g>
</svg>