<?xml version="1.0" encoding="UTF-8"?>
<svg xmlns="http://www.w3.org/2000/svg" version="1.1" viewBox="0 0 863.7 361.1">
  <defs>
    <style>
      .cls-1, .cls-2 {
        fill: none;
        stroke: #000;
        stroke-miterlimit: 10;
      }

      .cls-2 {
        stroke-dasharray: 12.2 10.1;
      }

      .cls-3, .cls-4 {
        isolation: isolate;
      }

      .cls-4, .cls-5 {
        font-family: NotoSerifSC-ExtraLight, 'Noto Serif SC';
        font-size: 18px;
        font-weight: 200;
      }
    </style>
  </defs>
  <!-- Generator: Adobe Illustrator 28.7.1, SVG Export Plug-In . SVG Version: 1.2.0 Build 142)  -->
  <g>
    <g id="_图层_1" data-name="图层_1">
      <g>
        <rect class="cls-1" x="106.7" y="4.3" width="180.2" height="52"/>
        <g class="cls-3">
          <text class="cls-4" transform="translate(156 37.5)"><tspan x="0" y="0">应用程序1</tspan></text>
        </g>
        <rect class="cls-1" x="576.8" y="4.3" width="180.2" height="52"/>
        <rect class="cls-1" x="106.7" y="83.9" width="180.2" height="52"/>
        <g class="cls-3">
          <text class="cls-4" transform="translate(156 117.2)"><tspan x="0" y="0">应用程序2</tspan></text>
        </g>
        <rect class="cls-1" x="576.8" y="83.9" width="180.2" height="52"/>
        <rect class="cls-1" x="106.7" y="306.1" width="180.2" height="52"/>
        <g class="cls-3">
          <text class="cls-4" transform="translate(154.7 339.4)"><tspan x="0" y="0">应用程序n</tspan></text>
        </g>
        <rect class="cls-1" x="576.8" y="306.1" width="180.2" height="52"/>
        <g>
          <circle cx="196.8" cy="233.5" r="1.9"/>
          <circle cx="196.8" cy="222.5" r="1.9"/>
          <circle cx="196.8" cy="211.5" r="1.9"/>
        </g>
        <g>
          <circle cx="666.9" cy="233.5" r="1.9"/>
          <circle cx="666.9" cy="222.5" r="1.9"/>
          <circle cx="666.9" cy="211.5" r="1.9"/>
        </g>
        <text class="cls-5" transform="translate(635.1 37.6)"><tspan x="0" y="0">文件组1</tspan></text>
        <text class="cls-5" transform="translate(635.1 117.2)"><tspan x="0" y="0">文件组2</tspan></text>
        <text class="cls-5" transform="translate(633.8 339.4)"><tspan x="0" y="0">文件组n</tspan></text>
        <ellipse class="cls-1" cx="431.9" cy="222.5" rx="70.9" ry="52.4"/>
        <text class="cls-5" transform="translate(413.8 219.5)"><tspan x="0" y="0">存取</tspan><tspan x="0" y="21.6">方法</tspan></text>
        <line class="cls-1" x1="286.9" y1="56.3" x2="407.5" y2="173.2"/>
        <line class="cls-1" x1="577.3" y1="56.3" x2="456.7" y2="173.2"/>
        <line class="cls-1" x1="286.9" y1="135.9" x2="381.1" y2="185.9"/>
        <line class="cls-1" x1="577.3" y1="135.9" x2="483.1" y2="185.9"/>
        <line class="cls-1" x1="286.9" y1="306.1" x2="378.5" y2="257"/>
        <line class="cls-1" x1="576" y1="306.1" x2="484.4" y2="257"/>
        <g>
          <line class="cls-1" x1="286.9" y1="30.3" x2="292.9" y2="30.3"/>
          <line class="cls-2" x1="303" y1="30.3" x2="565.7" y2="30.7"/>
          <line class="cls-1" x1="570.8" y1="30.8" x2="576.8" y2="30.8"/>
        </g>
        <g>
          <line class="cls-1" x1="286.9" y1="110.4" x2="292.9" y2="110.4"/>
          <line class="cls-2" x1="303" y1="110.4" x2="565.7" y2="110.9"/>
          <line class="cls-1" x1="570.8" y1="110.9" x2="576.8" y2="110.9"/>
        </g>
        <g>
          <line class="cls-1" x1="286.1" y1="331.8" x2="292.1" y2="331.8"/>
          <line class="cls-2" x1="302.3" y1="331.8" x2="564.9" y2="332.3"/>
          <line class="cls-1" x1="570" y1="332.3" x2="576" y2="332.3"/>
        </g>
      </g>
    </g>
  </g>
</svg>