<?xml version="1.0" encoding="UTF-8"?>
<svg id="_layer_1" xmlns="http://www.w3.org/2000/svg" version="1.1" viewBox="0 0 863.7 238.2">
  <!-- Generator: Adobe Illustrator 29.0.0, SVG Export Plug-In . SVG Version: 2.1.0 Build 186)  -->
  <defs>
    <style>
      .st0 {
        fill: none;
        stroke: #000;
        stroke-miterlimit: 10;
      }

      .st1 {
        font-family: NotoSerifSC-ExtraLight, 'Noto Serif SC';
        font-size: 18px;
        font-weight: 200;
      }
    </style>
  </defs>
  <g>
    <rect class="st0" x="340.2" y="6.2" width="249.9" height="41.5"/>
    <text class="st1" transform="translate(353.2 34.3)"><tspan x="0" y="0">系编号</tspan></text>
    <text class="st1" transform="translate(435.2 34.3)"><tspan x="0" y="0">系名</tspan></text>
    <text class="st1" transform="translate(500.7 34.8)"><tspan x="0" y="0">办公地点</tspan></text>
    <line class="st0" x1="419.4" y1="6.2" x2="419.4" y2="47.7"/>
    <line class="st0" x1="486.5" y1="6.2" x2="486.5" y2="47.7"/>
    <text class="st1" transform="translate(310 34.3)"><tspan x="0" y="0">系</tspan></text>
  </g>
  <g>
    <g>
      <rect class="st0" x="221.9" y="113.1" width="222.8" height="41.5"/>
      <text class="st1" transform="translate(235 141.2)"><tspan x="0" y="0">教研室编号</tspan></text>
      <text class="st1" transform="translate(358.4 141.8)"><tspan x="0" y="0">教研室名</tspan></text>
      <line class="st0" x1="340.1" y1="113.1" x2="340.1" y2="154.6"/>
      <text class="st1" transform="translate(153.2 141.2)"><tspan x="0" y="0">教研室</tspan></text>
    </g>
    <g>
      <rect class="st0" x="518.3" y="114.2" width="192.1" height="41.5"/>
      <text class="st1" transform="translate(531.3 142.3)"><tspan x="0" y="0">学号</tspan></text>
      <text class="st1" transform="translate(592.8 142.9)"><tspan x="0" y="0">姓名</tspan></text>
      <line class="st0" x1="579.4" y1="114.2" x2="579.4" y2="155.7"/>
      <line class="st0" x1="641.9" y1="114.2" x2="641.9" y2="155.7"/>
      <text class="st1" transform="translate(656.9 143.4)"><tspan x="0" y="0">成绩</tspan></text>
      <text class="st1" transform="translate(464.5 142.3)"><tspan x="0" y="0">学生</tspan></text>
    </g>
  </g>
  <g>
    <rect class="st0" x="252.5" y="192.1" width="249.9" height="41.5"/>
    <text class="st1" transform="translate(265.5 220.3)"><tspan x="0" y="0">职工号</tspan></text>
    <text class="st1" transform="translate(347.5 220.3)"><tspan x="0" y="0">姓名</tspan></text>
    <text class="st1" transform="translate(413 220.3)"><tspan x="0" y="0">研究方向</tspan></text>
    <line class="st0" x1="331.6" y1="192.1" x2="331.6" y2="233.7"/>
    <line class="st0" x1="398.8" y1="192.1" x2="398.8" y2="233.7"/>
    <text class="st1" transform="translate(205.5 220.3)"><tspan x="0" y="0">教员</tspan></text>
  </g>
  <g>
    <polyline class="st0" points="453.3 47.7 453.3 72.3 324.1 72.3 324.1 107.1"/>
    <polygon points="320.4 104.3 324.1 105.9 327.8 104.3 324.1 113.1 320.4 104.3"/>
  </g>
  <g>
    <polyline class="st0" points="453.3 72.3 611.2 72.3 611.2 108.2"/>
    <polygon points="607.5 105.4 611.2 107 614.9 105.4 611.2 114.2 607.5 105.4"/>
  </g>
  <g>
    <line class="st0" x1="310" y1="154.2" x2="310" y2="186.2"/>
    <polygon points="306.3 183.4 310 184.9 313.7 183.4 310 192.1 306.3 183.4"/>
  </g>
</svg>