<?xml version="1.0" encoding="UTF-8"?>
<svg xmlns="http://www.w3.org/2000/svg" version="1.1" viewBox="0 0 863.7 309.4">
  <defs>
    <style>
      .cls-1 {
        fill: none;
        stroke: #000;
        stroke-miterlimit: 10;
      }

      .cls-2 {
        font-family: NotoSerifSC-ExtraLight, 'Noto Serif SC';
        font-size: 18px;
        font-weight: 200;
      }
    </style>
  </defs>
  <!-- Generator: Adobe Illustrator 28.7.1, SVG Export Plug-In . SVG Version: 1.2.0 Build 142)  -->
  <g>
    <g id="_layer_1" data-name="layer_1">
      <g>
        <g>
          <rect class="cls-1" x="215.7" y="6.3" width="180.2" height="52"/>
          <text class="cls-2" transform="translate(265 39.5)"><tspan x="0" y="0">应用程序1</tspan></text>
          <rect class="cls-1" x="467.8" y="6.3" width="180.2" height="52"/>
          <text class="cls-2" transform="translate(525.8 39.5)"><tspan x="0" y="0">数据集1</tspan></text>
          <line class="cls-1" x1="395.9" y1="32.7" x2="467.8" y2="32.7"/>
        </g>
        <g>
          <g>
            <rect class="cls-1" x="215.7" y="106.9" width="180.2" height="52"/>
            <text class="cls-2" transform="translate(265 140.2)"><tspan x="0" y="0">应用程序2</tspan></text>
            <rect class="cls-1" x="467.8" y="106.9" width="180.2" height="52"/>
            <text class="cls-2" transform="translate(525.8 140.2)"><tspan x="0" y="0">数据集2</tspan></text>
            <line class="cls-1" x1="395.9" y1="133.3" x2="467.8" y2="133.3"/>
          </g>
          <g>
            <rect class="cls-1" x="215.7" y="252.1" width="180.2" height="52"/>
            <text class="cls-2" transform="translate(263.7 285.4)"><tspan x="0" y="0">应用程序n</tspan></text>
            <rect class="cls-1" x="467.8" y="252.1" width="180.2" height="52"/>
            <text class="cls-2" transform="translate(524.7 285.4)"><tspan x="0" y="0">数据集n</tspan></text>
            <line class="cls-1" x1="395.9" y1="278.5" x2="467.8" y2="278.5"/>
          </g>
        </g>
        <g>
          <circle cx="305.8" cy="216.5" r="1.9"/>
          <circle cx="305.8" cy="205.5" r="1.9"/>
          <circle cx="305.8" cy="194.5" r="1.9"/>
        </g>
        <g>
          <circle cx="557.9" cy="216.5" r="1.9"/>
          <circle cx="557.9" cy="205.5" r="1.9"/>
          <circle cx="557.9" cy="194.5" r="1.9"/>
        </g>
      </g>
    </g>
  </g>
</svg>