<?xml version="1.0" encoding="UTF-8"?>
<svg id="_layer_1" xmlns="http://www.w3.org/2000/svg" viewBox="0 0 645.0815 266.1458">
  <g>
    <g style="isolation: isolate;">
      <text transform="translate(107.2443 15.8397)" style="font-family: NotoSerifSC-Regular, &apos;Noto Serif SC&apos;; font-size: 18px; isolation: isolate;"><tspan x="0" y="0">S</tspan></text>
    </g>
    <g style="isolation: isolate;">
      <text transform="translate(161.8964 111.0859)" style="font-family: NotoSerifSC-Regular, &apos;Noto Serif SC&apos;; font-size: 18px; isolation: isolate; letter-spacing: -.006em;"><tspan x="0" y="0">V</tspan></text>
      <text transform="translate(174.4965 111.0859)" style="font-family: NotoSerifSC-Regular, &apos;Noto Serif SC&apos;; font-size: 18px; isolation: isolate;"><tspan x="0" y="0">P</tspan></text>
    </g>
    <g style="isolation: isolate;">
      <text transform="translate(.0001 161.5483)" style="font-family: NotoSerifSC-Regular, &apos;Noto Serif SC&apos;; font-size: 18px; isolation: isolate;"><tspan x="0" y="0" style="letter-spacing: -.001em;">P</tspan><tspan x="11.52" y="0">N</tspan></text>
    </g>
    <g style="isolation: isolate;">
      <text transform="translate(63.8641 161.5485)" style="font-family: NotoSerifSC-Regular, &apos;Noto Serif SC&apos;; font-size: 18px; isolation: isolate;"><tspan x="0" y="0" style="letter-spacing: .001em;">V</tspan><tspan x="12.8696" y="0" style="letter-spacing: 0em;">V</tspan></text>
    </g>
    <g style="isolation: isolate;">
      <text transform="translate(127.6922 161.5483)" style="font-family: NotoSerifSC-Regular, &apos;Noto Serif SC&apos;; font-size: 18px; isolation: isolate;"><tspan x="0" y="0" style="letter-spacing: .001em;">V</tspan><tspan x="12.8696" y="0" style="letter-spacing: 0em;">V</tspan></text>
    </g>
    <g style="isolation: isolate;">
      <text transform="translate(188.4508 161.5483)" style="font-family: NotoSerifSC-Regular, &apos;Noto Serif SC&apos;; font-size: 18px; isolation: isolate;"><tspan x="0" y="0">MN</tspan></text>
    </g>
    <polyline points="145.7848 138.1083 172.9594 117.2829 201.9118 138.1083" style="fill: none; stroke: #000; stroke-miterlimit: 10;"/>
    <polyline points="77.1705 138.1083 145.875 69.1159 174.8274 89.9413" style="fill: none; stroke: #000; stroke-miterlimit: 10;"/>
    <g style="isolation: isolate;">
      <text transform="translate(134.3491 63.8162)" style="font-family: NotoSerifSC-Regular, &apos;Noto Serif SC&apos;; font-size: 18px; isolation: isolate; letter-spacing: -.006em;"><tspan x="0" y="0">V</tspan></text>
      <text transform="translate(146.9492 63.8162)" style="font-family: NotoSerifSC-Regular, &apos;Noto Serif SC&apos;; font-size: 18px; isolation: isolate;"><tspan x="0" y="0">P</tspan></text>
    </g>
    <polyline points="13.9324 87.3146 112.8324 24.0579 141.7848 44.8833" style="fill: none; stroke: #000; stroke-miterlimit: 10;"/>
    <g style="isolation: isolate;">
      <text transform="translate(.0364 111.0861)" style="font-family: NotoSerifSC-Regular, &apos;Noto Serif SC&apos;; font-size: 18px; isolation: isolate; letter-spacing: -.004em;"><tspan x="0" y="0">N</tspan></text>
      <text transform="translate(14.1482 111.0861)" style="font-family: NotoSerifSC-Regular, &apos;Noto Serif SC&apos;; font-size: 18px; isolation: isolate;"><tspan x="0" y="0">P</tspan></text>
    </g>
    <line x1="13.9324" y1="117.2829" x2="13.9324" y2="138.1083" style="fill: none; stroke: #000; stroke-miterlimit: 10;"/>
    <line x1="13.9324" y1="171.9495" x2="13.9324" y2="192.7749" style="fill: none; stroke: #000; stroke-miterlimit: 10;"/>
    <line x1="77.8586" y1="171.9495" x2="77.8586" y2="192.7749" style="fill: none; stroke: #000; stroke-miterlimit: 10;"/>
    <line x1="141.7848" y1="171.9495" x2="141.7848" y2="192.7749" style="fill: none; stroke: #000; stroke-miterlimit: 10;"/>
    <line x1="205.711" y1="171.9495" x2="205.711" y2="192.7749" style="fill: none; stroke: #000; stroke-miterlimit: 10;"/>
    <g style="isolation: isolate;">
      <text transform="translate(4.4516 218.3938)" style="font-family: NotoSerifSC-Regular, &apos;Noto Serif SC&apos;; font-size: 18px; isolation: isolate;"><tspan x="0" y="0">他</tspan></text>
    </g>
    <g style="isolation: isolate;">
      <text transform="translate(59.8586 218.3936)" style="font-family: NotoSerifSC-Regular, &apos;Noto Serif SC&apos;; font-size: 18px; isolation: isolate;"><tspan x="0" y="0">喜欢</tspan></text>
    </g>
    <g style="isolation: isolate;">
      <text transform="translate(132.7847 218.3938)" style="font-family: NotoSerifSC-Regular, &apos;Noto Serif SC&apos;; font-size: 18px; isolation: isolate;"><tspan x="0" y="0">下</tspan></text>
    </g>
    <g style="isolation: isolate;">
      <text transform="translate(187.7109 218.3937)" style="font-family: NotoSerifSC-Regular, &apos;Noto Serif SC&apos;; font-size: 18px; isolation: isolate;"><tspan x="0" y="0">象棋</tspan></text>
    </g>
  </g>
  <g>
    <g style="isolation: isolate;">
      <text transform="translate(385.405 218.3936)" style="font-family: NotoSerifSC-Regular, &apos;Noto Serif SC&apos;; font-size: 18px; isolation: isolate;"><tspan x="0" y="0">他</tspan></text>
    </g>
    <g style="isolation: isolate;">
      <text transform="translate(453.9634 218.3934)" style="font-family: NotoSerifSC-Regular, &apos;Noto Serif SC&apos;; font-size: 18px; isolation: isolate;"><tspan x="0" y="0">喜欢</tspan></text>
    </g>
    <g style="isolation: isolate;">
      <text transform="translate(540.5223 218.3936)" style="font-family: NotoSerifSC-Regular, &apos;Noto Serif SC&apos;; font-size: 18px; isolation: isolate;"><tspan x="0" y="0">下</tspan></text>
    </g>
    <g style="isolation: isolate;">
      <text transform="translate(609.0813 218.3936)" style="font-family: NotoSerifSC-Regular, &apos;Noto Serif SC&apos;; font-size: 18px; isolation: isolate;"><tspan x="0" y="0">象棋</tspan></text>
    </g>
    <g style="isolation: isolate;">
      <text transform="translate(296.9197 218.394)" style="font-family: NotoSerifSC-Regular, &apos;Noto Serif SC&apos;; font-size: 18px; isolation: isolate; letter-spacing: -.011em;"><tspan x="0" y="0">R</tspan></text>
      <text transform="translate(309.3396 218.394)" style="font-family: NotoSerifSC-Regular, &apos;Noto Serif SC&apos;; font-size: 18px; isolation: isolate;"><tspan x="0" y="0">o</tspan></text>
      <text transform="translate(319.8694 218.394)" style="font-family: NotoSerifSC-Regular, &apos;Noto Serif SC&apos;; font-size: 18px; isolation: isolate; letter-spacing: -.003em;"><tspan x="0" y="0">o</tspan></text>
      <text transform="translate(330.3455 218.394)" style="font-family: NotoSerifSC-Regular, &apos;Noto Serif SC&apos;; font-size: 18px; isolation: isolate;"><tspan x="0" y="0">t</tspan></text>
    </g>
    <g style="isolation: isolate;">
      <text transform="translate(417.655 175.2288)" style="font-family: NotoSerifSC-Regular, &apos;Noto Serif SC&apos;; font-size: 18px; isolation: isolate;"><tspan x="0" y="0" style="letter-spacing: -.001em;">s</tspan><tspan x="8.4961" y="0">ub</tspan></text>
    </g>
    <path d="M461.0425,195.4306c-.9127-3.2053-2.6878-7.9266-6.2857-12.7619-2.4765-3.3282-5.0993-5.7465-7.2381-7.4286" style="fill: none; stroke: #000; stroke-miterlimit: 10;"/>
    <g>
      <path d="M416.4711,175.4306c-2.7161.7602-7.7213,2.5484-12.5714,6.8571-2.6307,2.337-4.5396,4.8148-5.9148,7.0355" style="fill: none; stroke: #000; stroke-miterlimit: 10;"/>
      <polygon points="396.0762 185.1707 398.6413 188.2705 402.6531 188.5762 395.3282 194.6687 396.0762 185.1707"/>
    </g>
    <g style="isolation: isolate;">
      <text transform="translate(384.7392 137.3505)" style="font-family: NotoSerifSC-Regular, &apos;Noto Serif SC&apos;; font-size: 18px; isolation: isolate; letter-spacing: -.018em;"><tspan x="0" y="0">r</tspan></text>
      <text transform="translate(392.4433 137.3505)" style="font-family: NotoSerifSC-Regular, &apos;Noto Serif SC&apos;; font-size: 18px; isolation: isolate;"><tspan x="0" y="0">o</tspan></text>
      <text transform="translate(402.9731 137.3505)" style="font-family: NotoSerifSC-Regular, &apos;Noto Serif SC&apos;; font-size: 18px; isolation: isolate; letter-spacing: -.003em;"><tspan x="0" y="0">o</tspan></text>
      <text transform="translate(413.4492 137.3505)" style="font-family: NotoSerifSC-Regular, &apos;Noto Serif SC&apos;; font-size: 18px; isolation: isolate;"><tspan x="0" y="0">t</tspan></text>
    </g>
    <path d="M318.8203,196.3195c3.5008-9.8294,11.606-29.4973,26.8714-44.381,13.2557-12.9243,25.816-16.2991,32.6718-17.3333" style="fill: none; stroke: #000; stroke-miterlimit: 10;"/>
    <g>
      <path d="M421.6774,133.2719c10.6312,4.7037,26.3833,14.3103,41.6476,35.0476,4.6827,6.3617,8.6503,12.8617,11.9931,19.079" style="fill: none; stroke: #000; stroke-miterlimit: 10;"/>
      <polygon points="470.7194 186.625 474.7305 186.31 477.2883 183.2042 478.0583 192.7005 470.7194 186.625"/>
    </g>
    <g style="isolation: isolate;">
      <text transform="translate(499.4833 175.2285)" style="font-family: NotoSerifSC-Regular, &apos;Noto Serif SC&apos;; font-size: 18px; isolation: isolate; letter-spacing: -.003em;"><tspan x="0" y="0">o</tspan></text>
      <text transform="translate(509.9594 175.2285)" style="font-family: NotoSerifSC-Regular, &apos;Noto Serif SC&apos;; font-size: 18px; isolation: isolate;"><tspan x="0" y="0">bj</tspan></text>
    </g>
    <path d="M483.8996,200.256c.14-3.0892,1.0062-13.8125,9.3333-20.7619,1.8442-1.5391,3.7475-2.637,5.5238-3.4286" style="fill: none; stroke: #000; stroke-miterlimit: 10;"/>
    <g>
      <path d="M529.0425,174.9227c4.4799,3.6451,9.629,8.6742,14.2858,15.4286.3975.5766.7807,1.1501,1.1501,1.7199" style="fill: none; stroke: #000; stroke-miterlimit: 10;"/>
      <polygon points="539.8062 191.6146 543.789 191.0438 546.143 187.7808 547.5187 197.2084 539.8062 191.6146"/>
    </g>
    <g style="isolation: isolate;">
      <text transform="translate(578.3137 172.7974)" style="font-family: NotoSerifSC-Regular, &apos;Noto Serif SC&apos;; font-size: 18px; isolation: isolate; letter-spacing: -.003em;"><tspan x="0" y="0">o</tspan></text>
      <text transform="translate(588.7898 172.7974)" style="font-family: NotoSerifSC-Regular, &apos;Noto Serif SC&apos;; font-size: 18px; isolation: isolate;"><tspan x="0" y="0">bj</tspan></text>
    </g>
    <path d="M552.6912,196.9878c.212-3.815,1.5245-17.058,14.1409-25.6405,2.7941-1.9007,5.6778-3.2567,8.3691-4.2342" style="fill: none; stroke: #000; stroke-miterlimit: 10;"/>
    <g>
      <path d="M606.6298,167.1132c6.8271,5.2652,14.6741,12.5294,21.7707,22.2857,1.1776,1.619,2.2728,3.2216,3.2916,4.7993" style="fill: none; stroke: #000; stroke-miterlimit: 10;"/>
      <polygon points="627.0227 193.7812 631 193.1737 633.3238 189.8891 634.7864 199.3036 627.0227 193.7812"/>
    </g>
  </g>
  <g style="isolation: isolate;">
    <text transform="translate(36.6961 263.9854)" style="font-family: NotoSerifSC-Regular, &apos;Noto Serif SC&apos;; font-size: 18px; isolation: isolate; letter-spacing: .004em;"><tspan x="0" y="0">(</tspan></text>
    <text transform="translate(43.0677 263.9854)" style="font-family: NotoSerifSC-Regular, &apos;Noto Serif SC&apos;; font-size: 18px; isolation: isolate;"><tspan x="0" y="0" style="letter-spacing: -.005em;">a</tspan><tspan x="9.936" y="0">)短语结构句法树</tspan></text>
  </g>
  <g style="isolation: isolate;">
    <text transform="translate(395.328 263.9856)" style="font-family: NotoSerifSC-Regular, &apos;Noto Serif SC&apos;; font-size: 18px; isolation: isolate;"><tspan x="0" y="0">(</tspan></text>
    <text transform="translate(401.6278 263.9856)" style="font-family: NotoSerifSC-Regular, &apos;Noto Serif SC&apos;; font-size: 18px; isolation: isolate; letter-spacing: -.018em;"><tspan x="0" y="0">b</tspan></text>
    <text transform="translate(412.5541 263.9856)" style="font-family: NotoSerifSC-Regular, &apos;Noto Serif SC&apos;; font-size: 18px; isolation: isolate;"><tspan x="0" y="0">)依存结构句法树</tspan></text>
  </g>
</svg>