<?xml version="1.0" encoding="UTF-8"?>
<svg id="_图层_1" xmlns="http://www.w3.org/2000/svg" viewBox="0 0 863.7 78.4586">
  <text transform="translate(332.563 73.5075)" style="font-family: AdobeSongStd-Light-GBpc-EUC-H, &apos;Adobe Song Std&apos;; font-size: 12px; font-weight: 300;"><tspan x="0" y="0">他</tspan></text>
  <text transform="translate(386.7541 73.5082)" style="font-family: AdobeSongStd-Light-GBpc-EUC-H, &apos;Adobe Song Std&apos;; font-size: 12px; font-weight: 300;"><tspan x="0" y="0">喜欢</tspan></text>
  <text transform="translate(452.9455 73.5078)" style="font-family: AdobeSongStd-Light-GBpc-EUC-H, &apos;Adobe Song Std&apos;; font-size: 12px; font-weight: 300;"><tspan x="0" y="0">下</tspan></text>
  <text transform="translate(507.1369 73.5081)" style="font-family: AdobeSongStd-Light-GBpc-EUC-H, &apos;Adobe Song Std&apos;; font-size: 12px; font-weight: 300;"><tspan x="0" y="0">象棋</tspan></text>
  <text transform="translate(359.6585 41.708)" style="font-family: AdobeSongStd-Light-GBpc-EUC-H, &apos;Adobe Song Std&apos;; font-size: 12px; font-weight: 300;"><tspan x="0" y="0">施事</tspan></text>
  <text transform="translate(413.8499 41.7075)" style="font-family: AdobeSongStd-Light-GBpc-EUC-H, &apos;Adobe Song Std&apos;; font-size: 12px; font-weight: 300;"><tspan x="0" y="0">受事</tspan></text>
  <g>
    <path d="M357.6013,39.2972c-5.5016,2.55-10.4339,6.7597-14.1888,12.2741" style="fill: none; stroke: #000; stroke-miterlimit: 10;"/>
    <polygon points="341.7313 47.306 344.1113 50.55 348.0985 51.089 340.431 56.7443 341.7313 47.306"/>
  </g>
  <path d="M397.9231,54.6808c-.4033-.7872-4.2345-7.9709-11.9687-12.9731" style="fill: none; stroke: #000; stroke-miterlimit: 10;"/>
  <g>
    <path d="M441.4194,39.6442c4.4449,2.5161,8.436,6.6482,11.4949,12.055" style="fill: none; stroke: #000; stroke-miterlimit: 10;"/>
    <polygon points="448.2785 50.852 452.2957 50.6275 454.9229 47.5801 455.4786 57.0914 448.2785 50.852"/>
  </g>
  <path d="M397.9231,54.8543c.4033-.7872,4.2345-7.9709,11.9687-12.9731" style="fill: none; stroke: #000; stroke-miterlimit: 10;"/>
  <g>
    <path d="M380.6831,8.9316c-20.085,5.7536-36.7835,21.4547-43.5063,42.3023" style="fill: none; stroke: #000; stroke-miterlimit: 10;"/>
    <polygon points="334.4599 47.5399 337.5875 50.0711 341.5805 49.5771 335.6057 56.9982 334.4599 47.5399"/>
  </g>
  <path d="M459.2882,56.1094c-5.2919-22.3366-21.8004-39.7059-42.4109-46.4818" style="fill: none; stroke: #000; stroke-miterlimit: 10;"/>
  <text transform="translate(385.9547 10.248)" style="font-family: AdobeSongStd-Light-GBpc-EUC-H, &apos;Adobe Song Std&apos;; font-size: 12px; font-weight: 300;"><tspan x="0" y="0">施事</tspan></text>
  <text transform="translate(476.796 42.7038)" style="font-family: AdobeSongStd-Light-GBpc-EUC-H, &apos;Adobe Song Std&apos;; font-size: 12px; font-weight: 300;"><tspan x="0" y="0">受事</tspan></text>
  <g>
    <path d="M504.3655,40.6405c4.4449,2.5161,8.436,6.6482,11.4949,12.055" style="fill: none; stroke: #000; stroke-miterlimit: 10;"/>
    <polygon points="511.2245 51.8483 515.2418 51.6237 517.869 48.5764 518.4247 58.0876 511.2245 51.8483"/>
  </g>
  <path d="M460.8692,55.8506c.4033-.7872,4.2345-7.9709,11.9687-12.9731" style="fill: none; stroke: #000; stroke-miterlimit: 10;"/>
</svg>