<?xml version="1.0" encoding="UTF-8"?>
<svg id="_layer_1" xmlns="http://www.w3.org/2000/svg" viewBox="0 0 863.7 358.6041">
  <rect x="103.6595" y="252.4444" width="45.9048" height="45.9048" style="fill: none; stroke: #000; stroke-miterlimit: 10;"/>
  <g style="isolation: isolate;">
    <text transform="translate(123.0481 280.8665)" style="font-family: NotoSerifSC-ExtraLight, &apos;Noto Serif SC&apos;; font-size: 18px; font-weight: 200; isolation: isolate;"><tspan x="0" y="0">I</tspan></text>
  </g>
  <g>
    <rect x="103.6595" y="129.7932" width="45.9048" height="45.9048" style="fill: none; stroke: #000; stroke-miterlimit: 10;"/>
    <line x1="103.6595" y1="129.7932" x2="149.5642" y2="175.6979" style="fill: none; stroke: #000; stroke-miterlimit: 10;"/>
  </g>
  <g>
    <rect x="225.7547" y="129.7932" width="45.9048" height="45.9048" style="fill: none; stroke: #000; stroke-miterlimit: 10;"/>
    <line x1="225.7547" y1="129.7932" x2="271.6595" y2="175.6979" style="fill: none; stroke: #000; stroke-miterlimit: 10;"/>
  </g>
  <g>
    <rect x="347.85" y="129.7932" width="45.9048" height="45.9048" style="fill: none; stroke: #000; stroke-miterlimit: 10;"/>
    <line x1="347.85" y1="129.7932" x2="393.7548" y2="175.6979" style="fill: none; stroke: #000; stroke-miterlimit: 10;"/>
  </g>
  <g>
    <line x1="126.6119" y1="252.4444" x2="126.6119" y2="181.9534" style="fill: none; stroke: #000; stroke-miterlimit: 10;"/>
    <polygon points="130.315 184.762 126.6119 183.1887 122.9087 184.762 126.6119 175.9837 130.315 184.762"/>
  </g>
  <rect x="225.7547" y="251.6566" width="45.9048" height="45.9048" style="fill: none; stroke: #000; stroke-miterlimit: 10;"/>
  <g style="isolation: isolate;">
    <text transform="translate(228.3675 280.0786)" style="font-family: NotoSerifSC-ExtraLight, &apos;Noto Serif SC&apos;; font-size: 18px; font-weight: 200; isolation: isolate;"><tspan x="0" y="0">Lo</tspan></text>
    <text transform="translate(250.0213 280.0786)" style="font-family: NotoSerifSC-ExtraLight, &apos;Noto Serif SC&apos;; font-size: 18px; font-weight: 200; isolation: isolate; letter-spacing: -.014em;"><tspan x="0" y="0">v</tspan></text>
    <text transform="translate(259.3992 280.0786)" style="font-family: NotoSerifSC-ExtraLight, &apos;Noto Serif SC&apos;; font-size: 18px; font-weight: 200; isolation: isolate;"><tspan x="0" y="0">e</tspan></text>
  </g>
  <g>
    <line x1="248.7071" y1="251.6566" x2="248.7071" y2="181.1655" style="fill: none; stroke: #000; stroke-miterlimit: 10;"/>
    <polygon points="252.4102 183.9741 248.7071 182.4009 245.004 183.9741 248.7071 175.1958 252.4102 183.9741"/>
  </g>
  <rect x="347.85" y="252.1587" width="45.9048" height="45.9048" style="fill: none; stroke: #000; stroke-miterlimit: 10;"/>
  <g style="isolation: isolate;">
    <text transform="translate(355.1605 280.5808)" style="font-family: NotoSerifSC-ExtraLight, &apos;Noto Serif SC&apos;; font-size: 18px; font-weight: 200; isolation: isolate; letter-spacing: -.014em;"><tspan x="0" y="0">y</tspan></text>
    <text transform="translate(364.6102 280.5808)" style="font-family: NotoSerifSC-ExtraLight, &apos;Noto Serif SC&apos;; font-size: 18px; font-weight: 200; isolation: isolate; letter-spacing: -.003em;"><tspan x="0" y="0">o</tspan></text>
    <text transform="translate(375.0863 280.5808)" style="font-family: NotoSerifSC-ExtraLight, &apos;Noto Serif SC&apos;; font-size: 18px; font-weight: 200; isolation: isolate;"><tspan x="0" y="0">u</tspan></text>
  </g>
  <g>
    <line x1="370.8024" y1="252.1587" x2="370.8024" y2="181.6677" style="fill: none; stroke: #000; stroke-miterlimit: 10;"/>
    <polygon points="374.5055 184.4763 370.8024 182.903 367.0992 184.4763 370.8024 175.6979 374.5055 184.4763"/>
  </g>
  <g>
    <line x1="149.5642" y1="152.7456" x2="219.785" y2="152.7456" style="fill: none; stroke: #000; stroke-miterlimit: 10;"/>
    <polygon points="216.9764 156.4487 218.5497 152.7456 216.9764 149.0424 225.7547 152.7456 216.9764 156.4487"/>
  </g>
  <g>
    <line x1="271.6595" y1="152.7456" x2="341.8803" y2="152.7456" style="fill: none; stroke: #000; stroke-miterlimit: 10;"/>
    <polygon points="339.0717 156.4487 340.6449 152.7456 339.0717 149.0424 347.85 152.7456 339.0717 156.4487"/>
  </g>
  <g>
    <rect x="469.9452" y="128.6349" width="45.9048" height="45.9048" style="fill: none; stroke: #000; stroke-miterlimit: 10;"/>
    <line x1="515.85" y1="128.6349" x2="469.9453" y2="174.5397" style="fill: none; stroke: #000; stroke-miterlimit: 10;"/>
  </g>
  <g>
    <rect x="592.0405" y="128.6349" width="45.9048" height="45.9048" style="fill: none; stroke: #000; stroke-miterlimit: 10;"/>
    <line x1="637.9453" y1="128.6349" x2="592.0405" y2="174.5397" style="fill: none; stroke: #000; stroke-miterlimit: 10;"/>
  </g>
  <g>
    <rect x="714.1357" y="128.6349" width="45.9048" height="45.9048" style="fill: none; stroke: #000; stroke-miterlimit: 10;"/>
    <line x1="760.0405" y1="128.6349" x2="714.1358" y2="174.5397" style="fill: none; stroke: #000; stroke-miterlimit: 10;"/>
  </g>
  <g>
    <line x1="515.85" y1="151.5873" x2="586.0708" y2="151.5873" style="fill: none; stroke: #000; stroke-miterlimit: 10;"/>
    <polygon points="583.2622 155.2904 584.8354 151.5873 583.2622 147.8842 592.0405 151.5873 583.2622 155.2904"/>
  </g>
  <g>
    <line x1="637.9453" y1="151.5873" x2="708.166" y2="151.5873" style="fill: none; stroke: #000; stroke-miterlimit: 10;"/>
    <polygon points="705.3574 155.2904 706.9307 151.5873 705.3574 147.8842 714.1357 151.5873 705.3574 155.2904"/>
  </g>
  <g>
    <line x1="393.7548" y1="152.7456" x2="463.9755" y2="152.7456" style="fill: none; stroke: #000; stroke-miterlimit: 10;"/>
    <polygon points="461.1669 156.4487 462.7402 152.7456 461.1669 149.0424 469.9453 152.7456 461.1669 156.4487"/>
  </g>
  <rect x="469.9453" y="5.4815" width="45.9048" height="45.9048" style="fill: none; stroke: #000; stroke-miterlimit: 10;"/>
  <g style="isolation: isolate;">
    <text transform="translate(483.8975 36.6915)" style="font-family: NotoSerifSC-ExtraLight, &apos;Noto Serif SC&apos;; font-size: 18px; font-weight: 200; isolation: isolate;"><tspan x="0" y="0">我</tspan></text>
  </g>
  <g>
    <line x1="492.8976" y1="51.3863" x2="492.8976" y2="121.8773" style="fill: none; stroke: #000; stroke-miterlimit: 10;"/>
    <polygon points="489.1945 119.0687 492.8976 120.642 496.6008 119.0687 492.8976 127.847 489.1945 119.0687"/>
  </g>
  <rect x="592.0405" y="6.2694" width="45.9048" height="45.9048" style="fill: none; stroke: #000; stroke-miterlimit: 10;"/>
  <g style="isolation: isolate;">
    <text transform="translate(605.9927 35.9044)" style="font-family: NotoSerifSC-ExtraLight, &apos;Noto Serif SC&apos;; font-size: 18px; font-weight: 200; isolation: isolate;"><tspan x="0" y="0">爱</tspan></text>
  </g>
  <g>
    <line x1="614.9929" y1="52.1741" x2="614.9929" y2="122.6652" style="fill: none; stroke: #000; stroke-miterlimit: 10;"/>
    <polygon points="611.2897 119.8566 614.9929 121.4298 618.696 119.8566 614.9929 128.6349 611.2897 119.8566"/>
  </g>
  <rect x="714.1358" y="5.7672" width="45.9048" height="45.9048" style="fill: none; stroke: #000; stroke-miterlimit: 10;"/>
  <g style="isolation: isolate;">
    <text transform="translate(728.0882 36.4063)" style="font-family: NotoSerifSC-ExtraLight, &apos;Noto Serif SC&apos;; font-size: 18px; font-weight: 200; isolation: isolate;"><tspan x="0" y="0">你</tspan></text>
  </g>
  <g>
    <line x1="737.0881" y1="51.672" x2="737.0881" y2="122.163" style="fill: none; stroke: #000; stroke-miterlimit: 10;"/>
    <polygon points="733.385 119.3544 737.0881 120.9277 740.7913 119.3544 737.0881 128.1328 733.385 119.3544"/>
  </g>
  <text transform="translate(212.6357 343.7404)" style="font-family: NotoSerifSC-ExtraLight, &apos;Noto Serif SC&apos;; font-size: 18px; font-weight: 200;"><tspan x="0" y="0">Encoder</tspan></text>
  <text transform="translate(578.912 343.7405)" style="font-family: NotoSerifSC-ExtraLight, &apos;Noto Serif SC&apos;; font-size: 18px; font-weight: 200;"><tspan x="0" y="0">Decoder</tspan></text>
</svg>