<?xml version="1.0" encoding="UTF-8"?>
<svg id="_图层_1" xmlns="http://www.w3.org/2000/svg" viewBox="0 0 863.7 115.284">
  <text transform="translate(282.4474 110.8161)" style="font-family: AdobeSongStd-Light-GBpc-EUC-H, &apos;Adobe Song Std&apos;; font-size: 18px; font-weight: 300;"><tspan x="0" y="0">他</tspan></text>
  <text transform="translate(364.0275 110.8181)" style="font-family: AdobeSongStd-Light-GBpc-EUC-H, &apos;Adobe Song Std&apos;; font-size: 18px; font-weight: 300;"><tspan x="0" y="0">喜欢</tspan></text>
  <text transform="translate(463.6715 110.8161)" style="font-family: AdobeSongStd-Light-GBpc-EUC-H, &apos;Adobe Song Std&apos;; font-size: 18px; font-weight: 300;"><tspan x="0" y="0">下</tspan></text>
  <text transform="translate(545.2526 110.8181)" style="font-family: AdobeSongStd-Light-GBpc-EUC-H, &apos;Adobe Song Std&apos;; font-size: 18px; font-weight: 300;"><tspan x="0" y="0">象棋</tspan></text>
  <text transform="translate(323.2365 62.9431)" style="font-family: AdobeSongStd-Light-GBpc-EUC-H, &apos;Adobe Song Std&apos;; font-size: 18px; font-weight: 300;"><tspan x="0" y="0">施事</tspan></text>
  <text transform="translate(404.817 62.9431)" style="font-family: AdobeSongStd-Light-GBpc-EUC-H, &apos;Adobe Song Std&apos;; font-size: 18px; font-weight: 300;"><tspan x="0" y="0">受事</tspan></text>
  <g>
    <path d="M320.1415,59.3157c-9.1068,4.2209-17.1772,11.4628-22.9946,21.0148" style="fill: none; stroke: #000; stroke-miterlimit: 10;"/>
    <polygon points="295.3686 76.1141 297.8251 79.3006 301.824 79.7446 294.2932 85.5807 295.3686 76.1141"/>
  </g>
  <path d="M380.8421,82.4743c-.6072-1.1851-6.3746-11.9994-18.0177-19.5297" style="fill: none; stroke: #000; stroke-miterlimit: 10;"/>
  <g>
    <path d="M446.3217,59.8382c7.404,4.1911,13.9714,11.3606,18.727,20.8126" style="fill: none; stroke: #000; stroke-miterlimit: 10;"/>
    <polygon points="460.4372 79.6938 464.4586 79.5652 467.1577 76.5814 467.4865 86.1032 460.4372 79.6938"/>
  </g>
  <path d="M380.8421,82.7355c.6072-1.1851,6.3746-11.9994,18.0177-19.5297" style="fill: none; stroke: #000; stroke-miterlimit: 10;"/>
  <g>
    <path d="M354.8889,13.6032c-31.1583,8.9256-56.9028,33.7538-66.3785,66.5751" style="fill: none; stroke: #000; stroke-miterlimit: 10;"/>
    <polygon points="285.6667 76.5335 288.8515 78.9922 292.8321 78.4068 287.0291 85.963 285.6667 76.5335"/>
  </g>
  <path d="M473.2213,84.6249c-7.9665-33.6256-32.8184-59.7735-63.8455-69.9739" style="fill: none; stroke: #000; stroke-miterlimit: 10;"/>
  <text transform="translate(362.8229 15.5847)" style="font-family: AdobeSongStd-Light-GBpc-EUC-H, &apos;Adobe Song Std&apos;; font-size: 18px; font-weight: 300;"><tspan x="0" y="0">施事</tspan></text>
  <text transform="translate(499.5768 64.4441)" style="font-family: AdobeSongStd-Light-GBpc-EUC-H, &apos;Adobe Song Std&apos;; font-size: 18px; font-weight: 300;"><tspan x="0" y="0">受事</tspan></text>
  <g>
    <path d="M541.081,61.338c7.404,4.1911,13.9714,11.3606,18.7269,20.8126" style="fill: none; stroke: #000; stroke-miterlimit: 10;"/>
    <polygon points="555.1965 81.1936 559.2179 81.065 561.9171 78.0812 562.2458 87.603 555.1965 81.1936"/>
  </g>
  <path d="M475.6014,84.2353c.6072-1.1851,6.3746-11.9994,18.0177-19.5297" style="fill: none; stroke: #000; stroke-miterlimit: 10;"/>
</svg>