<?xml version="1.0" encoding="UTF-8"?>
<svg id="_图层_1" data-name="图层_1" xmlns="http://www.w3.org/2000/svg" viewBox="0 0 460.8 345.6">
  <g id="axes_1">
    <g id="matplotlib.axis_1">
      <g id="xtick_1">
        <g id="line2d_1">
          <path id="maae9ed10b9" d="M57.6,307.584v3.5" style="stroke: #000; stroke-linejoin: round; stroke-width: .8px;"/>
        </g>
        <g id="text_1">
          <g>
            <path id="SimSun-2d" d="M47.9125,318.2559v-.3516h4.3359v.3516h-4.3359Z"/>
            <path id="SimSun-30" d="M55.1,315.1309c-.3646,0-.6708.2802-.9188.8406-.2469.5594-.3703,1.3078-.3703,2.2453,0,.9896.1234,1.7578.3703,2.3047.2479.5469.5542.8203.9188.8203.3906,0,.6964-.2734.9172-.8203.2219-.5469.3328-1.3151.3328-2.3047,0-.9375-.1042-1.6859-.3125-2.2453-.2083-.5604-.5208-.8406-.9375-.8406ZM55.1,321.6543c-.5729,0-1.0547-.2995-1.4453-.8984-.3906-.599-.5859-1.4453-.5859-2.5391,0-1.0156.1885-1.8359.5656-2.4609.3781-.625.8667-.9375,1.4656-.9375.5729,0,1.0479.2995,1.425.8984.3781.599.5672,1.4323.5672,2.5s-.1891,1.9078-.5672,2.5203c-.3771.6115-.8521.9172-1.425.9172Z"/>
            <path id="SimSun-2e" d="M58.85,321.6934c-.1563,0-.2932-.0521-.4109-.1563-.1167-.1042-.175-.2474-.175-.4297s.0583-.3255.175-.4297c.1177-.1042.2547-.1563.4109-.1563s.2927.0589.4094.1766c.1177.1167.1766.2531.1766.4094,0,.1823-.0589.3255-.1766.4297-.1167.1042-.2531.1563-.4094.1563Z"/>
            <path id="SimSun-36" d="M63.8109,318.9199c0,.7813.1365,1.387.4094,1.8172.274.4292.6063.6438.9969.6438s.6901-.1432.8984-.4297c.2083-.2865.3125-.8203.3125-1.6016,0-.5208-.1109-.9245-.3328-1.2109-.2208-.2865-.4875-.4297-.8-.4297-.2865,0-.5536.0849-.8016.2547-.2469.1688-.4745.4875-.6828.9563ZM65.3344,317.3184c.625,0,1.074.2083,1.3469.625.274.4167.4109.8854.4109,1.4063,0,.7813-.1891,1.3609-.5672,1.7391-.3771.3771-.813.5656-1.3078.5656-.7031,0-1.237-.2667-1.6016-.8-.3646-.5344-.5469-1.3094-.5469-2.325,0-1.1979.2214-2.1156.6641-2.7531.4427-.6385,1.0417-.9578,1.7969-.9578.3646,0,.6573.1042.8781.3125.2219.2083.3328.3906.3328.5469s-.0328.2734-.0984.3516c-.0646.0781-.175.1172-.3313.1172-.1302,0-.2281-.0323-.2938-.0969-.0646-.0656-.0969-.1635-.0969-.2938,0-.0521.013-.1042.0391-.1563v-.1563c0-.1042-.0391-.1885-.1172-.2531-.0781-.0656-.2214-.0984-.4297-.0984-.4427,0-.8203.2021-1.1328.6063-.3125.4031-.4688,1.2818-.4688,2.6359.1563-.3385.3708-.5922.6438-.7609.274-.1698.5672-.2547.8797-.2547Z"/>
          </g>
        </g>
      </g>
      <g id="xtick_2">
        <g id="line2d_2">
          <path id="maae9ed10b9-2" data-name="maae9ed10b9" d="M117.12,307.584v3.5" style="stroke: #000; stroke-linejoin: round; stroke-width: .8px;"/>
        </g>
        <g id="text_2">
          <g>
            <path id="SimSun-2d-2" data-name="SimSun-2d" d="M107.4325,318.2559v-.3516h4.3359v.3516h-4.3359Z"/>
            <path id="SimSun-30-2" data-name="SimSun-30" d="M114.62,315.1309c-.3646,0-.6708.2802-.9188.8406-.2469.5594-.3703,1.3078-.3703,2.2453,0,.9896.1234,1.7578.3703,2.3047.2479.5469.5542.8203.9188.8203.3906,0,.6964-.2734.9172-.8203.2219-.5469.3328-1.3151.3328-2.3047,0-.9375-.1042-1.6859-.3125-2.2453-.2083-.5604-.5208-.8406-.9375-.8406ZM114.62,321.6543c-.5729,0-1.0547-.2995-1.4453-.8984-.3906-.599-.5859-1.4453-.5859-2.5391,0-1.0156.1885-1.8359.5656-2.4609.3781-.625.8667-.9375,1.4656-.9375.5729,0,1.0479.2995,1.425.8984.3781.599.5672,1.4323.5672,2.5s-.1891,1.9078-.5672,2.5203c-.3771.6115-.8521.9172-1.425.9172Z"/>
            <path id="SimSun-2e-2" data-name="SimSun-2e" d="M118.37,321.6934c-.1563,0-.2932-.0521-.4109-.1563-.1167-.1042-.175-.2474-.175-.4297s.0583-.3255.175-.4297c.1177-.1042.2547-.1563.4109-.1563s.2927.0589.4094.1766c.1177.1167.1766.2531.1766.4094,0,.1823-.0589.3255-.1766.4297-.1167.1042-.2531.1563-.4094.1563Z"/>
            <path id="SimSun-35" d="M124.8153,317.2793c.4948,0,.8984.1891,1.2109.5672.3125.3771.4688.8781.4688,1.5031,0,.7031-.163,1.263-.4891,1.6797-.325.4167-.826.625-1.5031.625-.4688,0-.8854-.1365-1.25-.4094-.3646-.274-.5469-.6063-.5469-.9969,0-.1563.0453-.2927.1359-.4094.0917-.1177.2156-.1766.3719-.1766s.2604.0521.3125.1563.0781.1953.0781.2734c0,.1563-.0391.2734-.1172.3516-.0781.1042-.1172.2083-.1172.3125,0,.2083.1234.3646.3703.4688.2479.1042.5151.1563.8016.1563.4167,0,.7354-.1693.9563-.5078.2219-.3385.3328-.8203.3328-1.4453,0-.5208-.0979-.9438-.2938-1.2688-.1948-.326-.4875-.4891-.8781-.4891-.2865,0-.5339.0521-.7422.1563-.2083.1042-.4036.3255-.5859.6641l-.3516-.0391.1953-3.5547h3.2031l-.1172.5859h-2.8125l-.1563,2.5781c.2604-.3646.5141-.5859.7609-.6641.2479-.0781.5021-.1172.7625-.1172Z"/>
          </g>
        </g>
      </g>
      <g id="xtick_3">
        <g id="line2d_3">
          <path id="maae9ed10b9-3" data-name="maae9ed10b9" d="M176.64,307.584v3.5" style="stroke: #000; stroke-linejoin: round; stroke-width: .8px;"/>
        </g>
        <g id="text_3">
          <g>
            <path id="SimSun-2d-3" data-name="SimSun-2d" d="M166.9525,318.2559v-.3516h4.3359v.3516h-4.3359Z"/>
            <path id="SimSun-30-3" data-name="SimSun-30" d="M174.14,315.1309c-.3646,0-.6708.2802-.9188.8406-.2469.5594-.3703,1.3078-.3703,2.2453,0,.9896.1234,1.7578.3703,2.3047.2479.5469.5542.8203.9188.8203.3906,0,.6964-.2734.9172-.8203.2219-.5469.3328-1.3151.3328-2.3047,0-.9375-.1042-1.6859-.3125-2.2453-.2083-.5604-.5208-.8406-.9375-.8406ZM174.14,321.6543c-.5729,0-1.0547-.2995-1.4453-.8984-.3906-.599-.5859-1.4453-.5859-2.5391,0-1.0156.1885-1.8359.5656-2.4609.3781-.625.8667-.9375,1.4656-.9375.5729,0,1.0479.2995,1.425.8984.3781.599.5672,1.4323.5672,2.5s-.1891,1.9078-.5672,2.5203c-.3771.6115-.8521.9172-1.425.9172Z"/>
            <path id="SimSun-2e-3" data-name="SimSun-2e" d="M177.89,321.6934c-.1563,0-.2932-.0521-.4109-.1563-.1167-.1042-.175-.2474-.175-.4297s.0583-.3255.175-.4297c.1177-.1042.2547-.1563.4109-.1563s.2927.0589.4094.1766c.1177.1167.1766.2531.1766.4094,0,.1823-.0589.3255-.1766.4297-.1167.1042-.2531.1563-.4094.1563Z"/>
            <path id="SimSun-34" d="M185.2337,320.834c0,.1823.0521.3125.1563.3906s.2474.1172.4297.1172h.3516v.2344h-2.5781v-.2344h.4297c.2083,0,.3578-.0391.4484-.1172.0917-.0781.1375-.2083.1375-.3906v-1.2891h-2.6172v-.1953l2.8516-4.5313h.3906v4.4922h1.0547v.2344h-1.0547v1.2891ZM184.5697,315.7949l-2.2266,3.5156h2.2656v-3.5156h-.0391Z"/>
          </g>
        </g>
      </g>
      <g id="xtick_4">
        <g id="line2d_4">
          <path id="maae9ed10b9-4" data-name="maae9ed10b9" d="M236.16,307.584v3.5" style="stroke: #000; stroke-linejoin: round; stroke-width: .8px;"/>
        </g>
        <g id="text_4">
          <g>
            <path id="SimSun-2d-4" data-name="SimSun-2d" d="M226.4725,318.2559v-.3516h4.3359v.3516h-4.3359Z"/>
            <path id="SimSun-30-4" data-name="SimSun-30" d="M233.66,315.1309c-.3646,0-.6708.2802-.9188.8406-.2469.5594-.3703,1.3078-.3703,2.2453,0,.9896.1234,1.7578.3703,2.3047.2479.5469.5542.8203.9188.8203.3906,0,.6964-.2734.9172-.8203.2219-.5469.3328-1.3151.3328-2.3047,0-.9375-.1042-1.6859-.3125-2.2453-.2083-.5604-.5208-.8406-.9375-.8406ZM233.66,321.6543c-.5729,0-1.0547-.2995-1.4453-.8984-.3906-.599-.5859-1.4453-.5859-2.5391,0-1.0156.1885-1.8359.5656-2.4609.3781-.625.8667-.9375,1.4656-.9375.5729,0,1.0479.2995,1.425.8984.3781.599.5672,1.4323.5672,2.5s-.1891,1.9078-.5672,2.5203c-.3771.6115-.8521.9172-1.425.9172Z"/>
            <path id="SimSun-2e-4" data-name="SimSun-2e" d="M237.41,321.6934c-.1563,0-.2932-.0521-.4109-.1563-.1167-.1042-.175-.2474-.175-.4297s.0583-.3255.175-.4297c.1177-.1042.2547-.1563.4109-.1563s.2927.0589.4094.1766c.1177.1167.1766.2531.1766.4094,0,.1823-.0589.3255-.1766.4297-.1167.1042-.2531.1563-.4094.1563Z"/>
            <path id="SimSun-33" d="M245.535,319.7793c0,.4948-.1823.9313-.5469,1.3094-.3646.3771-.8724.5656-1.5234.5656-.4688,0-.8724-.1302-1.2109-.3906-.3385-.2604-.5078-.5599-.5078-.8984,0-.1563.0521-.2927.1563-.4094.1042-.1177.2083-.1766.3125-.1766.1563,0,.2667.0589.3313.1766.0656.1167.0984.2141.0984.2922,0,.1302-.026.2344-.0781.3125-.0521.1042-.0781.1953-.0781.2734,0,.1563.0974.2865.2922.3906.1958.1042.4109.1563.6453.1563.4688,0,.8203-.1365,1.0547-.4094.2344-.274.3516-.6974.3516-1.2703,0-.4688-.124-.8464-.3719-1.1328-.2469-.2865-.7089-.4297-1.3859-.4297v-.2734c.5208,0,.9047-.1234,1.1516-.3703.2479-.2479.3719-.5932.3719-1.0359,0-.3646-.0979-.6833-.2938-.9563-.1948-.274-.5005-.4109-.9172-.4109-.1823,0-.3776.0458-.5859.1375-.2083.0906-.3125.2401-.3125.4484s.026.3385.0781.3906.0781.1172.0781.1953c0,.1302-.026.2344-.0781.3125s-.1432.1172-.2734.1172c-.1042,0-.2021-.0391-.2938-.1172-.0906-.0781-.1359-.2214-.1359-.4297,0-.3906.1693-.7094.5078-.9563.3385-.2479.7292-.3719,1.1719-.3719.5208,0,.9375.163,1.25.4891.3125.325.4688.6698.4688,1.0344,0,.3906-.0979.7229-.2938.9969-.1948.2729-.5005.4745-.9172.6047.5729.2083.9635.4818,1.1719.8203.2083.3385.3125.6771.3125,1.0156Z"/>
          </g>
        </g>
      </g>
      <g id="xtick_5">
        <g id="line2d_5">
          <path id="maae9ed10b9-5" data-name="maae9ed10b9" d="M295.68,307.584v3.5" style="stroke: #000; stroke-linejoin: round; stroke-width: .8px;"/>
        </g>
        <g id="text_5">
          <g>
            <path id="SimSun-2d-5" data-name="SimSun-2d" d="M285.9925,318.2559v-.3516h4.3359v.3516h-4.3359Z"/>
            <path id="SimSun-30-5" data-name="SimSun-30" d="M293.18,315.1309c-.3646,0-.6708.2802-.9188.8406-.2469.5594-.3703,1.3078-.3703,2.2453,0,.9896.1234,1.7578.3703,2.3047.2479.5469.5542.8203.9188.8203.3906,0,.6964-.2734.9172-.8203.2219-.5469.3328-1.3151.3328-2.3047,0-.9375-.1042-1.6859-.3125-2.2453-.2083-.5604-.5208-.8406-.9375-.8406ZM293.18,321.6543c-.5729,0-1.0547-.2995-1.4453-.8984-.3906-.599-.5859-1.4453-.5859-2.5391,0-1.0156.1885-1.8359.5656-2.4609.3781-.625.8667-.9375,1.4656-.9375.5729,0,1.0479.2995,1.425.8984.3781.599.5672,1.4323.5672,2.5s-.1891,1.9078-.5672,2.5203c-.3771.6115-.8521.9172-1.425.9172Z"/>
            <path id="SimSun-2e-5" data-name="SimSun-2e" d="M296.93,321.6934c-.1563,0-.2932-.0521-.4109-.1563-.1167-.1042-.175-.2474-.175-.4297s.0583-.3255.175-.4297c.1177-.1042.2547-.1563.4109-.1563s.2927.0589.4094.1766c.1177.1167.1766.2531.1766.4094,0,.1823-.0589.3255-.1766.4297-.1167.1042-.2531.1563-.4094.1563Z"/>
            <path id="SimSun-32" d="M304.3128,316.5371c0-.4688-.1042-.8266-.3125-1.0734-.2083-.2479-.5208-.3719-.9375-.3719-.3125,0-.5797.0849-.8016.2547-.2208.1688-.3313.3833-.3313.6438,0,.1563.0521.2865.1563.3906.0781.1042.1172.2083.1172.3125,0,.1302-.0328.2281-.0984.2938-.0646.0646-.162.0969-.2922.0969-.1563,0-.2802-.0453-.3719-.1359-.0906-.0917-.1359-.2417-.1359-.45,0-.5469.1953-.9635.5859-1.25.3906-.2865.8073-.4297,1.25-.4297.625,0,1.087.1563,1.3859.4688.3.3125.45.7031.45,1.1719,0,.3125-.0719.625-.2156.9375-.1427.3125-.3703.612-.6828.8984-.7552.7292-1.3349,1.3219-1.7391,1.7781-.4031.4552-.6438.7609-.7219.9172h2.3047c.2344,0,.4297-.0911.5859-.2734s.2604-.4557.3125-.8203h.2344l-.2344,1.6797h-3.6328v-.5078c.1302-.2344.3448-.5339.6438-.8984.3-.3646.6974-.7943,1.1922-1.2891.4427-.4427.7682-.8594.9766-1.25.2083-.3906.3125-.7552.3125-1.0938Z"/>
          </g>
        </g>
      </g>
      <g id="xtick_6">
        <g id="line2d_6">
          <path id="maae9ed10b9-6" data-name="maae9ed10b9" d="M355.2,307.584v3.5" style="stroke: #000; stroke-linejoin: round; stroke-width: .8px;"/>
        </g>
        <g id="text_6">
          <g>
            <path id="SimSun-2d-6" data-name="SimSun-2d" d="M345.5125,318.2559v-.3516h4.3359v.3516h-4.3359Z"/>
            <path id="SimSun-30-6" data-name="SimSun-30" d="M352.7,315.1309c-.3646,0-.6708.2802-.9188.8406-.2469.5594-.3703,1.3078-.3703,2.2453,0,.9896.1234,1.7578.3703,2.3047.2479.5469.5542.8203.9188.8203.3906,0,.6964-.2734.9172-.8203.2219-.5469.3328-1.3151.3328-2.3047,0-.9375-.1042-1.6859-.3125-2.2453-.2083-.5604-.5208-.8406-.9375-.8406ZM352.7,321.6543c-.5729,0-1.0547-.2995-1.4453-.8984-.3906-.599-.5859-1.4453-.5859-2.5391,0-1.0156.1885-1.8359.5656-2.4609.3781-.625.8667-.9375,1.4656-.9375.5729,0,1.0479.2995,1.425.8984.3781.599.5672,1.4323.5672,2.5s-.1891,1.9078-.5672,2.5203c-.3771.6115-.8521.9172-1.425.9172Z"/>
            <path id="SimSun-2e-6" data-name="SimSun-2e" d="M356.45,321.6934c-.1563,0-.2932-.0521-.4109-.1563-.1167-.1042-.175-.2474-.175-.4297s.0583-.3255.175-.4297c.1177-.1042.2547-.1563.4109-.1563s.2927.0589.4094.1766c.1177.1167.1766.2531.1766.4094,0,.1823-.0589.3255-.1766.4297-.1167.1042-.2531.1563-.4094.1563Z"/>
            <path id="SimSun-31" d="M363.0516,314.7793v5.9375c0,.2083.0651.3646.1953.4688s.3125.1563.5469.1563h.3906v.2344h-2.8516v-.2344h.3516c.2604,0,.449-.0521.5656-.1563.1177-.1042.1766-.2604.1766-.4688v-4.7266c0-.1042-.0328-.1885-.0984-.2531-.0646-.0656-.162-.0984-.2922-.0984h-.7031v-.2344h.3516c.3125,0,.5661-.0521.7609-.1563.1958-.1042.3458-.2604.45-.4688h.1563Z"/>
          </g>
        </g>
      </g>
      <g id="xtick_7">
        <g id="line2d_7">
          <path id="maae9ed10b9-7" data-name="maae9ed10b9" d="M414.72,307.584v3.5" style="stroke: #000; stroke-linejoin: round; stroke-width: .8px;"/>
        </g>
        <g id="text_7">
          <g>
            <path id="SimSun-30-7" data-name="SimSun-30" d="M409.72,315.1309c-.3646,0-.6708.2802-.9188.8406-.2469.5594-.3703,1.3078-.3703,2.2453,0,.9896.1234,1.7578.3703,2.3047.2479.5469.5542.8203.9188.8203.3906,0,.6964-.2734.9172-.8203.2219-.5469.3328-1.3151.3328-2.3047,0-.9375-.1042-1.6859-.3125-2.2453-.2083-.5604-.5208-.8406-.9375-.8406ZM409.72,321.6543c-.5729,0-1.0547-.2995-1.4453-.8984-.3906-.599-.5859-1.4453-.5859-2.5391,0-1.0156.1885-1.8359.5656-2.4609.3781-.625.8667-.9375,1.4656-.9375.5729,0,1.0479.2995,1.425.8984.3781.599.5672,1.4323.5672,2.5s-.1891,1.9078-.5672,2.5203c-.3771.6115-.8521.9172-1.425.9172Z"/>
            <path id="SimSun-2e-7" data-name="SimSun-2e" d="M413.47,321.6934c-.1563,0-.2932-.0521-.4109-.1563-.1167-.1042-.175-.2474-.175-.4297s.0583-.3255.175-.4297c.1177-.1042.2547-.1563.4109-.1563s.2927.0589.4094.1766c.1177.1167.1766.2531.1766.4094,0,.1823-.0589.3255-.1766.4297-.1167.1042-.2531.1563-.4094.1563Z"/>
            <path id="SimSun-30-8" data-name="SimSun-30" d="M419.72,315.1309c-.3646,0-.6708.2802-.9188.8406-.2469.5594-.3703,1.3078-.3703,2.2453,0,.9896.1234,1.7578.3703,2.3047.2479.5469.5542.8203.9188.8203.3906,0,.6964-.2734.9172-.8203.2219-.5469.3328-1.3151.3328-2.3047,0-.9375-.1042-1.6859-.3125-2.2453-.2083-.5604-.5208-.8406-.9375-.8406ZM419.72,321.6543c-.5729,0-1.0547-.2995-1.4453-.8984-.3906-.599-.5859-1.4453-.5859-2.5391,0-1.0156.1885-1.8359.5656-2.4609.3781-.625.8667-.9375,1.4656-.9375.5729,0,1.0479.2995,1.425.8984.3781.599.5672,1.4323.5672,2.5s-.1891,1.9078-.5672,2.5203c-.3771.6115-.8521.9172-1.425.9172Z"/>
          </g>
        </g>
      </g>
    </g>
    <g id="matplotlib.axis_2">
      <g id="ytick_1">
        <g id="line2d_8">
          <path id="m700752b6b1" d="M57.6,307.584h-3.5" style="stroke: #000; stroke-linejoin: round; stroke-width: .8px;"/>
        </g>
        <g id="text_8">
          <g>
            <path id="SimSun-2d-7" data-name="SimSun-2d" d="M30.9125,307.6817v-.3516h4.3359v.3516h-4.3359Z"/>
            <path id="SimSun-30-9" data-name="SimSun-30" d="M38.1,304.5567c-.3646,0-.6708.2802-.9188.8406-.2469.5594-.3703,1.3078-.3703,2.2453,0,.9896.1234,1.7578.3703,2.3047.2479.5469.5542.8203.9188.8203.3906,0,.6964-.2734.9172-.8203.2219-.5469.3328-1.3151.3328-2.3047,0-.9375-.1042-1.6859-.3125-2.2453-.2083-.5604-.5208-.8406-.9375-.8406ZM38.1,311.0801c-.5729,0-1.0547-.2995-1.4453-.8984-.3906-.599-.5859-1.4453-.5859-2.5391,0-1.0156.1885-1.8359.5656-2.4609.3781-.625.8667-.9375,1.4656-.9375.5729,0,1.0479.2995,1.425.8984.3781.599.5672,1.4323.5672,2.5s-.1891,1.9078-.5672,2.5203c-.3771.6115-.8521.9172-1.425.9172Z"/>
            <path id="SimSun-2e-8" data-name="SimSun-2e" d="M41.85,311.1192c-.1563,0-.2932-.0521-.4109-.1563-.1167-.1042-.175-.2474-.175-.4297s.0583-.3255.175-.4297c.1177-.1042.2547-.1563.4109-.1563s.2927.0589.4094.1766c.1177.1167.1766.2531.1766.4094,0,.1823-.0589.3255-.1766.4297-.1167.1042-.2531.1563-.4094.1563Z"/>
            <path id="SimSun-36-2" data-name="SimSun-36" d="M46.8109,308.3458c0,.7813.1365,1.387.4094,1.8172.274.4292.6063.6438.9969.6438s.6901-.1432.8984-.4297c.2083-.2865.3125-.8203.3125-1.6016,0-.5208-.1109-.9245-.3328-1.2109-.2208-.2865-.4875-.4297-.8-.4297-.2865,0-.5536.0849-.8016.2547-.2469.1688-.4745.4875-.6828.9563ZM48.3344,306.7442c.625,0,1.074.2083,1.3469.625.274.4167.4109.8854.4109,1.4063,0,.7813-.1891,1.3609-.5672,1.7391-.3771.3771-.813.5656-1.3078.5656-.7031,0-1.237-.2667-1.6016-.8-.3646-.5344-.5469-1.3094-.5469-2.325,0-1.1979.2214-2.1156.6641-2.7531.4427-.6385,1.0417-.9578,1.7969-.9578.3646,0,.6573.1042.8781.3125.2219.2083.3328.3906.3328.5469s-.0328.2734-.0984.3516c-.0646.0781-.175.1172-.3313.1172-.1302,0-.2281-.0323-.2938-.0969-.0646-.0656-.0969-.1635-.0969-.2938,0-.0521.013-.1042.0391-.1563v-.1563c0-.1042-.0391-.1885-.1172-.2531-.0781-.0656-.2214-.0984-.4297-.0984-.4427,0-.8203.2021-1.1328.6063-.3125.4031-.4688,1.2818-.4688,2.6359.1563-.3385.3708-.5922.6438-.7609.274-.1698.5672-.2547.8797-.2547Z"/>
          </g>
        </g>
      </g>
      <g id="ytick_2">
        <g id="line2d_9">
          <path id="m700752b6b1-2" data-name="m700752b6b1" d="M57.6,263.232h-3.5" style="stroke: #000; stroke-linejoin: round; stroke-width: .8px;"/>
        </g>
        <g id="text_9">
          <g>
            <path id="SimSun-2d-8" data-name="SimSun-2d" d="M30.9125,263.3297v-.3516h4.3359v.3516h-4.3359Z"/>
            <path id="SimSun-30-10" data-name="SimSun-30" d="M38.1,260.2047c-.3646,0-.6708.2802-.9188.8406-.2469.5594-.3703,1.3078-.3703,2.2453,0,.9896.1234,1.7578.3703,2.3047.2479.5469.5542.8203.9188.8203.3906,0,.6964-.2734.9172-.8203.2219-.5469.3328-1.3151.3328-2.3047,0-.9375-.1042-1.6859-.3125-2.2453-.2083-.5604-.5208-.8406-.9375-.8406ZM38.1,266.7281c-.5729,0-1.0547-.2995-1.4453-.8984-.3906-.599-.5859-1.4453-.5859-2.5391,0-1.0156.1885-1.8359.5656-2.4609.3781-.625.8667-.9375,1.4656-.9375.5729,0,1.0479.2995,1.425.8984.3781.599.5672,1.4323.5672,2.5s-.1891,1.9078-.5672,2.5203c-.3771.6115-.8521.9172-1.425.9172Z"/>
            <path id="SimSun-2e-9" data-name="SimSun-2e" d="M41.85,266.7672c-.1563,0-.2932-.0521-.4109-.1563-.1167-.1042-.175-.2474-.175-.4297s.0583-.3255.175-.4297c.1177-.1042.2547-.1563.4109-.1563s.2927.0589.4094.1766c.1177.1167.1766.2531.1766.4094,0,.1823-.0589.3255-.1766.4297-.1167.1042-.2531.1563-.4094.1563Z"/>
            <path id="SimSun-34-2" data-name="SimSun-34" d="M49.1938,265.9078c0,.1823.0521.3125.1563.3906s.2474.1172.4297.1172h.3516v.2344h-2.5781v-.2344h.4297c.2083,0,.3578-.0391.4484-.1172.0917-.0781.1375-.2083.1375-.3906v-1.2891h-2.6172v-.1953l2.8516-4.5313h.3906v4.4922h1.0547v.2344h-1.0547v1.2891ZM48.5297,260.8687l-2.2266,3.5156h2.2656v-3.5156h-.0391Z"/>
          </g>
        </g>
      </g>
      <g id="ytick_3">
        <g id="line2d_10">
          <path id="m700752b6b1-3" data-name="m700752b6b1" d="M57.6,218.88h-3.5" style="stroke: #000; stroke-linejoin: round; stroke-width: .8px;"/>
        </g>
        <g id="text_10">
          <g>
            <path id="SimSun-2d-9" data-name="SimSun-2d" d="M30.9125,218.9777v-.3516h4.3359v.3516h-4.3359Z"/>
            <path id="SimSun-30-11" data-name="SimSun-30" d="M38.1,215.8527c-.3646,0-.6708.2802-.9188.8406-.2469.5594-.3703,1.3078-.3703,2.2453,0,.9896.1234,1.7578.3703,2.3047.2479.5469.5542.8203.9188.8203.3906,0,.6964-.2734.9172-.8203.2219-.5469.3328-1.3151.3328-2.3047,0-.9375-.1042-1.6859-.3125-2.2453-.2083-.5604-.5208-.8406-.9375-.8406ZM38.1,222.3761c-.5729,0-1.0547-.2995-1.4453-.8984-.3906-.599-.5859-1.4453-.5859-2.5391,0-1.0156.1885-1.8359.5656-2.4609.3781-.625.8667-.9375,1.4656-.9375.5729,0,1.0479.2995,1.425.8984.3781.599.5672,1.4323.5672,2.5s-.1891,1.9078-.5672,2.5203c-.3771.6115-.8521.9172-1.425.9172Z"/>
            <path id="SimSun-2e-10" data-name="SimSun-2e" d="M41.85,222.4152c-.1563,0-.2932-.0521-.4109-.1563-.1167-.1042-.175-.2474-.175-.4297s.0583-.3255.175-.4297c.1177-.1042.2547-.1563.4109-.1563s.2927.0589.4094.1766c.1177.1167.1766.2531.1766.4094,0,.1823-.0589.3255-.1766.4297-.1167.1042-.2531.1563-.4094.1563Z"/>
            <path id="SimSun-32-2" data-name="SimSun-32" d="M49.2328,217.2589c0-.4688-.1042-.8266-.3125-1.0734-.2083-.2479-.5208-.3719-.9375-.3719-.3125,0-.5797.0849-.8016.2547-.2208.1688-.3313.3833-.3313.6438,0,.1563.0521.2865.1563.3906.0781.1042.1172.2083.1172.3125,0,.1302-.0328.2281-.0984.2938-.0646.0646-.162.0969-.2922.0969-.1563,0-.2802-.0453-.3719-.1359-.0906-.0917-.1359-.2417-.1359-.45,0-.5469.1953-.9635.5859-1.25.3906-.2865.8073-.4297,1.25-.4297.625,0,1.087.1563,1.3859.4688.3.3125.45.7031.45,1.1719,0,.3125-.0719.625-.2156.9375-.1427.3125-.3703.612-.6828.8984-.7552.7292-1.3349,1.3219-1.7391,1.7781-.4031.4552-.6438.7609-.7219.9172h2.3047c.2344,0,.4297-.0911.5859-.2734s.2604-.4557.3125-.8203h.2344l-.2344,1.6797h-3.6328v-.5078c.1302-.2344.3448-.5339.6438-.8984.3-.3646.6974-.7943,1.1922-1.2891.4427-.4427.7682-.8594.9766-1.25.2083-.3906.3125-.7552.3125-1.0938Z"/>
          </g>
        </g>
      </g>
      <g id="ytick_4">
        <g id="line2d_11">
          <path id="m700752b6b1-4" data-name="m700752b6b1" d="M57.6,174.528h-3.5" style="stroke: #000; stroke-linejoin: round; stroke-width: .8px;"/>
        </g>
        <g id="text_11">
          <g>
            <path id="SimSun-30-12" data-name="SimSun-30" d="M38.1,171.5007c-.3646,0-.6708.2802-.9188.8406-.2469.5594-.3703,1.3078-.3703,2.2453,0,.9896.1234,1.7578.3703,2.3047.2479.5469.5542.8203.9188.8203.3906,0,.6964-.2734.9172-.8203.2219-.5469.3328-1.3151.3328-2.3047,0-.9375-.1042-1.6859-.3125-2.2453-.2083-.5604-.5208-.8406-.9375-.8406ZM38.1,178.0241c-.5729,0-1.0547-.2995-1.4453-.8984-.3906-.599-.5859-1.4453-.5859-2.5391,0-1.0156.1885-1.8359.5656-2.4609.3781-.625.8667-.9375,1.4656-.9375.5729,0,1.0479.2995,1.425.8984.3781.599.5672,1.4323.5672,2.5s-.1891,1.9078-.5672,2.5203c-.3771.6115-.8521.9172-1.425.9172Z"/>
            <path id="SimSun-2e-11" data-name="SimSun-2e" d="M41.85,178.0632c-.1563,0-.2932-.0521-.4109-.1563-.1167-.1042-.175-.2474-.175-.4297s.0583-.3255.175-.4297c.1177-.1042.2547-.1563.4109-.1563s.2927.0589.4094.1766c.1177.1167.1766.2531.1766.4094,0,.1823-.0589.3255-.1766.4297-.1167.1042-.2531.1563-.4094.1563Z"/>
            <path id="SimSun-30-13" data-name="SimSun-30" d="M48.1,171.5007c-.3646,0-.6708.2802-.9188.8406-.2469.5594-.3703,1.3078-.3703,2.2453,0,.9896.1234,1.7578.3703,2.3047.2479.5469.5542.8203.9188.8203.3906,0,.6964-.2734.9172-.8203.2219-.5469.3328-1.3151.3328-2.3047,0-.9375-.1042-1.6859-.3125-2.2453-.2083-.5604-.5208-.8406-.9375-.8406ZM48.1,178.0241c-.5729,0-1.0547-.2995-1.4453-.8984-.3906-.599-.5859-1.4453-.5859-2.5391,0-1.0156.1885-1.8359.5656-2.4609.3781-.625.8667-.9375,1.4656-.9375.5729,0,1.0479.2995,1.425.8984.3781.599.5672,1.4323.5672,2.5s-.1891,1.9078-.5672,2.5203c-.3771.6115-.8521.9172-1.425.9172Z"/>
          </g>
        </g>
      </g>
      <g id="ytick_5">
        <g id="line2d_12">
          <path id="m700752b6b1-5" data-name="m700752b6b1" d="M57.6,130.176h-3.5" style="stroke: #000; stroke-linejoin: round; stroke-width: .8px;"/>
        </g>
        <g id="text_12">
          <g>
            <path id="SimSun-30-14" data-name="SimSun-30" d="M38.1,127.1487c-.3646,0-.6708.2802-.9188.8406-.2469.5594-.3703,1.3078-.3703,2.2453,0,.9896.1234,1.7578.3703,2.3047.2479.5469.5542.8203.9188.8203.3906,0,.6964-.2734.9172-.8203.2219-.5469.3328-1.3151.3328-2.3047,0-.9375-.1042-1.6859-.3125-2.2453-.2083-.5604-.5208-.8406-.9375-.8406ZM38.1,133.6721c-.5729,0-1.0547-.2995-1.4453-.8984-.3906-.599-.5859-1.4453-.5859-2.5391,0-1.0156.1885-1.8359.5656-2.4609.3781-.625.8667-.9375,1.4656-.9375.5729,0,1.0479.2995,1.425.8984.3781.599.5672,1.4323.5672,2.5s-.1891,1.9078-.5672,2.5203c-.3771.6115-.8521.9172-1.425.9172Z"/>
            <path id="SimSun-2e-12" data-name="SimSun-2e" d="M41.85,133.7112c-.1563,0-.2932-.0521-.4109-.1563-.1167-.1042-.175-.2474-.175-.4297s.0583-.3255.175-.4297c.1177-.1042.2547-.1563.4109-.1563s.2927.0589.4094.1766c.1177.1167.1766.2531.1766.4094,0,.1823-.0589.3255-.1766.4297-.1167.1042-.2531.1563-.4094.1563Z"/>
            <path id="SimSun-32-3" data-name="SimSun-32" d="M49.2328,128.5549c0-.4688-.1042-.8266-.3125-1.0734-.2083-.2479-.5208-.3719-.9375-.3719-.3125,0-.5797.0849-.8016.2547-.2208.1688-.3313.3833-.3313.6438,0,.1563.0521.2865.1563.3906.0781.1042.1172.2083.1172.3125,0,.1302-.0328.2281-.0984.2938-.0646.0646-.162.0969-.2922.0969-.1563,0-.2802-.0453-.3719-.1359-.0906-.0917-.1359-.2417-.1359-.45,0-.5469.1953-.9635.5859-1.25.3906-.2865.8073-.4297,1.25-.4297.625,0,1.087.1563,1.3859.4688.3.3125.45.7031.45,1.1719,0,.3125-.0719.625-.2156.9375-.1427.3125-.3703.612-.6828.8984-.7552.7292-1.3349,1.3219-1.7391,1.7781-.4031.4552-.6438.7609-.7219.9172h2.3047c.2344,0,.4297-.0911.5859-.2734s.2604-.4557.3125-.8203h.2344l-.2344,1.6797h-3.6328v-.5078c.1302-.2344.3448-.5339.6438-.8984.3-.3646.6974-.7943,1.1922-1.2891.4427-.4427.7682-.8594.9766-1.25.2083-.3906.3125-.7552.3125-1.0938Z"/>
          </g>
        </g>
      </g>
      <g id="ytick_6">
        <g id="line2d_13">
          <path id="m700752b6b1-6" data-name="m700752b6b1" d="M57.6,85.824h-3.5" style="stroke: #000; stroke-linejoin: round; stroke-width: .8px;"/>
        </g>
        <g id="text_13">
          <g>
            <path id="SimSun-30-15" data-name="SimSun-30" d="M38.1,82.7967c-.3646,0-.6708.2802-.9188.8406-.2469.5594-.3703,1.3078-.3703,2.2453,0,.9896.1234,1.7578.3703,2.3047.2479.5469.5542.8203.9188.8203.3906,0,.6964-.2734.9172-.8203.2219-.5469.3328-1.3151.3328-2.3047,0-.9375-.1042-1.6859-.3125-2.2453-.2083-.5604-.5208-.8406-.9375-.8406ZM38.1,89.3201c-.5729,0-1.0547-.2995-1.4453-.8984-.3906-.599-.5859-1.4453-.5859-2.5391,0-1.0156.1885-1.8359.5656-2.4609.3781-.625.8667-.9375,1.4656-.9375.5729,0,1.0479.2995,1.425.8984.3781.599.5672,1.4323.5672,2.5s-.1891,1.9078-.5672,2.5203c-.3771.6115-.8521.9172-1.425.9172Z"/>
            <path id="SimSun-2e-13" data-name="SimSun-2e" d="M41.85,89.3592c-.1563,0-.2932-.0521-.4109-.1563-.1167-.1042-.175-.2474-.175-.4297s.0583-.3255.175-.4297c.1177-.1042.2547-.1563.4109-.1563s.2927.0589.4094.1766c.1177.1167.1766.2531.1766.4094,0,.1823-.0589.3255-.1766.4297-.1167.1042-.2531.1563-.4094.1563Z"/>
            <path id="SimSun-34-3" data-name="SimSun-34" d="M49.1937,88.4998c0,.1823.0521.3125.1563.3906s.2474.1172.4297.1172h.3516v.2344h-2.5781v-.2344h.4297c.2083,0,.3578-.0391.4484-.1172.0917-.0781.1375-.2083.1375-.3906v-1.2891h-2.6172v-.1953l2.8516-4.5313h.3906v4.4922h1.0547v.2344h-1.0547v1.2891ZM48.5297,83.4608l-2.2266,3.5156h2.2656v-3.5156h-.0391Z"/>
          </g>
        </g>
      </g>
      <g id="ytick_7">
        <g id="line2d_14">
          <path id="m700752b6b1-7" data-name="m700752b6b1" d="M57.6,41.472h-3.5" style="stroke: #000; stroke-linejoin: round; stroke-width: .8px;"/>
        </g>
        <g id="text_14">
          <g>
            <path id="SimSun-30-16" data-name="SimSun-30" d="M38.1,38.4447c-.3646,0-.6708.2802-.9188.8406-.2469.5594-.3703,1.3078-.3703,2.2453,0,.9896.1234,1.7578.3703,2.3047.2479.5469.5542.8203.9188.8203.3906,0,.6964-.2734.9172-.8203.2219-.5469.3328-1.3151.3328-2.3047,0-.9375-.1042-1.6859-.3125-2.2453-.2083-.5604-.5208-.8406-.9375-.8406ZM38.1,44.9681c-.5729,0-1.0547-.2995-1.4453-.8984-.3906-.599-.5859-1.4453-.5859-2.5391,0-1.0156.1885-1.8359.5656-2.4609.3781-.625.8667-.9375,1.4656-.9375.5729,0,1.0479.2995,1.425.8984.3781.599.5672,1.4323.5672,2.5s-.1891,1.9078-.5672,2.5203c-.3771.6115-.8521.9172-1.425.9172Z"/>
            <path id="SimSun-2e-14" data-name="SimSun-2e" d="M41.85,45.0072c-.1563,0-.2932-.0521-.4109-.1563-.1167-.1042-.175-.2474-.175-.4297s.0583-.3255.175-.4297c.1177-.1042.2547-.1563.4109-.1563s.2927.0589.4094.1766c.1177.1167.1766.2531.1766.4094,0,.1823-.0589.3255-.1766.4297-.1167.1042-.2531.1563-.4094.1563Z"/>
            <path id="SimSun-36-3" data-name="SimSun-36" d="M46.8109,42.2338c0,.7813.1365,1.387.4094,1.8172.274.4292.6063.6438.9969.6438s.6901-.1432.8984-.4297c.2083-.2865.3125-.8203.3125-1.6016,0-.5208-.1109-.9245-.3328-1.2109-.2208-.2865-.4875-.4297-.8-.4297-.2865,0-.5536.0849-.8016.2547-.2469.1688-.4745.4875-.6828.9563ZM48.3344,40.6322c.625,0,1.074.2083,1.3469.625.274.4167.4109.8854.4109,1.4063,0,.7813-.1891,1.3609-.5672,1.7391-.3771.3771-.813.5656-1.3078.5656-.7031,0-1.237-.2667-1.6016-.8-.3646-.5344-.5469-1.3094-.5469-2.325,0-1.1979.2214-2.1156.6641-2.7531.4427-.6385,1.0417-.9578,1.7969-.9578.3646,0,.6573.1042.8781.3125.2219.2083.3328.3906.3328.5469s-.0328.2734-.0984.3516c-.0646.0781-.175.1172-.3313.1172-.1302,0-.2281-.0323-.2938-.0969-.0646-.0656-.0969-.1635-.0969-.2938,0-.0521.013-.1042.0391-.1563v-.1563c0-.1042-.0391-.1885-.1172-.2531-.0781-.0656-.2214-.0984-.4297-.0984-.4427,0-.8203.2021-1.1328.6063-.3125.4031-.4688,1.2818-.4688,2.6359.1563-.3385.3708-.5922.6438-.7609.274-.1698.5672-.2547.8797-.2547Z"/>
          </g>
        </g>
      </g>
    </g>
    <g id="patch_3">
      <path d="M57.6,307.584V41.472" style="fill: none; stroke: #000; stroke-linecap: square; stroke-width: .8px;"/>
    </g>
    <g id="patch_4">
      <path d="M414.72,307.584V41.472" style="fill: none; stroke: #000; stroke-linecap: square; stroke-width: .8px;"/>
    </g>
    <g id="patch_5">
      <path d="M57.6,307.584h357.12" style="fill: none; stroke: #000; stroke-linecap: square; stroke-width: .8px;"/>
    </g>
    <g id="patch_6">
      <path d="M57.6,41.472h357.12" style="fill: none; stroke: #000; stroke-linecap: square; stroke-width: .8px;"/>
    </g>
    <g id="text_15">
      <path id="SimSun-6211" d="M276.8019,154.8596c.3385.0521.6703.0911.9953.1172.326.026.476-.1172.45-.4297v-2.0703c-1.1458.4688-1.7708.7943-1.875.9766l-.4688-.7813c.3906-.0521,1.1719-.2604,2.3438-.625v-1.9531h-1.0547c-.3385,0-.651.0391-.9375.1172l-.3516-.3516h2.3438v-1.7969c-.599.0781-1.25.1563-1.9531.2344v-.1563c.5469-.0781,1.1849-.2146,1.9141-.4094.7292-.1958,1.237-.424,1.5234-.6844l.5859.7031c-.4427.0521-.9505.1302-1.5234.2344v1.875h2.0703c-.0521-1.4583-.0911-2.4609-.1172-3.0078l1.0156.4688-.3906.2734c0,.599.013,1.3542.0391,2.2656h2.0313l.5469-.5469.7813.7813h-3.3203c.0781,1.3281.2083,2.2396.3906,2.7344.625-.7552,1.1198-1.5234,1.4844-2.3047l.6641.6641-.4297.1563c-.3125.4688-.8203,1.1328-1.5234,1.9922.599.8594,1.3281,1.4323,2.1875,1.7188l.3125-1.7188h.1563c-.0781,1.25.013,2.0182.2734,2.3047.0521.0521.0781.1042.0781.1563,0,0-.0068.0063-.0203.0188-.0125.0135-.0448.0203-.0969.0203-.1823,0-.599-.1109-1.25-.3328-.651-.2208-1.3281-.826-2.0313-1.8156-.7031.5469-1.5885,1.0286-2.6563,1.4453l-.0391-.1563c1.0938-.599,1.9141-1.1719,2.4609-1.7188-.2344-.599-.4036-1.6536-.5078-3.1641h-2.1094v1.7969l1.6797-.5078.0781.1172-1.7578.7422v2.6172c0,.4948-.3125.8333-.9375,1.0156,0-.3385-.3516-.625-1.0547-.8594v-.1563ZM282.3878,147.3986c.4688.2083.8396.4036,1.1125.5859.274.1823.424.3583.45.5281.026.1688-.013.312-.1172.4297-.1042.1167-.1823.175-.2344.175-.1042,0-.2083-.1042-.3125-.3125-.1563-.3125-.4818-.7422-.9766-1.2891l.0781-.1172Z"/>
    </g>
    <g id="text_16">
      <g>
        <path id="SimSun-559c" d="M263.5963,218.004h3.4766c0-.4688-.013-.8594-.0391-1.1719l.8984.3516-.3516.2734v.5469h2.3047l.5469-.5469.7813.7813h-3.6328v.9375h1.4844l.4688-.4688.7031.7031h-4.2969c-.3385,0-.651.0391-.9375.1172l-.3516-.3516h2.4219v-.9375h-2.1875c-.3385,0-.651.0391-.9375.1172l-.3516-.3516ZM269.9634,225.0743c0,.2604.013.5208.0391.7813l-.5469.1953v-.5859h-3.9844v.3906l-.5469.1953c.026-.4167.0391-.8594.0391-1.3281s-.013-.8984-.0391-1.2891l.5859.3125h3.9063l.2734-.3516.5469.4688-.2734.1953v1.0156ZM265.4713,223.9805v1.25h3.9844v-1.25h-3.9844ZM264.8853,219.6837l.5469.3125h3.8672l.2734-.3516.5469.4297-.2734.2344v.625c0,.2344.013.4948.0391.7813l-.5469.1953v-.3516h-3.9063v.2734l-.5469.1953c.026-.3385.0391-.7422.0391-1.2109s-.013-.8464-.0391-1.1328ZM265.4322,220.2305v1.0938h3.9063v-1.0938h-3.9063ZM265.7447,221.793l.0781-.0781c.4427.1563.7161.2932.8203.4109.1042.1167.1563.2141.1563.2922,0,.1563-.0651.3125-.1953.4688h1.4453c.2604-.4688.4427-.8984.5469-1.2891l.5859.4297c-.1823.1042-.3453.2281-.4891.3719-.1427.1427-.2922.3052-.4484.4875h2.2656l.5469-.5469.7813.7813h-7.5781c-.3385,0-.651.0391-.9375.1172l-.3516-.3516h3.3984c-.026-.2865-.2344-.651-.625-1.0938Z"/>
        <path id="SimSun-6b22" d="M276.4869,218.668c-.1563.4948-.2995.9505-.4297,1.3672-.1302.4427-.3255.9635-.5859,1.5625.5208.651.8526,1.1328.9953,1.4453.1438.3125.2156.5339.2156.6641,0,.1563-.0391.2995-.1172.4297-.0781.1302-.1432.1953-.1953.1953-.1042,0-.2083-.1693-.3125-.5078-.1823-.4688-.4688-1.0286-.8594-1.6797-.1823.3646-.4557.8141-.8203,1.3484-.3646.5333-.8594,1.0604-1.4844,1.5813l-.0781-.1172c.8854-.9635,1.5755-2.0573,2.0703-3.2813-.4948-.8073-1.0547-1.5625-1.6797-2.2656l.0781-.1172c.7292.651,1.3411,1.276,1.8359,1.875.2604-.625.5208-1.4974.7813-2.6172h-2.3438l-.3516.0781-.3125-.3125h2.9688l.4297-.4688.5859.5859-.3906.2344ZM280.3541,220.6212l.5469-1.2109h-2.8125c-.3385.7552-.7682,1.4714-1.2891,2.1484l-.1172-.0781c.4427-.8073.7813-1.6339,1.0156-2.4797.2344-.8469.3906-1.5307.4688-2.0516l.8594.4688-.3516.2734c-.1302.3906-.2995.8854-.5078,1.4844h2.6563l.4297-.4688.6641.7422c-.2344.0521-.4688.1823-.7031.3906s-.4818.4948-.7422.8594l-.1172-.0781ZM278.7134,219.8008l.8594.3906-.2734.2344c.1563,1.3281.4557,2.3958.8984,3.2031.4427.8073,1.0286,1.3411,1.7578,1.6016v.1172c-.3906,0-.6641.1302-.8203.3906-.7031-.6771-1.1849-1.3865-1.4453-2.1281-.2604-.7427-.4427-1.6609-.5469-2.7547-.2083,1.5625-.6318,2.7083-1.2703,3.4375-.6375.7292-1.4771,1.263-2.5188,1.6016l-.0391-.1563c1.0938-.4688,1.9141-1.1589,2.4609-2.0703.5469-.9115.8594-2.2005.9375-3.8672Z"/>
      </g>
    </g>
    <g id="text_17">
      <g>
        <path id="SimSun-81ea" d="M239.9734,272.2512c0,.2604.013.5208.0391.7813l-.625.2344v-.8203h-4.6875v.625l-.625.1953c.026-.4427.0391-1.7188.0391-3.8281s-.013-3.3724-.0391-3.7891l.625.3516h1.1719c.2865-.651.4818-1.276.5859-1.875l.9375.4297c-.2344.1302-.4755.3583-.7234.6844-.2469.325-.4224.5786-.5266.7609h3.1641l.3125-.4688.7422.5469-.3906.3125v5.8594ZM234.6999,266.2356v1.7188h4.6875v-1.7188h-4.6875ZM234.6999,268.1887v1.9531h4.6875v-1.9531h-4.6875ZM234.6999,270.3762v1.8359h4.6875v-1.8359h-4.6875Z"/>
        <path id="SimSun-7136" d="M249.1921,264.7512l.0781-.1172c.599.3385.9635.5797,1.0938.7234.1302.1427.1953.2792.1953.4094s-.0458.2734-.1375.4297c-.0906.1563-.162.2344-.2141.2344-.1042,0-.1953-.1432-.2734-.4297-.1302-.4167-.3776-.8333-.7422-1.25ZM244.5437,264.1262l.8594.4688-.2734.1953c-.1563.2865-.3255.651-.5078,1.0938h1.5234l.2734-.4297.6641.5078-.3125.2734c-.3646,1.4063-.8531,2.474-1.4656,3.2031-.6115.7292-1.5031,1.3281-2.675,1.7969l-.0391-.1172c.9896-.5469,1.7641-1.1911,2.3234-1.9328.5604-.7427.9839-1.7651,1.2703-3.0672h-1.6797c-.0781.1042-.1693.2604-.2734.4688.5208.1823.8526.3323.9953.45.1438.1167.2156.2401.2156.3703,0,.0521-.026.15-.0781.2938-.0521.1427-.1042.2141-.1563.2141s-.1172-.0781-.1953-.2344c-.1563-.2604-.4427-.5729-.8594-.9375-.1563.2604-.2995.4948-.4297.7031.4688.2865.7552.4885.8594.6063.1042.1167.1563.2271.1563.3313,0,.1302-.0458.2604-.1375.3906-.0906.1302-.162.1953-.2141.1953-.0781,0-.1432-.1042-.1953-.3125-.1042-.3385-.2995-.6901-.5859-1.0547-.3125.4167-.651.7682-1.0156,1.0547l-.1172-.0781c.5208-.599.9635-1.3281,1.3281-2.1875.3646-.8594.612-1.6146.7422-2.2656ZM248.0984,266.9387c.026-1.1979.026-2.1224,0-2.7734l.8594.3906-.2734.2734c-.026.7031-.0391,1.4063-.0391,2.1094h1.4063l.5078-.5078.7031.7422h-2.3047c.5208,1.6406,1.3802,2.6172,2.5781,2.9297v.1563c-.4688.0521-.7682.1953-.8984.4297-.9896-.9115-1.6146-2.0833-1.875-3.5156h-.1563c-.1042,1.0156-.3646,1.7839-.7813,2.3047-.4167.5208-1.1068.9896-2.0703,1.4063l-.0781-.1172c.7292-.4167,1.2823-.8724,1.6594-1.3672.3781-.4948.6193-1.237.7234-2.2266h-.0781c-.3385,0-.651.0391-.9375.1172l-.3516-.3516h1.4063ZM244.0749,271.0403l.1563.0391c.026.599-.026,1.0677-.1563,1.4063-.1302.3385-.3193.5271-.5672.5656-.2469.0396-.4094.0073-.4875-.0969s-.026-.2344.1563-.3906c.1823-.1823.3448-.3839.4875-.6047.1438-.2219.2807-.5281.4109-.9188ZM247.5124,271.1184l.1172-.0781c.4688.3646.7682.651.8984.8594.1302.2083.1953.3646.1953.4688,0,.1563-.0651.3057-.1953.4484-.1302.1438-.2214.2156-.2734.2156-.1042,0-.1693-.1302-.1953-.3906-.0521-.4167-.2344-.9245-.5469-1.5234ZM249.5437,271.0793l.0781-.1172c.7031.4427,1.113.7552,1.2297.9375.1177.1823.1766.3385.1766.4688,0,.1823-.0521.3385-.1563.4688s-.1823.1953-.2344.1953c-.1042,0-.1953-.1563-.2734-.4688-.1302-.4688-.4036-.9635-.8203-1.4844ZM245.4421,271.0793l.1172-.0781c.5208.4948.8073.8333.8594,1.0156.0521.1823.0781.3255.0781.4297,0,.2083-.0651.3646-.1953.4688s-.2214.1563-.2734.1563c-.1042,0-.1693-.1693-.1953-.5078-.026-.4688-.1563-.9635-.3906-1.4844Z"/>
      </g>
    </g>
    <g id="text_18">
      <g>
        <path id="SimSun-8bed" d="M236.8093,270.0247v2.1484h3.0469v-2.1484h-3.0469ZM235.4421,264.9465h4.2969l.5469-.4688.6641.7031h-3.0469l-.1953,1.2891h1.6016l.2734-.3906.5859.3906-.2734.3125v1.6016h.5859l.5078-.4688.625.7031h-5.3906c-.2865,0-.5729.0391-.8594.1172l-.3516-.3516h1.8359l.2734-1.6797h-.5078c-.0521,0-.2214.026-.5078.0781l-.3516-.3125h1.4063l.1563-1.2891h-.6641c-.2865,0-.5729.0391-.8594.1172l-.3516-.3516ZM237.6687,266.7043l-.2734,1.6797h1.9531v-1.6797h-1.6797ZM240.403,270.1809c0,1.1719.013,2.0443.0391,2.6172l-.5859.2344v-.625h-3.0469v.5078l-.5859.2344c.026-.4167.0391-1.0026.0391-1.7578s-.013-1.4063-.0391-1.9531l.5859.3516h3.0078l.2734-.3906.5859.5078-.2734.2734ZM233.2546,264.595l.1172-.0781c.4427.2865.7354.5016.8781.6453.1438.1427.2286.3052.2547.4875s-.013.3323-.1172.45c-.1042.1167-.1823.175-.2344.175-.1042,0-.1823-.1172-.2344-.3516-.0781-.3646-.2995-.8073-.6641-1.3281ZM233.6452,271.8606c.1563-.1042.2344-.2865.2344-.5469v-3.4375h-.2734c-.1823,0-.4557.0391-.8203.1172l-.3516-.3516h1.3672l.2734-.4297.625.4688-.3125.2734v3.4766l1.25-.9766.1172.1172c-.4167.4688-.7359.8333-.9578,1.0938-.2208.2604-.4224.5208-.6047.7813l-.5469-.5859Z"/>
        <path id="SimSun-8a00" d="M246.3015,264.1262c.8073.3385,1.2172.6318,1.2297.8797.0135.2469-.0385.4292-.1563.5469-.1167.1167-.188.175-.2141.175-.1042,0-.1953-.1302-.2734-.3906-.1042-.3385-.3255-.7031-.6641-1.0938l.0781-.1172ZM242.864,265.884h7.1094l.5469-.5469.7813.7813h-7.3438c-.2865,0-.5339.0391-.7422.1172l-.3516-.3516ZM244.1921,267.2512h4.6484l.5469-.5469.7813.7813h-4.8828c-.2604,0-.5078.0391-.7422.1172l-.3516-.3516ZM244.153,268.7747h4.8438l.5078-.5078.7422.7422h-5c-.2865,0-.5469.0391-.7813.1172l-.3125-.3516ZM244.4655,269.7512l.625.3516h3.9453l.3516-.3906.625.5078-.3516.2344c0,1.3021.013,2.1354.0391,2.5l-.625.2344v-.7813h-3.9844v.625l-.625.1953c.026-.2865.0391-.8594.0391-1.7188s-.013-1.4453-.0391-1.7578ZM245.0905,270.3372v1.8359h3.9844v-1.8359h-3.9844Z"/>
      </g>
    </g>
    <g id="text_19">
      <g>
        <path id="SimSun-5904" d="M234.6999,266.8215c-.1042.3125-.2083.625-.3125.9375.2604,1.0417.625,1.901,1.0938,2.5781.4427-.9375.7813-2.1094,1.0156-3.5156h-1.7969ZM237.5515,266.8215l-.3906.2344c-.1823.5469-.3646,1.1328-.5469,1.7578-.1823.651-.4427,1.3281-.7813,2.0313.3385.3906.8917.7099,1.6594.9578.7688.2469,2.1427.3443,4.1219.2922v.1172c-.4427.1563-.6901.3776-.7422.6641-1.6146-.0781-2.7865-.2474-3.5156-.5078-.7292-.2604-1.3411-.651-1.8359-1.1719-.2604.3125-.6188.638-1.075.9766-.4552.3385-1.0344.638-1.7375.8984l-.0781-.1172c.599-.3125,1.113-.6573,1.5422-1.0344.4302-.3781.7885-.7495,1.075-1.1141-.5469-.9635-.8724-1.901-.9766-2.8125-.3906.8854-.8594,1.6536-1.4063,2.3047l-.1563-.1172c.625-.9896,1.0938-2.0833,1.4063-3.2813.3125-1.1979.4818-2.0182.5078-2.4609l.8984.3906c-.1042.1302-.2021.2865-.2938.4688-.0906.1823-.2401.612-.4484,1.2891h1.6797l.4297-.4297.6641.6641ZM238.8796,267.0559v2.9688c0,.3906.013.8073.0391,1.25l-.625.2734c.026-.4948.0391-1.0026.0391-1.5234v-4.2188c0-.3385-.013-.8203-.0391-1.4453l.8984.4688-.3125.2734v1.7578c.8333.3125,1.4646.6188,1.8938.9188.4302.299.6063.5917.5281.8781s-.1563.4297-.2344.4297c-.1042,0-.2083-.1042-.3125-.3125-.2604-.4167-.8854-.9896-1.875-1.7188Z"/>
        <path id="SimSun-7406" d="M242.5515,271.3918c.7813-.2083,1.3151-.3646,1.6016-.4688v-2.6172h-.1953c-.3385,0-.651.0391-.9375.1172l-.3516-.3516h1.4844v-2.3828h-.2734c-.3385,0-.651.0391-.9375.1172l-.3516-.3516h2.4609l.4688-.4688.6641.7031h-1.5234v2.3828h.3906l.4688-.4688.6641.7031h-1.5234v2.4609l1.6016-.5469.0391.1563c-.9896.4427-1.9792.9115-2.9688,1.4063l-.3125.3125-.4688-.7031ZM246.4187,269.4778c.026-.8333.0391-1.6406.0391-2.4219s-.013-1.5885-.0391-2.4219l.5078.3516h3.2422l.2734-.3516.5859.4688-.3125.2344v1.8359c0,.8333.013,1.4844.0391,1.9531l-.5078.2344v-.4688h-1.4063v1.6797h1.1328l.4688-.4688.6641.7031h-2.2656v1.6016h1.6406l.5078-.5078.7031.7422h-5.3125c-.3385,0-.651.0391-.9375.1172l-.3516-.3516h3.2813v-1.6016h-.8594c-.3385,0-.651.0391-.9375.1172l-.3516-.3516h2.1484v-1.6797h-1.4453v.3906l-.5078.1953ZM246.9265,265.22v1.5625h1.4453v-1.5625h-1.4453ZM248.8405,265.22v1.5625h1.4063v-1.5625h-1.4063ZM246.9265,267.0168v1.6406h1.4453v-1.6406h-1.4453ZM248.8405,267.0168v1.6406h1.4063v-1.6406h-1.4063Z"/>
      </g>
    </g>
    <g id="text_20">
      <path id="SimSun-7231" d="M175.3531,93.7272c.4948-.4167.9245-.8984,1.2891-1.4453h-2.6563c.1302.2344.3385.5016.625.8016.2865.299.5339.5135.7422.6438ZM171.4077,89.5865c0,.5729-.0849.8984-.2547.9766-.1688.0781-.2922.1172-.3703.1172-.1042,0-.1953-.026-.2734-.0781s-.1172-.0911-.1172-.1172c0-.0781.1042-.2083.3125-.3906.2604-.2083.4427-.599.5469-1.1719h.1563v.4297h6.5234l.4297-.4297.6641.6641c-.1823.026-.3776.1109-.5859.2547-.2083.1427-.4427.3833-.7031.7219l-.1172-.0391.3906-.9375h-6.6016ZM174.1031,91.2272c-.0781.2604-.1693.5339-.2734.8203h2.8125l.3516-.3516.5859.5859-.3516.1953c-.5469.6771-1.0417,1.1849-1.4844,1.5234.8854.4427,2.0313.6771,3.4375.7031v.1172c-.2865.026-.5078.2083-.6641.5469-1.3802-.2604-2.4219-.625-3.125-1.0938-.8594.599-2.0833,1.0026-3.6719,1.2109v-.1563c1.4063-.3125,2.513-.7552,3.3203-1.3281-.5729-.5208-1.0026-1.1068-1.2891-1.7578-.5469,1.224-1.5885,2.2396-3.125,3.0469l-.0391-.1563c1.6406-1.1198,2.6172-2.4219,2.9297-3.9063h-1.0938c-.3385,0-.651.0391-.9375.1172l-.3516-.3516h2.4219c.0781-.4948.1172-.8984.1172-1.2109l.8594.3906-.2734.2344-.1172.5859h2.8906l.4688-.4688.6641.7031h-4.0625ZM172.2281,87.6334c.5208.2865.8396.5078.9563.6641.1177.1563.1766.2865.1766.3906s-.0458.2151-.1375.3328c-.0906.1167-.162.175-.2141.175-.0781,0-.1563-.1172-.2344-.3516-.1042-.3646-.3125-.7292-.625-1.0938l.0781-.1172ZM174.2202,87.4381c.625.3906.9698.6448,1.0344.7625.0656.1167.0984.2271.0984.3313,0,.1563-.0521.2932-.1563.4109-.1042.1167-.1693.175-.1953.175-.0781,0-.1432-.1302-.1953-.3906-.1042-.3646-.3255-.7682-.6641-1.2109l.0781-.0781ZM177.5796,87.8287c-.5729.7031-1.0156,1.1719-1.3281,1.4063l-.1172-.0781c.2083-.3125.3906-.6182.5469-.9172.1563-.3.2995-.6453.4297-1.0359l.7422.5078-.2734.1172ZM171.2124,87.36c1.5104-.0781,2.8906-.2083,4.1406-.3906s2.0964-.3906,2.5391-.625l.5859.7031c-.6771.026-1.6406.0911-2.8906.1953-1.25.1302-2.7083.2214-4.375.2734v-.1563Z"/>
    </g>
    <g id="text_21">
      <g>
        <path id="SimSun-6df1" d="M173.9077,86.9303l.0391.4688h3.9844l.3516-.3516.625.625c-.3125,0-.7161.2995-1.2109.8984l-.1172-.0781.3906-.8594h-4.0234c.026.3385.0063.5667-.0594.6844-.0646.1167-.1427.188-.2344.2141-.0906.026-.162.0391-.2141.0391-.0781,0-.1432-.013-.1953-.0391s-.0781-.0521-.0781-.0781c0-.0781.0521-.1823.1563-.3125.1563-.1823.2865-.5859.3906-1.2109h.1953ZM174.7281,88.1803l.7031.5469c-.2865.1042-.612.3255-.9766.6641-.3646.3646-.7682.7161-1.2109,1.0547l-.0781-.1172c.7813-.8073,1.3021-1.5234,1.5625-2.1484ZM176.4468,88.2975c.9115.3646,1.4453.6318,1.6016.8016.1563.1688.2344.3313.2344.4875,0,.1042-.026.2214-.0781.3516s-.1042.1953-.1563.1953c-.0781,0-.1823-.1302-.3125-.3906-.2083-.3646-.6641-.8073-1.3672-1.3281l.0781-.1172ZM176.2124,91.2662v2.5391c0,.4427.013.8854.0391,1.3281l-.625.2734c.026-.4948.0391-1.7969.0391-3.9063-.8854,1.5625-2.0052,2.6302-3.3594,3.2031l-.0781-.1172c1.1979-.7552,2.1745-1.862,2.9297-3.3203h-.7813c-.3385,0-.651.0391-.9375.1172l-.3516-.3516h2.5781c0-.7292-.013-1.2891-.0391-1.6797l.8984.4297-.3125.2734v.9766h1.7188l.5078-.5469.6641.7813h-2.6172c.7813,1.4583,1.6667,2.3568,2.6563,2.6953v.1563c-.3646-.026-.651.1042-.8594.3906-.8854-.8594-1.5495-1.9401-1.9922-3.2422h-.0781ZM172.9702,88.1803c-.7552,2.6302-1.1719,4.1406-1.25,4.5313s-.1172.8203-.1172,1.2891v.9172c0,.1438-.0651.2156-.1953.2156-.1042,0-.2281-.026-.3719-.0781-.1427-.0521-.2141-.1693-.2141-.3516,0-.1302.0391-.3255.1172-.5859.0781-.2604.1172-.4688.1172-.625,0-.1823-.0589-.3255-.1766-.4297-.1167-.1042-.3703-.2083-.7609-.3125v-.1563c.4688.0521.7484.0719.8391.0594.0917-.0135.2089-.1307.3516-.3516.1438-.2219.6453-1.6089,1.5047-4.1609l.1563.0391ZM170.1577,89.0397c.8594.4167,1.2891.7552,1.2891,1.0156s-.0458.4297-.1375.5078c-.0906.0781-.149.1172-.175.1172-.0781,0-.1563-.1302-.2344-.3906-.1302-.3125-.4036-.7031-.8203-1.1719l.0781-.0781ZM171.0562,86.774c.7031.3646,1.0938.625,1.1719.7813s.1172.2604.1172.3125c0,.1042-.0458.2151-.1375.3328-.0906.1167-.162.175-.2141.175-.1042,0-.1823-.1042-.2344-.3125-.1302-.3125-.3906-.7031-.7813-1.1719l.0781-.1172Z"/>
        <path id="SimSun-5ea6" d="M183.6734,91.3834c.026-.5208.0391-1.1198.0391-1.7969h-1.0156l-.4688.0781-.3125-.3125h1.7969c0-.3906-.013-.8203-.0391-1.2891l.8594.4297-.3125.1953v.6641h2.1875c0-.4427-.013-.8594-.0391-1.25l.8984.3906-.3516.2344v.625h.7422l.5078-.5078.7422.7422h-1.9922c0,.7552.013,1.25.0391,1.4844l-.5469.2344v-.3516h-2.1875v.1953l-.5469.2344ZM187.3062,92.2037c-.599.7552-1.1068,1.3151-1.5234,1.6797.8333.5208,1.9401.8073,3.3203.8594v.1563c-.4167.0781-.6641.2474-.7422.5078-1.224-.2344-2.2005-.638-2.9297-1.2109-1.25.7031-2.6042,1.1458-4.0625,1.3281l-.0391-.1563c1.3802-.2604,2.6302-.7682,3.75-1.5234-.4948-.4948-.9505-1.1068-1.3672-1.8359h-.3906l-.3516.0781-.3125-.3125h4.1016l.3516-.3516.5859.5859-.3906.1953ZM183.9077,92.0084c.4948.6771.9896,1.1979,1.4844,1.5625.5208-.4948.9635-1.0156,1.3281-1.5625h-2.8125ZM184.2202,89.5865v1.1328h2.1875v-1.1328h-2.1875ZM181.2124,87.2819l.6641.3906h3.0859c-.026-.1563-.0849-.3255-.1766-.5078-.0906-.1823-.2792-.4427-.5656-.7813l.1172-.0781c.599.2604.9438.4625,1.0344.6063.0917.1427.1375.2271.1375.2531,0,.1563-.1042.3255-.3125.5078h2.5391l.5469-.5469.7813.7813h-7.2266c.026,1.5625-.0198,2.7802-.1375,3.6531-.1167.8719-.3052,1.6203-.5656,2.2453-.2604.625-.5859,1.1979-.9766,1.7188l-.1172-.0781c.5208-.9115.8526-1.862.9953-2.8516.1438-.9896.2219-1.9984.2344-3.0266.0135-1.0292-.0057-1.7911-.0578-2.2859Z"/>
      </g>
    </g>
    <g id="text_22">
      <g>
        <path id="SimSun-5b66" d="M189.3685,101.6271c.8333.5469,1.276.9573,1.3281,1.2313.0521.2729.013.4813-.1172.625-.1302.1427-.2214.2141-.2734.2141-.1042,0-.1953-.1432-.2734-.4297-.1042-.4167-.3646-.9375-.7813-1.5625l.1172-.0781ZM191.4389,101.4318c.7552.5729,1.1458.9964,1.1719,1.2703.026.2729-.026.4745-.1563.6047s-.2214.1953-.2734.1953c-.1302,0-.2214-.1563-.2734-.4688-.0781-.4427-.2734-.9505-.5859-1.5234l.1172-.0781ZM195.1107,105.3381l-.1172-.0781.625-1.0938h-6.6797c.0521.3385.0651.6188.0391.8406-.026.2208-.124.3573-.2938.4094-.1688.0521-.2792.0781-.3313.0781-.0781,0-.15-.0193-.2156-.0578-.0646-.0396-.0969-.0724-.0969-.0984,0-.1042.0651-.2474.1953-.4297.2083-.2865.3646-.7682.4688-1.4453h.1953l.0391.4688h4.4141c.4948-.9635.8464-1.8229,1.0547-2.5781l.8984.5859-.3906.1563c-.4427.599-.8854,1.2109-1.3281,1.8359h1.9922l.3906-.4688.7031.7813c-.4427.0521-.9635.4167-1.5625,1.0938ZM190.4623,109.3615c.651.1042,1.0807.1495,1.2891.1359.2083-.0125.3125-.149.3125-.4094v-1.5234h-2.9688c-.3385,0-.651.0391-.9375.1172l-.3516-.3516h4.2578c0-.2344-.013-.5339-.0391-.8984l.4297.2344,1.3672-1.1328h-3.2422c-.3385,0-.651.0391-.9375.1172l-.3516-.3516h4.4922l.4297-.3906.6641.7813c-.2083-.026-.4885.0521-.8406.2344-.351.1823-.8391.4688-1.4641.8594l.3125.1953-.2734.1563v.1953h2.5391l.625-.625.8594.8594h-4.0234v1.9141c0,.3906-.2995.7031-.8984.9375.026-.2865-.3906-.5729-1.25-.8594v-.1953Z"/>
        <path id="SimSun-4e60" d="M202.5326,108.9318c.8073.1563,1.3734.2281,1.6984.2156.326-.0135.4891-.2286.4891-.6453l.1563-5.8594h-5c-.3385,0-.651.0391-.9375.1172l-.3516-.3516h6.2109l.3516-.4297.6641.5078-.3516.2734-.1563,5.8984c0,.7813-.3906,1.2891-1.1719,1.5234.026-.3646-.5208-.7161-1.6406-1.0547l.0391-.1953ZM198.2748,108.0724c.7031-.1042,2.6432-.8464,5.8203-2.2266l.0781.1563c-3.3073,1.6146-5.0391,2.6042-5.1953,2.9688l-.7031-.8984ZM200.306,103.5021c.9896.4167,1.5625.7099,1.7188.8797.1563.1688.2344.3313.2344.4875s-.0391.3063-.1172.45c-.0781.1427-.1432.2141-.1953.2141-.1042,0-.2214-.1302-.3516-.3906-.2344-.4167-.6901-.9245-1.3672-1.5234l.0781-.1172Z"/>
      </g>
    </g>
    <g id="text_23">
      <g>
        <path id="SimSun-673a" d="M277.485,154.7898v3.3984c0,1.9271-.7292,3.3984-2.1875,4.4141l-.1172-.1172c1.1719-1.0677,1.7578-2.5,1.7578-4.2969v-1.875c0-.7031-.013-1.4193-.0391-2.1484l.5859.3906h1.7969l.3516-.3906.625.5469-.3906.2344v6.3672c0,.2604.1302.3906.3906.3906h.4688c.1302,0,.2214-.1042.2734-.3125.0521-.2083.0911-.6771.1172-1.4063h.1953c0,.5729.026.9573.0781,1.1531.0521.1948.1823.3443.3906.4484-.1563.3125-.3193.488-.4891.5266-.1688.0396-.3313.0594-.4875.0594h-.8203c-.4427,0-.6641-.2083-.6641-.625v-6.7578h-1.8359ZM274.8679,157.4851c0,2.7604.013,4.4271.0391,5l-.625.2734c.026-1.1458.0391-2.7344.0391-4.7656-.3906,1.0938-.9635,2.0573-1.7188,2.8906l-.0781-.1172c.7813-1.224,1.3672-2.7344,1.7578-4.5313h-.9375l-.3516.0781-.3125-.3125h1.6406c0-.9115-.013-1.7578-.0391-2.5391l.8594.3516-.2734.2734v1.9141h.5469l.4297-.4297.6641.6641h-1.6406v1.0547c.625.2344,1.0349.4167,1.2297.5469.1958.1302.2938.2995.2938.5078,0,.1302-.0198.2604-.0594.3906-.0385.1302-.0708.1953-.0969.1953-.0781,0-.1953-.1302-.3516-.3906-.2344-.3646-.5729-.7161-1.0156-1.0547Z"/>
        <path id="SimSun-5668" d="M284.4772,154.4773v1.5234h1.5625v-1.5234h-1.5625ZM283.9304,156.8992c.026-.5208.0391-1.0349.0391-1.5422,0-.5083-.013-.9969-.0391-1.4656l.5469.3516h1.5234l.2734-.3516.625.5078-.3516.2344c0,.9375.013,1.5495.0391,1.8359l-.5469.2344v-.4688h-1.5625v.3906l-.5469.2734ZM290.3757,159.8289c0,1.0938.013,1.8359.0391,2.2266l-.5859.2344v-.625h-1.7578v.5859l-.5469.1953c.026-.5469.0391-1.087.0391-1.6203,0-.5344-.013-1.049-.0391-1.5438l.5469.2734h1.6406l.0781-.0781c-.8854-.4948-1.5495-1.0677-1.9922-1.7188h-1.1719c-.6771.8073-1.4193,1.4063-2.2266,1.7969h1.6406l.2734-.3516.5859.4688-.2734.2344c0,1.0938.013,1.8099.0391,2.1484l-.5469.1953v-.5859h-1.5234v.5078l-.5469.1953c.026-.4427.0391-.9115.0391-1.4063v-1.25c-.5208.1823-1.0156.3255-1.4844.4297l-.0391-.1172c.7292-.2604,1.3672-.5661,1.9141-.9172.5469-.3521,1.0547-.8016,1.5234-1.3484h-1.875c-.3385,0-.651.0391-.9375.1172l-.3516-.3516h3.2813c.2344-.3646.4427-.7422.625-1.1328l.7422.5078c-.2604.1042-.5078.3125-.7422.625h2.4609c-.1302-.3646-.3906-.6771-.7813-.9375l.0781-.1172c.4948.1302.8073.2474.9375.3516s.1953.1953.1953.2734c0,.1302-.0651.2734-.1953.4297h.7813l.5469-.5469.7813.7813h-3.5156c.4427.4167.9568.7682,1.5422,1.0547.5865.2865,1.3094.4427,2.1688.4688v.1563c-.4167.0521-.6641.2344-.7422.5469l-.5859-.1953-.0391.0391ZM284.5944,159.7898v1.6406h1.5234v-1.6406h-1.5234ZM288.071,159.7898v1.6406h1.7578v-1.6406h-1.7578ZM288.3054,154.4773v1.5234h1.5234v-1.5234h-1.5234ZM287.7585,156.7039c.026-.4688.0391-.9438.0391-1.425,0-.4823-.013-.9448-.0391-1.3875l.5469.3516h1.4844l.2734-.3516.5859.4688-.3125.2734c0,.8594.013,1.4583.0391,1.7969l-.5469.1953v-.3906h-1.5234v.2734l-.5469.1953Z"/>
      </g>
    </g>
    <g id="text_24">
      <path id="SimSun-3002" d="M278.4425,152.9846c.2083.0781.3516.2281.4297.45.0781.2208.1172.3833.1172.4875,0,.0781-.026.2151-.0781.4109-.0521.1948-.176.3573-.3719.4875-.1948.1302-.4224.1953-.6828.1953s-.4948-.1042-.7031-.3125c-.2083-.2083-.3193-.4359-.3328-.6828-.0125-.2479.0396-.4693.1563-.6641.1177-.1958.2677-.326.45-.3906.1823-.0656.3385-.0984.4688-.0984.1563,0,.3385.0391.5469.1172ZM278.4034,154.5283c.1823-.1177.2667-.326.2531-.625-.0125-.3-.1099-.4953-.2922-.5859-.1823-.0917-.3385-.1375-.4688-.1375-.1563,0-.3193.0589-.4891.1766-.1688.1167-.2531.3182-.2531.6047s.0974.4818.2922.5859c.1958.1042.3458.1563.45.1563.1563,0,.3255-.0583.5078-.175Z"/>
    </g>
  </g>
</svg>