<?xml version="1.0" encoding="UTF-8"?>
<svg id="Layer_2" xmlns="http://www.w3.org/2000/svg" width="64px" height="64px" viewBox="0 0 64 64">
  <g id="SVGRepo_iconCarrier">
    <g>
      <path d="M56.0332.4662H8.0912c-1.5072,0-2.7403,1.2332-2.7403,2.7403v6.6499h53.4227V3.2065c0-1.5072-1.2332-2.7403-2.7403-2.7403ZM38.7672,6.3032h-2.5577c-.628,0-1.1418-.5138-1.1418-1.1418s.5138-1.1418,1.1418-1.1418h2.5577c.628,0,1.1418.5138,1.1418,1.1418s-.5138,1.1418-1.1418,1.1418ZM46.3945,6.3032h-2.5577c-.628,0-1.1418-.5138-1.1418-1.1418s.5138-1.1418,1.1418-1.1418h2.5577c.628,0,1.1418.5138,1.1418,1.1418s-.5138,1.1418-1.1418,1.1418ZM54.0218,6.3032h-2.5577c-.628,0-1.1418-.5138-1.1418-1.1418s.5138-1.1418,1.1418-1.1418h2.5577c.628,0,1.1418.5138,1.1418,1.1418s-.5138,1.1418-1.1418,1.1418Z" style="fill: #231f20;"/>
      <path d="M33.204,25.3146v-2.5357h2.2075c.4036,0,.7308-.3272.7308-.7308v-4.1409c0-.4036-.3272-.7308-.7308-.7308h-6.6987c-.4036,0-.7308.3272-.7308.7308v4.1409c0,.4036.3272.7308.7308.7308h2.2075v2.5357c-7.1839.1531-12.8335,1.7387-12.8335,3.6716,0,.0356.0027.0703.0064.106h-.0064v6.7129c0,2.0352,6.2571,3.6849,13.9749,3.6849s13.9758-1.6497,13.9758-3.6849v-6.7129h-.0064c.0037-.0356.0064-.0703.0064-.106,0-1.9329-5.6492-3.5183-12.8335-3.6716ZM21.716,34.6798c-.6303,0-1.1418-.5115-1.1418-1.1418,0-.6312.5115-1.1418,1.1418-1.1418s1.1418.5106,1.1418,1.1418c0,.6303-.5115,1.1418-1.1418,1.1418ZM25.5525,35.6085c-.6303,0-1.1418-.5115-1.1418-1.1418,0-.6312.5115-1.1418,1.1418-1.1418s1.1418.5106,1.1418,1.1418c0,.6303-.5115,1.1418-1.1418,1.1418Z" style="fill: #231f20;"/>
      <path d="M45.9673,39.2863c-.8787.5143-2.0352.9619-3.4411,1.3327-2.8244.7445-6.5403,1.1546-10.4645,1.1546s-7.6392-.4101-10.4636-1.1546c-1.4067-.3709-2.5632-.8185-3.441-1.3327-.0466.1224-.0703.2457-.0703.3718,0,.0347.0027.0702.0064.105h-.0064v6.7138c0,1.9341,5.6565,3.5204,12.8467,3.6719v1.9867h-9.6369c-.6306,0-1.1418.5113-1.1418,1.1418s.5113,1.1418,1.1418,1.1418h9.6369v1.9747h-9.6369c-.6306,0-1.1418.5113-1.1418,1.1418v5.3226c0,.6306.5113,1.1418,1.1418,1.1418s1.1418-.5113,1.1418-1.1418v-4.1808h8.4951v4.1808c0,.6306.5113,1.1418,1.1418,1.1418s1.1418-.5113,1.1418-1.1418v-4.1808h8.4951v4.1808c0,.6306.5113,1.1418,1.1418,1.1418s1.1418-.5113,1.1418-1.1418v-5.3226c0-.6306-.5113-1.1418-1.1418-1.1418h-9.6369v-1.9747h9.6369c.6306,0,1.1418-.5112,1.1418-1.1418s-.5113-1.1418-1.1418-1.1418h-9.6369v-1.9873c7.178-.1549,12.8204-1.7396,12.8204-3.6712v-6.7138h-.0064c.0037-.0347.0064-.0703.0064-.105,0-.1261-.0238-.2494-.0703-.3718ZM21.716,45.7782c-.6303,0-1.1418-.5115-1.1418-1.1418,0-.6312.5115-1.1418,1.1418-1.1418s1.1418.5106,1.1418,1.1418c0,.6303-.5115,1.1418-1.1418,1.1418ZM25.5525,46.6656c-.6303,0-1.1418-.5115-1.1418-1.1418,0-.6312.5115-1.1418,1.1418-1.1418s1.1418.5106,1.1418,1.1418c0,.6303-.5115,1.1418-1.1418,1.1418Z" style="fill: #231f20;"/>
      <path d="M48.3216,31.8248v2.3649c1.8369-.3051,3.2427-1.9064,3.2427-3.8292v-7.5816h2.2075c.4036,0,.7308-.3272.7308-.7308v-4.1409c0-.4036-.3272-.7308-.7308-.7308h-6.6987c-.4036,0-.7308.3272-.7308.7308v4.1409c0,.4036.3272.7308.7308.7308h2.2075v7.5816c0,.654-.3946,1.2176-.9591,1.4643Z" style="fill: #231f20;"/>
      <path d="M17.0512,22.7789c.4036,0,.7308-.3272.7308-.7308v-4.1409c0-.4036-.3272-.7308-.7308-.7308h-6.6987c-.4036,0-.7308.3272-.7308.7308v4.1409c0,.4036.3272.7308.7308.7308h2.2075v7.5816c0,1.9228,1.4058,3.5241,3.2427,3.8292v-2.3649c-.5645-.2466-.9591-.8102-.9591-1.4643v-7.5816s2.2075,0,2.2075,0Z" style="fill: #231f20;"/>
      <path d="M5.3508,44.3945c0,1.5072,1.2332,2.7403,2.7403,2.7403h7.775c-.0415-.2133-.0629-.4325-.0629-.6579v-6.7138c0-.0165.0002-.033.0005-.0494-.0004-.0186-.0005-.0372-.0005-.0556,0-.4025.0739-.8007.2196-1.1838.098-.2578.2413-.4919.4193-.6944-.3171-.4532-.4889-.9011-.5719-1.3094-.0226.0006-.0449.0029-.0674.0029-.1244,0-.2495-.0101-.3741-.0309-2.9854-.4958-5.1522-3.0537-5.1522-6.0819v-5.2999c-1.6269-.0406-2.9383-1.3758-2.9383-3.0125v-4.1409c0-1.6621,1.3523-3.0144,3.0144-3.0144h6.6987c1.6621,0,3.0144,1.3523,3.0144,3.0144v4.1409c0,1.6366-1.3113,2.9718-2.9383,3.0125v1.1863c.2401-.2154.5211-.4275.8501-.6325.8979-.5596,2.1161-1.0445,3.6207-1.4411,1.3008-.3429,2.7914-.6147,4.4038-.8083-.1941-.3981-.3034-.8449-.3034-1.3167v-4.1409c0-1.6621,1.3523-3.0144,3.0144-3.0144h6.6987c1.6621,0,3.0144,1.3523,3.0144,3.0144v4.1408c0,.472-.1092.9187-.3034,1.3168,1.6124.1936,3.1029.4653,4.4037.8083,1.5046.3966,2.7228.8815,3.6208,1.4411.3289.205.6099.4171.8501.6325v-1.1862c-1.627-.0406-2.9383-1.3758-2.9383-3.0125v-4.1409c0-1.6621,1.3523-3.0144,3.0144-3.0144h6.6987c1.6621,0,3.0144,1.3523,3.0144,3.0144v4.1409c0,1.6366-1.3113,2.9718-2.9383,3.0125v5.2999c0,3.0283-2.1669,5.5861-5.1522,6.0819-.1245.0207-.2497.0309-.3741.0309-.0226,0-.0449-.0023-.0674-.0029-.083.4082-.2548.8562-.5718,1.3094.1779.2025.3212.4366.4193.6944.1457.3829.2195.7813.2195,1.1839,0,.0185-.0002.0371-.0005.0557.0004.0164.0005.0329.0005.0493v6.7138c0,.2253-.0215.4445-.0629.6579h7.775c1.5072,0,2.7403-1.2332,2.7403-2.7403V12.1401H5.3508v32.2543Z" style="fill: #231f20;"/>
    </g>
  </g>
</svg>