<?xml version="1.0" encoding="UTF-8"?>
<svg id="_图层_1" xmlns="http://www.w3.org/2000/svg" viewBox="0 0 469.7386 264.4653">
  <text transform="translate(94.268 119.7855)" style="font-family: NotoSerifSC-Regular, &apos;Noto Serif SC&apos;; font-size: 18px;"><tspan x="0" y="0" style="letter-spacing: -.024em;">K</tspan><tspan x="12.7261" y="0" style="letter-spacing: -.002em;">e</tspan><tspan x="22.5361" y="0">y1</tspan></text>
  <g>
    <rect x="77.4608" y="99.247" width="391.7778" height="164.7183" style="fill: none; stroke: #000; stroke-miterlimit: 10;"/>
    <line x1="77.4608" y1="128.998" x2="469.2386" y2="128.998" style="fill: none; stroke: #000; stroke-miterlimit: 10;"/>
    <line x1="77.4608" y1="158.749" x2="469.2386" y2="158.749" style="fill: none; stroke: #000; stroke-miterlimit: 10;"/>
    <line x1="77.4608" y1="188.5" x2="469.2386" y2="188.5" style="fill: none; stroke: #000; stroke-miterlimit: 10;"/>
    <line x1="390.883" y1="263.9653" x2="390.883" y2="99.247" style="fill: none; stroke: #000; stroke-miterlimit: 10;"/>
    <line x1="312.5274" y1="263.9653" x2="312.5274" y2="99.247" style="fill: none; stroke: #000; stroke-miterlimit: 10;"/>
    <line x1="234.1719" y1="263.9653" x2="234.1719" y2="99.247" style="fill: none; stroke: #000; stroke-miterlimit: 10;"/>
    <line x1="155.8163" y1="263.9653" x2="155.8163" y2="99.247" style="fill: none; stroke: #000; stroke-miterlimit: 10;"/>
  </g>
  <text transform="translate(180.0073 119.7855)" style="font-family: NotoSerifSC-Regular, &apos;Noto Serif SC&apos;; font-size: 18px;"><tspan x="0" y="0">F21</tspan></text>
  <text transform="translate(258.3237 119.7855)" style="font-family: NotoSerifSC-Regular, &apos;Noto Serif SC&apos;; font-size: 18px;"><tspan x="0" y="0">F31</tspan></text>
  <text transform="translate(336.6622 119.7855)" style="font-family: NotoSerifSC-Regular, &apos;Noto Serif SC&apos;; font-size: 18px;"><tspan x="0" y="0">F41</tspan></text>
  <text transform="translate(415.3798 119.7855)" style="font-family: NotoSerifSC-Regular, &apos;Noto Serif SC&apos;; font-size: 18px;"><tspan x="0" y="0">F51</tspan></text>
  <text transform="translate(94.268 150.2802)" style="font-family: NotoSerifSC-Regular, &apos;Noto Serif SC&apos;; font-size: 18px;"><tspan x="0" y="0" style="letter-spacing: -.024em;">K</tspan><tspan x="12.7261" y="0" style="letter-spacing: -.002em;">e</tspan><tspan x="22.5361" y="0">y2</tspan></text>
  <text transform="translate(94.268 179.7254)" style="font-family: NotoSerifSC-Regular, &apos;Noto Serif SC&apos;; font-size: 18px;"><tspan x="0" y="0" style="letter-spacing: -.024em;">K</tspan><tspan x="12.7261" y="0" style="letter-spacing: -.002em;">e</tspan><tspan x="22.5361" y="0">y3</tspan></text>
  <text transform="translate(180.0073 150.2802)" style="font-family: NotoSerifSC-Regular, &apos;Noto Serif SC&apos;; font-size: 18px;"><tspan x="0" y="0">F22</tspan></text>
  <text transform="translate(180.0073 179.7254)" style="font-family: NotoSerifSC-Regular, &apos;Noto Serif SC&apos;; font-size: 18px;"><tspan x="0" y="0">F23</tspan></text>
  <text transform="translate(258.3237 150.2802)" style="font-family: NotoSerifSC-Regular, &apos;Noto Serif SC&apos;; font-size: 18px;"><tspan x="0" y="0">F32</tspan></text>
  <text transform="translate(258.3237 179.7254)" style="font-family: NotoSerifSC-Regular, &apos;Noto Serif SC&apos;; font-size: 18px;"><tspan x="0" y="0">F33</tspan></text>
  <text transform="translate(336.6622 150.2802)" style="font-family: NotoSerifSC-Regular, &apos;Noto Serif SC&apos;; font-size: 18px;"><tspan x="0" y="0">F42</tspan></text>
  <text transform="translate(336.6622 179.7254)" style="font-family: NotoSerifSC-Regular, &apos;Noto Serif SC&apos;; font-size: 18px;"><tspan x="0" y="0">F43</tspan></text>
  <text transform="translate(415.3798 179.7254)" style="font-family: NotoSerifSC-Regular, &apos;Noto Serif SC&apos;; font-size: 18px;"><tspan x="0" y="0">F53</tspan></text>
  <text transform="translate(415.3798 150.2802)" style="font-family: NotoSerifSC-Regular, &apos;Noto Serif SC&apos;; font-size: 18px;"><tspan x="0" y="0">F52</tspan></text>
  <circle cx="116.6883" cy="217.1875" r="1.7778"/>
  <circle cx="116.6883" cy="227.8145" r="1.7778"/>
  <circle cx="116.6883" cy="238.4415" r="1.7778"/>
  <g>
    <rect x=".5" y=".5" width="391.7778" height="29.751" style="fill: none; stroke: #000; stroke-miterlimit: 10;"/>
    <line x1="311.7" y1="30.251" x2="311.7" y2=".5" style="fill: none; stroke: #000; stroke-miterlimit: 10;"/>
    <line x1="233.3444" y1="30.251" x2="233.3444" y2=".5" style="fill: none; stroke: #000; stroke-miterlimit: 10;"/>
    <line x1="154.9889" y1="30.251" x2="154.9889" y2=".5" style="fill: none; stroke: #000; stroke-miterlimit: 10;"/>
    <line x1="76.6333" y1="30.251" x2="76.6333" y2=".5" style="fill: none; stroke: #000; stroke-miterlimit: 10;"/>
  </g>
  <text transform="translate(17.5606 20.9869)" style="font-family: NotoSerifSC-Regular, &apos;Noto Serif SC&apos;; font-size: 18px;"><tspan x="0" y="0" style="letter-spacing: -.024em;">K</tspan><tspan x="12.7261" y="0" style="letter-spacing: -.002em;">e</tspan><tspan x="22.5361" y="0">yi</tspan></text>
  <text transform="translate(103.2999 20.9869)" style="font-family: NotoSerifSC-Regular, &apos;Noto Serif SC&apos;; font-size: 18px;"><tspan x="0" y="0">F2i</tspan></text>
  <text transform="translate(181.6162 20.9869)" style="font-family: NotoSerifSC-Regular, &apos;Noto Serif SC&apos;; font-size: 18px;"><tspan x="0" y="0">F3i</tspan></text>
  <text transform="translate(259.9548 20.9869)" style="font-family: NotoSerifSC-Regular, &apos;Noto Serif SC&apos;; font-size: 18px;"><tspan x="0" y="0">F4i</tspan></text>
  <text transform="translate(338.6724 20.9869)" style="font-family: NotoSerifSC-Regular, &apos;Noto Serif SC&apos;; font-size: 18px;"><tspan x="0" y="0">F5i</tspan></text>
  <text transform="translate(216.6916 92.6299)" style="font-family: NotoSerifSC-Regular, &apos;Noto Serif SC&apos;; font-size: 18px;"><tspan x="0" y="0">基本表</tspan></text>
  <g>
    <line x1="38.7464" y1="30.251" x2="110.4862" y2="95.2391" style="fill: none; stroke: #000; stroke-miterlimit: 10;"/>
    <polygon points="105.9185 96.098 109.5707 94.4097 110.8909 90.6091 114.9105 99.247 105.9185 96.098"/>
  </g>
  <g>
    <line x1="48.3814" y1="99.247" x2="48.3814" y2="214.9479" style="fill: none; stroke: #000; stroke-miterlimit: 10;"/>
    <polygon points="44.6783 212.1393 48.3814 213.7126 52.0845 212.1393 48.3814 220.9177 44.6783 212.1393"/>
  </g>
</svg>