<?xml version="1.0" encoding="UTF-8"?>
<svg id="_图层_1" xmlns="http://www.w3.org/2000/svg" viewBox="0 0 734.9186 349.5059">
  <text transform="translate(121.1542 15.8402)" style="font-family: NotoSerifSC-Regular, &apos;Noto Serif SC&apos;; font-size: 18px;"><tspan x="0" y="0">新记录的主码值</tspan></text>
  <text transform="translate(174.2542 52.8809)" style="font-family: NotoSerifSC-Regular, &apos;Noto Serif SC&apos;; font-size: 18px;"><tspan x="0" y="0">25</tspan></text>
  <rect x="150.1541" y="27.9731" width="68" height="34.8571" style="fill: none; stroke: #000; stroke-miterlimit: 10;"/>
  <g>
    <text transform="translate(345.115 138.4061)" style="font-family: NotoSerifSC-Regular, &apos;Noto Serif SC&apos;; font-size: 18px;"><tspan x="0" y="0">51</tspan></text>
    <rect x="321.0149" y="113.4982" width="68" height="34.8571" style="fill: none; stroke: #000; stroke-miterlimit: 10;"/>
    <rect x="321.0149" y="114.1372" width="68" height="34.8571" style="opacity: .2;"/>
  </g>
  <g>
    <text transform="translate(52.2092 337.7062)" style="font-family: NotoSerifSC-Regular, &apos;Noto Serif SC&apos;; font-size: 18px;"><tspan x="0" y="0" xml:space="preserve">3  7</tspan></text>
    <rect x="32.717" y="312.7984" width="68" height="34.8571" style="fill: none; stroke: #000; stroke-miterlimit: 10;"/>
  </g>
  <g>
    <text transform="translate(142.3423 337.7062)" style="font-family: NotoSerifSC-Regular, &apos;Noto Serif SC&apos;; font-size: 18px;"><tspan x="0" y="0" xml:space="preserve">15  20  25</tspan></text>
    <rect x="133.1723" y="312.7984" width="96.17" height="34.8571" style="fill: none; stroke: #000; stroke-miterlimit: 10;"/>
    <rect x="133.1723" y="312.7984" width="96.17" height="34.8571" style="opacity: .2;"/>
  </g>
  <g>
    <text transform="translate(271.3902 337.7062)" style="font-family: NotoSerifSC-Regular, &apos;Noto Serif SC&apos;; font-size: 18px;"><tspan x="0" y="0" xml:space="preserve">30  41</tspan></text>
    <rect x="261.7977" y="312.7984" width="68" height="34.8571" style="fill: none; stroke: #000; stroke-miterlimit: 10;"/>
  </g>
  <g>
    <text transform="translate(371.4229 338.3462)" style="font-family: NotoSerifSC-Regular, &apos;Noto Serif SC&apos;; font-size: 18px;"><tspan x="0" y="0" xml:space="preserve">51  54  65</tspan></text>
    <rect x="362.253" y="313.4383" width="96.17" height="34.8571" style="fill: none; stroke: #000; stroke-miterlimit: 10;"/>
  </g>
  <g>
    <text transform="translate(500.0483 338.3462)" style="font-family: NotoSerifSC-Regular, &apos;Noto Serif SC&apos;; font-size: 18px;"><tspan x="0" y="0" xml:space="preserve">68  69  71  76</tspan></text>
    <rect x="490.8783" y="313.4383" width="124.0799" height="34.8571" style="fill: none; stroke: #000; stroke-miterlimit: 10;"/>
  </g>
  <g>
    <text transform="translate(656.5368 338.3462)" style="font-family: NotoSerifSC-Regular, &apos;Noto Serif SC&apos;; font-size: 18px;"><tspan x="0" y="0">79 84 93</tspan></text>
    <rect x="647.3668" y="313.4383" width="87.0518" height="34.8571" style="fill: none; stroke: #000; stroke-miterlimit: 10;"/>
  </g>
  <g>
    <text transform="translate(202.7466 239.6981)" style="font-family: NotoSerifSC-Regular, &apos;Noto Serif SC&apos;; font-size: 18px;"><tspan x="0" y="0" xml:space="preserve">12  30</tspan></text>
    <rect x="193.1541" y="214.7903" width="68" height="34.8571" style="fill: none; stroke: #000; stroke-miterlimit: 10;"/>
    <rect x="193.1541" y="215.4302" width="68" height="34.8571" style="opacity: .2;"/>
  </g>
  <g>
    <text transform="translate(491.7166 230.364)" style="font-family: NotoSerifSC-Regular, &apos;Noto Serif SC&apos;; font-size: 18px;"><tspan x="0" y="0" xml:space="preserve">66  78</tspan></text>
    <rect x="482.1241" y="205.4562" width="68" height="34.8571" style="fill: none; stroke: #000; stroke-miterlimit: 10;"/>
  </g>
  <g>
    <line x1="100.717" y1="330.8669" x2="127.2026" y2="330.8669" style="fill: none; stroke: #000; stroke-miterlimit: 10;"/>
    <polygon points="124.394 334.57 125.9672 330.8669 124.394 327.1637 133.1723 330.8669 124.394 334.57"/>
  </g>
  <g>
    <line x1="229.3424" y1="330.227" x2="255.8279" y2="330.227" style="fill: none; stroke: #000; stroke-miterlimit: 10;"/>
    <polygon points="253.0194 333.9301 254.5926 330.227 253.0194 326.5238 261.7977 330.227 253.0194 333.9301"/>
  </g>
  <g>
    <line x1="330.0594" y1="330.227" x2="356.545" y2="330.227" style="fill: none; stroke: #000; stroke-miterlimit: 10;"/>
    <polygon points="353.7364 333.9301 355.3096 330.227 353.7364 326.5238 362.5147 330.227 353.7364 333.9301"/>
  </g>
  <g>
    <line x1="458.1613" y1="330.227" x2="484.6469" y2="330.227" style="fill: none; stroke: #000; stroke-miterlimit: 10;"/>
    <polygon points="481.8383 333.9301 483.4115 330.227 481.8383 326.5238 490.6166 330.227 481.8383 333.9301"/>
  </g>
  <g>
    <line x1="614.9583" y1="330.227" x2="641.4438" y2="330.227" style="fill: none; stroke: #000; stroke-miterlimit: 10;"/>
    <polygon points="638.6352 333.9301 640.2085 330.227 638.6352 326.5238 647.4136 330.227 638.6352 333.9301"/>
  </g>
  <g>
    <line y1="330.8669" x2="26.4856" y2="330.8669" style="fill: none; stroke: #000; stroke-miterlimit: 10;"/>
    <polygon points="23.677 334.57 25.2502 330.8669 23.677 327.1637 32.4553 330.8669 23.677 334.57"/>
  </g>
  <g>
    <line x1="193.1541" y1="250.2874" x2="72.0684" y2="310.1526" style="fill: none; stroke: #000; stroke-miterlimit: 10;"/>
    <polygon points="72.9449 305.5883 73.1758 309.6051 76.2273 312.2274 66.717 312.7984 72.9449 305.5883"/>
  </g>
  <g>
    <line x1="227.1541" y1="249.6474" x2="184.767" y2="307.9693" style="fill: none; stroke: #000; stroke-miterlimit: 10;"/>
    <polygon points="183.4227 303.5203 185.4933 306.97 189.4138 307.8745 181.2574 312.7984 183.4227 303.5203"/>
  </g>
  <g>
    <line x1="261.1541" y1="250.2874" x2="292.9039" y2="307.5769" style="fill: none; stroke: #000; stroke-miterlimit: 10;"/>
    <polygon points="288.3035 306.9154 292.3051 306.4964 294.7815 303.3253 295.7977 312.7984 288.3035 306.9154"/>
  </g>
  <g>
    <line x1="482.124" y1="240.3133" x2="414.5387" y2="308.5567" style="fill: none; stroke: #000; stroke-miterlimit: 10;"/>
    <polygon points="413.8839 303.9554 415.408 307.679 419.1462 309.167 410.338 312.7984 413.8839 303.9554"/>
  </g>
  <g>
    <line x1="516.124" y1="239.9682" x2="550.2451" y2="308.1005" style="fill: none; stroke: #000; stroke-miterlimit: 10;"/>
    <polygon points="545.6763 307.2475 549.692 306.996 552.2986 303.9311 552.9183 313.4383 545.6763 307.2475"/>
  </g>
  <g>
    <line x1="550.124" y1="240.3133" x2="685.5952" y2="310.6864" style="fill: none; stroke: #000; stroke-miterlimit: 10;"/>
    <polygon points="681.3957 312.6779 684.4989 310.1169 684.8099 306.1055 690.8928 313.4383 681.3957 312.6779"/>
  </g>
  <g>
    <line x1="321.0149" y1="148.9943" x2="232.049" y2="211.1064" style="fill: none; stroke: #000; stroke-miterlimit: 10;"/>
    <polygon points="232.232 206.4622 233.0619 210.3992 236.4717 212.5349 227.1541 214.5237 232.232 206.4622"/>
  </g>
  <g>
    <path d="M389.0149,148.9943c2.8098-.2742,97.7704,43.0455,121.685,53.9798" style="fill: none; stroke: #000; stroke-miterlimit: 10;"/>
    <polygon points="506.6002 205.1939 509.5651 202.474 509.6657 198.4518 516.1241 205.4562 506.6002 205.1939"/>
  </g>
  <g>
    <line x1="218.1541" y1="62.8302" x2="349.4165" y2="111.4256" style="fill: none; stroke: #000; stroke-miterlimit: 10;"/>
    <polygon points="345.4969 113.9233 348.258 110.9967 348.0683 106.9778 355.0149 113.4983 345.4969 113.9233"/>
  </g>
</svg>