<?xml version="1.0" encoding="UTF-8"?>
<svg id="_layer_1" xmlns="http://www.w3.org/2000/svg" viewBox="0 0 863.7 289.0646">
  <text transform="translate(277.231 73.7818)" style="font-family: NotoSerifSC-Regular, &apos;Noto Serif SC&apos;; font-size: 18px;"><tspan x="0" y="0">就绪进程</tspan></text>
  <ellipse cx="313.231" cy="67.1474" rx="69.1429" ry="23.1429" style="fill: none; stroke: #000; stroke-miterlimit: 10;"/>
  <text transform="translate(111.3775 15.8403)" style="font-family: NotoSerifSC-Regular, &apos;Noto Serif SC&apos;; font-size: 18px;"><tspan x="0" y="0">来自其他状态</tspan></text>
  <g>
    <polyline points="118.0073 20.6 216.7367 20.6 248.0628 51.9262" style="fill: none; stroke: #000; stroke-miterlimit: 10;"/>
    <polygon points="243.4583 52.5587 247.1892 51.0526 248.6953 47.3217 252.284 56.1474 243.4583 52.5587"/>
  </g>
  <rect x="244.0881" y="122.5524" width="387.4286" height="141.7143" rx="12" ry="12" style="fill: none; stroke: #000; stroke-miterlimit: 10;"/>
  <text transform="translate(287.3068 166.8536)" style="font-family: NotoSerifSC-Regular, &apos;Noto Serif SC&apos;; font-size: 18px;"><tspan x="0" y="0">排队器</tspan></text>
  <rect x="277.8789" y="146.3143" width="72.8561" height="26.6667" rx="5.6693" ry="5.6693" style="fill: none; stroke: #000; stroke-miterlimit: 10;"/>
  <text transform="translate(394.4148 166.8536)" style="font-family: NotoSerifSC-Regular, &apos;Noto Serif SC&apos;; font-size: 18px;"><tspan x="0" y="0">就绪队列</tspan></text>
  <rect x="386.333" y="146.3143" width="88.1639" height="26.6667" rx="5.6693" ry="5.6693" style="fill: none; stroke: #000; stroke-miterlimit: 10;"/>
  <g>
    <line x1="350.735" y1="159.6476" x2="380.3633" y2="159.6476" style="fill: none; stroke: #000; stroke-miterlimit: 10;"/>
    <polygon points="377.5547 163.3508 379.128 159.6476 377.5547 155.9445 386.3331 159.6476 377.5547 163.3508"/>
  </g>
  <text transform="translate(403.4151 223.5679)" style="font-family: NotoSerifSC-Regular, &apos;Noto Serif SC&apos;; font-size: 18px;"><tspan x="0" y="0">分派器</tspan></text>
  <rect x="393.9869" y="203.0286" width="72.8561" height="26.6667" rx="5.6693" ry="5.6693" style="fill: none; stroke: #000; stroke-miterlimit: 10;"/>
  <text transform="translate(526.4629 210.2345)" style="font-family: NotoSerifSC-Regular, &apos;Noto Serif SC&apos;; font-size: 18px;"><tspan x="0" y="0">上下文</tspan><tspan x="0" y="21.6001">切换器</tspan></text>
  <rect x="517.0347" y="189.6953" width="72.8561" height="49.8095" rx="5.6693" ry="5.6693" style="fill: none; stroke: #000; stroke-miterlimit: 10;"/>
  <g>
    <line x1="407.116" y1="172.981" x2="407.116" y2="197.0589" style="fill: none; stroke: #000; stroke-miterlimit: 10;"/>
    <polygon points="403.4128 194.2503 407.116 195.8235 410.8191 194.2503 407.116 203.0286 403.4128 194.2503"/>
  </g>
  <g>
    <line x1="313.231" y1="90.2902" x2="313.231" y2="140.3446" style="fill: none; stroke: #000; stroke-miterlimit: 10;"/>
    <polygon points="309.5278 137.536 313.231 139.1092 316.9341 137.536 313.231 146.3143 309.5278 137.536"/>
  </g>
  <rect x="462.2242" y="48.2902" width="130.6667" height="37.7143" style="fill: none; stroke: #000; stroke-miterlimit: 10;"/>
  <text transform="translate(482.5579 73.6265)" style="font-family: NotoSerifSC-Regular, &apos;Noto Serif SC&apos;; font-size: 18px;"><tspan x="0" y="0">进程控制块</tspan></text>
  <g>
    <line x1="533.8461" y1="189.6953" x2="533.8461" y2="183.6953" style="fill: none; stroke: #000; stroke-miterlimit: 10;"/>
    <line x1="533.8461" y1="177.9601" x2="533.8461" y2="94.8009" style="fill: none; stroke: #000; stroke-dasharray: 11.4702 5.7351; stroke-miterlimit: 10;"/>
    <line x1="533.8461" y1="91.9334" x2="533.8461" y2="85.9334" style="fill: none; stroke: #000; stroke-miterlimit: 10;"/>
  </g>
  <g>
    <line x1="553.4628" y1="85.9334" x2="553.4628" y2="91.9334" style="fill: none; stroke: #000; stroke-miterlimit: 10;"/>
    <line x1="553.4628" y1="98.5328" x2="553.4628" y2="174.4258" style="fill: none; stroke: #000; stroke-dasharray: 13.1988 6.5994; stroke-miterlimit: 10;"/>
    <line x1="553.4628" y1="177.7255" x2="553.4628" y2="183.7255" style="fill: none; stroke: #000; stroke-miterlimit: 10;"/>
    <polygon points="549.7596 180.917 553.4628 182.4902 557.1659 180.917 553.4628 189.6953 549.7596 180.917"/>
  </g>
  <polyline points="485.8461 85.9334 485.8461 177.3619 430.415 177.3619 430.415 203.0286" style="fill: none; stroke: #000; stroke-dasharray: 12 6; stroke-miterlimit: 10;"/>
  <g>
    <polyline points="509.8461 85.9334 509.8461 181.9334 450.0366 181.9334 450.0366 197.0589" style="fill: none; stroke: #000; stroke-dasharray: 12 6; stroke-miterlimit: 10;"/>
    <polygon points="446.3335 194.2503 450.0366 195.8235 453.7397 194.2503 450.0366 203.0286 446.3335 194.2503"/>
  </g>
  <text transform="translate(686.8984 221.2345)" style="font-family: NotoSerifSC-Regular, &apos;Noto Serif SC&apos;; font-size: 18px;"><tspan x="0" y="0">C</tspan><tspan x="12.438" y="0" style="letter-spacing: -.019em;">P</tspan><tspan x="23.6338" y="0">U</tspan></text>
  <ellipse cx="705.8879" cy="214.6" rx="46.4345" ry="23.1429" style="fill: none; stroke: #000; stroke-miterlimit: 10;"/>
  <g>
    <line x1="589.8908" y1="214.3942" x2="653.4836" y2="214.3942" style="fill: none; stroke: #000; stroke-miterlimit: 10;"/>
    <polygon points="650.675 218.0973 652.2483 214.3942 650.675 210.691 659.4534 214.3942 650.675 218.0973"/>
  </g>
  <g>
    <polyline points="705.8879 191.4572 705.8879 20.6 386.333 20.6 362.4253 44.5078" style="fill: none; stroke: #000; stroke-miterlimit: 10;"/>
    <polygon points="361.7928 39.9033 363.2988 43.6342 367.0298 45.1403 358.2041 48.729 361.7928 39.9033"/>
  </g>
  <text transform="translate(485.8457 15.8404)" style="font-family: NotoSerifSC-Regular, &apos;Noto Serif SC&apos;; font-size: 18px;"><tspan x="0" y="0">移出运行进程</tspan></text>
  <text transform="translate(281.3771 284.3253)" style="font-family: NotoSerifSC-Regular, &apos;Noto Serif SC&apos;; font-size: 18px;"><tspan x="0" y="0">调度程序</tspan></text>
</svg>