<?xml version="1.0" encoding="UTF-8"?>
<svg id="_layer_1" xmlns="http://www.w3.org/2000/svg" viewBox="0 0 641.4449 289.7468">
  <g style="isolation: isolate;">
    <text transform="translate(165.8535 73.7816)" style="font-family: NotoSerifSC-Regular, &apos;Noto Serif SC&apos;; font-size: 18px; isolation: isolate;"><tspan x="0" y="0">就绪进程</tspan></text>
  </g>
  <ellipse cx="201.8535" cy="67.1472" rx="69.1429" ry="23.1429" style="fill: none; stroke: #000; stroke-miterlimit: 10;"/>
  <g style="isolation: isolate;">
    <text transform="translate(0 15.8401)" style="font-family: NotoSerifSC-Regular, &apos;Noto Serif SC&apos;; font-size: 18px; isolation: isolate;"><tspan x="0" y="0">来自其他状态</tspan></text>
  </g>
  <g>
    <polyline points="6.6299 20.5998 105.3593 20.5998 136.6854 51.926" style="fill: none; stroke: #000; stroke-miterlimit: 10;"/>
    <polygon points="132.0809 52.5585 135.8118 51.0524 137.3179 47.3215 140.9066 56.1472 132.0809 52.5585"/>
  </g>
  <rect x="132.7107" y="122.5522" width="387.4286" height="141.7143" rx="12" ry="12" style="fill: none; stroke: #000; stroke-miterlimit: 10;"/>
  <g style="isolation: isolate;">
    <text transform="translate(175.9294 166.8534)" style="font-family: NotoSerifSC-Regular, &apos;Noto Serif SC&apos;; font-size: 18px; isolation: isolate;"><tspan x="0" y="0">排队器</tspan></text>
  </g>
  <rect x="166.5015" y="146.3141" width="72.8561" height="26.6667" rx="5.6693" ry="5.6693" style="fill: none; stroke: #000; stroke-miterlimit: 10;"/>
  <g style="isolation: isolate;">
    <text transform="translate(283.0374 166.8534)" style="font-family: NotoSerifSC-Regular, &apos;Noto Serif SC&apos;; font-size: 18px; isolation: isolate;"><tspan x="0" y="0">就绪队列</tspan></text>
  </g>
  <rect x="274.9556" y="146.3141" width="88.1639" height="26.6667" rx="5.6693" ry="5.6693" style="fill: none; stroke: #000; stroke-miterlimit: 10;"/>
  <g>
    <line x1="239.3575" y1="159.6474" x2="268.9859" y2="159.6474" style="fill: none; stroke: #000; stroke-miterlimit: 10;"/>
    <polygon points="266.1772 163.3506 267.7505 159.6474 266.1772 155.9443 274.9557 159.6474 266.1772 163.3506"/>
  </g>
  <g style="isolation: isolate;">
    <text transform="translate(292.0377 223.5677)" style="font-family: NotoSerifSC-Regular, &apos;Noto Serif SC&apos;; font-size: 18px; isolation: isolate;"><tspan x="0" y="0">分派器</tspan></text>
  </g>
  <rect x="282.6095" y="203.0284" width="72.8561" height="26.6667" rx="5.6693" ry="5.6693" style="fill: none; stroke: #000; stroke-miterlimit: 10;"/>
  <g style="isolation: isolate;">
    <text transform="translate(415.0854 210.2343)" style="font-family: NotoSerifSC-Regular, &apos;Noto Serif SC&apos;; font-size: 18px; isolation: isolate;"><tspan x="0" y="0">上下文</tspan></text>
    <text transform="translate(415.0854 231.8344)" style="font-family: NotoSerifSC-Regular, &apos;Noto Serif SC&apos;; font-size: 18px; isolation: isolate;"><tspan x="0" y="0">切换器</tspan></text>
  </g>
  <rect x="405.6573" y="189.6951" width="72.8561" height="49.8095" rx="5.6693" ry="5.6693" style="fill: none; stroke: #000; stroke-miterlimit: 10;"/>
  <g>
    <line x1="295.7386" y1="172.9808" x2="295.7386" y2="197.0587" style="fill: none; stroke: #000; stroke-miterlimit: 10;"/>
    <polygon points="292.0354 194.2501 295.7386 195.8233 299.4417 194.2501 295.7386 203.0284 292.0354 194.2501"/>
  </g>
  <g>
    <line x1="201.8535" y1="90.29" x2="201.8535" y2="140.3444" style="fill: none; stroke: #000; stroke-miterlimit: 10;"/>
    <polygon points="198.1504 137.5358 201.8535 139.109 205.5567 137.5358 201.8535 146.3141 198.1504 137.5358"/>
  </g>
  <rect x="350.8468" y="48.29" width="130.6667" height="37.7143" style="fill: none; stroke: #000; stroke-miterlimit: 10;"/>
  <g style="isolation: isolate;">
    <text transform="translate(371.1805 73.6263)" style="font-family: NotoSerifSC-Regular, &apos;Noto Serif SC&apos;; font-size: 18px; isolation: isolate;"><tspan x="0" y="0">进程控制块</tspan></text>
  </g>
  <g>
    <line x1="422.4687" y1="189.6951" x2="422.4687" y2="183.6951" style="fill: none; stroke: #000; stroke-miterlimit: 10;"/>
    <line x1="422.4687" y1="177.9599" x2="422.4687" y2="94.8007" style="fill: none; stroke: #000; stroke-dasharray: 11.4702 5.7351; stroke-miterlimit: 10;"/>
    <line x1="422.4687" y1="91.9332" x2="422.4687" y2="85.9332" style="fill: none; stroke: #000; stroke-miterlimit: 10;"/>
  </g>
  <g>
    <line x1="442.0854" y1="85.9332" x2="442.0854" y2="91.9332" style="fill: none; stroke: #000; stroke-miterlimit: 10;"/>
    <line x1="442.0854" y1="98.5326" x2="442.0854" y2="174.4256" style="fill: none; stroke: #000; stroke-dasharray: 13.1988 6.5994; stroke-miterlimit: 10;"/>
    <line x1="442.0854" y1="177.7253" x2="442.0854" y2="183.7253" style="fill: none; stroke: #000; stroke-miterlimit: 10;"/>
    <polygon points="438.3821 180.9168 442.0854 182.49 445.7885 180.9168 442.0854 189.6951 438.3821 180.9168"/>
  </g>
  <polyline points="374.4687 85.9332 374.4687 177.3617 319.0376 177.3617 319.0376 203.0284" style="fill: none; stroke: #000; stroke-dasharray: 12 6; stroke-miterlimit: 10;"/>
  <g>
    <polyline points="398.4687 85.9332 398.4687 181.9332 338.6591 181.9332 338.6591 197.0587" style="fill: none; stroke: #000; stroke-dasharray: 12 6; stroke-miterlimit: 10;"/>
    <polygon points="334.9561 194.2501 338.6591 195.8233 342.3622 194.2501 338.6591 203.0284 334.9561 194.2501"/>
  </g>
  <g style="isolation: isolate;">
    <text transform="translate(575.5209 221.2343)" style="font-family: NotoSerifSC-Regular, &apos;Noto Serif SC&apos;; font-size: 18px; isolation: isolate;"><tspan x="0" y="0">C</tspan></text>
    <text transform="translate(587.9589 221.2343)" style="font-family: NotoSerifSC-Regular, &apos;Noto Serif SC&apos;; font-size: 18px; isolation: isolate; letter-spacing: -.018em;"><tspan x="0" y="0">P</tspan></text>
    <text transform="translate(599.1547 221.2343)" style="font-family: NotoSerifSC-Regular, &apos;Noto Serif SC&apos;; font-size: 18px; isolation: isolate;"><tspan x="0" y="0">U</tspan></text>
  </g>
  <ellipse cx="594.5104" cy="214.5998" rx="46.4345" ry="23.1429" style="fill: none; stroke: #000; stroke-miterlimit: 10;"/>
  <g>
    <line x1="478.5134" y1="214.394" x2="542.1061" y2="214.394" style="fill: none; stroke: #000; stroke-miterlimit: 10;"/>
    <polygon points="539.2975 218.0971 540.8708 214.394 539.2975 210.6908 548.076 214.394 539.2975 218.0971"/>
  </g>
  <g>
    <polyline points="594.5104 191.457 594.5104 20.5998 274.9556 20.5998 251.0479 44.5076" style="fill: none; stroke: #000; stroke-miterlimit: 10;"/>
    <polygon points="250.4153 39.9031 251.9214 43.634 255.6523 45.1401 246.8267 48.7288 250.4153 39.9031"/>
  </g>
  <g style="isolation: isolate;">
    <text transform="translate(374.4683 15.8402)" style="font-family: NotoSerifSC-Regular, &apos;Noto Serif SC&apos;; font-size: 18px; isolation: isolate;"><tspan x="0" y="0">移出运行进程</tspan></text>
  </g>
  <g style="isolation: isolate;">
    <text transform="translate(169.9997 284.3251)" style="font-family: NotoSerifSC-Regular, &apos;Noto Serif SC&apos;; font-size: 18px; isolation: isolate;"><tspan x="0" y="0">调度程序</tspan></text>
  </g>
</svg>