<?xml version="1.0" encoding="UTF-8"?>
<svg id="_layer_1" xmlns="http://www.w3.org/2000/svg" viewBox="0 0 824.9204 319.3763">
  <g style="isolation: isolate;">
    <text transform="translate(21.6473 73.7981)" style="font-family: NotoSerifSC-Regular, &apos;Noto Serif SC&apos;; font-size: 18px; isolation: isolate;"><tspan x="0" y="0">进程1</tspan></text>
  </g>
  <rect x="3.8819" y="54.4821" width="81.1429" height="24.401" style="fill: none; stroke: #000; stroke-miterlimit: 10;"/>
  <g style="isolation: isolate;">
    <text transform="translate(102.7902 73.7981)" style="font-family: NotoSerifSC-Regular, &apos;Noto Serif SC&apos;; font-size: 18px; isolation: isolate;"><tspan x="0" y="0">进程2</tspan></text>
  </g>
  <rect x="85.0248" y="54.4821" width="81.1429" height="24.401" style="fill: none; stroke: #000; stroke-miterlimit: 10;"/>
  <g style="isolation: isolate;">
    <text transform="translate(212.3564 73.7981)" style="font-family: NotoSerifSC-Regular, &apos;Noto Serif SC&apos;; font-size: 18px; isolation: isolate;"><tspan x="0" y="0">进程n</tspan></text>
  </g>
  <rect x="195.6438" y="54.4821" width="81.1429" height="24.401" style="fill: none; stroke: #000; stroke-miterlimit: 10;"/>
  <g style="isolation: isolate;">
    <text transform="translate(172.2814 73.7981)" style="font-family: NotoSerifSC-Regular, &apos;Noto Serif SC&apos;; font-size: 18px; isolation: isolate;"><tspan x="0" y="0">···</tspan></text>
  </g>
  <g style="isolation: isolate;">
    <text transform="translate(281.3578 73.7981)" style="font-family: NotoSerifSC-Regular, &apos;Noto Serif SC&apos;; font-size: 18px; isolation: isolate;"><tspan x="0" y="0">实时进程</tspan></text>
  </g>
  <rect x="276.7867" y="54.4821" width="81.1429" height="24.401" style="fill: none; stroke: #000; stroke-miterlimit: 10;"/>
  <g>
    <line x1="44.4533" y1="20.6608" x2="44.4533" y2="26.6608" style="fill: none; stroke: #000; stroke-miterlimit: 10;"/>
    <line x1="44.4533" y1="30.6237" x2="44.4533" y2="40.5309" style="fill: none; stroke: #000; stroke-dasharray: 7.9258 3.9629; stroke-miterlimit: 10;"/>
    <line x1="44.4533" y1="42.5124" x2="44.4533" y2="48.5124" style="fill: none; stroke: #000; stroke-miterlimit: 10;"/>
    <polygon points="40.7502 45.7038 44.4533 47.277 48.1565 45.7038 44.4533 54.4821 40.7502 45.7038"/>
  </g>
  <g style="isolation: isolate;">
    <text transform="translate(.0002 15.8403)" style="font-family: NotoSerifSC-Regular, &apos;Noto Serif SC&apos;; font-size: 18px; isolation: isolate;"><tspan x="0" y="0">实时进程请求调度</tspan></text>
  </g>
  <g>
    <line x1="276.7867" y1="20.6608" x2="276.7867" y2="26.6608" style="fill: none; stroke: #000; stroke-miterlimit: 10;"/>
    <line x1="276.7867" y1="30.6237" x2="276.7867" y2="40.5309" style="fill: none; stroke: #000; stroke-dasharray: 7.9258 3.9629; stroke-miterlimit: 10;"/>
    <line x1="276.7867" y1="42.5124" x2="276.7867" y2="48.5124" style="fill: none; stroke: #000; stroke-miterlimit: 10;"/>
    <polygon points="273.0835 45.7038 276.7867 47.277 280.4898 45.7038 276.7867 54.4821 273.0835 45.7038"/>
  </g>
  <g style="isolation: isolate;">
    <text transform="translate(205.2204 15.8403)" style="font-family: NotoSerifSC-Regular, &apos;Noto Serif SC&apos;; font-size: 18px; isolation: isolate;"><tspan x="0" y="0">调度实时进程运行</tspan></text>
  </g>
  <line x1="166.1676" y1="78.8831" x2="166.1676" y2="96.7243" style="fill: none; stroke: #000; stroke-miterlimit: 10;"/>
  <g style="isolation: isolate;">
    <text transform="translate(104.3341 119.8346)" style="font-family: NotoSerifSC-Regular, &apos;Noto Serif SC&apos;; font-size: 18px; isolation: isolate;"><tspan x="0" y="0">调度时间</tspan></text>
  </g>
  <line x1="3.8819" y1="78.8831" x2="3.8819" y2="114.4386" style="fill: none; stroke: #000; stroke-miterlimit: 10;"/>
  <line x1="276.7867" y1="78.8831" x2="276.7867" y2="114.5339" style="fill: none; stroke: #000; stroke-miterlimit: 10;"/>
  <g>
    <line x1="101.1359" y1="112.9938" x2="12.7413" y2="112.9938" style="fill: none; stroke: #000; stroke-miterlimit: 10;"/>
    <polygon points="14.7227 110.0885 3.8819 112.9938 14.7227 115.8991 14.7227 110.0885"/>
  </g>
  <g>
    <line x1="178.5248" y1="112.9938" x2="266.9194" y2="112.9938" style="fill: none; stroke: #000; stroke-miterlimit: 10;"/>
    <polygon points="264.9379 115.8991 275.7787 112.9938 264.9379 110.0885 264.9379 115.8991"/>
  </g>
  <line x1="85.0248" y1="78.8831" x2="85.0248" y2="91.6767" style="fill: none; stroke: #000; stroke-miterlimit: 10;"/>
  <g style="isolation: isolate;">
    <text transform="translate(93.8614 152.3867)" style="font-family: NotoSerifSC-Regular, &apos;Noto Serif SC&apos;; font-size: 18px; isolation: isolate;"><tspan x="0" y="0" style="letter-spacing: -.045em;">（</tspan><tspan x="17.1899" y="0" style="letter-spacing: -.023em;">a</tspan></text>
    <text transform="translate(120.0694 152.3867)" style="font-family: NotoSerifSC-Regular, &apos;Noto Serif SC&apos;; font-size: 18px; isolation: isolate; letter-spacing: -.955em;"><tspan x="0" y="0">）</tspan></text>
    <text transform="translate(129.879 152.3867)" style="font-family: NotoSerifSC-Regular, &apos;Noto Serif SC&apos;; font-size: 18px; isolation: isolate;"><tspan x="0" y="0">非抢占轮转调度</tspan></text>
  </g>
  <g style="isolation: isolate;">
    <text transform="translate(506.5167 73.4795)" style="font-family: NotoSerifSC-Regular, &apos;Noto Serif SC&apos;; font-size: 18px; isolation: isolate;"><tspan x="0" y="0">当前进程</tspan></text>
  </g>
  <rect x="407.9295" y="54.1635" width="269.1746" height="24.401" style="fill: none; stroke: #000; stroke-miterlimit: 10;"/>
  <g style="isolation: isolate;">
    <text transform="translate(681.6753 73.4795)" style="font-family: NotoSerifSC-Regular, &apos;Noto Serif SC&apos;; font-size: 18px; isolation: isolate;"><tspan x="0" y="0">实时进程</tspan></text>
  </g>
  <rect x="677.1041" y="54.1635" width="81.1429" height="24.401" style="fill: none; stroke: #000; stroke-miterlimit: 10;"/>
  <g>
    <line x1="541.5605" y1="20.3422" x2="541.5605" y2="26.3422" style="fill: none; stroke: #000; stroke-miterlimit: 10;"/>
    <line x1="541.5605" y1="30.3051" x2="541.5605" y2="40.2123" style="fill: none; stroke: #000; stroke-dasharray: 7.9258 3.9629; stroke-miterlimit: 10;"/>
    <line x1="541.5605" y1="42.1938" x2="541.5605" y2="48.1938" style="fill: none; stroke: #000; stroke-miterlimit: 10;"/>
    <polygon points="537.8574 45.3852 541.5605 46.9584 545.2637 45.3852 541.5605 54.1635 537.8574 45.3852"/>
  </g>
  <g style="isolation: isolate;">
    <text transform="translate(470.5749 15.84)" style="font-family: NotoSerifSC-Regular, &apos;Noto Serif SC&apos;; font-size: 18px; isolation: isolate;"><tspan x="0" y="0">实时进程请求调度</tspan></text>
  </g>
  <g>
    <line x1="677.1041" y1="20.3422" x2="677.1041" y2="26.3422" style="fill: none; stroke: #000; stroke-miterlimit: 10;"/>
    <line x1="677.1041" y1="30.3051" x2="677.1041" y2="40.2123" style="fill: none; stroke: #000; stroke-dasharray: 7.9258 3.9629; stroke-miterlimit: 10;"/>
    <line x1="677.1041" y1="42.1938" x2="677.1041" y2="48.1938" style="fill: none; stroke: #000; stroke-miterlimit: 10;"/>
    <polygon points="673.401 45.3852 677.1041 46.9584 680.8072 45.3852 677.1041 54.1635 673.401 45.3852"/>
  </g>
  <g style="isolation: isolate;">
    <text transform="translate(641.7543 15.8403)" style="font-family: NotoSerifSC-Regular, &apos;Noto Serif SC&apos;; font-size: 18px; isolation: isolate;"><tspan x="0" y="0">时钟中断到来时</tspan></text>
  </g>
  <g style="isolation: isolate;">
    <text transform="translate(573.3326 106.9933)" style="font-family: NotoSerifSC-Regular, &apos;Noto Serif SC&apos;; font-size: 18px; isolation: isolate;"><tspan x="0" y="0">调度时间</tspan></text>
  </g>
  <line x1="541.5605" y1="78.5645" x2="541.5605" y2="109.3275" style="fill: none; stroke: #000; stroke-miterlimit: 10;"/>
  <line x1="677.1041" y1="78.5645" x2="677.1041" y2="109.3275" style="fill: none; stroke: #000; stroke-miterlimit: 10;"/>
  <g>
    <line x1="573.0406" y1="100.1535" x2="550.4199" y2="100.1535" style="fill: none; stroke: #000; stroke-miterlimit: 10;"/>
    <polygon points="552.4014 97.2482 541.5605 100.1535 552.4014 103.0588 552.4014 97.2482"/>
  </g>
  <g>
    <line x1="645.0724" y1="100.1531" x2="668.2448" y2="100.1531" style="fill: none; stroke: #000; stroke-miterlimit: 10;"/>
    <polygon points="666.2634 103.0584 677.1042 100.1531 666.2634 97.2478 666.2634 103.0584"/>
  </g>
  <g style="isolation: isolate;">
    <text transform="translate(419.9089 152.3868)" style="font-family: NotoSerifSC-Regular, &apos;Noto Serif SC&apos;; font-size: 18px; isolation: isolate;"><tspan x="0" y="0" style="letter-spacing: -.045em;">（</tspan><tspan x="17.1899" y="0" style="letter-spacing: -.023em;">c</tspan></text>
    <text transform="translate(447.7746 152.3868)" style="font-family: NotoSerifSC-Regular, &apos;Noto Serif SC&apos;; font-size: 18px; isolation: isolate; letter-spacing: -.955em;"><tspan x="0" y="0">）</tspan></text>
    <text transform="translate(457.5847 152.3868)" style="font-family: NotoSerifSC-Regular, &apos;Noto Serif SC&apos;; font-size: 18px; isolation: isolate;"><tspan x="0" y="0">基于时钟中断抢占的优先权抢占调度</tspan></text>
  </g>
  <line x1="407.9295" y1="78.5645" x2="407.9295" y2="109.3275" style="fill: none; stroke: #000; stroke-miterlimit: 10;"/>
  <g style="isolation: isolate;">
    <text transform="translate(105.9141 251.0187)" style="font-family: NotoSerifSC-Regular, &apos;Noto Serif SC&apos;; font-size: 18px; isolation: isolate;"><tspan x="0" y="0">当前进程</tspan></text>
  </g>
  <rect x="7.3269" y="231.7026" width="269.1746" height="24.401" style="fill: none; stroke: #000; stroke-miterlimit: 10;"/>
  <g style="isolation: isolate;">
    <text transform="translate(281.0726 251.0187)" style="font-family: NotoSerifSC-Regular, &apos;Noto Serif SC&apos;; font-size: 18px; isolation: isolate;"><tspan x="0" y="0">实时进程</tspan></text>
  </g>
  <rect x="276.5015" y="231.7026" width="81.1429" height="24.401" style="fill: none; stroke: #000; stroke-miterlimit: 10;"/>
  <g>
    <line x1="96.9579" y1="197.8814" x2="96.9579" y2="203.8814" style="fill: none; stroke: #000; stroke-miterlimit: 10;"/>
    <line x1="96.9579" y1="207.8443" x2="96.9579" y2="217.7515" style="fill: none; stroke: #000; stroke-dasharray: 7.9258 3.9629; stroke-miterlimit: 10;"/>
    <line x1="96.9579" y1="219.7329" x2="96.9579" y2="225.7329" style="fill: none; stroke: #000; stroke-miterlimit: 10;"/>
    <polygon points="93.2547 222.9243 96.9579 224.4976 100.661 222.9243 96.9579 231.7026 93.2547 222.9243"/>
  </g>
  <g style="isolation: isolate;">
    <text transform="translate(25.9723 193.3791)" style="font-family: NotoSerifSC-Regular, &apos;Noto Serif SC&apos;; font-size: 18px; isolation: isolate;"><tspan x="0" y="0">实时进程请求调度</tspan></text>
  </g>
  <g>
    <line x1="276.5015" y1="197.8814" x2="276.5015" y2="203.8814" style="fill: none; stroke: #000; stroke-miterlimit: 10;"/>
    <line x1="276.5015" y1="207.8443" x2="276.5015" y2="217.7515" style="fill: none; stroke: #000; stroke-dasharray: 7.9258 3.9629; stroke-miterlimit: 10;"/>
    <line x1="276.5015" y1="219.7329" x2="276.5015" y2="225.7329" style="fill: none; stroke: #000; stroke-miterlimit: 10;"/>
    <polygon points="272.7984 222.9243 276.5015 224.4976 280.2046 222.9243 276.5015 231.7026 272.7984 222.9243"/>
  </g>
  <g style="isolation: isolate;">
    <text transform="translate(205.1516 193.3794)" style="font-family: NotoSerifSC-Regular, &apos;Noto Serif SC&apos;; font-size: 18px; isolation: isolate;"><tspan x="0" y="0">当前进程运行完成</tspan></text>
  </g>
  <g style="isolation: isolate;">
    <text transform="translate(150.7297 284.5325)" style="font-family: NotoSerifSC-Regular, &apos;Noto Serif SC&apos;; font-size: 18px; isolation: isolate;"><tspan x="0" y="0">调度时间</tspan></text>
  </g>
  <g>
    <line x1="96.9579" y1="256.1036" x2="96.9579" y2="286.8667" style="fill: none; stroke: #000; stroke-miterlimit: 10;"/>
    <line x1="276.5015" y1="256.1036" x2="276.5015" y2="286.8667" style="fill: none; stroke: #000; stroke-miterlimit: 10;"/>
  </g>
  <g>
    <line x1="149.4697" y1="277.6926" x2="105.8172" y2="277.6926" style="fill: none; stroke: #000; stroke-miterlimit: 10;"/>
    <polygon points="107.7987 274.7874 96.9579 277.6926 107.7987 280.5979 107.7987 274.7874"/>
  </g>
  <g>
    <line x1="223.7138" y1="277.6922" x2="267.6421" y2="277.6922" style="fill: none; stroke: #000; stroke-miterlimit: 10;"/>
    <polygon points="265.6606 280.5975 276.5015 277.6922 265.6606 274.7869 265.6606 280.5975"/>
  </g>
  <g style="isolation: isolate;">
    <text transform="translate(504.9699 251.0185)" style="font-family: NotoSerifSC-Regular, &apos;Noto Serif SC&apos;; font-size: 18px; isolation: isolate;"><tspan x="0" y="0">当前进程</tspan></text>
  </g>
  <rect x="406.3827" y="231.7024" width="269.1746" height="24.401" style="fill: none; stroke: #000; stroke-miterlimit: 10;"/>
  <g style="isolation: isolate;">
    <text transform="translate(680.1285 251.0185)" style="font-family: NotoSerifSC-Regular, &apos;Noto Serif SC&apos;; font-size: 18px; isolation: isolate;"><tspan x="0" y="0">实时进程</tspan></text>
  </g>
  <rect x="675.5573" y="231.7024" width="81.1429" height="24.401" style="fill: none; stroke: #000; stroke-miterlimit: 10;"/>
  <g>
    <line x1="496.0137" y1="197.8812" x2="496.0137" y2="203.8812" style="fill: none; stroke: #000; stroke-miterlimit: 10;"/>
    <line x1="496.0137" y1="207.8441" x2="496.0137" y2="217.7513" style="fill: none; stroke: #000; stroke-dasharray: 7.9258 3.9629; stroke-miterlimit: 10;"/>
    <line x1="496.0137" y1="219.7327" x2="496.0137" y2="225.7327" style="fill: none; stroke: #000; stroke-miterlimit: 10;"/>
    <polygon points="492.3106 222.9241 496.0137 224.4974 499.7168 222.9241 496.0137 231.7024 492.3106 222.9241"/>
  </g>
  <g style="isolation: isolate;">
    <text transform="translate(425.0281 193.379)" style="font-family: NotoSerifSC-Regular, &apos;Noto Serif SC&apos;; font-size: 18px; isolation: isolate;"><tspan x="0" y="0">实时进程请求调度</tspan></text>
  </g>
  <g>
    <line x1="675.5573" y1="197.8812" x2="675.5573" y2="203.8812" style="fill: none; stroke: #000; stroke-miterlimit: 10;"/>
    <line x1="675.5573" y1="207.8441" x2="675.5573" y2="217.7513" style="fill: none; stroke: #000; stroke-dasharray: 7.9258 3.9629; stroke-miterlimit: 10;"/>
    <line x1="675.5573" y1="219.7327" x2="675.5573" y2="225.7327" style="fill: none; stroke: #000; stroke-miterlimit: 10;"/>
    <polygon points="671.8542 222.9241 675.5573 224.4974 679.2604 222.9241 675.5573 231.7024 671.8542 222.9241"/>
  </g>
  <g style="isolation: isolate;">
    <text transform="translate(680.9205 193.3792)" style="font-family: NotoSerifSC-Regular, &apos;Noto Serif SC&apos;; font-size: 18px; isolation: isolate;"><tspan x="0" y="0">实时进程抢占当前</tspan></text>
    <text transform="translate(680.9205 214.9793)" style="font-family: NotoSerifSC-Regular, &apos;Noto Serif SC&apos;; font-size: 18px; isolation: isolate;"><tspan x="0" y="0">进</tspan></text>
    <text transform="translate(698.9205 214.9793)" style="font-family: NotoSerifSC-Regular, &apos;Noto Serif SC&apos;; font-size: 18px; isolation: isolate; letter-spacing: -.019em;"><tspan x="0" y="0">程</tspan></text>
    <text transform="translate(716.2007 214.9793)" style="font-family: NotoSerifSC-Regular, &apos;Noto Serif SC&apos;; font-size: 18px; isolation: isolate; letter-spacing: -.959em;"><tspan x="0" y="0">，</tspan></text>
    <text transform="translate(725.9205 214.9793)" style="font-family: NotoSerifSC-Regular, &apos;Noto Serif SC&apos;; font-size: 18px; isolation: isolate;"><tspan x="0" y="0">并立即执行</tspan></text>
  </g>
  <g style="isolation: isolate;">
    <text transform="translate(549.7855 284.5323)" style="font-family: NotoSerifSC-Regular, &apos;Noto Serif SC&apos;; font-size: 18px; isolation: isolate;"><tspan x="0" y="0">调度时间</tspan></text>
  </g>
  <g>
    <line x1="496.0137" y1="256.1034" x2="496.0137" y2="286.8665" style="fill: none; stroke: #000; stroke-miterlimit: 10;"/>
    <line x1="675.5573" y1="256.1034" x2="675.5573" y2="286.8665" style="fill: none; stroke: #000; stroke-miterlimit: 10;"/>
  </g>
  <g>
    <line x1="548.5256" y1="277.6924" x2="504.8731" y2="277.6924" style="fill: none; stroke: #000; stroke-miterlimit: 10;"/>
    <polygon points="506.8545 274.7872 496.0137 277.6924 506.8545 280.5977 506.8545 274.7872"/>
  </g>
  <g>
    <line x1="622.7696" y1="277.692" x2="666.6979" y2="277.692" style="fill: none; stroke: #000; stroke-miterlimit: 10;"/>
    <polygon points="664.7165 280.5973 675.5573 277.692 664.7165 274.7867 664.7165 280.5973"/>
  </g>
  <g style="isolation: isolate;">
    <text transform="translate(83.1501 317.2159)" style="font-family: NotoSerifSC-Regular, &apos;Noto Serif SC&apos;; font-size: 18px; isolation: isolate;"><tspan x="0" y="0" style="letter-spacing: -.045em;">（</tspan><tspan x="17.1899" y="0" style="letter-spacing: -.023em;">b</tspan></text>
    <text transform="translate(111.78 317.2159)" style="font-family: NotoSerifSC-Regular, &apos;Noto Serif SC&apos;; font-size: 18px; isolation: isolate; letter-spacing: -.955em;"><tspan x="0" y="0">）</tspan></text>
    <text transform="translate(121.59 317.2159)" style="font-family: NotoSerifSC-Regular, &apos;Noto Serif SC&apos;; font-size: 18px; isolation: isolate;"><tspan x="0" y="0">非抢占优先权调度</tspan></text>
  </g>
  <g style="isolation: isolate;">
    <text transform="translate(486.2764 317.2162)" style="font-family: NotoSerifSC-Regular, &apos;Noto Serif SC&apos;; font-size: 18px; isolation: isolate; letter-spacing: -.025em;"><tspan x="0" y="0">(</tspan></text>
    <text transform="translate(492.1265 317.2162)" style="font-family: NotoSerifSC-Regular, &apos;Noto Serif SC&apos;; font-size: 18px; isolation: isolate; letter-spacing: -.007em;"><tspan x="0" y="0">d</tspan></text>
    <text transform="translate(503.1065 317.2162)" style="font-family: NotoSerifSC-Regular, &apos;Noto Serif SC&apos;; font-size: 18px; isolation: isolate;"><tspan x="0" y="0">)立即抢占的优先权调度</tspan></text>
  </g>
</svg>