<?xml version="1.0" encoding="UTF-8"?>
<svg id="_layer_1" xmlns="http://www.w3.org/2000/svg" viewBox="0 0 863.7 321.222">
  <text transform="translate(47.1146 76.2563)" style="font-family: NotoSerifSC-ExtraLight, &apos;Noto Serif SC&apos;; font-size: 18px; font-weight: 200;"><tspan x="0" y="0">进程1</tspan></text>
  <rect x="29.3492" y="56.9403" width="81.1429" height="24.401" style="fill: none; stroke: #000; stroke-miterlimit: 10;"/>
  <text transform="translate(128.2575 76.2563)" style="font-family: NotoSerifSC-ExtraLight, &apos;Noto Serif SC&apos;; font-size: 18px; font-weight: 200;"><tspan x="0" y="0">进程2</tspan></text>
  <rect x="110.4921" y="56.9403" width="81.1429" height="24.401" style="fill: none; stroke: #000; stroke-miterlimit: 10;"/>
  <text transform="translate(237.8237 76.2563)" style="font-family: NotoSerifSC-ExtraLight, &apos;Noto Serif SC&apos;; font-size: 18px; font-weight: 200;"><tspan x="0" y="0">进程n</tspan></text>
  <rect x="221.1111" y="56.9403" width="81.1429" height="24.401" style="fill: none; stroke: #000; stroke-miterlimit: 10;"/>
  <text transform="translate(197.7487 76.2563)" style="font-family: NotoSerifSC-ExtraLight, &apos;Noto Serif SC&apos;; font-size: 18px; font-weight: 200;"><tspan x="0" y="0">···</tspan></text>
  <text transform="translate(306.8251 76.2563)" style="font-family: NotoSerifSC-ExtraLight, &apos;Noto Serif SC&apos;; font-size: 18px; font-weight: 200;"><tspan x="0" y="0">实时进程</tspan></text>
  <rect x="302.254" y="56.9403" width="81.1429" height="24.401" style="fill: none; stroke: #000; stroke-miterlimit: 10;"/>
  <g>
    <line x1="69.9206" y1="23.119" x2="69.9206" y2="29.119" style="fill: none; stroke: #000; stroke-miterlimit: 10;"/>
    <line x1="69.9206" y1="33.0819" x2="69.9206" y2="42.9891" style="fill: none; stroke: #000; stroke-dasharray: 7.9258 3.9629; stroke-miterlimit: 10;"/>
    <line x1="69.9206" y1="44.9706" x2="69.9206" y2="50.9706" style="fill: none; stroke: #000; stroke-miterlimit: 10;"/>
    <polygon points="66.2175 48.162 69.9206 49.7352 73.6238 48.162 69.9206 56.9403 66.2175 48.162"/>
  </g>
  <text transform="translate(25.4675 18.2985)" style="font-family: NotoSerifSC-ExtraLight, &apos;Noto Serif SC&apos;; font-size: 18px; font-weight: 200;"><tspan x="0" y="0">实时进程请求调度</tspan></text>
  <g>
    <line x1="302.254" y1="23.119" x2="302.254" y2="29.119" style="fill: none; stroke: #000; stroke-miterlimit: 10;"/>
    <line x1="302.254" y1="33.0819" x2="302.254" y2="42.9891" style="fill: none; stroke: #000; stroke-dasharray: 7.9258 3.9629; stroke-miterlimit: 10;"/>
    <line x1="302.254" y1="44.9706" x2="302.254" y2="50.9706" style="fill: none; stroke: #000; stroke-miterlimit: 10;"/>
    <polygon points="298.5508 48.162 302.254 49.7352 305.9571 48.162 302.254 56.9403 298.5508 48.162"/>
  </g>
  <text transform="translate(230.6877 18.2985)" style="font-family: NotoSerifSC-ExtraLight, &apos;Noto Serif SC&apos;; font-size: 18px; font-weight: 200;"><tspan x="0" y="0">调度实时进程运行</tspan></text>
  <line x1="191.6349" y1="81.3413" x2="191.6349" y2="99.1825" style="fill: none; stroke: #000; stroke-miterlimit: 10;"/>
  <text transform="translate(129.8014 122.2928)" style="font-family: NotoSerifSC-ExtraLight, &apos;Noto Serif SC&apos;; font-size: 18px; font-weight: 200;"><tspan x="0" y="0">调度时间</tspan></text>
  <line x1="29.3492" y1="81.3413" x2="29.3492" y2="116.8968" style="fill: none; stroke: #000; stroke-miterlimit: 10;"/>
  <line x1="302.254" y1="81.3413" x2="302.254" y2="116.9921" style="fill: none; stroke: #000; stroke-miterlimit: 10;"/>
  <g>
    <line x1="126.6032" y1="115.452" x2="38.2086" y2="115.452" style="fill: none; stroke: #000; stroke-miterlimit: 10;"/>
    <polygon points="40.19 112.5467 29.3492 115.452 40.19 118.3573 40.19 112.5467"/>
  </g>
  <g>
    <line x1="203.9921" y1="115.452" x2="292.3867" y2="115.452" style="fill: none; stroke: #000; stroke-miterlimit: 10;"/>
    <polygon points="290.4052 118.3573 301.246 115.452 290.4052 112.5467 290.4052 118.3573"/>
  </g>
  <line x1="110.4921" y1="81.3413" x2="110.4921" y2="94.1349" style="fill: none; stroke: #000; stroke-miterlimit: 10;"/>
  <text transform="translate(118.9327 154.8449)" style="font-family: NotoSerifSC-ExtraLight, &apos;Noto Serif SC&apos;; font-size: 18px; font-weight: 200;"><tspan x="0" y="0" style="letter-spacing: -.023em;">（a</tspan><tspan x="27" y="0" style="letter-spacing: -.477em;">）</tspan><tspan x="36.4136" y="0">非抢占轮转调度</tspan></text>
  <text transform="translate(531.984 75.9377)" style="font-family: NotoSerifSC-ExtraLight, &apos;Noto Serif SC&apos;; font-size: 18px; font-weight: 200;"><tspan x="0" y="0">当前进程</tspan></text>
  <rect x="433.3968" y="56.6217" width="269.1746" height="24.401" style="fill: none; stroke: #000; stroke-miterlimit: 10;"/>
  <text transform="translate(707.1426 75.9377)" style="font-family: NotoSerifSC-ExtraLight, &apos;Noto Serif SC&apos;; font-size: 18px; font-weight: 200;"><tspan x="0" y="0">实时进程</tspan></text>
  <rect x="702.5714" y="56.6217" width="81.1429" height="24.401" style="fill: none; stroke: #000; stroke-miterlimit: 10;"/>
  <g>
    <line x1="567.0278" y1="22.8004" x2="567.0278" y2="28.8004" style="fill: none; stroke: #000; stroke-miterlimit: 10;"/>
    <line x1="567.0278" y1="32.7633" x2="567.0278" y2="42.6705" style="fill: none; stroke: #000; stroke-dasharray: 7.9258 3.9629; stroke-miterlimit: 10;"/>
    <line x1="567.0278" y1="44.652" x2="567.0278" y2="50.652" style="fill: none; stroke: #000; stroke-miterlimit: 10;"/>
    <polygon points="563.3247 47.8434 567.0278 49.4166 570.731 47.8434 567.0278 56.6217 563.3247 47.8434"/>
  </g>
  <text transform="translate(496.0422 18.2982)" style="font-family: NotoSerifSC-ExtraLight, &apos;Noto Serif SC&apos;; font-size: 18px; font-weight: 200;"><tspan x="0" y="0">实时进程请求调度</tspan></text>
  <g>
    <line x1="702.5714" y1="22.8004" x2="702.5714" y2="28.8004" style="fill: none; stroke: #000; stroke-miterlimit: 10;"/>
    <line x1="702.5714" y1="32.7633" x2="702.5714" y2="42.6705" style="fill: none; stroke: #000; stroke-dasharray: 7.9258 3.9629; stroke-miterlimit: 10;"/>
    <line x1="702.5714" y1="44.652" x2="702.5714" y2="50.652" style="fill: none; stroke: #000; stroke-miterlimit: 10;"/>
    <polygon points="698.8683 47.8434 702.5714 49.4166 706.2745 47.8434 702.5714 56.6217 698.8683 47.8434"/>
  </g>
  <text transform="translate(667.2216 18.2985)" style="font-family: NotoSerifSC-ExtraLight, &apos;Noto Serif SC&apos;; font-size: 18px; font-weight: 200;"><tspan x="0" y="0">时钟中断到来时</tspan></text>
  <text transform="translate(598.7999 109.4515)" style="font-family: NotoSerifSC-ExtraLight, &apos;Noto Serif SC&apos;; font-size: 18px; font-weight: 200;"><tspan x="0" y="0">调度时间</tspan></text>
  <line x1="567.0278" y1="81.0227" x2="567.0278" y2="111.7857" style="fill: none; stroke: #000; stroke-miterlimit: 10;"/>
  <line x1="702.5714" y1="81.0227" x2="702.5714" y2="111.7857" style="fill: none; stroke: #000; stroke-miterlimit: 10;"/>
  <g>
    <line x1="598.5079" y1="102.6117" x2="575.8872" y2="102.6117" style="fill: none; stroke: #000; stroke-miterlimit: 10;"/>
    <polygon points="577.8687 99.7064 567.0278 102.6117 577.8687 105.517 577.8687 99.7064"/>
  </g>
  <g>
    <line x1="670.5397" y1="102.6113" x2="693.7121" y2="102.6113" style="fill: none; stroke: #000; stroke-miterlimit: 10;"/>
    <polygon points="691.7307 105.5166 702.5715 102.6113 691.7307 99.706 691.7307 105.5166"/>
  </g>
  <text transform="translate(446.9802 154.845)" style="font-family: NotoSerifSC-ExtraLight, &apos;Noto Serif SC&apos;; font-size: 18px; font-weight: 200;"><tspan x="0" y="0" style="letter-spacing: -.023em;">（c</tspan><tspan x="26.6577" y="0" style="letter-spacing: -.477em;">）</tspan><tspan x="36.0718" y="0">基于时钟中断抢占的优先权抢占调度</tspan></text>
  <line x1="433.3968" y1="81.0227" x2="433.3968" y2="111.7857" style="fill: none; stroke: #000; stroke-miterlimit: 10;"/>
  <text transform="translate(131.3814 253.4769)" style="font-family: NotoSerifSC-ExtraLight, &apos;Noto Serif SC&apos;; font-size: 18px; font-weight: 200;"><tspan x="0" y="0">当前进程</tspan></text>
  <rect x="32.7942" y="234.1608" width="269.1746" height="24.401" style="fill: none; stroke: #000; stroke-miterlimit: 10;"/>
  <text transform="translate(306.5399 253.4769)" style="font-family: NotoSerifSC-ExtraLight, &apos;Noto Serif SC&apos;; font-size: 18px; font-weight: 200;"><tspan x="0" y="0">实时进程</tspan></text>
  <rect x="301.9688" y="234.1608" width="81.1429" height="24.401" style="fill: none; stroke: #000; stroke-miterlimit: 10;"/>
  <g>
    <line x1="122.4252" y1="200.3396" x2="122.4252" y2="206.3396" style="fill: none; stroke: #000; stroke-miterlimit: 10;"/>
    <line x1="122.4252" y1="210.3025" x2="122.4252" y2="220.2097" style="fill: none; stroke: #000; stroke-dasharray: 7.9258 3.9629; stroke-miterlimit: 10;"/>
    <line x1="122.4252" y1="222.1911" x2="122.4252" y2="228.1911" style="fill: none; stroke: #000; stroke-miterlimit: 10;"/>
    <polygon points="118.722 225.3825 122.4252 226.9558 126.1283 225.3825 122.4252 234.1608 118.722 225.3825"/>
  </g>
  <text transform="translate(51.4396 195.8373)" style="font-family: NotoSerifSC-ExtraLight, &apos;Noto Serif SC&apos;; font-size: 18px; font-weight: 200;"><tspan x="0" y="0">实时进程请求调度</tspan></text>
  <g>
    <line x1="301.9688" y1="200.3396" x2="301.9688" y2="206.3396" style="fill: none; stroke: #000; stroke-miterlimit: 10;"/>
    <line x1="301.9688" y1="210.3025" x2="301.9688" y2="220.2097" style="fill: none; stroke: #000; stroke-dasharray: 7.9258 3.9629; stroke-miterlimit: 10;"/>
    <line x1="301.9688" y1="222.1911" x2="301.9688" y2="228.1911" style="fill: none; stroke: #000; stroke-miterlimit: 10;"/>
    <polygon points="298.2657 225.3825 301.9688 226.9558 305.6719 225.3825 301.9688 234.1608 298.2657 225.3825"/>
  </g>
  <text transform="translate(230.6189 195.8376)" style="font-family: NotoSerifSC-ExtraLight, &apos;Noto Serif SC&apos;; font-size: 18px; font-weight: 200;"><tspan x="0" y="0">当前进程运行完成</tspan></text>
  <text transform="translate(176.197 286.9907)" style="font-family: NotoSerifSC-ExtraLight, &apos;Noto Serif SC&apos;; font-size: 18px; font-weight: 200;"><tspan x="0" y="0">调度时间</tspan></text>
  <g>
    <line x1="122.4252" y1="258.5618" x2="122.4252" y2="289.3249" style="fill: none; stroke: #000; stroke-miterlimit: 10;"/>
    <line x1="301.9688" y1="258.5618" x2="301.9688" y2="289.3249" style="fill: none; stroke: #000; stroke-miterlimit: 10;"/>
  </g>
  <g>
    <line x1="174.937" y1="280.1508" x2="131.2845" y2="280.1508" style="fill: none; stroke: #000; stroke-miterlimit: 10;"/>
    <polygon points="133.266 277.2456 122.4252 280.1508 133.266 283.0561 133.266 277.2456"/>
  </g>
  <g>
    <line x1="249.1811" y1="280.1504" x2="293.1094" y2="280.1504" style="fill: none; stroke: #000; stroke-miterlimit: 10;"/>
    <polygon points="291.1279 283.0557 301.9688 280.1504 291.1279 277.2451 291.1279 283.0557"/>
  </g>
  <text transform="translate(530.4372 253.4767)" style="font-family: NotoSerifSC-ExtraLight, &apos;Noto Serif SC&apos;; font-size: 18px; font-weight: 200;"><tspan x="0" y="0">当前进程</tspan></text>
  <rect x="431.85" y="234.1606" width="269.1746" height="24.401" style="fill: none; stroke: #000; stroke-miterlimit: 10;"/>
  <text transform="translate(705.5958 253.4767)" style="font-family: NotoSerifSC-ExtraLight, &apos;Noto Serif SC&apos;; font-size: 18px; font-weight: 200;"><tspan x="0" y="0">实时进程</tspan></text>
  <rect x="701.0246" y="234.1606" width="81.1429" height="24.401" style="fill: none; stroke: #000; stroke-miterlimit: 10;"/>
  <g>
    <line x1="521.481" y1="200.3394" x2="521.481" y2="206.3394" style="fill: none; stroke: #000; stroke-miterlimit: 10;"/>
    <line x1="521.481" y1="210.3023" x2="521.481" y2="220.2095" style="fill: none; stroke: #000; stroke-dasharray: 7.9258 3.9629; stroke-miterlimit: 10;"/>
    <line x1="521.481" y1="222.1909" x2="521.481" y2="228.1909" style="fill: none; stroke: #000; stroke-miterlimit: 10;"/>
    <polygon points="517.7779 225.3823 521.481 226.9556 525.1841 225.3823 521.481 234.1606 517.7779 225.3823"/>
  </g>
  <text transform="translate(450.4954 195.8372)" style="font-family: NotoSerifSC-ExtraLight, &apos;Noto Serif SC&apos;; font-size: 18px; font-weight: 200;"><tspan x="0" y="0">实时进程请求调度</tspan></text>
  <g>
    <line x1="701.0246" y1="200.3394" x2="701.0246" y2="206.3394" style="fill: none; stroke: #000; stroke-miterlimit: 10;"/>
    <line x1="701.0246" y1="210.3023" x2="701.0246" y2="220.2095" style="fill: none; stroke: #000; stroke-dasharray: 7.9258 3.9629; stroke-miterlimit: 10;"/>
    <line x1="701.0246" y1="222.1909" x2="701.0246" y2="228.1909" style="fill: none; stroke: #000; stroke-miterlimit: 10;"/>
    <polygon points="697.3215 225.3823 701.0246 226.9556 704.7277 225.3823 701.0246 234.1606 697.3215 225.3823"/>
  </g>
  <text transform="translate(706.3878 195.8374)" style="font-family: NotoSerifSC-ExtraLight, &apos;Noto Serif SC&apos;; font-size: 18px; font-weight: 200;"><tspan x="0" y="0">实时进程抢占当前</tspan><tspan x="0" y="21.6001">进</tspan><tspan x="18" y="21.6001" style="letter-spacing: -.02em;">程</tspan><tspan x="35.6401" y="21.6001" style="letter-spacing: -.48em;">，</tspan><tspan x="45" y="21.6001">并立即执行</tspan></text>
  <text transform="translate(575.2528 286.9905)" style="font-family: NotoSerifSC-ExtraLight, &apos;Noto Serif SC&apos;; font-size: 18px; font-weight: 200;"><tspan x="0" y="0">调度时间</tspan></text>
  <g>
    <line x1="521.481" y1="258.5616" x2="521.481" y2="289.3247" style="fill: none; stroke: #000; stroke-miterlimit: 10;"/>
    <line x1="701.0246" y1="258.5616" x2="701.0246" y2="289.3247" style="fill: none; stroke: #000; stroke-miterlimit: 10;"/>
  </g>
  <g>
    <line x1="573.9929" y1="280.1506" x2="530.3404" y2="280.1506" style="fill: none; stroke: #000; stroke-miterlimit: 10;"/>
    <polygon points="532.3218 277.2454 521.481 280.1506 532.3218 283.0559 532.3218 277.2454"/>
  </g>
  <g>
    <line x1="648.2369" y1="280.1502" x2="692.1652" y2="280.1502" style="fill: none; stroke: #000; stroke-miterlimit: 10;"/>
    <polygon points="690.1838 283.0555 701.0246 280.1502 690.1838 277.2449 690.1838 283.0555"/>
  </g>
  <text transform="translate(109.2214 319.6741)" style="font-family: NotoSerifSC-ExtraLight, &apos;Noto Serif SC&apos;; font-size: 18px; font-weight: 200;"><tspan x="0" y="0" style="letter-spacing: -.023em;">（b</tspan><tspan x="28.4219" y="0" style="letter-spacing: -.477em;">）</tspan><tspan x="37.8359" y="0">非抢占优先权调度</tspan></text>
  <text transform="translate(511.7437 319.6744)" style="font-family: NotoSerifSC-ExtraLight, &apos;Noto Serif SC&apos;; font-size: 18px; font-weight: 200;"><tspan x="0" y="0" style="letter-spacing: -.025em;">(</tspan><tspan x="5.8501" y="0" style="letter-spacing: -.007em;">d</tspan><tspan x="16.8301" y="0">)立即抢占的优先权调度</tspan></text>
</svg>