<?xml version="1.0" encoding="UTF-8"?>
<svg id="_layer_1" xmlns="http://www.w3.org/2000/svg" viewBox="0 0 863.7 145.8382">
  <text transform="translate(354.0709 77.2829)" style="font-family: NotoSerifSC-ExtraLight, &apos;Noto Serif SC&apos;; font-size: 18px; font-weight: 200;"><tspan x="0" y="0">1</tspan></text>
  <rect x="296.1336" y="58.9493" width="124.1905" height="25.0159" style="fill: none; stroke: #000; stroke-miterlimit: 10;"/>
  <text transform="translate(457.3593 77.5348)" style="font-family: NotoSerifSC-ExtraLight, &apos;Noto Serif SC&apos;; font-size: 18px; font-weight: 200;"><tspan x="0" y="0">3</tspan></text>
  <rect x="420.3241" y="58.9493" width="83.6825" height="25.0159" style="fill: none; stroke: #000; stroke-miterlimit: 10;"/>
  <text transform="translate(541.0418 77.5348)" style="font-family: NotoSerifSC-ExtraLight, &apos;Noto Serif SC&apos;; font-size: 18px; font-weight: 200;"><tspan x="0" y="0">4</tspan></text>
  <rect x="504.0067" y="58.9493" width="83.6825" height="25.0159" style="fill: none; stroke: #000; stroke-miterlimit: 10;"/>
  <text transform="translate(608.8513 77.5348)" style="font-family: NotoSerifSC-ExtraLight, &apos;Noto Serif SC&apos;; font-size: 18px; font-weight: 200;"><tspan x="0" y="0">2</tspan></text>
  <rect x="587.6892" y="58.9493" width="51.9365" height="25.0159" style="fill: none; stroke: #000; stroke-miterlimit: 10;"/>
  <g>
    <line x1="270.8003" y1="83.9652" x2="702.0679" y2="83.9652" style="fill: none; stroke: #000; stroke-miterlimit: 10;"/>
    <polygon points="700.0865 86.8705 710.9273 83.9652 700.0865 81.0599 700.0865 86.8705"/>
  </g>
  <g>
    <line x1="296.1336" y1="123.1557" x2="296.1336" y2="92.9039" style="fill: none; stroke: #000; stroke-miterlimit: 10;"/>
    <polygon points="299.0389 94.8854 296.1336 84.0446 293.2284 94.8854 299.0389 94.8854"/>
  </g>
  <g>
    <line x1="373.6257" y1="123.1557" x2="373.6257" y2="92.9039" style="fill: none; stroke: #000; stroke-miterlimit: 10;"/>
    <polygon points="376.531 94.8854 373.6257 84.0446 370.7204 94.8854 376.531 94.8854"/>
  </g>
  <g>
    <line x1="398.7686" y1="123.1557" x2="398.7686" y2="92.9039" style="fill: none; stroke: #000; stroke-miterlimit: 10;"/>
    <polygon points="401.6738 94.8854 398.7686 84.0446 395.8633 94.8854 401.6738 94.8854"/>
  </g>
  <text transform="translate(291.107 143.2585)" style="font-family: NotoSerifSC-ExtraLight, &apos;Noto Serif SC&apos;; font-size: 18px; font-weight: 200;"><tspan x="0" y="0">1</tspan></text>
  <text transform="translate(368.633 143.2587)" style="font-family: NotoSerifSC-ExtraLight, &apos;Noto Serif SC&apos;; font-size: 18px; font-weight: 200;"><tspan x="0" y="0">2</tspan></text>
  <text transform="translate(394.7283 143.2585)" style="font-family: NotoSerifSC-ExtraLight, &apos;Noto Serif SC&apos;; font-size: 18px; font-weight: 200;"><tspan x="0" y="0">3</tspan></text>
  <g>
    <line x1="483.1812" y1="123.271" x2="483.1812" y2="93.0193" style="fill: none; stroke: #000; stroke-miterlimit: 10;"/>
    <polygon points="486.0865 95.0007 483.1812 84.1599 480.276 95.0007 486.0865 95.0007"/>
  </g>
  <text transform="translate(479.141 143.3738)" style="font-family: NotoSerifSC-ExtraLight, &apos;Noto Serif SC&apos;; font-size: 18px; font-weight: 200;"><tspan x="0" y="0">4</tspan></text>
  <g>
    <line x1="358.2289" y1="58.9493" x2="358.2289" y2="28.6976" style="fill: none; stroke: #000; stroke-miterlimit: 10;"/>
    <polygon points="361.1342 30.679 358.2289 19.8382 355.3236 30.679 361.1342 30.679"/>
  </g>
  <g>
    <line x1="462.1654" y1="58.9493" x2="462.1654" y2="28.6976" style="fill: none; stroke: #000; stroke-miterlimit: 10;"/>
    <polygon points="465.0706 30.679 462.1654 19.8382 459.2601 30.679 465.0706 30.679"/>
  </g>
  <g>
    <line x1="545.8479" y1="58.9493" x2="545.8479" y2="28.6976" style="fill: none; stroke: #000; stroke-miterlimit: 10;"/>
    <polygon points="548.7532 30.679 545.8479 19.8382 542.9426 30.679 548.7532 30.679"/>
  </g>
  <g>
    <line x1="613.6575" y1="58.9493" x2="613.6575" y2="28.6976" style="fill: none; stroke: #000; stroke-miterlimit: 10;"/>
    <polygon points="616.5627 30.679 613.6575 19.8382 610.7522 30.679 616.5627 30.679"/>
  </g>
  <text transform="translate(353.5232 15.8405)" style="font-family: NotoSerifSC-ExtraLight, &apos;Noto Serif SC&apos;; font-size: 18px; font-weight: 200;"><tspan x="0" y="0">1</tspan></text>
  <text transform="translate(456.8115 16.0924)" style="font-family: NotoSerifSC-ExtraLight, &apos;Noto Serif SC&apos;; font-size: 18px; font-weight: 200;"><tspan x="0" y="0">3</tspan></text>
  <text transform="translate(540.494 16.0924)" style="font-family: NotoSerifSC-ExtraLight, &apos;Noto Serif SC&apos;; font-size: 18px; font-weight: 200;"><tspan x="0" y="0">4</tspan></text>
  <text transform="translate(608.3036 16.0924)" style="font-family: NotoSerifSC-ExtraLight, &apos;Noto Serif SC&apos;; font-size: 18px; font-weight: 200;"><tspan x="0" y="0">2</tspan></text>
  <text transform="translate(140.2092 15.8403)" style="font-family: NotoSerifSC-ExtraLight, &apos;Noto Serif SC&apos;; font-size: 18px; font-weight: 200;"><tspan x="0" y="0">开始截止时间</tspan></text>
  <text transform="translate(176.2092 86.23)" style="font-family: NotoSerifSC-ExtraLight, &apos;Noto Serif SC&apos;; font-size: 18px; font-weight: 200;"><tspan x="0" y="0">任务执行</tspan></text>
  <text transform="translate(176.2093 143.2588)" style="font-family: NotoSerifSC-ExtraLight, &apos;Noto Serif SC&apos;; font-size: 18px; font-weight: 200;"><tspan x="0" y="0">任务到达</tspan></text>
  <text transform="translate(717.0646 88.6416)" style="font-family: NotoSerifSC-ExtraLight, &apos;Noto Serif SC&apos;; font-size: 18px; font-weight: 200;"><tspan x="0" y="0">t</tspan></text>
</svg>