<?xml version="1.0" encoding="UTF-8"?>
<svg id="_layer_1" xmlns="http://www.w3.org/2000/svg" viewBox="0 0 583.2812 145.5338">
  <g style="isolation: isolate;">
    <text transform="translate(213.8619 77.2827)" style="font-family: NotoSerifSC-Regular, &apos;Noto Serif SC&apos;; font-size: 18px; isolation: isolate;"><tspan x="0" y="0">1</tspan></text>
  </g>
  <rect x="155.9246" y="58.9491" width="124.1905" height="25.0159" style="fill: none; stroke: #000; stroke-miterlimit: 10;"/>
  <g style="isolation: isolate;">
    <text transform="translate(317.1503 77.5346)" style="font-family: NotoSerifSC-Regular, &apos;Noto Serif SC&apos;; font-size: 18px; isolation: isolate;"><tspan x="0" y="0">3</tspan></text>
  </g>
  <rect x="280.1151" y="58.9491" width="83.6825" height="25.0159" style="fill: none; stroke: #000; stroke-miterlimit: 10;"/>
  <g style="isolation: isolate;">
    <text transform="translate(400.8328 77.5346)" style="font-family: NotoSerifSC-Regular, &apos;Noto Serif SC&apos;; font-size: 18px; isolation: isolate;"><tspan x="0" y="0">4</tspan></text>
  </g>
  <rect x="363.7977" y="58.9491" width="83.6825" height="25.0159" style="fill: none; stroke: #000; stroke-miterlimit: 10;"/>
  <g style="isolation: isolate;">
    <text transform="translate(468.6423 77.5346)" style="font-family: NotoSerifSC-Regular, &apos;Noto Serif SC&apos;; font-size: 18px; isolation: isolate;"><tspan x="0" y="0">2</tspan></text>
  </g>
  <rect x="447.4802" y="58.9491" width="51.9365" height="25.0159" style="fill: none; stroke: #000; stroke-miterlimit: 10;"/>
  <g>
    <line x1="130.5913" y1="83.965" x2="561.8589" y2="83.965" style="fill: none; stroke: #000; stroke-miterlimit: 10;"/>
    <polygon points="559.8775 86.8703 570.7183 83.965 559.8775 81.0597 559.8775 86.8703"/>
  </g>
  <g>
    <line x1="155.9246" y1="123.1555" x2="155.9246" y2="92.9037" style="fill: none; stroke: #000; stroke-miterlimit: 10;"/>
    <polygon points="158.8299 94.8852 155.9246 84.0444 153.0194 94.8852 158.8299 94.8852"/>
  </g>
  <g>
    <line x1="233.4167" y1="123.1555" x2="233.4167" y2="92.9037" style="fill: none; stroke: #000; stroke-miterlimit: 10;"/>
    <polygon points="236.322 94.8852 233.4167 84.0444 230.5114 94.8852 236.322 94.8852"/>
  </g>
  <g>
    <line x1="258.5596" y1="123.1555" x2="258.5596" y2="92.9037" style="fill: none; stroke: #000; stroke-miterlimit: 10;"/>
    <polygon points="261.4648 94.8852 258.5596 84.0444 255.6543 94.8852 261.4648 94.8852"/>
  </g>
  <g style="isolation: isolate;">
    <text transform="translate(150.898 143.2583)" style="font-family: NotoSerifSC-Regular, &apos;Noto Serif SC&apos;; font-size: 18px; isolation: isolate;"><tspan x="0" y="0">1</tspan></text>
  </g>
  <g style="isolation: isolate;">
    <text transform="translate(228.424 143.2585)" style="font-family: NotoSerifSC-Regular, &apos;Noto Serif SC&apos;; font-size: 18px; isolation: isolate;"><tspan x="0" y="0">2</tspan></text>
  </g>
  <g style="isolation: isolate;">
    <text transform="translate(254.5193 143.2583)" style="font-family: NotoSerifSC-Regular, &apos;Noto Serif SC&apos;; font-size: 18px; isolation: isolate;"><tspan x="0" y="0">3</tspan></text>
  </g>
  <g>
    <line x1="342.9722" y1="123.2708" x2="342.9722" y2="93.0191" style="fill: none; stroke: #000; stroke-miterlimit: 10;"/>
    <polygon points="345.8775 95.0005 342.9722 84.1597 340.067 95.0005 345.8775 95.0005"/>
  </g>
  <g style="isolation: isolate;">
    <text transform="translate(338.932 143.3736)" style="font-family: NotoSerifSC-Regular, &apos;Noto Serif SC&apos;; font-size: 18px; isolation: isolate;"><tspan x="0" y="0">4</tspan></text>
  </g>
  <g>
    <line x1="218.0199" y1="58.9491" x2="218.0199" y2="28.6974" style="fill: none; stroke: #000; stroke-miterlimit: 10;"/>
    <polygon points="220.9252 30.6788 218.0199 19.838 215.1146 30.6788 220.9252 30.6788"/>
  </g>
  <g>
    <line x1="321.9564" y1="58.9491" x2="321.9564" y2="28.6974" style="fill: none; stroke: #000; stroke-miterlimit: 10;"/>
    <polygon points="324.8616 30.6788 321.9564 19.838 319.0511 30.6788 324.8616 30.6788"/>
  </g>
  <g>
    <line x1="405.6389" y1="58.9491" x2="405.6389" y2="28.6974" style="fill: none; stroke: #000; stroke-miterlimit: 10;"/>
    <polygon points="408.5442 30.6788 405.6389 19.838 402.7336 30.6788 408.5442 30.6788"/>
  </g>
  <g>
    <line x1="473.4485" y1="58.9491" x2="473.4485" y2="28.6974" style="fill: none; stroke: #000; stroke-miterlimit: 10;"/>
    <polygon points="476.3537 30.6788 473.4485 19.838 470.5432 30.6788 476.3537 30.6788"/>
  </g>
  <g style="isolation: isolate;">
    <text transform="translate(213.3142 15.8403)" style="font-family: NotoSerifSC-Regular, &apos;Noto Serif SC&apos;; font-size: 18px; isolation: isolate;"><tspan x="0" y="0">1</tspan></text>
  </g>
  <g style="isolation: isolate;">
    <text transform="translate(316.6025 16.0922)" style="font-family: NotoSerifSC-Regular, &apos;Noto Serif SC&apos;; font-size: 18px; isolation: isolate;"><tspan x="0" y="0">3</tspan></text>
  </g>
  <g style="isolation: isolate;">
    <text transform="translate(400.285 16.0922)" style="font-family: NotoSerifSC-Regular, &apos;Noto Serif SC&apos;; font-size: 18px; isolation: isolate;"><tspan x="0" y="0">4</tspan></text>
  </g>
  <g style="isolation: isolate;">
    <text transform="translate(468.0946 16.0922)" style="font-family: NotoSerifSC-Regular, &apos;Noto Serif SC&apos;; font-size: 18px; isolation: isolate;"><tspan x="0" y="0">2</tspan></text>
  </g>
  <g style="isolation: isolate;">
    <text transform="translate(.0002 15.8401)" style="font-family: NotoSerifSC-Regular, &apos;Noto Serif SC&apos;; font-size: 18px; isolation: isolate;"><tspan x="0" y="0">开始截止时间</tspan></text>
  </g>
  <g style="isolation: isolate;">
    <text transform="translate(36.0002 86.2298)" style="font-family: NotoSerifSC-Regular, &apos;Noto Serif SC&apos;; font-size: 18px; isolation: isolate;"><tspan x="0" y="0">任务执行</tspan></text>
  </g>
  <g style="isolation: isolate;">
    <text transform="translate(36.0003 143.2586)" style="font-family: NotoSerifSC-Regular, &apos;Noto Serif SC&apos;; font-size: 18px; isolation: isolate;"><tspan x="0" y="0">任务到达</tspan></text>
  </g>
  <g style="isolation: isolate;">
    <text transform="translate(576.8556 88.6414)" style="font-family: NotoSerifSC-Regular, &apos;Noto Serif SC&apos;; font-size: 18px; isolation: isolate;"><tspan x="0" y="0">t</tspan></text>
  </g>
</svg>