<?xml version="1.0" encoding="UTF-8"?>
<svg xmlns="http://www.w3.org/2000/svg" version="1.1" xmlns:xlink="http://www.w3.org/1999/xlink" viewBox="0 0 863.7 448.7">
  <defs>
    <style>
      .cls-1 {
        clip-path: url(#clippath-4);
      }

      .cls-2 {
        font-family: NotoSerifSC-Regular, 'Noto Serif SC';
        font-size: 18.3px;
      }

      .cls-3 {
        clip-path: url(#clippath-1);
      }

      .cls-4 {
        clip-path: url(#clippath-5);
      }

      .cls-5 {
        stroke: #d4d4d4;
        stroke-linecap: square;
        stroke-miterlimit: 10;
      }

      .cls-5, .cls-6 {
        fill: none;
      }

      .cls-6 {
        clip-rule: evenodd;
      }

      .cls-7, .cls-8 {
        fill-rule: evenodd;
      }

      .cls-8 {
        fill: #d4d4d4;
      }

      .cls-9 {
        clip-path: url(#clippath);
      }
    </style>
    <clipPath id="clippath">
      <polygon class="cls-6" points="50.5 165 391 165 391 405.7 50.5 405.7 50.5 165 50.5 165"/>
    </clipPath>
    <clipPath id="clippath-1">
      <polygon class="cls-6" points="50.1 164.6 391 164.6 391 405.7 50.1 405.7 50.1 164.6 50.1 164.6"/>
    </clipPath>
    <clipPath id="clippath-4">
      <polygon class="cls-6" points="453.6 165.1 794.1 165.1 794.1 405.9 453.6 405.9 453.6 165.1 453.6 165.1"/>
    </clipPath>
    <clipPath id="clippath-5">
      <polygon class="cls-6" points="453.2 164.8 794.1 164.8 794.1 405.9 453.2 405.9 453.2 164.8 453.2 164.8"/>
    </clipPath>
  </defs>
  <!-- Generator: Adobe Illustrator 28.7.1, SVG Export Plug-In . SVG Version: 1.2.0 Build 142)  -->
  <g>
    <g id="_layer_1">
      <g>
        <g class="cls-9">
          <text class="cls-2" transform="translate(57.7 186.3)"><tspan x="0" y="0">Cno</tspan></text>
          <text class="cls-2" transform="translate(132 186.3)"><tspan x="0" y="0">Cname</tspan></text>
          <text class="cls-2" transform="translate(237.9 186.3)"><tspan x="0" y="0">Cpno</tspan></text>
          <text class="cls-2" transform="translate(311.4 186.3)"><tspan x="0" y="0">Ccredit</tspan></text>
          <text class="cls-2" transform="translate(71.1 216.4)"><tspan x="0" y="0">1</tspan></text>
          <text class="cls-2" transform="translate(136.2 216.4)"><tspan x="0" y="0">数据库</tspan></text>
          <text class="cls-2" transform="translate(256.6 216.4)"><tspan x="0" y="0">5</tspan></text>
          <text class="cls-2" transform="translate(338.8 216.4)"><tspan x="0" y="0">4</tspan></text>
          <text class="cls-2" transform="translate(70.3 246.5)"><tspan x="0" y="0">2</tspan></text>
          <text class="cls-2" transform="translate(145.3 246.5)"><tspan x="0" y="0">数学</tspan></text>
          <text class="cls-2" transform="translate(338.8 246.5)"><tspan x="0" y="0">2</tspan></text>
          <text class="cls-2" transform="translate(70.3 276.5)"><tspan x="0" y="0">3</tspan></text>
          <text class="cls-2" transform="translate(127.1 276.5)"><tspan x="0" y="0">信息系统</tspan></text>
          <text class="cls-2" transform="translate(257.3 276.5)"><tspan x="0" y="0">1</tspan></text>
          <text class="cls-2" transform="translate(338.8 276.5)"><tspan x="0" y="0">4</tspan></text>
          <text class="cls-2" transform="translate(70.3 306.6)"><tspan x="0" y="0">4</tspan></text>
          <text class="cls-2" transform="translate(127.1 306.6)"><tspan x="0" y="0">操作系统</tspan></text>
          <text class="cls-2" transform="translate(256.6 306.6)"><tspan x="0" y="0">6</tspan></text>
          <text class="cls-2" transform="translate(338.8 306.6)"><tspan x="0" y="0">3</tspan></text>
          <text class="cls-2" transform="translate(70.3 336.7)"><tspan x="0" y="0">5</tspan></text>
          <text class="cls-2" transform="translate(127.1 336.7)"><tspan x="0" y="0">数据结构</tspan></text>
          <text class="cls-2" transform="translate(256.6 336.7)"><tspan x="0" y="0">7</tspan></text>
          <text class="cls-2" transform="translate(338.8 336.7)"><tspan x="0" y="0">4</tspan></text>
          <text class="cls-2" transform="translate(70.3 366.8)"><tspan x="0" y="0">6</tspan></text>
          <text class="cls-2" transform="translate(127.1 366.8)"><tspan x="0" y="0">数据处理</tspan></text>
          <text class="cls-2" transform="translate(338.8 366.8)"><tspan x="0" y="0">2</tspan></text>
          <text class="cls-2" transform="translate(70.7 396.9)"><tspan x="0" y="0">7</tspan></text>
          <text class="cls-2" transform="translate(109.2 396.9)"><tspan x="0" y="0">PASCAL语言</tspan></text>
          <text class="cls-2" transform="translate(256.6 396.9)"><tspan x="0" y="0">6</tspan></text>
          <text class="cls-2" transform="translate(338.8 396.9)"><tspan x="0" y="0">4</tspan></text>
        </g>
        <g class="cls-3">
          <line class="cls-5" x1="50.1" y1="164.6" x2="50.1" y2="164.2"/>
          <polyline class="cls-8" points="50.1 164.6 50.1 164.2 50.5 164.2 50.5 164.6 50.1 164.6"/>
          <line class="cls-5" x1="100.4" y1="164.6" x2="100.4" y2="164.2"/>
          <polyline class="cls-8" points="100.4 164.6 100.4 164.2 100.8 164.2 100.8 164.6 100.4 164.6"/>
          <line class="cls-5" x1="226.1" y1="164.6" x2="226.1" y2="164.2"/>
          <polyline class="cls-8" points="226.1 164.6 226.1 164.2 226.5 164.2 226.5 164.6 226.1 164.6"/>
          <line class="cls-5" x1="296.6" y1="164.6" x2="296.6" y2="164.2"/>
          <polyline class="cls-8" points="296.6 164.6 296.6 164.2 297 164.2 297 164.6 296.6 164.6"/>
          <line class="cls-5" x1="390.7" y1="164.6" x2="390.7" y2="164.2"/>
          <polyline class="cls-8" points="390.7 164.6 390.7 164.2 391 164.2 391 164.6 390.7 164.6"/>
          <polyline class="cls-7" points="49.7 164.2 49.7 406.1 50.9 406.1 50.9 164.2 49.7 164.2"/>
          <polyline class="cls-7" points="100 165.3 100 406.1 101.2 406.1 101.2 165.3 100 165.3"/>
          <polyline class="cls-7" points="225.7 165.3 225.7 406.1 226.9 406.1 226.9 165.3 225.7 165.3"/>
          <polyline class="cls-7" points="296.2 165.3 296.2 406.1 297.3 406.1 297.3 165.3 296.2 165.3"/>
          <polyline class="cls-7" points="390.3 165.3 390.3 406.1 391.4 406.1 391.4 165.3 390.3 165.3"/>
          <polyline class="cls-7" points="50.9 164.2 50.9 165.3 391.4 165.3 391.4 164.2 50.9 164.2"/>
          <polyline class="cls-7" points="50.9 194.3 50.9 195.4 391.4 195.4 391.4 194.3 50.9 194.3"/>
          <polyline class="cls-7" points="50.9 224.4 50.9 225.5 391.4 225.5 391.4 224.4 50.9 224.4"/>
          <polyline class="cls-7" points="50.9 254.5 50.9 255.6 391.4 255.6 391.4 254.5 50.9 254.5"/>
          <polyline class="cls-7" points="50.9 284.6 50.9 285.7 391.4 285.7 391.4 284.6 50.9 284.6"/>
          <polyline class="cls-7" points="50.9 314.6 50.9 315.8 391.4 315.8 391.4 314.6 50.9 314.6"/>
          <polyline class="cls-7" points="50.9 344.7 50.9 345.9 391.4 345.9 391.4 344.7 50.9 344.7"/>
          <polyline class="cls-7" points="50.9 374.8 50.9 376 391.4 376 391.4 374.8 50.9 374.8"/>
          <polyline class="cls-7" points="50.9 404.9 50.9 406.1 391.4 406.1 391.4 404.9 50.9 404.9"/>
        </g>
      </g>
      <g>
        <g class="cls-1">
          <text class="cls-2" transform="translate(460.8 186.5)"><tspan x="0" y="0">Cno</tspan></text>
          <text class="cls-2" transform="translate(535.1 186.5)"><tspan x="0" y="0">Cname</tspan></text>
          <text class="cls-2" transform="translate(641 186.5)"><tspan x="0" y="0">Cpno</tspan></text>
          <text class="cls-2" transform="translate(714.5 186.5)"><tspan x="0" y="0">Ccredit</tspan></text>
          <text class="cls-2" transform="translate(474.1 216.6)"><tspan x="0" y="0">1</tspan></text>
          <text class="cls-2" transform="translate(539.3 216.6)"><tspan x="0" y="0">数据库</tspan></text>
          <text class="cls-2" transform="translate(659.6 216.6)"><tspan x="0" y="0">5</tspan></text>
          <text class="cls-2" transform="translate(741.9 216.6)"><tspan x="0" y="0">4</tspan></text>
          <text class="cls-2" transform="translate(473.4 246.7)"><tspan x="0" y="0">2</tspan></text>
          <text class="cls-2" transform="translate(548.4 246.7)"><tspan x="0" y="0">数学</tspan></text>
          <text class="cls-2" transform="translate(741.9 246.7)"><tspan x="0" y="0">2</tspan></text>
          <text class="cls-2" transform="translate(473.4 276.7)"><tspan x="0" y="0">3</tspan></text>
          <text class="cls-2" transform="translate(530.1 276.7)"><tspan x="0" y="0">信息系统</tspan></text>
          <text class="cls-2" transform="translate(660.4 276.7)"><tspan x="0" y="0">1</tspan></text>
          <text class="cls-2" transform="translate(741.9 276.7)"><tspan x="0" y="0">4</tspan></text>
          <text class="cls-2" transform="translate(473.4 306.8)"><tspan x="0" y="0">4</tspan></text>
          <text class="cls-2" transform="translate(530.1 306.8)"><tspan x="0" y="0">操作系统</tspan></text>
          <text class="cls-2" transform="translate(659.6 306.8)"><tspan x="0" y="0">6</tspan></text>
          <text class="cls-2" transform="translate(741.9 306.8)"><tspan x="0" y="0">3</tspan></text>
          <text class="cls-2" transform="translate(473.4 336.9)"><tspan x="0" y="0">5</tspan></text>
          <text class="cls-2" transform="translate(530.1 336.9)"><tspan x="0" y="0">数据结构</tspan></text>
          <text class="cls-2" transform="translate(659.6 336.9)"><tspan x="0" y="0">7</tspan></text>
          <text class="cls-2" transform="translate(741.9 336.9)"><tspan x="0" y="0">4</tspan></text>
          <text class="cls-2" transform="translate(473.4 367)"><tspan x="0" y="0">6</tspan></text>
          <text class="cls-2" transform="translate(530.1 367)"><tspan x="0" y="0">数据处理</tspan></text>
          <text class="cls-2" transform="translate(741.9 367)"><tspan x="0" y="0">2</tspan></text>
          <text class="cls-2" transform="translate(473.8 397.1)"><tspan x="0" y="0">7</tspan></text>
          <text class="cls-2" transform="translate(512.2 397.1)"><tspan x="0" y="0">PASCAL语言</tspan></text>
          <text class="cls-2" transform="translate(659.6 397.1)"><tspan x="0" y="0">6</tspan></text>
          <text class="cls-2" transform="translate(741.9 397.1)"><tspan x="0" y="0">4</tspan></text>
        </g>
        <g class="cls-4">
          <line class="cls-5" x1="453.2" y1="164.8" x2="453.2" y2="164.4"/>
          <polyline class="cls-8" points="453.2 164.8 453.2 164.4 453.6 164.4 453.6 164.8 453.2 164.8"/>
          <line class="cls-5" x1="503.5" y1="164.8" x2="503.5" y2="164.4"/>
          <polyline class="cls-8" points="503.5 164.8 503.5 164.4 503.9 164.4 503.9 164.8 503.5 164.8"/>
          <line class="cls-5" x1="629.2" y1="164.8" x2="629.2" y2="164.4"/>
          <polyline class="cls-8" points="629.2 164.8 629.2 164.4 629.5 164.4 629.5 164.8 629.2 164.8"/>
          <line class="cls-5" x1="699.6" y1="164.8" x2="699.6" y2="164.4"/>
          <polyline class="cls-8" points="699.6 164.8 699.6 164.4 700 164.4 700 164.8 699.6 164.8"/>
          <line class="cls-5" x1="793.7" y1="164.8" x2="793.7" y2="164.4"/>
          <polyline class="cls-8" points="793.7 164.8 793.7 164.4 794.1 164.4 794.1 164.8 793.7 164.8"/>
          <polyline class="cls-7" points="452.8 164.4 452.8 406.3 454 406.3 454 164.4 452.8 164.4"/>
          <polyline class="cls-7" points="503.1 165.5 503.1 406.3 504.2 406.3 504.2 165.5 503.1 165.5"/>
          <polyline class="cls-7" points="628.8 165.5 628.8 406.3 629.9 406.3 629.9 165.5 628.8 165.5"/>
          <polyline class="cls-7" points="699.3 165.5 699.3 406.3 700.4 406.3 700.4 165.5 699.3 165.5"/>
          <polyline class="cls-7" points="793.3 165.5 793.3 406.3 794.5 406.3 794.5 165.5 793.3 165.5"/>
          <polyline class="cls-7" points="454 164.4 454 165.5 794.5 165.5 794.5 164.4 454 164.4"/>
          <polyline class="cls-7" points="454 194.5 454 195.6 794.5 195.6 794.5 194.5 454 194.5"/>
          <polyline class="cls-7" points="454 224.6 454 225.7 794.5 225.7 794.5 224.6 454 224.6"/>
          <polyline class="cls-7" points="454 254.7 454 255.8 794.5 255.8 794.5 254.7 454 254.7"/>
          <polyline class="cls-7" points="454 284.7 454 285.9 794.5 285.9 794.5 284.7 454 284.7"/>
          <polyline class="cls-7" points="454 314.8 454 316 794.5 316 794.5 314.8 454 314.8"/>
          <polyline class="cls-7" points="454 344.9 454 346.1 794.5 346.1 794.5 344.9 454 344.9"/>
          <polyline class="cls-7" points="454 375 454 376.2 794.5 376.2 794.5 375 454 375"/>
          <polyline class="cls-7" points="454 405.1 454 406.3 794.5 406.3 794.5 405.1 454 405.1"/>
        </g>
      </g>
    </g>
  </g>
</svg>