<?xml version="1.0" encoding="UTF-8"?>
<svg id="_layer_1" xmlns="http://www.w3.org/2000/svg" viewBox="0 0 863.7 193.9048">
  <text transform="translate(323.8505 42.5875)" style="font-family: NotoSerifSC-ExtraLight, &apos;Noto Serif SC&apos;; font-size: 18px; font-weight: 200;"><tspan x="0" y="0">数据</tspan><tspan x="36" y="0" style="letter-spacing: -.477em;">库</tspan><tspan x="45.4141" y="0" style="letter-spacing: -.023em;">（</tspan><tspan x="63" y="0">有的系统称为目</tspan><tspan x="189" y="0" style="letter-spacing: -.023em;">录</tspan><tspan x="206.5864" y="0" style="letter-spacing: -.4771em;">）</tspan></text>
  <text transform="translate(413.8498 104.0048)" style="font-family: NotoSerifSC-ExtraLight, &apos;Noto Serif SC&apos;; font-size: 18px; font-weight: 200;"><tspan x="0" y="0">模式</tspan></text>
  <text transform="translate(355.3502 165.4228)" style="font-family: NotoSerifSC-ExtraLight, &apos;Noto Serif SC&apos;; font-size: 18px; font-weight: 200;"><tspan x="0" y="0">表以及视</tspan><tspan x="72" y="0" style="letter-spacing: -.019em;">图</tspan><tspan x="89.6582" y="0" style="letter-spacing: -.481em;">、</tspan><tspan x="99" y="0">索引等</tspan></text>
  <polygon points="431.85 85.0165 421.0881 74.2546 424.7071 74.2546 424.7071 50.6356 431.85 50.6356 438.9929 50.6356 438.9929 74.2546 442.6119 74.2546 431.85 85.0165" style="fill: none; stroke: #000; stroke-miterlimit: 10;"/>
  <polygon points="431.85 146.434 421.0881 135.6721 424.7071 135.6721 424.7071 112.053 431.85 112.053 438.9929 112.053 438.9929 135.6721 442.6119 135.6721 431.85 146.434" style="fill: none; stroke: #000; stroke-miterlimit: 10;"/>
  <rect x="261.9452" y="5.3968" width="339.8095" height="183.1746" style="fill: none; stroke: #000; stroke-miterlimit: 10;"/>
</svg>