<?xml version="1.0" encoding="UTF-8"?>
<svg id="_图层_1" xmlns="http://www.w3.org/2000/svg" viewBox="0 0 863.7 428.1905">
  <g>
    <text transform="translate(41.5814 187.9709)" style="font-family: NotoSerifSC-Regular, &apos;Noto Serif SC&apos;; font-size: 18px;"><tspan x="0" y="0">1985年美国国防部</tspan><tspan x="19.7993" y="21.6001">可信计算机系</tspan><tspan x="28.7993" y="43.1997">统评估准则</tspan><tspan x="37.9434" y="64.8003">(</tspan><tspan x="44.4951" y="64.8003" style="letter-spacing: -.007em;">T</tspan><tspan x="56.2314" y="64.8003">C</tspan><tspan x="68.6694" y="64.8003" style="letter-spacing: -.002em;">S</tspan><tspan x="78.8394" y="64.8003" style="letter-spacing: -.003em;">E</tspan><tspan x="90.521" y="64.8003" style="letter-spacing: .008em;">C</tspan><tspan x="103.103" y="64.8003">)</tspan></text>
    <rect x="23" y="160.285" width="184.7619" height="105.1429" rx="12" ry="12" style="fill: none; stroke: #000; stroke-miterlimit: 10;"/>
  </g>
  <g>
    <text transform="translate(315.4023 187.9709)" style="font-family: NotoSerifSC-Regular, &apos;Noto Serif SC&apos;; font-size: 18px;"><tspan x="0" y="0">1991年</tspan><tspan x="-34.2007" y="21.6001">欧洲信息技术安</tspan><tspan x="-16.2007" y="43.1997">全评估准则</tspan><tspan x="-4.5366" y="64.8003">(I</tspan><tspan x="9.3052" y="64.8003" style="letter-spacing: -.001em;">T</tspan><tspan x="21.1494" y="64.8003" style="letter-spacing: -.002em;">S</tspan><tspan x="31.3193" y="64.8003" style="letter-spacing: -.003em;">E</tspan><tspan x="43.001" y="64.8003" style="letter-spacing: .008em;">C</tspan><tspan x="55.583" y="64.8003">)</tspan></text>
    <rect x="269.2682" y="160.2849" width="150.2857" height="105.1429" rx="12" ry="12" style="fill: none; stroke: #000; stroke-miterlimit: 10;"/>
  </g>
  <g>
    <text transform="translate(506.4405 177.1714)" style="font-family: NotoSerifSC-Regular, &apos;Noto Serif SC&apos;; font-size: 18px;"><tspan x="0" y="0">通用准则</tspan><tspan x="17.1362" y="21.6001" style="letter-spacing: -.021em;">(</tspan><tspan x="23.3101" y="21.6001" style="letter-spacing: -.001em;">C</tspan><tspan x="35.7305" y="21.6001" style="letter-spacing: .008em;">C</tspan><tspan x="48.312" y="21.6001" style="letter-spacing: 0em;">)</tspan><tspan x="-14.3721" y="43.1997">V1.0 1996年</tspan><tspan x="-14.3721" y="64.8003">V2.0 1998年</tspan><tspan x="-14.3721" y="86.3999">V2.1 1999年</tspan></text>
    <rect x="478.8697" y="149.4855" width="129.1429" height="131.5734" rx="12" ry="12" style="fill: none; stroke: #000; stroke-miterlimit: 10;"/>
  </g>
  <g>
    <text transform="translate(676.4606 198.7712)" style="font-family: NotoSerifSC-Regular, &apos;Noto Serif SC&apos;; font-size: 18px;"><tspan x="0" y="0">1999年</tspan><tspan x="57.5991" y="0" style="letter-spacing: -.001em;">C</tspan><tspan x="70.019" y="0">C V2.1</tspan><tspan x="8.8013" y="21.6001">成为国际标准</tspan><tspan x="13.5" y="43.1997">(I</tspan><tspan x="27.3418" y="43.1997" style="letter-spacing: .005em;">S</tspan><tspan x="37.6377" y="43.1997" style="letter-spacing: 0em;">O 15408)</tspan></text>
    <rect x="664.3284" y="171.0853" width="150.2857" height="85.6462" rx="12" ry="12" style="fill: none; stroke: #000; stroke-miterlimit: 10;"/>
  </g>
  <g>
    <text transform="translate(279.4023 31.5716)" style="font-family: NotoSerifSC-Regular, &apos;Noto Serif SC&apos;; font-size: 18px;"><tspan x="0" y="0">1993年加拿大可</tspan><tspan x="10.7993" y="21.6001">信计算机产品</tspan><tspan x="28.7993" y="43.1997">评估准则</tspan><tspan x="22.3193" y="64.8003" style="letter-spacing: -.021em;">(</tspan><tspan x="28.4932" y="64.8003">C</tspan><tspan x="40.9312" y="64.8003" style="letter-spacing: -.007em;">T</tspan><tspan x="52.6675" y="64.8003">C</tspan><tspan x="65.1055" y="64.8003" style="letter-spacing: -.01em;">P</tspan><tspan x="76.4634" y="64.8003" style="letter-spacing: -.003em;">E</tspan><tspan x="88.1455" y="64.8003" style="letter-spacing: .008em;">C</tspan><tspan x="100.7271" y="64.8003" style="letter-spacing: 0em;">)</tspan></text>
    <rect x="269.2682" y="3.8856" width="150.2857" height="105.1429" rx="12" ry="12" style="fill: none; stroke: #000; stroke-miterlimit: 10;"/>
  </g>
  <g>
    <text transform="translate(315.4023 344.3703)" style="font-family: NotoSerifSC-Regular, &apos;Noto Serif SC&apos;; font-size: 18px;"><tspan x="0" y="0">1993年</tspan><tspan x="-25.2007" y="21.6001">美国信息技术</tspan><tspan x="-25.2007" y="43.1997">安全联邦标准</tspan><tspan x="-7.6328" y="64.8003">(</tspan><tspan x="-1.0811" y="64.8003" style="letter-spacing: -.008em;">F</tspan><tspan x="10.0972" y="64.8003" style="letter-spacing: .008em;">C</tspan><tspan x="22.6792" y="64.8003">)草案</tspan></text>
    <rect x="269.2682" y="316.6844" width="150.2857" height="105.1429" rx="12" ry="12" style="fill: none; stroke: #000; stroke-miterlimit: 10;"/>
  </g>
  <g>
    <line x1="207.7619" y1="215.925" x2="263.2985" y2="215.925" style="fill: none; stroke: #000; stroke-miterlimit: 10;"/>
    <polygon points="260.4899 219.6282 262.0631 215.925 260.4899 212.2219 269.2682 215.925 260.4899 219.6282"/>
  </g>
  <g>
    <path d="M419.5539,215.925c6.0304.5105,39.5251.2147,53.348.0677" style="fill: none; stroke: #000; stroke-miterlimit: 10;"/>
    <polygon points="470.1252 219.7074 471.6649 215.9902 470.0582 212.3015 478.8697 215.925 470.1252 219.7074"/>
  </g>
  <g>
    <line x1="608.0126" y1="218.2857" x2="658.3586" y2="218.2857" style="fill: none; stroke: #000; stroke-miterlimit: 10;"/>
    <polygon points="655.55 221.9888 657.1233 218.2857 655.55 214.5826 664.3284 218.2857 655.55 221.9888"/>
  </g>
  <g>
    <line x1="344.411" y1="161.3311" x2="344.411" y2="114.9982" style="fill: none; stroke: #000; stroke-miterlimit: 10;"/>
    <polygon points="348.1142 117.8068 344.411 116.2336 340.7079 117.8068 344.411 109.0285 348.1142 117.8068"/>
  </g>
  <g>
    <line x1="344.411" y1="264.9571" x2="344.411" y2="310.7146" style="fill: none; stroke: #000; stroke-miterlimit: 10;"/>
    <polygon points="340.7079 307.906 344.411 309.4793 348.1142 307.906 344.411 316.6844 340.7079 307.906"/>
  </g>
  <g>
    <polyline points="115.381 160.2849 115.381 56.4571 263.2985 56.4571" style="fill: none; stroke: #000; stroke-miterlimit: 10;"/>
    <polygon points="260.4899 60.1602 262.0631 56.4571 260.4899 52.7539 269.2682 56.4571 260.4899 60.1602"/>
  </g>
  <g>
    <polyline points="419.5539 56.4571 543.4411 56.4571 543.4411 143.5158" style="fill: none; stroke: #000; stroke-miterlimit: 10;"/>
    <polygon points="539.738 140.7072 543.4411 142.2804 547.1443 140.7072 543.4411 149.4855 539.738 140.7072"/>
  </g>
  <g>
    <polyline points="115.381 264.9571 115.381 369.2558 263.2985 369.2558" style="fill: none; stroke: #000; stroke-miterlimit: 10;"/>
    <polygon points="260.4899 372.9589 262.0631 369.2558 260.4899 365.5527 269.2682 369.2558 260.4899 372.9589"/>
  </g>
  <g>
    <polyline points="419.5539 369.2558 543.4411 369.2558 543.4411 287.0286" style="fill: none; stroke: #000; stroke-miterlimit: 10;"/>
    <polygon points="547.1443 289.8372 543.4411 288.264 539.738 289.8372 543.4411 281.0589 547.1443 289.8372"/>
  </g>
</svg>