<?xml version="1.0" encoding="UTF-8"?>
<svg id="_图层_1" xmlns="http://www.w3.org/2000/svg" viewBox="0 0 801.5238 428.1905">
  <g>
    <g style="isolation: isolate;">
      <text transform="translate(22.629 187.9709)" style="font-family: NotoSerifSC-Regular, &apos;Noto Serif SC&apos;; font-size: 18px; isolation: isolate;"><tspan x="0" y="0">1985年美国国防部</tspan></text>
      <text transform="translate(42.4283 209.571)" style="font-family: NotoSerifSC-Regular, &apos;Noto Serif SC&apos;; font-size: 18px; isolation: isolate;"><tspan x="0" y="0">可信计算机系</tspan></text>
      <text transform="translate(51.4283 231.1706)" style="font-family: NotoSerifSC-Regular, &apos;Noto Serif SC&apos;; font-size: 18px; isolation: isolate;"><tspan x="0" y="0">统评估准则</tspan></text>
      <text transform="translate(60.5724 252.7712)" style="font-family: NotoSerifSC-Regular, &apos;Noto Serif SC&apos;; font-size: 18px; isolation: isolate;"><tspan x="0" y="0">(</tspan></text>
      <text transform="translate(67.1241 252.7712)" style="font-family: NotoSerifSC-Regular, &apos;Noto Serif SC&apos;; font-size: 18px; isolation: isolate; letter-spacing: -.007em;"><tspan x="0" y="0">T</tspan></text>
      <text transform="translate(78.8604 252.7712)" style="font-family: NotoSerifSC-Regular, &apos;Noto Serif SC&apos;; font-size: 18px; isolation: isolate;"><tspan x="0" y="0">C</tspan></text>
      <text transform="translate(91.2984 252.7712)" style="font-family: NotoSerifSC-Regular, &apos;Noto Serif SC&apos;; font-size: 18px; isolation: isolate; letter-spacing: -.002em;"><tspan x="0" y="0">S</tspan></text>
      <text transform="translate(101.4684 252.7712)" style="font-family: NotoSerifSC-Regular, &apos;Noto Serif SC&apos;; font-size: 18px; isolation: isolate; letter-spacing: -.003em;"><tspan x="0" y="0">E</tspan></text>
      <text transform="translate(113.15 252.7712)" style="font-family: NotoSerifSC-Regular, &apos;Noto Serif SC&apos;; font-size: 18px; isolation: isolate; letter-spacing: .008em;"><tspan x="0" y="0">C</tspan></text>
      <text transform="translate(125.732 252.7712)" style="font-family: NotoSerifSC-Regular, &apos;Noto Serif SC&apos;; font-size: 18px; isolation: isolate;"><tspan x="0" y="0">)</tspan></text>
    </g>
    <rect x="4.0476" y="160.285" width="184.7619" height="105.1429" rx="12" ry="12" style="fill: none; stroke: #000; stroke-miterlimit: 10;"/>
  </g>
  <g>
    <g style="isolation: isolate;">
      <text transform="translate(296.4499 187.9709)" style="font-family: NotoSerifSC-Regular, &apos;Noto Serif SC&apos;; font-size: 18px; isolation: isolate;"><tspan x="0" y="0">1991年</tspan></text>
      <text transform="translate(262.2492 209.571)" style="font-family: NotoSerifSC-Regular, &apos;Noto Serif SC&apos;; font-size: 18px; isolation: isolate;"><tspan x="0" y="0">欧洲信息技术安</tspan></text>
      <text transform="translate(280.2492 231.1706)" style="font-family: NotoSerifSC-Regular, &apos;Noto Serif SC&apos;; font-size: 18px; isolation: isolate;"><tspan x="0" y="0">全评估准则</tspan></text>
      <text transform="translate(291.9133 252.7712)" style="font-family: NotoSerifSC-Regular, &apos;Noto Serif SC&apos;; font-size: 18px; isolation: isolate;"><tspan x="0" y="0">(I</tspan></text>
      <text transform="translate(305.7551 252.7712)" style="font-family: NotoSerifSC-Regular, &apos;Noto Serif SC&apos;; font-size: 18px; isolation: isolate; letter-spacing: -.001em;"><tspan x="0" y="0">T</tspan></text>
      <text transform="translate(317.5993 252.7712)" style="font-family: NotoSerifSC-Regular, &apos;Noto Serif SC&apos;; font-size: 18px; isolation: isolate; letter-spacing: -.002em;"><tspan x="0" y="0">S</tspan></text>
      <text transform="translate(327.7692 252.7712)" style="font-family: NotoSerifSC-Regular, &apos;Noto Serif SC&apos;; font-size: 18px; isolation: isolate; letter-spacing: -.003em;"><tspan x="0" y="0">E</tspan></text>
      <text transform="translate(339.4509 252.7712)" style="font-family: NotoSerifSC-Regular, &apos;Noto Serif SC&apos;; font-size: 18px; isolation: isolate; letter-spacing: .008em;"><tspan x="0" y="0">C</tspan></text>
      <text transform="translate(352.0329 252.7712)" style="font-family: NotoSerifSC-Regular, &apos;Noto Serif SC&apos;; font-size: 18px; isolation: isolate;"><tspan x="0" y="0">)</tspan></text>
    </g>
    <rect x="250.3158" y="160.2849" width="150.2857" height="105.1429" rx="12" ry="12" style="fill: none; stroke: #000; stroke-miterlimit: 10;"/>
  </g>
  <g>
    <g style="isolation: isolate;">
      <text transform="translate(487.4881 177.1714)" style="font-family: NotoSerifSC-Regular, &apos;Noto Serif SC&apos;; font-size: 18px; isolation: isolate;"><tspan x="0" y="0">通用准则</tspan></text>
      <text transform="translate(504.6243 198.7715)" style="font-family: NotoSerifSC-Regular, &apos;Noto Serif SC&apos;; font-size: 18px; isolation: isolate; letter-spacing: -.021em;"><tspan x="0" y="0">(</tspan></text>
      <text transform="translate(510.7982 198.7715)" style="font-family: NotoSerifSC-Regular, &apos;Noto Serif SC&apos;; font-size: 18px; isolation: isolate; letter-spacing: -.001em;"><tspan x="0" y="0">C</tspan></text>
      <text transform="translate(523.2186 198.7715)" style="font-family: NotoSerifSC-Regular, &apos;Noto Serif SC&apos;; font-size: 18px; isolation: isolate; letter-spacing: .008em;"><tspan x="0" y="0">C</tspan></text>
      <text transform="translate(535.8001 198.7715)" style="font-family: NotoSerifSC-Regular, &apos;Noto Serif SC&apos;; font-size: 18px; isolation: isolate;"><tspan x="0" y="0">)</tspan></text>
      <text transform="translate(473.116 220.3711)" style="font-family: NotoSerifSC-Regular, &apos;Noto Serif SC&apos;; font-size: 18px; isolation: isolate;"><tspan x="0" y="0">V1.0 1996年</tspan></text>
      <text transform="translate(473.116 241.9717)" style="font-family: NotoSerifSC-Regular, &apos;Noto Serif SC&apos;; font-size: 18px; isolation: isolate;"><tspan x="0" y="0">V2.0 1998年</tspan></text>
      <text transform="translate(473.116 263.5713)" style="font-family: NotoSerifSC-Regular, &apos;Noto Serif SC&apos;; font-size: 18px; isolation: isolate;"><tspan x="0" y="0">V2.1 1999年</tspan></text>
    </g>
    <rect x="459.9173" y="149.4855" width="129.1429" height="131.5734" rx="12" ry="12" style="fill: none; stroke: #000; stroke-miterlimit: 10;"/>
  </g>
  <g>
    <g style="isolation: isolate;">
      <text transform="translate(657.5082 198.7712)" style="font-family: NotoSerifSC-Regular, &apos;Noto Serif SC&apos;; font-size: 18px; isolation: isolate;"><tspan x="0" y="0">1999年</tspan></text>
      <text transform="translate(715.1073 198.7712)" style="font-family: NotoSerifSC-Regular, &apos;Noto Serif SC&apos;; font-size: 18px; isolation: isolate; letter-spacing: -.001em;"><tspan x="0" y="0">C</tspan></text>
      <text transform="translate(727.5272 198.7712)" style="font-family: NotoSerifSC-Regular, &apos;Noto Serif SC&apos;; font-size: 18px; isolation: isolate;"><tspan x="0" y="0">C V2.1</tspan></text>
      <text transform="translate(666.3095 220.3713)" style="font-family: NotoSerifSC-Regular, &apos;Noto Serif SC&apos;; font-size: 18px; isolation: isolate;"><tspan x="0" y="0">成为国际标准</tspan></text>
      <text transform="translate(671.0082 241.9709)" style="font-family: NotoSerifSC-Regular, &apos;Noto Serif SC&apos;; font-size: 18px; isolation: isolate;"><tspan x="0" y="0">(I</tspan></text>
      <text transform="translate(684.85 241.9709)" style="font-family: NotoSerifSC-Regular, &apos;Noto Serif SC&apos;; font-size: 18px; isolation: isolate; letter-spacing: .004em;"><tspan x="0" y="0">S</tspan></text>
      <text transform="translate(695.1459 241.9709)" style="font-family: NotoSerifSC-Regular, &apos;Noto Serif SC&apos;; font-size: 18px; isolation: isolate;"><tspan x="0" y="0">O 15408)</tspan></text>
    </g>
    <rect x="645.376" y="171.0853" width="150.2857" height="85.6462" rx="12" ry="12" style="fill: none; stroke: #000; stroke-miterlimit: 10;"/>
  </g>
  <g>
    <g style="isolation: isolate;">
      <text transform="translate(260.4499 31.5716)" style="font-family: NotoSerifSC-Regular, &apos;Noto Serif SC&apos;; font-size: 18px; isolation: isolate;"><tspan x="0" y="0">1993年加拿大可</tspan></text>
      <text transform="translate(271.2492 53.1717)" style="font-family: NotoSerifSC-Regular, &apos;Noto Serif SC&apos;; font-size: 18px; isolation: isolate;"><tspan x="0" y="0">信计算机产品</tspan></text>
      <text transform="translate(289.2492 74.7713)" style="font-family: NotoSerifSC-Regular, &apos;Noto Serif SC&apos;; font-size: 18px; isolation: isolate;"><tspan x="0" y="0">评估准则</tspan></text>
      <text transform="translate(282.7692 96.3719)" style="font-family: NotoSerifSC-Regular, &apos;Noto Serif SC&apos;; font-size: 18px; isolation: isolate; letter-spacing: -.021em;"><tspan x="0" y="0">(</tspan></text>
      <text transform="translate(288.9431 96.3719)" style="font-family: NotoSerifSC-Regular, &apos;Noto Serif SC&apos;; font-size: 18px; isolation: isolate;"><tspan x="0" y="0">C</tspan></text>
      <text transform="translate(301.3811 96.3719)" style="font-family: NotoSerifSC-Regular, &apos;Noto Serif SC&apos;; font-size: 18px; isolation: isolate; letter-spacing: -.007em;"><tspan x="0" y="0">T</tspan></text>
      <text transform="translate(313.1174 96.3719)" style="font-family: NotoSerifSC-Regular, &apos;Noto Serif SC&apos;; font-size: 18px; isolation: isolate;"><tspan x="0" y="0">C</tspan></text>
      <text transform="translate(325.5554 96.3719)" style="font-family: NotoSerifSC-Regular, &apos;Noto Serif SC&apos;; font-size: 18px; isolation: isolate; letter-spacing: -.009em;"><tspan x="0" y="0">P</tspan></text>
      <text transform="translate(336.9133 96.3719)" style="font-family: NotoSerifSC-Regular, &apos;Noto Serif SC&apos;; font-size: 18px; isolation: isolate; letter-spacing: -.003em;"><tspan x="0" y="0">E</tspan></text>
      <text transform="translate(348.5954 96.3719)" style="font-family: NotoSerifSC-Regular, &apos;Noto Serif SC&apos;; font-size: 18px; isolation: isolate; letter-spacing: .008em;"><tspan x="0" y="0">C</tspan></text>
      <text transform="translate(361.177 96.3719)" style="font-family: NotoSerifSC-Regular, &apos;Noto Serif SC&apos;; font-size: 18px; isolation: isolate;"><tspan x="0" y="0">)</tspan></text>
    </g>
    <rect x="250.3158" y="3.8856" width="150.2857" height="105.1429" rx="12" ry="12" style="fill: none; stroke: #000; stroke-miterlimit: 10;"/>
  </g>
  <g>
    <g style="isolation: isolate;">
      <text transform="translate(296.4499 344.3703)" style="font-family: NotoSerifSC-Regular, &apos;Noto Serif SC&apos;; font-size: 18px; isolation: isolate;"><tspan x="0" y="0">1993年</tspan></text>
      <text transform="translate(271.2492 365.9704)" style="font-family: NotoSerifSC-Regular, &apos;Noto Serif SC&apos;; font-size: 18px; isolation: isolate;"><tspan x="0" y="0">美国信息技术</tspan></text>
      <text transform="translate(271.2492 387.57)" style="font-family: NotoSerifSC-Regular, &apos;Noto Serif SC&apos;; font-size: 18px; isolation: isolate;"><tspan x="0" y="0">安全联邦标准</tspan></text>
      <text transform="translate(288.8171 409.1706)" style="font-family: NotoSerifSC-Regular, &apos;Noto Serif SC&apos;; font-size: 18px; isolation: isolate;"><tspan x="0" y="0">(</tspan></text>
      <text transform="translate(295.3688 409.1706)" style="font-family: NotoSerifSC-Regular, &apos;Noto Serif SC&apos;; font-size: 18px; isolation: isolate; letter-spacing: -.008em;"><tspan x="0" y="0">F</tspan></text>
      <text transform="translate(306.5471 409.1706)" style="font-family: NotoSerifSC-Regular, &apos;Noto Serif SC&apos;; font-size: 18px; isolation: isolate; letter-spacing: .008em;"><tspan x="0" y="0">C</tspan></text>
      <text transform="translate(319.1291 409.1706)" style="font-family: NotoSerifSC-Regular, &apos;Noto Serif SC&apos;; font-size: 18px; isolation: isolate;"><tspan x="0" y="0">)草案</tspan></text>
    </g>
    <rect x="250.3158" y="316.6844" width="150.2857" height="105.1429" rx="12" ry="12" style="fill: none; stroke: #000; stroke-miterlimit: 10;"/>
  </g>
  <g>
    <line x1="188.8095" y1="215.925" x2="244.3461" y2="215.925" style="fill: none; stroke: #000; stroke-miterlimit: 10;"/>
    <polygon points="241.5375 219.6282 243.1107 215.925 241.5375 212.2219 250.3158 215.925 241.5375 219.6282"/>
  </g>
  <g>
    <path d="M400.6015,215.925c6.0304.5105,39.5251.2147,53.348.0677" style="fill: none; stroke: #000; stroke-miterlimit: 10;"/>
    <polygon points="451.1728 219.7074 452.7125 215.9902 451.1058 212.3015 459.9173 215.925 451.1728 219.7074"/>
  </g>
  <g>
    <line x1="589.0602" y1="218.2857" x2="639.4062" y2="218.2857" style="fill: none; stroke: #000; stroke-miterlimit: 10;"/>
    <polygon points="636.5976 221.9888 638.1709 218.2857 636.5976 214.5826 645.376 218.2857 636.5976 221.9888"/>
  </g>
  <g>
    <line x1="325.4586" y1="161.3311" x2="325.4586" y2="114.9982" style="fill: none; stroke: #000; stroke-miterlimit: 10;"/>
    <polygon points="329.1618 117.8068 325.4586 116.2336 321.7555 117.8068 325.4586 109.0285 329.1618 117.8068"/>
  </g>
  <g>
    <line x1="325.4586" y1="264.9571" x2="325.4586" y2="310.7146" style="fill: none; stroke: #000; stroke-miterlimit: 10;"/>
    <polygon points="321.7555 307.906 325.4586 309.4793 329.1618 307.906 325.4586 316.6844 321.7555 307.906"/>
  </g>
  <g>
    <polyline points="96.4286 160.2849 96.4286 56.4571 244.3461 56.4571" style="fill: none; stroke: #000; stroke-miterlimit: 10;"/>
    <polygon points="241.5375 60.1602 243.1107 56.4571 241.5375 52.7539 250.3158 56.4571 241.5375 60.1602"/>
  </g>
  <g>
    <polyline points="400.6015 56.4571 524.4887 56.4571 524.4887 143.5158" style="fill: none; stroke: #000; stroke-miterlimit: 10;"/>
    <polygon points="520.7856 140.7072 524.4887 142.2804 528.1919 140.7072 524.4887 149.4855 520.7856 140.7072"/>
  </g>
  <g>
    <polyline points="96.4286 264.9571 96.4286 369.2558 244.3461 369.2558" style="fill: none; stroke: #000; stroke-miterlimit: 10;"/>
    <polygon points="241.5375 372.9589 243.1107 369.2558 241.5375 365.5527 250.3158 369.2558 241.5375 372.9589"/>
  </g>
  <g>
    <polyline points="400.6015 369.2558 524.4887 369.2558 524.4887 287.0286" style="fill: none; stroke: #000; stroke-miterlimit: 10;"/>
    <polygon points="528.1919 289.8372 524.4887 288.264 520.7856 289.8372 524.4887 281.0589 528.1919 289.8372"/>
  </g>
</svg>