<?xml version="1.0" encoding="UTF-8"?>
<svg id="_图层_1" xmlns="http://www.w3.org/2000/svg" viewBox="0 0 327.0181 82.6994">
  <g style="isolation: isolate;">
    <g style="isolation: isolate;">
      <g style="isolation: isolate;">
        <text transform="translate(0 15.8402)" style="font-family: NotoSerifSC-Regular, &apos;Noto Serif SC&apos;; font-size: 18px; isolation: isolate;"><tspan x="0" y="0">U1</tspan></text>
      </g>
    </g>
  </g>
  <g style="isolation: isolate;">
    <g style="isolation: isolate;">
      <g style="isolation: isolate;">
        <text transform="translate(100.9243 15.8403)" style="font-family: NotoSerifSC-Regular, &apos;Noto Serif SC&apos;; font-size: 18px; isolation: isolate;"><tspan x="0" y="0">U2</tspan></text>
      </g>
    </g>
  </g>
  <g style="isolation: isolate;">
    <g style="isolation: isolate;">
      <g style="isolation: isolate;">
        <text transform="translate(201.8484 15.84)" style="font-family: NotoSerifSC-Regular, &apos;Noto Serif SC&apos;; font-size: 18px; isolation: isolate;"><tspan x="0" y="0">U3</tspan></text>
      </g>
    </g>
  </g>
  <g style="isolation: isolate;">
    <g style="isolation: isolate;">
      <g style="isolation: isolate;">
        <text transform="translate(302.7726 15.8401)" style="font-family: NotoSerifSC-Regular, &apos;Noto Serif SC&apos;; font-size: 18px; isolation: isolate;"><tspan x="0" y="0">U4</tspan></text>
      </g>
    </g>
  </g>
  <g>
    <line x1="29.6275" y1="8.9997" x2="89.6896" y2="8.9997" style="fill: none; stroke: #000; stroke-miterlimit: 10;"/>
    <polygon points="86.881 12.7028 88.4541 8.9997 86.881 5.2965 95.6593 8.9997 86.881 12.7028"/>
  </g>
  <g>
    <line x1="130.4934" y1="8.9999" x2="190.5555" y2="8.9999" style="fill: none; stroke: #000; stroke-miterlimit: 10;"/>
    <polygon points="187.7468 12.7031 189.32 8.9999 187.7468 5.2968 196.5252 8.9999 187.7468 12.7031"/>
  </g>
  <g>
    <line x1="231.2784" y1="8.9999" x2="291.3403" y2="8.9999" style="fill: none; stroke: #000; stroke-miterlimit: 10;"/>
    <polygon points="288.5316 12.7031 290.1049 8.9999 288.5316 5.2968 297.3101 8.9999 288.5316 12.7031"/>
  </g>
  <g>
    <polyline points="145.056 76.3714 11.4688 76.3714 11.4688 29.0078" style="fill: none; stroke: #000; stroke-miterlimit: 10;"/>
    <polygon points="15.1719 31.8164 11.4688 30.2431 7.7657 31.8164 11.4688 23.038 15.1719 31.8164"/>
  </g>
  <polyline points="315.9767 22.0222 315.9767 76.3714 180.3576 76.3714" style="fill: none; stroke: #000; stroke-miterlimit: 10;"/>
  <g style="isolation: isolate;">
    <g style="isolation: isolate;">
      <g style="isolation: isolate;">
        <text transform="translate(154.7546 83.2281)" style="font-family: NotoSerifSC-Regular, &apos;Noto Serif SC&apos;; font-size: 18px; isolation: isolate;"><tspan x="0" y="0">×</tspan></text>
      </g>
    </g>
  </g>
</svg>