<?xml version="1.0" encoding="UTF-8"?>
<svg id="_图层_1" xmlns="http://www.w3.org/2000/svg" viewBox="0 0 863.7 88.1766">
  <text transform="translate(268.3408 18.6285)" style="font-family: NotoSerifSC-Regular, &apos;Noto Serif SC&apos;; font-size: 18px;"><tspan x="0" y="0">U1</tspan></text>
  <text transform="translate(369.265 18.6286)" style="font-family: NotoSerifSC-Regular, &apos;Noto Serif SC&apos;; font-size: 18px;"><tspan x="0" y="0">U2</tspan></text>
  <text transform="translate(470.1892 18.6283)" style="font-family: NotoSerifSC-Regular, &apos;Noto Serif SC&apos;; font-size: 18px;"><tspan x="0" y="0">U3</tspan></text>
  <text transform="translate(571.1134 18.6284)" style="font-family: NotoSerifSC-Regular, &apos;Noto Serif SC&apos;; font-size: 18px;"><tspan x="0" y="0">U4</tspan></text>
  <g>
    <line x1="297.9683" y1="11.788" x2="358.0303" y2="11.788" style="fill: none; stroke: #000; stroke-miterlimit: 10;"/>
    <polygon points="355.2217 15.4911 356.7949 11.788 355.2217 8.0848 364 11.788 355.2217 15.4911"/>
  </g>
  <g>
    <line x1="398.8341" y1="11.7882" x2="458.8962" y2="11.7882" style="fill: none; stroke: #000; stroke-miterlimit: 10;"/>
    <polygon points="456.0876 15.4914 457.6608 11.7882 456.0876 8.0851 464.8659 11.7882 456.0876 15.4914"/>
  </g>
  <g>
    <line x1="499.6191" y1="11.7882" x2="559.6811" y2="11.7882" style="fill: none; stroke: #000; stroke-miterlimit: 10;"/>
    <polygon points="556.8725 15.4914 558.4457 11.7882 556.8725 8.0851 565.6508 11.7882 556.8725 15.4914"/>
  </g>
  <g>
    <polyline points="413.3968 79.1597 279.8095 79.1597 279.8095 31.7961" style="fill: none; stroke: #000; stroke-miterlimit: 10;"/>
    <polygon points="283.5127 34.6047 279.8095 33.0314 276.1064 34.6047 279.8095 25.8263 283.5127 34.6047"/>
  </g>
  <polyline points="584.3175 24.8105 584.3175 79.1597 448.6984 79.1597" style="fill: none; stroke: #000; stroke-miterlimit: 10;"/>
  <text transform="translate(423.0954 86.0164)" style="font-family: NotoSerifSC-Regular, &apos;Noto Serif SC&apos;; font-size: 18px;"><tspan x="0" y="0">×</tspan></text>
</svg>