<?xml version="1.0" encoding="UTF-8"?>
<svg id="_图层_1" xmlns="http://www.w3.org/2000/svg" viewBox="0 0 329.8492 88.1766">
  <g style="isolation: isolate;">
    <text transform="translate(-.8101 18.6285)" style="font-family: NotoSerifSC-Regular, &apos;Noto Serif SC&apos;; font-size: 18px; isolation: isolate;"><tspan x="0" y="0">U1</tspan></text>
  </g>
  <g style="isolation: isolate;">
    <text transform="translate(100.1142 18.6286)" style="font-family: NotoSerifSC-Regular, &apos;Noto Serif SC&apos;; font-size: 18px; isolation: isolate;"><tspan x="0" y="0">U2</tspan></text>
  </g>
  <g style="isolation: isolate;">
    <text transform="translate(201.0384 18.6283)" style="font-family: NotoSerifSC-Regular, &apos;Noto Serif SC&apos;; font-size: 18px; isolation: isolate;"><tspan x="0" y="0">U3</tspan></text>
  </g>
  <g style="isolation: isolate;">
    <text transform="translate(301.9626 18.6284)" style="font-family: NotoSerifSC-Regular, &apos;Noto Serif SC&apos;; font-size: 18px; isolation: isolate;"><tspan x="0" y="0">U4</tspan></text>
  </g>
  <g>
    <line x1="28.8174" y1="11.788" x2="88.8795" y2="11.788" style="fill: none; stroke: #000; stroke-miterlimit: 10;"/>
    <polygon points="86.0709 15.4911 87.644 11.788 86.0709 8.0848 94.8492 11.788 86.0709 15.4911"/>
  </g>
  <g>
    <line x1="129.6833" y1="11.7882" x2="189.7454" y2="11.7882" style="fill: none; stroke: #000; stroke-miterlimit: 10;"/>
    <polygon points="186.9367 15.4914 188.5099 11.7882 186.9367 8.0851 195.7151 11.7882 186.9367 15.4914"/>
  </g>
  <g>
    <line x1="230.4683" y1="11.7882" x2="290.5302" y2="11.7882" style="fill: none; stroke: #000; stroke-miterlimit: 10;"/>
    <polygon points="287.7216 15.4914 289.2948 11.7882 287.7216 8.0851 296.5 11.7882 287.7216 15.4914"/>
  </g>
  <g>
    <polyline points="144.2459 79.1597 10.6587 79.1597 10.6587 31.7961" style="fill: none; stroke: #000; stroke-miterlimit: 10;"/>
    <polygon points="14.3618 34.6047 10.6587 33.0314 6.9556 34.6047 10.6587 25.8263 14.3618 34.6047"/>
  </g>
  <polyline points="315.1667 24.8105 315.1667 79.1597 179.5475 79.1597" style="fill: none; stroke: #000; stroke-miterlimit: 10;"/>
  <g style="isolation: isolate;">
    <text transform="translate(153.9445 86.0164)" style="font-family: NotoSerifSC-Regular, &apos;Noto Serif SC&apos;; font-size: 18px; isolation: isolate;"><tspan x="0" y="0">×</tspan></text>
  </g>
</svg>