<?xml version="1.0" encoding="UTF-8"?>
<svg id="_图层_1" xmlns="http://www.w3.org/2000/svg" viewBox="0 0 609.7143 263.4286">
  <g id="SVGRepo_iconCarrier">
    <path d="M19.1627,110.468l-10.814,5.5665c-1.3321.6857-2.1693,2.0583-2.1693,3.5565v2.0802c0,2.2092,1.7909,4,4.0002,4,.7364,0,1.3333.597,1.3333,1.3333s-.597,1.3333-1.3333,1.3333c-3.6821,0-6.6669-2.9847-6.6669-6.6667v-2.0802c0-2.497,1.3954-4.7847,3.6155-5.9275l8.954-4.6091c-2.8578-2.4918-4.5695-6.1238-4.5695-10.0499,0-7.3638,5.9695-13.3333,13.3333-13.3333,4.4709,0,8.5686,2.2185,11.0345,5.8468.4139.609.2558,1.4383-.3533,1.8522-.609.4139-1.4383.2558-1.8522-.3533-1.9746-2.9054-5.2507-4.6791-8.829-4.6791-5.891,0-10.6667,4.7756-10.6667,10.6667,0,3.7646,1.9648,7.1885,5.1207,9.1136.6286.3835.8274,1.204.4439,1.8326-.1436.2353-.3483.4104-.5814.5173h.0002ZM30.0761,121.8494l-10.8853,4.9478c-1.428.6491-2.3448,2.0729-2.3448,3.6415v1.8991c0,2.2091,1.7909,4,4,4h29.3333c2.2091,0,4-1.7909,4-4v-1.8991c0-1.5686-.9168-2.9924-2.3448-3.6415l-10.8853-4.9478c-1.6603.7423-3.5003,1.1551-5.4366,1.1551s-3.7763-.4128-5.4366-1.1551h.0001ZM27.3052,120.1797c-3.1202-2.4404-5.1258-6.2403-5.1258-10.5085,0-7.3638,5.9695-13.3333,13.3333-13.3333s13.3333,5.9695,13.3333,13.3333c0,4.2683-2.0056,8.0681-5.1258,10.5085l9.2178,4.1899c2.38,1.0818,3.908,3.4548,3.908,6.0691v1.8991c0,3.6819-2.9848,6.6667-6.6667,6.6667h-29.3333c-3.6819,0-6.6667-2.9848-6.6667-6.6667v-1.8991c0-2.6143,1.528-4.9873,3.908-6.0691l9.2178-4.1899h.0001ZM35.5127,120.3378c5.891,0,10.6667-4.7756,10.6667-10.6667s-4.7756-10.6667-10.6667-10.6667-10.6667,4.7756-10.6667,10.6667,4.7756,10.6667,10.6667,10.6667Z"/>
  </g>
  <g id="SVGRepo_iconCarrier-2" data-name="SVGRepo_iconCarrier">
    <g>
      <path d="M584.4279,92.2444c0-.2934-.12-.5734-.32-.7734-.0134-.0266-.0266-.0534-.0534-.0666l-10.5732-10.6666c-.2534-.2534-.5866-.4-.9466-.4h-40.1868c-.36,0-.6934.1466-.9466.4l-10.5734,10.6666c-.0266.0266-.0266.0534-.04.0666-.0934.1066-.1866.2266-.24.36-.0534.1334-.08.28-.08.4134-.0133.04-.0266.0668-.0266.0934v46.44c0,3.0134,2.6666,5.56,5.8134,5.56h52.64c3.0666-.0134,5.5466-2.4934,5.5466-5.56v-46.44c0-.0266-.0134-.0534-.0134-.0934ZM532.9079,83.0044h39.0666l7.9334,8h-54.9333l7.9333-8ZM581.7746,138.7778c0,1.5866-1.28,2.88-2.88,2.8934h-52.64c-1.64,0-3.1466-1.3866-3.1466-2.8934v-11.7734h58.6666v11.7734ZM581.7746,124.3378h-58.6667v-13.3334h58.6666v13.3334h.0001ZM581.7746,108.3378h-58.6667v-14.6666h58.6666v14.6666h.0001Z"/>
      <path d="M531.1079,106.1112c3.0934,0,5.6-2.56,5.6-5.72s-2.5066-5.72-5.6-5.72-5.6,2.56-5.6,5.72c0,3.16,2.5068,5.72,5.6,5.72ZM531.1079,97.3378c1.6134,0,2.9334,1.3734,2.9334,3.0534s-1.32,3.0534-2.9334,3.0534-2.9334-1.3734-2.9334-3.0534c.0001-1.68,1.3201-3.0534,2.9334-3.0534Z"/>
      <path d="M558.4146,104.3244c1.8534,0,3.3466-1.5066,3.3466-3.3466s-1.5066-3.3466-3.3466-3.3466-3.3466,1.5066-3.3466,3.3466c-.0134,1.84,1.4933,3.3466,3.3466,3.3466ZM558.4146,100.2844c.3734,0,.68.3066.68.68s-.3066.68-.68.68-.68-.3066-.68-.68.2933-.68.68-.68Z"/>
      <path d="M566.4146,104.3244c1.8534,0,3.3466-1.5066,3.3466-3.3466s-1.5066-3.3466-3.3466-3.3466-3.3466,1.5066-3.3466,3.3466c-.0134,1.84,1.4933,3.3466,3.3466,3.3466ZM566.4146,100.2844c.3734,0,.68.3066.68.68s-.3066.68-.68.68-.68-.3066-.68-.68.2933-.68.68-.68Z"/>
      <path d="M574.4146,104.2844c1.8266-.0266,3.2934-1.52,3.2666-3.3466-.0266-1.8266-1.52-3.2934-3.3466-3.2666-1.8134.0266-3.2666,1.4934-3.2666,3.3066-.0001,1.8266,1.5066,3.32,3.3466,3.3066ZM574.4146,100.3244c.36.0266.6266.3334.6134.68-.0266.36-.3334.6266-.68.6134-.3466-.0266-.6134-.3066-.6134-.64,0-.3734.3066-.6666.68-.6534Z"/>
      <path d="M531.1079,123.3244c3.0934,0,5.6-2.5334,5.6-5.6534s-2.5066-5.6534-5.6-5.6534-5.6,2.5334-5.6,5.6534c0,3.1201,2.5068,5.6534,5.6,5.6534ZM531.0012,114.6844c1.6534-.0266,3.0134,1.28,3.04,2.9334v.0534c.0134,1.64-1.2934,2.9734-2.9334,2.9866-1.6534.0266-3.0134-1.28-3.04-2.9334-.0266-1.6533,1.28-3.0133,2.9334-3.04Z"/>
      <path d="M558.4946,121.6044c1.8134-.0266,3.2666-1.4934,3.2666-3.3066-.0134-1.8266-1.52-3.32-3.3466-3.3066-1.8266.0266-3.2934,1.52-3.2666,3.3466.0266,1.8266,1.5199,3.2934,3.3466,3.2666ZM558.4812,117.6578c.3466.0266.6134.3066.6134.64-.0134.3734-.32.6666-.68.6534-.36-.0266-.6266-.3334-.6134-.68.0266-.36.3334-.6267.68-.6134Z"/>
      <path d="M566.4146,121.6444c1.84,0,3.3466-1.5066,3.3466-3.3466s-1.5066-3.3466-3.3466-3.3466c-1.8534,0-3.3466,1.5066-3.3466,3.3466-.0001,1.84,1.5066,3.3466,3.3466,3.3466ZM566.4146,117.6312c.3734,0,.68.3066.68.68s-.3066.68-.68.68-.68-.3066-.68-.68.3066-.68.68-.68Z"/>
      <path d="M574.4946,121.6044c1.8134-.0266,3.2666-1.4934,3.2666-3.3066-.0134-1.8266-1.52-3.32-3.3466-3.3066-1.8266.0266-3.2934,1.52-3.2666,3.3466.0266,1.8266,1.5199,3.2934,3.3466,3.2666ZM574.4812,117.6578c.3466.0266.6134.3066.6134.64-.0134.3734-.32.6666-.68.6534-.36-.0266-.6266-.3334-.6134-.68.0266-.36.3334-.6267.68-.6134Z"/>
      <path d="M558.4146,137.6444c1.84,0,3.3466-1.5066,3.3466-3.3466s-1.5066-3.3466-3.3466-3.3466c-1.8534,0-3.3466,1.5066-3.3466,3.3466s1.5066,3.3466,3.3466,3.3466ZM558.4146,133.6312c.3734,0,.68.3066.68.68s-.3066.68-.68.68-.68-.3066-.68-.68.3066-.68.68-.68Z"/>
      <path d="M566.4146,137.6444c1.84,0,3.3466-1.5066,3.3466-3.3466s-1.5066-3.3466-3.3466-3.3466c-1.8534,0-3.3466,1.5066-3.3466,3.3466s1.5066,3.3466,3.3466,3.3466ZM566.4146,133.6312c.3734,0,.68.3066.68.68s-.3066.68-.68.68-.68-.3066-.68-.68.3066-.68.68-.68Z"/>
      <path d="M574.4946,137.6044c1.8134-.0266,3.2666-1.4934,3.2666-3.3066-.0134-1.8266-1.52-3.32-3.3466-3.3066-1.8266.0266-3.2934,1.52-3.2666,3.3466.0266,1.8266,1.5199,3.2934,3.3466,3.2666ZM574.4812,133.6578c.3466.0266.6134.3066.6134.64-.0134.3734-.32.6666-.68.6534-.36-.0266-.6266-.3334-.6134-.68.0266-.36.3334-.6267.68-.6134Z"/>
      <path d="M530.8412,139.3112c3.2134.12,5.8666-2.4534,5.8666-5.64,0-3.12-2.52-5.64-5.64-5.6534-3.1866,0-5.76,2.64-5.64,5.8666.1068,2.9334,2.4934,5.3068,5.4134,5.4268ZM528.1746,133.4844c.0934-1.4666,1.28-2.6534,2.7466-2.7466,1.7066-.1066,3.12,1.24,3.1334,2.9334-.0134,1.6266-1.32,2.9334-2.9466,2.9334-1.6801-.0001-3.0401-1.4134-2.9334-3.1201Z"/>
    </g>
  </g>
  <text transform="translate(84.6767 83.7303)" style="font-family: NotoSerifSC-Regular, &apos;Noto Serif SC&apos;; font-size: 18px;"><tspan x="0" y="0">可</tspan><tspan x="0" y="21.6006">信</tspan><tspan x="0" y="43.2002">通</tspan><tspan x="0" y="64.7998">信</tspan><tspan x="0" y="86.4004">模</tspan><tspan x="0" y="108">块</tspan></text>
  <text transform="translate(194.0589 30.2016)" style="font-family: NotoSerifSC-Regular, &apos;Noto Serif SC&apos;; font-size: 18px;"><tspan x="0" y="0">第一步</tspan><tspan x="54" y="0" style="letter-spacing: -.5em;">：</tspan><tspan x="63" y="0">创建可信链接</tspan></text>
  <text transform="translate(131.059 74.8196)" style="font-family: NotoSerifSC-Regular, &apos;Noto Serif SC&apos;; font-size: 18px;"><tspan x="0" y="0">第二步</tspan><tspan x="54" y="0" style="letter-spacing: -.5em;">：</tspan><tspan x="63" y="0">确认通信双方断端点的可靠性</tspan></text>
  <text transform="translate(167.0589 119.4368)" style="font-family: NotoSerifSC-Regular, &apos;Noto Serif SC&apos;; font-size: 18px;"><tspan x="0" y="0">第三步</tspan><tspan x="54" y="0" style="letter-spacing: -.5em;">：</tspan><tspan x="63" y="0">协商加密算法和密钥</tspan></text>
  <text transform="translate(194.059 164.0543)" style="font-family: NotoSerifSC-Regular, &apos;Noto Serif SC&apos;; font-size: 18px;"><tspan x="0" y="0">第四步</tspan><tspan x="54" y="0" style="letter-spacing: -.5em;">：</tspan><tspan x="63" y="0">可信传输数据</tspan></text>
  <text transform="translate(194.059 208.6711)" style="font-family: NotoSerifSC-Regular, &apos;Noto Serif SC&apos;; font-size: 18px;"><tspan x="0" y="0">第五步</tspan><tspan x="54" y="0" style="letter-spacing: -.5em;">：</tspan><tspan x="63" y="0">关闭可信链接</tspan></text>
  <g>
    <polyline points="279.5591 41.3553 434.6915 41.3553 434.6915 35.0903 449.5273 45.5665" style="fill: none; stroke: #000; stroke-miterlimit: 10;"/>
    <polyline points="279.5591 49.7778 434.6915 49.7778 434.6915 56.0427 449.5273 45.5665" style="fill: none; stroke: #000; stroke-miterlimit: 10;"/>
    <polyline points="279.5591 41.3553 124.4266 41.3553 124.4266 35.0903 109.5908 45.5665" style="fill: none; stroke: #000; stroke-miterlimit: 10;"/>
    <polyline points="279.5591 49.7778 124.4266 49.7778 124.4266 56.0427 109.5908 45.5665" style="fill: none; stroke: #000; stroke-miterlimit: 10;"/>
  </g>
  <g>
    <polyline points="279.5591 81.085 434.6915 81.085 434.6915 74.8201 449.5273 85.2963" style="fill: none; stroke: #000; stroke-miterlimit: 10;"/>
    <polyline points="279.5591 89.5075 434.6915 89.5075 434.6915 95.7725 449.5273 85.2963" style="fill: none; stroke: #000; stroke-miterlimit: 10;"/>
    <polyline points="279.5591 81.085 124.4266 81.085 124.4266 74.8201 109.5908 85.2963" style="fill: none; stroke: #000; stroke-miterlimit: 10;"/>
    <polyline points="279.5591 89.5075 124.4266 89.5075 124.4266 95.7725 109.5908 85.2963" style="fill: none; stroke: #000; stroke-miterlimit: 10;"/>
  </g>
  <g>
    <polyline points="279.5591 125.8962 434.6915 125.8962 434.6915 119.6312 449.5273 130.1074" style="fill: none; stroke: #000; stroke-miterlimit: 10;"/>
    <polyline points="279.5591 134.3187 434.6915 134.3187 434.6915 140.5836 449.5273 130.1074" style="fill: none; stroke: #000; stroke-miterlimit: 10;"/>
    <polyline points="279.5591 125.8962 124.4266 125.8962 124.4266 119.6312 109.5908 130.1074" style="fill: none; stroke: #000; stroke-miterlimit: 10;"/>
    <polyline points="279.5591 134.3187 124.4266 134.3187 124.4266 140.5836 109.5908 130.1074" style="fill: none; stroke: #000; stroke-miterlimit: 10;"/>
  </g>
  <g>
    <polyline points="279.5591 172.4789 434.6915 172.4789 434.6915 166.2139 449.5273 176.6901" style="fill: none; stroke: #000; stroke-miterlimit: 10;"/>
    <polyline points="279.5591 180.9014 434.6915 180.9014 434.6915 187.1663 449.5273 176.6901" style="fill: none; stroke: #000; stroke-miterlimit: 10;"/>
    <polyline points="279.5591 172.4789 124.4266 172.4789 124.4266 166.2139 109.5908 176.6901" style="fill: none; stroke: #000; stroke-miterlimit: 10;"/>
    <polyline points="279.5591 180.9014 124.4266 180.9014 124.4266 187.1663 109.5908 176.6901" style="fill: none; stroke: #000; stroke-miterlimit: 10;"/>
  </g>
  <g>
    <polyline points="279.5591 219.0616 434.6915 219.0616 434.6915 212.7966 449.5273 223.2728" style="fill: none; stroke: #000; stroke-miterlimit: 10;"/>
    <polyline points="279.5591 227.4841 434.6915 227.4841 434.6915 233.749 449.5273 223.2728" style="fill: none; stroke: #000; stroke-miterlimit: 10;"/>
    <polyline points="279.5591 219.0616 124.4266 219.0616 124.4266 212.7966 109.5908 223.2728" style="fill: none; stroke: #000; stroke-miterlimit: 10;"/>
    <polyline points="279.5591 227.4841 124.4266 227.4841 124.4266 233.749 109.5908 223.2728" style="fill: none; stroke: #000; stroke-miterlimit: 10;"/>
  </g>
  <rect x="79.9147" y="4.8571" width="29.3333" height="253.3333" style="fill: none; stroke: #000; stroke-miterlimit: 10;"/>
  <text transform="translate(454.2893 83.7292)" style="font-family: NotoSerifSC-Regular, &apos;Noto Serif SC&apos;; font-size: 18px;"><tspan x="0" y="0">可</tspan><tspan x="0" y="21.6006">信</tspan><tspan x="0" y="43.2002">通</tspan><tspan x="0" y="64.7998">信</tspan><tspan x="0" y="86.4004">模</tspan><tspan x="0" y="108">块</tspan></text>
  <rect x="449.5273" y="4.8561" width="29.3333" height="253.3333" style="fill: none; stroke: #000; stroke-miterlimit: 10;"/>
  <text transform="translate(10.5615 168.3121)" style="font-family: NotoSerifSC-Regular, &apos;Noto Serif SC&apos;; font-size: 18px;"><tspan x="0" y="0">用户</tspan></text>
  <text transform="translate(498.4411 168.3117)" style="font-family: NotoSerifSC-Regular, &apos;Noto Serif SC&apos;; font-size: 18px;"><tspan x="0" y="0">数据库服务器</tspan></text>
</svg>