<?xml version="1.0" encoding="UTF-8"?>
<svg id="_图层_1" xmlns="http://www.w3.org/2000/svg" viewBox="0 0 602.9287 254.3343">
  <g id="SVGRepo_iconCarrier">
    <path d="M15.65,106.1119l-10.814,5.5665c-1.3321.6857-2.1693,2.0583-2.1693,3.5565v2.0802c0,2.2092,1.7909,4,4.0002,4,.7364,0,1.3333.597,1.3333,1.3333s-.597,1.3333-1.3333,1.3333c-3.6821,0-6.6669-2.9847-6.6669-6.6667v-2.0802c0-2.497,1.3954-4.7847,3.6155-5.9275l8.954-4.6091c-2.8578-2.4918-4.5695-6.1238-4.5695-10.0499,0-7.3638,5.9695-13.3333,13.3333-13.3333,4.4709,0,8.5686,2.2185,11.0345,5.8468.4139.609.2558,1.4383-.3533,1.8522-.609.4139-1.4383.2558-1.8522-.3533-1.9746-2.9054-5.2507-4.6791-8.829-4.6791-5.891,0-10.6667,4.7756-10.6667,10.6667,0,3.7646,1.9648,7.1885,5.1207,9.1136.6286.3835.8274,1.204.4439,1.8326-.1436.2353-.3483.4104-.5814.5173h.0002,0ZM26.5634,117.4933l-10.8853,4.9478c-1.428.6491-2.3448,2.0729-2.3448,3.6415v1.8991c0,2.2091,1.7909,4,4,4h29.3333c2.2091,0,4-1.7909,4-4v-1.8991c0-1.5686-.9168-2.9924-2.3448-3.6415l-10.8853-4.9478c-1.6603.7423-3.5003,1.1551-5.4366,1.1551s-3.7763-.4128-5.4366-1.1551h0ZM23.7925,115.8236c-3.1202-2.4404-5.1258-6.2403-5.1258-10.5085,0-7.3638,5.9695-13.3333,13.3333-13.3333s13.3333,5.9695,13.3333,13.3333c0,4.2683-2.0056,8.0681-5.1258,10.5085l9.2178,4.1899c2.38,1.0818,3.908,3.4548,3.908,6.0691v1.8991c0,3.6819-2.9848,6.6667-6.6667,6.6667h-29.3333c-3.6819,0-6.6667-2.9848-6.6667-6.6667v-1.8991c0-2.6143,1.528-4.9873,3.908-6.0691l9.2178-4.1899s0,0,0,0ZM32,115.9817c5.891,0,10.6667-4.7756,10.6667-10.6667s-4.7756-10.6667-10.6667-10.6667-10.6667,4.7756-10.6667,10.6667,4.7756,10.6667,10.6667,10.6667Z"/>
  </g>
  <g id="SVGRepo_iconCarrier-2">
    <g>
      <path d="M580.9152,87.8883c0-.2934-.12-.5734-.32-.7734-.0134-.0266-.0266-.0534-.0534-.0666l-10.5732-10.6666c-.2534-.2534-.5866-.4-.9466-.4h-40.1868c-.36,0-.6934.1466-.9466.4l-10.5734,10.6666c-.0266.0266-.0266.0534-.04.0666-.0934.1066-.1866.2266-.24.36s-.08.28-.08.4134c-.0133.04-.0266.0668-.0266.0934v46.44c0,3.0134,2.6666,5.56,5.8134,5.56h52.64c3.0666-.0134,5.5466-2.4934,5.5466-5.56v-46.44c0-.0266-.0134-.0534-.0134-.0934h0ZM529.3952,78.6483h39.0666l7.9334,8h-54.9333l7.9333-8ZM578.2619,134.4217c0,1.5866-1.28,2.88-2.88,2.8934h-52.64c-1.64,0-3.1466-1.3866-3.1466-2.8934v-11.7734h58.6666v11.7734ZM578.2619,119.9817h-58.6667v-13.3334h58.6666v13.3334h.0001,0ZM578.2619,103.9817h-58.6667v-14.6666h58.6666v14.6666h.0001,0Z"/>
      <path d="M527.5952,101.7551c3.0934,0,5.6-2.56,5.6-5.72s-2.5066-5.72-5.6-5.72-5.6,2.56-5.6,5.72,2.5068,5.72,5.6,5.72ZM527.5952,92.9817c1.6134,0,2.9334,1.3734,2.9334,3.0534s-1.32,3.0534-2.9334,3.0534-2.9334-1.3734-2.9334-3.0534c.0001-1.68,1.3201-3.0534,2.9334-3.0534Z"/>
      <path d="M554.9019,99.9683c1.8534,0,3.3466-1.5066,3.3466-3.3466s-1.5066-3.3466-3.3466-3.3466-3.3466,1.5066-3.3466,3.3466c-.0134,1.84,1.4933,3.3466,3.3466,3.3466ZM554.9019,95.9283c.3734,0,.68.3066.68.68s-.3066.68-.68.68-.68-.3066-.68-.68.2933-.68.68-.68Z"/>
      <path d="M562.9019,99.9683c1.8534,0,3.3466-1.5066,3.3466-3.3466s-1.5066-3.3466-3.3466-3.3466-3.3466,1.5066-3.3466,3.3466c-.0134,1.84,1.4933,3.3466,3.3466,3.3466ZM562.9019,95.9283c.3734,0,.68.3066.68.68s-.3066.68-.68.68-.68-.3066-.68-.68.2933-.68.68-.68Z"/>
      <path d="M570.9019,99.9283c1.8266-.0266,3.2934-1.52,3.2666-3.3466-.0266-1.8266-1.52-3.2934-3.3466-3.2666-1.8134.0266-3.2666,1.4934-3.2666,3.3066-.0001,1.8266,1.5066,3.32,3.3466,3.3066ZM570.9019,95.9683c.36.0266.6266.3334.6134.68-.0266.36-.3334.6266-.68.6134-.3466-.0266-.6134-.3066-.6134-.64,0-.3734.3066-.6666.68-.6534Z"/>
      <path d="M527.5952,118.9683c3.0934,0,5.6-2.5334,5.6-5.6534s-2.5066-5.6534-5.6-5.6534-5.6,2.5334-5.6,5.6534,2.5068,5.6534,5.6,5.6534ZM527.4885,110.3283c1.6534-.0266,3.0134,1.28,3.04,2.9334v.0534c.0134,1.64-1.2934,2.9734-2.9334,2.9866-1.6534.0266-3.0134-1.28-3.04-2.9334-.0266-1.6533,1.28-3.0133,2.9334-3.04Z"/>
      <path d="M554.9819,117.2483c1.8134-.0266,3.2666-1.4934,3.2666-3.3066-.0134-1.8266-1.52-3.32-3.3466-3.3066-1.8266.0266-3.2934,1.52-3.2666,3.3466.0266,1.8266,1.5199,3.2934,3.3466,3.2666ZM554.9685,113.3017c.3466.0266.6134.3066.6134.64-.0134.3734-.32.6666-.68.6534-.36-.0266-.6266-.3334-.6134-.68.0266-.36.3334-.6267.68-.6134Z"/>
      <path d="M562.9019,117.2883c1.84,0,3.3466-1.5066,3.3466-3.3466s-1.5066-3.3466-3.3466-3.3466c-1.8534,0-3.3466,1.5066-3.3466,3.3466-.0001,1.84,1.5066,3.3466,3.3466,3.3466ZM562.9019,113.2751c.3734,0,.68.3066.68.68s-.3066.68-.68.68-.68-.3066-.68-.68.3066-.68.68-.68Z"/>
      <path d="M570.9819,117.2483c1.8134-.0266,3.2666-1.4934,3.2666-3.3066-.0134-1.8266-1.52-3.32-3.3466-3.3066-1.8266.0266-3.2934,1.52-3.2666,3.3466.0266,1.8266,1.5199,3.2934,3.3466,3.2666ZM570.9685,113.3017c.3466.0266.6134.3066.6134.64-.0134.3734-.32.6666-.68.6534-.36-.0266-.6266-.3334-.6134-.68.0266-.36.3334-.6267.68-.6134Z"/>
      <path d="M554.9019,133.2883c1.84,0,3.3466-1.5066,3.3466-3.3466s-1.5066-3.3466-3.3466-3.3466c-1.8534,0-3.3466,1.5066-3.3466,3.3466s1.5066,3.3466,3.3466,3.3466ZM554.9019,129.2751c.3734,0,.68.3066.68.68s-.3066.68-.68.68-.68-.3066-.68-.68.3066-.68.68-.68Z"/>
      <path d="M562.9019,133.2883c1.84,0,3.3466-1.5066,3.3466-3.3466s-1.5066-3.3466-3.3466-3.3466c-1.8534,0-3.3466,1.5066-3.3466,3.3466s1.5066,3.3466,3.3466,3.3466ZM562.9019,129.2751c.3734,0,.68.3066.68.68s-.3066.68-.68.68-.68-.3066-.68-.68.3066-.68.68-.68Z"/>
      <path d="M570.9819,133.2483c1.8134-.0266,3.2666-1.4934,3.2666-3.3066-.0134-1.8266-1.52-3.32-3.3466-3.3066-1.8266.0266-3.2934,1.52-3.2666,3.3466.0266,1.8266,1.5199,3.2934,3.3466,3.2666h0ZM570.9685,129.3017c.3466.0266.6134.3066.6134.64-.0134.3734-.32.6666-.68.6534-.36-.0266-.6266-.3334-.6134-.68.0266-.36.3334-.6267.68-.6134Z"/>
      <path d="M527.3285,134.9551c3.2134.12,5.8666-2.4534,5.8666-5.64,0-3.12-2.52-5.64-5.64-5.6534-3.1866,0-5.76,2.64-5.64,5.8666.1068,2.9334,2.4934,5.3068,5.4134,5.4268h0ZM524.6619,129.1283c.0934-1.4666,1.28-2.6534,2.7466-2.7466,1.7066-.1066,3.12,1.24,3.1334,2.9334-.0134,1.6266-1.32,2.9334-2.9466,2.9334-1.6801-.0001-3.0401-1.4134-2.9334-3.1201h0Z"/>
    </g>
  </g>
  <g style="isolation: isolate;">
    <text transform="translate(81.164 79.3742)" style="font-family: NotoSerifSC-Regular, &apos;Noto Serif SC&apos;; font-size: 18px; isolation: isolate;"><tspan x="0" y="0">可</tspan></text>
    <text transform="translate(81.164 100.9748)" style="font-family: NotoSerifSC-Regular, &apos;Noto Serif SC&apos;; font-size: 18px; isolation: isolate;"><tspan x="0" y="0">信</tspan></text>
    <text transform="translate(81.164 122.5744)" style="font-family: NotoSerifSC-Regular, &apos;Noto Serif SC&apos;; font-size: 18px; isolation: isolate;"><tspan x="0" y="0">通</tspan></text>
    <text transform="translate(81.164 144.174)" style="font-family: NotoSerifSC-Regular, &apos;Noto Serif SC&apos;; font-size: 18px; isolation: isolate;"><tspan x="0" y="0">信</tspan></text>
    <text transform="translate(81.164 165.7746)" style="font-family: NotoSerifSC-Regular, &apos;Noto Serif SC&apos;; font-size: 18px; isolation: isolate;"><tspan x="0" y="0">模</tspan></text>
    <text transform="translate(81.164 187.3742)" style="font-family: NotoSerifSC-Regular, &apos;Noto Serif SC&apos;; font-size: 18px; isolation: isolate;"><tspan x="0" y="0">块</tspan></text>
  </g>
  <g style="isolation: isolate;">
    <text transform="translate(190.5462 25.8455)" style="font-family: NotoSerifSC-Regular, &apos;Noto Serif SC&apos;; font-size: 18px; isolation: isolate;"><tspan x="0" y="0">第一步</tspan></text>
    <text transform="translate(244.5462 25.8455)" style="font-family: NotoSerifSC-Regular, &apos;Noto Serif SC&apos;; font-size: 18px; isolation: isolate; letter-spacing: -1em;"><tspan x="0" y="0">：</tspan></text>
    <text transform="translate(253.5462 25.8455)" style="font-family: NotoSerifSC-Regular, &apos;Noto Serif SC&apos;; font-size: 18px; isolation: isolate;"><tspan x="0" y="0">创建可信链接</tspan></text>
  </g>
  <g style="isolation: isolate;">
    <text transform="translate(127.5463 70.4635)" style="font-family: NotoSerifSC-Regular, &apos;Noto Serif SC&apos;; font-size: 18px; isolation: isolate;"><tspan x="0" y="0">第二步</tspan></text>
    <text transform="translate(181.5463 70.4635)" style="font-family: NotoSerifSC-Regular, &apos;Noto Serif SC&apos;; font-size: 18px; isolation: isolate; letter-spacing: -1em;"><tspan x="0" y="0">：</tspan></text>
    <text transform="translate(190.5463 70.4635)" style="font-family: NotoSerifSC-Regular, &apos;Noto Serif SC&apos;; font-size: 18px; isolation: isolate;"><tspan x="0" y="0">确认通信双方断端点的可靠性</tspan></text>
  </g>
  <g style="isolation: isolate;">
    <text transform="translate(163.5462 115.0807)" style="font-family: NotoSerifSC-Regular, &apos;Noto Serif SC&apos;; font-size: 18px; isolation: isolate;"><tspan x="0" y="0">第三步</tspan></text>
    <text transform="translate(217.5462 115.0807)" style="font-family: NotoSerifSC-Regular, &apos;Noto Serif SC&apos;; font-size: 18px; isolation: isolate; letter-spacing: -1em;"><tspan x="0" y="0">：</tspan></text>
    <text transform="translate(226.5462 115.0807)" style="font-family: NotoSerifSC-Regular, &apos;Noto Serif SC&apos;; font-size: 18px; isolation: isolate;"><tspan x="0" y="0">协商加密算法和密钥</tspan></text>
  </g>
  <g style="isolation: isolate;">
    <text transform="translate(190.5463 159.6982)" style="font-family: NotoSerifSC-Regular, &apos;Noto Serif SC&apos;; font-size: 18px; isolation: isolate;"><tspan x="0" y="0">第四步</tspan></text>
    <text transform="translate(244.5463 159.6982)" style="font-family: NotoSerifSC-Regular, &apos;Noto Serif SC&apos;; font-size: 18px; isolation: isolate; letter-spacing: -1em;"><tspan x="0" y="0">：</tspan></text>
    <text transform="translate(253.5463 159.6982)" style="font-family: NotoSerifSC-Regular, &apos;Noto Serif SC&apos;; font-size: 18px; isolation: isolate;"><tspan x="0" y="0">可信传输数据</tspan></text>
  </g>
  <g style="isolation: isolate;">
    <text transform="translate(190.5463 204.315)" style="font-family: NotoSerifSC-Regular, &apos;Noto Serif SC&apos;; font-size: 18px; isolation: isolate;"><tspan x="0" y="0">第五步</tspan></text>
    <text transform="translate(244.5463 204.315)" style="font-family: NotoSerifSC-Regular, &apos;Noto Serif SC&apos;; font-size: 18px; isolation: isolate; letter-spacing: -1em;"><tspan x="0" y="0">：</tspan></text>
    <text transform="translate(253.5463 204.315)" style="font-family: NotoSerifSC-Regular, &apos;Noto Serif SC&apos;; font-size: 18px; isolation: isolate;"><tspan x="0" y="0">关闭可信链接</tspan></text>
  </g>
  <g>
    <polyline points="276.0464 36.9992 431.1788 36.9992 431.1788 30.7342 446.0146 41.2104" style="fill: none; stroke: #000; stroke-miterlimit: 10;"/>
    <polyline points="276.0464 45.4217 431.1788 45.4217 431.1788 51.6866 446.0146 41.2104" style="fill: none; stroke: #000; stroke-miterlimit: 10;"/>
    <polyline points="276.0464 36.9992 120.9139 36.9992 120.9139 30.7342 106.0781 41.2104" style="fill: none; stroke: #000; stroke-miterlimit: 10;"/>
    <polyline points="276.0464 45.4217 120.9139 45.4217 120.9139 51.6866 106.0781 41.2104" style="fill: none; stroke: #000; stroke-miterlimit: 10;"/>
  </g>
  <g>
    <polyline points="276.0464 76.7289 431.1788 76.7289 431.1788 70.464 446.0146 80.9402" style="fill: none; stroke: #000; stroke-miterlimit: 10;"/>
    <polyline points="276.0464 85.1514 431.1788 85.1514 431.1788 91.4164 446.0146 80.9402" style="fill: none; stroke: #000; stroke-miterlimit: 10;"/>
    <polyline points="276.0464 76.7289 120.9139 76.7289 120.9139 70.464 106.0781 80.9402" style="fill: none; stroke: #000; stroke-miterlimit: 10;"/>
    <polyline points="276.0464 85.1514 120.9139 85.1514 120.9139 91.4164 106.0781 80.9402" style="fill: none; stroke: #000; stroke-miterlimit: 10;"/>
  </g>
  <g>
    <polyline points="276.0464 121.5401 431.1788 121.5401 431.1788 115.2751 446.0146 125.7513" style="fill: none; stroke: #000; stroke-miterlimit: 10;"/>
    <polyline points="276.0464 129.9626 431.1788 129.9626 431.1788 136.2275 446.0146 125.7513" style="fill: none; stroke: #000; stroke-miterlimit: 10;"/>
    <polyline points="276.0464 121.5401 120.9139 121.5401 120.9139 115.2751 106.0781 125.7513" style="fill: none; stroke: #000; stroke-miterlimit: 10;"/>
    <polyline points="276.0464 129.9626 120.9139 129.9626 120.9139 136.2275 106.0781 125.7513" style="fill: none; stroke: #000; stroke-miterlimit: 10;"/>
  </g>
  <g>
    <polyline points="276.0464 168.1228 431.1788 168.1228 431.1788 161.8578 446.0146 172.334" style="fill: none; stroke: #000; stroke-miterlimit: 10;"/>
    <polyline points="276.0464 176.5453 431.1788 176.5453 431.1788 182.8102 446.0146 172.334" style="fill: none; stroke: #000; stroke-miterlimit: 10;"/>
    <polyline points="276.0464 168.1228 120.9139 168.1228 120.9139 161.8578 106.0781 172.334" style="fill: none; stroke: #000; stroke-miterlimit: 10;"/>
    <polyline points="276.0464 176.5453 120.9139 176.5453 120.9139 182.8102 106.0781 172.334" style="fill: none; stroke: #000; stroke-miterlimit: 10;"/>
  </g>
  <g>
    <polyline points="276.0464 214.7055 431.1788 214.7055 431.1788 208.4405 446.0146 218.9167" style="fill: none; stroke: #000; stroke-miterlimit: 10;"/>
    <polyline points="276.0464 223.128 431.1788 223.128 431.1788 229.3929 446.0146 218.9167" style="fill: none; stroke: #000; stroke-miterlimit: 10;"/>
    <polyline points="276.0464 214.7055 120.9139 214.7055 120.9139 208.4405 106.0781 218.9167" style="fill: none; stroke: #000; stroke-miterlimit: 10;"/>
    <polyline points="276.0464 223.128 120.9139 223.128 120.9139 229.3929 106.0781 218.9167" style="fill: none; stroke: #000; stroke-miterlimit: 10;"/>
  </g>
  <rect x="76.402" y=".501" width="29.3333" height="253.3333" style="fill: none; stroke: #000; stroke-miterlimit: 10;"/>
  <g style="isolation: isolate;">
    <text transform="translate(450.7766 79.3731)" style="font-family: NotoSerifSC-Regular, &apos;Noto Serif SC&apos;; font-size: 18px; isolation: isolate;"><tspan x="0" y="0">可</tspan></text>
    <text transform="translate(450.7766 100.9737)" style="font-family: NotoSerifSC-Regular, &apos;Noto Serif SC&apos;; font-size: 18px; isolation: isolate;"><tspan x="0" y="0">信</tspan></text>
    <text transform="translate(450.7766 122.5733)" style="font-family: NotoSerifSC-Regular, &apos;Noto Serif SC&apos;; font-size: 18px; isolation: isolate;"><tspan x="0" y="0">通</tspan></text>
    <text transform="translate(450.7766 144.1729)" style="font-family: NotoSerifSC-Regular, &apos;Noto Serif SC&apos;; font-size: 18px; isolation: isolate;"><tspan x="0" y="0">信</tspan></text>
    <text transform="translate(450.7766 165.7735)" style="font-family: NotoSerifSC-Regular, &apos;Noto Serif SC&apos;; font-size: 18px; isolation: isolate;"><tspan x="0" y="0">模</tspan></text>
    <text transform="translate(450.7766 187.3731)" style="font-family: NotoSerifSC-Regular, &apos;Noto Serif SC&apos;; font-size: 18px; isolation: isolate;"><tspan x="0" y="0">块</tspan></text>
  </g>
  <rect x="446.0146" y=".5" width="29.3333" height="253.3333" style="fill: none; stroke: #000; stroke-miterlimit: 10;"/>
  <g style="isolation: isolate;">
    <text transform="translate(7.0488 163.956)" style="font-family: NotoSerifSC-Regular, &apos;Noto Serif SC&apos;; font-size: 18px; isolation: isolate;"><tspan x="0" y="0">用户</tspan></text>
  </g>
  <g style="isolation: isolate;">
    <text transform="translate(494.9284 163.9556)" style="font-family: NotoSerifSC-Regular, &apos;Noto Serif SC&apos;; font-size: 18px; isolation: isolate;"><tspan x="0" y="0">数据库服务器</tspan></text>
  </g>
</svg>