<?xml version="1.0" encoding="UTF-8"?>
<svg id="_图层_1" xmlns="http://www.w3.org/2000/svg" viewBox="0 0 863.7 460.1905">
  <g id="SVGRepo_iconCarrier">
    <path d="M82.6717,115.8762l-10.814,5.5665c-1.3321.6857-2.1693,2.0583-2.1693,3.5565v2.0802c0,2.2092,1.7909,4,4.0002,4,.7364,0,1.3333.597,1.3333,1.3333s-.597,1.3333-1.3333,1.3333c-3.6821,0-6.6669-2.9847-6.6669-6.6667v-2.0802c0-2.497,1.3954-4.7847,3.6155-5.9275l8.954-4.6091c-2.8578-2.4918-4.5695-6.1238-4.5695-10.0499,0-7.3638,5.9695-13.3333,13.3333-13.3333,4.4709,0,8.5686,2.2185,11.0345,5.8468.4139.609.2558,1.4383-.3533,1.8522-.609.4139-1.4383.2558-1.8522-.3533-1.9746-2.9054-5.2507-4.6791-8.829-4.6791-5.891,0-10.6667,4.7756-10.6667,10.6667,0,3.7646,1.9648,7.1885,5.1207,9.1136.6286.3835.8274,1.204.4439,1.8326-.1436.2353-.3483.4104-.5814.5173h0ZM93.5851,127.2576l-10.8853,4.9478c-1.428.6491-2.3448,2.0729-2.3448,3.6415v1.8991c0,2.2091,1.7909,4,4,4h29.3333c2.2091,0,4-1.7909,4-4v-1.8991c0-1.5686-.9168-2.9924-2.3448-3.6415l-10.8853-4.9478c-1.6603.7423-3.5003,1.1551-5.4366,1.1551s-3.7763-.4128-5.4366-1.1551h0ZM90.8142,125.5879c-3.1202-2.4404-5.1258-6.2403-5.1258-10.5085,0-7.3638,5.9695-13.3333,13.3333-13.3333s13.3333,5.9695,13.3333,13.3333c0,4.2683-2.0056,8.0681-5.1258,10.5085l9.2178,4.1899c2.38,1.0818,3.908,3.4548,3.908,6.0691v1.8991c0,3.6819-2.9848,6.6667-6.6667,6.6667h-29.3333c-3.6819,0-6.6667-2.9848-6.6667-6.6667v-1.8991c0-2.6143,1.528-4.9873,3.908-6.0691l9.2178-4.1899h0ZM99.0218,125.746c5.891,0,10.6667-4.7756,10.6667-10.6667s-4.7756-10.6667-10.6667-10.6667-10.6667,4.7756-10.6667,10.6667,4.7756,10.6667,10.6667,10.6667Z"/>
  </g>
  <g>
    <polyline points="93.9424 178.4841 86.9577 178.4841 86.9577 209.7222 80.3551 209.7222 94.1329 223.5" style="fill: none; stroke: #000; stroke-miterlimit: 10;"/>
    <polyline points="93.5926 178.4841 100.5773 178.4841 100.5773 209.7222 107.1799 209.7222 93.4021 223.5" style="fill: none; stroke: #000; stroke-miterlimit: 10;"/>
  </g>
  <text transform="translate(48.6886 168.0023)" style="font-family: NotoSerifSC-Regular, &apos;Noto Serif SC&apos;; font-size: 18px;"><tspan x="0" y="0">数据库用户</tspan></text>
  <rect x="37.371" y="224.2992" width="113.5238" height="35.6825" style="fill: none; stroke: #000; stroke-miterlimit: 10;"/>
  <text transform="translate(58.1327 249.8204)" style="font-family: NotoSerifSC-Regular, &apos;Noto Serif SC&apos;; font-size: 18px;"><tspan x="0" y="0">身份鉴别</tspan></text>
  <rect x="239.7617" y="9.0419" width="156.194" height="35.6825" style="fill: none; stroke: #000; stroke-miterlimit: 10;"/>
  <text transform="translate(263.8587 34.5631)" style="font-family: NotoSerifSC-Regular, &apos;Noto Serif SC&apos;; font-size: 18px;"><tspan x="0" y="0">简单入侵检测</tspan></text>
  <g>
    <line x1="122.2287" y1="224.2992" x2="126.6489" y2="220.2418" style="fill: none; stroke: #000; stroke-miterlimit: 10;"/>
    <line x1="131.2087" y1="216.0563" x2="306.7608" y2="54.9115" style="fill: none; stroke: #000; stroke-dasharray: 12.3791 6.1896; stroke-miterlimit: 10;"/>
    <line x1="309.0407" y1="52.8187" x2="313.4609" y2="48.7613" style="fill: none; stroke: #000; stroke-miterlimit: 10;"/>
    <polygon points="313.896 53.3886 312.5508 49.5967 308.8877 47.9325 317.8587 44.7244 313.896 53.3886"/>
  </g>
  <rect x="429.4131" y="9.0419" width="70.3394" height="35.6825" style="fill: none; stroke: #000; stroke-miterlimit: 10;"/>
  <text transform="translate(446.5829 34.5631)" style="font-family: NotoSerifSC-Regular, &apos;Noto Serif SC&apos;; font-size: 18px;"><tspan x="0" y="0">审计</tspan></text>
  <g>
    <line x1="150.8948" y1="224.2992" x2="156.1019" y2="221.3183" style="fill: none; stroke: #000; stroke-miterlimit: 10;"/>
    <line x1="161.2414" y1="218.3762" x2="451.6251" y2="52.1423" style="fill: none; stroke: #000; stroke-dasharray: 11.8442 5.9221; stroke-miterlimit: 10;"/>
    <line x1="454.1948" y1="50.6712" x2="459.402" y2="47.6903" style="fill: none; stroke: #000; stroke-miterlimit: 10;"/>
    <polygon points="458.8043 52.2994 458.3299 48.304 455.1248 45.8718 464.5828 44.7244 458.8043 52.2994"/>
  </g>
  <g>
    <polyline points="150.8948 249.8993 338.5779 250.1856 369.816 250.1856 369.816 256.7881 383.5938 243.0104" style="fill: none; stroke: #000; stroke-miterlimit: 10;"/>
    <polyline points="150.8948 243.5507 150.8948 236.5659 369.816 236.5659 369.816 229.9634 383.5938 243.7411" style="fill: none; stroke: #000; stroke-miterlimit: 10;"/>
  </g>
  <rect x="384.0747" y="143.5362" width="224" height="216.5714" style="opacity: .2;"/>
  <rect x="384.0747" y="142.8536" width="224" height="216.5714" style="fill: none; stroke: #000; stroke-miterlimit: 10;"/>
  <text transform="translate(454.0746 168.571)" style="font-family: NotoSerifSC-Regular, &apos;Noto Serif SC&apos;; font-size: 18px;"><tspan x="0" y="0">推理控制</tspan></text>
  <rect x="429.6302" y="177.8695" width="178.4444" height="155.3644" style="fill: none; stroke: #000; stroke-miterlimit: 10;"/>
  <text transform="translate(464.8099 203.5097)" style="font-family: NotoSerifSC-Regular, &apos;Noto Serif SC&apos;; font-size: 18px;"><tspan x="0" y="0">强制存取控制</tspan></text>
  <text transform="translate(477.8528 238.4385)" style="font-family: NotoSerifSC-Regular, &apos;Noto Serif SC&apos;; font-size: 18px;"><tspan x="0" y="0">自主存取控制</tspan></text>
  <rect x="475.1858" y="214.2688" width="132.8889" height="90.4579" style="fill: none; stroke: #000; stroke-miterlimit: 10;"/>
  <g>
    <polyline points="429.6302 241.9644 429.6302 248.9491 460.8683 248.9491 460.8683 255.5517 474.6461 241.7739" style="fill: none; stroke: #000; stroke-miterlimit: 10;"/>
    <polyline points="429.6302 242.3142 429.6302 235.3295 460.8683 235.3295 460.8683 228.7269 474.6461 242.5047" style="fill: none; stroke: #000; stroke-miterlimit: 10;"/>
  </g>
  <g>
    <polyline points="384.0747 241.9644 384.0747 248.9491 415.3128 248.9491 415.3128 255.5517 429.0905 241.7739" style="fill: none; stroke: #000; stroke-miterlimit: 10;"/>
    <polyline points="384.0747 242.3142 384.0747 235.3295 415.3128 235.3295 415.3128 228.7269 429.0905 242.5047" style="fill: none; stroke: #000; stroke-miterlimit: 10;"/>
  </g>
  <g>
    <line x1="429.4131" y1="142.5362" x2="432.1796" y2="137.212" style="fill: none; stroke: #000; stroke-miterlimit: 10;"/>
    <line x1="434.8487" y1="132.0754" x2="473.5498" y2="57.5945" style="fill: none; stroke: #000; stroke-dasharray: 11.5773 5.7887; stroke-miterlimit: 10;"/>
    <line x1="474.8843" y1="55.0262" x2="477.6508" y2="49.702" style="fill: none; stroke: #000; stroke-miterlimit: 10;"/>
    <polygon points="479.6418 53.9017 477.0812 50.7982 473.0698 50.4868 480.4033 44.4048 479.6418 53.9017"/>
  </g>
  <g>
    <line x1="369.3534" y1="49.4215" x2="372.6056" y2="54.4636" style="fill: none; stroke: #000; stroke-miterlimit: 10;"/>
    <line x1="375.9529" y1="59.653" x2="424.4873" y2="134.8993" style="fill: none; stroke: #000; stroke-dasharray: 12.3505 6.1752; stroke-miterlimit: 10;"/>
    <line x1="426.1609" y1="137.494" x2="429.4131" y2="142.5362" style="fill: none; stroke: #000; stroke-miterlimit: 10;"/>
    <polygon points="367.7638 53.7889 370.023 50.4596 373.9877 49.7744 366.1176 44.4048 367.7638 53.7889"/>
  </g>
  <text transform="translate(464.5826 135.9271)" style="font-family: NotoSerifSC-Regular, &apos;Noto Serif SC&apos;; font-size: 18px;"><tspan x="0" y="0" style="letter-spacing: .005em;">S</tspan><tspan x="10.2954" y="0" style="letter-spacing: -.018em;">Q</tspan><tspan x="23.7778" y="0">L层</tspan></text>
  <text transform="translate(474.646 93.4705)" style="font-family: NotoSerifSC-Regular, &apos;Noto Serif SC&apos;; font-size: 18px;"><tspan x="0" y="0">多层存取控制策略</tspan></text>
  <g>
    <path d="M581.9747,97.2778c13.7143,5.5873,15.8611,11.9825,15.873,23.2381.0079,7.4679-6.0398,12.7436-14.6672,18.9063" style="fill: none; stroke: #000; stroke-dasharray: 12 6; stroke-miterlimit: 10;"/>
    <polygon points="583.2925 134.7438 584.1602 138.6726 587.5903 140.7756 578.2922 142.8536 583.2925 134.7438"/>
  </g>
  <polyline points="608.0747 242.3298 608.0747 249.3145 639.3128 249.3145 639.3128 255.9171 653.0905 242.1393" style="fill: none; stroke: #000; stroke-miterlimit: 10;"/>
  <polyline points="608.0747 242.6796 608.0747 235.6949 639.3128 235.6949 639.3128 229.0923 653.0905 242.8701" style="fill: none; stroke: #000; stroke-miterlimit: 10;"/>
  <rect x="670.4038" y="76.301" width="160.1905" height="375.6038" style="fill: none; stroke: #000; stroke-dasharray: 12 6; stroke-miterlimit: 10;"/>
  <line x1="692.0035" y1="103.2937" x2="692.0035" y2="158.8203" style="fill: none; stroke: #000; stroke-miterlimit: 10;"/>
  <g>
    <ellipse cx="750.4991" cy="103.2937" rx="58.4955" ry="13.5873" style="fill: none; stroke: #000; stroke-miterlimit: 10;"/>
    <path d="M808.9946,158.8203c0,7.5041-26.1893,13.5873-58.4955,13.5873s-58.4955-6.0832-58.4955-13.5873" style="fill: none; stroke: #000; stroke-miterlimit: 10;"/>
    <line x1="808.9946" y1="103.2937" x2="808.9946" y2="158.8203" style="fill: none; stroke: #000; stroke-miterlimit: 10;"/>
  </g>
  <text transform="translate(696.8856 143.0331)" style="font-family: NotoSerifSC-Regular, &apos;Noto Serif SC&apos;; font-size: 18px;"><tspan x="0" y="0">用户数据信息</tspan></text>
  <line x1="692.0035" y1="192.8865" x2="692.0035" y2="248.4132" style="fill: none; stroke: #000; stroke-miterlimit: 10;"/>
  <g>
    <ellipse cx="750.4991" cy="192.8865" rx="58.4955" ry="13.5873" style="fill: none; stroke: #000; stroke-miterlimit: 10;"/>
    <path d="M808.9946,248.4132c0,7.5041-26.1893,13.5873-58.4955,13.5873s-58.4955-6.0832-58.4955-13.5873" style="fill: none; stroke: #000; stroke-miterlimit: 10;"/>
    <line x1="808.9946" y1="192.8865" x2="808.9946" y2="248.4132" style="fill: none; stroke: #000; stroke-miterlimit: 10;"/>
  </g>
  <text transform="translate(696.4987 228.1767)" style="font-family: NotoSerifSC-Regular, &apos;Noto Serif SC&apos;; font-size: 18px;"><tspan x="0" y="0">用户数据备份</tspan><tspan x="36" y="21.5996">信息</tspan></text>
  <line x1="690.0432" y1="282.4794" x2="690.0432" y2="338.0061" style="fill: none; stroke: #000; stroke-miterlimit: 10;"/>
  <g>
    <ellipse cx="748.5387" cy="282.4794" rx="58.4955" ry="13.5873" style="fill: none; stroke: #000; stroke-miterlimit: 10;"/>
    <path d="M807.0342,338.0061c0,7.5041-26.1893,13.5873-58.4955,13.5873s-58.4955-6.0832-58.4955-13.5873" style="fill: none; stroke: #000; stroke-miterlimit: 10;"/>
    <line x1="807.0342" y1="282.4794" x2="807.0342" y2="338.0061" style="fill: none; stroke: #000; stroke-miterlimit: 10;"/>
  </g>
  <text transform="translate(694.5384 317.7695)" style="font-family: NotoSerifSC-Regular, &apos;Noto Serif SC&apos;; font-size: 18px;"><tspan x="0" y="0">安全数据信息</tspan><tspan x=".396" y="21.5996" style="letter-spacing: -.022em;">（</tspan><tspan x="18" y="21.5996">包括审</tspan><tspan x="72" y="21.5996" style="letter-spacing: -.022em;">计</tspan><tspan x="89.604" y="21.5996" style="letter-spacing: -.478em;">）</tspan></text>
  <line x1="690.0432" y1="371.2754" x2="690.0432" y2="426.8021" style="fill: none; stroke: #000; stroke-miterlimit: 10;"/>
  <g>
    <ellipse cx="748.5387" cy="371.2754" rx="58.4955" ry="13.5873" style="fill: none; stroke: #000; stroke-miterlimit: 10;"/>
    <path d="M807.0342,426.8021c0,7.5041-26.1893,13.5873-58.4955,13.5873s-58.4955-6.0832-58.4955-13.5873" style="fill: none; stroke: #000; stroke-miterlimit: 10;"/>
    <line x1="807.0342" y1="371.2754" x2="807.0342" y2="426.8021" style="fill: none; stroke: #000; stroke-miterlimit: 10;"/>
  </g>
  <text transform="translate(694.5384 406.5656)" style="font-family: NotoSerifSC-Regular, &apos;Noto Serif SC&apos;; font-size: 18px;"><tspan x="0" y="0">安全数据备份</tspan><tspan x="36" y="21.5996">信息</tspan></text>
  <text transform="translate(722.2662 68.7727)" style="font-family: NotoSerifSC-Regular, &apos;Noto Serif SC&apos;; font-size: 18px;"><tspan x="0" y="0">数据层</tspan></text>
</svg>