<?xml version="1.0" encoding="UTF-8"?>
<svg id="_图层_1" xmlns="http://www.w3.org/2000/svg" viewBox="0 0 787.8095 460.1905">
  <g id="SVGRepo_iconCarrier">
    <path d="M49.8486,115.8762l-10.814,5.5665c-1.3321.6857-2.1693,2.0583-2.1693,3.5565v2.0802c0,2.2092,1.7909,4,4.0002,4,.7364,0,1.3333.597,1.3333,1.3333s-.597,1.3333-1.3333,1.3333c-3.6821,0-6.6669-2.9847-6.6669-6.6667v-2.0802c0-2.497,1.3954-4.7847,3.6155-5.9275l8.954-4.6091c-2.8578-2.4918-4.5695-6.1238-4.5695-10.0499,0-7.3638,5.9695-13.3333,13.3333-13.3333,4.4709,0,8.5686,2.2185,11.0345,5.8468.4139.609.2558,1.4383-.3533,1.8522-.609.4139-1.4383.2558-1.8522-.3533-1.9746-2.9054-5.2507-4.6791-8.829-4.6791-5.891,0-10.6667,4.7756-10.6667,10.6667,0,3.7646,1.9648,7.1885,5.1207,9.1136.6286.3835.8274,1.204.4439,1.8326-.1436.2353-.3483.4104-.5814.5173h.0002ZM60.762,127.2576l-10.8853,4.9478c-1.428.6491-2.3448,2.0729-2.3448,3.6415v1.8991c0,2.2091,1.7909,4,4,4h29.3333c2.2091,0,4-1.7909,4-4v-1.8991c0-1.5686-.9168-2.9924-2.3448-3.6415l-10.8853-4.9478c-1.6603.7423-3.5003,1.1551-5.4366,1.1551s-3.7763-.4128-5.4366-1.1551h.0001ZM57.9911,125.5879c-3.1202-2.4404-5.1258-6.2403-5.1258-10.5085,0-7.3638,5.9695-13.3333,13.3333-13.3333s13.3333,5.9695,13.3333,13.3333c0,4.2683-2.0056,8.0681-5.1258,10.5085l9.2178,4.1899c2.38,1.0818,3.908,3.4548,3.908,6.0691v1.8991c0,3.6819-2.9848,6.6667-6.6667,6.6667h-29.3333c-3.6819,0-6.6667-2.9848-6.6667-6.6667v-1.8991c0-2.6143,1.528-4.9873,3.908-6.0691l9.2178-4.1899h.0001ZM66.1986,125.746c5.891,0,10.6667-4.7756,10.6667-10.6667s-4.7756-10.6667-10.6667-10.6667-10.6667,4.7756-10.6667,10.6667,4.7756,10.6667,10.6667,10.6667Z"/>
  </g>
  <g>
    <polyline points="61.1193 178.4841 54.1345 178.4841 54.1345 209.7222 47.532 209.7222 61.3097 223.5" style="fill: none; stroke: #000; stroke-miterlimit: 10;"/>
    <polyline points="60.7694 178.4841 67.7542 178.4841 67.7542 209.7222 74.3567 209.7222 60.579 223.5" style="fill: none; stroke: #000; stroke-miterlimit: 10;"/>
  </g>
  <g style="isolation: isolate;">
    <text transform="translate(15.8655 168.0023)" style="font-family: NotoSerifSC-Regular, &apos;Noto Serif SC&apos;; font-size: 18px; isolation: isolate;"><tspan x="0" y="0">数据库用户</tspan></text>
  </g>
  <rect x="4.5478" y="224.2992" width="113.5238" height="35.6825" style="fill: none; stroke: #000; stroke-miterlimit: 10;"/>
  <g style="isolation: isolate;">
    <text transform="translate(25.3096 249.8204)" style="font-family: NotoSerifSC-Regular, &apos;Noto Serif SC&apos;; font-size: 18px; isolation: isolate;"><tspan x="0" y="0">身份鉴别</tspan></text>
  </g>
  <rect x="206.9386" y="9.0419" width="156.194" height="35.6825" style="fill: none; stroke: #000; stroke-miterlimit: 10;"/>
  <g style="isolation: isolate;">
    <text transform="translate(231.0356 34.5631)" style="font-family: NotoSerifSC-Regular, &apos;Noto Serif SC&apos;; font-size: 18px; isolation: isolate;"><tspan x="0" y="0">简单入侵检测</tspan></text>
  </g>
  <g>
    <line x1="89.4056" y1="224.2992" x2="93.8257" y2="220.2418" style="fill: none; stroke: #000; stroke-miterlimit: 10;"/>
    <line x1="98.3855" y1="216.0563" x2="273.9377" y2="54.9115" style="fill: none; stroke: #000; stroke-dasharray: 12.3791 6.1896; stroke-miterlimit: 10;"/>
    <line x1="276.2176" y1="52.8187" x2="280.6377" y2="48.7613" style="fill: none; stroke: #000; stroke-miterlimit: 10;"/>
    <polygon points="281.0729 53.3886 279.7277 49.5967 276.0645 47.9325 285.0356 44.7244 281.0729 53.3886"/>
  </g>
  <rect x="396.59" y="9.0419" width="70.3394" height="35.6825" style="fill: none; stroke: #000; stroke-miterlimit: 10;"/>
  <g style="isolation: isolate;">
    <text transform="translate(413.7597 34.5631)" style="font-family: NotoSerifSC-Regular, &apos;Noto Serif SC&apos;; font-size: 18px; isolation: isolate;"><tspan x="0" y="0">审计</tspan></text>
  </g>
  <g>
    <line x1="118.0716" y1="224.2992" x2="123.2788" y2="221.3183" style="fill: none; stroke: #000; stroke-miterlimit: 10;"/>
    <line x1="128.4183" y1="218.3762" x2="418.8019" y2="52.1423" style="fill: none; stroke: #000; stroke-dasharray: 11.8442 5.9221; stroke-miterlimit: 10;"/>
    <line x1="421.3717" y1="50.6712" x2="426.5788" y2="47.6903" style="fill: none; stroke: #000; stroke-miterlimit: 10;"/>
    <polygon points="425.9812 52.2994 425.5067 48.304 422.3016 45.8718 431.7597 44.7244 425.9812 52.2994"/>
  </g>
  <g>
    <polyline points="118.0716 249.8993 305.7548 250.1856 336.9929 250.1856 336.9929 256.7881 350.7707 243.0104" style="fill: none; stroke: #000; stroke-miterlimit: 10;"/>
    <polyline points="118.0716 243.5507 118.0716 236.5659 336.9929 236.5659 336.9929 229.9634 350.7707 243.7411" style="fill: none; stroke: #000; stroke-miterlimit: 10;"/>
  </g>
  <rect x="351.2515" y="143.5362" width="224" height="216.5714" style="isolation: isolate; opacity: .2;"/>
  <rect x="351.2515" y="142.8536" width="224" height="216.5714" style="fill: none; stroke: #000; stroke-miterlimit: 10;"/>
  <g style="isolation: isolate;">
    <text transform="translate(421.2515 168.571)" style="font-family: NotoSerifSC-Regular, &apos;Noto Serif SC&apos;; font-size: 18px; isolation: isolate;"><tspan x="0" y="0">推理控制</tspan></text>
  </g>
  <rect x="396.8071" y="177.8695" width="178.4444" height="155.3644" style="fill: none; stroke: #000; stroke-miterlimit: 10;"/>
  <g style="isolation: isolate;">
    <text transform="translate(431.9868 203.5097)" style="font-family: NotoSerifSC-Regular, &apos;Noto Serif SC&apos;; font-size: 18px; isolation: isolate;"><tspan x="0" y="0">强制存取控制</tspan></text>
  </g>
  <g style="isolation: isolate;">
    <text transform="translate(445.0297 238.4385)" style="font-family: NotoSerifSC-Regular, &apos;Noto Serif SC&apos;; font-size: 18px; isolation: isolate;"><tspan x="0" y="0">自主存取控制</tspan></text>
  </g>
  <rect x="442.3627" y="214.2688" width="132.8889" height="90.4579" style="fill: none; stroke: #000; stroke-miterlimit: 10;"/>
  <g>
    <polyline points="396.8071 241.9644 396.8071 248.9491 428.0452 248.9491 428.0452 255.5517 441.823 241.7739" style="fill: none; stroke: #000; stroke-miterlimit: 10;"/>
    <polyline points="396.8071 242.3142 396.8071 235.3295 428.0452 235.3295 428.0452 228.7269 441.823 242.5047" style="fill: none; stroke: #000; stroke-miterlimit: 10;"/>
  </g>
  <g>
    <polyline points="351.2515 241.9644 351.2515 248.9491 382.4896 248.9491 382.4896 255.5517 396.2674 241.7739" style="fill: none; stroke: #000; stroke-miterlimit: 10;"/>
    <polyline points="351.2515 242.3142 351.2515 235.3295 382.4896 235.3295 382.4896 228.7269 396.2674 242.5047" style="fill: none; stroke: #000; stroke-miterlimit: 10;"/>
  </g>
  <g>
    <line x1="396.59" y1="142.5362" x2="399.3565" y2="137.212" style="fill: none; stroke: #000; stroke-miterlimit: 10;"/>
    <line x1="402.0255" y1="132.0754" x2="440.7266" y2="57.5945" style="fill: none; stroke: #000; stroke-dasharray: 11.5773 5.7887; stroke-miterlimit: 10;"/>
    <line x1="442.0612" y1="55.0262" x2="444.8277" y2="49.702" style="fill: none; stroke: #000; stroke-miterlimit: 10;"/>
    <polygon points="446.8187 53.9017 444.2581 50.7982 440.2467 50.4868 447.5802 44.4048 446.8187 53.9017"/>
  </g>
  <g>
    <line x1="336.5303" y1="49.4215" x2="339.7825" y2="54.4636" style="fill: none; stroke: #000; stroke-miterlimit: 10;"/>
    <line x1="343.1297" y1="59.653" x2="391.6642" y2="134.8993" style="fill: none; stroke: #000; stroke-dasharray: 12.3505 6.1752; stroke-miterlimit: 10;"/>
    <line x1="393.3378" y1="137.494" x2="396.59" y2="142.5362" style="fill: none; stroke: #000; stroke-miterlimit: 10;"/>
    <polygon points="334.9407 53.7889 337.1999 50.4596 341.1646 49.7744 333.2945 44.4048 334.9407 53.7889"/>
  </g>
  <g style="isolation: isolate;">
    <text transform="translate(431.7595 135.9271)" style="font-family: NotoSerifSC-Regular, &apos;Noto Serif SC&apos;; font-size: 18px; isolation: isolate; letter-spacing: .004em;"><tspan x="0" y="0">S</tspan></text>
    <text transform="translate(442.0549 135.9271)" style="font-family: NotoSerifSC-Regular, &apos;Noto Serif SC&apos;; font-size: 18px; isolation: isolate; letter-spacing: -.018em;"><tspan x="0" y="0">Q</tspan></text>
    <text transform="translate(455.5373 135.9271)" style="font-family: NotoSerifSC-Regular, &apos;Noto Serif SC&apos;; font-size: 18px; isolation: isolate;"><tspan x="0" y="0">L层</tspan></text>
  </g>
  <g style="isolation: isolate;">
    <text transform="translate(441.8228 93.4705)" style="font-family: NotoSerifSC-Regular, &apos;Noto Serif SC&apos;; font-size: 18px; isolation: isolate;"><tspan x="0" y="0">多层存取控制策略</tspan></text>
  </g>
  <g>
    <path d="M549.1516,97.2778c13.7143,5.5873,15.8611,11.9825,15.873,23.2381.0079,7.4679-6.0398,12.7436-14.6672,18.9063" style="fill: none; stroke: #000; stroke-dasharray: 12 6; stroke-miterlimit: 10;"/>
    <polygon points="550.4694 134.7438 551.3371 138.6726 554.7671 140.7756 545.4691 142.8536 550.4694 134.7438"/>
  </g>
  <polyline points="575.2515 242.3298 575.2515 249.3145 606.4896 249.3145 606.4896 255.9171 620.2674 242.1393" style="fill: none; stroke: #000; stroke-miterlimit: 10;"/>
  <polyline points="575.2515 242.6796 575.2515 235.6949 606.4896 235.6949 606.4896 229.0923 620.2674 242.8701" style="fill: none; stroke: #000; stroke-miterlimit: 10;"/>
  <rect x="620.5807" y="76.301" width="160.1905" height="375.6038" style="fill: none; stroke: #000; stroke-dasharray: 12 6; stroke-miterlimit: 10;"/>
  <line x1="642.1804" y1="103.2937" x2="642.1804" y2="158.8203" style="fill: none; stroke: #000; stroke-miterlimit: 10;"/>
  <g>
    <ellipse cx="700.6759" cy="103.2937" rx="58.4955" ry="13.5873" style="fill: none; stroke: #000; stroke-miterlimit: 10;"/>
    <path d="M759.1715,158.8203c0,7.5041-26.1893,13.5873-58.4955,13.5873s-58.4955-6.0832-58.4955-13.5873" style="fill: none; stroke: #000; stroke-miterlimit: 10;"/>
    <line x1="759.1715" y1="103.2937" x2="759.1715" y2="158.8203" style="fill: none; stroke: #000; stroke-miterlimit: 10;"/>
  </g>
  <g style="isolation: isolate;">
    <text transform="translate(647.0625 143.0331)" style="font-family: NotoSerifSC-Regular, &apos;Noto Serif SC&apos;; font-size: 18px; isolation: isolate;"><tspan x="0" y="0">用户数据信息</tspan></text>
  </g>
  <line x1="642.1804" y1="192.8865" x2="642.1804" y2="248.4132" style="fill: none; stroke: #000; stroke-miterlimit: 10;"/>
  <g>
    <ellipse cx="700.6759" cy="192.8865" rx="58.4955" ry="13.5873" style="fill: none; stroke: #000; stroke-miterlimit: 10;"/>
    <path d="M759.1715,248.4132c0,7.5041-26.1893,13.5873-58.4955,13.5873s-58.4955-6.0832-58.4955-13.5873" style="fill: none; stroke: #000; stroke-miterlimit: 10;"/>
    <line x1="759.1715" y1="192.8865" x2="759.1715" y2="248.4132" style="fill: none; stroke: #000; stroke-miterlimit: 10;"/>
  </g>
  <g style="isolation: isolate;">
    <text transform="translate(646.6756 228.1767)" style="font-family: NotoSerifSC-Regular, &apos;Noto Serif SC&apos;; font-size: 18px; isolation: isolate;"><tspan x="0" y="0">用户数据备份</tspan></text>
    <text transform="translate(682.6756 249.7763)" style="font-family: NotoSerifSC-Regular, &apos;Noto Serif SC&apos;; font-size: 18px; isolation: isolate;"><tspan x="0" y="0">信息</tspan></text>
  </g>
  <line x1="640.2201" y1="282.4794" x2="640.2201" y2="338.0061" style="fill: none; stroke: #000; stroke-miterlimit: 10;"/>
  <g>
    <ellipse cx="698.7157" cy="282.4794" rx="58.4955" ry="13.5873" style="fill: none; stroke: #000; stroke-miterlimit: 10;"/>
    <path d="M757.2111,338.0061c0,7.5041-26.1893,13.5873-58.4955,13.5873s-58.4955-6.0832-58.4955-13.5873" style="fill: none; stroke: #000; stroke-miterlimit: 10;"/>
    <line x1="757.2111" y1="282.4794" x2="757.2111" y2="338.0061" style="fill: none; stroke: #000; stroke-miterlimit: 10;"/>
  </g>
  <g style="isolation: isolate;">
    <text transform="translate(644.7153 317.7695)" style="font-family: NotoSerifSC-Regular, &apos;Noto Serif SC&apos;; font-size: 18px; isolation: isolate;"><tspan x="0" y="0">安全数据信息</tspan></text>
    <text transform="translate(636.5073 339.3691)" style="font-family: NotoSerifSC-Regular, &apos;Noto Serif SC&apos;; font-size: 18px; isolation: isolate; letter-spacing: -.044em;"><tspan x="0" y="0">（</tspan></text>
    <text transform="translate(662.7153 339.3691)" style="font-family: NotoSerifSC-Regular, &apos;Noto Serif SC&apos;; font-size: 18px; isolation: isolate;"><tspan x="0" y="0">包括审</tspan></text>
    <text transform="translate(716.7153 339.3691)" style="font-family: NotoSerifSC-Regular, &apos;Noto Serif SC&apos;; font-size: 18px; isolation: isolate; letter-spacing: -.022em;"><tspan x="0" y="0">计</tspan></text>
    <text transform="translate(733.9234 339.3691)" style="font-family: NotoSerifSC-Regular, &apos;Noto Serif SC&apos;; font-size: 18px; isolation: isolate; letter-spacing: -.956em;"><tspan x="0" y="0">）</tspan></text>
  </g>
  <line x1="640.2201" y1="371.2754" x2="640.2201" y2="426.8021" style="fill: none; stroke: #000; stroke-miterlimit: 10;"/>
  <g>
    <ellipse cx="698.7157" cy="371.2754" rx="58.4955" ry="13.5873" style="fill: none; stroke: #000; stroke-miterlimit: 10;"/>
    <path d="M757.2111,426.8021c0,7.5041-26.1893,13.5873-58.4955,13.5873s-58.4955-6.0832-58.4955-13.5873" style="fill: none; stroke: #000; stroke-miterlimit: 10;"/>
    <line x1="757.2111" y1="371.2754" x2="757.2111" y2="426.8021" style="fill: none; stroke: #000; stroke-miterlimit: 10;"/>
  </g>
  <g style="isolation: isolate;">
    <text transform="translate(644.7153 406.5656)" style="font-family: NotoSerifSC-Regular, &apos;Noto Serif SC&apos;; font-size: 18px; isolation: isolate;"><tspan x="0" y="0">安全数据备份</tspan></text>
    <text transform="translate(680.7153 428.1652)" style="font-family: NotoSerifSC-Regular, &apos;Noto Serif SC&apos;; font-size: 18px; isolation: isolate;"><tspan x="0" y="0">信息</tspan></text>
  </g>
  <g style="isolation: isolate;">
    <text transform="translate(672.4431 68.7727)" style="font-family: NotoSerifSC-Regular, &apos;Noto Serif SC&apos;; font-size: 18px; isolation: isolate;"><tspan x="0" y="0">数据层</tspan></text>
  </g>
</svg>