<?xml version="1.0" encoding="UTF-8"?>
<svg id="_图层_1" xmlns="http://www.w3.org/2000/svg" viewBox="0 0 777.2234 443.8629">
  <g id="SVGRepo_iconCarrier">
    <path d="M45.8008,107.3343l-10.814,5.5665c-1.3321.6857-2.1693,2.0583-2.1693,3.5565v2.0802c0,2.2092,1.7909,4,4.0002,4,.7364,0,1.3333.597,1.3333,1.3333s-.597,1.3333-1.3333,1.3333c-3.6821,0-6.6669-2.9847-6.6669-6.6667v-2.0802c0-2.497,1.3954-4.7847,3.6155-5.9275l8.954-4.6091c-2.8578-2.4918-4.5695-6.1238-4.5695-10.0499,0-7.3638,5.9695-13.3333,13.3333-13.3333,4.4709,0,8.5686,2.2185,11.0345,5.8468.4139.609.2558,1.4383-.3533,1.8522-.609.4139-1.4383.2558-1.8522-.3533-1.9746-2.9054-5.2507-4.6791-8.829-4.6791-5.891,0-10.6667,4.7756-10.6667,10.6667,0,3.7646,1.9648,7.1885,5.1207,9.1136.6286.3835.8274,1.204.4439,1.8326-.1436.2353-.3483.4104-.5814.5173h.0002ZM56.7142,118.7157l-10.8853,4.9478c-1.428.6491-2.3448,2.0729-2.3448,3.6415v1.8991c0,2.2091,1.7909,4,4,4h29.3333c2.2091,0,4-1.7909,4-4v-1.8991c0-1.5686-.9168-2.9924-2.3448-3.6415l-10.8853-4.9478c-1.6603.7423-3.5003,1.1551-5.4366,1.1551s-3.7763-.4128-5.4366-1.1551c0,0,0,0,0,0ZM53.9433,117.046c-3.1202-2.4404-5.1258-6.2403-5.1258-10.5085,0-7.3638,5.9695-13.3333,13.3333-13.3333s13.3333,5.9695,13.3333,13.3333c0,4.2683-2.0056,8.0681-5.1258,10.5085l9.2178,4.1899c2.38,1.0818,3.908,3.4548,3.908,6.0691v1.8991c0,3.6819-2.9848,6.6667-6.6667,6.6667h-29.3333c-3.6819,0-6.6667-2.9848-6.6667-6.6667v-1.8991c0-2.6143,1.528-4.9873,3.908-6.0691l9.2178-4.1899h0ZM62.1508,117.2041c5.891,0,10.6667-4.7756,10.6667-10.6667s-4.7756-10.6667-10.6667-10.6667-10.6667,4.7756-10.6667,10.6667,4.7756,10.6667,10.6667,10.6667Z"/>
  </g>
  <g>
    <polyline points="57.0715 169.9422 50.0867 169.9422 50.0867 201.1803 43.4842 201.1803 57.2619 214.9581" style="fill: none; stroke: #000; stroke-miterlimit: 10;"/>
    <polyline points="56.7216 169.9422 63.7064 169.9422 63.7064 201.1803 70.3089 201.1803 56.5312 214.9581" style="fill: none; stroke: #000; stroke-miterlimit: 10;"/>
  </g>
  <g style="isolation: isolate;">
    <g style="isolation: isolate;">
      <text transform="translate(11.8177 159.4604)" style="font-family: NotoSerifSC-Regular, &apos;Noto Serif SC&apos;; font-size: 18px; isolation: isolate;"><tspan x="0" y="0">数据库用户</tspan></text>
    </g>
  </g>
  <rect x=".5" y="215.7573" width="113.5238" height="35.6825" style="fill: none; stroke: #000; stroke-miterlimit: 10;"/>
  <g style="isolation: isolate;">
    <g style="isolation: isolate;">
      <text transform="translate(21.2618 241.2785)" style="font-family: NotoSerifSC-Regular, &apos;Noto Serif SC&apos;; font-size: 18px; isolation: isolate;"><tspan x="0" y="0">身份鉴别</tspan></text>
    </g>
  </g>
  <rect x="202.8908" y=".5" width="156.194" height="35.6825" style="fill: none; stroke: #000; stroke-miterlimit: 10;"/>
  <g style="isolation: isolate;">
    <g style="isolation: isolate;">
      <text transform="translate(226.9878 26.0212)" style="font-family: NotoSerifSC-Regular, &apos;Noto Serif SC&apos;; font-size: 18px; isolation: isolate;"><tspan x="0" y="0">简单入侵检测</tspan></text>
    </g>
  </g>
  <g>
    <line x1="85.3578" y1="215.7573" x2="89.7779" y2="211.6999" style="fill: none; stroke: #000; stroke-miterlimit: 10;"/>
    <line x1="94.3377" y1="207.5144" x2="269.8899" y2="46.3696" style="fill: none; stroke: #000; stroke-dasharray: 12.3791 6.1896; stroke-miterlimit: 10;"/>
    <line x1="272.1698" y1="44.2768" x2="276.5899" y2="40.2194" style="fill: none; stroke: #000; stroke-miterlimit: 10;"/>
    <polygon points="277.0251 44.8467 275.6799 41.0548 272.0167 39.3906 280.9878 36.1825 277.0251 44.8467"/>
  </g>
  <rect x="392.5422" y=".5" width="70.3394" height="35.6825" style="fill: none; stroke: #000; stroke-miterlimit: 10;"/>
  <g style="isolation: isolate;">
    <g style="isolation: isolate;">
      <text transform="translate(409.7119 26.0212)" style="font-family: NotoSerifSC-Regular, &apos;Noto Serif SC&apos;; font-size: 18px; isolation: isolate;"><tspan x="0" y="0">审计</tspan></text>
    </g>
  </g>
  <g>
    <line x1="114.0238" y1="215.7573" x2="119.231" y2="212.7764" style="fill: none; stroke: #000; stroke-miterlimit: 10;"/>
    <line x1="124.3705" y1="209.8343" x2="414.7541" y2="43.6004" style="fill: none; stroke: #000; stroke-dasharray: 11.8442 5.9221; stroke-miterlimit: 10;"/>
    <line x1="417.3239" y1="42.1293" x2="422.531" y2="39.1484" style="fill: none; stroke: #000; stroke-miterlimit: 10;"/>
    <polygon points="421.9334 43.7575 421.4589 39.7621 418.2538 37.3299 427.7119 36.1825 421.9334 43.7575"/>
  </g>
  <g>
    <polyline points="114.0238 241.3574 301.707 241.6437 332.9451 241.6437 332.9451 248.2462 346.7229 234.4685" style="fill: none; stroke: #000; stroke-miterlimit: 10;"/>
    <polyline points="114.0238 235.0088 114.0238 228.024 332.9451 228.024 332.9451 221.4215 346.7229 235.1992" style="fill: none; stroke: #000; stroke-miterlimit: 10;"/>
  </g>
  <rect x="347.2037" y="134.9943" width="224" height="216.5714" style="isolation: isolate; opacity: .2;"/>
  <rect x="347.2037" y="134.3117" width="224" height="216.5714" style="fill: none; stroke: #000; stroke-miterlimit: 10;"/>
  <g style="isolation: isolate;">
    <g style="isolation: isolate;">
      <text transform="translate(417.2037 160.0291)" style="font-family: NotoSerifSC-Regular, &apos;Noto Serif SC&apos;; font-size: 18px; isolation: isolate;"><tspan x="0" y="0">推理控制</tspan></text>
    </g>
  </g>
  <rect x="392.7593" y="169.3276" width="178.4444" height="155.3644" style="fill: none; stroke: #000; stroke-miterlimit: 10;"/>
  <g style="isolation: isolate;">
    <g style="isolation: isolate;">
      <text transform="translate(427.939 194.9678)" style="font-family: NotoSerifSC-Regular, &apos;Noto Serif SC&apos;; font-size: 18px; isolation: isolate;"><tspan x="0" y="0">强制存取控制</tspan></text>
    </g>
  </g>
  <g style="isolation: isolate;">
    <g style="isolation: isolate;">
      <text transform="translate(440.9819 229.8966)" style="font-family: NotoSerifSC-Regular, &apos;Noto Serif SC&apos;; font-size: 18px; isolation: isolate;"><tspan x="0" y="0">自主存取控制</tspan></text>
    </g>
  </g>
  <rect x="438.3149" y="205.7269" width="132.8889" height="90.4579" style="fill: none; stroke: #000; stroke-miterlimit: 10;"/>
  <g>
    <polyline points="392.7593 233.4225 392.7593 240.4072 423.9974 240.4072 423.9974 247.0098 437.7752 233.232" style="fill: none; stroke: #000; stroke-miterlimit: 10;"/>
    <polyline points="392.7593 233.7723 392.7593 226.7876 423.9974 226.7876 423.9974 220.185 437.7752 233.9628" style="fill: none; stroke: #000; stroke-miterlimit: 10;"/>
  </g>
  <g>
    <polyline points="347.2037 233.4225 347.2037 240.4072 378.4418 240.4072 378.4418 247.0098 392.2196 233.232" style="fill: none; stroke: #000; stroke-miterlimit: 10;"/>
    <polyline points="347.2037 233.7723 347.2037 226.7876 378.4418 226.7876 378.4418 220.185 392.2196 233.9628" style="fill: none; stroke: #000; stroke-miterlimit: 10;"/>
  </g>
  <g>
    <line x1="392.5422" y1="133.9943" x2="395.3087" y2="128.6701" style="fill: none; stroke: #000; stroke-miterlimit: 10;"/>
    <line x1="397.9777" y1="123.5335" x2="436.6788" y2="49.0526" style="fill: none; stroke: #000; stroke-dasharray: 11.5773 5.7887; stroke-miterlimit: 10;"/>
    <line x1="438.0134" y1="46.4843" x2="440.7799" y2="41.1601" style="fill: none; stroke: #000; stroke-miterlimit: 10;"/>
    <polygon points="442.7709 45.3598 440.2103 42.2563 436.1989 41.9449 443.5324 35.8629 442.7709 45.3598"/>
  </g>
  <g>
    <line x1="332.4825" y1="40.8796" x2="335.7347" y2="45.9217" style="fill: none; stroke: #000; stroke-miterlimit: 10;"/>
    <line x1="339.0819" y1="51.1111" x2="387.6164" y2="126.3574" style="fill: none; stroke: #000; stroke-dasharray: 12.3505 6.1752; stroke-miterlimit: 10;"/>
    <line x1="389.29" y1="128.9521" x2="392.5422" y2="133.9943" style="fill: none; stroke: #000; stroke-miterlimit: 10;"/>
    <polygon points="330.8929 45.247 333.1521 41.9177 337.1168 41.2325 329.2467 35.8629 330.8929 45.247"/>
  </g>
  <g style="isolation: isolate;">
    <g style="isolation: isolate;">
      <text transform="translate(427.7117 127.3852)" style="font-family: NotoSerifSC-Regular, &apos;Noto Serif SC&apos;; font-size: 18px; isolation: isolate; letter-spacing: .004em;"><tspan x="0" y="0">S</tspan></text>
    </g>
    <g style="isolation: isolate;">
      <text transform="translate(438.0071 127.3852)" style="font-family: NotoSerifSC-Regular, &apos;Noto Serif SC&apos;; font-size: 18px; isolation: isolate; letter-spacing: -.018em;"><tspan x="0" y="0">Q</tspan></text>
    </g>
    <g style="isolation: isolate;">
      <text transform="translate(451.4895 127.3852)" style="font-family: NotoSerifSC-Regular, &apos;Noto Serif SC&apos;; font-size: 18px; isolation: isolate;"><tspan x="0" y="0">L层</tspan></text>
    </g>
  </g>
  <g style="isolation: isolate;">
    <g style="isolation: isolate;">
      <text transform="translate(437.775 84.9286)" style="font-family: NotoSerifSC-Regular, &apos;Noto Serif SC&apos;; font-size: 18px; isolation: isolate;"><tspan x="0" y="0">多层存取控制策略</tspan></text>
    </g>
  </g>
  <g>
    <path d="M545.1038,88.7359c13.7143,5.5873,15.8611,11.9825,15.873,23.2381.0079,7.4679-6.0398,12.7436-14.6672,18.9063" style="fill: none; stroke: #000; stroke-dasharray: 12 6; stroke-miterlimit: 10;"/>
    <polygon points="546.4216 126.2019 547.2893 130.1307 550.7193 132.2337 541.4213 134.3117 546.4216 126.2019"/>
  </g>
  <polyline points="571.2037 233.7879 571.2037 240.7726 602.4418 240.7726 602.4418 247.3752 616.2196 233.5974" style="fill: none; stroke: #000; stroke-miterlimit: 10;"/>
  <polyline points="571.2037 234.1377 571.2037 227.153 602.4418 227.153 602.4418 220.5504 616.2196 234.3282" style="fill: none; stroke: #000; stroke-miterlimit: 10;"/>
  <rect x="616.5329" y="67.7591" width="160.1905" height="375.6038" style="fill: none; stroke: #000; stroke-dasharray: 12 6; stroke-miterlimit: 10;"/>
  <line x1="638.1326" y1="94.7518" x2="638.1326" y2="150.2784" style="fill: none; stroke: #000; stroke-miterlimit: 10;"/>
  <g>
    <ellipse cx="696.6281" cy="94.7518" rx="58.4955" ry="13.5873" style="fill: none; stroke: #000; stroke-miterlimit: 10;"/>
    <path d="M755.1237,150.2784c0,7.5041-26.1893,13.5873-58.4955,13.5873s-58.4955-6.0832-58.4955-13.5873" style="fill: none; stroke: #000; stroke-miterlimit: 10;"/>
    <line x1="755.1237" y1="94.7518" x2="755.1237" y2="150.2784" style="fill: none; stroke: #000; stroke-miterlimit: 10;"/>
  </g>
  <g style="isolation: isolate;">
    <g style="isolation: isolate;">
      <text transform="translate(643.0147 134.4912)" style="font-family: NotoSerifSC-Regular, &apos;Noto Serif SC&apos;; font-size: 18px; isolation: isolate;"><tspan x="0" y="0">用户数据信息</tspan></text>
    </g>
  </g>
  <line x1="638.1326" y1="184.3446" x2="638.1326" y2="239.8713" style="fill: none; stroke: #000; stroke-miterlimit: 10;"/>
  <g>
    <ellipse cx="696.6281" cy="184.3446" rx="58.4955" ry="13.5873" style="fill: none; stroke: #000; stroke-miterlimit: 10;"/>
    <path d="M755.1237,239.8713c0,7.5041-26.1893,13.5873-58.4955,13.5873s-58.4955-6.0832-58.4955-13.5873" style="fill: none; stroke: #000; stroke-miterlimit: 10;"/>
    <line x1="755.1237" y1="184.3446" x2="755.1237" y2="239.8713" style="fill: none; stroke: #000; stroke-miterlimit: 10;"/>
  </g>
  <g style="isolation: isolate;">
    <g style="isolation: isolate;">
      <text transform="translate(642.6278 219.6348)" style="font-family: NotoSerifSC-Regular, &apos;Noto Serif SC&apos;; font-size: 18px; isolation: isolate;"><tspan x="0" y="0">用户数据备份</tspan></text>
    </g>
    <g style="isolation: isolate;">
      <text transform="translate(678.6278 241.2344)" style="font-family: NotoSerifSC-Regular, &apos;Noto Serif SC&apos;; font-size: 18px; isolation: isolate;"><tspan x="0" y="0">信息</tspan></text>
    </g>
  </g>
  <line x1="636.1723" y1="273.9375" x2="636.1723" y2="329.4642" style="fill: none; stroke: #000; stroke-miterlimit: 10;"/>
  <g>
    <ellipse cx="694.6679" cy="273.9375" rx="58.4955" ry="13.5873" style="fill: none; stroke: #000; stroke-miterlimit: 10;"/>
    <path d="M753.1633,329.4642c0,7.5041-26.1893,13.5873-58.4955,13.5873s-58.4955-6.0832-58.4955-13.5873" style="fill: none; stroke: #000; stroke-miterlimit: 10;"/>
    <line x1="753.1633" y1="273.9375" x2="753.1633" y2="329.4642" style="fill: none; stroke: #000; stroke-miterlimit: 10;"/>
  </g>
  <g style="isolation: isolate;">
    <g style="isolation: isolate;">
      <text transform="translate(640.6675 309.2276)" style="font-family: NotoSerifSC-Regular, &apos;Noto Serif SC&apos;; font-size: 18px; isolation: isolate;"><tspan x="0" y="0">安全数据信息</tspan></text>
    </g>
    <g style="isolation: isolate;">
      <text transform="translate(623.8555 330.8272)" style="font-family: NotoSerifSC-Regular, &apos;Noto Serif SC&apos;; font-size: 18px; isolation: isolate; letter-spacing: -.066em;"><tspan x="0" y="0">（</tspan></text>
    </g>
    <g style="isolation: isolate;">
      <text transform="translate(658.6675 330.8272)" style="font-family: NotoSerifSC-Regular, &apos;Noto Serif SC&apos;; font-size: 18px; isolation: isolate;"><tspan x="0" y="0">包括审</tspan></text>
    </g>
    <g style="isolation: isolate;">
      <text transform="translate(712.6675 330.8272)" style="font-family: NotoSerifSC-Regular, &apos;Noto Serif SC&apos;; font-size: 18px; isolation: isolate; letter-spacing: -.022em;"><tspan x="0" y="0">计</tspan></text>
    </g>
    <g style="isolation: isolate;">
      <text transform="translate(729.4796 330.8272)" style="font-family: NotoSerifSC-Regular, &apos;Noto Serif SC&apos;; font-size: 18px; isolation: isolate; letter-spacing: -1.434em;"><tspan x="0" y="0">）</tspan></text>
    </g>
  </g>
  <line x1="636.1723" y1="362.7335" x2="636.1723" y2="418.2602" style="fill: none; stroke: #000; stroke-miterlimit: 10;"/>
  <g>
    <ellipse cx="694.6679" cy="362.7335" rx="58.4955" ry="13.5873" style="fill: none; stroke: #000; stroke-miterlimit: 10;"/>
    <path d="M753.1633,418.2602c0,7.5041-26.1893,13.5873-58.4955,13.5873s-58.4955-6.0832-58.4955-13.5873" style="fill: none; stroke: #000; stroke-miterlimit: 10;"/>
    <line x1="753.1633" y1="362.7335" x2="753.1633" y2="418.2602" style="fill: none; stroke: #000; stroke-miterlimit: 10;"/>
  </g>
  <g style="isolation: isolate;">
    <g style="isolation: isolate;">
      <text transform="translate(640.6675 398.0237)" style="font-family: NotoSerifSC-Regular, &apos;Noto Serif SC&apos;; font-size: 18px; isolation: isolate;"><tspan x="0" y="0">安全数据备份</tspan></text>
    </g>
    <g style="isolation: isolate;">
      <text transform="translate(676.6675 419.6233)" style="font-family: NotoSerifSC-Regular, &apos;Noto Serif SC&apos;; font-size: 18px; isolation: isolate;"><tspan x="0" y="0">信息</tspan></text>
    </g>
  </g>
  <g style="isolation: isolate;">
    <g style="isolation: isolate;">
      <text transform="translate(668.3953 60.2308)" style="font-family: NotoSerifSC-Regular, &apos;Noto Serif SC&apos;; font-size: 18px; isolation: isolate;"><tspan x="0" y="0">数据层</tspan></text>
    </g>
  </g>
</svg>