<?xml version="1.0" encoding="UTF-8"?>
<svg id="_图层_1" xmlns="http://www.w3.org/2000/svg" viewBox="0 0 863.7 460.1905">
  <g id="SVGRepo_iconCarrier">
    <path d="M89.0391,115.8762l-10.814,5.5665c-1.3321.6857-2.1693,2.0583-2.1693,3.5565v2.0802c0,2.2092,1.7909,4,4.0002,4,.7364,0,1.3333.597,1.3333,1.3333s-.597,1.3333-1.3333,1.3333c-3.6821,0-6.6669-2.9847-6.6669-6.6667v-2.0802c0-2.497,1.3954-4.7847,3.6155-5.9275l8.954-4.6091c-2.8578-2.4918-4.5695-6.1238-4.5695-10.0499,0-7.3638,5.9695-13.3333,13.3333-13.3333,4.4709,0,8.5686,2.2185,11.0345,5.8468.4139.609.2558,1.4383-.3533,1.8522-.609.4139-1.4383.2558-1.8522-.3533-1.9746-2.9054-5.2507-4.6791-8.829-4.6791-5.891,0-10.6667,4.7756-10.6667,10.6667,0,3.7646,1.9648,7.1885,5.1207,9.1136.6286.3835.8274,1.204.4439,1.8326-.1436.2353-.3483.4104-.5814.5173h0ZM99.9525,127.2576l-10.8853,4.9478c-1.428.6491-2.3448,2.0729-2.3448,3.6415v1.8991c0,2.2091,1.7909,4,4,4h29.3333c2.2091,0,4-1.7909,4-4v-1.8991c0-1.5686-.9168-2.9924-2.3448-3.6415l-10.8853-4.9478c-1.6603.7423-3.5003,1.1551-5.4366,1.1551s-3.7763-.4128-5.4366-1.1551h0ZM97.1816,125.5879c-3.1202-2.4404-5.1258-6.2403-5.1258-10.5085,0-7.3638,5.9695-13.3333,13.3333-13.3333s13.3333,5.9695,13.3333,13.3333c0,4.2683-2.0056,8.0681-5.1258,10.5085l9.2178,4.1899c2.38,1.0818,3.908,3.4548,3.908,6.0691v1.8991c0,3.6819-2.9848,6.6667-6.6667,6.6667h-29.3333c-3.6819,0-6.6667-2.9848-6.6667-6.6667v-1.8991c0-2.6143,1.528-4.9873,3.908-6.0691l9.2178-4.1899h0ZM105.3891,125.746c5.891,0,10.6667-4.7756,10.6667-10.6667s-4.7756-10.6667-10.6667-10.6667-10.6667,4.7756-10.6667,10.6667,4.7756,10.6667,10.6667,10.6667Z"/>
  </g>
  <g>
    <polyline points="100.3098 178.4841 93.325 178.4841 93.325 209.7222 86.7225 209.7222 100.5002 223.5" style="fill: none; stroke: #000; stroke-miterlimit: 10;"/>
    <polyline points="99.9599 178.4841 106.9447 178.4841 106.9447 209.7222 113.5472 209.7222 99.7695 223.5" style="fill: none; stroke: #000; stroke-miterlimit: 10;"/>
  </g>
  <text transform="translate(55.056 168.0023)" style="font-family: NotoSerifSC-Regular, &apos;Noto Serif SC&apos;; font-size: 18px;"><tspan x="0" y="0">数据库用户</tspan></text>
  <rect x="43.7383" y="224.2992" width="113.5238" height="35.6825" style="fill: none; stroke: #000; stroke-miterlimit: 10;"/>
  <text transform="translate(64.5001 249.8204)" style="font-family: NotoSerifSC-Regular, &apos;Noto Serif SC&apos;; font-size: 18px;"><tspan x="0" y="0">身份鉴别</tspan></text>
  <rect x="246.1291" y="9.0419" width="156.194" height="35.6825" style="fill: none; stroke: #000; stroke-miterlimit: 10;"/>
  <text transform="translate(270.2261 34.5631)" style="font-family: NotoSerifSC-Regular, &apos;Noto Serif SC&apos;; font-size: 18px;"><tspan x="0" y="0">简单入侵检测</tspan></text>
  <g>
    <line x1="128.5961" y1="224.2992" x2="133.0162" y2="220.2418" style="fill: none; stroke: #000; stroke-miterlimit: 10;"/>
    <line x1="137.576" y1="216.0563" x2="313.1282" y2="54.9115" style="fill: none; stroke: #000; stroke-dasharray: 12.3791 6.1896; stroke-miterlimit: 10;"/>
    <line x1="315.4081" y1="52.8187" x2="319.8282" y2="48.7613" style="fill: none; stroke: #000; stroke-miterlimit: 10;"/>
    <polygon points="320.2634 53.3886 318.9182 49.5967 315.255 47.9325 324.2261 44.7244 320.2634 53.3886"/>
  </g>
  <rect x="435.7805" y="9.0419" width="70.3394" height="35.6825" style="fill: none; stroke: #000; stroke-miterlimit: 10;"/>
  <text transform="translate(452.9502 34.5631)" style="font-family: NotoSerifSC-Regular, &apos;Noto Serif SC&apos;; font-size: 18px;"><tspan x="0" y="0">审计</tspan></text>
  <g>
    <line x1="157.2621" y1="224.2992" x2="162.4693" y2="221.3183" style="fill: none; stroke: #000; stroke-miterlimit: 10;"/>
    <line x1="167.6088" y1="218.3762" x2="457.9924" y2="52.1423" style="fill: none; stroke: #000; stroke-dasharray: 11.8442 5.9221; stroke-miterlimit: 10;"/>
    <line x1="460.5622" y1="50.6712" x2="465.7693" y2="47.6903" style="fill: none; stroke: #000; stroke-miterlimit: 10;"/>
    <polygon points="465.1717 52.2994 464.6972 48.304 461.4921 45.8718 470.9502 44.7244 465.1717 52.2994"/>
  </g>
  <g>
    <polyline points="157.2621 249.8993 344.9453 250.1856 376.1834 250.1856 376.1834 256.7881 389.9612 243.0104" style="fill: none; stroke: #000; stroke-miterlimit: 10;"/>
    <polyline points="157.2621 243.5507 157.2621 236.5659 376.1834 236.5659 376.1834 229.9634 389.9612 243.7411" style="fill: none; stroke: #000; stroke-miterlimit: 10;"/>
  </g>
  <rect x="390.442" y="143.5362" width="224" height="216.5714" style="opacity: .2;"/>
  <rect x="390.442" y="142.8536" width="224" height="216.5714" style="fill: none; stroke: #000; stroke-miterlimit: 10;"/>
  <text transform="translate(460.442 168.571)" style="font-family: NotoSerifSC-Regular, &apos;Noto Serif SC&apos;; font-size: 18px;"><tspan x="0" y="0">推理控制</tspan></text>
  <rect x="435.9976" y="177.8695" width="178.4444" height="155.3644" style="fill: none; stroke: #000; stroke-miterlimit: 10;"/>
  <text transform="translate(471.1773 203.5097)" style="font-family: NotoSerifSC-Regular, &apos;Noto Serif SC&apos;; font-size: 18px;"><tspan x="0" y="0">强制存取控制</tspan></text>
  <text transform="translate(484.2202 238.4385)" style="font-family: NotoSerifSC-Regular, &apos;Noto Serif SC&apos;; font-size: 18px;"><tspan x="0" y="0">自主存取控制</tspan></text>
  <rect x="481.5532" y="214.2688" width="132.8889" height="90.4579" style="fill: none; stroke: #000; stroke-miterlimit: 10;"/>
  <g>
    <polyline points="435.9976 241.9644 435.9976 248.9491 467.2357 248.9491 467.2357 255.5517 481.0135 241.7739" style="fill: none; stroke: #000; stroke-miterlimit: 10;"/>
    <polyline points="435.9976 242.3142 435.9976 235.3295 467.2357 235.3295 467.2357 228.7269 481.0135 242.5047" style="fill: none; stroke: #000; stroke-miterlimit: 10;"/>
  </g>
  <g>
    <polyline points="390.442 241.9644 390.442 248.9491 421.6801 248.9491 421.6801 255.5517 435.4579 241.7739" style="fill: none; stroke: #000; stroke-miterlimit: 10;"/>
    <polyline points="390.442 242.3142 390.442 235.3295 421.6801 235.3295 421.6801 228.7269 435.4579 242.5047" style="fill: none; stroke: #000; stroke-miterlimit: 10;"/>
  </g>
  <g>
    <line x1="435.7805" y1="142.5362" x2="438.547" y2="137.212" style="fill: none; stroke: #000; stroke-miterlimit: 10;"/>
    <line x1="441.216" y1="132.0754" x2="479.9171" y2="57.5945" style="fill: none; stroke: #000; stroke-dasharray: 11.5773 5.7887; stroke-miterlimit: 10;"/>
    <line x1="481.2517" y1="55.0262" x2="484.0182" y2="49.702" style="fill: none; stroke: #000; stroke-miterlimit: 10;"/>
    <polygon points="486.0092 53.9017 483.4486 50.7982 479.4372 50.4868 486.7707 44.4048 486.0092 53.9017"/>
  </g>
  <g>
    <line x1="375.7208" y1="49.4215" x2="378.973" y2="54.4636" style="fill: none; stroke: #000; stroke-miterlimit: 10;"/>
    <line x1="382.3202" y1="59.653" x2="430.8547" y2="134.8993" style="fill: none; stroke: #000; stroke-dasharray: 12.3505 6.1752; stroke-miterlimit: 10;"/>
    <line x1="432.5283" y1="137.494" x2="435.7805" y2="142.5362" style="fill: none; stroke: #000; stroke-miterlimit: 10;"/>
    <polygon points="374.1312 53.7889 376.3904 50.4596 380.3551 49.7744 372.485 44.4048 374.1312 53.7889"/>
  </g>
  <text transform="translate(470.95 135.9271)" style="font-family: NotoSerifSC-Regular, &apos;Noto Serif SC&apos;; font-size: 18px;"><tspan x="0" y="0" style="letter-spacing: .005em;">S</tspan><tspan x="10.2954" y="0" style="letter-spacing: -.018em;">Q</tspan><tspan x="23.7778" y="0">L层</tspan></text>
  <text transform="translate(481.0133 93.4705)" style="font-family: NotoSerifSC-Regular, &apos;Noto Serif SC&apos;; font-size: 18px;"><tspan x="0" y="0">多层存取控制策略</tspan></text>
  <g>
    <path d="M588.3421,97.2778c13.7143,5.5873,15.8611,11.9825,15.873,23.2381.0079,7.4679-6.0398,12.7436-14.6672,18.9063" style="fill: none; stroke: #000; stroke-dasharray: 12 6; stroke-miterlimit: 10;"/>
    <polygon points="589.6599 134.7438 590.5275 138.6726 593.9576 140.7756 584.6596 142.8536 589.6599 134.7438"/>
  </g>
  <polyline points="614.442 242.3298 614.442 249.3145 645.6801 249.3145 645.6801 255.9171 659.4579 242.1393" style="fill: none; stroke: #000; stroke-miterlimit: 10;"/>
  <polyline points="614.442 242.6796 614.442 235.6949 645.6801 235.6949 645.6801 229.0923 659.4579 242.8701" style="fill: none; stroke: #000; stroke-miterlimit: 10;"/>
  <rect x="659.7712" y="76.301" width="160.1905" height="375.6038" style="fill: none; stroke: #000; stroke-dasharray: 12 6; stroke-miterlimit: 10;"/>
  <line x1="681.3709" y1="103.2937" x2="681.3709" y2="158.8203" style="fill: none; stroke: #000; stroke-miterlimit: 10;"/>
  <g>
    <ellipse cx="739.8664" cy="103.2937" rx="58.4955" ry="13.5873" style="fill: none; stroke: #000; stroke-miterlimit: 10;"/>
    <path d="M798.362,158.8203c0,7.5041-26.1893,13.5873-58.4955,13.5873s-58.4955-6.0832-58.4955-13.5873" style="fill: none; stroke: #000; stroke-miterlimit: 10;"/>
    <line x1="798.362" y1="103.2937" x2="798.362" y2="158.8203" style="fill: none; stroke: #000; stroke-miterlimit: 10;"/>
  </g>
  <text transform="translate(686.2529 143.0331)" style="font-family: NotoSerifSC-Regular, &apos;Noto Serif SC&apos;; font-size: 18px;"><tspan x="0" y="0">用户数据信息</tspan></text>
  <line x1="681.3709" y1="192.8865" x2="681.3709" y2="248.4132" style="fill: none; stroke: #000; stroke-miterlimit: 10;"/>
  <g>
    <ellipse cx="739.8664" cy="192.8865" rx="58.4955" ry="13.5873" style="fill: none; stroke: #000; stroke-miterlimit: 10;"/>
    <path d="M798.362,248.4132c0,7.5041-26.1893,13.5873-58.4955,13.5873s-58.4955-6.0832-58.4955-13.5873" style="fill: none; stroke: #000; stroke-miterlimit: 10;"/>
    <line x1="798.362" y1="192.8865" x2="798.362" y2="248.4132" style="fill: none; stroke: #000; stroke-miterlimit: 10;"/>
  </g>
  <text transform="translate(685.8661 228.1767)" style="font-family: NotoSerifSC-Regular, &apos;Noto Serif SC&apos;; font-size: 18px;"><tspan x="0" y="0">用户数据备份</tspan><tspan x="36" y="21.5996">信息</tspan></text>
  <line x1="679.4106" y1="282.4794" x2="679.4106" y2="338.0061" style="fill: none; stroke: #000; stroke-miterlimit: 10;"/>
  <g>
    <ellipse cx="737.9061" cy="282.4794" rx="58.4955" ry="13.5873" style="fill: none; stroke: #000; stroke-miterlimit: 10;"/>
    <path d="M796.4016,338.0061c0,7.5041-26.1893,13.5873-58.4955,13.5873s-58.4955-6.0832-58.4955-13.5873" style="fill: none; stroke: #000; stroke-miterlimit: 10;"/>
    <line x1="796.4016" y1="282.4794" x2="796.4016" y2="338.0061" style="fill: none; stroke: #000; stroke-miterlimit: 10;"/>
  </g>
  <text transform="translate(683.9058 317.7695)" style="font-family: NotoSerifSC-Regular, &apos;Noto Serif SC&apos;; font-size: 18px;"><tspan x="0" y="0">安全数据信息</tspan><tspan x=".396" y="21.5996" style="letter-spacing: -.022em;">（</tspan><tspan x="18" y="21.5996">包括审</tspan><tspan x="72" y="21.5996" style="letter-spacing: -.022em;">计</tspan><tspan x="89.604" y="21.5996" style="letter-spacing: -.478em;">）</tspan></text>
  <line x1="679.4106" y1="371.2754" x2="679.4106" y2="426.8021" style="fill: none; stroke: #000; stroke-miterlimit: 10;"/>
  <g>
    <ellipse cx="737.9061" cy="371.2754" rx="58.4955" ry="13.5873" style="fill: none; stroke: #000; stroke-miterlimit: 10;"/>
    <path d="M796.4016,426.8021c0,7.5041-26.1893,13.5873-58.4955,13.5873s-58.4955-6.0832-58.4955-13.5873" style="fill: none; stroke: #000; stroke-miterlimit: 10;"/>
    <line x1="796.4016" y1="371.2754" x2="796.4016" y2="426.8021" style="fill: none; stroke: #000; stroke-miterlimit: 10;"/>
  </g>
  <text transform="translate(683.9058 406.5656)" style="font-family: NotoSerifSC-Regular, &apos;Noto Serif SC&apos;; font-size: 18px;"><tspan x="0" y="0">安全数据备份</tspan><tspan x="36" y="21.5996">信息</tspan></text>
  <text transform="translate(711.6336 68.7727)" style="font-family: NotoSerifSC-Regular, &apos;Noto Serif SC&apos;; font-size: 18px;"><tspan x="0" y="0">数据层</tspan></text>
</svg>