<?xml version="1.0" encoding="UTF-8"?>
<svg id="_图层_1" xmlns="http://www.w3.org/2000/svg" viewBox="0 0 269.7143 213.366">
  <g style="isolation: isolate;">
    <text transform="translate(72.182 25.9543)" style="font-family: NotoSerifSC-Regular, &apos;Noto Serif SC&apos;; font-size: 18px; isolation: isolate; letter-spacing: .004em;"><tspan x="0" y="0">S</tspan></text>
    <text transform="translate(82.4779 25.9543)" style="font-family: NotoSerifSC-Regular, &apos;Noto Serif SC&apos;; font-size: 18px; isolation: isolate; letter-spacing: -.018em;"><tspan x="0" y="0">Q</tspan></text>
    <text transform="translate(95.9593 25.9543)" style="font-family: NotoSerifSC-Regular, &apos;Noto Serif SC&apos;; font-size: 18px; isolation: isolate;"><tspan x="0" y="0">L语法分析&amp;语义检查</tspan></text>
  </g>
  <rect x="87.5642" y="60.4613" width="162.2857" height="99.4286" style="fill: none; stroke: #000; stroke-miterlimit: 10;"/>
  <g style="isolation: isolate;">
    <text transform="translate(131.7983 84.1854)" style="font-family: NotoSerifSC-Regular, &apos;Noto Serif SC&apos;; font-size: 18px; isolation: isolate; letter-spacing: -.05em;"><tspan x="0" y="0">D</tspan></text>
    <text transform="translate(144.7583 84.1854)" style="font-family: NotoSerifSC-Regular, &apos;Noto Serif SC&apos;; font-size: 18px; isolation: isolate; letter-spacing: -.028em;"><tspan x="0" y="0">A</tspan></text>
    <text transform="translate(157.1782 84.1854)" style="font-family: NotoSerifSC-Regular, &apos;Noto Serif SC&apos;; font-size: 18px; isolation: isolate;"><tspan x="0" y="0">C检查</tspan></text>
  </g>
  <g style="isolation: isolate;">
    <text transform="translate(129.5035 140.9571)" style="font-family: NotoSerifSC-Regular, &apos;Noto Serif SC&apos;; font-size: 18px; isolation: isolate;"><tspan x="0" y="0">M</tspan></text>
    <text transform="translate(147.0533 140.9571)" style="font-family: NotoSerifSC-Regular, &apos;Noto Serif SC&apos;; font-size: 18px; isolation: isolate; letter-spacing: -.028em;"><tspan x="0" y="0">A</tspan></text>
    <text transform="translate(159.4732 140.9571)" style="font-family: NotoSerifSC-Regular, &apos;Noto Serif SC&apos;; font-size: 18px; isolation: isolate;"><tspan x="0" y="0">C检查</tspan></text>
  </g>
  <g style="isolation: isolate;">
    <text transform="translate(114.7071 207.2059)" style="font-family: NotoSerifSC-Regular, &apos;Noto Serif SC&apos;; font-size: 18px; isolation: isolate;"><tspan x="0" y="0">继续语义检查</tspan></text>
  </g>
  <g>
    <line x1="168.7071" y1="34.874" x2="168.7071" y2="54.4915" style="fill: none; stroke: #000; stroke-miterlimit: 10;"/>
    <polygon points="165.0041 51.6829 168.7071 53.2562 172.4102 51.6829 168.7071 60.4613 165.0041 51.6829"/>
  </g>
  <g>
    <line x1="168.7071" y1="95.0962" x2="168.7071" y2="114.7138" style="fill: none; stroke: #000; stroke-miterlimit: 10;"/>
    <polygon points="165.0041 111.9052 168.7071 113.4784 172.4102 111.9052 168.7071 120.6835 165.0041 111.9052"/>
  </g>
  <g>
    <line x1="168.7071" y1="159.874" x2="168.7071" y2="179.4915" style="fill: none; stroke: #000; stroke-miterlimit: 10;"/>
    <polygon points="165.0041 176.6829 168.7071 178.2562 172.4102 176.6829 168.7071 185.4613 165.0041 176.6829"/>
  </g>
  <g style="isolation: isolate;">
    <text transform="translate(1.6953 112.9552)" style="font-family: NotoSerifSC-Regular, &apos;Noto Serif SC&apos;; font-size: 18px; isolation: isolate;"><tspan x="0" y="0">安全检查</tspan></text>
  </g>
</svg>