<?xml version="1.0" encoding="UTF-8"?>
<svg id="_图层_1" xmlns="http://www.w3.org/2000/svg" viewBox="0 0 644 68.9524">
  <g>
    <rect x="30.0177" y="4.3465" width="70.0952" height="32.0494" style="fill: none; stroke: #000; stroke-miterlimit: 10;"/>
    <g style="isolation: isolate;">
      <g style="isolation: isolate;">
        <text transform="translate(47.065 26.8229)" style="font-family: NotoSerifSC-Regular, &apos;Noto Serif SC&apos;; font-size: 18px; isolation: isolate;"><tspan x="0" y="0">用户</tspan></text>
      </g>
    </g>
  </g>
  <g>
    <rect x="159.5612" y="4.3465" width="158.8571" height="32.0494" style="fill: none; stroke: #000; stroke-miterlimit: 10;"/>
    <g style="isolation: isolate;">
      <g style="isolation: isolate;">
        <text transform="translate(176.6086 26.8229)" style="font-family: NotoSerifSC-Regular, &apos;Noto Serif SC&apos;; font-size: 18px; isolation: isolate;"><tspan x="0" y="0">数据库管理系统</tspan></text>
      </g>
    </g>
  </g>
  <g>
    <rect x="378.9846" y="4.3465" width="107.3674" height="32.0494" style="fill: none; stroke: #000; stroke-miterlimit: 10;"/>
    <g style="isolation: isolate;">
      <g style="isolation: isolate;">
        <text transform="translate(396.032 26.8229)" style="font-family: NotoSerifSC-Regular, &apos;Noto Serif SC&apos;; font-size: 18px; isolation: isolate;"><tspan x="0" y="0">操作系统</tspan></text>
      </g>
    </g>
  </g>
  <g>
    <rect x="545.8001" y="4.3465" width="84.6441" height="32.0494" style="fill: none; stroke: #000; stroke-miterlimit: 10;"/>
    <g style="isolation: isolate;">
      <g style="isolation: isolate;">
        <text transform="translate(562.8476 26.8229)" style="font-family: NotoSerifSC-Regular, &apos;Noto Serif SC&apos;; font-size: 18px; isolation: isolate;"><tspan x="0" y="0">数据库</tspan></text>
      </g>
    </g>
  </g>
  <g>
    <line x1="100.1129" y1="12.0631" x2="153.5914" y2="12.0631" style="fill: none; stroke: #000; stroke-miterlimit: 10;"/>
    <polygon points="150.7829 15.7663 152.3561 12.0631 150.7829 8.36 159.5612 12.0631 150.7829 15.7663"/>
  </g>
  <g>
    <line x1="159.5612" y1="28.6588" x2="106.0827" y2="28.6588" style="fill: none; stroke: #000; stroke-miterlimit: 10;"/>
    <polygon points="108.8913 24.9557 107.3179 28.6588 108.8913 32.362 100.1129 28.6588 108.8913 24.9557"/>
  </g>
  <g>
    <line x1="318.9773" y1="12.0733" x2="372.4558" y2="12.0733" style="fill: none; stroke: #000; stroke-miterlimit: 10;"/>
    <polygon points="369.6472 15.7765 371.2205 12.0733 369.6472 8.3702 378.4255 12.0733 369.6472 15.7765"/>
  </g>
  <g>
    <line x1="378.4255" y1="28.6691" x2="324.9471" y2="28.6691" style="fill: none; stroke: #000; stroke-miterlimit: 10;"/>
    <polygon points="327.7556 24.9659 326.1823 28.6691 327.7556 32.3722 318.9773 28.6691 327.7556 24.9659"/>
  </g>
  <g>
    <line x1="486.352" y1="12.0733" x2="539.8305" y2="12.0733" style="fill: none; stroke: #000; stroke-miterlimit: 10;"/>
    <polygon points="537.0219 15.7765 538.5951 12.0733 537.0219 8.3702 545.8001 12.0733 537.0219 15.7765"/>
  </g>
  <g>
    <line x1="545.8001" y1="28.6691" x2="492.3216" y2="28.6691" style="fill: none; stroke: #000; stroke-miterlimit: 10;"/>
    <polygon points="495.1303 24.9659 493.557 28.6691 495.1303 32.3722 486.352 28.6691 495.1303 24.9659"/>
  </g>
  <g style="isolation: isolate;">
    <g style="isolation: isolate;">
      <text transform="translate(2.0654 65.4162)" style="font-family: NotoSerifSC-Regular, &apos;Noto Serif SC&apos;; font-size: 18px; isolation: isolate;"><tspan x="0" y="0">用户标识和鉴别</tspan></text>
    </g>
  </g>
  <g style="isolation: isolate;">
    <g style="isolation: isolate;">
      <text transform="translate(175.99 65.4163)" style="font-family: NotoSerifSC-Regular, &apos;Noto Serif SC&apos;; font-size: 18px; isolation: isolate;"><tspan x="0" y="0">数据库安全保护</tspan></text>
    </g>
  </g>
  <g style="isolation: isolate;">
    <g style="isolation: isolate;">
      <text transform="translate(360.6679 65.416)" style="font-family: NotoSerifSC-Regular, &apos;Noto Serif SC&apos;; font-size: 18px; isolation: isolate;"><tspan x="0" y="0">操作系统安全保护</tspan></text>
    </g>
  </g>
  <g style="isolation: isolate;">
    <g style="isolation: isolate;">
      <text transform="translate(534.122 65.4161)" style="font-family: NotoSerifSC-Regular, &apos;Noto Serif SC&apos;; font-size: 18px; isolation: isolate;"><tspan x="0" y="0">数据密码存储</tspan></text>
    </g>
  </g>
</svg>