<?xml version="1.0" encoding="UTF-8"?>
<svg id="_图层_1" xmlns="http://www.w3.org/2000/svg" viewBox="0 0 863.7 68.9524">
  <g>
    <rect x="131.6367" y="4.3465" width="70.0952" height="32.0494" style="fill: none; stroke: #000; stroke-miterlimit: 10;"/>
    <text transform="translate(148.6841 26.8229)" style="font-family: SimSun, SimSun; font-size: 18px;"><tspan x="0" y="0">用户</tspan></text>
  </g>
  <g>
    <rect x="261.1802" y="4.3465" width="158.8571" height="32.0494" style="fill: none; stroke: #000; stroke-miterlimit: 10;"/>
    <text transform="translate(278.2276 26.8229)" style="font-family: SimSun, SimSun; font-size: 18px;"><tspan x="0" y="0">数据库管理系统</tspan></text>
  </g>
  <g>
    <rect x="480.6036" y="4.3465" width="107.3674" height="32.0494" style="fill: none; stroke: #000; stroke-miterlimit: 10;"/>
    <text transform="translate(497.651 26.8229)" style="font-family: SimSun, SimSun; font-size: 18px;"><tspan x="0" y="0">操作系统</tspan></text>
  </g>
  <g>
    <rect x="647.4192" y="4.3465" width="84.6441" height="32.0494" style="fill: none; stroke: #000; stroke-miterlimit: 10;"/>
    <text transform="translate(664.4666 26.8229)" style="font-family: SimSun, SimSun; font-size: 18px;"><tspan x="0" y="0">数据库</tspan></text>
  </g>
  <g>
    <line x1="201.732" y1="12.0631" x2="255.2104" y2="12.0631" style="fill: none; stroke: #000; stroke-miterlimit: 10;"/>
    <polygon points="252.4019 15.7663 253.9751 12.0631 252.4019 8.36 261.1802 12.0631 252.4019 15.7663"/>
  </g>
  <g>
    <line x1="261.1802" y1="28.6588" x2="207.7017" y2="28.6588" style="fill: none; stroke: #000; stroke-miterlimit: 10;"/>
    <polygon points="210.5103 24.9557 208.937 28.6588 210.5103 32.362 201.732 28.6588 210.5103 24.9557"/>
  </g>
  <g>
    <line x1="420.5963" y1="12.0733" x2="474.0748" y2="12.0733" style="fill: none; stroke: #000; stroke-miterlimit: 10;"/>
    <polygon points="471.2662 15.7765 472.8395 12.0733 471.2662 8.3702 480.0446 12.0733 471.2662 15.7765"/>
  </g>
  <g>
    <line x1="480.0446" y1="28.6691" x2="426.5661" y2="28.6691" style="fill: none; stroke: #000; stroke-miterlimit: 10;"/>
    <polygon points="429.3747 24.9659 427.8014 28.6691 429.3747 32.3722 420.5963 28.6691 429.3747 24.9659"/>
  </g>
  <g>
    <line x1="587.971" y1="12.0733" x2="641.4495" y2="12.0733" style="fill: none; stroke: #000; stroke-miterlimit: 10;"/>
    <polygon points="638.6409 15.7765 640.2141 12.0733 638.6409 8.3702 647.4192 12.0733 638.6409 15.7765"/>
  </g>
  <g>
    <line x1="647.4192" y1="28.6691" x2="593.9407" y2="28.6691" style="fill: none; stroke: #000; stroke-miterlimit: 10;"/>
    <polygon points="596.7493 24.9659 595.1761 28.6691 596.7493 32.3722 587.971 28.6691 596.7493 24.9659"/>
  </g>
  <text transform="translate(103.6844 65.4162)" style="font-family: SimSun, SimSun; font-size: 18px;"><tspan x="0" y="0">用户标识和鉴别</tspan></text>
  <text transform="translate(277.609 65.4163)" style="font-family: SimSun, SimSun; font-size: 18px;"><tspan x="0" y="0">数据库安全保护</tspan></text>
  <text transform="translate(462.287 65.416)" style="font-family: SimSun, SimSun; font-size: 18px;"><tspan x="0" y="0">操作系统安全保护</tspan></text>
  <text transform="translate(635.741 65.4161)" style="font-family: SimSun, SimSun; font-size: 18px;"><tspan x="0" y="0">数据密码存储</tspan></text>
</svg>