<?xml version="1.0" encoding="UTF-8"?>
<svg id="_图层_1" data-name=" 图层 1" xmlns="http://www.w3.org/2000/svg" viewBox="0 0 863.7 303.2381">
  <g>
    <line x1="191.5643" y1="69.0952" x2="672.1357" y2="69.0952" style="fill: none; stroke: #000; stroke-miterlimit: 10;"/>
    <line x1="191.5643" y1="113.3492" x2="672.1357" y2="113.3492" style="fill: none; stroke: #000; stroke-miterlimit: 10;"/>
    <line x1="191.5643" y1="213.6032" x2="672.1357" y2="213.6032" style="fill: none; stroke: #000; stroke-miterlimit: 10;"/>
    <line x1="302.9841" y1="69.0952" x2="302.9841" y2="213.6032" style="fill: none; stroke: #000; stroke-miterlimit: 10;"/>
    <line x1="431.85" y1="69.0952" x2="431.85" y2="213.6032" style="fill: none; stroke: #000; stroke-miterlimit: 10;"/>
    <line x1="561.6508" y1="69.0952" x2="561.6508" y2="213.6032" style="fill: none; stroke: #000; stroke-miterlimit: 10;"/>
  </g>
  <g>
    <line x1="246.7937" y1="47.3492" x2="246.7937" y2="84.808" style="fill: none; stroke: #000; stroke-miterlimit: 10;"/>
    <polygon points="243.0905 81.9995 246.7937 83.5727 250.4968 81.9995 246.7937 90.7778 243.0905 81.9995"/>
  </g>
  <text transform="translate(219.7938 35.397)" style="font-family: NotoSerifSC-ExtraLight, &apos;Noto Serif SC&apos;; font-size: 18px; font-weight: 200;"><tspan x="0" y="0">关系名</tspan></text>
  <text transform="translate(471.6665 35.397)" style="font-family: NotoSerifSC-ExtraLight, &apos;Noto Serif SC&apos;; font-size: 18px; font-weight: 200;"><tspan x="0" y="0">属性名</tspan></text>
  <g>
    <line x1="498.6667" y1="47.3492" x2="498.6667" y2="84.808" style="fill: none; stroke: #000; stroke-miterlimit: 10;"/>
    <polygon points="494.9635 81.9995 498.6667 83.5727 502.3698 81.9995 498.6667 90.7778 494.9635 81.9995"/>
  </g>
  <g>
    <line x1="472.381" y1="47.3492" x2="375.0234" y2="88.4557" style="fill: none; stroke: #000; stroke-miterlimit: 10;"/>
    <polygon points="376.1704 83.9518 376.1615 87.9752 379.0512 90.7748 369.5238 90.7778 376.1704 83.9518"/>
  </g>
  <g>
    <line x1="522.6508" y1="47.3492" x2="620.0083" y2="88.4557" style="fill: none; stroke: #000; stroke-miterlimit: 10;"/>
    <polygon points="615.9805 90.7748 618.8702 87.9752 618.8613 83.9518 625.5079 90.7778 615.9805 90.7748"/>
  </g>
  <text transform="translate(210.7937 262.6156)" style="font-family: NotoSerifSC-ExtraLight, &apos;Noto Serif SC&apos;; font-size: 18px; font-weight: 200;"><tspan x="0" y="0">操作命令</tspan></text>
  <g>
    <line x1="246.7937" y1="236.9206" x2="246.7937" y2="199.4618" style="fill: none; stroke: #000; stroke-miterlimit: 10;"/>
    <polygon points="250.4968 202.2704 246.7937 200.6971 243.0905 202.2704 246.7937 193.4921 250.4968 202.2704"/>
  </g>
  <text transform="translate(407.5158 262.6162)" style="font-family: NotoSerifSC-ExtraLight, &apos;Noto Serif SC&apos;; font-size: 18px; font-weight: 200;"><tspan x="0" y="0">元组属性值或查询条件</tspan></text>
  <g>
    <line x1="497.5159" y1="235.3175" x2="497.5159" y2="197.8586" style="fill: none; stroke: #000; stroke-miterlimit: 10;"/>
    <polygon points="501.219 200.6672 497.5159 199.094 493.8128 200.6672 497.5159 191.8889 501.219 200.6672"/>
  </g>
  <g>
    <line x1="523.8016" y1="235.3175" x2="621.1591" y2="194.2109" style="fill: none; stroke: #000; stroke-miterlimit: 10;"/>
    <polygon points="620.0121 198.7149 620.0211 194.6915 617.1313 191.8919 626.6587 191.8889 620.0121 198.7149"/>
  </g>
  <g>
    <line x1="473.5317" y1="235.3175" x2="376.1742" y2="194.2109" style="fill: none; stroke: #000; stroke-miterlimit: 10;"/>
    <polygon points="380.202 191.8919 377.3123 194.6915 377.3212 198.7149 370.6746 191.8889 380.202 191.8919"/>
  </g>
</svg>