<?xml version="1.0" encoding="UTF-8"?>
<svg id="_图层_1" data-name=" 图层 1" xmlns="http://www.w3.org/2000/svg" viewBox="0 0 863.7 204.4159">
  <g>
    <g>
      <g>
        <text transform="translate(132.9309 32.0194)" style="font-family: NotoSerifSC-ExtraLight, &apos;Noto Serif SC&apos;; font-size: 18px; font-weight: 200;"><tspan x="0" y="0">学生关系</tspan></text>
        <text transform="translate(274.4113 32.0193)" style="font-family: NotoSerifSC-ExtraLight, &apos;Noto Serif SC&apos;; font-size: 18px; font-weight: 200;"><tspan x="0" y="0">专业关系</tspan></text>
        <g>
          <line x1="206.0647" y1="25.1796" x2="268.0949" y2="25.1796" style="fill: none; stroke: #000; stroke-miterlimit: 10;"/>
          <polygon points="265.2863 28.8827 266.8596 25.1796 265.2863 21.4764 274.0647 25.1796 265.2863 28.8827"/>
        </g>
        <text transform="translate(207.737 20.6083)" style="font-family: NotoSerifSC-ExtraLight, &apos;Noto Serif SC&apos;; font-size: 18px; font-weight: 200;"><tspan x="0" y="0">专业号</tspan></text>
      </g>
      <text transform="translate(228.4215 70.3022)" style="font-family: NotoSerifSC-ExtraLight, &apos;Noto Serif SC&apos;; font-size: 18px; font-weight: 200;"><tspan x="0" y="0" style="letter-spacing: .004em;">(</tspan><tspan x="6.3716" y="0" style="letter-spacing: 0em;">a)</tspan></text>
    </g>
    <g>
      <g>
        <text transform="translate(375.2097 32.0195)" style="font-family: NotoSerifSC-ExtraLight, &apos;Noto Serif SC&apos;; font-size: 18px; font-weight: 200;"><tspan x="0" y="0">学生关系</tspan></text>
        <text transform="translate(516.69 32.0194)" style="font-family: NotoSerifSC-ExtraLight, &apos;Noto Serif SC&apos;; font-size: 18px; font-weight: 200;"><tspan x="0" y="0">选修关系</tspan></text>
        <g>
          <line x1="454.3131" y1="25.1797" x2="510.3737" y2="25.1797" style="fill: none; stroke: #000; stroke-miterlimit: 10;"/>
          <polygon points="457.1217 28.8828 455.5485 25.1797 457.1217 21.4766 448.3434 25.1797 457.1217 28.8828"/>
          <polygon points="507.5651 28.8828 509.1383 25.1797 507.5651 21.4766 516.3434 25.1797 507.5651 28.8828"/>
        </g>
        <text transform="translate(464.0157 20.6084)" style="font-family: NotoSerifSC-ExtraLight, &apos;Noto Serif SC&apos;; font-size: 18px; font-weight: 200;"><tspan x="0" y="0">学号</tspan></text>
        <text transform="translate(658.7687 32.0194)" style="font-family: NotoSerifSC-ExtraLight, &apos;Noto Serif SC&apos;; font-size: 18px; font-weight: 200;"><tspan x="0" y="0">课程关系</tspan></text>
        <g>
          <line x1="596.0396" y1="25.1795" x2="652.1002" y2="25.1795" style="fill: none; stroke: #000; stroke-miterlimit: 10;"/>
          <polygon points="598.8482 28.8826 597.275 25.1795 598.8482 21.4763 590.0699 25.1795 598.8482 28.8826"/>
          <polygon points="649.2916 28.8826 650.8648 25.1795 649.2916 21.4763 658.0699 25.1795 649.2916 28.8826"/>
        </g>
        <text transform="translate(597.8042 20.6082)" style="font-family: NotoSerifSC-ExtraLight, &apos;Noto Serif SC&apos;; font-size: 18px; font-weight: 200;"><tspan x="0" y="0">课程号</tspan></text>
      </g>
      <text transform="translate(541.2267 70.3024)" style="font-family: NotoSerifSC-ExtraLight, &apos;Noto Serif SC&apos;; font-size: 18px; font-weight: 200;"><tspan x="0" y="0">(</tspan><tspan x="6.2998" y="0" style="letter-spacing: -.018em;">b</tspan><tspan x="17.2261" y="0">)</tspan></text>
    </g>
  </g>
  <g>
    <text transform="translate(351.9952 132.7285)" style="font-family: NotoSerifSC-ExtraLight, &apos;Noto Serif SC&apos;; font-size: 18px; font-weight: 200;"><tspan x="0" y="0">学生关系</tspan></text>
    <text transform="translate(475.7045 134.8884)" style="font-family: NotoSerifSC-ExtraLight, &apos;Noto Serif SC&apos;; font-size: 18px; font-weight: 200;"><tspan x="0" y="0">学号</tspan></text>
    <g>
      <path d="M390.9485,109.8276c6.4251-13.008,19.8254-21.9548,35.3155-21.9548,21.7407,0,39.3651,17.6244,39.3651,39.3651s-17.6244,39.3651-39.3651,39.3651c-13.4388,0-25.3047-6.7342-32.4074-17.0121" style="fill: none; stroke: #000; stroke-miterlimit: 10;"/>
      <polygon points="398.5555 150.0318 394.5726 150.6016 392.2178 153.864 390.8445 144.4361 398.5555 150.0318"/>
    </g>
    <text transform="translate(419.0678 195.3079)" style="font-family: NotoSerifSC-ExtraLight, &apos;Noto Serif SC&apos;; font-size: 18px; font-weight: 200;"><tspan x="0" y="0" style="letter-spacing: -.025em;">(</tspan><tspan x="5.8501" y="0">c)</tspan></text>
  </g>
</svg>