<?xml version="1.0" encoding="UTF-8"?>
<svg xmlns="http://www.w3.org/2000/svg" version="1.1" viewBox="0 0 863.7 403.7">
  <defs>
    <style>
      .cls-1 {
        font-size: 11.8px;
      }

      .cls-1, .cls-2, .cls-3, .cls-4, .cls-5, .cls-6, .cls-7 {
        font-style: italic;
      }

      .cls-1, .cls-2, .cls-3, .cls-4, .cls-7 {
        font-family: 'KaTeX_Math-Italic', KaTeX_Math;
      }

      .cls-1, .cls-2, .cls-4, .cls-5, .cls-6, .cls-8, .cls-9 {
        isolation: isolate;
      }

      .cls-10 {
        font-family: AdobeSongStd-Light-GBpc-EUC-H, 'Adobe Song Std';
        font-weight: 300;
      }

      .cls-11 {
        stroke: #000;
        stroke-miterlimit: 10;
      }

      .cls-11, .cls-12 {
        fill: none;
      }

      .cls-2, .cls-6, .cls-9 {
        font-size: 18px;
      }

      .cls-3 {
        font-size: 11.5px;
      }

      .cls-4 {
        font-size: 10.8px;
      }

      .cls-5 {
        font-size: 20.7px;
      }

      .cls-5, .cls-6 {
        font-family: 'KaTeX_Math-BoldItalic', KaTeX_Math;
        font-weight: 700;
      }

      .cls-8 {
        font-family: NotoSerifSC-Regular, 'Noto Serif SC';
        font-size: 14.8px;
      }
    </style>
  </defs>
  <!-- Generator: Adobe Illustrator 28.7.1, SVG Export Plug-In . SVG Version: 1.2.0 Build 142)  -->
  <g>
    <g id="_图层_1" data-name="图层_1">
      <line class="cls-12" x1="265" y1="308.5" x2="206.7" y2="384.4"/>
      <g>
        <line class="cls-11" x1="265" y1="308.5" x2="210.3" y2="379.6"/>
        <polygon points="209.1 375.1 211.1 378.6 215 379.7 206.7 384.4 209.1 375.1"/>
      </g>
      <line class="cls-12" x1="265" y1="308.5" x2="408.9" y2="308.5"/>
      <g>
        <line class="cls-11" x1="265" y1="308.5" x2="402.9" y2="308.5"/>
        <polygon points="400.1 312.2 401.7 308.5 400.1 304.8 408.9 308.5 400.1 312.2"/>
      </g>
      <line class="cls-12" x1="265" y1="308.6" x2="265" y2="157.7"/>
      <g>
        <line class="cls-11" x1="265" y1="308.6" x2="265" y2="163.6"/>
        <polygon points="268.7 166.5 265 164.9 261.3 166.5 265 157.7 268.7 166.5"/>
      </g>
      <line class="cls-12" x1="264.8" y1="308.6" x2="557" y2="139.7"/>
      <g>
        <line class="cls-11" x1="264.8" y1="308.6" x2="551.8" y2="142.7"/>
        <polygon points="551.3 147.3 550.8 143.3 547.5 140.9 557 139.7 551.3 147.3"/>
      </g>
      <path class="cls-12" d="M446.4,110"/>
      <path class="cls-12" d="M556.9,140.2"/>
      <g>
        <path class="cls-11" d="M452.2,111.5"/>
        <path class="cls-11" d="M556.9,140.2"/>
      </g>
      <text class="cls-2" transform="translate(574.2 44.7)"><tspan x="0" y="0">Q</tspan></text>
      <text class="cls-6" transform="translate(271.8 171.9)"><tspan x="0" y="0">k</tspan></text>
      <text class="cls-6" transform="translate(217 391.9)"><tspan x="0" y="0">i</tspan></text>
      <text class="cls-6" transform="translate(401.5 327.5)"><tspan x="0" y="0">j</tspan></text>
      <text class="cls-2" transform="translate(584.6 152)"><tspan x="0" y="0">P</tspan></text>
      <text class="cls-1" transform="translate(600.6 219.7) scale(.9 1)"><tspan x="0" y="0">1</tspan></text>
      <text class="cls-4" transform="translate(499.8 64.5)"><tspan x="0" y="0">3</tspan></text>
      <g>
        <line class="cls-11" x1="556.9" y1="139.9" x2="569.8" y2="55.1"/>
        <polygon points="572.3 57.5 571.1 46.3 566.6 56.6 572.3 57.5"/>
      </g>
      <g>
        <line class="cls-11" x1="265" y1="308.5" x2="564.4" y2="52.1"/>
        <polygon points="564.8 55.6 571.1 46.3 561 51.2 564.8 55.6"/>
      </g>
      <text class="cls-8" transform="translate(577.1 34.5) scale(1.1 1)"><tspan x="0" y="0">~</tspan></text>
      <text class="cls-3" transform="translate(652.4 101.7) scale(.8 1)"><tspan x="0" y="0">2</tspan></text>
      <g>
        <line class="cls-11" x1="265" y1="308.8" x2="303.3" y2="232.1"/>
        <polygon points="305 235.2 307.3 224.2 299.8 232.6 305 235.2"/>
      </g>
      <text class="cls-2" transform="translate(305.6 218.1)"><tspan x="0" y="0">Q</tspan></text>
      <circle cx="306.3" cy="224.7" r="2.8"/>
      <circle cx="570.9" cy="46.3" r="2.8"/>
      <text class="cls-2" transform="translate(265 328.4)"><tspan x="0" y="0">O</tspan></text>
      <circle cx="264.9" cy="308.6" r="2.8"/>
      <circle cx="556.9" cy="139.7" r="2.8"/>
      <text class="cls-9" transform="translate(245.3 247.5)"><tspan class="cls-10" x="0" y="0">(</tspan><tspan class="cls-7" x="6.7" y="0">x</tspan><tspan class="cls-10" x="17" y="0">,</tspan><tspan class="cls-7" x="21.3" y="0">y</tspan><tspan class="cls-10" x="30.1" y="0">,</tspan><tspan class="cls-7" x="34.4" y="0">z</tspan><tspan class="cls-10" x="42.8" y="0">)</tspan></text>
      <text class="cls-9" transform="translate(387.4 159.4)"><tspan class="cls-10" x="0" y="0">(</tspan><tspan class="cls-7" x="6.7" y="0">x</tspan><tspan class="cls-10" x="17" y="0">,</tspan><tspan class="cls-7" x="21.3" y="0">y</tspan><tspan class="cls-10" x="30.1" y="0">,</tspan><tspan class="cls-7" x="34.4" y="0">z</tspan><tspan class="cls-10" x="42.8" y="0">)</tspan></text>
      <text class="cls-8" transform="translate(394.8 153.5) scale(1.1 1)"><tspan x="0" y="0">~</tspan></text>
      <text class="cls-8" transform="translate(408.8 153.5) scale(1.1 1)"><tspan x="0" y="0">~</tspan></text>
      <text class="cls-8" transform="translate(422 153.8) scale(1.1 1)"><tspan x="0" y="0">~</tspan></text>
      <text class="cls-5" transform="translate(591.6 219.1) scale(.9 1)"><tspan x="0" y="0">e</tspan></text>
      <text class="cls-5" transform="translate(643.1 100.7) scale(.9 1)"><tspan x="0" y="0">e</tspan></text>
      <text class="cls-5" transform="translate(490.1 65.4) scale(.9 1)"><tspan x="0" y="0">e</tspan></text>
      <g>
        <line class="cls-11" x1="556.9" y1="139.7" x2="587.6" y2="220.1"/>
        <polygon points="583.1 218.8 587.1 218.9 590 216.1 589.7 225.6 583.1 218.8"/>
      </g>
      <g>
        <line class="cls-11" x1="557.7" y1="139.4" x2="642.4" y2="86"/>
        <polygon points="642 90.6 641.4 86.6 638.1 84.4 647.5 82.8 642 90.6"/>
      </g>
      <g>
        <line class="cls-11" x1="556.9" y1="139.4" x2="488.2" y2="70.4"/>
        <polygon points="492.8 69.8 489.1 71.3 487.6 75 484 66.2 492.8 69.8"/>
      </g>
    </g>
  </g>
</svg>