<?xml version="1.0" encoding="UTF-8"?>
<svg xmlns="http://www.w3.org/2000/svg" version="1.1" viewBox="0 0 863.7 403.7">
  <defs>
    <style>
      .cls-1 {
        font-size: 11.8px;
      }

      .cls-1, .cls-2, .cls-3, .cls-4, .cls-5 {
        font-family: 'KaTeX_Math-Italic', KaTeX_Math;
        font-style: italic;
      }

      .cls-1, .cls-2, .cls-4, .cls-6, .cls-7 {
        isolation: isolate;
      }

      .cls-8 {
        font-family: AdobeSongStd-Light-GBpc-EUC-H, 'Adobe Song Std';
        font-weight: 300;
      }

      .cls-9 {
        stroke: #000;
        stroke-miterlimit: 10;
      }

      .cls-9, .cls-10 {
        fill: none;
      }

      .cls-2, .cls-7 {
        font-size: 18px;
      }

      .cls-3 {
        font-size: 11.5px;
      }

      .cls-4 {
        font-size: 10.8px;
      }

      .cls-6 {
        font-family: NotoSerifSC-Regular, 'Noto Serif SC';
        font-size: 14.8px;
      }
    </style>
  </defs>
  <!-- Generator: Adobe Illustrator 28.7.1, SVG Export Plug-In . SVG Version: 1.2.0 Build 142)  -->
  <g>
    <g id="_图层_1" data-name="图层_1">
      <line class="cls-10" x1="253.8" y1="308.5" x2="195.5" y2="384.4"/>
      <g>
        <line class="cls-9" x1="253.8" y1="308.5" x2="199.1" y2="379.6"/>
        <polygon points="197.9 375.1 199.9 378.6 203.8 379.7 195.5 384.4 197.9 375.1"/>
      </g>
      <line class="cls-10" x1="253.8" y1="308.5" x2="397.7" y2="308.5"/>
      <g>
        <line class="cls-9" x1="253.8" y1="308.5" x2="391.7" y2="308.5"/>
        <polygon points="388.9 312.2 390.5 308.5 388.9 304.8 397.7 308.5 388.9 312.2"/>
      </g>
      <line class="cls-10" x1="253.8" y1="308.6" x2="253.8" y2="157.7"/>
      <g>
        <line class="cls-9" x1="253.8" y1="308.6" x2="253.8" y2="163.6"/>
        <polygon points="257.5 166.5 253.8 164.9 250.1 166.5 253.8 157.7 257.5 166.5"/>
      </g>
      <line class="cls-10" x1="545.8" y1="139.7" x2="666.5" y2="139.7"/>
      <g>
        <line class="cls-9" x1="545.8" y1="139.7" x2="660.5" y2="139.7"/>
        <polygon points="657.7 143.4 659.2 139.7 657.7 136 666.5 139.7 657.7 143.4"/>
      </g>
      <line class="cls-10" x1="545.7" y1="139.7" x2="492.9" y2="25.9"/>
      <g>
        <line class="cls-9" x1="545.7" y1="139.7" x2="495.4" y2="31.3"/>
        <polygon points="499.9 32.3 495.9 32.4 493.2 35.4 492.9 25.9 499.9 32.3"/>
      </g>
      <line class="cls-10" x1="253.6" y1="308.6" x2="545.8" y2="139.7"/>
      <g>
        <line class="cls-9" x1="253.6" y1="308.6" x2="540.6" y2="142.7"/>
        <polygon points="540.1 147.3 539.6 143.3 536.3 140.9 545.8 139.7 540.1 147.3"/>
      </g>
      <line class="cls-10" x1="546.1" y1="139.7" x2="494.6" y2="254.3"/>
      <g>
        <line class="cls-9" x1="546.1" y1="139.7" x2="497" y2="248.8"/>
        <polygon points="494.8 244.7 497.5 247.7 501.6 247.8 494.6 254.3 494.8 244.7"/>
      </g>
      <path class="cls-10" d="M435.2,110"/>
      <path class="cls-10" d="M545.7,140.2"/>
      <g>
        <path class="cls-9" d="M441,111.5"/>
        <path class="cls-9" d="M545.7,140.2"/>
      </g>
      <text class="cls-2" transform="translate(563 44.7)"><tspan x="0" y="0">Q</tspan></text>
      <text class="cls-2" transform="translate(260.6 171.9)"><tspan x="0" y="0">k</tspan></text>
      <text class="cls-2" transform="translate(205.8 391.9)"><tspan x="0" y="0">i</tspan></text>
      <text class="cls-2" transform="translate(390.3 327.5)"><tspan x="0" y="0">j</tspan></text>
      <text class="cls-2" transform="translate(547.3 158)"><tspan x="0" y="0">P</tspan></text>
      <text class="cls-2" transform="translate(502.3 261)"><tspan x="0" y="0">e</tspan></text>
      <text class="cls-1" transform="translate(509.6 261.8) scale(.9 1)"><tspan x="0" y="0">1</tspan></text>
      <text class="cls-2" transform="translate(654.3 156)"><tspan x="0" y="0">e</tspan></text>
      <text class="cls-2" transform="translate(497.9 25.1)"><tspan x="0" y="0">e</tspan></text>
      <text class="cls-4" transform="translate(505.9 25.1)"><tspan x="0" y="0">3</tspan></text>
      <g>
        <line class="cls-9" x1="545.7" y1="139.9" x2="558.6" y2="55.1"/>
        <polygon points="561.1 57.5 559.9 46.3 555.4 56.6 561.1 57.5"/>
      </g>
      <g>
        <line class="cls-9" x1="253.8" y1="308.5" x2="553.2" y2="52.1"/>
        <polygon points="553.6 55.6 559.9 46.3 549.8 51.2 553.6 55.6"/>
      </g>
      <text class="cls-6" transform="translate(565.9 34.5) scale(1.1 1)"><tspan x="0" y="0">~</tspan></text>
      <text class="cls-3" transform="translate(662.4 157.3) scale(.8 1)"><tspan x="0" y="0">2</tspan></text>
      <g>
        <line class="cls-9" x1="253.8" y1="308.8" x2="292.2" y2="232.1"/>
        <polygon points="293.8 235.2 296.1 224.2 288.7 232.6 293.8 235.2"/>
      </g>
      <text class="cls-2" transform="translate(294.4 218.1)"><tspan x="0" y="0">Q</tspan></text>
      <circle cx="295.1" cy="224.7" r="2.8"/>
      <circle cx="559.7" cy="46.3" r="2.8"/>
      <text class="cls-2" transform="translate(253.8 328.4)"><tspan x="0" y="0">O</tspan></text>
      <circle cx="253.8" cy="308.6" r="2.8"/>
      <circle cx="545.7" cy="139.7" r="2.8"/>
      <text class="cls-7" transform="translate(234.2 247.5)"><tspan class="cls-8" x="0" y="0">(</tspan><tspan class="cls-5" x="6.7" y="0">x</tspan><tspan class="cls-8" x="17" y="0">,</tspan><tspan class="cls-5" x="21.3" y="0">y</tspan><tspan class="cls-8" x="30.1" y="0">,</tspan><tspan class="cls-5" x="34.4" y="0">z</tspan><tspan class="cls-8" x="42.8" y="0">)</tspan></text>
      <text class="cls-7" transform="translate(376.2 159.4)"><tspan class="cls-8" x="0" y="0">(</tspan><tspan class="cls-5" x="6.7" y="0">x</tspan><tspan class="cls-8" x="17" y="0">,</tspan><tspan class="cls-5" x="21.3" y="0">y</tspan><tspan class="cls-8" x="30.1" y="0">,</tspan><tspan class="cls-5" x="34.4" y="0">z</tspan><tspan class="cls-8" x="42.8" y="0">)</tspan></text>
      <text class="cls-6" transform="translate(383.6 153.5) scale(1.1 1)"><tspan x="0" y="0">~</tspan></text>
      <text class="cls-6" transform="translate(397.6 153.5) scale(1.1 1)"><tspan x="0" y="0">~</tspan></text>
      <text class="cls-6" transform="translate(410.8 153.8) scale(1.1 1)"><tspan x="0" y="0">~</tspan></text>
    </g>
  </g>
</svg>