<?xml version="1.0" encoding="UTF-8"?>
<svg xmlns="http://www.w3.org/2000/svg" version="1.1" viewBox="0 0 863.7 403.7">
  <defs>
    <style>
      .cls-1 {
        fill: none;
        stroke: #000;
        stroke-miterlimit: 10;
      }

      .cls-2 {
        fill: #fff;
      }

      .cls-3, .cls-4 {
        font-family: NotoSerifSC-Regular, 'Noto Serif SC';
        font-size: 18px;
      }

      .cls-4 {
        letter-spacing: 0em;
      }
    </style>
  </defs>
  <!-- Generator: Adobe Illustrator 28.7.1, SVG Export Plug-In . SVG Version: 1.2.0 Build 142)  -->
  <g>
    <g id="_图层_1" data-name="图层_1">
      <g>
        <line class="cls-2" x1="253.8" y1="308.5" x2="195.5" y2="384.4"/>
        <g>
          <line class="cls-1" x1="253.8" y1="308.5" x2="199.1" y2="379.6"/>
          <polygon points="197.9 375.1 199.9 378.6 203.8 379.7 195.5 384.4 197.9 375.1"/>
        </g>
      </g>
      <g>
        <line class="cls-2" x1="253.8" y1="308.5" x2="397.7" y2="308.5"/>
        <g>
          <line class="cls-1" x1="253.8" y1="308.5" x2="391.7" y2="308.5"/>
          <polygon points="388.9 312.2 390.5 308.5 388.9 304.8 397.7 308.5 388.9 312.2"/>
        </g>
      </g>
      <g>
        <line class="cls-2" x1="253.8" y1="308.6" x2="253.8" y2="157.7"/>
        <g>
          <line class="cls-1" x1="253.8" y1="308.6" x2="253.8" y2="163.6"/>
          <polygon points="257.5 166.5 253.8 164.9 250.1 166.5 253.8 157.7 257.5 166.5"/>
        </g>
      </g>
      <g>
        <line class="cls-2" x1="545.8" y1="139.7" x2="666.5" y2="139.7"/>
        <g>
          <line class="cls-1" x1="545.8" y1="139.7" x2="660.5" y2="139.7"/>
          <polygon points="657.7 143.4 659.2 139.7 657.7 136 666.5 139.7 657.7 143.4"/>
        </g>
      </g>
      <g>
        <line class="cls-2" x1="545.7" y1="139.7" x2="492.9" y2="25.9"/>
        <g>
          <line class="cls-1" x1="545.7" y1="139.7" x2="495.4" y2="31.3"/>
          <polygon points="499.9 32.3 495.9 32.4 493.2 35.4 492.9 25.9 499.9 32.3"/>
        </g>
      </g>
      <g>
        <line class="cls-2" x1="253.6" y1="308.6" x2="545.8" y2="139.7"/>
        <g>
          <line class="cls-1" x1="253.6" y1="308.6" x2="540.6" y2="142.7"/>
          <polygon points="540.1 147.3 539.6 143.3 536.3 140.9 545.8 139.7 540.1 147.3"/>
        </g>
      </g>
      <g>
        <line class="cls-2" x1="546.1" y1="139.7" x2="494.6" y2="254.3"/>
        <g>
          <line class="cls-1" x1="546.1" y1="139.7" x2="497" y2="248.8"/>
          <polygon points="494.8 244.7 497.5 247.7 501.6 247.8 494.6 254.3 494.8 244.7"/>
        </g>
      </g>
      <g>
        <line class="cls-2" x1="545.7" y1="140.2" x2="435.2" y2="110"/>
        <g>
          <line class="cls-1" x1="545.7" y1="140.2" x2="441" y2="111.5"/>
          <polygon points="444.7 108.7 442.2 111.9 442.7 115.8 435.2 110 444.7 108.7"/>
        </g>
      </g>
      <text class="cls-3" transform="translate(426.6 97.1)"><tspan x="0" y="0">q</tspan></text>
      <g>
        <line class="cls-2" x1="253.8" y1="308.5" x2="435.2" y2="110"/>
        <g>
          <line class="cls-1" x1="253.8" y1="308.5" x2="431.2" y2="114.4"/>
          <polygon points="432 118.9 430.4 115.3 426.6 113.9 435.2 110 432 118.9"/>
        </g>
      </g>
      <text class="cls-3" transform="translate(260.6 171.9)"><tspan x="0" y="0">k</tspan></text>
      <text class="cls-3" transform="translate(205.8 391.9)"><tspan x="0" y="0">i</tspan></text>
      <text class="cls-3" transform="translate(390.3 327.5)"><tspan x="0" y="0">j</tspan></text>
      <text class="cls-3" transform="translate(549.3 156)"><tspan x="0" y="0">p</tspan></text>
      <text class="cls-3" transform="translate(502.3 261)"><tspan x="0" y="0">e</tspan></text>
      <text class="cls-4" transform="translate(512.1 263) scale(.6)"><tspan x="0" y="0">1</tspan></text>
      <text class="cls-3" transform="translate(654.3 156)"><tspan x="0" y="0">e</tspan></text>
      <text class="cls-4" transform="translate(664.2 158) scale(.6)"><tspan x="0" y="0">2</tspan></text>
      <text class="cls-3" transform="translate(497.9 25.1)"><tspan x="0" y="0">e</tspan></text>
      <text class="cls-4" transform="translate(507.7 27.1) scale(.6)"><tspan x="0" y="0">3</tspan></text>
    </g>
  </g>
</svg>