<?xml version="1.0" encoding="UTF-8"?>
<svg xmlns="http://www.w3.org/2000/svg" version="1.1" viewBox="0 0 863.7 403.7">
  <defs>
    <style>
      .cls-1 {
        font-size: 11.8px;
      }

      .cls-1, .cls-2, .cls-3, .cls-4, .cls-5, .cls-6, .cls-7 {
        font-style: italic;
      }

      .cls-1, .cls-2, .cls-3, .cls-4, .cls-7 {
        font-family: 'KaTeX_Math-Italic', KaTeX_Math;
      }

      .cls-1, .cls-2, .cls-4, .cls-5, .cls-6, .cls-8, .cls-9 {
        isolation: isolate;
      }

      .cls-10 {
        font-family: AdobeSongStd-Light-GBpc-EUC-H, 'Adobe Song Std';
        font-weight: 300;
      }

      .cls-11 {
        stroke: #000;
        stroke-miterlimit: 10;
      }

      .cls-11, .cls-12 {
        fill: none;
      }

      .cls-2, .cls-6, .cls-9 {
        font-size: 18px;
      }

      .cls-3 {
        font-size: 11.5px;
      }

      .cls-4 {
        font-size: 10.8px;
      }

      .cls-5 {
        font-size: 20.7px;
      }

      .cls-5, .cls-6 {
        font-family: 'KaTeX_Math-BoldItalic', KaTeX_Math;
        font-weight: 700;
      }

      .cls-8 {
        font-family: NotoSerifSC-Regular, 'Noto Serif SC';
        font-size: 14.8px;
      }
    </style>
  </defs>
  <!-- Generator: Adobe Illustrator 28.7.1, SVG Export Plug-In . SVG Version: 1.2.0 Build 142)  -->
  <g>
    <g id="_图层_1" data-name="图层_1">
      <line class="cls-12" x1="253.8" y1="308.5" x2="195.5" y2="384.4"/>
      <line class="cls-11" x1="253.8" y1="308.5" x2="199.1" y2="379.6"/>
      <polygon points="197.9 375.1 199.9 378.6 203.8 379.7 195.5 384.4 197.9 375.1"/>
      <line class="cls-12" x1="253.8" y1="308.5" x2="397.7" y2="308.5"/>
      <line class="cls-11" x1="253.8" y1="308.5" x2="391.7" y2="308.5"/>
      <polygon points="388.9 312.2 390.5 308.5 388.9 304.8 397.7 308.5 388.9 312.2"/>
      <line class="cls-12" x1="253.8" y1="308.6" x2="253.8" y2="157.7"/>
      <line class="cls-11" x1="253.8" y1="308.6" x2="253.8" y2="163.6"/>
      <polygon points="257.5 166.5 253.8 164.9 250.1 166.5 253.8 157.7 257.5 166.5"/>
      <line class="cls-12" x1="545.8" y1="139.7" x2="666.5" y2="139.7"/>
      <line class="cls-11" x1="545.8" y1="139.7" x2="660.5" y2="139.7"/>
      <polygon points="657.7 143.4 659.2 139.7 657.7 136 666.5 139.7 657.7 143.4"/>
      <line class="cls-12" x1="545.7" y1="139.7" x2="492.9" y2="25.9"/>
      <line class="cls-11" x1="545.7" y1="139.7" x2="495.4" y2="31.3"/>
      <polygon points="499.9 32.3 495.9 32.4 493.2 35.4 492.9 25.9 499.9 32.3"/>
      <line class="cls-12" x1="253.6" y1="308.6" x2="545.8" y2="139.7"/>
      <line class="cls-11" x1="253.6" y1="308.6" x2="540.6" y2="142.7"/>
      <polygon points="540.1 147.3 539.6 143.3 536.3 140.9 545.8 139.7 540.1 147.3"/>
      <line class="cls-12" x1="546.1" y1="139.7" x2="494.6" y2="254.3"/>
      <line class="cls-11" x1="546.1" y1="139.7" x2="497" y2="248.8"/>
      <polygon points="494.8 244.7 497.5 247.7 501.6 247.8 494.6 254.3 494.8 244.7"/>
      <line class="cls-12" x1="545.7" y1="140.2" x2="435.2" y2="110"/>
      <line class="cls-11" x1="545.7" y1="140.2" x2="441" y2="111.5"/>
      <polygon points="444.7 108.7 442.2 111.9 442.7 115.8 435.2 110 444.7 108.7"/>
      <text class="cls-2" transform="translate(429.9 99.3)"><tspan x="0" y="0">Q</tspan></text>
      <line class="cls-12" x1="253.8" y1="308.5" x2="435.2" y2="110"/>
      <line class="cls-11" x1="253.8" y1="308.5" x2="431.2" y2="114.4"/>
      <polygon points="432 118.9 430.4 115.3 426.6 113.9 435.2 110 432 118.9"/>
      <text class="cls-1" transform="translate(509.6 261.8) scale(.9 1)"><tspan x="0" y="0">1</tspan></text>
      <text class="cls-5" transform="translate(654.3 155.4) scale(.9 1)"><tspan x="0" y="0">e</tspan></text>
      <text class="cls-4" transform="translate(505.9 25.1)"><tspan x="0" y="0">3</tspan></text>
      <text class="cls-3" transform="translate(663.6 156.3) scale(.8 1)"><tspan x="0" y="0">2</tspan></text>
      <text class="cls-6" transform="translate(260.6 171.9)"><tspan x="0" y="0">k</tspan></text>
      <text class="cls-6" transform="translate(205.8 391.9)"><tspan x="0" y="0">i</tspan></text>
      <text class="cls-6" transform="translate(390.3 327.5)"><tspan x="0" y="0">j</tspan></text>
      <circle cx="435.4" cy="110" r="2.8"/>
      <text class="cls-2" transform="translate(549.1 159.2)"><tspan x="0" y="0">P</tspan></text>
      <text class="cls-2" transform="translate(254.6 327.6)"><tspan x="0" y="0">O</tspan></text>
      <circle cx="253.8" cy="308.1" r="2.8"/>
      <circle cx="545.5" cy="139.9" r="2.8"/>
      <text class="cls-9" transform="translate(306 192.9)"><tspan class="cls-10" x="0" y="0">(</tspan><tspan class="cls-7" x="6.7" y="0">x</tspan><tspan class="cls-10" x="17" y="0">,</tspan><tspan class="cls-7" x="21.3" y="0">y</tspan><tspan class="cls-10" x="30.1" y="0">,</tspan><tspan class="cls-7" x="34.4" y="0">z</tspan><tspan class="cls-10" x="42.8" y="0">)</tspan></text>
      <text class="cls-9" transform="translate(467.9 114.4)"><tspan class="cls-10" x="0" y="0">(</tspan><tspan class="cls-7" x="6.7" y="0">x</tspan><tspan class="cls-10" x="17" y="0">,</tspan><tspan class="cls-7" x="21.3" y="0">y</tspan><tspan class="cls-10" x="30.1" y="0">,</tspan><tspan class="cls-7" x="34.4" y="0">z</tspan><tspan class="cls-10" x="42.8" y="0">)</tspan></text>
      <text class="cls-8" transform="translate(475.3 108.6) scale(1.1 1)"><tspan x="0" y="0">~</tspan></text>
      <text class="cls-8" transform="translate(489.3 108.6) scale(1.1 1)"><tspan x="0" y="0">~</tspan></text>
      <text class="cls-8" transform="translate(502.5 108.9) scale(1.1 1)"><tspan x="0" y="0">~</tspan></text>
      <text class="cls-5" transform="translate(496.6 25.3) scale(.9 1)"><tspan x="0" y="0">e</tspan></text>
      <text class="cls-5" transform="translate(500.6 261.5) scale(.9 1)"><tspan x="0" y="0">e</tspan></text>
    </g>
  </g>
</svg>