<?xml version="1.0" encoding="UTF-8"?>
<svg id="_图层_1" data-name="图层_1" xmlns="http://www.w3.org/2000/svg" viewBox="0 0 633.7 634.4">
        <path d="M289.09,64.76c-3.52,1.2-7.28,1.68-11.2,1.6,3.52-1.2,7.28-1.68,11.2-1.6Z" style="fill: #307495; fill-rule: evenodd;"/>
        <path d="M528.69,176.76c-43.84-63.2-103.92-100.24-180.4-111.2-19.68-2.8-39.44-3.12-59.2-.8-3.52,1.2-7.28,1.6-11.2,1.6-40.08,6.32-76.64,21.12-109.6,44.4-59.2,44-93.84,102.8-104,176.4-2.16,22.16-1.92,44.32.8,66.4,5.84,40.32,20.4,77.12,43.6,110.4,39.52,54.32,92.16,88.48,158,102.4,4.72-1.28,9.2-1.04,13.6.8,4.88-1.12,9.68-1.04,14.4.4-2.48.16-4.88.72-7.2,1.6,14.4.96,28.8,1.12,43.2.4-2.32-.64-4.72-1.04-7.2-1.2l.8-.8c3.2-.4,6.4-.56,9.6-.4v2.4h12.8c36.64-4.32,70.8-15.92,102.4-34.8,66.8-42.72,106.56-103.36,119.2-182-.32-4,.24-7.68,1.6-11.2,4.88-59.76-8.8-114.64-41.2-164.8ZM534.29,431.96c-40.64,72.96-102.4,116-185.2,129.2-88.8,9.28-162.48-19.44-221.2-86-54.24-68.72-69.68-145.52-46.4-230.4,27.52-81.12,82.08-135.44,163.6-162.8,16.64-4.64,33.44-8,50.4-10,98.48-4.16,175.12,34.24,230,115.2,46.4,79.92,49.36,161.52,8.8,244.8Z" style="fill: #307495; fill-rule: evenodd;"/>
        <path d="M385.09,118.36c1.28,1.12,2.32,2.48,3.2,4-2.8,1.2-5.76,2-8.8,2.4v2.4c2.8,0,5.44.56,8,1.6,1.12,0,2.16-.4,3.2-.8,2.32,1.52,3.12,3.52,2.4,6-4.72-.32-9.36-1.28-14-2.8-1.28.72-1.92,1.76-2,3.2-1.68.24-2.72,1.12-3.2,2.8-1.84.4-3.68.56-5.6.4v-2.4c2.48.24,4.32-.64,5.6-2.8-.8-.96-1.6-1.36-2.4-1.2.88-1.52,1.68-2.96,2.4-4.4-.24-.4-.56-.8-.8-1.2-1.36.96-2.72.96-4,0,1.44-.56,2.8-1.04,4-1.6.88-1.44,2.16-1.92,4-1.6,1.68-1.12,3.52-1.68,5.6-1.6v-2.4h2.4Z" style="fill: #317496; fill-rule: evenodd;"/>
        <path d="M266.69,115.96c1.28,1.28,2.24,2.88,2.8,4.8.88-4.88,1.76-9.68,2.8-14.4-2-.16-3.84,0-5.6.8-.64-.72-.8-1.52-.4-2.4,2.48.8,4.96,1.04,7.6.8-1.04,6.16-2.32,12.32-4,18.4h-3.2c.96,7.52,3.76,8.32,8.4,2.4,1.76.48,3.52,1.2,5.2,2,.96.96.96,1.84,0,2.8-12.4,4.24-24.88,7.52-37.6,10-.96-.96-.96-1.84,0-2.8,2.88-1.2,5.76-2.08,8.8-2.8.48-.72.72-1.52.8-2.4-.8-3.12-1.68-6.16-2.8-9.2-.8,1.52-1.28,3.12-1.6,4.8-.56.8-1.28.88-2,.4-2.64-4.32-5.6-8.48-8.8-12.4.32-.96.96-1.52,2-1.6,3.36,1.92,6.72,3.6,10,5.2-1.92-5.68-3.52-11.36-4.8-17.2,1.36,0,2.72-.4,4-.8,1.52,0,2.48.88,2.8,2.4,2.8,9.52,5.28,19.12,7.6,28.8,1.68.32,2.8-.4,3.2-2-3.2-10.16-5.76-20.4-7.6-30.8,1.84-1.04,3.76-1.04,5.6,0,1.76,7.28,3.92,14.48,6.4,21.6.4-2.08.56-4.24.4-6.4Z" style="fill: #357596; fill-rule: evenodd;"/>
        <path d="M373.09,123.96c-1.2.56-2.56,1.04-4,1.6,1.28.96,2.64.96,4,0,.24.4.56.8.8,1.2-.72,1.44-1.52,2.88-2.4,4.4.8-.16,1.6.24,2.4,1.2-1.28,2.16-3.12,3.04-5.6,2.8v2.4c1.92.16,3.76,0,5.6-.4.48-1.68,1.52-2.56,3.2-2.8-1.04,4.16-3.76,5.6-8,4.4-1.36-1.84-2.64-3.68-4-5.6.16-.4.24-.8.4-1.2,1.6.72,3.36,1.04,5.2.8-.16-1.28.08-2.48.8-3.6-4.88-1.52-9.68-3.28-14.4-5.2-.8-1.2-1.04-2.56-.8-4,5.6,1.52,11.2,2.8,16.8,4Z" style="fill: #3c7893; fill-rule: evenodd;"/>
        <path d="M432.29,131.96c0-2.4-.24-4.8-.8-7.2h-2.4c-.16,2.16,0,4.32.4,6.4.56.64,1.2.88,2,.8-1.12.8-2.48,1.04-4,.8.64-3.2.88-6.4.8-9.6,1.84-.32,3.28.24,4.4,1.6l1.2,4.8c0,1.2-.48,2-1.6,2.4Z" style="fill: #2a729b; fill-rule: evenodd;"/>
        <path d="M432.29,131.96h-.8c-.8,0-1.44-.16-2-.8-.4-2.08-.56-4.24-.4-6.4h2.4c.56,2.4.8,4.8.8,7.2Z" style="fill: #2a729b; fill-rule: evenodd;"/>
        <path d="M385.09,118.36h-2.4v2.4c-2.08,0-3.92.48-5.6,1.6-.08-.88-.64-1.44-1.6-1.6-2.88-.96-5.84-1.92-8.8-2.8-.72-1.36-.96-2.8-.8-4.4,4.08.8,8.08,2,12,3.6,2,.56,4,.4,6-.4.8.24,1.2.8,1.2,1.6Z" style="fill: #397895; fill-rule: evenodd;"/>
        <path d="M310.69,90.36h8c.08,3.76-.16,7.52-.8,11.2,4.56.4,8.96-.16,13.2-1.6,2.32.56,4.08,1.92,5.2,4-.4.8-.88,1.44-1.6,2-4.56.16-9.12.56-13.6,1.2,3.28,8,8.88,13.68,16.8,17.2-2.24,2.24-4.56,4.56-6.8,6.8-7.2-5.92-12-13.36-14.4-22.4-2.56,10.8-8.96,18.56-19.2,23.2-1.36-.8-1.84-1.84-1.6-3.2,5.52-4.16,9.52-9.52,12-16,.64-2.08,1.04-4.24,1.2-6.4h-12v-4.8h12.8c.56-3.68.88-7.44.8-11.2Z" style="fill: #357696; fill-rule: evenodd;"/>
        <path d="M367.49,110.36c-1.2.48-2,1.44-2.4,2.8-1.84.56-3.76.56-5.6,0-1.04-.8-1.04-1.44,0-2,1.28,1.28,2.88,1.76,4.8,1.6v-3.2c1.28-.24,2.32,0,3.2.8Z" style="fill: #5a8998; fill-rule: evenodd;"/>
        <path d="M367.49,110.36c-.88-.72-1.92-1.04-3.2-.8v3.2c-1.92.16-3.52-.32-4.8-1.6,1.6-2.48,3.28-4.88,5.2-7.2,1.36,1.52,3.12,2.32,5.2,2.4,0-2.24-.56-4.4-1.6-6.4.32-.96.96-1.52,2-1.6,2.24,1.2,4,2.8,5.2,4.8-.48,1.68-1.52,2.88-3.2,3.6,3.2,1.92,6.64,3.28,10.4,4,1.44.64,2.72.48,4-.4,1.44-2.4,3.04-4.64,4.8-6.8.8-.56,1.6-.56,2.4,0,1.36,1.2,2.72,2.4,4,3.6-2.4,1.76-4.8,3.44-7.2,5.2.64.72,1.44,1.12,2.4,1.2,1.12-.4,2.16-.56,3.2-.4,1.04,1.6,2.16,3.2,3.2,4.8-2.8,1.92-5.76,3.6-8.8,5.2-1.76-1.76-1.52-3.52.8-5.2-7.92-2.8-15.92-5.28-24-7.6Z" style="fill: #397795; fill-rule: evenodd;"/>
        <path d="M266.69,115.96v-8.8c1.76-.72,3.6-.96,5.6-.8-1.04,4.72-1.92,9.52-2.8,14.4-.56-1.92-1.52-3.52-2.8-4.8Z" style="fill: #2c7197; fill-rule: evenodd;"/>
        <path d="M382.69,99.96c.88,1.68,1.68,3.36,2.4,5.2-.72,1.28-1.76,1.92-3.2,2h-2.4v-7.2h3.2Z" style="fill: #317495; fill-rule: evenodd;"/>
        <path d="M382.69,99.96h-3.2v7.2h2.4c-.88.72-1.92,1.04-3.2.8v-8.8c1.52-.24,2.88,0,4,.8Z" style="fill: #7b9fb2; fill-rule: evenodd;"/>
        <path d="M436.29,157.56c.16-1.04-.16-2-.8-2.8.88-.16,1.68-.56,2.4-1.2-.64-.8-.8-1.6-.4-2.4,1.84-1.04,3.76-2.16,5.6-3.2,1.12-2.96.16-4.56-2.8-4.8.24,4.32-.8,4.88-3.2,1.6-.64.4-.88.88-.8,1.6-2.16-1.44-4.48-2.72-6.8-4,0-1.28.16-2.64.4-4,2.8.88,5.52,2.24,8,4,2.96-3.6,5.76-7.36,8.4-11.2,2.08.56,3.76,1.68,5.2,3.2-2.4,3.76-4.8,7.44-7.2,11.2.4.8.88,1.44,1.6,2,3.92-.32,5.68,1.44,5.2,5.2-.56.72-1.2,1.2-2,1.6-2.48-1.04-4.72-2.4-6.8-4l-6,7.2Z" style="fill: #387693; fill-rule: evenodd;"/>
        <path d="M417.89,129.56c1.92,1.2,3.92,2.32,6,3.2.72-.16,1.36-.48,2-.8,2.08,1.68,2.96,3.84,2.8,6.4-2.88,3.12-5.44,6.64-7.6,10.4,1.76.48,3.68.48,5.6,0v4c-5.12.96-10.16,2-15.2,3.2-.64-3.76.56-6.72,3.6-8.8,1.92-3.44,3.92-6.72,6-10-1.36-1.6-2.96-3.12-4.8-4.4.56-1.12,1.04-2.16,1.6-3.2Z" style="fill: #337594; fill-rule: evenodd;"/>
        <path d="M290.69,147.16c2.48-.8,5.2-1.04,8-.8,8.56.8,17.04.8,25.6,0,1.04.16,2.16.24,3.2.4,1.04.8,1.04,1.6,0,2.4,5.44.64,10.8.24,16-1.2h3.2c.64,1.28,1.76,2.24,3.2,2.8-2,.24-4,0-6-.4-4.48,1.36-9.2,2.16-14,2.4-4.96-1.28-10.08-2.08-15.2-2.4-2.8.16-5.44.64-8,1.6-5.28-1.76-10.56-3.36-16-4.8Z" style="fill: #2c7299; fill-rule: evenodd;"/>
        <path d="M298.69,146.36c11.6-.96,23.36-1.04,35.2-.4,3.36.56,6.56,1.2,9.6,2-5.2,1.44-10.56,1.84-16,1.2,1.04-.8,1.04-1.6,0-2.4-1.04-.16-2.16-.24-3.2-.4-8.56.8-17.04.8-25.6,0Z" style="fill: #317491; fill-rule: evenodd;"/>
        <path d="M436.29,157.56c-1.52,3.52-3.44,6.8-5.6,10-2.4.24-4.24-.72-5.6-2.8,3.52-6.32,7.28-12.4,11.2-18.4,0-.72.16-1.2.8-1.6,2.4,3.28,3.44,2.72,3.2-1.6,2.96.24,3.92,1.84,2.8,4.8-1.84,1.04-3.76,2.16-5.6,3.2-.4.8-.24,1.6.4,2.4-.72.64-1.52,1.04-2.4,1.2.64.8.96,1.76.8,2.8Z" style="fill: #337497; fill-rule: evenodd;"/>
        <path d="M201.89,124.76h7.2c.24,1.44,0,2.8-.8,4-2.56,1.92-5.2,3.6-8,5.2-.8.8-.96,1.76-.4,2.8,3.52,5.76,7.28,11.36,11.2,16.8,2.48-1.2,4.72-2.64,6.8-4.4,1.2-.88,1.76-2.08,1.6-3.6h7.2c0,2.4-1.04,4.16-3.2,5.2-8.4,5.12-16.64,10.48-24.8,16-1.52,1.04-3.12,1.6-4.8,1.6-1.2-.64-1.6-1.6-1.2-2.8,4.24-2.72,8.32-5.52,12.4-8.4-3.84-6.24-8-12.24-12.4-18-3.36,2-6.72,4.16-10,6.4-1.36-.8-2.4-1.84-3.2-3.2,7.12-4.8,14.32-9.52,21.6-14,.72-1.12.96-2.32.8-3.6Z" style="fill: #347594; fill-rule: evenodd;"/>
        <path d="M495.49,176.76c1.28,1.12,2.08,2.56,2.4,4.4-.24.8-.8,1.2-1.6,1.2-.56.48-1.04,1.04-1.6,1.6-1.36-1.12-2.64-2.16-4-3.2-2.16,1.52-3.2,1.04-3.2-1.6,3.04.08,5.68-.72,8-2.4Z" style="fill: #377795; fill-rule: evenodd;"/>
        <path d="M177.09,182.36c3.28.32,4.88,2.16,4.8,5.6-3.84-.08-7.6.4-11.2,1.6.96-3.36,3.12-5.76,6.4-7.2Z" style="fill: #357594; fill-rule: evenodd;"/>
        <path d="M136.29,183.96c2.8.72,4.16,2.56,4,5.6-2.88.24-5.68,0-8.4-.8-.56-.56-.56-1.04,0-1.6,1.44-1.2,2.88-2.24,4.4-3.2Z" style="fill: #447d9a; fill-rule: evenodd;"/>
        <path d="M165.09,191.96c3.92-4.56,7.6-9.2,11.2-14-.16-1.36-.96-2-2.4-2-1.28.4-2.64.72-4,.8.24,5.12-1.36,5.92-4.8,2.4,2.16-1.6,3.2-3.76,3.2-6.4-2.16.24-4.24.56-6.4.8-.72,4.72-3.12,8.4-7.2,11.2-.64-.24-1.2-.64-1.6-1.2,2.8-3.52,5.44-7.12,8-10.8-.32-.56-.88-.96-1.6-1.2.8-1.36.96-2.8.8-4.4,0,0,0-4.8,0-4.8h-6.4c.24,3.12-.8,5.6-3.2,7.6-1.2-.56-2.56-.8-4-.8-2.56.48-4,1.92-4,4.4,1.44-.24,2.8,0,4,.8-1.28,3.44-3.68,5.28-7.2,5.6,1.12,3.12,1.92,6.32,2.4,9.6h2.4c1.04-1.12,2.24-2.24,3.6-3.2,3.36,2.8,6.64,5.6,10,8.4-1.12.96-1.92,2.16-2.4,3.6.32.96.96,1.52,2,1.6,2.4-1.44,4.4-3.28,6-5.6.8,4,1.04,8,.8,12h3.2c.96-4.48,1.76-9.04,2.4-13.6-1.68.24-3.28,0-4.8-.8ZM145.89,184.76c-.88-.72-.96-1.52-.4-2.4,3.44-4.64,7.04-9.2,10.8-13.6,2.16,1.36,1.84,2.4-.8,3.2-1.36,3.28-2.72,6.48-4,9.6-2.24.32-4.08,1.44-5.6,3.2ZM161.49,189.56c-1.28-.16-2.24-.88-2.8-2,.72-1.12,1.28-2.32,1.6-3.6,4.4,1.28,4.8,3.12,1.2,5.6Z" style="fill: #377696; fill-rule: evenodd;"/>
        <path d="M290.69,147.16c5.44,1.44,10.72,3.04,16,4.8,2.56-.96,5.2-1.44,8-1.6,5.12.32,10.24,1.12,15.2,2.4,4.8-.24,9.52-1.04,14-2.4,2,.48,4,.64,6,.4-1.44-.56-2.56-1.52-3.2-2.8,68.48,15.04,114,55.84,136.4,122.4,2.64,8.64,4.32,17.44,5.2,26.4-1.2-4.72-3.04-9.28-5.6-13.6.96-2.4.96-4.8,0-7.2-.56.4-.96.96-1.2,1.6,0,4.48-.72,8.72-2,12.8-15.36-68.64-56.96-112.8-124.8-132.4-31.68-7.04-62.88-5.6-93.6,4.4,0-.8-.16-1.44-.8-2-2.88-.32-5.68-.96-8.4-2-1.12.24-2.08.72-2.8,1.6,2.56,2.08,5.44,3.12,8.8,3.2-62.88,26.64-98.8,73.84-107.6,141.6-2.64,42.4,8.4,80.56,33.2,114.4-1.2,0-2.16-.56-2.8-1.6-.48,6.24-1.28,6.24-2.4,0-2.08-1.84-3.52-4.08-4.4-6.8.64-.24,1.2-.64,1.6-1.2-1.52-1.84-2.8-3.68-4-5.6-1.52,2.72-2.32,5.68-2.4,8.8-26.4-42.96-33.76-89.12-22-138.4,19.84-64.32,62.08-105.84,126.8-124.4,5.52-1.28,11.12-2.24,16.8-2.8h0Z" style="fill: #307495; fill-rule: evenodd;"/>
        <path d="M261.09,162.36c-.96.56-2,.88-3.2.8-3.36,0-6.24-1.12-8.8-3.2.72-.88,1.68-1.36,2.8-1.6,2.72,1.04,5.52,1.68,8.4,2,.64.56.88,1.2.8,2Z" style="fill: #2c7099; fill-rule: evenodd;"/>
        <path d="M144.29,192.76c.96,1.2,1.76,2.48,2.4,4-3.12.8-6.32,1.04-9.6.8,1.04-2.8,3.04-4.64,6-5.6.64,0,1.04.32,1.2.8Z" style="fill: #397693; fill-rule: evenodd;"/>
        <path d="M496.29,182.32c-.56.48-1.04,1.04-1.6,1.6-1.36-1.12-2.64-2.16-4-3.2-2.16,1.52-3.2,1.04-3.2-1.6h-2.4c.08.88,0,1.68-.4,2.4-.8-1.28-1.76-2.48-2.8-3.6,1.28-.56,2.48-1.2,3.6-2,1.12,1.36,2.64,1.84,4.4,1.6v-4.8c-1.52.16-2.72-.4-3.6-1.6-.4-1.04,0-1.6,1.2-1.6.32-2.56-.64-4.4-2.8-5.6-3.76,1.44-7.6,2.24-11.6,2.4v3.2c2.64-.16,5.36,0,8,.4.4.32.64.72.8,1.2-.56,1.52-.96,3.12-1.2,4.8-.72-2.16-1.92-4-3.6-5.6-4.32,3.6-8.72,7.04-13.2,10.4-.08,1.44.32,2.72,1.2,4-.24.24-.56.56-.8.8-2.4-2.72-4.8-5.36-7.2-8-1.2,1.12-1.68,2.4-1.2,4,1.76,1.52,3.2,3.2,4.4,5.2-3.12.08-6.08-.56-8.8-2-.16,1.28.08,2.48.8,3.6,3.52,2.64,7.52,4,12,4,1.92,1.6,3.52,3.52,4.8,5.6-2,1.28-3.6,2.88-4.8,4.8.48,1.28,1.28,2.32,2.4,3.2,2.08-.72,4.08-1.92,6-3.6,2,2.56,4,5.04,6,7.6.72.4,1.52.48,2.4.4v-6.4c-1.28.16-2.48-.08-3.6-.8-.4-1.12-1.04-2.08-2-2.8l1.2-1.2c.88,1.12,1.92,1.92,3.2,2.4,3.12-2.16,6.16-4.4,9.2-6.8,1.04-.4,2.08-.56,3.2-.4-.16-.96.08-1.76.8-2.4,1.44-.48,2.64-1.28,3.6-2.4,1.04,2.16,2.8,3.2,5.2,3.2v-5.6c-3.2,0-5.04-1.6-5.6-4.8ZM472.29,195.12c-2.24-1.2-3.6-3.04-4-5.6h0c3.04.88,4.4,2.72,4,5.6ZM478.69,195.12c-2.96-3.04-5.76-6.24-8.4-9.6-.4-.72-.48-1.52-.4-2.4h0c3.52,3.36,6.72,7.04,9.6,11.2l-.8.8ZM482.29,192.72c-3.92-3.76-6.96-8-9.2-12.8,3.52,3.68,7.04,7.52,10.4,11.6l-1.2,1.2ZM485.89,189.56c-3.92-3.36-6.8-7.36-8.8-12,3.2,3.28,6.24,6.8,9.2,10.4.56.64.4,1.2-.4,1.6ZM489.09,186.76c-1.28-.88-2.08-2.08-2.4-3.6,1.92-.16,3.76,0,5.6.4.88,2.8-.16,3.84-3.2,3.2Z" style="fill: #377795; fill-rule: evenodd;"/>
        <path d="M156.29,209.56c0-1.44-.64-2.24-2-2.4-1.04.56-2.16,1.04-3.2,1.6-.64-.08-1.12-.4-1.6-.8.4-1.6,1.04-3.2,2-4.8-.32-2.16-1.12-4-2.4-5.6-.56-1.92-1.36-3.84-2.4-5.6.88-1.12,1.92-1.52,3.2-1.2,2.24,3.84,4.56,7.76,6.8,11.6,2,1.76,4.16,3.36,6.4,4.8-.4,6.16-2.64,6.96-6.8,2.4Z" style="fill: #377694; fill-rule: evenodd;"/>
        <path d="M125.09,222.36c.48,1.2,1.12,2.24,2,3.2.64,1.52.32,2.88-.8,4-1.6-.88-3.04-2-4.4-3.2-3.04,4.96-5.44,10.32-7.2,16,1.12,2.88,2.4,5.68,4,8.4-.16.72-.48,1.36-.8,2-.64.88-1.44.96-2.4.4-3.6-5.12-7.6-9.76-12-14,.72-2.08,2.08-3.68,4-4.8,1.36,1.04,2.64,2.16,4,3.2,1.84-3.92,3.52-7.92,5.2-12,.56-1.36.4-2.72-.4-4,2.08-1.76,4.48-2.8,7.2-3.2,0,1.6.48,2.96,1.6,4Z" style="fill: #357596; fill-rule: evenodd;"/>
        <path d="M139.49,224.76c.96-.16,1.76.08,2.4.8,1.52,1.92,1.76,3.92.8,6-5.12.24-10.24.96-15.2,2-.16-1.92.32-3.52,1.6-4.8,3.36-1.6,6.88-2.88,10.4-4Z" style="fill: #327495; fill-rule: evenodd;"/>
        <path d="M524.29,228.76c1.28.08,2.32.64,3.2,1.6-.56,1.92-1.2,3.76-2,5.6-2.8,1.36-4.8.56-6-2.4,1.84-1.36,3.44-2.96,4.8-4.8Z" style="fill: #387590; fill-rule: evenodd;"/>
        <path d="M497.89,228.76c1.52,3.36,2.88,6.88,4,10.4,1.68,0,3.12.48,4.4,1.6.4-.24.8-.56,1.2-.8-1.36-3.2-2.64-6.4-4-9.6.56-1.2,1.52-2,2.8-2.4,2.88,4.4,4.88,9.2,6,14.4,1.28-.16,2.32.24,3.2,1.2-.72,2.24-1.76,4.24-3.2,6-1.68-.96-3.28-2.16-4.8-3.6-.88-.56-1.68-.48-2.4.4,1.36,2.24,2.32,4.64,2.8,7.2,1.44.48,2.32,1.44,2.8,2.8-.64,1.68-.88,3.44-.8,5.2h-4c-1.2-4.32-2.72-8.56-4.4-12.8-.56-.48-1.28-.72-2-.8-5.44,3.2-9.2,1.84-11.2-4,1.04-2.24,2.16-4.32,3.2-6.4.72,1.52,1.52,2.96,2.4,4.4,1.28,0,2.64-.16,4-.4-1.6-5.12-3.52-10.16-5.6-15.2,3.36-3.52,5.28-2.72,5.6,2.4Z" style="fill: #347694; fill-rule: evenodd;"/>
        <path d="M133.89,238.36c3.28,1.04,6.32,2.64,9.2,4.8.4,2.08.56,4.24.4,6.4-2.24-.4-3.84.4-4.8,2.4-.96.72-2,1.04-3.2.8.96-2,1.52-4.16,1.6-6.4-6.48-1.28-12.48-3.68-18-7.2-.4-2.48.4-4.32,2.4-5.6,4.08,1.76,8.24,3.36,12.4,4.8Z" style="fill: #347595; fill-rule: evenodd;"/>
        <path d="M521.09,220.76c.16,2.4,0,4.8-.4,7.2-1.76.56-3.52.8-5.2.8,1.76,4.96,3.76,9.76,6,14.4.4-.72.48-1.52.4-2.4h9.6v7.2c-3.2-.4-6.08-1.52-8.8-3.2-.56,2.48.48,4.24,3.2,5.2-1.12,1.84-1.6,3.84-1.6,6-3.28-.88-6.48-2-9.6-3.2v-3.2h4c-2.48-8.16-5.6-16.16-9.2-24-1.28.48-2.8.48-4.4,0-1.44-1.6-2.24-3.44-2.4-5.6h10.4c-.24,2.16.24,4,1.6,5.6,1.44-1.84,2.96-3.68,4.4-5.6.56.64,1.2.88,2,.8Z" style="fill: #377696; fill-rule: evenodd;"/>
        <path d="M132.29,255.96c1.44,2.24,1.04,4.16-1.2,5.6-2.4-3.12-4.96-6-7.6-8.8-.88-1.28-2-2.48-3.2-3.6,1.52-1.6,3.12-3.12,4.8-4.4,2.8,3.52,5.2,7.2,7.2,11.2Z" style="fill: #377693; fill-rule: evenodd;"/>
        <path d="M509.89,282.36c1.68-.8,3.52-1.04,5.6-.8h4c-.24,4.64,0,9.12.8,13.6-1.52-3.92-2.08-8.16-1.6-12.8h-8.8Z" style="fill: #367695; fill-rule: evenodd;"/>
        <path d="M125.09,292.76v3.2c-2.32.24-4.48,0-6.4-.8h5.6c-.16-1.04,0-1.84.8-2.4Z" style="fill: #fff; fill-rule: evenodd;"/>
        <path d="M132.29,289.56v-6.4c-5.52.32-10.88-.08-16-1.2-1.52,1.12-2.56,2.56-3.2,4.4,2.08,3.44,2.08,6.96,0,10.4v4c2.32-.24,4.48,0,6.4.8h11.2v-4.8h-2.4c-.24-2.56,0-4.96.8-7.2h3.2ZM125.09,292.76c-.72.56-.96,1.36-.8,2.4h-5.6v-6.4h6.4v4Z" style="fill: #337394; fill-rule: evenodd;"/>
        <path d="M488.29,296.76c.64,3.2.88,6.4.8,9.6.32,13.36-.16,26.72-1.6,40-2.48,14.96-6.72,29.36-12.8,43.2-.8,0-1.36-.4-1.6-1.2,1.2-7.92,2-15.76,2.4-23.6,1.04-5.04,2.16-10.16,3.2-15.2,1.2-.64,1.84-1.76,2-3.2.4-3.28,1.12-6.48,2-9.6-.48-8.96-.96-17.76-1.6-26.4-.4-6.72-.96-13.36-1.6-20,1.28-4.08,1.92-8.32,2-12.8.24-.64.64-1.2,1.2-1.6.96,2.4.96,4.8,0,7.2,2.56,4.32,4.4,8.88,5.6,13.6Z" style="fill: #2c7296; fill-rule: evenodd;"/>
        <path d="M113.09,296.76v4c2.32-.24,4.48,0,6.4.8h-7.2c-.24-1.76,0-3.36.8-4.8Z" style="fill: #337394; fill-rule: evenodd;"/>
        <path d="M541.89,309.56c.56-2.64.8-5.28.8-8-5.36.32-10.72.32-16,0,.56-.8,1.04-1.6,1.6-2.4-1.2-1.12-1.68-2.4-1.2-4,1.84,1.36,3.76,2.64,5.6,4,.32-.96.88-1.76,1.6-2.4,1.84,5.28,3.84,5.28,6,0-2-.96-2.8-2.56-2.4-4.8h3.2c.24-1.92.72-3.84,1.6-5.6-.24-.8-.8-1.36-1.6-1.6-1.04.8-2.16,1.6-3.2,2.4-.8-2.88-1.04-5.84-.8-8.8h-4c.24,1.2-.08,2.24-.8,3.2-1.92.64-3.76,1.44-5.6,2.4-1.36-1.6-1.84-3.44-1.6-5.6-1.52-.24-2.88,0-4,.8.32,3.44.56,6.96.8,10.4,0,2.24-.56,4.08-1.6,5.6-1.6-3.92-2.08-8.16-1.6-12.8h-16.8c-.16,1.92.08,3.84.8,5.6.96.8,2,1.04,3.2.8v6.4h-2.4v5.6c5.12-.24,10.16,0,15.2.8,1.2-1.84,2.4-3.76,3.6-5.6,0,2.56.64,4.8,2,6.8-6.96.72-13.84,1.36-20.8,2v5.6c2.48-.24,4.88,0,7.2.8-.64,1.28-1.44,2.48-2.4,3.6,1.92,4.16,5.12,5.44,9.6,4,3.2-1.04,6.08-2.56,8.8-4.4,4.72.88,9.28,2.16,13.6,4,3.28-2.56,3.76-5.44,1.6-8.8ZM515.49,294.36h-6.4c-.32-2.72.24-5.12,1.6-7.2h4.8v7.2ZM526.29,287.16c3.04,2.24,5.04,1.44,6-2.4,1.52,2.56,2.08,5.52,1.6,8.8-2.48-.16-4.88-.88-7.2-2-.88-1.36-.96-2.88-.4-4.4ZM537.89,311.16c-4,.16-7.84-.32-11.6-1.6-2.96,2-6.16,3.36-9.6,4-2.64,0-3.84-1.36-3.6-4,6.56-.64,12.96-1.44,19.2-2.4h5.6v4Z" style="fill: #367695; fill-rule: evenodd;"/>
        <path d="M122.69,309.56v-5.6c-4.4.24-8.64-.32-12.8-1.6-.48-1.44-1.28-2.64-2.4-3.6,1.04-.24,1.92-.64,2.8-1.2.72-5.44,1.2-10.72,1.2-16-.96-1.92-2.32-3.52-4-4.8-3.44,4.4-7.6,8.16-12.4,11.2-.8-.56-1.6-1.04-2.4-1.6-1.84,2.24-2.24,4.64-1.2,7.2,5.2,2.16,10,4.96,14.4,8.4-3.28.8-6.32.4-9.2-1.2-1.52.96-2.72,2.32-3.6,4,1.04.96,1.6,2.16,1.6,3.6-1.2,2.4-1.6,4.96-1.6,7.6,9.84.8,19.76,1.6,29.6,2.4v-5.6h-3.2v-3.2h3.2ZM99.49,290.36c1.2-1.28,2.56-2.32,4-3.2h3.2c.24,3.28,0,6.48-.8,9.6-2.4-1.84-4.56-4-6.4-6.4ZM115.49,311.96c-5.6-.56-11.2-.88-16.8-.8v-3.2c5.6.16,11.2.4,16.8.8v3.2Z" style="fill: #357695; fill-rule: evenodd;"/>
        <path d="M481.09,310.36c.64,8.64,1.12,17.44,1.6,26.4-.88,3.12-1.6,6.32-2,9.6-.16,1.44-.8,2.56-2,3.2,1.92-12.96,2.72-26.08,2.4-39.2Z" style="fill: #2c7296; fill-rule: evenodd;"/>
        <path d="M103.49,335.96c8-1.44,11.92,1.76,11.6,9.6-2,4.8-5.6,6.48-10.8,5.2-6.08-4.64-6.32-9.6-.8-14.8Z" style="fill: #327494; fill-rule: evenodd;"/>
        <path d="M521.09,335.96c9.28-.96,12.64,3.04,10,12-4.8,4.48-9.36,4.24-13.6-.8-1.36-4.72-.16-8.48,3.6-11.2Z" style="fill: #2f7293; fill-rule: evenodd;"/>
        <path d="M569.89,341.56c-.16,3.92-.72,7.6-1.6,11.2-.32-4,.24-7.68,1.6-11.2Z" style="fill: #6998ae; fill-rule: evenodd;"/>
        <path d="M503.49,364.76c1.84.4,3.68.64,5.6.8-.32,2.24-.32,4.4,0,6.4,7.2,1.84,14.4,3.84,21.6,6-.56,1.44-1.12,2.88-1.6,4.4-.56.24-1.04.56-1.6.8l-21.6-4.8c.32,4.16-1.44,5.44-5.2,4,.64-5.84,1.6-11.76,2.8-17.6Z" style="fill: #337595; fill-rule: evenodd;"/>
        <path d="M125.89,370.36h3.2c.72,4.72,1.84,9.44,3.2,14,0,3.2-1.52,4.4-4.8,3.6,0-3.28-.56-6.48-1.6-9.6-2.4.16-4.8.4-7.2.8,0,2.8.56,5.44,1.6,8-1.52,1.36-3.12,1.6-4.8.8-.8-2.08-1.28-4.24-1.6-6.4-3.68.32-7.28,1.12-10.8,2.4-1.04-2-1.76-4.16-2-6.4,8.48-1.92,16.72-4.32,24.8-7.2Z" style="fill: #357594; fill-rule: evenodd;"/>
        <path d="M497.89,385.56c8.96,3.44,17.76,7.12,26.4,11.2-.72,4.64-3.12,5.84-7.2,3.6-6.72-2.72-13.36-5.52-20-8.4-.24-.56-.56-1.04-.8-1.6.56-1.6,1.04-3.2,1.6-4.8Z" style="fill: #377695; fill-rule: evenodd;"/>
        <path d="M130.69,394.36c-7.52,1.68-15.28,2.8-23.2,3.2.16,2.16.96,4,2.4,5.6,2-1.04,4-1.04,6,0,.64,1.84,1.36,3.76,2,5.6-1.44,1.6-2.8,3.36-4,5.2.32,1.84,1.12,3.28,2.4,4.4,7.68-5.44,15.04-11.28,22-17.6.48-5.52-2-7.6-7.6-6.4ZM123.09,405.56c-1.12-.56-1.84-1.52-2-2.8.96-1.12,2-2.08,3.2-2.8,1.92-.24,3.84,0,5.6.8-2.24,1.68-4.48,3.28-6.8,4.8Z" style="fill: #367695; fill-rule: evenodd;"/>
        <path d="M491.49,399.96c8.96,4,17.76,8.24,26.4,12.8-.64,2.08-1.84,3.68-3.6,4.8-3.12-.88-6.08-2.24-8.8-4-1.84,1.2-3.04,2.88-3.6,5.2.24.4.56.8.8,1.2,3.28,1.44,6.48,3.04,9.6,4.8-.72,1.92-1.92,3.52-3.6,4.8-8.72-3.6-17.12-7.76-25.2-12.4.96-1.76,2-3.52,3.2-5.2l9.6,4.8c.96-1.36,1.84-2.64,2.8-4,.56-.88.48-1.68-.4-2.4-3.2-1.36-6.16-3.04-8.8-5.2.88-1.6,1.44-3.36,1.6-5.2Z" style="fill: #367493; fill-rule: evenodd;"/>
        <path d="M169.09,412.76c4.56,1.92,6.96,5.36,7.2,10.4-2.72-3.2-5.12-6.72-7.2-10.4Z" style="fill: #3a798e; fill-rule: evenodd;"/>
        <path d="M183.49,419.16c.16,1.04-.16,2-.8,2.8-2,1.04-4.16,1.44-6.4,1.2-.24-5.04-2.64-8.48-7.2-10.4.08-3.12.88-6.08,2.4-8.8,1.2,1.92,2.48,3.76,4,5.6-.4.56-.96.96-1.6,1.2.88,2.72,2.32,4.96,4.4,6.8,1.12,6.24,1.92,6.24,2.4,0,.64,1.04,1.6,1.6,2.8,1.6Z" style="fill: #2a7199; fill-rule: evenodd;"/>
        <path d="M139.49,414.36c9.92.56,13.52,5.68,10.8,15.2-1.36,1.52-2.8,2.8-4.4,4-3.76-2.4-3.92-4.8-.4-7.2,1.12-3.2,0-5.04-3.2-5.6-6.16,1.2-10.8,4.4-14,9.6,0,1.2.56,2.16,1.6,2.8,2.16.24,4.32.24,6.4,0,.56,1.6,1.36,3.04,2.4,4.4-7.28,3.6-12.48,1.76-15.6-5.6-.56-1.84-.56-3.76,0-5.6,3.92-6.24,9.36-10.24,16.4-12Z" style="fill: #357594; fill-rule: evenodd;"/>
        <path d="M475.49,364.76c-.4,7.84-1.2,15.68-2.4,23.6.24.8.8,1.2,1.6,1.2-21.28,46.16-55.92,77.76-104,94.8-7.92,2.48-15.92,4.48-24,6-2.8-1.6-6-2.4-9.6-2.4-12.72.32-25.36.32-38,0-2.08.4-4.08.88-6,1.6-3.36-1.12-6.8-1.76-10.4-2,7.6-1.36,15.2-1.52,22.8-.4.96-.24,1.84-.56,2.8-.8-2.24-.56-4.4-1.04-6.4-1.6,72.8,2.16,126.8-28.24,162-91.2,4.16-9.6,8-19.2,11.6-28.8h0Z" style="fill: #307495; fill-rule: evenodd;"/>
        <path d="M497.89,435.96c4.24,2.08,7.44,5.28,9.6,9.6-.4,1.28-1.2,1.68-2.4,1.2-.88-1.6-2-3.04-3.2-4.4-1.92,1.68-3.76,1.36-5.6-.8-.72-2.08-.16-4,1.6-5.6Z" style="fill: #3a7795; fill-rule: evenodd;"/>
        <path d="M469.09,438.36c3.44-.16,6.64.64,9.6,2.4-.56,1.44-1.36,2.8-2.4,4-2.32,0-4.72.32-7.2.8-1.04,1.92-.96,3.76.4,5.6,3.2,3.6,7.04,6,11.6,7.2,4.24-.88,5.04-3.2,2.4-6.8-1.52,0-2.88.72-4,2-1.6-.4-2.64-1.36-3.2-2.8,1.44-2.88,3.28-5.44,5.6-7.6,3.92,3.2,7.92,6.32,12,9.2-.64,1.84-1.68,2.24-3.2,1.2-.64,8.48-5.2,12.08-13.6,10.8-9.68-2.72-14.32-8.96-14-18.8,1.28-3.04,3.28-5.44,6-7.2h0Z" style="fill: #367594; fill-rule: evenodd;"/>
        <path d="M157.89,432.76c1.2,1.28,2.4,2.64,3.6,4,.56.56.56,1.04,0,1.6-5.04,3.84-10,7.84-14.8,12-2.64,4.08-1.6,6.4,3.2,6.8,5.6-4.16,11.2-8.24,16.8-12.4,1.36.8,2.4,1.84,3.2,3.2-5.84,5.68-12.24,10.64-19.2,14.8-6.08.4-9.92-2.4-11.6-8.4-.56-1.6-.56-3.2,0-4.8,1.44-2.24,3.2-4.24,5.2-6,4.72-3.52,9.2-7.12,13.6-10.8Z" style="fill: #357695; fill-rule: evenodd;"/>
        <path d="M183.49,419.16c28.08,35.76,64.56,57.36,109.6,64.8-5.36.16-10.72.72-16,1.6,1.52,1.92,3.36,3.28,5.6,4-44.08-8.56-79.52-30.72-106.4-66.4,2.24.24,4.4-.16,6.4-1.2.64-.8.96-1.76.8-2.8h0Z" style="fill: #317495; fill-rule: evenodd;"/>
        <path d="M453.09,455.96c7.44,6.08,14.4,12.8,20.8,20-1.28,1.68-2.88,3.04-4.8,4-6.32-2.8-12.56-5.76-18.8-8.8-.56.56-.56,1.04,0,1.6l13.2,13.2-3.6,3.6c-6.64-6.8-13.2-13.76-19.6-20.8,1.36-2,3.12-3.6,5.2-4.8,5.36,2.88,10.8,5.12,16.4,6.8l-10.8-10.8c-.56-2,0-3.28,2-4h0Z" style="fill: #347595; fill-rule: evenodd;"/>
        <path d="M174.69,453.56c2.24.72,3.84,2.24,4.8,4.4-4.88,5.6-10,11.04-15.2,16.4,1.84,2.16,3.76,4.24,5.6,6.4-.88,1.52-1.92,2.88-3.2,4-3.84-3.44-7.6-7.04-11.2-10.8,6.24-6.96,12.64-13.76,19.2-20.4h0Z" style="fill: #327596; fill-rule: evenodd;"/>
        <path d="M461.89,295.16c1.2,3.28,1.92,6.72,2,10.4.16,4.64.24,9.36.4,14,.16,6.48-.32,12.72-1.6,18.8,0-2.4-.24-4.8-.8-7.2,1.2-4.56,1.76-9.28,1.6-14-.32-7.36-.8-14.72-1.6-22Z" style="fill: #4c8197; fill-rule: evenodd;"/>
        <path d="M439.49,335.16c7.12,6.96,13.76,14.32,20,22-5.36,19.6-14.16,37.28-26.4,53.2-2.48,2.72-4.88,5.52-7.2,8.4-16.8-1.68-30.24-9.28-40.4-22.8-15.04-22.88-20.4-47.92-16-75.2,1.44-7.44,2.8-14.88,4-22.4.56-2.4,1.68-4.56,3.2-6.4,22.4,12.32,43.36,26.72,62.8,43.2Z" style="fill: #2b7395; fill-rule: evenodd;"/>
        <path d="M323.49,371.96c-.16,9.6,1.36,18.96,4.4,28,.56.72,1.2,1.2,2,1.6,10,23.36,27.6,36.64,52.8,40,4.96.64,10,1.04,15.2,1.2-35.36,22.88-73.76,30.08-115.2,21.6-3.28-.48-5.92-2-8-4.4-16.08-16.4-24.96-36.08-26.8-59.2-1.28-28.32,5.12-54.72,19.2-79.2,12.32-20.88,27.12-40,44.4-57.2,11.92,2.8,23.36,7.12,34.4,12.8-16,29.6-23.44,61.2-22.4,94.8h0Z" style="fill: #2b7396; fill-rule: evenodd;"/>
        <path d="M225.89,251.16c14.72.64,29.36,2,44,4-20.64,15.12-40,31.92-58,50.4-15.04,16.08-27.6,34-37.6,53.6-.56,1.04-1.04,1.04-1.6,0-.64-.96-1.04-2.08-1.2-3.2-8.56-35.44-4.96-69.6,10.8-102.4,4-1.2,8.16-1.84,12.4-2,10.4-.4,20.8-.56,31.2-.4h0Z" style="fill: #2c7396; fill-rule: evenodd;"/>
        <path d="M408.29,202.36c-6.64,6.08-13.6,12-20.8,17.6.88-1.44,1.52-3.04,2-4.8.96,1.2,1.6,1.04,2-.4-2.16-1.36-4.08-3.12-5.6-5.2-.96,1.2-.96,2.4,0,3.6-1.36.32-2.56-.08-3.6-1.2-6.32,1.84-6.48,3.2-.4,4-1.76,1.84-3.92,2.48-6.4,2,2.16-1.36,2-2-.4-2-1.76.8-3.44,1.6-5.2,2.4v2.4h2.4v3.2c-2.08-1.44-4.48-2.24-7.2-2.4v3.2c2.48,1.12,5.2,1.76,8,2,.48,1.44,1.44,2.32,2.8,2.8,1.36-1.52,3.12-2.32,5.2-2.4-10,11.04-19.04,22.8-27.2,35.2-9.36-3.76-18.64-7.44-28-11.2,5.76-5.92,11.92-11.36,18.4-16.4,9.6-7.28,19.44-14.08,29.6-20.4,9.68-5.6,19.76-10.4,30.4-14.4,1.12,1.2,2.48,2,4,2.4Z" style="fill: #2f7495; fill-rule: evenodd;"/>
        <path d="M419.49,212.76c23.2,22.72,37.36,50.16,42.4,82.4.8,7.28,1.28,14.64,1.6,22,.16,4.72-.4,9.44-1.6,14,.56,2.4.8,4.8.8,7.2,0,4.96-.96,9.76-2.8,14.4-5.44-8.48-11.44-16.48-18-24-7.84-10.08-16.64-19.28-26.4-27.6-11.36-8.88-22.88-17.52-34.4-26,8.56-20.96,19.6-40.4,33.2-58.4,1.44-1.84,3.12-3.2,5.2-4h0Z" style="fill: #2b7396; fill-rule: evenodd;"/>
        <path d="M323.49,371.96c1.12,10,3.2,19.84,6.4,29.6-.8-.4-1.44-.88-2-1.6-3.04-9.04-4.56-18.4-4.4-28Z" style="fill: #4b8098; fill-rule: evenodd;"/>
        <path d="M387.49,219.96c-1.6,2.96-3.76,5.36-6.4,7.2-2.08,0-3.84.88-5.2,2.4-1.36-.48-2.32-1.36-2.8-2.8-2.8-.24-5.52-.88-8-2v-3.2c2.72.16,5.12.96,7.2,2.4v-3.2h-2.4v-2.4c1.76-.8,3.44-1.6,5.2-2.4,2.4,0,2.56.64.4,2,2.48.48,4.64-.16,6.4-2-6.08-.8-5.92-2.16.4-4,1.04,1.12,2.24,1.52,3.6,1.2-.96-1.2-.96-2.4,0-3.6,1.52,2.08,3.44,3.84,5.6,5.2-.4,1.44-1.04,1.6-2,.4-.48,1.76-1.12,3.36-2,4.8Z" style="fill: #2c7297; fill-rule: evenodd;"/>
        <path d="M364.29,210.36c-26.16,8-50.96,19.04-74.4,33.2-3.44.24-6.96,0-10.4-.4-9.2-1.2-18.48-1.76-28-1.6-11.12-.32-22.08.48-32.8,2.4-5.44.08-10.8.88-16,2.4-6,.8-11.84,2.16-17.6,4l-.8-.8c26-45.84,65.2-72.08,117.6-78.8,36.96-2.32,70.56,6.96,100.8,28-9.12,2.16-18.16,4.56-27.2,7.2-4,1.12-7.68,2.56-11.2,4.4Z" style="fill: #2b7396; fill-rule: evenodd;"/>
        <path d="M186.69,465.56c5.36,2.8,10.16,6.4,14.4,10.8-.64,1.6-1.68,2.8-3.2,3.6-1.52-.72-3.04-1.52-4.4-2.4-4.8,5.84-9.6,11.68-14.4,17.6-1.84-.88-3.28-2.24-4.4-4,4.08-6.32,8.64-12.32,13.6-18-1.2-1.36-2.56-2.56-4-3.6.64-1.52,1.44-2.8,2.4-4Z" style="fill: #337595; fill-rule: evenodd;"/>
        <path d="M423.49,479.96c4.32,2.72,4.16,5.12-.4,7.2-.56.8-.56,1.6,0,2.4,4.08,5.76,7.92,11.6,11.6,17.6-1.6,1.04-3.2,2.16-4.8,3.2-4.56-6.24-8.96-12.64-13.2-19.2-3.28,3.6-5.76,3.2-7.6-1.2,4.72-3.52,9.52-6.88,14.4-10Z" style="fill: #347595; fill-rule: evenodd;"/>
        <path d="M293.09,483.96c2.96,0,5.92.24,8.8.8,2,.56,4.16,1.04,6.4,1.6-.96.24-1.84.56-2.8.8-7.6-1.12-15.2-.96-22.8.4,3.6.24,7.04.88,10.4,2,1.92-.72,3.92-1.2,6-1.6,12.64.32,25.28.32,38,0,3.6,0,6.8.8,9.6,2.4-2.16.24-4.24.56-6.4.8-8.56.16-17.12-.32-25.6-1.6-3.6.4-7.2.88-10.8,1.6-3.92-.88-7.76-.88-11.6,0-3.44.24-6.64-.32-9.6-1.6-2.24-.72-4.08-2.08-5.6-4,5.28-.88,10.64-1.44,16-1.6Z" style="fill: #2b7299; fill-rule: evenodd;"/>
        <path d="M340.29,491.16c-16,3.12-32,3.12-48,0,3.84-.88,7.68-.88,11.6,0,3.6-.72,7.2-1.2,10.8-1.6,8.48,1.28,17.04,1.76,25.6,1.6Z" style="fill: #437e9b; fill-rule: evenodd;"/>
        <path d="M407.49,494.36c-.88,0-1.68-.32-2.4-.8-.24.56-.56,1.04-.8,1.6.56,1.84.88,3.68.8,5.6-2.08-2.24-2.96-4.96-2.8-8,2.88-2.64,4.56-2.08,5.2,1.6Z" style="fill: #3e7c92; fill-rule: evenodd;"/>
        <path d="M433.09,473.56c1.2,0,2.16.56,2.8,1.6,4.96,6.56,9.76,13.2,14.4,20,.56.56.56,1.04,0,1.6-1.6,1.92-3.44,2.48-5.6,1.6-5.04-7.28-10.24-14.48-15.6-21.6,1.36-1.12,2.72-2.16,4-3.2Z" style="fill: #327495; fill-rule: evenodd;"/>
        <path d="M204.29,479.16c2.64.56,4.8,1.84,6.4,4-1.04,3.44-1.68,6.96-2,10.4,2.96-2.24,6.08-4.4,9.2-6.4,1.52,1.36,3.12,2.56,4.8,3.6-5.2,2.72-10.24,5.68-15.2,8.8-2.24,3.6-4.8,6.88-7.6,10-2.16-.32-3.68-1.52-4.4-3.6,5.76-7.92,8.64-16.8,8.8-26.8Z" style="fill: #347594; fill-rule: evenodd;"/>
        <path d="M407.49,494.36c2.32,4.72,4.4,9.52,6.4,14.4-.56,2.96-1.12,6.08-1.6,9.2-2.96.72-5.6,1.92-8,3.6-2.16-.8-4.24-1.6-6.4-2.4-3.44-6.4-6.64-12.88-9.6-19.6,1.92-1.92,4-2.56,6.4-2,2.32,6,4.88,11.84,7.6,17.6,1.76,1.52,3.76,1.92,6,1.2,1.04-.64,1.6-1.6,1.6-2.8-1.6-4.32-3.2-8.56-4.8-12.8,0-1.92-.24-3.76-.8-5.6.24-.56.56-1.04.8-1.6.72.48,1.52.8,2.4.8Z" style="fill: #327496; fill-rule: evenodd;"/>
        <path d="M253.89,503.96c5.68,1.04,11.28,2.4,16.8,4-.24,1.6-.56,3.2-.8,4.8-3.68-1.04-7.44-1.84-11.2-2.4,0,1.92-.24,3.76-.8,5.6.24.56.56,1.04.8,1.6,1.84.56,3.76,1.04,5.6,1.6.56,1.52.56,3.12,0,4.8-2.72-.24-5.36-.72-8-1.6-1.04,3.2-2.16,6.4-3.2,9.6-1.76.48-3.68.48-5.6,0,1.84-9.44,3.92-18.72,6.4-28h0Z" style="fill: #357596; fill-rule: evenodd;"/>
        <path d="M243.49,499.56c-3.04-2.56-6.48-3.76-10.4-3.6-7.04,4.72-10.8,11.36-11.2,20,1.28,7.2,5.52,10.24,12.8,9.2,6.72-4.56,10.4-10.96,11.2-19.2-.16-2.4-.96-4.48-2.4-6.4ZM239.09,507.16c-1.04,5.36-3.76,9.6-8,12.8-1.04-.24-1.84-.72-2.4-1.6,0-6.48,2.32-12.08,6.8-16.8,3.6.24,4.8,2.16,3.6,5.6Z" style="fill: #337595; fill-rule: evenodd;"/>
        <path d="M373.89,503.96c-1.92,1.12-4,1.76-6.4,2-.72.32-1.28.88-1.6,1.6,2.32,8.72,4.72,17.36,7.2,26,1.92.16,3.84-.08,5.6-.8.24-.56.56-1.04.8-1.6-1.2-2.88-1.84-5.84-2-8.8,2.88-.88,5.6-2.24,8-4,3.36-10.64-.56-15.44-11.6-14.4ZM378.69,516.36c-1.2.8-2.56,1.2-4,1.2-.16-2.48-.72-4.88-1.6-7.2.32-.56.56-1.04.8-1.6,5.84,0,7.44,2.64,4.8,7.6Z" style="fill: #327594; fill-rule: evenodd;"/>
        <path d="M285.09,511.16c9.36-1.28,13.92,2.72,13.6,12h-5.6c.8-3.44-.4-5.84-3.6-7.2-2.72,1.2-4.32,3.36-4.8,6.4-.72,4.08-.48,8.08.8,12,4,1.76,6,.4,6-4,6.08-.56,7.6,1.6,4.4,6.4-3.76,4-8.16,4.96-13.2,2.8-1.52-1.2-2.72-2.72-3.6-4.4-1.92-6.88-1.36-13.52,1.6-20,1.36-1.52,2.88-2.88,4.4-4Z" style="fill: #347495; fill-rule: evenodd;"/>
        <path d="M413.89,508.76c2.72,5.04,1.68,9.2-3.2,12.4-2.96,1.84-6.16,2.4-9.6,1.6-1.52-.8-2.56-2-3.2-3.6,2.16.8,4.24,1.6,6.4,2.4,2.4-1.68,5.04-2.88,8-3.6.48-3.12,1.04-6.24,1.6-9.2Z" style="fill: #417a91; fill-rule: evenodd;"/>
        <path d="M360.29,525.56c1.2,3.6,1.68,7.36,1.6,11.2-1.84.4-3.68.64-5.6.8-1.04-6.64-2.16-13.36-3.2-20,.16-.96-.08-1.76-.8-2.4-.8,2.32-1.04,4.72-.8,7.2v8.8c-.48,0-.88.32-1.2.8-.4,2.08-.56,4.24-.4,6.4h-2.4c.4-1.52.88-2.96,1.6-4.4-.08-7.2-.08-14.56,0-22,2.72,0,5.36-.24,8-.8.56,5.28.96,10.64,1.2,16,.32-1.04.96-1.52,2-1.6Z" style="fill: #307397; fill-rule: evenodd;"/>
        <path d="M360.29,525.56c-.96,0-1.68.56-2,1.6-.24-5.36-.64-10.72-1.2-16-2.64.56-5.28.8-8,.8-.08,7.44-.08,14.8,0,22-.72,1.44-1.2,2.88-1.6,4.4h2.4c-.16-2.16,0-4.32.4-6.4.32-.48.72-.72,1.2-.8v8c-1.84.4-3.68.64-5.6.8-2.56-6.96-5.36-13.92-8.4-20.8,1.2,7.44,2.4,14.88,3.6,22.4-2.08.32-3.76-.16-5.2-1.6-1.44-8.56-3.2-17.12-5.2-25.6.16-.48.4-.88.8-1.2,2.96-.88,5.92-.96,8.8-.4,1.84,4.32,3.76,8.56,5.6,12.8,0,1.04.4,1.84,1.2,2.4.4-2.08.56-4.24.4-6.4-.16-3.76,0-7.44.4-11.2,2.48-.64,5.04-1.2,7.6-1.6,1.68.72,2.64,2.08,2.8,4,.72,4.24,1.36,8.56,2,12.8Z" style="fill: #307397; fill-rule: evenodd;"/>
        <path d="M323.89,519.16c-2.56-5.12-6.72-7.2-12.4-6.4-2.64,1.12-4.64,3.04-6,5.6-1.12,4.48-1.36,9.04-.8,13.6,2.8,11.04,8.96,13.44,18.4,7.2,2.4-6.56,2.64-13.2.8-20ZM318.29,535.16c-2.4,3.28-4.56,3.04-6.4-.8-.56-4.8-.56-9.6,0-14.4.56-.4.96-.96,1.2-1.6,3.36-.24,5.12,1.36,5.2,4.8.56,4,.56,8,0,12Z" style="fill: #357594; fill-rule: evenodd;"/>
        <path d="M346.69,569.56c-2,.64-4.08,1.04-6.4,1.2-16.24.56-32.56.56-48.8,0-8.48-.8-16.8-2.24-24.8-4.4,4.72-1.28,9.2-1.04,13.6.8,4.88-1.12,9.68-1.04,14.4.4-2.48.16-4.88.72-7.2,1.6,14.4.96,28.8,1.12,43.2.4-2.32-.64-4.72-1.04-7.2-1.2l.8-.8c3.2-.4,6.4-.56,9.6-.4v2.4h12.8Z" style="fill: #3c7895; fill-rule: evenodd;"/>
</svg>